<?xml version="1.0" encoding="UTF-8"?>
<!DOCTYPE svg PUBLIC "-//W3C//DTD SVG 1.0//EN" "http://www.w3.org/TR/2001/REC-SVG-20010904/DTD/svg10.dtd">
<!-- Creator: CorelDRAW 2019 (64-Bit) -->
<svg xmlns="http://www.w3.org/2000/svg" xml:space="preserve" width="1.65906in" height="0.773445in" version="1.0" style="shape-rendering:geometricPrecision; text-rendering:geometricPrecision; image-rendering:optimizeQuality; fill-rule:evenodd; clip-rule:evenodd"
viewBox="0 0 51098 23822"
 xmlns:xlink="http://www.w3.org/1999/xlink">
 <defs>
  <style type="text/css">
   <![CDATA[
    .fil0 {fill:#231F1F;fill-rule:nonzero}
    .fil14 {fill:#2A93F4;fill-rule:nonzero}
    .fil12 {fill:#BCBCBC;fill-rule:nonzero}
    .fil11 {fill:white;fill-rule:nonzero}
    .fil15 {fill:#383838;fill-rule:nonzero}
    .fil13 {fill:url(#id7);fill-rule:nonzero}
    .fil9 {fill:url(#id8);fill-rule:nonzero}
    .fil5 {fill:url(#id9);fill-rule:nonzero}
    .fil10 {fill:url(#id10);fill-rule:nonzero}
    .fil16 {fill:url(#id11);fill-rule:nonzero}
    .fil7 {fill:url(#id12);fill-rule:nonzero}
    .fil8 {fill:url(#id13);fill-rule:nonzero}
    .fil6 {fill:url(#id14);fill-rule:nonzero}
    .fil23 {fill:url(#id15);fill-rule:nonzero}
    .fil2 {fill:url(#id16);fill-rule:nonzero}
    .fil4 {fill:url(#id17);fill-rule:nonzero}
    .fil1 {fill:url(#id18);fill-rule:nonzero}
    .fil3 {fill:url(#id19);fill-rule:nonzero}
    .fil18 {fill:url(#id20);fill-rule:nonzero}
    .fil17 {fill:url(#id21);fill-rule:nonzero}
    .fil20 {fill:url(#id22);fill-rule:nonzero}
    .fil22 {fill:url(#id23);fill-rule:nonzero}
    .fil19 {fill:url(#id24);fill-rule:nonzero}
    .fil21 {fill:url(#id25);fill-rule:nonzero}
   ]]>
  </style>
       <clipPath id="id0">
        <path d="M32466 4815c-172,-20 -344,-40 -517,-60 -172,-20 -344,-40 -517,-60 -124,-14 -248,-29 -372,-43 -48,-6 -97,-11 -145,-17 -49,-77 -98,-154 -147,-230 -50,-78 -100,-157 -150,-235 -28,-45 -57,-89 -85,-134 51,-117 136,-222 240,-301 36,-28 74,-52 114,-73 102,-54 214,-85 326,-85 155,0 310,62 434,207 118,138 227,285 339,427 80,101 159,201 239,302 40,51 81,101 121,152 39,50 79,100 118,149z"/>
       </clipPath>
       <clipPath id="id1">
        <path d="M32389 5185c-166,-50 -332,-100 -498,-150 -166,-50 -332,-100 -498,-150 -119,-36 -239,-72 -358,-108 -47,-14 -93,-28 -140,-42 -75,51 -151,102 -226,153 -77,52 -154,104 -231,157 -44,30 -87,59 -131,89 0,128 37,257 101,372 22,40 47,77 76,112 72,90 163,163 265,207 143,61 309,66 481,-18 163,-80 321,-172 481,-258 113,-61 226,-122 339,-182 57,-31 114,-61 171,-92 56,-30 112,-60 168,-90z"/>
       </clipPath>
      <clipPath id="id2">
       <path d="M35094 5900c-326,-80 -675,-167 -1027,-256 -352,-89 -709,-180 -1051,-270 -342,-90 -670,-178 -964,-260 -295,-83 -556,-159 -767,-227 -210,-67 -369,-125 -458,-169 -25,-12 -44,-23 -57,-33 -17,-12 -25,-23 -23,-32 2,-8 12,-15 31,-19 17,-4 40,-7 68,-8 99,-5 268,5 487,27 220,22 490,55 794,96 303,41 639,90 989,143 350,53 713,110 1072,168 359,58 713,116 1045,172 -19,49 -37,100 -54,151 -19,58 -36,117 -49,176 -13,62 -21,123 -27,185 -4,50 -7,102 -9,156z"/>
      </clipPath>
      <clipPath id="id3">
       <path d="M36925 6338c-25,-5 -128,-29 -291,-67 -162,-38 -384,-91 -647,-154 -263,-63 -566,-137 -892,-217 2,-55 4,-106 9,-156 6,-62 14,-123 27,-185 12,-60 29,-118 49,-176 17,-51 36,-102 54,-151 331,56 639,108 905,154 266,46 491,85 655,115 164,29 268,48 294,53 -13,61 -25,123 -38,184 -14,70 -29,139 -43,209 -15,73 -30,145 -45,218 -12,58 -24,117 -36,175z"/>
      </clipPath>
      <clipPath id="id4">
       <path d="M39183 6701c-78,15 -160,32 -240,41 -84,10 -166,12 -243,-3 -31,-7 -78,83 -112,95 -3,1 -7,1 -10,1 -285,-59 -566,-146 -850,-235 -288,-90 -579,-180 -871,-240 -17,-4 -34,-7 -52,-11 1,-42 3,-84 6,-125 4,-55 10,-111 18,-166 14,-96 33,-191 59,-285 13,-48 28,-96 44,-144 15,-45 32,-89 50,-133 17,4 34,7 52,11 292,60 595,93 895,124 296,31 589,62 874,121 3,1 6,2 9,5 26,24 34,125 65,131 78,16 151,56 223,105 69,47 136,101 201,148 -7,32 -8,36 -14,68 -7,34 -14,67 -21,101 -13,65 -27,130 -40,195 -8,37 -15,75 -23,112 -6,28 -12,56 -17,84z"/>
      </clipPath>
      <clipPath id="id5">
       <path d="M39281 6251c247,69 494,138 742,207 248,69 497,139 746,209 249,70 499,140 750,210 2,0 3,1 5,1 2,0 4,1 5,2 -2,0 -4,-1 -6,-1 -2,0 -3,0 -5,-1 -258,-35 -515,-70 -772,-105 -257,-35 -513,-69 -768,-104 -255,-35 -510,-69 -764,-104 -1,-23 0,-45 1,-68 2,-31 6,-63 13,-93 6,-27 13,-54 22,-81 8,-25 18,-49 29,-73z"/>
      </clipPath>
     <clipPath id="id6">
      <path d="M41793 6820c-18,-17 -37,-34 -55,-50 -50,-46 -100,-92 -150,-137 -51,-46 -101,-93 -152,-139 -18,-16 -35,-32 -53,-49 -28,30 -55,60 -82,90 -55,60 -110,120 -165,180 -493,537 -986,1074 -1479,1611 -312,340 -624,681 -937,1021 -219,238 -437,476 -656,715 -45,49 -89,97 -134,146 18,16 35,32 53,49 51,46 101,93 152,139 50,46 100,92 150,138 18,17 37,34 55,50 45,-49 89,-97 134,-146 219,-238 437,-476 656,-715 312,-340 624,-681 937,-1021 493,-537 986,-1074 1479,-1611 55,-60 110,-120 165,-180 28,-30 55,-60 83,-90z"/>
     </clipPath>
  <linearGradient id="id7" gradientUnits="userSpaceOnUse" x1="40497" y1="7293" x2="42680" y2="6711">
   <stop offset="0" style="stop-opacity:1; stop-color:#053B90"/>
   <stop offset="0.360784" style="stop-opacity:1; stop-color:#075CB7"/>
   <stop offset="1" style="stop-opacity:1; stop-color:#0A7EDF"/>
  </linearGradient>
  <linearGradient id="id8" gradientUnits="userSpaceOnUse" xlink:href="#id7" x1="39399" y1="7777" x2="44492" y2="6418">
  </linearGradient>
  <linearGradient id="id9" gradientUnits="userSpaceOnUse" xlink:href="#id7" x1="37203" y1="8743" x2="48116" y2="5833">
  </linearGradient>
  <linearGradient id="id10" gradientUnits="userSpaceOnUse" x1="39948" y1="7535" x2="43586" y2="6565">
   <stop offset="0" style="stop-opacity:1; stop-color:lightgrey"/>
   <stop offset="0.45098" style="stop-opacity:1; stop-color:#DDDDDD"/>
   <stop offset="1" style="stop-opacity:1; stop-color:#E8E8E8"/>
  </linearGradient>
  <linearGradient id="id11" gradientUnits="userSpaceOnUse" x1="43344" y1="396" x2="47152" y2="14675">
   <stop offset="0" style="stop-opacity:1; stop-color:#0864C1"/>
   <stop offset="0.121569" style="stop-opacity:1; stop-color:#0A7EDF"/>
   <stop offset="0.129412" style="stop-opacity:1; stop-color:#0A7EDF"/>
   <stop offset="0.309804" style="stop-opacity:1; stop-color:#4FCDFF"/>
   <stop offset="0.478431" style="stop-opacity:1; stop-color:#0A7EDF"/>
   <stop offset="0.65098" style="stop-opacity:1; stop-color:#0549A1"/>
   <stop offset="1" style="stop-opacity:1; stop-color:#032D82"/>
  </linearGradient>
  <linearGradient id="id12" gradientUnits="userSpaceOnUse" xlink:href="#id7" x1="38301" y1="8260" x2="46304" y2="6126">
  </linearGradient>
  <linearGradient id="id13" gradientUnits="userSpaceOnUse" xlink:href="#id10" x1="38850" y1="8018" x2="45398" y2="6272">
  </linearGradient>
  <linearGradient id="id14" gradientUnits="userSpaceOnUse" xlink:href="#id10" x1="37752" y1="8501" x2="47210" y2="5979">
  </linearGradient>
  <linearGradient id="id15" gradientUnits="userSpaceOnUse" x1="39065" y1="6445" x2="39286" y2="6399">
   <stop offset="0" style="stop-opacity:1; stop-color:#DBB36D"/>
   <stop offset="1" style="stop-opacity:1; stop-color:#8E602F"/>
  </linearGradient>
  <linearGradient id="id16" gradientUnits="userSpaceOnUse" x1="45499" y1="16237" x2="46043" y2="11682">
   <stop offset="0" style="stop-opacity:1; stop-color:#C6C6C6"/>
   <stop offset="0.45098" style="stop-opacity:1; stop-color:#B0B0B0"/>
   <stop offset="1" style="stop-opacity:1; stop-color:#9A9A9A"/>
  </linearGradient>
  <linearGradient id="id17" gradientUnits="userSpaceOnUse" xlink:href="#id16" x1="47272" y1="16779" x2="48504" y2="12361">
  </linearGradient>
  <linearGradient id="id18" gradientUnits="userSpaceOnUse" x1="45792" y1="15271" x2="46611" y2="10624">
   <stop offset="0" style="stop-opacity:1; stop-color:#F4F4F4"/>
   <stop offset="0.45098" style="stop-opacity:1; stop-color:#D8D8D8"/>
   <stop offset="1" style="stop-opacity:1; stop-color:#BCBCBC"/>
  </linearGradient>
  <linearGradient id="id19" gradientUnits="userSpaceOnUse" xlink:href="#id18" x1="47679" y1="15745" x2="49197" y2="11278">
  </linearGradient>
  <linearGradient id="id20" gradientUnits="userSpaceOnUse" x1="37070" y1="6534" x2="37302" y2="5436">
   <stop offset="0" style="stop-opacity:1; stop-color:#724621"/>
   <stop offset="0.470588" style="stop-opacity:1; stop-color:#8E602F"/>
   <stop offset="0.741176" style="stop-opacity:1; stop-color:#DBB36D"/>
   <stop offset="1" style="stop-opacity:1; stop-color:#8E602F"/>
  </linearGradient>
  <linearGradient id="id21" gradientUnits="userSpaceOnUse" xlink:href="#id20" x1="37058" y1="6531" x2="37291" y2="5434">
  </linearGradient>
  <radialGradient id="id22" gradientUnits="userSpaceOnUse" gradientTransform="matrix(-0.203808 -0 -0 1.11709 45601 -680)" cx="37881" cy="5809" r="1089" fx="37881" fy="5809">
   <stop offset="0" style="stop-opacity:1; stop-color:#8E602F"/>
   <stop offset="0.419608" style="stop-opacity:1; stop-color:#473017"/>
   <stop offset="0.901961" style="stop-opacity:1; stop-color:black"/>
   <stop offset="1" style="stop-opacity:1; stop-color:black"/>
  </radialGradient>
  <radialGradient id="id23" gradientUnits="userSpaceOnUse" gradientTransform="matrix(-0.231161 -0 -0 1.22342 48356 -1396)" xlink:href="#id22" cx="39276" cy="6250" r="692" fx="39276" fy="6250">
  </radialGradient>
  <radialGradient id="id24" gradientUnits="userSpaceOnUse" gradientTransform="matrix(-0.2361 -0 -0 1.12544 46824 -729)" cx="37881" cy="5809" r="1157" fx="37881" fy="5809">
   <stop offset="0" style="stop-opacity:1; stop-color:#724621"/>
   <stop offset="0.419608" style="stop-opacity:1; stop-color:#392310"/>
   <stop offset="0.901961" style="stop-opacity:1; stop-color:black"/>
   <stop offset="1" style="stop-opacity:1; stop-color:black"/>
  </radialGradient>
  <radialGradient id="id25" gradientUnits="userSpaceOnUse" gradientTransform="matrix(-0.267202 -0 -0 1.21961 49771 -1373)" xlink:href="#id24" cx="39277" cy="6250" r="739" fx="39277" fy="6250">
  </radialGradient>
 </defs>
 <g id="Layer_x0020_1">
  <metadata id="CorelCorpID_0Corel-Layer"/>
  <path class="fil0" d="M179 22623l0 0 5464 0 0 -2071 6540 0 0 -2320 6540 0 0 -2285 6555 0 0 -2285 5067 0 0 -1062 -28 0c-40,0 -72,-32 -72,-72 0,-40 32,-72 72,-72l28 0 0 -1373 -28 0c-40,0 -72,-32 -72,-72 0,-40 32,-72 72,-72l28 0 0 -1373 -28 0c-40,0 -72,-32 -72,-72 0,-40 32,-72 72,-72l28 0 0 -1373 -28 0c-40,0 -72,-32 -72,-72 0,-40 32,-72 72,-72l28 0 0 -1373 -28 0 0 -144 28 0 0 -878 -28 0 0 -179 28 0 0 -337c0,-40 32,-72 72,-72 40,0 72,32 72,72l0 337 1460 -1 0 -336c0,-40 32,-72 72,-72 40,0 72,32 72,72l0 336 16 0 0 179 -16 0 0 880 28 0c40,0 72,32 72,72 0,40 -32,72 -72,72l-28 0 0 1373 28 0c40,0 72,32 72,72 0,40 -32,72 -72,72l-28 0 0 1373 28 0c40,0 72,32 72,72 0,40 -32,72 -72,72l-28 0 0 1373 28 0c40,0 72,32 72,72 0,40 -32,72 -72,72l-28 0 0 1373 28 0c40,0 72,32 72,72 0,40 -32,72 -72,72l-28 0 0 1062 881 0 0 179 -7517 0 0 2285 -6555 0 0 2285 -6540 0 0 2320 -6540 0 0 2071 -3 0 -176 0 -5464 0 0 1019 -179 0 0 -1199 179 0zm31770 -17115l0 0 -1460 1 0 878 1460 0 0 -879zm0 1024l0 0 -1460 0 0 1373 1460 0 0 -1373zm0 1517l0 0 -1460 0 0 1373 1460 0 0 -1373zm0 1517l0 0 -1460 0 0 1373 1460 0 0 -1373zm0 1517l0 0 -1460 0 0 1373 1460 0 0 -1373zm0 1517l0 0 -1460 0 0 1062 1460 0 0 -1062z"/>
  <g id="_2305695050528">
   <g>
    <polygon class="fil1" points="47218,14117 47882,13969 46162,6242 45498,6389 "/>
    <polygon class="fil2" points="47218,14117 46891,14012 45209,6495 45498,6389 "/>
   </g>
   <g>
    <polygon class="fil3" points="50465,14662 51098,14415 48220,7040 47586,7287 "/>
    <polygon class="fil4" points="50465,14662 50126,14608 47316,7436 47586,7287 "/>
   </g>
   <g>
    <path class="fil5" d="M44563 148c3014,804 4604,4652 3553,8595 -1051,3943 -4347,6488 -7360,5685 -3014,-804 -4604,-4651 -3553,-8595 1051,-3943 4347,-6488 7360,-5685zm-3732 13280l0 0c2612,696 5468,-1509 6379,-4927 911,-3417 -467,-6752 -3079,-7449 -2612,-697 -5468,1509 -6379,4927 -911,3417 467,6752 3079,7449z"/>
    <path class="fil6" d="M44131 1053c2612,696 3990,4031 3079,7449 -911,3417 -3767,5623 -6379,4927 -2612,-697 -3990,-4031 -3079,-7449 911,-3417 3767,-5623 6379,-4927zm-3225 11376l0 0c2210,589 4627,-1277 5398,-4169 771,-2892 -395,-5714 -2605,-6303 -2210,-589 -4627,1277 -5398,4169 -771,2892 395,5714 2606,6303z"/>
    <path class="fil7" d="M43698 1957c2210,589 3377,3411 2605,6303 -771,2892 -3188,4758 -5398,4169 -2210,-589 -3377,-3411 -2606,-6303 771,-2892 3188,-4758 5398,-4169zm-2717 9472l0 0c1808,482 3786,-1045 4416,-3411 631,-2366 -324,-4675 -2132,-5157 -1808,-482 -3786,1045 -4416,3411 -631,2366 324,4675 2132,5157z"/>
    <path class="fil8" d="M43266 2861c1808,482 2763,2791 2132,5157 -631,2366 -2608,3893 -4416,3411 -1808,-482 -2763,-2791 -2132,-5157 631,-2366 2608,-3893 4416,-3411zm-2209 7568l0 0c1406,375 2944,-813 3435,-2653 491,-1840 -252,-3636 -1658,-4011 -1407,-375 -2945,813 -3435,2653 -491,1840 252,3636 1658,4011z"/>
    <path class="fil9" d="M42834 3765c1406,375 2149,2171 1658,4011 -491,1840 -2029,3028 -3435,2653 -1406,-375 -2149,-2171 -1658,-4011 491,-1840 2029,-3028 3435,-2653zm-1702 5665l0 0c1005,268 2103,-581 2454,-1895 351,-1315 -180,-2597 -1184,-2865 -1005,-268 -2103,581 -2454,1895 -351,1315 180,2597 1184,2865z"/>
    <path class="fil10" d="M42401 4670c1005,268 1535,1551 1184,2865 -350,1314 -1449,2163 -2454,1895 -1005,-268 -1535,-1551 -1184,-2865 350,-1315 1449,-2163 2454,-1895zm-1194 3761l0 0c603,161 1262,-348 1473,-1137 210,-789 -108,-1559 -711,-1719 -603,-161 -1262,348 -1473,1137 -210,789 108,1559 711,1719z"/>
    <g>
     <path class="fil11" d="M42007 5587c13,3 26,4 39,8 603,161 921,931 711,1719 -210,789 -870,1298 -1473,1137 -13,-4 -25,-9 -38,-13 592,129 1228,-373 1434,-1145 206,-772 -95,-1524 -673,-1707z"/>
     <path class="fil11" d="M44568 7797c-491,1840 -2029,3028 -3435,2653 -13,-3 -25,-8 -38,-11 1396,343 2910,-839 3397,-2662 486,-1823 -239,-3603 -1620,-4000 13,3 26,6 39,9 1406,375 2149,2171 1658,4011z"/>
     <path class="fil11" d="M46380 8280c-771,2892 -3188,4758 -5398,4169 -13,-3 -25,-8 -38,-11 2200,558 4593,-1303 5359,-4178 767,-2875 -382,-5680 -2568,-6291 13,3 26,6 39,9 2210,589 3377,3411 2605,6303z"/>
    </g>
    <g>
     <path class="fil12" d="M39948 6565c350,-1315 1449,-2163 2454,-1895 13,3 25,8 38,11 -994,-236 -2069,606 -2415,1904 -346,1298 167,2564 1146,2854 -13,-3 -26,-6 -39,-9 -1005,-268 -1535,-1551 -1184,-2865z"/>
     <path class="fil12" d="M44131 1053c13,3 25,8 38,11 -2601,-665 -5434,1535 -6341,4936 -907,3401 454,6719 3041,7437 -13,-3 -26,-5 -39,-9 -2612,-697 -3990,-4031 -3079,-7449 911,-3417 3767,-5623 6379,-4927z"/>
     <path class="fil12" d="M38850 6272c631,-2366 2608,-3893 4416,-3411 13,3 25,8 38,11 -1798,-450 -3751,1071 -4378,3420 -626,2349 311,4641 2094,5146 -13,-3 -26,-5 -39,-9 -1808,-482 -2763,-2791 -2132,-5157z"/>
    </g>
    <path class="fil13" d="M41969 5574c603,161 921,931 711,1719 -210,789 -870,1298 -1473,1137 -603,-161 -921,-931 -711,-1719 210,-789 870,-1298 1473,-1137z"/>
    <g>
     <path class="fil14" d="M39399 6418c491,-1840 2029,-3028 3435,-2653 13,4 25,8 38,12 -1396,-343 -2910,839 -3397,2662 -486,1823 239,3602 1620,4000 -13,-3 -26,-6 -39,-9 -1406,-375 -2149,-2171 -1658,-4011z"/>
     <path class="fil14" d="M41246 8438c-13,-3 -26,-4 -39,-8 -603,-161 -921,-931 -711,-1719 210,-789 870,-1298 1473,-1137 13,4 25,9 38,13 -592,-130 -1228,373 -1434,1145 -206,772 95,1524 673,1707z"/>
     <path class="fil14" d="M38301 6126c771,-2892 3188,-4758 5398,-4169 13,4 25,8 38,12 -2200,-558 -4593,1303 -5359,4178 -767,2875 382,5680 2568,6291 -13,-3 -26,-6 -39,-9 -2210,-589 -3377,-3411 -2606,-6303z"/>
    </g>
    <path class="fil15" d="M42834 3765c-26,-7 -52,-12 -77,-18 1357,419 2064,2182 1582,3988 -482,1807 -1973,2983 -3358,2671 25,8 50,16 76,23 1406,375 2944,-813 3435,-2653 491,-1840 -252,-3636 -1658,-4011zm-943 1793l0 0c26,4 52,8 78,15 603,161 921,931 711,1719 -210,789 -870,1298 -1473,1137 -26,-7 -50,-16 -75,-25 581,100 1193,-397 1395,-1153 201,-755 -82,-1491 -636,-1694zm6072 3143l0 0c1042,-3910 -513,-7725 -3477,-8573 26,6 51,12 77,19 3014,804 4604,4652 3553,8595 -1051,3943 -4347,6488 -7360,5685 -26,-7 -51,-14 -76,-22 2993,741 6241,-1794 7284,-5704zm-1659 -442l0 0c-771,2892 -3188,4758 -5398,4169 -26,-7 -50,-16 -76,-23 2189,526 4558,-1329 5321,-4187 762,-2858 -369,-5647 -2530,-6280 26,6 52,11 77,18 2210,589 3377,3411 2605,6303z"/>
    <path class="fil16" d="M48116 8743c1051,-3943 -539,-7791 -3553,-8595l1300 347c3014,804 4604,4651 3553,8595 -1051,3943 -4347,6488 -7360,5685l-1300 -347c3014,804 6309,-1742 7360,-5685z"/>
   </g>
   <g>
    <g>
     <g>
      <g style="clip-path:url(#id0)">
       <image x="30308" y="3069" width="2667" height="2256" xlink:href="goalimage_Images\goalimage_ImgID1.png"/>
      </g>
     </g>
     <g>
      <g style="clip-path:url(#id1)">
       <image x="30308" y="4227" width="2590" height="2153" xlink:href="goalimage_Images\goalimage_ImgID2.png"/>
      </g>
     </g>
    </g>
    <g>
     <g style="clip-path:url(#id2)">
      <image x="30308" y="4115" width="5434" height="2294" xlink:href="goalimage_Images\goalimage_ImgID3.png"/>
     </g>
    </g>
    <g>
     <g style="clip-path:url(#id3)">
      <image x="34585" y="4721" width="3010" height="2126" xlink:href="goalimage_Images\goalimage_ImgID4.png"/>
     </g>
    </g>
    <g>
     <g style="clip-path:url(#id4)">
      <image x="36296" y="4987" width="3512" height="2356" xlink:href="goalimage_Images\goalimage_ImgID5.png"/>
     </g>
    </g>
    <g>
     <path class="fil17" d="M36978 6386c-5,-120 7,-270 42,-437 35,-167 83,-310 135,-418l-40 -7c-55,120 -103,268 -133,417 -31,150 -46,304 -43,436l39 9zm385 -821l-40 -6c-57,121 -105,272 -137,425l0 0c-32,152 -47,311 -43,444l39 10c-6,-121 6,-275 41,-447 36,-172 86,-317 139,-426zm-105 -16l-40 -7c-56,120 -104,269 -135,420l0 0c-31,151 -47,307 -43,439l39 10c-5,-121 7,-272 42,-441 35,-169 84,-313 136,-421z"/>
     <path class="fil18" d="M36989 6388c-5,-120 7,-270 42,-437 35,-168 83,-310 135,-418l-40 -7c-55,120 -103,268 -134,418 -31,150 -46,304 -43,436l39 9zm385 -822l-40 -6c-57,121 -106,272 -137,425l0 0c-32,153 -47,311 -42,445l39 11c-6,-122 6,-275 41,-447 36,-172 86,-318 139,-427zm-105 -16l-40 -7c-56,120 -104,270 -135,421l0 0c-31,151 -47,307 -43,439l39 10c-5,-121 7,-272 42,-442 35,-169 84,-313 137,-422z"/>
    </g>
    <g>
     <path class="fil19" d="M37837 6072c-413,-69 -766,-181 -951,-292l2 -9c13,-48 28,-96 44,-144 15,-43 30,-85 47,-127l18 -3 36 8c292,60 595,93 895,124 231,24 459,49 684,86 87,32 163,64 225,97 11,34 21,70 39,74 39,8 77,22 115,41 18,24 26,47 22,69 -24,146 -551,179 -1176,74z"/>
     <path class="fil20" d="M37845 6024c-428,-72 -789,-184 -947,-286 11,-37 22,-73 34,-109 9,-27 19,-54 29,-81 52,-10 117,-16 191,-18 255,46 516,74 776,101 125,13 250,26 374,42 250,62 450,136 559,204 4,6 9,10 14,11l3 1c51,35 76,69 71,99 -20,119 -515,135 -1106,36z"/>
    </g>
    <g>
     <path class="fil21" d="M39183 6410c-380,-221 -646,-472 -594,-561 25,-43 122,-40 259,2 7,20 15,35 27,37 77,16 151,56 223,105 69,47 136,101 201,148 -7,32 -8,36 -14,68 -7,34 -14,67 -21,101l-27 131c-18,-10 -36,-20 -54,-31z"/>
     <path class="fil22" d="M39200 6381c-359,-209 -615,-437 -573,-509 30,-51 199,-11 422,90 17,10 33,21 49,32 69,47 136,101 201,148 -7,32 -8,36 -14,68 -7,34 -14,67 -21,101l-20 96 -44 -25z"/>
    </g>
    <path class="fil23" d="M39302 6128c29,6 27,136 -5,291 -32,154 -81,275 -111,269 -29,-6 -27,-136 5,-291 32,-154 81,-275 110,-269z"/>
    <g>
     <g style="clip-path:url(#id5)">
      <image x="38706" y="5742" width="3333" height="1647" xlink:href="goalimage_Images\goalimage_ImgID6.png"/>
     </g>
    </g>
   </g>
   <g>
    <g style="clip-path:url(#id6)">
     <image x="37422" y="5935" width="4880" height="5156" xlink:href="goalimage_Images\goalimage_ImgID7.png"/>
    </g>
   </g>
  </g>
  <path class="fil0" d="M2582 22231c399,-90 607,-219 744,-451l173 168 232 -52 -497 -2202 -817 184 319 1412c39,174 -11,279 -147,310 -167,38 -258,-36 -298,-210l-670 -2968c-47,-209 -17,-317 176,-360 142,-32 259,11 358,447 46,203 54,328 64,464l661 -99c-9,-161 -37,-375 -87,-597 -184,-814 -599,-946 -1185,-814 -637,144 -972,578 -818,1260l632 2800c139,616 581,837 1161,706z"/>
  <path class="fil0" d="M8531 20485c574,122 1115,-39 1275,-795l578 -2718c161,-756 -261,-1122 -842,-1245 -581,-124 -1142,39 -1301,789l-578 2718c-157,738 280,1126 867,1251zm603 -3942l0 0c38,-180 144,-233 273,-205 103,22 198,117 159,297l-645 3030c-37,174 -130,230 -259,202 -142,-30 -209,-126 -172,-300l643 -3024z"/>
  <path class="fil0" d="M15326 17054l519 50 3 660 880 85 -216 -4754 -939 -91 -1104 4626 729 71 129 -647zm520 -2495l0 0 -23 1884 -361 -35 384 -1849z"/>
  <path class="fil0" d="M27195 12367l-28 126c-62,282 -162,367 -303,335 -155,-34 -203,-151 -118,-541 34,-156 93,-331 157,-499l-629 -213c-63,162 -138,384 -194,636 -146,665 35,1101 699,1246 625,137 1107,-90 1269,-827l20 -90c129,-587 -34,-1201 -347,-1803 -224,-426 -274,-720 -217,-983l21 -96c59,-270 124,-350 266,-319 135,30 179,140 91,541 -53,240 -73,273 -127,424l635 215c65,-174 120,-332 170,-559 138,-629 10,-1091 -693,-1245 -735,-161 -1086,239 -1218,838l-16 72c-116,527 -31,941 285,1501 315,565 350,899 275,1241z"/>
  <polygon class="fil0" points="22716,15141 21812,15141 21812,11086 20934,11086 20934,15810 22716,15810 "/>
 </g>
</svg>
