<?xml version="1.0" encoding="UTF-8"?>
<!DOCTYPE svg PUBLIC "-//W3C//DTD SVG 1.0//EN" "http://www.w3.org/TR/2001/REC-SVG-20010904/DTD/svg10.dtd">
<!-- Creator: CorelDRAW 2019 (64-Bit) -->
<svg xmlns="http://www.w3.org/2000/svg" xml:space="preserve" width="0.139079in" height="0.139051in" version="1.0" style="shape-rendering:geometricPrecision; text-rendering:geometricPrecision; image-rendering:optimizeQuality; fill-rule:evenodd; clip-rule:evenodd"
viewBox="0 0 424 424"
 xmlns:xlink="http://www.w3.org/1999/xlink">
 <defs>
  <style type="text/css">
   <![CDATA[
    .fil0 {fill:#C31D20}
   ]]>
  </style>
 </defs>
 <g id="Layer_x0020_1">
  <metadata id="CorelCorpID_0Corel-Layer"/>
  <g id="_2305884610896">
   <path class="fil0" d="M0 252c0,23 5,53 15,73 5,9 9,18 15,26 11,14 12,16 24,28 15,15 39,28 58,35 12,5 21,6 34,8 27,5 60,-1 85,-11 10,-4 25,-12 33,-18l17 -14c47,-46 67,-111 46,-175 -3,-8 -6,-15 -9,-22 -3,-7 -8,-13 -11,-20l-22 21c8,15 15,28 18,46 7,38 0,70 -19,102 -6,11 -21,26 -30,34 -21,15 -40,25 -66,29 -5,1 -9,0 -15,1 -20,2 -47,-5 -65,-14 -9,-4 -11,-5 -20,-12 -19,-14 -25,-22 -38,-41l-6 -11c-7,-14 -14,-34 -14,-50 0,-10 -1,-17 1,-29 2,-12 5,-27 10,-37 2,-4 4,-7 5,-11 2,-3 4,-6 6,-10 2,-3 5,-6 7,-9 3,-4 5,-5 7,-8 3,-4 4,-5 8,-8 3,-3 5,-5 8,-7 33,-24 69,-35 111,-27 18,3 31,10 46,18l22 -21c-7,-4 -13,-8 -20,-11 -7,-3 -15,-6 -22,-9 -47,-17 -109,-7 -148,21 -9,6 -15,11 -23,19 -13,13 -27,31 -34,49 -9,22 -16,41 -16,68z"/>
   <path class="fil0" d="M306 93c-4,2 -32,32 -38,38l-57 57c-15,15 -18,14 -19,29 0,5 -6,9 -13,16 -3,3 -6,6 -10,10 -6,6 -8,6 -8,14 0,2 3,7 10,7 5,0 15,-12 21,-18 7,-7 10,-13 16,-13 4,0 6,0 9,-1 7,-2 32,-30 39,-37 5,-5 73,-72 76,-76 9,1 27,5 34,5 5,0 8,-5 11,-8l29 -29c26,-26 30,-25 -28,-32 -10,-1 -6,2 -11,-29 -1,-8 -2,-25 -8,-25 -5,0 -8,5 -11,8l-39 39c-11,11 -8,7 -5,28 1,5 2,12 3,17z"/>
   <path class="fil0" d="M64 251c0,22 3,39 14,57 14,23 36,42 62,48 38,9 74,1 102,-27 17,-17 30,-44 30,-68 0,-14 -1,-31 -7,-43 -1,-3 -3,-7 -4,-10 -2,1 -22,22 -22,22 0,6 14,32 -9,67 -4,7 -12,14 -18,19 -70,47 -151,-34 -105,-103 4,-6 8,-10 13,-14 2,-2 3,-3 5,-4 11,-8 27,-14 42,-14 10,0 17,2 25,4l23 -22c-27,-15 -65,-15 -92,-1 -11,6 -13,7 -22,14 -20,15 -37,48 -37,75z"/>
   <path class="fil0" d="M123 253l0 4c0,22 21,43 43,43 10,0 21,-2 28,-8 13,-11 19,-21 19,-40 0,-4 -1,-4 -1,-8 -15,7 -24,30 -42,31 -13,0 -24,-11 -24,-24 0,-12 10,-18 20,-28l9 -9c1,-2 1,-2 2,-4l-12 -1c-22,0 -43,21 -43,43z"/>
  </g>
 </g>
</svg>
