<?xml version="1.0" standalone="no"?>
<!DOCTYPE svg PUBLIC "-//W3C//DTD SVG 20010904//EN"
 "http://www.w3.org/TR/2001/REC-SVG-20010904/DTD/svg10.dtd">
<svg version="1.0" xmlns="http://www.w3.org/2000/svg"
 width="215.000000pt" height="212.000000pt" viewBox="0 0 215.000000 212.000000"
 preserveAspectRatio="xMidYMid meet">

<g transform="translate(0.000000,212.000000) scale(0.100000,-0.100000)"
fill="#000000" stroke="none">
<path d="M955 2109 c-395 -40 -740 -308 -876 -679 -126 -346 -71 -714 151
-1008 139 -185 347 -322 585 -385 77 -20 106 -21 703 -24 l622 -4 0 1056 0
1055 -552 -1 c-304 -1 -589 -5 -633 -10z m365 -224 c191 -61 331 -161 445
-316 246 -334 215 -799 -73 -1102 -105 -109 -232 -186 -389 -233 -77 -24 -106
-27 -228 -27 -113 0 -155 4 -219 21 -533 146 -797 733 -551 1222 93 186 266
342 460 416 115 43 186 54 335 50 114 -3 148 -8 220 -31z"/>
<path d="M1018 1476 c-19 -14 -25 -76 -8 -76 6 0 10 -13 10 -30 0 -57 57 -86
111 -57 68 35 88 80 45 97 -13 5 -27 14 -31 19 -3 6 -19 11 -36 11 -16 0 -29
5 -29 11 0 11 -29 38 -40 38 -3 0 -13 -6 -22 -13z"/>
<path d="M1300 1466 c0 -11 10 -13 40 -9 34 5 39 3 34 -10 -8 -21 -62 -31
-130 -24 -59 6 -66 -7 -9 -17 33 -7 36 -10 33 -39 -3 -31 -5 -32 -43 -29 -27
3 -37 0 -30 -7 6 -5 42 -13 80 -16 39 -4 80 -12 93 -18 18 -8 57 -7 170 8 81
11 162 19 180 20 39 0 40 7 5 35 -25 20 -36 21 -138 16 l-110 -5 125 13 c69 7
134 11 145 8 18 -4 17 -2 -5 21 -23 24 -35 27 -143 36 -71 5 -124 14 -134 22
-12 10 -15 10 -9 2 4 -7 2 -13 -3 -13 -6 0 -11 5 -11 10 0 6 -30 10 -70 10
-53 0 -70 -3 -70 -14z"/>
<path d="M1163 1215 l1 -65 21 20 c22 21 55 27 55 10 0 -5 -6 -10 -14 -10 -8
0 -17 -3 -19 -7 -4 -7 178 -8 491 -3 l32 0 0 60 c0 65 -12 78 -29 29 -8 -24
-14 -28 -28 -21 -10 5 -85 15 -168 21 -177 14 -201 15 -237 6 -19 -5 -32 -2
-43 9 -9 9 -27 16 -39 16 -22 0 -23 -4 -23 -65z"/>
<path d="M575 1247 c-5 -7 -18 -28 -29 -46 -16 -30 -17 -38 -5 -73 17 -53 41
-69 80 -55 46 18 32 47 -22 47 -11 0 -22 7 -25 15 -7 16 30 68 40 57 4 -3 4 1
0 11 -4 10 -1 17 6 17 9 0 7 7 -5 20 -21 23 -26 24 -40 7z"/>
<path d="M1197 1128 c-27 -15 -35 -24 -27 -32 7 -9 1 -20 -19 -40 -27 -26 -28
-30 -15 -54 8 -15 14 -33 14 -39 0 -9 18 -13 55 -13 66 0 80 -18 45 -56 l-23
-24 70 0 c65 0 71 -2 81 -25 15 -32 15 -80 2 -106 -6 -11 -9 -23 -6 -27 2 -4
78 -2 168 5 90 7 177 11 193 8 l30 -5 -33 30 -32 30 32 31 c31 29 32 30 8 23
l-25 -6 29 31 c28 30 29 31 8 31 -20 0 -22 5 -22 48 -1 43 -2 45 -15 28 -8
-10 -16 -23 -17 -28 -2 -6 -33 -2 -73 10 -39 11 -90 23 -114 27 -24 4 -67 16
-95 26 l-51 18 175 -5 175 -5 35 36 35 36 -43 -7 c-25 -4 -52 -2 -65 4 -12 6
-81 18 -153 27 -72 8 -166 22 -208 30 -43 8 -78 15 -79 14 -1 0 -19 -10 -40
-21z m344 -258 l44 -21 -60 6 c-33 4 -69 9 -80 12 l-20 6 20 8 c32 12 50 10
96 -11z m129 -84 c8 -2 -42 -4 -112 -5 -71 0 -128 3 -128 7 0 8 204 5 240 -2z"/>
<path d="M773 1043 c-13 -2 -23 -9 -23 -14 0 -5 -10 -9 -22 -9 -13 -1 -39 -9
-58 -18 -43 -21 -53 -67 -20 -97 11 -10 20 -24 20 -31 0 -12 94 -64 116 -64
11 0 44 56 44 75 0 15 -22 25 -56 25 -51 0 -113 52 -92 77 13 17 120 17 136 1
9 -9 12 -9 12 -1 0 7 -4 15 -10 18 -5 3 -10 15 -10 26 0 10 -3 18 -7 18 -5 -1
-18 -4 -30 -6z"/>
<path d="M1121 889 c-14 -42 -14 -49 4 -49 8 0 15 6 15 14 0 8 15 26 33 40
l32 26 -37 0 c-32 0 -37 -4 -47 -31z"/>
<path d="M966 838 c-15 -14 -17 -21 -8 -30 7 -7 12 -24 12 -38 0 -29 27 -60
51 -60 8 0 20 -5 27 -12 9 -9 17 -5 36 17 14 16 23 31 20 34 -2 2 -11 -4 -19
-15 -14 -18 -16 -18 -19 9 0 6 -11 13 -24 15 -12 2 -20 8 -17 13 4 5 2 9 -3 9
-5 0 -8 10 -6 23 1 12 3 25 3 30 1 4 9 7 18 7 27 0 4 15 -25 16 -15 1 -36 -7
-46 -18z"/>
<path d="M1395 681 l-50 -6 40 -19 c22 -11 66 -25 97 -31 54 -12 57 -11 48 6
-11 20 -64 60 -77 57 -4 0 -30 -4 -58 -7z"/>
<path d="M1264 645 c21 -19 51 -37 67 -40 30 -7 31 -25 1 -25 -9 0 -37 -10
-62 -22 l-45 -21 33 -9 c24 -6 38 -5 48 3 10 8 14 8 14 0 0 -15 43 -14 58 1 9
9 12 9 12 0 0 -20 37 -14 92 14 l52 26 -64 30 c-35 17 -81 31 -102 32 -21 0
-38 4 -38 7 0 3 -11 11 -25 17 -19 9 -25 9 -25 0 0 -6 -8 -4 -18 5 -10 10 -23
17 -28 17 -5 -1 8 -16 30 -35z"/>
<path d="M1520 549 c-47 -21 -85 -52 -101 -81 -8 -15 -6 -15 21 -1 17 8 30 18
30 21 0 4 12 13 28 20 32 15 91 62 77 62 -5 0 -30 -10 -55 -21z"/>
</g>
</svg>
