<?xml version="1.0" encoding="UTF-8"?>
<!DOCTYPE svg PUBLIC "-//W3C//DTD SVG 1.0//EN" "http://www.w3.org/TR/2001/REC-SVG-20010904/DTD/svg10.dtd">
<!-- Creator: CorelDRAW 2019 (64-Bit) -->
<svg xmlns="http://www.w3.org/2000/svg" xml:space="preserve" width="0.706575in" height="0.713476in" version="1.0" style="shape-rendering:geometricPrecision; text-rendering:geometricPrecision; image-rendering:optimizeQuality; fill-rule:evenodd; clip-rule:evenodd"
viewBox="0 0 27444 27712"
 xmlns:xlink="http://www.w3.org/1999/xlink">
 <defs>
  <style type="text/css">
   <![CDATA[
    .fil23 {fill:none;fill-rule:nonzero}
    .fil18 {fill:#013D5D;fill-rule:nonzero}
    .fil0 {fill:#16A8ED;fill-rule:nonzero}
    .fil7 {fill:#3B8E7C;fill-rule:nonzero}
    .fil6 {fill:#4FBFA5;fill-rule:nonzero}
    .fil4 {fill:#747395;fill-rule:nonzero}
    .fil14 {fill:#80213C;fill-rule:nonzero}
    .fil9 {fill:#8A2643;fill-rule:nonzero}
    .fil5 {fill:#A9A5BD;fill-rule:nonzero}
    .fil21 {fill:#B4431E;fill-rule:nonzero}
    .fil8 {fill:#BC344B;fill-rule:nonzero}
    .fil15 {fill:#E49C48;fill-rule:nonzero}
    .fil1 {fill:#E6E6E6;fill-rule:nonzero}
    .fil10 {fill:#EA7A0C;fill-rule:nonzero}
    .fil13 {fill:#EDFBFF;fill-rule:nonzero}
    .fil3 {fill:#F47256;fill-rule:nonzero}
    .fil19 {fill:#F47457;fill-rule:nonzero}
    .fil16 {fill:#F6A390;fill-rule:nonzero}
    .fil2 {fill:#F7A391;fill-rule:nonzero}
    .fil17 {fill:#FD544D;fill-rule:nonzero}
    .fil11 {fill:#FDA701;fill-rule:nonzero}
    .fil22 {fill:#FFB3A5;fill-rule:nonzero}
    .fil20 {fill:#FFC359;fill-rule:nonzero}
    .fil12 {fill:white;fill-rule:nonzero}
   ]]>
  </style>
    <clipPath id="id0" style="clip-rule:nonzero">
     <path d="M2606 13856c0,312 13,621 39,927 24,299 61,594 109,885 865,5277 5447,9304 10969,9304 5522,0 10104,-4027 10969,-9304 48,-292 85,-587 109,-885 26,-305 39,-615 39,-927 0,-6139 -4977,-11116 -11116,-11116 -6139,0 -11116,4977 -11116,11116z"/>
    </clipPath>
 </defs>
 <g id="Layer_x0020_1">
  <metadata id="CorelCorpID_0Corel-Layer"/>
  <g id="_2217149471088">
   <path class="fil0" d="M27444 27712l0 -13990 -4 0c1,-3443 -1283,-6890 -3869,-9556 -5279,-5438 -13966,-5569 -19404,-292 -2773,2690 -4163,6267 -4164,9847l-3 0 0 13990 27444 0z"/>
   <path class="fil1" d="M2606 13856c0,312 13,621 39,927 24,299 61,594 109,885 865,5277 5447,9304 10969,9304 5522,0 10104,-4027 10969,-9304 48,-292 85,-587 109,-885 26,-305 39,-615 39,-927 0,-6139 -4977,-11116 -11116,-11116 -6139,0 -11116,4977 -11116,11116z"/>
   <g style="clip-path:url(#id0)">
    <g>
     <g>
      <g>
       <path id="1" class="fil2" d="M10797 15019c-197,32 -186,64 -211,67 -30,4 -386,-174 -386,-174 0,0 -1054,-519 -1110,-549l-761 -955 -586 270c0,0 856,1015 910,1060 54,45 1566,573 1697,624 0,0 132,121 218,194 86,73 200,102 228,118 4,2 99,52 232,81 115,25 19,-53 19,-53 0,0 -204,-86 -194,-101 8,-12 116,42 243,71 33,7 65,15 95,21 78,17 112,-28 34,-59 -28,-11 -74,-28 -109,-35 -38,-8 -70,-28 -100,-39 -61,-23 -105,-39 -103,-41 3,-3 -6,-16 30,-9 42,8 127,46 190,53 36,4 110,17 110,17 0,0 131,12 132,-6 2,-40 -79,-62 -128,-61 -31,-16 -109,-27 -109,-27 0,0 -152,-60 -143,-82 4,-9 95,5 193,11 103,7 178,7 183,-13 9,-32 -73,-44 -73,-44 0,0 -72,-11 -96,-16 -28,-6 -109,-32 -109,-32 0,0 -279,-102 -269,-123 10,-20 56,-63 76,-63 20,0 55,20 74,20 20,0 62,-4 65,-28 3,-25 -106,-76 -106,-76 0,0 -76,-30 -133,-21z"/>
       <polygon class="fil3" points="19132,17081 7368,17081 7368,18312 19132,18312 "/>
       <g>
        <path class="fil4" d="M16003 21439c-2653,-1403 -5534,-2266 -8492,-2545 110,-1283 219,-2567 329,-3851 3420,322 6751,1320 9818,2942 -552,1151 -1104,2302 -1655,3453z"/>
        <path class="fil5" d="M7772 18190c75,-801 149,-1601 224,-2401 311,32 589,-169 623,-456 2851,358 5630,1191 8232,2467 -116,263 20,588 300,733 -339,721 -677,1443 -1016,2164 -258,-134 -563,-23 -678,240 -2285,-1120 -4725,-1852 -7229,-2166 34,-287 -170,-550 -456,-580z"/>
        <g>
         <path class="fil6" d="M13893 18322c-239,689 -976,1039 -1660,829 -683,-212 -1123,-926 -969,-1641 153,-714 912,-1141 1681,-903 769,237 1187,1028 948,1715z"/>
         <path class="fil7" d="M12227 18909c19,-77 38,-154 57,-231 -103,-33 -201,-81 -279,-131 -65,-42 -89,-126 -54,-193 1,-3 3,-5 4,-8 39,-74 134,-98 206,-50 73,48 160,91 256,118 140,39 249,14 274,-83 24,-92 -40,-173 -209,-285 -244,-161 -400,-330 -346,-567 49,-214 247,-343 535,-318 19,-77 38,-154 57,-231 85,24 169,47 254,72 -18,71 -36,142 -54,213 92,31 166,65 226,101 73,43 99,133 59,201 -41,70 -136,90 -210,44 -55,-34 -126,-69 -215,-95 -166,-47 -236,7 -252,75 -20,80 57,155 250,294 272,189 354,359 294,576 -60,215 -263,349 -554,317 -21,82 -43,165 -64,247 -78,-23 -157,-45 -235,-67z"/>
         <path class="fil6" d="M10859 17484c-676,-156 -1359,-283 -2046,-381 16,-123 32,-247 48,-370 697,99 1389,228 2075,386 -25,122 -51,243 -76,365z"/>
         <path class="fil6" d="M16131 19356c-629,-308 -1270,-588 -1919,-840 41,-117 82,-234 123,-350 659,256 1308,540 1946,852 -50,113 -100,226 -150,339z"/>
        </g>
       </g>
       <g>
        <path class="fil4" d="M17350 17319c-2737,572 -5343,1718 -7681,3377 -632,-1090 -1264,-2180 -1895,-3270 2703,-1919 5717,-3244 8881,-3905 232,1266 463,2532 695,3798z"/>
        <path class="fil5" d="M9470 19971c-389,-684 -779,-1368 -1168,-2052 247,-172 341,-509 207,-759 2304,-1529 4817,-2634 7446,-3274 61,283 341,455 628,392 150,789 301,1578 451,2367 -264,58 -428,340 -368,622 -2309,562 -4516,1533 -6539,2875 -135,-250 -431,-329 -658,-171z"/>
        <g>
         <path class="fil4" d="M14062 16183c206,699 -144,1447 -765,1715 -622,266 -1343,-22 -1626,-688 -283,-665 39,-1487 739,-1787 699,-301 1447,62 1652,760z"/>
         <path class="fil5" d="M13158 17709c-28,-73 -57,-146 -86,-220 -95,39 -193,63 -278,74 -71,8 -135,-44 -147,-120 0,-3 -1,-6 -1,-9 -13,-84 45,-163 124,-171 81,-8 169,-29 254,-68 125,-58 191,-147 156,-240 -33,-88 -126,-113 -313,-94 -270,27 -479,-8 -570,-230 -83,-202 -8,-430 219,-593 -29,-73 -57,-146 -86,-219 76,-35 152,-70 228,-105 26,68 52,136 78,204 85,-34 159,-54 222,-64 78,-12 147,43 155,122 8,82 -50,158 -130,169 -60,8 -131,25 -212,62 -148,68 -170,155 -145,220 30,76 128,87 348,75 306,-23 461,60 537,271 75,208 0,445 -232,604 30,79 60,158 90,237 -70,32 -141,64 -211,97z"/>
         <path class="fil6" d="M11356 17446c-586,306 -1160,639 -1722,999 -57,-108 -114,-217 -170,-325 569,-365 1152,-702 1746,-1012 49,113 98,226 146,339z"/>
         <path class="fil4" d="M16287 15582c-635,156 -1263,340 -1883,553 -34,-119 -69,-238 -104,-357 628,-216 1265,-403 1909,-560 26,122 52,243 77,365z"/>
        </g>
       </g>
       <g>
        <path class="fil4" d="M17679 19426c-2846,-172 -5697,245 -8401,1231 -372,-1223 -745,-2445 -1117,-3668 3127,-1140 6423,-1623 9714,-1424 -65,1287 -130,2573 -195,3860z"/>
        <path class="fil5" d="M9250 19902c-227,-765 -453,-1530 -680,-2295 285,-101 457,-402 382,-680 2640,-868 5389,-1271 8144,-1194 -6,290 232,530 532,546 -35,803 -69,1607 -104,2410 -276,-14 -504,215 -509,504 -2420,-68 -4834,286 -7152,1048 -75,-278 -350,-433 -613,-340z"/>
        <g>
         <path class="fil4" d="M14684 17454c41,732 -480,1363 -1158,1457 -679,93 -1326,-377 -1452,-1097 -126,-719 386,-1429 1149,-1534 763,-106 1420,444 1461,1174z"/>
         <path class="fil5" d="M13433 18692c-11,-78 -22,-157 -34,-235 -103,13 -206,10 -293,-3 -73,-11 -124,-78 -118,-155 0,-3 1,-6 1,-9 7,-84 82,-146 163,-133 82,13 174,17 268,1 137,-23 224,-92 211,-191 -13,-94 -98,-142 -288,-174 -274,-45 -473,-134 -512,-374 -35,-217 92,-418 355,-516 -12,-78 -23,-157 -35,-235 83,-14 167,-28 250,-41 10,73 20,145 30,218 93,-10 170,-10 235,-3 80,9 135,81 125,159 -11,82 -87,140 -168,129 -61,-8 -136,-11 -224,3 -163,26 -205,105 -195,174 12,82 107,118 328,164 308,58 443,181 469,404 26,222 -104,430 -371,523 11,84 23,169 34,253 -77,12 -154,25 -232,38z"/>
         <path class="fil6" d="M11708 17960c-652,141 -1299,311 -1940,510 -31,-120 -62,-239 -93,-359 650,-202 1306,-374 1967,-517 22,122 44,244 66,367z"/>
         <path class="fil6" d="M17031 17463c-666,-18 -1332,-6 -1995,35 -6,-124 -13,-249 -19,-373 673,-42 1348,-54 2023,-36 -3,124 -6,249 -9,373z"/>
        </g>
       </g>
       <polygon class="fil8" points="7368,17081 7368,22258 19132,22258 19132,17081 "/>
       <polygon class="fil9" points="18510,17738 7802,17738 7802,17336 18510,17336 "/>
       <polygon class="fil9" points="12931,18536 7938,18536 7938,18402 12931,18402 "/>
       <g>
        <path class="fil10" d="M17748 19349c353,503 231,1196 -271,1549 -503,353 -1196,231 -1549,-271 -353,-503 -231,-1196 271,-1549 503,-353 1196,-231 1549,271z"/>
        <path class="fil11" d="M17602 19451c296,422 194,1004 -228,1300 -422,296 -1004,194 -1300,-228 -296,-422 -194,-1004 228,-1300 422,-296 1004,-194 1300,228z"/>
        <g>
         <path class="fil12" d="M16946 20644l-41 -150c-69,15 -139,20 -199,17 -50,-3 -89,-43 -90,-93l0 -6c-1,-55 46,-99 100,-96 56,4 118,0 180,-17 90,-24 143,-76 125,-139 -16,-60 -77,-84 -205,-92 -185,-11 -322,-59 -363,-213 -38,-139 31,-275 191,-354l-41 -150 155 -42 38 139c58,-13 108,-18 150,-18 52,0 94,42 95,94 1,54 -43,97 -97,96 -40,-1 -89,3 -145,18 -103,28 -124,81 -112,125 14,52 79,70 227,85 206,15 306,82 344,224 38,141 -29,288 -203,369l44 161 -155 42z"/>
        </g>
       </g>
       <g>
        <path class="fil10" d="M15789 18595c0,614 -498,1112 -1112,1112 -614,0 -1112,-498 -1112,-1112 0,-614 498,-1112 1112,-1112 614,0 1112,498 1112,1112z"/>
        <path class="fil11" d="M15610 18595c0,515 -418,933 -933,933 -515,0 -933,-418 -933,-933 0,-515 418,-933 933,-933 515,0 933,418 933,933z"/>
        <g>
         <path class="fil13" d="M14388 19194l53 -146c-65,-27 -125,-63 -173,-100 -39,-31 -48,-87 -20,-128l4 -5c31,-45 94,-55 137,-21 44,35 96,68 157,89 88,32 160,20 183,-42 21,-59 -15,-113 -115,-193 -145,-115 -229,-233 -175,-383 49,-136 183,-207 360,-180l53 -146 151 55 -49 136c55,23 99,47 133,71 43,30 53,88 24,131 -30,44 -91,55 -134,23 -32,-24 -74,-48 -128,-68 -100,-36 -148,-5 -164,38 -18,51 24,103 137,200 160,131 203,243 153,382 -50,137 -189,219 -378,186l-57 157 -151 -55z"/>
        </g>
       </g>
       <polygon class="fil9" points="18510,21935 13474,21935 13474,19236 18510,19236 "/>
       <path class="fil14" d="M19132 20696l-2911 0c-129,0 -234,129 -234,289l0 0c0,160 105,289 234,289l-377 0c-129,0 -234,130 -234,289 0,160 105,289 234,289l65 0c-129,0 -234,130 -234,289 0,41 7,81 20,116l3437 0 0 -1561z"/>
       <g>
        <g>
         <path class="fil15" d="M3481 22173c0,52 47,95 105,95l20174 0c58,0 105,-43 105,-95 0,-52 -47,-95 -105,-95l-20174 0c-58,0 -105,43 -105,95z"/>
        </g>
       </g>
       <path class="fil11" d="M19161 22078l-3006 0c-121,0 -218,-98 -218,-218 0,-120 98,-218 218,-218l3006 0c121,0 218,98 218,218 0,121 -98,218 -218,218z"/>
       <path class="fil10" d="M19100 21641l-3006 0c-121,0 -218,-98 -218,-218 0,-121 98,-218 218,-218l3006 0c120,0 218,98 218,218 0,121 -98,218 -218,218z"/>
       <path class="fil11" d="M19453 21205l-3006 0c-121,0 -218,-98 -218,-218 0,-121 98,-218 218,-218l3006 0c121,0 218,98 218,218 0,120 -98,218 -218,218z"/>
       <g>
        <g>
         <g>
          <path class="fil16" d="M20629 21205c0,0 -89,383 -64,509 14,68 89,208 55,271 -35,64 -74,80 -74,80l-900 14c-49,1 -17,-30 23,-59 65,-47 117,-78 324,-176 13,-6 63,-37 80,-48 45,-27 90,-69 129,-112 65,-71 70,-414 70,-414l358 -66z"/>
          <path class="fil9" d="M19867 15996c0,0 -387,-191 -313,224 74,415 653,5189 653,5189l531 29c0,0 57,-1663 42,-1886 -15,-223 -103,-569 -103,-569l-45 -1380 -501 -1704 -264 98z"/>
          <path class="fil17" d="M20072 21797c238,60 414,19 513,-20 25,71 59,159 41,211 -22,63 -50,91 -78,91 -217,6 -799,0 -965,2 -23,0 -36,-26 -21,-44 41,-48 493,-230 510,-240z"/>
          <path class="fil16" d="M19555 13191c0,0 -327,-630 -378,-861 -51,-231 -227,-1395 -212,-1470 15,-75 293,-255 259,-319 -34,-64 -299,-64 -360,-58 -61,5 -182,41 -235,84 -52,43 59,1438 92,1738 33,300 440,1225 440,1225l394 -339z"/>
          <g>
           <path class="fil16" d="M22104 18098c0,0 270,-283 330,-397 32,-61 61,-217 128,-245 67,-28 108,-15 108,-15l708 556c39,30 -6,34 -55,31 -80,-4 -140,-13 -362,-67 -15,-4 -72,-11 -93,-14 -52,-7 -113,-3 -171,6 -95,14 -315,277 -315,277l-279 -132z"/>
           <path class="fil17" d="M22869 17947c-147,-197 -310,-276 -411,-308 25,-71 52,-164 98,-192 56,-35 95,-28 117,-11 172,133 624,496 754,599 18,14 11,43 -11,47 -62,12 -527,-132 -547,-135z"/>
           <path class="fil18" d="M22110 13000c-168,-352 -540,-546 -901,-452 -129,-175 -329,-298 -538,-327 -411,-58 -940,141 -886,570 -130,300 -98,713 161,915 -48,394 348,744 815,697 188,260 515,412 821,353 74,-14 185,-41 204,-38 -24,-3 534,362 918,-288 392,-663 6,-1405 -595,-1430z"/>
           <path class="fil10" d="M19712 16146c0,0 868,-386 882,-342 109,350 447,237 648,855 84,258 171,1978 171,1978 0,0 342,-284 831,-780 37,-38 405,312 405,312 -971,1312 -1390,1380 -1552,1307 -338,-153 -1052,-2298 -1051,-2297 -86,-167 -335,-1031 -335,-1031z"/>
           <path class="fil16" d="M21150 13724c0,0 1255,-2 1523,-17 243,-14 1207,11 1245,6 38,-4 287,-426 328,-381 41,45 -139,209 -83,252 56,43 654,-53 646,-9 -15,83 -364,72 -364,112 0,40 365,-22 390,44 25,66 -351,27 -366,57 -15,30 349,84 311,146 -20,33 -322,-56 -321,-10 2,46 222,150 195,186 -27,36 -173,-112 -301,-113 -128,-2 -219,-69 -423,-13 -101,28 -870,122 -1520,177 -666,57 -1213,75 -1213,75l-49 -511z"/>
           <path class="fil13" d="M19290 14611c-17,-202 23,-357 32,-423 -61,-209 -191,-656 -237,-743 0,0 218,-420 442,-417 0,0 228,515 405,607 3,-1 62,27 89,26 171,-1 766,-19 877,-21l-62 845c-432,846 -315,1290 -151,1454 77,77 -1077,391 -1130,281 -63,-129 -231,-1202 -265,-1609z"/>
           <path class="fil13" d="M20595 13671c110,-52 905,-26 905,-26 0,0 111,554 21,687 0,0 -711,106 -691,164l-236 -825z"/>
           <path class="fil16" d="M20387 13315c0,0 -14,302 0,428 14,126 -129,421 -396,426 -267,5 -39,-283 -16,-407 23,-124 51,-608 51,-608l360 161z"/>
           <path class="fil19" d="M20027 13154c0,0 -6,112 -16,243 84,100 213,152 371,90 2,-93 5,-172 5,-172l-360 -161z"/>
           <path class="fil16" d="M20409 12415c0,0 151,45 236,196 85,151 120,581 -205,758 -325,177 -549,-120 -534,-395 15,-274 99,-636 503,-559z"/>
           <path class="fil16" d="M19840 12884c22,68 72,113 111,100 40,-13 54,-78 32,-146 -22,-68 -72,-113 -112,-100 -40,13 -54,78 -32,146z"/>
           <path class="fil18" d="M20364 12403c0,0 165,452 334,503 169,51 151,271 151,271 0,0 31,-510 -122,-638 -153,-128 -364,-137 -364,-137z"/>
           <path class="fil16" d="M20624 12993c-28,70 -12,141 35,160 47,19 108,-23 135,-92 27,-70 12,-141 -35,-160 -47,-19 -108,23 -135,92z"/>
          </g>
          <path class="fil19" d="M18582 10674c0,0 367,16 411,16 43,0 169,-130 169,-130l-579 114z"/>
         </g>
         <g>
          <path class="fil20" d="M19814 8699c401,572 263,1360 -309,1762 -572,401 -1360,263 -1762,-309 -401,-572 -263,-1360 309,-1761 572,-401 1360,-263 1761,309z"/>
          <path class="fil10" d="M19648 8816c337,480 221,1142 -259,1478 -480,337 -1142,221 -1478,-259 -337,-480 -221,-1142 259,-1478 480,-337 1142,-221 1478,259z"/>
          <g>
           <path class="fil13" d="M18902 10172l-46 -171c-78,17 -158,23 -226,20 -57,-3 -102,-49 -102,-106l0 -7c-1,-63 52,-113 114,-109 64,4 134,0 204,-19 103,-28 162,-86 143,-158 -19,-68 -88,-96 -233,-105 -210,-13 -366,-67 -413,-242 -43,-158 35,-313 218,-403l-46 -171 176 -48 43 158c66,-15 122,-20 171,-21 59,0 107,47 108,106 1,61 -49,111 -110,109 -46,-1 -101,3 -164,20 -117,32 -141,92 -128,143 16,59 89,80 258,96 235,18 348,93 392,255 43,160 -33,328 -230,420l50 184 -176 48z"/>
          </g>
         </g>
        </g>
        <path class="fil16" d="M18993 10691l152 -136c0,0 -72,-86 -42,-102 48,-27 131,77 124,102 -7,25 -96,106 -96,106l-137 30z"/>
       </g>
       <g>
        <g>
         <g>
          <path class="fil21" d="M8858 13999c0,0 -190,172 -269,228 -66,47 -386,201 -386,201 0,0 -318,-486 -457,-730 -169,-296 -286,-735 -246,-747 112,-33 266,-54 408,11 492,225 949,1036 949,1036z"/>
         </g>
        </g>
        <path class="fil16" d="M5803 21392c0,0 -21,372 -21,373 -8,47 -38,164 -38,207 0,161 718,-137 557,-208 -15,-6 -91,-55 -96,-110 -7,-85 -26,-256 -26,-256l-376 -5z"/>
        <g>
         <path class="fil18" d="M6298 21762c0,0 -168,49 -255,62 -86,12 -200,-92 -261,-63 -67,31 -61,318 -61,318 0,0 866,76 1145,0 66,-36 -223,-202 -568,-317z"/>
        </g>
        <path class="fil16" d="M4594 21403c0,0 -21,372 -21,373 -8,47 -38,164 -38,207 0,161 718,-137 557,-208 -15,-6 -113,-92 -118,-147 -7,-85 -3,-219 -3,-219l-376 -5z"/>
        <g>
         <path class="fil18" d="M5089 21773c0,0 -169,49 -255,62 -86,12 -200,-92 -261,-63 -67,31 -70,309 -70,309 0,0 582,44 1163,-3 50,-36 -233,-189 -577,-304z"/>
        </g>
        <path class="fil4" d="M4760 15519c0,0 -122,628 -72,1103 50,476 54,2166 54,2166l-189 2704 449 10c0,0 532,-2703 522,-2634 -10,69 178,-1903 178,-1903l-634 -1507 -307 59z"/>
        <path class="fil5" d="M4930 15114c0,0 -551,579 -346,1211 82,254 850,2679 860,2877 10,198 260,2389 260,2389l522 -16 113 -2436 -149 -3283 -317 -554 -943 -190z"/>
        <g>
         <path class="fil10" d="M8275 13237c-180,-201 -573,-493 -573,-493 0,0 -234,-199 -329,-232 -140,-48 -381,-177 -728,349 -249,376 -1819,2323 -2077,2389l1683 803c46,-384 878,-1108 998,-1243 268,-302 1197,-1382 1027,-1572z"/>
        </g>
        <g>
         <path class="fil16" d="M8196 12415l-524 306c0,0 -15,446 157,562 144,97 253,-136 253,-136 0,0 195,-269 343,-353 148,-84 -229,-379 -229,-379z"/>
         <path class="fil19" d="M8109 12611c20,93 65,228 136,339 58,-62 123,-124 181,-156 68,-39 25,-122 -42,-201 -94,-98 -187,-178 -187,-178l-101 59c-6,38 6,107 13,138z"/>
         <path class="fil16" d="M8470 11647c-9,-11 -440,524 -387,775 53,251 314,480 495,417 200,-70 573,-699 439,-1005 -133,-306 -547,-187 -547,-187z"/>
         <path class="fil18" d="M8942 11479c-188,-104 -538,-184 -767,-65 -282,147 -303,567 -215,792 88,226 -13,353 -13,353l149 -87c0,0 87,-136 99,-244 11,-108 170,-89 247,-138 59,-38 135,-161 232,-224 0,0 242,-30 362,37 203,114 174,-275 -95,-425z"/>
         <path class="fil16" d="M8368 12115c12,-117 -95,-223 -164,-88 -55,107 -45,284 43,257 88,-26 122,-169 122,-169z"/>
        </g>
        <path class="fil22" d="M9774 15807c-206,-25 -206,-8 -232,-12 -31,-5 -351,-279 -351,-279 0,0 -949,-804 -999,-849l-521 -1150 -687 102c0,0 641,1352 685,1411 45,59 1452,879 1573,966 0,0 107,155 178,250 70,95 180,156 204,180 4,4 88,79 216,145 111,57 31,-46 31,-46 0,0 -187,-141 -173,-153 10,-9 108,73 230,138 31,17 62,33 91,47 75,38 119,5 47,-48 -26,-19 -69,-48 -102,-65 -36,-18 -64,-46 -92,-67 -56,-40 -95,-66 -92,-67 4,-2 -5,-20 29,-3 41,20 118,81 180,105 35,14 107,48 107,48 0,0 106,13 110,7 22,-33 -41,-59 -91,-72 -28,-24 -104,-58 -104,-58 0,0 -140,-101 -126,-120 5,-7 88,49 188,86 115,43 171,20 181,1 16,-28 -55,-46 -55,-46 0,0 -97,-24 -119,-35 -27,-14 -336,-247 -321,-265 15,-17 62,-17 82,-12 20,6 55,20 75,26 20,6 54,-17 63,-41 8,-23 -66,-65 -66,-65 0,0 -78,-54 -137,-61z"/>
        <g>
         <path class="fil21" d="M7094 14177c0,0 198,-63 324,-121 85,-39 455,-223 455,-223 0,0 -160,-672 -268,-913 -396,-887 -847,-275 -908,-133 -137,319 395,1389 395,1389z"/>
        </g>
       </g>
      </g>
     </g>
    </g>
   </g>
   <path class="fil23" d="M2606 13856c0,312 13,621 39,927 24,299 61,594 109,885 865,5277 5447,9304 10969,9304 5522,0 10104,-4027 10969,-9304 48,-292 85,-587 109,-885 26,-305 39,-615 39,-927 0,-6139 -4977,-11116 -11116,-11116 -6139,0 -11116,4977 -11116,11116z"/>
  </g>
 </g>
</svg>
