<?xml version="1.0" encoding="UTF-8"?>
<!DOCTYPE svg PUBLIC "-//W3C//DTD SVG 1.0//EN" "http://www.w3.org/TR/2001/REC-SVG-20010904/DTD/svg10.dtd">
<!-- Creator: CorelDRAW 2019 (64-Bit) -->
<svg xmlns="http://www.w3.org/2000/svg" xml:space="preserve" width="0.706579in" height="0.713472in" version="1.0" style="shape-rendering:geometricPrecision; text-rendering:geometricPrecision; image-rendering:optimizeQuality; fill-rule:evenodd; clip-rule:evenodd"
viewBox="0 0 25746 25997"
 xmlns:xlink="http://www.w3.org/1999/xlink">
 <defs>
  <style type="text/css">
   <![CDATA[
    .fil18 {fill:none;fill-rule:nonzero}
    .fil17 {fill:#18262F;fill-rule:nonzero}
    .fil15 {fill:#1F3B52;fill-rule:nonzero}
    .fil14 {fill:#21313F;fill-rule:nonzero}
    .fil13 {fill:#2A2F3A;fill-rule:nonzero}
    .fil10 {fill:#2B4B69;fill-rule:nonzero}
    .fil9 {fill:#2F495E;fill-rule:nonzero}
    .fil16 {fill:#90B8C3;fill-rule:nonzero}
    .fil4 {fill:#A1C4D1;fill-rule:nonzero}
    .fil2 {fill:#C3DBE6;fill-rule:nonzero}
    .fil5 {fill:#DBEBEF;fill-rule:nonzero}
    .fil1 {fill:#E6E6E6;fill-rule:nonzero}
    .fil8 {fill:#FF7700;fill-rule:nonzero}
    .fil7 {fill:#FF9013;fill-rule:nonzero}
    .fil6 {fill:#FF9307;fill-rule:nonzero}
    .fil0 {fill:#FF9705;fill-rule:nonzero}
    .fil12 {fill:#FFA880;fill-rule:nonzero}
    .fil11 {fill:#FFC19E;fill-rule:nonzero}
    .fil3 {fill:white;fill-rule:nonzero}
   ]]>
  </style>
     <clipPath id="id0" style="clip-rule:nonzero">
      <path d="M2445 12999c0,293 12,583 36,869 23,280 57,557 102,831 811,4951 5109,8729 10290,8729 5181,0 9479,-3778 10290,-8729 45,-274 79,-550 102,-831 24,-286 36,-577 36,-869 0,-5759 -4669,-10428 -10428,-10428 -5759,0 -10428,4669 -10428,10428z"/>
     </clipPath>
 </defs>
 <g id="Layer_x0020_1">
  <metadata id="CorelCorpID_0Corel-Layer"/>
  <g id="_2216612970832">
   <path class="fil0" d="M25746 25997l0 -13125 -3 0c0,-3230 -1204,-6463 -3630,-8964 -4952,-5102 -13102,-5224 -18204,-274 -2602,2524 -3905,5879 -3906,9238l-3 0 0 13125 25746 0z"/>
   <g>
    <path class="fil1" d="M2445 12999c0,293 12,583 36,869 23,280 57,557 102,831 811,4951 5109,8729 10290,8729 5181,0 9479,-3778 10290,-8729 45,-274 79,-550 102,-831 24,-286 36,-577 36,-869 0,-5759 -4669,-10428 -10428,-10428 -5759,0 -10428,4669 -10428,10428z"/>
    <g style="clip-path:url(#id0)">
     <g>
      <g>
       <g>
        <g>
         <polygon id="1" class="fil2" points="23304,20463 3887,20463 3887,20429 23304,20429 "/>
        </g>
       </g>
       <g>
        <g>
         <path class="fil2" d="M6364 14511l0 -6630c0,-358 290,-648 648,-648l11546 0c358,0 648,290 648,648l0 6630c0,358 -290,648 -648,648l-11546 0c-358,0 -648,-290 -648,-648z"/>
         <path class="fil3" d="M7046 15020c-300,0 -544,-243 -544,-544l0 -6585c0,-287 233,-520 520,-520l11523 0c287,0 520,233 520,520l0 6585c0,300 -244,544 -544,544l-11476 0z"/>
         <path class="fil4" d="M6996 7371l11551 0c287,0 520,233 520,520l0 419 -12591 0 0 -419c0,-287 233,-520 520,-520z"/>
         <g>
          <path class="fil5" d="M7303 7841c0,66 -54,120 -120,120 -66,0 -120,-54 -120,-120 0,-66 54,-120 120,-120 66,0 120,54 120,120z"/>
          <path class="fil5" d="M8018 7841c0,66 -54,120 -120,120 -66,0 -120,-54 -120,-120 0,-66 54,-120 120,-120 66,0 120,54 120,120z"/>
          <path class="fil5" d="M8734 7841c0,66 -54,120 -120,120 -66,0 -120,-54 -120,-120 0,-66 54,-120 120,-120 66,0 120,54 120,120z"/>
         </g>
        </g>
        <g>
         <g>
          <path class="fil2" d="M7152 13814c-29,0 -52,-23 -52,-52 0,-29 23,-52 52,-52l0 104zm7164 0l-7164 0 0 -104 7164 0 0 104zm0 -104c29,0 52,23 52,52 0,29 -23,52 -52,52l0 -104z"/>
         </g>
         <g>
          <path class="fil2" d="M7152 14227c-29,0 -52,-23 -52,-52 0,-29 23,-52 52,-52l0 104zm5596 0l-5596 0 0 -104 5596 0 0 104zm0 -104c29,0 52,23 52,52 0,29 -23,52 -52,52l0 -104z"/>
         </g>
         <g>
          <path class="fil2" d="M7152 14640c-29,0 -52,-23 -52,-52 0,-29 23,-52 52,-52l0 104zm3485 0l-3485 0 0 -104 3485 0 0 104zm0 -104c29,0 52,23 52,52 0,29 -23,52 -52,52l0 -104z"/>
         </g>
         <g>
          <g>
           <path class="fil2" d="M15323 13814c-29,0 -52,-23 -52,-52 0,-29 23,-52 52,-52l0 104zm662 0l-662 0 0 -104 662 0 0 104zm0 -104c29,0 52,23 52,52 0,29 -23,52 -52,52l0 -104z"/>
          </g>
          <g>
           <path class="fil2" d="M15323 14227c-29,0 -52,-23 -52,-52 0,-29 23,-52 52,-52l0 104zm662 0l-662 0 0 -104 662 0 0 104zm0 -104c29,0 52,23 52,52 0,29 -23,52 -52,52l0 -104z"/>
          </g>
          <g>
           <path class="fil2" d="M15323 14640c-29,0 -52,-23 -52,-52 0,-29 23,-52 52,-52l0 104zm662 0l-662 0 0 -104 662 0 0 104zm0 -104c29,0 52,23 52,52 0,29 -23,52 -52,52l0 -104z"/>
          </g>
          <g>
           <path class="fil2" d="M16539 13814c-29,0 -52,-23 -52,-52 0,-29 23,-52 52,-52l0 104zm662 0l-662 0 0 -104 662 0 0 104zm0 -104c29,0 52,23 52,52 0,29 -23,52 -52,52l0 -104z"/>
          </g>
          <g>
           <path class="fil2" d="M16539 14227c-29,0 -52,-23 -52,-52 0,-29 23,-52 52,-52l0 104zm662 0l-662 0 0 -104 662 0 0 104zm0 -104c29,0 52,23 52,52 0,29 -23,52 -52,52l0 -104z"/>
          </g>
          <g>
           <path class="fil2" d="M16539 14640c-29,0 -52,-23 -52,-52 0,-29 23,-52 52,-52l0 104zm662 0l-662 0 0 -104 662 0 0 104zm0 -104c29,0 52,23 52,52 0,29 -23,52 -52,52l0 -104z"/>
          </g>
          <g>
           <path class="fil2" d="M17755 13814c-29,0 -52,-23 -52,-52 0,-29 23,-52 52,-52l0 104zm662 0l-662 0 0 -104 662 0 0 104zm0 -104c29,0 52,23 52,52 0,29 -23,52 -52,52l0 -104z"/>
          </g>
          <g>
           <path class="fil2" d="M17755 14227c-29,0 -52,-23 -52,-52 0,-29 23,-52 52,-52l0 104zm662 0l-662 0 0 -104 662 0 0 104zm0 -104c29,0 52,23 52,52 0,29 -23,52 -52,52l0 -104z"/>
          </g>
          <g>
           <path class="fil2" d="M17755 14640c-29,0 -52,-23 -52,-52 0,-29 23,-52 52,-52l0 104zm662 0l-662 0 0 -104 662 0 0 104zm0 -104c29,0 52,23 52,52 0,29 -23,52 -52,52l0 -104z"/>
          </g>
         </g>
         <g>
          <g>
           <polygon class="fil2" points="18355,10133 18355,8542 18383,8542 18383,10133 "/>
          </g>
          <g>
           <polygon class="fil2" points="18259,9760 18259,9036 18479,9036 18479,9760 "/>
          </g>
          <g>
           <polygon class="fil2" points="18002,10402 18002,8812 18029,8812 18029,10402 "/>
          </g>
          <g>
           <polygon class="fil2" points="17906,10029 17906,9552 18125,9552 18125,10029 "/>
          </g>
          <g>
           <polygon class="fil2" points="17649,10542 17649,8951 17676,8951 17676,10542 "/>
          </g>
          <g>
           <polygon class="fil2" points="17553,10508 17553,9762 17772,9762 17772,10508 "/>
          </g>
          <g>
           <polygon class="fil2" points="17295,10463 17295,8873 17323,8873 17323,10463 "/>
          </g>
          <g>
           <polygon class="fil2" points="17199,10090 17199,9105 17419,9105 17419,10090 "/>
          </g>
          <g>
           <polygon class="fil2" points="16942,10610 16942,9417 16970,9417 16970,10610 "/>
          </g>
          <g>
           <polygon class="fil2" points="16846,10251 16846,9725 17065,9725 17065,10251 "/>
          </g>
          <g>
           <polygon class="fil2" points="16589,11007 16589,9588 16616,9588 16616,11007 "/>
          </g>
          <g>
           <polygon class="fil2" points="16493,10806 16493,9961 16712,9961 16712,10806 "/>
          </g>
          <g>
           <polygon class="fil2" points="16235,10573 16235,9337 16263,9337 16263,10573 "/>
          </g>
          <g>
           <polygon class="fil2" points="16139,10328 16139,9627 16359,9627 16359,10328 "/>
          </g>
          <g>
           <polygon class="fil2" points="15882,10322 15882,8842 15910,8842 15910,10322 "/>
          </g>
          <g>
           <polygon class="fil2" points="15786,10059 15786,9129 16005,9129 16005,10059 "/>
          </g>
          <g>
           <polygon class="fil2" points="15529,10716 15529,9542 15556,9542 15556,10716 "/>
          </g>
          <g>
           <polygon class="fil2" points="15433,10392 15433,9823 15652,9823 15652,10392 "/>
          </g>
          <g>
           <polygon class="fil2" points="15175,11203 15175,10023 15203,10023 15203,11203 "/>
          </g>
          <g>
           <polygon class="fil2" points="15080,10830 15080,10396 15299,10396 15299,10830 "/>
          </g>
          <g>
           <polygon class="fil2" points="14822,10922 14822,9717 14850,9717 14850,10922 "/>
          </g>
          <g>
           <polygon class="fil2" points="14726,10545 14726,10090 14945,10090 14945,10545 "/>
          </g>
          <g>
           <polygon class="fil2" points="14469,11485 14469,10023 14496,10023 14496,11485 "/>
          </g>
          <g>
           <polygon class="fil2" points="14373,11240 14373,10396 14592,10396 14592,11240 "/>
          </g>
          <g>
           <polygon class="fil2" points="14116,11035 14116,10023 14143,10023 14143,11035 "/>
          </g>
          <g>
           <polygon class="fil2" points="14020,10808 14020,10396 14239,10396 14239,10808 "/>
          </g>
          <g>
           <polygon class="fil2" points="13762,10922 13762,9864 13790,9864 13790,10922 "/>
          </g>
          <g>
           <polygon class="fil2" points="13666,10545 13666,10237 13886,10237 13886,10545 "/>
          </g>
          <g>
           <polygon class="fil2" points="13409,12047 13409,10023 13436,10023 13436,12047 "/>
          </g>
          <g>
           <polygon class="fil2" points="13313,11827 13313,10396 13532,10396 13532,11827 "/>
          </g>
          <g>
           <polygon class="fil2" points="13056,12182 13056,10592 13083,10592 13083,12182 "/>
          </g>
          <g>
           <polygon class="fil2" points="12960,11809 12960,10965 13179,10965 13179,11809 "/>
          </g>
          <g>
           <polygon class="fil2" points="12702,12470 12702,10659 12730,10659 12730,12470 "/>
          </g>
          <g>
           <polygon class="fil2" points="12606,12097 12606,11002 12826,11002 12826,12097 "/>
          </g>
          <g>
           <polygon class="fil2" points="12349,13167 12349,11699 12377,11699 12377,13167 "/>
          </g>
          <g>
           <polygon class="fil2" points="12253,12794 12253,11950 12472,11950 12472,12794 "/>
          </g>
          <g>
           <polygon class="fil2" points="11996,11875 11996,10284 12023,10284 12023,11875 "/>
          </g>
          <g>
           <polygon class="fil2" points="11900,11697 11900,10657 12119,10657 12119,11697 "/>
          </g>
          <g>
           <polygon class="fil2" points="11642,12005 11642,10414 11670,10414 11670,12005 "/>
          </g>
          <g>
           <polygon class="fil2" points="11547,11631 11547,11014 11766,11014 11766,11631 "/>
          </g>
          <g>
           <polygon class="fil2" points="11289,12604 11289,11014 11317,11014 11317,12604 "/>
          </g>
          <g>
           <polygon class="fil2" points="11193,12231 11193,11693 11413,11693 11413,12231 "/>
          </g>
          <g>
           <polygon class="fil2" points="10936,12977 10936,11387 10963,11387 10963,12977 "/>
          </g>
          <g>
           <polygon class="fil2" points="10840,12604 10840,12182 11059,12182 11059,12604 "/>
          </g>
          <g>
           <polygon class="fil2" points="10582,12757 10582,11167 10610,11167 10610,12757 "/>
          </g>
          <g>
           <polygon class="fil2" points="10487,12384 10487,11870 10706,11870 10706,12384 "/>
          </g>
          <g>
           <polygon class="fil2" points="10229,12604 10229,11014 10257,11014 10257,12604 "/>
          </g>
          <g>
           <polygon class="fil2" points="10133,12231 10133,11589 10352,11589 10352,12231 "/>
          </g>
          <g>
           <polygon class="fil2" points="9876,12996 9876,11406 9903,11406 9903,12996 "/>
          </g>
          <g>
           <polygon class="fil2" points="9780,12623 9780,11632 9999,11632 9999,12623 "/>
          </g>
          <g>
           <polygon class="fil2" points="9523,12334 9523,10744 9550,10744 9550,12334 "/>
          </g>
          <g>
           <polygon class="fil2" points="9427,12078 9427,11117 9646,11117 9646,12078 "/>
          </g>
          <g>
           <polygon class="fil2" points="9169,11680 9169,10090 9197,10090 9197,11680 "/>
          </g>
          <g>
           <polygon class="fil2" points="9073,11436 9073,10463 9293,10463 9293,11436 "/>
          </g>
          <g>
           <polygon class="fil2" points="8816,11949 8816,10359 8843,10359 8843,11949 "/>
          </g>
          <g>
           <polygon class="fil2" points="8720,11576 8720,10628 8939,10628 8939,11576 "/>
          </g>
          <g>
           <polygon class="fil2" points="8463,11619 8463,10029 8490,10029 8490,11619 "/>
          </g>
          <g>
           <polygon class="fil2" points="8367,10665 8367,10402 8586,10402 8586,10665 "/>
          </g>
          <g>
           <polygon class="fil2" points="8109,11258 8109,9668 8137,9668 8137,11258 "/>
          </g>
          <g>
           <polygon class="fil2" points="8014,10463 8014,10041 8233,10041 8233,10463 "/>
          </g>
          <g>
           <polygon class="fil2" points="7756,12323 7756,10436 7784,10436 7784,12323 "/>
          </g>
          <g>
           <polygon class="fil2" points="7660,11950 7660,10631 7879,10631 7879,11950 "/>
          </g>
          <g>
           <polygon class="fil2" points="7403,13106 7403,11515 7430,11515 7430,13106 "/>
          </g>
          <g>
           <polygon class="fil2" points="7307,11828 7307,11112 7526,11112 7526,11828 "/>
          </g>
          <g>
           <polygon class="fil2" points="7049,12996 7049,11405 7077,11405 7077,12996 "/>
          </g>
          <g>
           <polygon class="fil2" points="6954,12623 6954,11693 7173,11693 7173,12623 "/>
          </g>
         </g>
        </g>
       </g>
       <g>
        <path class="fil5" d="M22173 12291l-469 722 -861 0c27,-468 415,-839 890,-839 160,0 311,43 441,117z"/>
        <path class="fil2" d="M22623 13064c0,169 -47,327 -129,461l-691 -475 457 -703c220,162 363,423 363,717z"/>
        <path class="fil4" d="M22435 13611c-163,209 -417,344 -703,344 -474,0 -862,-371 -890,-839l873 0 719 495z"/>
       </g>
       <g>
        <g>
         <path class="fil2" d="M18109 12531l2014 0 0 95 -2014 0 0 0 0 -95zm-165 -71l95 0 0 0 0 4 0 4 0 3 1 4 1 4 1 3 1 3 1 3 1 3 1 3 2 3 2 3 2 3 2 2 2 3 2 2 2 2 3 2 3 2 2 2 3 2 3 2 3 1 3 2 3 1 3 1 3 1 4 1 3 1 3 0 4 0 4 0 0 95 -8 0 -8 -1 -9 -1 -8 -2 -7 -2 -8 -2 -8 -3 -7 -3 -7 -3 -8 -4 -7 -4 -7 -4 -7 -5 -6 -5 -6 -5 -6 -5 -5 -6 -5 -6 -5 -6 -5 -7 -4 -6 -4 -7 -4 -7 -3 -7 -3 -7 -3 -8 -2 -8 -2 -8 -2 -8 -1 -9 -1 -8 0 -8 0 0zm95 -1380l0 1380 -95 0 0 -1380 0 0 95 0zm71 -165l0 95 0 0 -4 0 -4 0 -3 0 -3 1 -4 1 -3 1 -3 1 -3 1 -3 2 -3 1 -3 2 -3 2 -3 2 -3 2 -2 2 -2 2 -2 3 -3 3 -2 3 -2 2 -2 3 -2 3 -1 3 -1 3 -2 3 -1 3 -1 3 -1 4 -1 4 0 3 0 4 0 4 -95 0 0 -8 1 -8 1 -9 2 -8 2 -8 2 -8 3 -8 3 -7 3 -7 4 -7 4 -7 4 -7 5 -7 5 -6 5 -6 5 -6 6 -6 6 -5 6 -5 6 -4 7 -4 7 -4 8 -4 7 -3 7 -3 8 -3 8 -2 7 -2 8 -2 9 -1 8 -1 8 0 0 0zm2014 95l-2014 0 0 -95 2014 0 0 0 0 95zm166 71l-95 0 0 0 0 -4 0 -3 -1 -4 -1 -4 -1 -3 -1 -3 -1 -3 -2 -3 -1 -3 -1 -3 -2 -4 -2 -3 -2 -2 -2 -3 -3 -3 -2 -2 -3 -2 -2 -2 -3 -2 -4 -2 -3 -2 -2 -1 -3 -1 -3 -1 -3 -1 -3 -1 -3 -1 -4 -1 -4 -1 -3 0 -4 0 -4 0 0 -95 8 0 8 1 9 1 8 2 8 2 8 2 8 3 7 3 7 3 7 4 8 4 7 4 6 4 7 5 6 5 6 5 6 6 5 6 5 6 5 7 4 7 4 6 4 7 3 8 3 7 3 8 2 8 2 8 1 8 1 8 1 9 0 8 0 0zm-95 1380l0 -1380 95 0 0 1380 0 0 -95 0zm-71 165l0 -95 0 0 4 0 4 0 3 0 4 -1 4 -1 3 -1 3 -1 3 -1 3 -1 3 -1 3 -2 3 -2 3 -2 3 -2 3 -2 3 -3 2 -2 2 -3 2 -2 2 -3 2 -3 2 -4 2 -3 1 -3 1 -3 1 -3 1 -3 1 -3 1 -4 1 -4 0 -3 0 -4 95 0 0 8 -1 9 -1 8 -1 8 -2 8 -2 8 -3 8 -3 7 -4 8 -4 7 -4 6 -4 6 -5 7 -5 6 -5 6 -6 6 -5 5 -6 5 -7 5 -6 5 -7 4 -7 4 -7 4 -7 3 -7 3 -8 3 -8 2 -8 2 -8 2 -9 1 -8 1 -8 0 0 0z"/>
         <path id="1" class="fil3" d="M20123 12578l-2014 0c-65,0 -118,-53 -118,-118l0 -1380c0,-65 53,-118 118,-118l2014 0c65,0 118,53 118,118l0 1380c0,65 -53,118 -118,118z"/>
        </g>
        <g>
         <path class="fil2" d="M18155 12411c-19,0 -35,-16 -35,-35 0,-19 16,-35 35,-35l0 69zm320 -289l0 69 0 0 -12 0 -10 1 -10 2 -9 3 -8 4 -8 5 -8 5 -8 6 -8 7 -7 7 -7 8 -7 8 -7 9 -7 9 -7 10 -8 10 -7 10 -8 11 -8 10 -8 10 -9 10 -10 10 -10 10 -10 9 -12 9 -12 8 -13 7 -14 6 -15 5 -16 4 -17 2 -18 1 0 -69 11 0 10 -1 10 -2 9 -3 8 -4 8 -5 8 -5 7 -6 8 -7 7 -7 7 -8 7 -8 7 -9 7 -9 7 -10 7 -10 8 -10 8 -11 8 -10 8 -10 9 -10 10 -10 10 -10 11 -9 12 -9 12 -8 13 -7 14 -6 15 -5 16 -4 17 -2 18 -1 0 0zm0 0c19,0 35,16 35,35 0,19 -16,35 -35,35l0 -69zm320 -386l0 69 0 0 -9 1 -8 2 -8 3 -8 5 -8 6 -8 8 -8 9 -8 11 -8 12 -8 14 -8 15 -8 16 -8 17 -8 17 -7 18 -7 18 -8 18 -8 18 -8 18 -8 18 -8 18 -9 17 -10 16 -10 16 -11 15 -12 14 -13 13 -15 11 -16 9 -18 7 -19 4 -20 2 0 -69 9 -1 8 -2 8 -3 8 -5 8 -6 8 -8 8 -9 8 -11 8 -12 8 -14 8 -15 8 -16 8 -17 8 -17 7 -18 7 -18 8 -18 8 -18 8 -18 8 -18 8 -18 9 -17 10 -16 10 -16 11 -15 12 -14 13 -13 15 -11 16 -9 18 -7 19 -4 20 -2 0 0zm0 0c19,0 35,16 35,35 0,19 -16,35 -35,35l0 -69zm276 252l0 69 0 0 -18 -1 -17 -3 -16 -4 -15 -6 -14 -8 -13 -9 -11 -10 -10 -11 -9 -11 -8 -12 -7 -12 -7 -12 -6 -12 -6 -12 -6 -12 -6 -12 -5 -12 -5 -11 -5 -11 -5 -10 -6 -10 -6 -9 -6 -8 -6 -7 -6 -6 -6 -5 -6 -5 -7 -4 -7 -3 -8 -2 -10 -2 -11 -1 0 -69 18 1 17 3 16 4 15 6 14 8 12 9 11 10 10 11 9 11 8 12 7 12 7 12 6 12 6 12 6 12 6 12 5 12 5 11 5 11 5 10 5 9 6 9 6 8 6 7 6 6 6 5 7 5 7 4 7 3 9 2 10 2 11 1 0 0zm0 0c19,0 35,16 35,35 0,19 -16,35 -35,35l0 -69zm365 -659l0 69 0 0 -6 1 -7 3 -8 5 -9 9 -10 12 -10 15 -10 18 -10 21 -10 23 -10 25 -10 26 -10 28 -10 29 -10 30 -9 30 -10 31 -10 31 -10 31 -10 30 -10 30 -10 29 -11 28 -11 27 -11 25 -12 24 -13 22 -14 20 -15 18 -16 15 -19 12 -22 8 -23 3 0 -69 6 -1 7 -3 8 -5 9 -9 10 -12 10 -15 10 -18 10 -21 10 -23 10 -25 10 -27 10 -28 10 -29 10 -30 9 -30 10 -31 10 -31 10 -31 10 -30 10 -30 10 -29 10 -28 11 -27 11 -25 12 -24 13 -22 14 -20 15 -18 17 -15 19 -12 22 -8 23 -3 0 0zm0 0c19,0 35,16 35,35 0,19 -16,35 -35,35l0 -69zm320 289l0 69 0 0 -19 -1 -18 -3 -17 -5 -16 -7 -14 -8 -13 -10 -12 -11 -11 -12 -10 -12 -10 -13 -9 -13 -9 -14 -8 -13 -8 -14 -8 -14 -8 -14 -7 -14 -7 -13 -7 -13 -8 -12 -7 -11 -8 -11 -8 -10 -8 -9 -8 -8 -8 -7 -8 -6 -8 -5 -9 -4 -9 -3 -10 -2 -10 -1 0 -69 19 1 18 3 17 5 16 7 15 8 13 10 12 11 11 12 10 12 10 12 9 13 9 14 8 13 8 14 8 14 7 14 8 13 7 13 7 13 8 12 7 11 8 11 8 10 8 9 8 8 8 7 8 6 8 5 8 4 9 3 10 2 11 1 0 0zm0 0c19,0 35,16 35,35 0,19 -16,35 -35,35l0 -69zm320 -289l0 69 -11 1 -10 2 -9 3 -8 4 -8 5 -8 6 -8 7 -8 8 -8 9 -8 10 -8 11 -7 11 -8 12 -7 13 -7 13 -7 14 -8 14 -8 14 -8 14 -8 13 -9 14 -9 13 -10 13 -10 12 -11 12 -12 11 -13 10 -14 8 -16 7 -17 5 -18 3 -19 1 0 -69 11 -1 10 -2 9 -3 8 -4 8 -5 8 -6 8 -7 8 -8 8 -9 8 -10 8 -11 7 -11 8 -12 7 -13 7 -13 7 -13 8 -14 8 -14 8 -14 8 -13 9 -14 9 -13 10 -13 10 -12 11 -12 12 -11 13 -10 14 -8 16 -7 17 -5 18 -3 19 -1zm0 0c19,0 35,16 35,35 0,19 -16,35 -35,35l0 -69z"/>
        </g>
       </g>
       <g>
        <g>
         <path class="fil6" d="M13484 17870c-15,-119 -76,-229 -155,-320 -79,-91 -175,-165 -273,-235 -125,-89 -259,-177 -412,-194 -72,-8 -149,1 -212,37 -63,37 -110,104 -112,177 -1,89 63,166 132,222 70,56 150,101 205,171 71,91 89,212 146,312 55,96 147,169 252,202 94,29 257,42 329,-40 78,-89 113,-216 99,-332z"/>
         <path class="fil7" d="M13510 17878c-33,-84 -49,-179 -28,-267 24,-102 93,-188 129,-287 36,-100 38,-214 96,-304 66,-104 206,-156 323,-117 117,39 199,165 183,288 -11,85 -62,160 -84,242 -33,118 -7,247 -43,365 -30,98 -105,181 -199,222 -44,19 -92,31 -137,48 -30,11 -65,32 -98,23 -69,-19 -117,-153 -141,-212z"/>
         <path class="fil8" d="M13737 18632c46,-85 138,-142 234,-147 68,-3 136,18 204,24 76,6 153,-6 228,10 74,17 148,78 142,154 -4,55 -51,100 -103,119 -52,19 -109,17 -165,14 -55,-3 -112,-8 -166,7 -64,17 -118,60 -177,90 -62,32 -163,60 -205,-12 -44,-75 -33,-186 7,-259z"/>
         <g>
          <polygon class="fil8" points="14088,18611 14091,18636 14048,18643 14009,18655 13971,18671 13935,18690 13901,18714 13870,18741 13840,18771 13812,18803 13785,18839 13761,18876 13738,18915 13717,18956 13697,18998 13679,19041 13662,19084 13647,19128 13633,19172 13621,19215 13609,19257 13599,19298 13591,19338 13583,19376 13576,19412 13570,19446 13565,19476 13561,19504 13558,19528 13555,19549 13553,19565 13552,19578 13552,19585 13551,19588 13526,19586 13527,19583 13527,19575 13528,19563 13530,19546 13533,19525 13536,19500 13540,19472 13545,19441 13551,19407 13558,19371 13566,19333 13575,19292 13585,19251 13596,19208 13609,19164 13623,19120 13639,19076 13656,19032 13674,18988 13694,18945 13716,18903 13739,18863 13765,18824 13792,18788 13821,18754 13853,18722 13886,18694 13922,18669 13960,18648 14000,18631 14043,18619 "/>
         </g>
         <g>
          <polygon class="fil8" points="13835,17347 13858,17356 13824,17452 13793,17551 13764,17651 13737,17752 13713,17855 13691,17959 13671,18062 13653,18166 13637,18270 13622,18373 13609,18474 13598,18575 13588,18674 13580,18771 13573,18865 13567,18957 13562,19046 13558,19132 13556,19214 13554,19292 13552,19366 13552,19435 13552,19499 13552,19557 13552,19611 13553,19658 13554,19698 13555,19732 13556,19760 13557,19779 13557,19791 13558,19795 13533,19797 13532,19792 13532,19780 13531,19760 13530,19733 13529,19699 13528,19658 13527,19611 13527,19558 13526,19499 13526,19434 13527,19365 13528,19291 13530,19213 13533,19131 13537,19045 13542,18956 13548,18864 13555,18769 13563,18672 13573,18572 13584,18471 13597,18369 13612,18266 13628,18162 13646,18058 13666,17954 13689,17850 13713,17746 13740,17644 13769,17543 13801,17444 "/>
         </g>
         <g>
          <polygon class="fil8" points="12734,17437 12748,17416 12824,17469 12895,17524 12961,17581 13023,17639 13081,17700 13134,17761 13183,17824 13228,17887 13270,17951 13308,18015 13343,18079 13374,18143 13403,18206 13428,18268 13451,18329 13471,18389 13488,18447 13504,18503 13517,18557 13528,18609 13538,18658 13545,18704 13552,18747 13557,18787 13561,18823 13563,18855 13565,18883 13566,18906 13567,18925 13567,18939 13567,18947 13567,18950 13542,18950 13542,18947 13542,18939 13542,18926 13541,18908 13540,18885 13538,18857 13536,18826 13532,18790 13527,18751 13521,18708 13513,18663 13504,18614 13493,18563 13479,18509 13464,18454 13447,18396 13427,18337 13405,18277 13380,18216 13352,18153 13320,18090 13286,18027 13249,17964 13208,17901 13163,17839 13115,17777 13062,17717 13005,17657 12944,17599 12879,17543 12809,17489 "/>
         </g>
        </g>
        <g>
         <path class="fil9" d="M14068 19552l-529 0 -529 0c0,0 -87,460 156,894l373 0 373 0c243,-434 156,-894 156,-894z"/>
         <path class="fil10" d="M14139 19740c-4,-117 -15,-188 -15,-188l-586 0 -586 0c0,0 -10,71 -15,188l1202 0z"/>
        </g>
       </g>
       <g>
        <polygon class="fil2" points="16233,6904 15582,6904 15582,5902 16233,5902 "/>
        <polygon class="fil2" points="15908,5271 15314,6009 16501,6009 "/>
       </g>
       <g>
        <polygon class="fil2" points="10415,8659 11066,8659 11066,9662 10415,9662 "/>
        <polygon class="fil2" points="10741,10293 11334,9555 10147,9555 "/>
       </g>
       <g>
        <path class="fil2" d="M6660 6828l-404 0c-44,0 -80,-36 -80,-80l0 -404c0,-44 36,-80 80,-80l404 0c44,0 80,36 80,80l0 404c0,44 -36,80 -80,80z"/>
        <g>
         <g>
          <path class="fil3" d="M6295 6601c-14,-16 -13,-40 3,-54 16,-14 40,-13 54,3l-57 51zm64 71l-64 -71 57 -51 64 71 -2 53 -56 -2zm57 -51c14,16 13,40 -3,54 -16,14 -40,13 -54,-3l57 -51zm204 -148l-205 201 -54 -55 205 -201 54 55zm-54 -55c15,-15 40,-15 55,1 15,15 15,40 -1,55l-54 -55z"/>
         </g>
        </g>
       </g>
       <g>
        <path class="fil2" d="M21571 15307l-404 0c-44,0 -80,-36 -80,-80l0 -404c0,-44 36,-80 80,-80l404 0c44,0 80,36 80,80l0 404c0,44 -36,80 -80,80z"/>
        <g>
         <g>
          <path class="fil3" d="M21205 15080c-14,-16 -13,-40 3,-54 16,-14 40,-13 54,3l-57 52zm64 71l-64 -71 57 -52 64 71 -2 53 -56 -2zm57 -52c14,16 13,40 -3,54 -16,14 -40,13 -54,-3l57 -52zm204 -148l-205 201 -54 -55 205 -201 54 55zm-54 -55c15,-15 40,-15 55,1 15,15 15,40 -1,55l-54 -55z"/>
         </g>
        </g>
       </g>
       <g>
        <polygon class="fil2" points="9779,7011 9555,7011 9555,6774 9779,6774 "/>
        <polygon class="fil2" points="10099,7011 9875,7011 9875,6630 10099,6630 "/>
        <polygon class="fil2" points="10420,7011 10196,7011 10196,6447 10420,6447 "/>
        <polygon class="fil2" points="10741,7011 10517,7011 10517,6216 10741,6216 "/>
       </g>
       <g>
        <polygon class="fil11" points="7291,20126 6944,20126 6910,19563 7249,19542 "/>
        <polygon class="fil11" points="5442,20113 5103,20103 5163,19610 5477,19658 "/>
        <g>
         <polygon class="fil10" points="5747,14266 5067,19903 5483,19903 6471,15801 6892,19903 7303,19903 7202,14266 "/>
        </g>
        <path class="fil11" d="M8224 12191c0,0 69,-132 64,-193 -5,-61 -17,-148 45,-242 14,-22 55,-80 55,-80 0,0 33,35 16,73 -17,38 -29,78 -29,78 0,0 30,-55 144,-88 54,-16 264,-69 264,-69 30,0 26,43 -33,71 0,0 26,27 -22,54 0,0 34,25 -33,62 0,0 26,21 -42,62 -62,37 -161,90 -183,125 -29,47 -77,207 -77,207l-169 -61z"/>
        <g>
         <path class="fil7" d="M6042 11587c0,0 -423,124 -520,149 -96,25 0,638 132,1341 132,703 93,1189 93,1189l1455 0c0,0 61,-2271 27,-2348 -61,-140 -671,-333 -671,-333l-516 2z"/>
        </g>
        <path class="fil12" d="M6127 11084c0,0 14,349 -46,489l74 141 196 119 124 -93 36 -106 0 -549 -384 0z"/>
        <g>
         <path class="fil13" d="M5972 10826c-17,-45 -16,-96 4,-140 16,-36 43,-65 61,-100 15,-31 23,-66 48,-90 24,-24 62,-32 96,-26 34,7 64,27 88,51 33,34 57,77 68,123 13,56 6,115 -5,172 -10,51 -25,104 -60,143 -28,30 -67,50 -108,53 -40,3 -99,-8 -122,-46 -11,-19 -16,-41 -26,-60 -14,-27 -31,-52 -42,-80z"/>
        </g>
        <path class="fil11" d="M6716 10528c0,0 84,773 -142,884 -146,72 -379,-5 -415,-349 -35,-344 119,-512 300,-535 159,-20 256,0 256,0z"/>
        <path class="fil11" d="M6154 10913c0,0 -52,-57 -103,0 -51,57 42,177 112,183l-9 -183z"/>
        <g>
         <path class="fil13" d="M6273 10639c42,6 84,0 126,6 49,6 95,28 141,44 69,25 143,41 216,34 73,-8 146,-42 189,-101 44,-61 52,-145 21,-213 -31,-68 -101,-117 -175,-123 -83,-7 -162,35 -241,64 -84,31 -173,47 -263,49 -37,1 -74,-1 -110,8 -36,9 -71,31 -84,65 -18,44 11,78 43,103 42,32 83,59 137,66z"/>
        </g>
        <path class="fil8" d="M6095 11530c0,0 49,169 255,302 -7,63 -184,191 -260,-20 -37,-105 -49,-226 -49,-226l53 -57z"/>
        <path class="fil8" d="M6350 11832c156,-107 160,-296 160,-296l47 49c0,0 35,211 -39,308 -51,67 -162,-20 -169,-61z"/>
        <path class="fil11" d="M5647 14288c0,0 147,223 210,273 63,51 112,158 112,158l-186 254c0,0 -112,-37 -147,-171 -35,-134 -69,-149 -127,-278 -58,-129 -58,-129 -58,-129l197 -106z"/>
        <g>
         <path class="fil7" d="M5500 11758c0,0 -216,13 -317,408 -101,395 -227,1044 -261,1320 -14,117 609,1144 609,1144 0,0 124,-112 234,-206 0,0 -344,-720 -344,-983 0,0 309,-859 319,-1118 10,-263 11,-538 -240,-565z"/>
        </g>
        <g>
         <path class="fil7" d="M7229 11918c81,12 327,562 484,845 157,283 157,283 157,283l380 -972c0,0 127,-20 202,91 0,0 -202,1311 -253,1457 -51,147 -207,253 -486,-96 -278,-349 -759,-1027 -800,-1103 -40,-76 -152,-577 315,-506z"/>
        </g>
        <path class="fil14" d="M6944 20085l324 0c0,0 35,0 142,111 106,111 415,5 531,228l-1022 0c0,0 -96,-177 25,-339z"/>
        <g>
         <path class="fil14" d="M4986 20424c-39,-130 52,-224 81,-339 18,-71 373,-114 408,41 34,148 7,299 7,299l-496 0z"/>
        </g>
        <polygon class="fil15" points="5776,15055 5709,15009 5997,14587 6064,14633 "/>
        <polygon class="fil15" points="7204,14371 5747,14371 5747,14266 7204,14266 "/>
        <polygon class="fil15" points="6471,15801 6673,15044 6540,16475 "/>
        <polygon class="fil8" points="7232,12884 7239,12330 7368,13071 "/>
        <path class="fil8" d="M5614 12860l94 -344 -35 671c0,0 -57,-293 -60,-328z"/>
       </g>
       <g>
        <g>
         <g>
          <g>
           <path class="fil10" d="M19593 20377l-674 -2949 252 0 522 2949c-3,63 -97,63 -100,0z"/>
          </g>
          <g>
           <path class="fil10" d="M17891 20377l-674 -2949 252 0 522 2949c-3,63 -97,63 -100,0z"/>
          </g>
          <g>
           <path class="fil4" d="M15559 20377l674 -2949 -252 0 -522 2949c3,63 97,63 100,0z"/>
          </g>
          <g>
           <path class="fil4" d="M19849 15093l-1370 0c-88,0 -167,55 -198,138l-670 1841c-50,137 52,282 198,282l1370 0c88,0 167,-55 197,-138l670 -1841c50,-137 -52,-282 -198,-282z"/>
          </g>
          <g>
           <path class="fil4" d="M19312 17501l-3521 0c-40,0 -73,-33 -73,-73 0,-40 33,-73 73,-73l3521 0c41,0 73,33 73,73 0,41 -33,73 -73,73z"/>
          </g>
          <g>
           <path class="fil16" d="M19312 17501l-1420 0c-40,0 -73,-33 -73,-73 0,-40 33,-73 73,-73l1420 0c41,0 73,33 73,73 0,41 -33,73 -73,73z"/>
          </g>
          <g>
           <path class="fil4" d="M17150 20377l674 -2949 -252 0 -522 2949c3,63 97,63 100,0z"/>
          </g>
         </g>
         <g>
          <path class="fil14" d="M18273 13194c0,0 -202,11 -219,230 -17,219 23,333 -72,552 -95,219 -171,514 224,541 395,27 516,10 638,105 122,94 536,-192 387,-445 -148,-253 -205,-398 -144,-594 61,-196 -67,-410 -304,-503 -198,-78 -361,-66 -509,114z"/>
         </g>
         <g>
          <path class="fil7" d="M18171 14450c0,0 55,172 -81,668 -136,495 -180,659 -308,752 -79,57 -976,57 -976,57l0 -253 790 -96c0,0 100,-490 201,-797 35,-106 94,-382 218,-437 125,-55 157,106 157,106z"/>
         </g>
         <g>
          <g>
           <path class="fil7" d="M19184 15297c-37,280 -138,965 -138,965l-1049 0c0,0 32,-419 -20,-646 -9,-42 -21,-77 -37,-102 -81,-130 -154,-251 -155,-385 0,-32 4,-66 13,-100 47,-175 118,-563 206,-671 88,-108 525,-94 525,-94 0,0 572,2 743,97 46,26 63,83 67,152 12,214 -126,574 -154,786z"/>
          </g>
          <path class="fil8" d="M19015 15388c0,0 -800,64 -1038,227 -9,-42 -21,-77 -37,-102 -81,-130 -154,-251 -155,-385 53,110 188,256 532,261 553,6 698,0 698,0z"/>
          <path class="fil8" d="M19184 15297c-37,280 -138,965 -138,965l50 -1619 242 -132c12,214 -126,574 -154,786z"/>
         </g>
         <g>
          <path class="fil11" d="M18781 15707c0,0 -500,18 -657,29 0,0 -143,-54 -231,-61 -134,-10 -252,124 -288,253l1160 0 17 -221z"/>
          <g>
           <path class="fil7" d="M19316 14412c0,0 148,275 244,640 96,364 228,734 106,835 -121,101 -901,61 -901,61l-20 -273 594 -96c0,0 -224,-562 -260,-663 -35,-101 -62,-412 62,-467 125,-55 175,-36 175,-36z"/>
          </g>
         </g>
         <g>
          <g>
           <polygon class="fil11" points="16457,20136 16278,20136 16255,19872 16473,19851 "/>
           <g>
            <path class="fil17" d="M16457 20136c0,0 66,69 44,220 -10,72 -167,67 -432,67l-264 0c-45,0 -65,-56 -30,-84 16,-14 39,-26 70,-36 298,-92 433,-167 433,-167l179 0z"/>
           </g>
          </g>
          <path class="fil15" d="M18574 16261c-2,91 207,400 166,701 -27,197 -197,392 -592,392 -540,0 -1400,-6 -1541,0 -112,5 -165,7 -99,217 155,499 24,1347 -17,2496l-236 0c0,0 -209,-1192 -296,-1769 -135,-897 -340,-1249 50,-1435 413,-197 1988,-602 1988,-602l576 0z"/>
          <g>
           <polygon class="fil11" points="16966,20136 16787,20136 16764,19872 16982,19851 "/>
           <g>
            <path class="fil14" d="M16966 20136c0,0 66,69 44,220 -10,72 -167,67 -432,67l-264 0c-45,0 -65,-56 -30,-84 16,-14 39,-26 70,-36 298,-92 433,-167 433,-167l179 0z"/>
           </g>
          </g>
          <g>
           <path class="fil10" d="M19046 16261c-2,91 207,400 166,701 -27,197 -197,392 -592,392 -540,0 -1397,0 -1541,0 -112,0 -165,7 -99,217 155,499 86,1357 8,2496l-237 0c0,0 -233,-1192 -320,-1769 -135,-897 -340,-1249 51,-1435 413,-197 1867,-602 1867,-602l697 0z"/>
          </g>
         </g>
         <g>
          <g>
           <path class="fil11" d="M18243 14273c0,0 -3,224 148,352 0,0 322,-150 438,-351 0,0 -302,-33 -587,-1z"/>
           <path class="fil11" d="M18308 14267c0,0 79,-8 79,-101 0,-93 9,-270 9,-270l299 25c0,0 -25,293 23,346 48,54 48,54 48,54 0,0 -410,70 -458,-54z"/>
          </g>
          <path class="fil12" d="M18388 14129c0,0 196,30 301,-53l7 -154 -308 67 0 141z"/>
          <path class="fil11" d="M18214 13303c0,0 -263,721 106,802 369,81 445,-304 445,-304 0,0 95,-23 110,-105 14,-80 -97,-50 -97,-50 0,0 98,-297 -125,-396 -234,-105 -395,-50 -440,53z"/>
          <g>
           <path class="fil14" d="M18249 13215c0,0 85,405 530,432 0,0 115,-287 37,-408 -77,-121 -435,-197 -567,-24z"/>
          </g>
         </g>
        </g>
        <g>
         <g>
          <path class="fil14" d="M17843 15846l-1758 0 -421 -1158c-18,-49 19,-101 71,-101l1598 0c32,0 60,20 71,50l440 1209z"/>
         </g>
         <g>
          <path class="fil14" d="M18888 15956l-1748 0c-30,0 -55,-24 -55,-55 0,-30 24,-55 55,-55l1748 0c30,0 55,25 55,55 0,30 -25,55 -55,55z"/>
         </g>
         <g>
          <path class="fil14" d="M17837 15956l-1748 0c-30,0 -55,-24 -55,-55 0,-30 25,-55 55,-55l1748 0c30,0 55,25 55,55 0,30 -24,55 -55,55z"/>
         </g>
        </g>
       </g>
       <g>
        <path class="fil10" d="M21989 20355l-982 -4297 367 0 760 4297c-5,92 -141,92 -145,0z"/>
        <path class="fil10" d="M12078 20355l-982 -4297 367 0 760 4297c-5,92 -141,92 -145,0z"/>
        <path class="fil2" d="M8195 20355l982 -4297 -367 0 -760 4297c5,92 141,92 145,0z"/>
        <path class="fil2" d="M17626 20355l982 -4297 -367 0 -760 4297c5,92 141,92 145,0z"/>
        <path class="fil4" d="M8138 16160l14005 0c49,0 89,-40 89,-88l0 -28c0,-49 -40,-88 -89,-88l-14005 0c-49,0 -88,40 -88,88l0 28c0,49 40,88 88,88z"/>
        <path class="fil16" d="M19014 16160l3116 0c57,0 102,-46 102,-102 0,-57 -46,-102 -102,-102l-3116 0c-57,0 -102,46 -102,102 0,57 46,102 102,102z"/>
       </g>
       <g>
        <g>
         <path class="fil14" d="M11117 15846l1758 0 421 -1158c18,-49 -19,-101 -71,-101l-1598 0c-32,0 -60,20 -71,50l-440 1209z"/>
        </g>
        <g>
         <path class="fil14" d="M10072 15956l1748 0c30,0 55,-24 55,-55 0,-30 -25,-55 -55,-55l-1748 0c-30,0 -55,25 -55,55 0,30 25,55 55,55z"/>
        </g>
        <g>
         <path class="fil14" d="M11123 15956l1748 0c30,0 55,-24 55,-55 0,-30 -25,-55 -55,-55l-1748 0c-30,0 -55,25 -55,55 0,30 24,55 55,55z"/>
        </g>
       </g>
      </g>
     </g>
    </g>
    <path class="fil18" d="M2445 12999c0,293 12,583 36,869 23,280 57,557 102,831 811,4951 5109,8729 10290,8729 5181,0 9479,-3778 10290,-8729 45,-274 79,-550 102,-831 24,-286 36,-577 36,-869 0,-5759 -4669,-10428 -10428,-10428 -5759,0 -10428,4669 -10428,10428z"/>
   </g>
  </g>
 </g>
</svg>
