<?xml version="1.0" encoding="UTF-8"?>
<!DOCTYPE svg PUBLIC "-//W3C//DTD SVG 1.0//EN" "http://www.w3.org/TR/2001/REC-SVG-20010904/DTD/svg10.dtd">
<!-- Creator: CorelDRAW 2019 (64-Bit) -->
<svg xmlns="http://www.w3.org/2000/svg" xml:space="preserve" width="0.706575in" height="0.713476in" version="1.0" style="shape-rendering:geometricPrecision; text-rendering:geometricPrecision; image-rendering:optimizeQuality; fill-rule:evenodd; clip-rule:evenodd"
viewBox="0 0 80239 81022"
 xmlns:xlink="http://www.w3.org/1999/xlink">
 <defs>
  <style type="text/css">
   <![CDATA[
    .fil135 {fill:none;fill-rule:nonzero}
    .fil127 {fill:#000003}
    .fil7 {fill:#001F3D}
    .fil13 {fill:#0064A1}
    .fil30 {fill:#3F011C}
    .fil8 {fill:#90C9EA}
    .fil129 {fill:#9EC864}
    .fil133 {fill:#CCDFF4}
    .fil32 {fill:#DB9566}
    .fil132 {fill:#DBEBF9}
    .fil3 {fill:#E4EFF9}
    .fil2 {fill:#F2F7FD}
    .fil5 {fill:#F6A300}
    .fil128 {fill:#FFD13F}
    .fil34 {fill:#FFE279}
    .fil6 {fill:#FFE97B}
    .fil12 {fill:white}
    .fil0 {fill:#16A8ED;fill-rule:nonzero}
    .fil1 {fill:#E6E6E6;fill-rule:nonzero}
    .fil92 {fill:url(#id1)}
    .fil123 {fill:url(#id2)}
    .fil43 {fill:url(#id3)}
    .fil124 {fill:url(#id4)}
    .fil53 {fill:url(#id5)}
    .fil72 {fill:url(#id6)}
    .fil115 {fill:url(#id7)}
    .fil46 {fill:url(#id8)}
    .fil80 {fill:url(#id9)}
    .fil121 {fill:url(#id10)}
    .fil47 {fill:url(#id11)}
    .fil51 {fill:url(#id12)}
    .fil101 {fill:url(#id13)}
    .fil49 {fill:url(#id14)}
    .fil114 {fill:url(#id15)}
    .fil39 {fill:url(#id16)}
    .fil109 {fill:url(#id17)}
    .fil95 {fill:url(#id18)}
    .fil41 {fill:url(#id19)}
    .fil73 {fill:url(#id20)}
    .fil36 {fill:url(#id21)}
    .fil103 {fill:url(#id22)}
    .fil65 {fill:url(#id23)}
    .fil62 {fill:url(#id24)}
    .fil96 {fill:url(#id25)}
    .fil111 {fill:url(#id26)}
    .fil37 {fill:url(#id27)}
    .fil82 {fill:url(#id28)}
    .fil48 {fill:url(#id29)}
    .fil42 {fill:url(#id30)}
    .fil60 {fill:url(#id31)}
    .fil120 {fill:url(#id32)}
    .fil52 {fill:url(#id33)}
    .fil45 {fill:url(#id34)}
    .fil64 {fill:url(#id35)}
    .fil50 {fill:url(#id36)}
    .fil58 {fill:url(#id37)}
    .fil85 {fill:url(#id38)}
    .fil74 {fill:url(#id39)}
    .fil104 {fill:url(#id40)}
    .fil76 {fill:url(#id41)}
    .fil44 {fill:url(#id42)}
    .fil102 {fill:url(#id43)}
    .fil59 {fill:url(#id44)}
    .fil68 {fill:url(#id45)}
    .fil83 {fill:url(#id46)}
    .fil84 {fill:url(#id47)}
    .fil71 {fill:url(#id48)}
    .fil61 {fill:url(#id49)}
    .fil35 {fill:url(#id50)}
    .fil66 {fill:url(#id51)}
    .fil113 {fill:url(#id52)}
    .fil90 {fill:url(#id53)}
    .fil88 {fill:url(#id54)}
    .fil38 {fill:url(#id55)}
    .fil93 {fill:url(#id56)}
    .fil91 {fill:url(#id57)}
    .fil55 {fill:url(#id58)}
    .fil86 {fill:url(#id59)}
    .fil40 {fill:url(#id60)}
    .fil63 {fill:url(#id61)}
    .fil75 {fill:url(#id62)}
    .fil112 {fill:url(#id63)}
    .fil70 {fill:url(#id64)}
    .fil54 {fill:url(#id65)}
    .fil77 {fill:url(#id66)}
    .fil79 {fill:url(#id67)}
    .fil89 {fill:url(#id68)}
    .fil69 {fill:url(#id69)}
    .fil94 {fill:url(#id70)}
    .fil56 {fill:url(#id71)}
    .fil81 {fill:url(#id72)}
    .fil87 {fill:url(#id73)}
    .fil122 {fill:url(#id74)}
    .fil57 {fill:url(#id75)}
    .fil97 {fill:url(#id76)}
    .fil78 {fill:url(#id77)}
    .fil29 {fill:url(#id78)}
    .fil99 {fill:url(#id79)}
    .fil100 {fill:url(#id80)}
    .fil108 {fill:url(#id81)}
    .fil131 {fill:url(#id82)}
    .fil98 {fill:url(#id83)}
    .fil134 {fill:url(#id84)}
    .fil106 {fill:url(#id85)}
    .fil25 {fill:url(#id86)}
    .fil119 {fill:url(#id87)}
    .fil105 {fill:url(#id88)}
    .fil107 {fill:url(#id89)}
    .fil67 {fill:url(#id90)}
    .fil116 {fill:url(#id91)}
    .fil110 {fill:url(#id92)}
    .fil4 {fill:url(#id93)}
    .fil28 {fill:url(#id94)}
    .fil118 {fill:url(#id95)}
    .fil117 {fill:url(#id96)}
    .fil125 {fill:url(#id97)}
    .fil16 {fill:url(#id98)}
    .fil130 {fill:url(#id99)}
    .fil18 {fill:url(#id100)}
    .fil27 {fill:url(#id101)}
    .fil15 {fill:url(#id102)}
    .fil22 {fill:url(#id103)}
    .fil33 {fill:url(#id104)}
    .fil31 {fill:url(#id105)}
    .fil9 {fill:url(#id106)}
    .fil10 {fill:url(#id107)}
    .fil11 {fill:url(#id108)}
    .fil14 {fill:url(#id109)}
    .fil20 {fill:url(#id110)}
    .fil24 {fill:url(#id111)}
    .fil23 {fill:url(#id112);fill-opacity:0.301961}
    .fil26 {fill:url(#id113);fill-opacity:0.501961}
    .fil126 {fill:url(#id114);fill-opacity:0.501961}
    .fil19 {fill:url(#id115);fill-opacity:0.501961}
    .fil17 {fill:url(#id116);fill-opacity:0.501961}
    .fil21 {fill:url(#id117);fill-opacity:0.501961}
   ]]>
  </style>
    <clipPath id="id0" style="clip-rule:nonzero">
     <path d="M7618 40511c0,912 38,1817 113,2709 72,873 179,1736 319,2589 2529,15429 15924,27203 32069,27203 16146,0 29541,-11774 32069,-27203 140,-853 247,-1715 319,-2589 75,-892 113,-1797 113,-2709 0,-17950 -14552,-32501 -32501,-32501 -17949,0 -32501,14551 -32501,32501z"/>
    </clipPath>
  <linearGradient id="id1" gradientUnits="userSpaceOnUse" x1="57319" y1="49642" x2="57319" y2="51815">
   <stop offset="0" style="stop-opacity:1; stop-color:#FDD148"/>
   <stop offset="1" style="stop-opacity:1; stop-color:#F9BC21"/>
  </linearGradient>
  <linearGradient id="id2" gradientUnits="userSpaceOnUse" xlink:href="#id1" x1="46224" y1="54861" x2="46224" y2="57034">
  </linearGradient>
  <linearGradient id="id3" gradientUnits="userSpaceOnUse" xlink:href="#id1" x1="57296" y1="58148" x2="57296" y2="60322">
  </linearGradient>
  <linearGradient id="id4" gradientUnits="userSpaceOnUse" xlink:href="#id1" x1="47256" y1="54861" x2="47256" y2="57034">
  </linearGradient>
  <linearGradient id="id5" gradientUnits="userSpaceOnUse" xlink:href="#id1" x1="57766" y1="56437" x2="57766" y2="58609">
  </linearGradient>
  <linearGradient id="id6" gradientUnits="userSpaceOnUse" xlink:href="#id1" x1="56329" y1="53047" x2="56329" y2="55221">
  </linearGradient>
  <linearGradient id="id7" gradientUnits="userSpaceOnUse" xlink:href="#id1" x1="43126" y1="53851" x2="43126" y2="55135">
  </linearGradient>
  <linearGradient id="id8" gradientUnits="userSpaceOnUse" xlink:href="#id1" x1="50538" y1="56437" x2="50538" y2="58609">
  </linearGradient>
  <linearGradient id="id9" gradientUnits="userSpaceOnUse" xlink:href="#id1" x1="54277" y1="51351" x2="54277" y2="53524">
  </linearGradient>
  <linearGradient id="id10" gradientUnits="userSpaceOnUse" xlink:href="#id1" x1="44158" y1="54861" x2="44158" y2="57034">
  </linearGradient>
  <linearGradient id="id11" gradientUnits="userSpaceOnUse" xlink:href="#id1" x1="51570" y1="56437" x2="51570" y2="58609">
  </linearGradient>
  <linearGradient id="id12" gradientUnits="userSpaceOnUse" xlink:href="#id1" x1="55701" y1="56437" x2="55701" y2="58609">
  </linearGradient>
  <linearGradient id="id13" gradientUnits="userSpaceOnUse" xlink:href="#id1" x1="44105" y1="58266" x2="44105" y2="60439">
  </linearGradient>
  <linearGradient id="id14" gradientUnits="userSpaceOnUse" xlink:href="#id1" x1="53636" y1="56437" x2="53636" y2="58609">
  </linearGradient>
  <linearGradient id="id15" gradientUnits="userSpaceOnUse" xlink:href="#id1" x1="47673" y1="56554" x2="47673" y2="58726">
  </linearGradient>
  <linearGradient id="id16" gradientUnits="userSpaceOnUse" xlink:href="#id1" x1="53166" y1="58148" x2="53166" y2="60322">
  </linearGradient>
  <linearGradient id="id17" gradientUnits="userSpaceOnUse" xlink:href="#id1" x1="42510" y1="56554" x2="42510" y2="58726">
  </linearGradient>
  <linearGradient id="id18" gradientUnits="userSpaceOnUse" xlink:href="#id1" x1="43073" y1="57257" x2="43073" y2="58540">
  </linearGradient>
  <linearGradient id="id19" gradientUnits="userSpaceOnUse" xlink:href="#id1" x1="55231" y1="58148" x2="55231" y2="60322">
  </linearGradient>
  <linearGradient id="id20" gradientUnits="userSpaceOnUse" xlink:href="#id1" x1="57362" y1="53047" x2="57362" y2="55221">
  </linearGradient>
  <linearGradient id="id21" gradientUnits="userSpaceOnUse" xlink:href="#id1" x1="50068" y1="58148" x2="50068" y2="60322">
  </linearGradient>
  <linearGradient id="id22" gradientUnits="userSpaceOnUse" xlink:href="#id1" x1="46171" y1="58266" x2="46171" y2="60439">
  </linearGradient>
  <linearGradient id="id23" gradientUnits="userSpaceOnUse" xlink:href="#id1" x1="54263" y1="52037" x2="54263" y2="53321">
  </linearGradient>
  <linearGradient id="id24" gradientUnits="userSpaceOnUse" xlink:href="#id1" x1="56316" y1="54743" x2="56316" y2="56916">
  </linearGradient>
  <linearGradient id="id25" gradientUnits="userSpaceOnUse" xlink:href="#id1" x1="38943" y1="58266" x2="38943" y2="60439">
  </linearGradient>
  <linearGradient id="id26" gradientUnits="userSpaceOnUse" xlink:href="#id1" x1="44575" y1="56554" x2="44575" y2="58726">
  </linearGradient>
  <linearGradient id="id27" gradientUnits="userSpaceOnUse" xlink:href="#id1" x1="51101" y1="58148" x2="51101" y2="60322">
  </linearGradient>
  <linearGradient id="id28" gradientUnits="userSpaceOnUse" xlink:href="#id1" x1="56341" y1="51351" x2="56341" y2="53524">
  </linearGradient>
  <linearGradient id="id29" gradientUnits="userSpaceOnUse" xlink:href="#id1" x1="52603" y1="56437" x2="52603" y2="58609">
  </linearGradient>
  <linearGradient id="id30" gradientUnits="userSpaceOnUse" xlink:href="#id1" x1="56264" y1="58148" x2="56264" y2="60322">
  </linearGradient>
  <linearGradient id="id31" gradientUnits="userSpaceOnUse" xlink:href="#id1" x1="54251" y1="54743" x2="54251" y2="56916">
  </linearGradient>
  <linearGradient id="id32" gradientUnits="userSpaceOnUse" xlink:href="#id1" x1="43126" y1="54861" x2="43126" y2="57034">
  </linearGradient>
  <linearGradient id="id33" gradientUnits="userSpaceOnUse" xlink:href="#id1" x1="56733" y1="56437" x2="56733" y2="58609">
  </linearGradient>
  <linearGradient id="id34" gradientUnits="userSpaceOnUse" xlink:href="#id1" x1="54668" y1="55427" x2="54668" y2="56710">
  </linearGradient>
  <linearGradient id="id35" gradientUnits="userSpaceOnUse" xlink:href="#id1" x1="58382" y1="54743" x2="58382" y2="56916">
  </linearGradient>
  <linearGradient id="id36" gradientUnits="userSpaceOnUse" xlink:href="#id1" x1="54668" y1="56437" x2="54668" y2="58609">
  </linearGradient>
  <linearGradient id="id37" gradientUnits="userSpaceOnUse" xlink:href="#id1" x1="52186" y1="54743" x2="52186" y2="56916">
  </linearGradient>
  <linearGradient id="id38" gradientUnits="userSpaceOnUse" xlink:href="#id1" x1="55254" y1="48632" x2="55254" y2="49916">
  </linearGradient>
  <linearGradient id="id39" gradientUnits="userSpaceOnUse" xlink:href="#id1" x1="58394" y1="53047" x2="58394" y2="55221">
  </linearGradient>
  <linearGradient id="id40" gradientUnits="userSpaceOnUse" xlink:href="#id1" x1="47203" y1="58266" x2="47203" y2="60439">
  </linearGradient>
  <linearGradient id="id41" gradientUnits="userSpaceOnUse" xlink:href="#id1" x1="50146" y1="51351" x2="50146" y2="53524">
  </linearGradient>
  <linearGradient id="id42" gradientUnits="userSpaceOnUse" xlink:href="#id1" x1="58328" y1="58148" x2="58328" y2="60322">
  </linearGradient>
  <linearGradient id="id43" gradientUnits="userSpaceOnUse" xlink:href="#id1" x1="45138" y1="58266" x2="45138" y2="60439">
  </linearGradient>
  <linearGradient id="id44" gradientUnits="userSpaceOnUse" xlink:href="#id1" x1="53219" y1="54743" x2="53219" y2="56916">
  </linearGradient>
  <linearGradient id="id45" gradientUnits="userSpaceOnUse" xlink:href="#id1" x1="52199" y1="53047" x2="52199" y2="55221">
  </linearGradient>
  <linearGradient id="id46" gradientUnits="userSpaceOnUse" xlink:href="#id1" x1="57374" y1="51351" x2="57374" y2="53524">
  </linearGradient>
  <linearGradient id="id47" gradientUnits="userSpaceOnUse" xlink:href="#id1" x1="58406" y1="51351" x2="58406" y2="53524">
  </linearGradient>
  <linearGradient id="id48" gradientUnits="userSpaceOnUse" xlink:href="#id1" x1="55296" y1="53047" x2="55296" y2="55221">
  </linearGradient>
  <linearGradient id="id49" gradientUnits="userSpaceOnUse" xlink:href="#id1" x1="55284" y1="54743" x2="55284" y2="56916">
  </linearGradient>
  <linearGradient id="id50" gradientUnits="userSpaceOnUse" xlink:href="#id1" x1="54198" y1="57138" x2="54198" y2="58422">
  </linearGradient>
  <linearGradient id="id51" gradientUnits="userSpaceOnUse" xlink:href="#id1" x1="50134" y1="53047" x2="50134" y2="55221">
  </linearGradient>
  <linearGradient id="id52" gradientUnits="userSpaceOnUse" xlink:href="#id1" x1="46640" y1="56554" x2="46640" y2="58726">
  </linearGradient>
  <linearGradient id="id53" gradientUnits="userSpaceOnUse" xlink:href="#id1" x1="55254" y1="49642" x2="55254" y2="51815">
  </linearGradient>
  <linearGradient id="id54" gradientUnits="userSpaceOnUse" xlink:href="#id1" x1="53189" y1="49642" x2="53189" y2="51815">
  </linearGradient>
  <linearGradient id="id55" gradientUnits="userSpaceOnUse" xlink:href="#id1" x1="52134" y1="58148" x2="52134" y2="60322">
  </linearGradient>
  <linearGradient id="id56" gradientUnits="userSpaceOnUse" xlink:href="#id1" x1="58352" y1="49642" x2="58352" y2="51815">
  </linearGradient>
  <linearGradient id="id57" gradientUnits="userSpaceOnUse" xlink:href="#id1" x1="56286" y1="49642" x2="56286" y2="51815">
  </linearGradient>
  <linearGradient id="id58" gradientUnits="userSpaceOnUse" xlink:href="#id1" x1="54251" y1="53734" x2="54251" y2="55017">
  </linearGradient>
  <linearGradient id="id59" gradientUnits="userSpaceOnUse" xlink:href="#id1" x1="51123" y1="49642" x2="51123" y2="51815">
  </linearGradient>
  <linearGradient id="id60" gradientUnits="userSpaceOnUse" xlink:href="#id1" x1="54198" y1="58148" x2="54198" y2="60322">
  </linearGradient>
  <linearGradient id="id61" gradientUnits="userSpaceOnUse" xlink:href="#id1" x1="57349" y1="54743" x2="57349" y2="56916">
  </linearGradient>
  <linearGradient id="id62" gradientUnits="userSpaceOnUse" xlink:href="#id1" x1="54276" y1="50341" x2="54276" y2="51625">
  </linearGradient>
  <linearGradient id="id63" gradientUnits="userSpaceOnUse" xlink:href="#id1" x1="45608" y1="56554" x2="45608" y2="58726">
  </linearGradient>
  <linearGradient id="id64" gradientUnits="userSpaceOnUse" xlink:href="#id1" x1="54264" y1="53047" x2="54264" y2="55221">
  </linearGradient>
  <linearGradient id="id65" gradientUnits="userSpaceOnUse" xlink:href="#id1" x1="58799" y1="56437" x2="58799" y2="58609">
  </linearGradient>
  <linearGradient id="id66" gradientUnits="userSpaceOnUse" xlink:href="#id1" x1="51179" y1="51351" x2="51179" y2="53524">
  </linearGradient>
  <linearGradient id="id67" gradientUnits="userSpaceOnUse" xlink:href="#id1" x1="53244" y1="51351" x2="53244" y2="53524">
  </linearGradient>
  <linearGradient id="id68" gradientUnits="userSpaceOnUse" xlink:href="#id1" x1="54221" y1="49642" x2="54221" y2="51815">
  </linearGradient>
  <linearGradient id="id69" gradientUnits="userSpaceOnUse" xlink:href="#id1" x1="53231" y1="53047" x2="53231" y2="55221">
  </linearGradient>
  <linearGradient id="id70" gradientUnits="userSpaceOnUse" xlink:href="#id1" x1="59385" y1="49642" x2="59385" y2="51815">
  </linearGradient>
  <linearGradient id="id71" gradientUnits="userSpaceOnUse" xlink:href="#id1" x1="50121" y1="54743" x2="50121" y2="56916">
  </linearGradient>
  <linearGradient id="id72" gradientUnits="userSpaceOnUse" xlink:href="#id1" x1="55309" y1="51351" x2="55309" y2="53524">
  </linearGradient>
  <linearGradient id="id73" gradientUnits="userSpaceOnUse" xlink:href="#id1" x1="52156" y1="49642" x2="52156" y2="51815">
  </linearGradient>
  <linearGradient id="id74" gradientUnits="userSpaceOnUse" xlink:href="#id1" x1="45191" y1="54861" x2="45191" y2="57034">
  </linearGradient>
  <linearGradient id="id75" gradientUnits="userSpaceOnUse" xlink:href="#id1" x1="51154" y1="54743" x2="51154" y2="56916">
  </linearGradient>
  <linearGradient id="id76" gradientUnits="userSpaceOnUse" xlink:href="#id1" x1="39975" y1="58266" x2="39975" y2="60439">
  </linearGradient>
  <linearGradient id="id77" gradientUnits="userSpaceOnUse" xlink:href="#id1" x1="52211" y1="51351" x2="52211" y2="53524">
  </linearGradient>
  <linearGradient id="id78" gradientUnits="userSpaceOnUse" x1="23922" y1="22902" x2="22013" y2="25439">
   <stop offset="0" style="stop-opacity:1; stop-color:#622D3F"/>
   <stop offset="1" style="stop-opacity:1; stop-color:#481F2D"/>
  </linearGradient>
  <linearGradient id="id79" gradientUnits="userSpaceOnUse" xlink:href="#id1" x1="42040" y1="58266" x2="42040" y2="60439">
  </linearGradient>
  <linearGradient id="id80" gradientUnits="userSpaceOnUse" xlink:href="#id1" x1="43073" y1="58266" x2="43073" y2="60439">
  </linearGradient>
  <linearGradient id="id81" gradientUnits="userSpaceOnUse" xlink:href="#id1" x1="41478" y1="56554" x2="41478" y2="58726">
  </linearGradient>
  <linearGradient id="id82" gradientUnits="userSpaceOnUse" x1="56600" y1="41418" x2="56368" y2="47822">
   <stop offset="0" style="stop-opacity:1; stop-color:#31ACCA"/>
   <stop offset="1" style="stop-opacity:1; stop-color:#1889A5"/>
  </linearGradient>
  <linearGradient id="id83" gradientUnits="userSpaceOnUse" xlink:href="#id1" x1="41007" y1="58266" x2="41007" y2="60439">
  </linearGradient>
  <linearGradient id="id84" gradientUnits="userSpaceOnUse" xlink:href="#id1" x1="59581" y1="39577" x2="59559" y2="41804">
  </linearGradient>
  <linearGradient id="id85" gradientUnits="userSpaceOnUse" xlink:href="#id1" x1="39413" y1="56554" x2="39413" y2="58726">
  </linearGradient>
  <linearGradient id="id86" gradientUnits="userSpaceOnUse" xlink:href="#id1" x1="22124" y1="29356" x2="22204" y2="37628">
  </linearGradient>
  <linearGradient id="id87" gradientUnits="userSpaceOnUse" xlink:href="#id1" x1="42094" y1="54861" x2="42094" y2="57034">
  </linearGradient>
  <linearGradient id="id88" gradientUnits="userSpaceOnUse" xlink:href="#id1" x1="43543" y1="55544" x2="43543" y2="56827">
  </linearGradient>
  <linearGradient id="id89" gradientUnits="userSpaceOnUse" xlink:href="#id1" x1="40445" y1="56554" x2="40445" y2="58726">
  </linearGradient>
  <linearGradient id="id90" gradientUnits="userSpaceOnUse" xlink:href="#id1" x1="51167" y1="53047" x2="51167" y2="55221">
  </linearGradient>
  <linearGradient id="id91" gradientUnits="userSpaceOnUse" xlink:href="#id1" x1="38996" y1="54861" x2="38996" y2="57034">
  </linearGradient>
  <linearGradient id="id92" gradientUnits="userSpaceOnUse" xlink:href="#id1" x1="43543" y1="56554" x2="43543" y2="58726">
  </linearGradient>
  <linearGradient id="id93" gradientUnits="userSpaceOnUse" xlink:href="#id1" x1="50183" y1="25594" x2="50166" y2="27299">
  </linearGradient>
  <linearGradient id="id94" gradientUnits="userSpaceOnUse" x1="23142" y1="27025" x2="23084" y2="27544">
   <stop offset="0" style="stop-opacity:1; stop-color:#CD8C60"/>
   <stop offset="1" style="stop-opacity:1; stop-color:#E8A375"/>
  </linearGradient>
  <linearGradient id="id95" gradientUnits="userSpaceOnUse" xlink:href="#id1" x1="41060" y1="54861" x2="41060" y2="57034">
  </linearGradient>
  <linearGradient id="id96" gradientUnits="userSpaceOnUse" xlink:href="#id1" x1="40029" y1="54861" x2="40029" y2="57034">
  </linearGradient>
  <linearGradient id="id97" gradientUnits="userSpaceOnUse" xlink:href="#id1" x1="45086" y1="26455" x2="45020" y2="32183">
  </linearGradient>
  <linearGradient id="id98" gradientUnits="userSpaceOnUse" xlink:href="#id1" x1="30540" y1="28855" x2="30624" y2="33087">
  </linearGradient>
  <linearGradient id="id99" gradientUnits="userSpaceOnUse" x1="32812" y1="23262" x2="32854" y2="27367">
   <stop offset="0" style="stop-opacity:1; stop-color:#8EBA60"/>
   <stop offset="1" style="stop-opacity:1; stop-color:#799A54"/>
  </linearGradient>
  <linearGradient id="id100" gradientUnits="userSpaceOnUse" x1="16293" y1="59352" x2="19255" y2="58680">
   <stop offset="0" style="stop-opacity:1; stop-color:#052B48"/>
   <stop offset="1" style="stop-opacity:1; stop-color:#0F4D79"/>
  </linearGradient>
  <linearGradient id="id101" gradientUnits="userSpaceOnUse" x1="23124" y1="27895" x2="23708" y2="28377">
   <stop offset="0" style="stop-opacity:1; stop-color:#E8A375"/>
   <stop offset="1" style="stop-opacity:1; stop-color:#F0B185"/>
  </linearGradient>
  <linearGradient id="id102" gradientUnits="userSpaceOnUse" xlink:href="#id94" x1="37806" y1="35273" x2="38231" y2="33408">
  </linearGradient>
  <linearGradient id="id103" gradientUnits="userSpaceOnUse" xlink:href="#id82" x1="27553" y1="41097" x2="22175" y2="55678">
  </linearGradient>
  <linearGradient id="id104" gradientUnits="userSpaceOnUse" xlink:href="#id82" x1="24550" y1="35671" x2="23645" y2="29232">
  </linearGradient>
  <linearGradient id="id105" gradientUnits="userSpaceOnUse" xlink:href="#id101" x1="23049" y1="25529" x2="23977" y2="26295">
  </linearGradient>
  <linearGradient id="id106" gradientUnits="userSpaceOnUse" x1="38975" y1="57563" x2="39412" y2="42005">
   <stop offset="0" style="stop-opacity:1; stop-color:#BCD1E6"/>
   <stop offset="1" style="stop-opacity:1; stop-color:#CDDFF2"/>
  </linearGradient>
  <linearGradient id="id107" gradientUnits="userSpaceOnUse" x1="38712" y1="43497" x2="38543" y2="52866">
   <stop offset="0" style="stop-opacity:1; stop-color:#0F5B90"/>
   <stop offset="1" style="stop-opacity:1; stop-color:#083B5E"/>
  </linearGradient>
  <linearGradient id="id108" gradientUnits="userSpaceOnUse" xlink:href="#id107" x1="38674" y1="45653" x2="38627" y2="48250">
  </linearGradient>
  <linearGradient id="id109" gradientUnits="userSpaceOnUse" xlink:href="#id101" x1="36589" y1="33595" x2="40235" y2="34249">
  </linearGradient>
  <linearGradient id="id110" gradientUnits="userSpaceOnUse" xlink:href="#id100" x1="26586" y1="59281" x2="27122" y2="57280">
  </linearGradient>
  <linearGradient id="id111" gradientUnits="userSpaceOnUse" xlink:href="#id82" x1="26113" y1="46503" x2="19403" y2="48463">
  </linearGradient>
  <linearGradient id="id112" gradientUnits="userSpaceOnUse" xlink:href="#id82" x1="27286" y1="46117" x2="22536" y2="48831">
  </linearGradient>
  <linearGradient id="id113" gradientUnits="userSpaceOnUse" xlink:href="#id1" x1="19302" y1="35130" x2="19626" y2="38936">
  </linearGradient>
  <linearGradient id="id114" gradientUnits="userSpaceOnUse" xlink:href="#id1" x1="45108" y1="26717" x2="45042" y2="32263">
  </linearGradient>
  <linearGradient id="id115" gradientUnits="userSpaceOnUse" xlink:href="#id100" x1="18046" y1="58842" x2="17463" y2="57526">
  </linearGradient>
  <linearGradient id="id116" gradientUnits="userSpaceOnUse" xlink:href="#id1" x1="29887" y1="30965" x2="32517" y2="34233">
  </linearGradient>
  <linearGradient id="id117" gradientUnits="userSpaceOnUse" xlink:href="#id100" x1="25617" y1="58085" x2="25006" y2="57050">
  </linearGradient>
 </defs>
 <g id="Layer_x0020_1">
  <metadata id="CorelCorpID_0Corel-Layer"/>
  <g id="_2218439890912">
   <path class="fil0" d="M80239 81022l0 -40904 -10 0c2,-10066 -3752,-20143 -11312,-27938 -15434,-15901 -40832,-16282 -56733,-853 -8108,7866 -12172,18323 -12173,28791l-10 0 0 40904 80239 0z"/>
   <path class="fil1" d="M7618 40511c0,912 38,1817 113,2709 72,873 179,1736 319,2589 2529,15429 15924,27203 32069,27203 16146,0 29541,-11774 32069,-27203 140,-853 247,-1715 319,-2589 75,-892 113,-1797 113,-2709 0,-17950 -14552,-32501 -32501,-32501 -17949,0 -32501,14551 -32501,32501z"/>
   <g style="clip-path:url(#id0)">
    <g>
     <g>
      <g>
       <g>
        <path id="1" class="fil2" d="M55829 30654l-137 -1101 -1412 0 -136 1101c-423,89 -820,243 -1179,451l-848 -656 -998 998 610 789c-262,376 -456,799 -562,1255l-945 120 0 1411 945 120c106,455 300,879 562,1255l-610 789 998 998 848 -656c359,208 756,362 1179,451l136 1101 1412 0 137 -1101c422,-89 820,-243 1179,-451l847 656 998 -998 -611 -789c262,-376 456,-799 562,-1255l944 -120 0 -1411 -944 -120c-107,-455 -300,-879 -562,-1255l611 -789 -998 -998 -847 656c-359,-208 -756,-362 -1179,-451zm-843 1264l0 0c1325,0 2398,1073 2398,2398 0,1325 -1073,2398 -2398,2398 -1324,0 -2398,-1073 -2398,-2398 0,-1324 1073,-2398 2398,-2398z"/>
        <g>
         <path class="fil3" d="M50164 24130c1160,0 2100,940 2100,2100 0,1160 -940,2100 -2100,2100 -1160,0 -2100,-941 -2100,-2100 0,-1160 941,-2100 2100,-2100zm-2012 204l0 0 -50 53 193 182 50 -53c64,-68 132,-133 204,-194 72,-60 146,-117 224,-169l60 -41 -148 -220 -61 41c-86,58 -169,120 -247,187 -79,67 -155,139 -226,214zm712 -545l0 0c68,-36 136,-69 206,-99 70,-30 141,-57 213,-81l69 -23 84 252 -69 23c-65,22 -130,47 -193,74 -63,27 -126,57 -186,89l-65 34 -125 -234 64 -34zm641 -245l0 0 -71 17 63 258 71 -17c50,-12 99,-23 150,-32 50,-9 101,-17 151,-22l72 -8 -30 -264 -73 8c-56,7 -112,15 -167,25 -56,10 -111,22 -166,35zm528 -76l0 0c22,-1 44,-2 66,-2l67 -1 63 1 135 4 -12 265 -128 -4 -58 0 -60 0c-20,0 -40,1 -60,2l-73 4 -12 -266 73 -3zm443 14l0 0c32,4 64,8 96,12 32,5 64,10 96,16l72 13 -48 261 -72 -13c-29,-5 -57,-10 -86,-14 -29,-4 -58,-8 -87,-11l-72 -8 29 -264 73 8zm1010 318l0 0 -64 -35 -127 233 64 35c395,215 726,534 956,921 230,387 349,825 349,1275 0,227 -29,453 -88,672 -58,211 -144,413 -258,599l-38 62 226 139 38 -62c127,-207 224,-433 287,-667 66,-242 98,-491 98,-742 0,-498 -132,-983 -387,-1411 -254,-427 -620,-781 -1057,-1018zm347 4626l0 0 58 -44 -161 -211 -58 44c-216,165 -457,295 -714,382 -256,87 -523,131 -793,131 -209,0 -418,-26 -621,-78 -202,-51 -397,-129 -580,-229l-64 -35 -128 233 64 35c203,111 418,196 642,253 224,57 455,86 686,86 299,0 595,-49 878,-145 284,-97 551,-240 790,-422zm-3735 -362l0 0 48 55 199 -177 -48 -54c-202,-227 -361,-489 -468,-772 -108,-283 -162,-583 -162,-887 0,-242 34,-483 104,-715 69,-231 171,-452 304,-654l40 -61 -222 -145 -40 61c-146,224 -260,468 -336,724 -76,257 -115,523 -115,790 0,335 60,667 180,981 119,313 295,603 518,854zm2067 -3544l0 0c-472,0 -899,191 -1208,500 -309,309 -501,736 -501,1208 0,472 191,899 501,1208 309,309 736,500 1208,500 472,0 899,-191 1208,-500 309,-309 501,-737 501,-1208 0,-472 -191,-899 -501,-1208 -309,-309 -736,-500 -1208,-500zm1003 706l0 0c-257,-257 -611,-415 -1003,-415 -392,0 -746,159 -1003,415 -257,257 -416,612 -416,1003 0,392 159,747 416,1003 257,257 611,415 1003,415 392,0 747,-159 1003,-415 257,-257 416,-612 416,-1003 0,-392 -159,-747 -416,-1003z"/>
         <g>
          <g>
           <path class="fil4" d="M50176 25087c646,0 1171,524 1171,1171 0,646 -524,1171 -1171,1171 -647,0 -1171,-524 -1171,-1171 0,-647 524,-1171 1171,-1171z"/>
           <path class="fil5" d="M50176 25305c263,0 501,107 674,279 172,173 279,411 279,674 0,263 -107,502 -279,674 -173,173 -411,279 -674,279 -263,0 -502,-107 -674,-279 -173,-172 -279,-410 -279,-674 0,-263 106,-501 279,-674 172,-172 410,-279 674,-279zm559 393l0 0c-143,-143 -341,-232 -559,-232 -219,0 -416,89 -559,232 -143,144 -232,341 -232,559 0,219 89,416 232,559 143,144 341,232 559,232 218,0 416,-89 559,-232 143,-143 232,-341 232,-559 0,-218 -89,-416 -232,-559z"/>
           <path class="fil5" d="M50542 26433c0,107 -31,194 -94,259 -58,60 -130,92 -216,96l0 68 -103 0 0 -68c-93,0 -169,-25 -225,-77 -61,-57 -92,-136 -92,-238l224 0c0,54 24,91 73,111 32,13 105,20 135,4 47,-24 71,-64 71,-120 0,-53 -21,-89 -62,-106 -37,-16 -92,-20 -134,-30 -191,-43 -287,-147 -287,-311 0,-80 29,-148 86,-206 57,-58 128,-89 211,-95l2 -61 103 0 -2 61c81,4 148,30 200,80 53,50 79,115 79,194l-219 0c-3,-29 -17,-53 -41,-72 -30,-24 -112,-17 -144,3 -36,22 -54,55 -54,99 0,31 10,55 29,69 27,20 141,40 184,52 68,19 127,50 177,92 66,56 99,120 99,194z"/>
          </g>
          <path class="fil6" d="M49054 25201c40,-42 82,-82 126,-119 44,-38 90,-72 138,-104l34 -23 82 123 -34 23c-43,29 -85,60 -125,94 -40,34 -78,70 -114,108l-28 30 -108 -101 28 -30zm397 -304l0 0 -36 19 69 131 36 -19c34,-18 68,-35 104,-50 35,-15 71,-29 107,-41l38 -13 -47 -140 -38 13c-40,13 -80,29 -119,46 -39,17 -77,35 -115,55zm357 -137l0 0c30,-7 61,-14 92,-19 31,-6 62,-10 93,-14l41 -4 17 147 -40 4c-28,4 -56,8 -84,13 -28,5 -56,11 -84,18l-40 10 -34 -144 39 -10zm294 -42l0 0c12,0 24,-1 37,-1l37 -1 35 1 75 2 -6 148 -72 -3 -32 0 -34 0c-11,0 -22,1 -34,1l-41 2 -6 -148 41 -2zm247 8l0 0c18,2 36,4 54,7 18,3 35,5 53,9l40 7 -27 145 -40 -7c-16,-3 -32,-5 -48,-8 -16,-2 -32,-4 -48,-6l-41 -4 17 -147 40 4zm563 177l0 0c244,133 448,330 590,568 142,238 215,509 215,786 0,139 -18,279 -55,413 -36,131 -89,257 -161,372l-21 35 -126 -78 21 -35c63,-104 112,-216 144,-334 33,-122 49,-248 49,-374 0,-251 -66,-495 -194,-711 -128,-215 -313,-393 -533,-513l-36 -20 71 -130 36 20zm194 2579l0 0c-133,102 -282,182 -441,236 -157,54 -322,81 -489,81 -129,0 -258,-16 -383,-48 -125,-32 -245,-79 -358,-141l-36 -20 72 -130 36 20c102,56 211,99 323,127 113,29 229,43 346,43 150,0 299,-25 442,-73 144,-49 278,-121 398,-213l33 -25 90 118 -33 25zm-2083 -202l0 0c-124,-139 -222,-301 -289,-476 -66,-175 -100,-360 -100,-547 0,-149 21,-298 64,-441 42,-143 106,-279 187,-403l22 -34 124 81 -22 34c-74,113 -131,235 -169,364 -38,129 -58,264 -58,399 0,169 30,336 90,494 60,158 149,304 261,430l27 30 -110 99 -27 -31z"/>
         </g>
        </g>
        <g>
         <g>
          <path class="fil7" d="M30712 59080l0 -780c0,-315 320,-573 702,-573l1837 0c383,0 702,261 702,573l0 780c0,312 -316,573 -702,573l-1837 0c-386,0 -702,-258 -702,-573z"/>
          <path class="fil7" d="M44620 59080l0 -780c0,-315 319,-573 702,-573l1837 0c383,0 702,261 702,573l0 780c0,312 -316,573 -702,573l-1837 0c-386,0 -702,-258 -702,-573z"/>
         </g>
         <g>
          <path class="fil8" d="M29240 34613l20093 0c691,0 1256,565 1256,1256l0 21223c0,690 -565,1255 -1256,1255l-20093 0c-690,0 -1255,-565 -1255,-1255l0 -21223c0,-691 565,-1256 1255,-1256z"/>
          <path class="fil9" d="M31333 37085l15907 0c547,0 994,447 994,994l0 16801c0,547 -448,994 -994,994l-15907 0c-547,0 -994,-447 -994,-994l0 -16801c0,-547 448,-994 994,-994z"/>
          <g>
           <path class="fil10" d="M38659 40264c3433,0 6216,2783 6216,6216 0,3433 -2783,6216 -6216,6216 -3433,0 -6216,-2783 -6216,-6216 0,-3433 2783,-6216 6216,-6216zm0 3080l0 0c-1732,0 -3136,1404 -3136,3136 0,1732 1404,3136 3136,3136 1732,0 3136,-1404 3136,-3136 0,-1732 -1404,-3136 -3136,-3136z"/>
           <path class="fil11" d="M38659 44757c952,0 1723,771 1723,1723 0,951 -771,1723 -1723,1723 -951,0 -1723,-772 -1723,-1723 0,-952 772,-1723 1723,-1723z"/>
           <g>
            <g>
             <path class="fil12" d="M38659 41301c285,0 516,231 516,516 0,285 -231,516 -516,516 -285,0 -516,-231 -516,-516 0,-285 231,-516 516,-516z"/>
             <path class="fil12" d="M38659 50626c285,0 516,231 516,516 0,285 -231,516 -516,516 -285,0 -516,-231 -516,-516 0,-285 231,-516 516,-516z"/>
            </g>
            <g>
             <path class="fil12" d="M43837 46480c0,285 -231,516 -516,516 -285,0 -516,-231 -516,-516 0,-285 231,-516 516,-516 285,0 516,231 516,516z"/>
             <path class="fil12" d="M34513 46480c0,285 -231,516 -516,516 -285,0 -516,-231 -516,-516 0,-285 231,-516 516,-516 285,0 516,231 516,516z"/>
            </g>
            <g>
             <path class="fil12" d="M42320 42818c202,201 202,528 0,730 -202,202 -528,202 -730,0 -201,-202 -201,-528 0,-730 202,-202 528,-202 730,0z"/>
             <path class="fil12" d="M35727 49412c202,202 202,528 0,730 -202,202 -528,202 -730,0 -202,-201 -202,-528 0,-730 202,-202 528,-202 730,0z"/>
            </g>
            <g>
             <path class="fil12" d="M34997 42818c202,-201 528,-201 730,0 202,202 202,528 0,730 -202,202 -528,202 -730,0 -202,-202 -202,-528 0,-730z"/>
             <path class="fil12" d="M41591 49412c201,-202 528,-202 730,0 202,202 202,528 0,730 -202,202 -528,202 -730,0 -202,-201 -202,-528 0,-730z"/>
            </g>
           </g>
          </g>
          <g>
           <path class="fil13" d="M29979 38905l581 0c235,0 427,194 427,427l0 1117c0,232 -194,427 -427,427l-581 0c-233,0 -427,-192 -427,-427l0 -1117c0,-235 192,-427 427,-427z"/>
           <path class="fil13" d="M29979 40932l581 0c235,0 427,194 427,427l0 1116c0,233 -194,427 -427,427l-581 0c-233,0 -427,-192 -427,-427l0 -1116c0,-235 192,-427 427,-427z"/>
          </g>
          <g>
           <path class="fil13" d="M29979 50396l581 0c235,0 427,194 427,427l0 1117c0,232 -194,427 -427,427l-581 0c-233,0 -427,-192 -427,-427l0 -1117c0,-235 192,-427 427,-427z"/>
           <path class="fil13" d="M29979 52423l581 0c235,0 427,194 427,427l0 1116c0,233 -194,427 -427,427l-581 0c-233,0 -427,-192 -427,-427l0 -1116c0,-235 192,-427 427,-427z"/>
          </g>
          <path class="fil13" d="M46901 38375l-517 0c-209,0 -380,195 -380,427l0 15355c0,232 173,427 380,427l517 0c207,0 380,-192 380,-427l0 -15355c0,-235 -171,-427 -380,-427z"/>
         </g>
        </g>
        <g>
         <g>
          <g>
           <path class="fil14" d="M35693 33251c516,41 985,140 1437,33 2310,-547 1476,400 3717,1149 -1292,427 -1553,-22 -2578,-72 -437,-21 -859,259 -1301,247 -302,-8 -644,-232 -1191,-260l-401 -135 318 -961z"/>
           <path class="fil15" d="M35693 33251c336,26 653,78 957,81 139,117 233,937 758,721 1421,-586 1874,587 3439,380 -1292,427 -1553,-22 -2578,-72 -437,-21 -859,259 -1301,247 -302,-8 -644,-232 -1191,-260l-401 -135 318 -961z"/>
          </g>
          <g>
           <path class="fil16" d="M25381 28056c1565,605 2690,1791 3414,2465 1386,1290 2392,2593 7477,2695 197,177 192,989 -11,1308 -7642,431 -7948,-701 -10765,-2841 -667,-507 -1193,-4044 -114,-3627z"/>
           <path class="fil17" d="M25890 29243c1208,452 1622,2765 3600,3799 1978,1034 4407,1102 6770,1480 -7642,431 -7947,-701 -10765,-2840 -668,-507 -689,-2845 395,-2440z"/>
          </g>
         </g>
         <path class="fil5" d="M20295 41021l577 -1830c-337,-476 -946,-1273 -1293,-1976l-870 1894c452,541 940,1176 1585,1912z"/>
         <g>
          <g>
           <path class="fil18" d="M16054 59810c521,456 697,646 1369,673 549,22 735,-120 1050,-373 349,-280 459,-457 457,-711 -4,-485 -248,-927 -275,-1535l-1103 50 -476 -223c-213,280 -666,796 -984,1251 -157,224 -108,629 -39,868z"/>
           <path class="fil19" d="M18766 58540c-53,-207 -100,-428 -111,-676l-1103 51 -475 -223c-84,110 -206,257 -341,422 431,459 1748,717 2029,427z"/>
          </g>
          <g>
           <path class="fil20" d="M24522 57454c-90,449 -364,792 -407,1122 -75,568 253,1139 925,1145l4397 39c-233,-1502 -2583,-669 -3373,-2335l-1023 58 -519 -29z"/>
           <path class="fil21" d="M24522 57453c-30,147 -79,282 -132,409 412,286 1206,479 2127,163 -178,-154 -333,-349 -452,-600l-1023 57 -519 -29z"/>
          </g>
          <g>
           <path class="fil22" d="M27534 38285c180,1077 238,2104 223,3444 -56,5035 -866,10737 -1405,15768 -718,275 -1507,261 -2104,15 -87,-2913 -118,-5915 -270,-8792 -191,-3625 -648,-6461 -1474,-10983l3401 -115 1629 663z"/>
           <path class="fil23" d="M25373 38285c179,1077 180,4180 165,5520 -50,4490 -737,9263 -1290,13707 -87,-2913 -118,-5915 -269,-8792 -168,-3174 -539,-5744 -1184,-9371l2578 -1064z"/>
          </g>
          <path class="fil24" d="M20803 38660c-269,815 -623,1430 -994,3096 -403,1811 -518,3518 -820,5278 -592,3451 -1333,6944 -2366,10680 596,497 1764,497 2191,346 1274,-2899 2058,-5727 3180,-8666 1538,-4027 3215,-8061 4546,-11887l-5737 1153z"/>
         </g>
         <path class="fil25" d="M20007 40632l187 -2248c-1626,-3005 -1621,-3632 317,-5593 -21,2187 148,4363 21,6501 2378,510 4929,697 7228,-87 -28,-1380 -647,-7975 -949,-9294 -240,-1048 -824,-1690 -1666,-1935 -602,-175 -1266,-249 -1939,-222 -1476,59 -3153,468 -4208,1750 -4044,4916 -2541,7081 1008,11127z"/>
         <path class="fil26" d="M20007 40632l187 -2248c-222,-438 -418,-785 -590,-1133 -583,-1190 -815,-1987 -342,-2927 -798,997 -335,1824 -157,2985 115,748 236,1523 -123,2146 303,352 643,742 1025,1177z"/>
         <g>
          <g>
           <path class="fil27" d="M22205 26730c-24,452 -49,802 -130,1246 195,685 835,1135 1470,1049 548,-74 691,-815 504,-1272 -27,-223 -37,-410 -43,-634l-1383 -403 -418 14z"/>
           <path class="fil28" d="M22205 26730c-7,132 -14,255 -22,375 592,660 1374,766 1867,649 -27,-223 -37,-410 -43,-634l-1383 -403 -418 14z"/>
          </g>
          <path class="fil29" d="M21988 26194c-355,67 -446,-53 -528,-290 -85,-245 -78,-177 -229,-364 -73,-91 -121,-180 -156,-270 -115,-301 -49,-484 -54,-715 -6,-288 -131,-397 -182,-583 -249,-901 527,-1687 1372,-1273 305,-549 790,-560 1232,-306 516,-312 1011,-277 1361,124 678,778 43,1552 -424,1761l-1485 1056 -908 861z"/>
          <path class="fil30" d="M21988 26194c-355,67 -446,-53 -528,-290 -85,-245 -78,-177 -229,-364 -73,-91 -121,-180 -156,-270 -115,-301 -49,-484 -54,-715l0 -9c221,379 689,452 734,-80 233,-183 383,-412 415,-679 41,-338 183,-524 562,-418 876,248 1593,706 2362,-23 -55,442 -418,800 -713,931l-1485 1056 -908 861z"/>
          <g>
           <path class="fil31" d="M24557 24173c65,919 211,1860 -146,2734 -130,317 -336,515 -831,409 -343,-73 -701,-230 -1019,-359 -482,-196 -412,-389 -494,-558 -32,-68 -84,-142 -157,-229 -190,-224 -508,-359 -520,-674 -11,-291 208,-446 320,-247 156,279 512,748 243,-718 293,-222 350,-310 427,-549 76,-235 157,-418 436,-270 574,307 1071,604 1742,462z"/>
           <path class="fil32" d="M24557 24173c6,90 13,180 21,270 -892,153 -1339,-239 -1908,-601 -205,350 -257,452 -548,735 7,101 113,667 41,944 -59,226 -179,194 -310,56 -88,-92 -280,-506 -444,-244 55,-178 211,-243 300,-85 156,279 512,748 243,-718 293,-222 350,-310 427,-549 76,-235 157,-418 436,-270 574,307 1071,604 1742,462z"/>
          </g>
          <g>
           <path class="fil33" d="M23414 29844l241 5679 998 1257 654 -1514 -1520 -5529c157,-464 105,-570 16,-639 -105,-80 -3,-89 -353,-47 -231,28 -466,51 -432,300 26,192 191,330 396,492z"/>
           <path class="fil34" d="M22118 27662c-199,67 -348,134 -382,262 -120,440 641,1683 1136,1800 167,-310 310,-486 605,-692 -820,-241 -1269,-643 -1359,-1369z"/>
           <path class="fil34" d="M24049 27720c148,5 280,54 305,82 210,234 220,1224 -116,1786 -286,-280 -531,-431 -786,-550 733,-439 670,-865 596,-1318z"/>
          </g>
         </g>
        </g>
        <g>
         <g>
          <path class="fil35" d="M49673 57952l9050 0c115,0 210,94 210,210l0 1318c0,115 -94,210 -210,210l-9050 0c-115,0 -210,-94 -210,-210l0 -1318c0,-115 94,-210 210,-210z"/>
          <g>
           <path class="fil36" d="M50033 58008l71 0c103,0 187,84 187,187l0 1250c0,103 -84,188 -187,188l-71 0c-103,0 -188,-84 -188,-188l0 -1250c0,-103 84,-187 188,-187z"/>
           <path class="fil37" d="M51065 58008l71 0c103,0 188,84 188,187l0 1250c0,103 -84,188 -188,188l-71 0c-103,0 -187,-84 -187,-188l0 -1250c0,-103 84,-187 187,-187z"/>
           <path class="fil38" d="M52098 58008l71 0c103,0 187,84 187,187l0 1250c0,103 -84,188 -187,188l-71 0c-103,0 -188,-84 -188,-188l0 -1250c0,-103 84,-187 188,-187z"/>
           <path class="fil39" d="M53131 58008l70 0c103,0 188,84 188,187l0 1250c0,103 -84,188 -188,188l-70 0c-103,0 -188,-84 -188,-188l0 -1250c0,-103 84,-187 188,-187z"/>
           <path class="fil40" d="M54163 58008l71 0c103,0 187,84 187,187l0 1250c0,103 -84,188 -187,188l-71 0c-103,0 -188,-84 -188,-188l0 -1250c0,-103 84,-187 188,-187z"/>
           <path class="fil41" d="M55196 58008l70 0c103,0 188,84 188,187l0 1250c0,103 -84,188 -188,188l-70 0c-103,0 -188,-84 -188,-188l0 -1250c0,-103 84,-187 188,-187z"/>
           <path class="fil42" d="M56228 58008l71 0c103,0 188,84 188,187l0 1250c0,103 -84,188 -188,188l-71 0c-103,0 -188,-84 -188,-188l0 -1250c0,-103 84,-187 188,-187z"/>
           <path class="fil43" d="M57261 58008l70 0c103,0 188,84 188,187l0 1250c0,103 -84,188 -188,188l-70 0c-103,0 -188,-84 -188,-188l0 -1250c0,-103 84,-187 188,-187z"/>
           <path class="fil44" d="M58293 58008l71 0c103,0 188,84 188,187l0 1250c0,103 -84,188 -188,188l-71 0c-103,0 -188,-84 -188,-188l0 -1250c0,-103 84,-187 188,-187z"/>
          </g>
         </g>
         <g>
          <path class="fil45" d="M50143 56239l9050 0c115,0 210,94 210,210l0 1318c0,115 -94,209 -210,209l-9050 0c-115,0 -209,-94 -209,-209l0 -1318c0,-115 94,-210 209,-210z"/>
          <g>
           <path class="fil46" d="M50503 56295l70 0c103,0 188,84 188,187l0 1250c0,103 -84,188 -188,188l-70 0c-103,0 -188,-84 -188,-188l0 -1250c0,-103 84,-187 188,-187z"/>
           <path class="fil47" d="M51535 56295l71 0c103,0 188,84 188,187l0 1250c0,103 -84,188 -188,188l-71 0c-103,0 -188,-84 -188,-188l0 -1250c0,-103 84,-187 188,-187z"/>
           <path class="fil48" d="M52568 56295l70 0c103,0 188,84 188,187l0 1250c0,103 -84,188 -188,188l-70 0c-103,0 -188,-84 -188,-188l0 -1250c0,-103 84,-187 188,-187z"/>
           <path class="fil49" d="M53600 56295l71 0c103,0 188,84 188,187l0 1250c0,103 -84,188 -188,188l-71 0c-103,0 -188,-84 -188,-188l0 -1250c0,-103 84,-187 188,-187z"/>
           <path class="fil50" d="M54633 56295l70 0c103,0 188,84 188,187l0 1250c0,103 -84,188 -188,188l-70 0c-103,0 -188,-84 -188,-188l0 -1250c0,-103 84,-187 188,-187z"/>
           <path class="fil51" d="M55665 56295l71 0c103,0 188,84 188,187l0 1250c0,103 -84,188 -188,188l-71 0c-103,0 -188,-84 -188,-188l0 -1250c0,-103 84,-187 188,-187z"/>
           <path class="fil52" d="M56698 56295l70 0c103,0 188,84 188,187l0 1250c0,103 -84,188 -188,188l-70 0c-103,0 -188,-84 -188,-188l0 -1250c0,-103 84,-187 188,-187z"/>
           <path class="fil53" d="M57730 56295l71 0c103,0 188,84 188,187l0 1250c0,103 -84,188 -188,188l-71 0c-103,0 -187,-84 -187,-188l0 -1250c0,-103 84,-187 187,-187z"/>
           <path class="fil54" d="M58763 56295l70 0c104,0 188,84 188,187l0 1250c0,103 -84,188 -188,188l-70 0c-103,0 -188,-84 -188,-188l0 -1250c0,-103 84,-187 188,-187z"/>
          </g>
         </g>
         <g>
          <path class="fil55" d="M49726 54547l9050 0c115,0 210,94 210,210l0 1317c0,115 -94,210 -210,210l-9050 0c-115,0 -210,-94 -210,-210l0 -1317c0,-115 94,-210 210,-210z"/>
          <g>
           <path class="fil56" d="M50086 54602l71 0c103,0 188,84 188,188l0 1250c0,103 -84,188 -188,188l-71 0c-103,0 -188,-84 -188,-188l0 -1250c0,-103 84,-188 188,-188z"/>
           <path class="fil57" d="M51118 54602l70 0c103,0 188,84 188,188l0 1250c0,103 -84,188 -188,188l-70 0c-103,0 -188,-84 -188,-188l0 -1250c0,-103 84,-188 188,-188z"/>
           <path class="fil58" d="M52151 54602l71 0c103,0 188,84 188,188l0 1250c0,103 -84,188 -188,188l-71 0c-103,0 -187,-84 -187,-188l0 -1250c0,-103 84,-188 187,-188z"/>
           <path class="fil59" d="M53184 54602l70 0c104,0 188,84 188,188l0 1250c0,103 -84,188 -188,188l-70 0c-103,0 -188,-84 -188,-188l0 -1250c0,-103 84,-188 188,-188z"/>
           <path class="fil60" d="M54216 54602l71 0c103,0 188,84 188,188l0 1250c0,103 -84,188 -188,188l-71 0c-103,0 -187,-84 -187,-188l0 -1250c0,-103 84,-188 187,-188z"/>
           <path class="fil61" d="M55249 54602l71 0c103,0 187,84 187,188l0 1250c0,103 -84,188 -187,188l-71 0c-103,0 -188,-84 -188,-188l0 -1250c0,-103 84,-188 188,-188z"/>
           <path class="fil62" d="M56281 54602l70 0c103,0 188,84 188,188l0 1250c0,103 -84,188 -188,188l-70 0c-103,0 -188,-84 -188,-188l0 -1250c0,-103 84,-188 188,-188z"/>
           <path class="fil63" d="M57314 54602l71 0c103,0 187,84 187,188l0 1250c0,103 -84,188 -187,188l-71 0c-103,0 -188,-84 -188,-188l0 -1250c0,-103 84,-188 188,-188z"/>
           <path class="fil64" d="M58347 54602l70 0c103,0 188,84 188,188l0 1250c0,103 -84,188 -188,188l-70 0c-103,0 -188,-84 -188,-188l0 -1250c0,-103 84,-188 188,-188z"/>
          </g>
         </g>
         <g>
          <path class="fil65" d="M49739 52850l9050 0c115,0 210,94 210,210l0 1318c0,115 -94,209 -210,209l-9050 0c-115,0 -210,-94 -210,-209l0 -1318c0,-115 94,-210 210,-210z"/>
          <g>
           <path class="fil66" d="M50098 52906l71 0c103,0 188,84 188,187l0 1250c0,103 -84,188 -188,188l-71 0c-103,0 -188,-84 -188,-188l0 -1250c0,-103 84,-187 188,-187z"/>
           <path class="fil67" d="M51131 52906l70 0c103,0 188,84 188,187l0 1250c0,103 -84,188 -188,188l-70 0c-103,0 -188,-84 -188,-188l0 -1250c0,-103 84,-187 188,-187z"/>
           <path class="fil68" d="M52163 52906l71 0c103,0 188,84 188,187l0 1250c0,103 -84,188 -188,188l-71 0c-103,0 -187,-84 -187,-188l0 -1250c0,-103 84,-187 187,-187z"/>
           <path class="fil69" d="M53196 52906l70 0c103,0 188,84 188,187l0 1250c0,103 -84,188 -188,188l-70 0c-103,0 -188,-84 -188,-188l0 -1250c0,-103 84,-187 188,-187z"/>
           <path class="fil70" d="M54228 52906l71 0c103,0 188,84 188,187l0 1250c0,103 -84,188 -188,188l-71 0c-103,0 -187,-84 -187,-188l0 -1250c0,-103 84,-187 187,-187z"/>
           <path class="fil71" d="M55261 52906l70 0c104,0 188,84 188,187l0 1250c0,103 -84,188 -188,188l-70 0c-103,0 -188,-84 -188,-188l0 -1250c0,-103 84,-187 188,-187z"/>
           <path class="fil72" d="M56294 52906l70 0c103,0 188,84 188,187l0 1250c0,103 -84,188 -188,188l-70 0c-103,0 -188,-84 -188,-188l0 -1250c0,-103 84,-187 188,-187z"/>
           <path class="fil73" d="M57326 52906l71 0c103,0 187,84 187,187l0 1250c0,103 -84,188 -187,188l-71 0c-103,0 -188,-84 -188,-188l0 -1250c0,-103 84,-187 188,-187z"/>
           <path class="fil74" d="M58359 52906l70 0c103,0 188,84 188,187l0 1250c0,103 -84,188 -188,188l-70 0c-103,0 -188,-84 -188,-188l0 -1250c0,-103 84,-187 188,-187z"/>
          </g>
         </g>
         <g>
          <path class="fil75" d="M49751 51154l9050 0c115,0 210,94 210,210l0 1318c0,115 -94,210 -210,210l-9050 0c-115,0 -210,-94 -210,-210l0 -1318c0,-115 94,-210 210,-210z"/>
          <g>
           <path class="fil76" d="M50111 51210l71 0c103,0 188,84 188,188l0 1250c0,103 -84,188 -188,188l-71 0c-103,0 -187,-84 -187,-188l0 -1250c0,-103 84,-188 187,-188z"/>
           <path class="fil77" d="M51144 51210l70 0c103,0 188,84 188,188l0 1250c0,103 -84,188 -188,188l-70 0c-103,0 -188,-84 -188,-188l0 -1250c0,-103 84,-188 188,-188z"/>
           <path class="fil78" d="M52176 51210l71 0c103,0 188,84 188,188l0 1250c0,103 -84,188 -188,188l-71 0c-103,0 -187,-84 -187,-188l0 -1250c0,-103 84,-188 187,-188z"/>
           <path class="fil79" d="M53209 51210l70 0c103,0 188,84 188,188l0 1250c0,103 -84,188 -188,188l-70 0c-103,0 -188,-84 -188,-188l0 -1250c0,-103 84,-188 188,-188z"/>
           <path class="fil80" d="M54241 51210l71 0c103,0 188,84 188,188l0 1250c0,103 -84,188 -188,188l-71 0c-103,0 -187,-84 -187,-188l0 -1250c0,-103 84,-188 187,-188z"/>
           <path class="fil81" d="M55274 51210l71 0c103,0 187,84 187,188l0 1250c0,103 -84,188 -187,188l-71 0c-103,0 -188,-84 -188,-188l0 -1250c0,-103 84,-188 188,-188z"/>
           <path class="fil82" d="M56306 51210l71 0c103,0 188,84 188,188l0 1250c0,103 -84,188 -188,188l-71 0c-103,0 -187,-84 -187,-188l0 -1250c0,-103 84,-188 187,-188z"/>
           <path class="fil83" d="M57339 51210l71 0c103,0 187,84 187,188l0 1250c0,103 -84,188 -187,188l-71 0c-103,0 -188,-84 -188,-188l0 -1250c0,-103 84,-188 188,-188z"/>
           <path class="fil84" d="M58372 51210l70 0c103,0 188,84 188,188l0 1250c0,103 -84,188 -188,188l-70 0c-103,0 -188,-84 -188,-188l0 -1250c0,-103 84,-188 188,-188z"/>
          </g>
         </g>
         <g>
          <path class="fil85" d="M50729 49445l9050 0c115,0 210,94 210,209l0 1318c0,115 -94,210 -210,210l-9050 0c-115,0 -210,-94 -210,-210l0 -1318c0,-115 94,-209 210,-209z"/>
          <g>
           <path class="fil86" d="M51089 49501l71 0c103,0 187,84 187,188l0 1250c0,103 -84,187 -187,187l-71 0c-103,0 -188,-84 -188,-187l0 -1250c0,-103 84,-188 188,-188z"/>
           <path class="fil87" d="M52121 49501l70 0c103,0 188,84 188,188l0 1250c0,103 -84,187 -188,187l-70 0c-103,0 -188,-84 -188,-187l0 -1250c0,-103 84,-188 188,-188z"/>
           <path class="fil88" d="M53154 49501l71 0c103,0 187,84 187,188l0 1250c0,103 -84,187 -187,187l-71 0c-103,0 -188,-84 -188,-187l0 -1250c0,-103 84,-188 188,-188z"/>
           <path class="fil89" d="M54186 49501l70 0c103,0 188,84 188,188l0 1250c0,103 -84,187 -188,187l-70 0c-103,0 -188,-84 -188,-187l0 -1250c0,-103 84,-188 188,-188z"/>
           <path class="fil90" d="M55219 49501l71 0c103,0 188,84 188,188l0 1250c0,103 -84,187 -188,187l-71 0c-103,0 -188,-84 -188,-187l0 -1250c0,-103 84,-188 188,-188z"/>
           <path class="fil91" d="M56251 49501l70 0c103,0 188,84 188,188l0 1250c0,103 -84,187 -188,187l-70 0c-103,0 -188,-84 -188,-187l0 -1250c0,-103 84,-188 188,-188z"/>
           <path class="fil92" d="M57284 49501l71 0c103,0 188,84 188,188l0 1250c0,103 -84,187 -188,187l-71 0c-103,0 -188,-84 -188,-187l0 -1250c0,-103 84,-188 188,-188z"/>
           <path class="fil93" d="M58317 49501l70 0c103,0 188,84 188,188l0 1250c0,103 -84,187 -188,187l-70 0c-103,0 -188,-84 -188,-187l0 -1250c0,-103 84,-188 188,-188z"/>
           <path class="fil94" d="M59349 49501l71 0c103,0 188,84 188,188l0 1250c0,103 -84,187 -188,187l-71 0c-103,0 -188,-84 -188,-187l0 -1250c0,-103 84,-188 188,-188z"/>
          </g>
         </g>
        </g>
        <g>
         <g>
          <path class="fil95" d="M38548 58069l9050 0c115,0 210,94 210,210l0 1317c0,115 -94,210 -210,210l-9050 0c-115,0 -209,-94 -209,-210l0 -1317c0,-115 94,-210 209,-210z"/>
          <g>
           <path class="fil96" d="M38908 58125l70 0c103,0 188,84 188,188l0 1250c0,103 -84,188 -188,188l-70 0c-103,0 -188,-84 -188,-188l0 -1250c0,-103 84,-188 188,-188z"/>
           <path class="fil97" d="M39940 58125l71 0c103,0 188,84 188,188l0 1250c0,103 -84,188 -188,188l-71 0c-103,0 -188,-84 -188,-188l0 -1250c0,-103 84,-188 188,-188z"/>
           <path class="fil98" d="M40973 58125l70 0c103,0 188,84 188,188l0 1250c0,103 -84,188 -188,188l-70 0c-103,0 -188,-84 -188,-188l0 -1250c0,-103 84,-188 188,-188z"/>
           <path class="fil99" d="M42005 58125l71 0c103,0 188,84 188,188l0 1250c0,103 -84,188 -188,188l-71 0c-103,0 -188,-84 -188,-188l0 -1250c0,-103 84,-188 188,-188z"/>
           <path class="fil100" d="M43038 58125l70 0c103,0 188,84 188,188l0 1250c0,103 -84,188 -188,188l-70 0c-103,0 -188,-84 -188,-188l0 -1250c0,-103 84,-188 188,-188z"/>
           <path class="fil101" d="M44070 58125l71 0c103,0 188,84 188,188l0 1250c0,103 -84,188 -188,188l-71 0c-103,0 -188,-84 -188,-188l0 -1250c0,-103 84,-188 188,-188z"/>
           <path class="fil102" d="M45103 58125l70 0c103,0 188,84 188,188l0 1250c0,103 -84,188 -188,188l-70 0c-103,0 -188,-84 -188,-188l0 -1250c0,-103 84,-188 188,-188z"/>
           <path class="fil103" d="M46135 58125l71 0c103,0 188,84 188,188l0 1250c0,103 -84,188 -188,188l-71 0c-103,0 -187,-84 -187,-188l0 -1250c0,-103 84,-188 187,-188z"/>
           <path class="fil104" d="M47168 58125l70 0c103,0 188,84 188,188l0 1250c0,103 -84,188 -188,188l-70 0c-103,0 -188,-84 -188,-188l0 -1250c0,-103 84,-188 188,-188z"/>
          </g>
         </g>
         <g>
          <path class="fil105" d="M39018 56357l9050 0c115,0 210,94 210,210l0 1317c0,115 -94,210 -210,210l-9050 0c-115,0 -210,-94 -210,-210l0 -1317c0,-115 94,-210 210,-210z"/>
          <g>
           <path class="fil106" d="M39377 56412l71 0c103,0 188,84 188,188l0 1250c0,103 -84,188 -188,188l-71 0c-103,0 -187,-84 -187,-188l0 -1250c0,-103 84,-188 187,-188z"/>
           <path class="fil107" d="M40410 56412l70 0c103,0 188,84 188,188l0 1250c0,103 -84,188 -188,188l-70 0c-103,0 -188,-84 -188,-188l0 -1250c0,-103 84,-188 188,-188z"/>
           <path class="fil108" d="M41442 56412l71 0c103,0 188,84 188,188l0 1250c0,103 -84,188 -188,188l-71 0c-103,0 -187,-84 -187,-188l0 -1250c0,-103 84,-188 187,-188z"/>
           <path class="fil109" d="M42475 56412l71 0c103,0 187,84 187,188l0 1250c0,103 -84,188 -187,188l-71 0c-103,0 -188,-84 -188,-188l0 -1250c0,-103 84,-188 188,-188z"/>
           <path class="fil110" d="M43507 56412l71 0c103,0 188,84 188,188l0 1250c0,103 -84,188 -188,188l-71 0c-103,0 -187,-84 -187,-188l0 -1250c0,-103 84,-188 187,-188z"/>
           <path class="fil111" d="M44540 56412l71 0c103,0 187,84 187,188l0 1250c0,103 -84,188 -187,188l-71 0c-103,0 -188,-84 -188,-188l0 -1250c0,-103 84,-188 188,-188z"/>
           <path class="fil112" d="M45573 56412l70 0c103,0 188,84 188,188l0 1250c0,103 -84,188 -188,188l-70 0c-103,0 -188,-84 -188,-188l0 -1250c0,-103 84,-188 188,-188z"/>
           <path class="fil113" d="M46605 56412l71 0c103,0 187,84 187,188l0 1250c0,103 -84,188 -187,188l-71 0c-103,0 -188,-84 -188,-188l0 -1250c0,-103 84,-188 188,-188z"/>
           <path class="fil114" d="M47638 56412l70 0c103,0 188,84 188,188l0 1250c0,103 -84,188 -188,188l-70 0c-103,0 -188,-84 -188,-188l0 -1250c0,-103 84,-188 188,-188z"/>
          </g>
         </g>
         <g>
          <path class="fil115" d="M38601 54664l9050 0c115,0 210,94 210,209l0 1318c0,115 -94,210 -210,210l-9050 0c-115,0 -210,-94 -210,-210l0 -1318c0,-115 94,-209 210,-209z"/>
          <g>
           <path class="fil116" d="M38960 54720l71 0c103,0 187,84 187,188l0 1250c0,103 -84,187 -187,187l-71 0c-103,0 -188,-84 -188,-187l0 -1250c0,-103 84,-188 188,-188z"/>
           <path class="fil117" d="M39993 54720l70 0c103,0 188,84 188,188l0 1250c0,103 -84,187 -188,187l-70 0c-103,0 -188,-84 -188,-187l0 -1250c0,-103 84,-188 188,-188z"/>
           <path class="fil118" d="M41026 54720l71 0c103,0 187,84 187,188l0 1250c0,103 -84,187 -187,187l-71 0c-103,0 -188,-84 -188,-187l0 -1250c0,-103 84,-188 188,-188z"/>
           <path class="fil119" d="M42058 54720l70 0c103,0 188,84 188,188l0 1250c0,103 -84,187 -188,187l-70 0c-103,0 -188,-84 -188,-187l0 -1250c0,-103 84,-188 188,-188z"/>
           <path class="fil120" d="M43091 54720l71 0c103,0 188,84 188,188l0 1250c0,103 -84,187 -188,187l-71 0c-103,0 -188,-84 -188,-187l0 -1250c0,-103 84,-188 188,-188z"/>
           <path class="fil121" d="M44123 54720l70 0c103,0 188,84 188,188l0 1250c0,103 -84,187 -188,187l-70 0c-103,0 -188,-84 -188,-187l0 -1250c0,-103 84,-188 188,-188z"/>
           <path class="fil122" d="M45156 54720l71 0c103,0 188,84 188,188l0 1250c0,103 -84,187 -188,187l-71 0c-103,0 -188,-84 -188,-187l0 -1250c0,-103 84,-188 188,-188z"/>
           <path class="fil123" d="M46188 54720l70 0c103,0 188,84 188,188l0 1250c0,103 -84,187 -188,187l-70 0c-103,0 -188,-84 -188,-187l0 -1250c0,-103 84,-188 188,-188z"/>
           <path class="fil124" d="M47221 54720l71 0c103,0 188,84 188,188l0 1250c0,103 -84,187 -188,187l-71 0c-103,0 -188,-84 -188,-187l0 -1250c0,-103 84,-188 188,-188z"/>
          </g>
         </g>
        </g>
        <g>
         <path class="fil125" d="M45184 25931c2578,0 4707,1608 5036,3691l316 0c133,0 241,109 241,241l0 520c0,133 -109,241 -241,241l-300 0c-133,976 -716,1638 -1584,2317 -1,9 -3,18 -5,27l-333 1074c-102,330 -199,648 -440,648l-1339 0c-242,0 -97,-688 -440,-648l-80 9c-214,23 -608,35 -830,35 -222,0 -616,-12 -830,-35l-80 -9c-343,-40 -198,648 -440,648l-1339 0c-242,0 -338,-317 -440,-648l-333 -1074c-3,-9 -4,-18 -6,-27 -507,-397 -918,-530 -1198,-1072l-749 -257c-241,-83 -465,-209 -465,-465l0 -1597c0,-255 223,-381 465,-465l575 -197c655,-1716 2574,-2958 4840,-2958z"/>
         <path class="fil126" d="M50778 29863l0 520c0,133 -109,242 -241,242l-301 0c-133,976 -717,1638 -1584,2317 -2,9 -3,18 -6,27l-333 1074c-102,330 -199,648 -440,648l-1339 0c-242,0 -96,-689 -440,-648 -298,35 -609,45 -909,45 -300,0 -612,-9 -910,-45 -343,-41 -198,648 -440,648l-1339 0c-242,0 -338,-318 -440,-648l-333 -1074c-3,-9 -4,-18 -5,-27 -508,-397 -918,-530 -1198,-1072l-749 -258c-242,-83 -465,-208 -465,-464l0 -947c0,209 156,751 398,819 587,165 1015,235 1478,553 536,367 934,923 1214,1255 344,408 1386,340 1651,111 161,-139 411,-316 1138,-333 638,-16 872,199 1022,342 278,266 1321,231 1758,-116 178,-141 1302,-998 1990,-2208 228,-399 138,-387 565,-387 53,0 196,-49 258,-373z"/>
         <path class="fil5" d="M47008 27668c-111,-48 -162,-176 -115,-287 47,-111 176,-162 287,-114 310,132 732,397 1114,714 327,271 629,585 818,894 63,103 31,238 -72,301 -103,63 -238,31 -301,-72 -162,-266 -431,-542 -723,-786 -352,-292 -733,-533 -1007,-650z"/>
         <path class="fil5" d="M42150 25369c1172,116 1560,1027 1700,1990 78,281 -430,689 -734,540 -549,-315 -874,-2062 -966,-2531z"/>
         <path class="fil127" d="M41249 28392c113,0 204,183 204,409 0,226 -92,409 -204,409 -113,0 -204,-183 -204,-409 0,-226 91,-409 204,-409z"/>
         <path class="fil128" d="M42133 26892l9 -1523c737,695 923,1404 966,2545 -303,-348 -644,-701 -975,-1022z"/>
        </g>
        <g>
         <path class="fil129" d="M30741 20947l1301 0 0 281 -1301 0 0 -281zm1636 0l0 0 968 0 0 281 -968 0 0 -281zm1240 0l0 0 708 0 0 281 -708 0 0 -281zm1047 0l0 0 348 0 0 281 -348 0 0 -281zm838 0l0 0 0 281 651 0c158,0 302,67 406,175 106,109 171,259 171,426l0 5583c0,166 -65,317 -171,425 -105,108 -249,175 -406,175l-6417 0c-158,0 -302,-67 -406,-175 -106,-109 -171,-259 -171,-425l0 -5583c0,-166 65,-317 171,-426 105,-108 249,-175 406,-175l660 0 0 -281 -660 0c-237,0 -452,100 -608,261 -155,160 -251,380 -251,621l0 5583c0,241 96,461 251,621 156,161 371,261 608,261l6417 0c237,0 452,-100 608,-261 155,-160 251,-380 251,-621l0 -5583c0,-241 -96,-461 -251,-621 -156,-161 -371,-261 -608,-261l-651 0z"/>
         <g>
          <path class="fil130" d="M30065 21562l5523 0c393,0 714,338 714,752l-1 4794c-17,398 -331,718 -714,718l-5523 0c-393,0 -714,-338 -714,-752l0 -4761c0,-414 321,-752 714,-752z"/>
          <g>
           <path class="fil12" d="M31464 26396l2725 0c112,0 204,92 204,204l0 159c0,112 -92,204 -204,204l-2725 0c-112,0 -204,-92 -204,-204l0 -159c0,-112 92,-204 204,-204z"/>
           <path class="fil12" d="M32543 26080l0 -1533c0,-84 92,-152 204,-152l159 0c113,0 204,68 204,152l0 1533c0,84 -92,152 -204,152l-159 0c-112,0 -204,-68 -204,-152z"/>
           <g>
            <path class="fil12" d="M31408 26080l0 -1533c0,-84 92,-152 204,-152l159 0c112,0 204,68 204,152l0 1533c0,84 -92,152 -204,152l-159 0c-112,0 -204,-68 -204,-152z"/>
            <path class="fil12" d="M33678 26080l0 -1533c0,-84 92,-152 204,-152l159 0c112,0 204,68 204,152l0 1533c0,84 -92,152 -204,152l-159 0c-112,0 -204,-68 -204,-152z"/>
           </g>
           <path class="fil12" d="M31465 23705l1223 -1224c38,-38 88,-56 138,-55 50,-1 101,17 139,55l1223 1224 1 0c112,0 204,92 204,204l0 159c0,112 -92,204 -204,204l-2725 0c-112,0 -204,-92 -204,-204l0 -159c0,-112 92,-204 204,-204l1 0zm1362 -614l0 0 -614 614 1228 0 -614 -614z"/>
          </g>
         </g>
        </g>
        <g>
         <path class="fil131" d="M53068 39948l6887 0c490,0 891,422 891,938l0 5225 -98 1139c-148,303 -448,511 -793,511l-6887 0c-490,0 -891,-422 -891,-938l0 -5937c0,-515 401,-938 891,-938z"/>
         <g>
          <path class="fil3" d="M54460 40706l2819 0 1791 1791 0 3997c0,279 -228,507 -508,507l-4103 0c-279,0 -507,-228 -507,-507l0 -5281c0,-279 228,-508 507,-508z"/>
          <path class="fil132" d="M59071 42976l-1639 0c-322,0 -585,-263 -585,-585l0 -1684 434 -1 1786 1825 4 446z"/>
          <path class="fil3" d="M59071 42676l-1422 0c-279,0 -507,-228 -507,-508l0 -1461 0 -1 138 0 1791 1791 0 179z"/>
          <g>
           <path class="fil133" d="M54655 42285l1990 0c83,0 150,68 150,150l0 254c0,83 -68,151 -150,151l-1990 0c-83,0 -150,-68 -150,-151l0 -254c0,-83 68,-150 150,-150z"/>
           <path class="fil133" d="M54610 43269l3803 0c58,0 105,47 105,105l0 178c0,58 -47,105 -105,105l-3803 0c-58,0 -105,-47 -105,-105l0 -178c0,-58 47,-105 105,-105z"/>
           <path class="fil133" d="M54610 44130l3803 0c58,0 105,47 105,105l0 177c0,58 -47,105 -105,105l-3803 0c-58,0 -105,-47 -105,-105l0 -177c0,-58 47,-105 105,-105z"/>
           <path class="fil133" d="M54610 44991l3803 0c58,0 105,47 105,105l0 178c0,58 -47,105 -105,105l-3803 0c-58,0 -105,-47 -105,-105l0 -178c0,-58 47,-105 105,-105z"/>
           <path class="fil133" d="M54610 45852l3803 0c58,0 105,47 105,105l0 178c0,58 -47,105 -105,105l-3803 0c-58,0 -105,-47 -105,-105l0 -178c0,-58 47,-105 105,-105z"/>
          </g>
         </g>
        </g>
        <g>
         <g>
          <path class="fil134" d="M59572 38914c845,0 1530,685 1530,1530 0,845 -685,1530 -1530,1530 -845,0 -1530,-685 -1530,-1530 0,-845 685,-1530 1530,-1530z"/>
          <path class="fil5" d="M59572 39199c344,0 655,139 880,365 225,225 365,537 365,880 0,344 -139,655 -365,880 -225,225 -537,364 -880,364 -344,0 -655,-139 -880,-364 -225,-225 -364,-537 -364,-880 0,-344 139,-655 364,-880 225,-225 537,-365 880,-365zm731 514l0 0c-187,-187 -445,-303 -731,-303 -285,0 -544,116 -731,303 -187,187 -303,445 -303,731 0,285 115,544 303,731 187,187 445,303 731,303 286,0 544,-115 731,-303 187,-187 303,-445 303,-731 0,-286 -116,-544 -303,-731z"/>
          <path class="fil5" d="M60050 40673c0,140 -41,253 -123,339 -75,78 -169,120 -283,126l0 88 -134 0 0 -88c-123,0 -221,-34 -295,-101 -80,-74 -119,-177 -119,-311l292 0c0,71 32,119 96,146 41,17 136,25 176,5 62,-32 93,-84 93,-157 0,-70 -27,-116 -81,-139 -48,-21 -120,-26 -174,-38 -250,-57 -376,-192 -376,-406 0,-104 38,-194 113,-270 75,-76 167,-117 275,-125l2 -79 134 0 -2 79c106,5 193,40 262,106 68,65 103,150 103,253l-286 0c-4,-38 -22,-70 -54,-94 -39,-31 -146,-22 -188,4 -47,29 -70,72 -70,130 0,41 13,71 38,90 35,26 185,53 241,68 89,25 166,65 231,120 86,73 130,157 130,253z"/>
         </g>
         <path class="fil6" d="M58107 39063c52,-55 106,-107 164,-156 58,-49 118,-94 181,-136l44 -30 108 161 -44 30c-56,38 -111,79 -163,123 -52,44 -102,91 -149,141l-36 38 -141 -132 37 -39zm519 -397l0 0 -47 25 91 170 47 -25c44,-23 89,-45 135,-65 46,-20 93,-38 140,-54l51 -17 -61 -183 -51 17c-53,18 -105,38 -156,59 -51,22 -101,46 -150,72zm467 -178l0 0c40,-10 80,-18 121,-25 41,-7 81,-13 122,-18l53 -6 22 192 -53 6c-37,4 -74,10 -110,16 -36,7 -73,15 -109,23l-52 13 -46 -188 51 -13zm384 -55l0 0c16,-1 32,-1 48,-2l48 0 46 0 98 3 -8 194 -94 -4 -42 0 -44 0c-15,0 -29,1 -44,2l-53 2 -8 -193 53 -2zm323 10l0 0c23,3 46,6 70,9 23,4 46,8 70,12l52 10 -35 190 -52 -9c-21,-4 -42,-7 -63,-10 -21,-3 -42,-6 -63,-8l-53 -6 21 -192 53 6zm735 232l0 0c318,173 585,431 770,742 185,312 281,665 281,1027 0,182 -23,364 -71,540 -47,171 -117,335 -210,486l-28 45 -165 -101 28 -46c83,-135 146,-283 188,-436 43,-159 64,-324 64,-489 0,-328 -87,-647 -254,-929 -167,-282 -408,-514 -696,-671l-47 -25 93 -170 47 25zm253 3370l0 0c-174,133 -368,237 -576,308 -206,70 -422,106 -639,106 -169,0 -337,-21 -500,-63 -163,-42 -320,-104 -468,-185l-47 -26 93 -169 46 25c133,73 275,129 422,167 148,38 300,57 452,57 197,0 391,-32 577,-95 188,-64 363,-159 521,-279l42 -32 118 153 -42 32zm-2721 -263l0 0c-162,-182 -291,-393 -377,-622 -87,-229 -131,-471 -131,-715 0,-195 28,-389 84,-576 56,-187 138,-364 245,-527l29 -45 162 106 -30 45c-96,147 -171,308 -221,476 -51,169 -76,344 -76,521 0,221 39,439 118,646 78,206 194,397 341,562l35 40 -145 128 -35 -40z"/>
        </g>
        <path class="fil3" d="M19365 27259l62 123c31,62 6,137 -56,168l-186 93c-62,31 -137,6 -168,-56l-62 -123 -17 9c-147,73 -327,13 -401,-134l-248 -495c-22,-45 -33,-93 -31,-140l-62 31 -58 -53c-87,-78 -190,-161 -298,-249 -355,-287 -767,-621 -942,-1034 -111,-262 -106,-520 -15,-748 97,-244 290,-452 539,-594l46 -25c235,-123 515,-189 777,-153 271,37 524,180 693,474l20 37c249,474 262,1143 270,1622l4 206 -56 28c38,27 71,64 93,109l248 495c73,147 13,327 -134,401l-17 9zm-2822 -2505l0 0 0 0c4,55 -66,90 -121,78l-570 -124c-55,-12 -74,-65 -78,-121l0 0c-4,-56 66,-90 120,-79l570 124c55,12 74,65 78,121zm2186 -1039l0 0 0 0c42,37 112,1 135,-49l242 -531c24,-51 -7,-98 -49,-135l0 0c-42,-37 -112,-1 -135,50l-242 530c-23,51 7,98 50,135zm639 1394l0 0c25,50 63,91 118,81l574 -104c55,-10 106,-68 81,-118l0 0c-25,-50 -63,-91 -118,-81l-574 103c-55,10 -106,69 -81,119l0 0zm-2135 1067l0 0 0 0c-25,-50 -102,-44 -144,-6l-427 397c-41,38 -31,93 -6,144l0 0c25,50 103,44 144,6l427 -397c41,-38 31,-93 6,-144zm-262 -3294l0 0c50,-25 111,-4 136,46l370 739c25,50 4,111 -46,136 -50,25 -111,4 -136,-46l-370 -739c-25,-51 -4,-112 46,-137zm1519 3449l0 0 -441 -881c-19,-38 -4,-84 34,-102l114 -57c38,-19 84,-3 102,34l440 881 259 -130 -1 -61c-8,-456 -21,-1095 -243,-1520l-16 -29c-128,-224 -319,-333 -524,-360 -213,-29 -444,26 -638,129l-39 21c-205,117 -362,285 -439,478 -69,173 -73,371 13,574 153,360 541,674 876,946 88,71 172,139 248,205l255 -128z"/>
       </g>
      </g>
     </g>
    </g>
   </g>
   <path class="fil135" d="M7618 40511c0,912 38,1817 113,2709 72,873 179,1736 319,2589 2529,15429 15924,27203 32069,27203 16146,0 29541,-11774 32069,-27203 140,-853 247,-1715 319,-2589 75,-892 113,-1797 113,-2709 0,-17950 -14552,-32501 -32501,-32501 -17949,0 -32501,14551 -32501,32501z"/>
  </g>
 </g>
</svg>
