<?xml version="1.0" encoding="UTF-8"?>
<!DOCTYPE svg PUBLIC "-//W3C//DTD SVG 1.0//EN" "http://www.w3.org/TR/2001/REC-SVG-20010904/DTD/svg10.dtd">
<!-- Creator: CorelDRAW 2019 (64-Bit) -->
<svg xmlns="http://www.w3.org/2000/svg" xml:space="preserve" width="0.705394in" height="0.71228in" version="1.0" style="shape-rendering:geometricPrecision; text-rendering:geometricPrecision; image-rendering:optimizeQuality; fill-rule:evenodd; clip-rule:evenodd"
viewBox="0 0 15732 15886"
 xmlns:xlink="http://www.w3.org/1999/xlink">
 <defs>
  <style type="text/css">
   <![CDATA[
    .fil32 {fill:none;fill-rule:nonzero}
    .fil30 {fill:#012FA0}
    .fil21 {fill:#082877}
    .fil27 {fill:#1677FF}
    .fil24 {fill:#1A42A1}
    .fil23 {fill:#1A46B5}
    .fil4 {fill:#2AB1E6}
    .fil22 {fill:#3466E2}
    .fil5 {fill:#59BFED}
    .fil26 {fill:#6D6E9A}
    .fil3 {fill:#75CAED}
    .fil9 {fill:#7BA8E2}
    .fil2 {fill:#8CD6F6}
    .fil7 {fill:#CCEBFB}
    .fil18 {fill:#DF641D}
    .fil17 {fill:#EB820E}
    .fil19 {fill:#F6AAAC}
    .fil16 {fill:#FBA700}
    .fil14 {fill:#FDA500}
    .fil15 {fill:#FFD115}
    .fil8 {fill:white}
    .fil20 {fill:#000346;fill-rule:nonzero}
    .fil29 {fill:#2199F4;fill-rule:nonzero}
    .fil0 {fill:#2FAE36;fill-rule:nonzero}
    .fil13 {fill:#C88262;fill-rule:nonzero}
    .fil28 {fill:#CFD1D3;fill-rule:nonzero}
    .fil1 {fill:#E6E6E6;fill-rule:nonzero}
    .fil25 {fill:#F6AAAC;fill-rule:nonzero}
    .fil10 {fill:url(#id1);fill-rule:nonzero}
    .fil6 {fill:url(#id2);fill-rule:nonzero}
    .fil12 {fill:url(#id3);fill-rule:nonzero}
    .fil11 {fill:url(#id4);fill-rule:nonzero}
    .fil31 {fill:url(#id5);fill-rule:nonzero}
   ]]>
  </style>
    <clipPath id="id0" style="clip-rule:nonzero">
     <path d="M14239 7943c0,179 -7,356 -22,531 -14,171 -35,340 -63,508 -496,3025 -3122,5334 -6288,5334 -3166,0 -5792,-2309 -6288,-5334 -27,-167 -48,-336 -63,-508 -15,-175 -22,-352 -22,-531 0,-3519 2853,-6372 6372,-6372 3519,0 6372,2853 6372,6372z"/>
    </clipPath>
  <linearGradient id="id1" gradientUnits="userSpaceOnUse" x1="7095" y1="8835" x2="7094" y2="6834">
   <stop offset="0" style="stop-opacity:1; stop-color:#59BFED"/>
   <stop offset="1" style="stop-opacity:1; stop-color:#B3E2F9"/>
  </linearGradient>
  <linearGradient id="id2" gradientUnits="userSpaceOnUse" xlink:href="#id1" x1="5210" y1="8835" x2="5210" y2="6834">
  </linearGradient>
  <linearGradient id="id3" gradientUnits="userSpaceOnUse" xlink:href="#id1" x1="10864" y1="8835" x2="10864" y2="6834">
  </linearGradient>
  <linearGradient id="id4" gradientUnits="userSpaceOnUse" xlink:href="#id1" x1="8979" y1="8835" x2="8979" y2="6834">
  </linearGradient>
  <linearGradient id="id5" gradientUnits="userSpaceOnUse" x1="6950" y1="11814" x2="6762" y2="10715">
   <stop offset="0" style="stop-opacity:1; stop-color:#012FA0"/>
   <stop offset="0.509804" style="stop-opacity:1; stop-color:#1268CD"/>
   <stop offset="1" style="stop-opacity:1; stop-color:#23A1FB"/>
  </linearGradient>
 </defs>
 <g id="Layer_x0020_1">
  <metadata id="CorelCorpID_0Corel-Layer"/>
  <path class="fil0" d="M15732 15886l0 -8020 -2 0c0,-1974 -736,-3950 -2218,-5478 -3026,-3118 -8006,-3193 -11124,-167 -1590,1542 -2386,3593 -2387,5645l-2 0 0 8020 15732 0z"/>
  <g id="_2216663538976">
   <path class="fil1" d="M14239 7943c0,179 -7,356 -22,531 -14,171 -35,340 -63,508 -496,3025 -3122,5334 -6288,5334 -3166,0 -5792,-2309 -6288,-5334 -27,-167 -48,-336 -63,-508 -15,-175 -22,-352 -22,-531 0,-3519 2853,-6372 6372,-6372 3519,0 6372,2853 6372,6372z"/>
   <g style="clip-path:url(#id0)">
    <g>
     <g>
      <g>
       <polygon id="1" class="fil2" points="3826,9972 11907,9972 11907,10290 3826,10290 "/>
       <polygon class="fil3" points="3383,10280 12349,10280 12349,10599 3383,10599 "/>
       <polygon class="fil3" points="2941,10589 12791,10589 12791,10908 2941,10908 "/>
       <polygon class="fil4" points="4497,6306 4860,6306 4860,6456 4497,6456 "/>
       <polygon class="fil2" points="4850,6306 5676,6306 5676,6456 4850,6456 "/>
       <polygon class="fil4" points="4360,6110 4860,6110 4860,6316 4360,6316 "/>
       <polygon class="fil2" points="4850,6110 5821,6110 5821,6316 4850,6316 "/>
       <polygon class="fil5" points="4594,6446 4860,6446 4860,9657 4594,9657 "/>
       <polygon class="fil6" points="4850,9657 5570,9657 5570,6446 4850,6446 "/>
       <polygon class="fil4" points="4497,9796 4860,9796 4860,9647 4497,9647 "/>
       <polygon class="fil2" points="4850,9796 5676,9796 5676,9647 4850,9647 "/>
       <polygon class="fil4" points="4360,9992 4860,9992 4860,9786 4360,9786 "/>
       <polygon class="fil2" points="4850,9992 5821,9992 5821,9786 4850,9786 "/>
       <polygon class="fil2" points="3441,6120 12291,6120 12291,5674 3441,5674 "/>
       <polygon class="fil2" points="3707,5689 12025,5689 12025,5502 7866,3307 3707,5502 "/>
       <polygon class="fil7" points="4123,5527 11610,5527 7866,3551 "/>
       <path class="fil8" d="M7866 3913c411,0 745,333 745,745 0,411 -333,745 -745,745 -411,0 -745,-333 -745,-745 0,-411 333,-745 745,-745z"/>
       <path class="fil9" d="M7594 4464c-3,17 -3,36 -2,54l-1 2c3,4 8,36 11,44 5,14 14,27 17,38 3,2 17,22 21,26 8,10 14,13 24,23 10,6 19,14 30,21 32,20 67,37 104,50 47,17 111,39 135,71 34,44 10,107 -60,118 -40,6 -101,3 -142,-7 -13,-3 -26,-8 -39,-11 -12,-5 -56,-21 -61,-26l-11 -3c-1,5 -1,9 -4,14 1,7 -4,24 -6,30 -1,5 -15,65 -19,72 0,6 -2,21 -2,30 3,2 1,0 4,2l6 5c6,0 26,8 30,12l70 20 32 7 49 6c5,-1 5,-1 10,0 0,0 3,1 4,1 3,1 2,1 3,2l2 5c1,9 -2,92 1,110l122 0c3,-37 1,-80 1,-117 0,-13 3,-10 15,-13 34,-8 49,-18 69,-23 4,-3 27,-14 34,-19 6,-4 11,-7 16,-11 6,-5 9,-9 14,-11 3,-5 26,-27 45,-59 26,-45 19,-63 26,-79l0 -51c-3,-8 -2,-21 -4,-30 -11,-55 -55,-103 -101,-132 -81,-50 -243,-80 -252,-150 -5,-40 30,-63 62,-70 38,-9 86,-6 122,2 26,6 99,32 101,32 6,-7 4,-16 9,-21 0,-8 4,-20 6,-28 3,-17 20,-76 18,-90 -14,-9 -21,-8 -28,-14l-1 1c-8,-2 -35,-8 -40,-12 -8,2 -38,-7 -50,-9 -11,-2 -46,-3 -51,-7 -13,-8 -4,-79 -7,-109l-122 0c-2,22 4,105 -4,117 -10,11 -170,21 -206,188z"/>
       <polygon class="fil4" points="6382,6306 6744,6306 6744,6456 6382,6456 "/>
       <polygon class="fil4" points="8266,6306 8629,6306 8629,6456 8266,6456 "/>
       <polygon class="fil4" points="10151,6306 10513,6306 10513,6456 10151,6456 "/>
       <polygon class="fil2" points="6734,6306 7560,6306 7560,6456 6734,6456 "/>
       <polygon class="fil2" points="8619,6306 9445,6306 9445,6456 8619,6456 "/>
       <polygon class="fil2" points="10503,6306 11329,6306 11329,6456 10503,6456 "/>
       <polygon class="fil4" points="6245,6110 6744,6110 6744,6316 6245,6316 "/>
       <polygon class="fil4" points="8129,6110 8629,6110 8629,6316 8129,6316 "/>
       <polygon class="fil4" points="10014,6110 10513,6110 10513,6316 10014,6316 "/>
       <polygon class="fil2" points="6734,6110 7705,6110 7705,6316 6734,6316 "/>
       <polygon class="fil2" points="8619,6110 9590,6110 9590,6316 8619,6316 "/>
       <polygon class="fil2" points="10503,6110 11474,6110 11474,6316 10503,6316 "/>
       <polygon class="fil5" points="6479,6446 6744,6446 6744,9657 6479,9657 "/>
       <polygon class="fil5" points="8363,6446 8629,6446 8629,9657 8363,9657 "/>
       <polygon class="fil5" points="10248,6446 10513,6446 10513,9657 10248,9657 "/>
       <polygon class="fil10" points="6734,9657 7455,9657 7455,6446 6734,6446 "/>
       <polygon class="fil11" points="8619,9657 9339,9657 9339,6446 8619,6446 "/>
       <polygon class="fil12" points="10503,9657 11224,9657 11224,6446 10503,6446 "/>
       <polygon class="fil4" points="6382,9796 6744,9796 6744,9647 6382,9647 "/>
       <polygon class="fil4" points="8266,9796 8629,9796 8629,9647 8266,9647 "/>
       <polygon class="fil4" points="10151,9796 10513,9796 10513,9647 10151,9647 "/>
       <polygon class="fil2" points="6734,9796 7560,9796 7560,9647 6734,9647 "/>
       <polygon class="fil2" points="8619,9796 9445,9796 9445,9647 8619,9647 "/>
       <polygon class="fil2" points="10505,9796 11331,9796 11331,9647 10505,9647 "/>
       <polygon class="fil4" points="6245,9992 6744,9992 6744,9786 6245,9786 "/>
       <polygon class="fil4" points="8129,9992 8629,9992 8629,9786 8129,9786 "/>
       <polygon class="fil4" points="10014,9992 10513,9992 10513,9786 10014,9786 "/>
       <polygon class="fil2" points="6734,9992 7705,9992 7705,9786 6734,9786 "/>
       <polygon class="fil2" points="8619,9992 9590,9992 9590,9786 8619,9786 "/>
       <polygon class="fil2" points="10505,9992 11476,9992 11476,9786 10505,9786 "/>
       <path class="fil13" d="M11188 10472c0,0 -21,33 -28,43 -8,9 18,15 30,6 11,-10 -1,-49 -1,-49z"/>
      </g>
      <g>
       <polygon class="fil14" points="9186,11768 11176,11768 11176,12023 9186,12023 "/>
       <polygon class="fil14" points="9438,12023 9186,12023 9186,11768 9438,11768 "/>
       <polygon class="fil15" points="9438,11768 9693,11768 9693,12023 9438,12023 "/>
       <polygon class="fil16" points="9693,11768 10611,11768 10611,12023 9693,12023 "/>
       <polygon class="fil17" points="10611,11768 10997,11768 10997,12023 10611,12023 "/>
       <polygon class="fil18" points="9283,12023 11082,12023 11082,12048 9283,12048 "/>
       <polygon class="fil14" points="9187,12048 11253,12048 11253,12303 9187,12303 "/>
       <polygon class="fil14" points="9448,12303 9187,12303 9187,12048 9448,12048 "/>
       <polygon class="fil15" points="9448,12048 9713,12048 9713,12303 9448,12303 "/>
       <polygon class="fil16" points="9713,12048 10666,12048 10666,12303 9713,12303 "/>
       <polygon class="fil17" points="10666,12048 11067,12048 11067,12303 10666,12303 "/>
       <polygon class="fil18" points="9287,12303 11155,12303 11155,12327 9287,12327 "/>
       <polygon class="fil14" points="9185,11489 11175,11489 11175,11744 9185,11744 "/>
       <polygon class="fil14" points="9438,11744 9185,11744 9185,11489 9438,11489 "/>
       <polygon class="fil15" points="9438,11489 9693,11489 9693,11744 9438,11744 "/>
       <polygon class="fil16" points="9693,11489 10610,11489 10610,11744 9693,11744 "/>
       <polygon class="fil17" points="10610,11489 10996,11489 10996,11744 10610,11744 "/>
       <polygon class="fil18" points="9283,11744 11081,11744 11081,11768 9283,11768 "/>
       <polygon class="fil14" points="9508,10930 11498,10930 11498,11185 9508,11185 "/>
       <polygon class="fil14" points="9760,11185 9508,11185 9508,10930 9760,10930 "/>
       <polygon class="fil15" points="9762,10930 10017,10930 10017,11185 9762,11185 "/>
       <polygon class="fil16" points="10016,10930 10933,10930 10933,11185 10016,11185 "/>
       <polygon class="fil17" points="10929,10930 11315,10930 11315,11185 10929,11185 "/>
       <polygon class="fil18" points="9604,11185 11403,11185 11403,11209 9604,11209 "/>
       <polygon class="fil14" points="9190,11209 11256,11209 11256,11464 9190,11464 "/>
       <polygon class="fil14" points="9445,11464 9183,11464 9183,11209 9445,11209 "/>
       <polygon class="fil15" points="9452,11209 9716,11209 9716,11464 9452,11464 "/>
       <polygon class="fil16" points="9710,11209 10662,11209 10662,11464 9710,11464 "/>
       <polygon class="fil17" points="10665,11209 11065,11209 11065,11464 10665,11464 "/>
       <polygon class="fil18" points="9287,11464 11155,11464 11155,11489 9287,11489 "/>
       <polygon class="fil14" points="10550,11764 12567,11764 12567,12023 10550,12023 "/>
       <polygon class="fil14" points="10806,12023 10550,12023 10550,11764 10806,11764 "/>
       <polygon class="fil15" points="10806,11764 11064,11764 11064,12023 10806,12023 "/>
       <polygon class="fil16" points="11064,11764 11994,11764 11994,12023 11064,12023 "/>
       <polygon class="fil17" points="11994,11764 12385,11764 12385,12023 11994,12023 "/>
       <polygon class="fil18" points="10649,12023 12471,12023 12471,12048 10649,12048 "/>
       <polygon class="fil14" points="10546,12048 12568,12048 12568,12303 10546,12303 "/>
       <polygon class="fil14" points="10802,12303 10546,12303 10546,12048 10802,12048 "/>
       <polygon class="fil15" points="10802,12048 11061,12048 11061,12303 10802,12303 "/>
       <polygon class="fil16" points="11061,12048 11994,12048 11994,12303 11061,12303 "/>
       <polygon class="fil17" points="11994,12048 12386,12048 12386,12303 11994,12303 "/>
       <polygon class="fil18" points="10644,12303 12473,12303 12473,12327 10644,12327 "/>
       <polygon class="fil14" points="10550,11481 12567,11481 12567,11740 10550,11740 "/>
       <polygon class="fil14" points="10806,11740 10550,11740 10550,11481 10806,11481 "/>
       <polygon class="fil15" points="10806,11481 11064,11481 11064,11740 10806,11740 "/>
       <polygon class="fil16" points="11064,11481 11994,11481 11994,11740 11064,11740 "/>
       <polygon class="fil17" points="11994,11481 12385,11481 12385,11740 11994,11740 "/>
       <polygon class="fil18" points="10649,11740 12471,11740 12471,11764 10649,11764 "/>
       <polygon class="fil14" points="9508,10650 11498,10650 11498,10905 9508,10905 "/>
       <polygon class="fil14" points="9760,10905 9508,10905 9508,10650 9760,10650 "/>
       <polygon class="fil15" points="9762,10650 10017,10650 10017,10905 9762,10905 "/>
       <polygon class="fil16" points="10016,10650 10933,10650 10933,10905 10016,10905 "/>
       <polygon class="fil17" points="10929,10650 11315,10650 11315,10905 10929,10905 "/>
       <polygon class="fil18" points="9604,10905 11403,10905 11403,10930 9604,10930 "/>
       <path class="fil19" d="M8843 10364l-56 52 -84 46c-11,3 -74,33 -47,40 20,4 66,0 66,2 4,26 -75,132 -75,134 4,33 58,-31 67,-42 3,-3 -28,53 -24,53 4,0 15,1 26,-11 13,-15 31,-43 35,-43 5,0 -25,53 -20,53 3,0 10,-1 18,-11 13,-15 28,-43 33,-44 5,-2 -18,35 -14,34 4,-1 8,3 11,0 69,-72 68,-141 149,-221 45,-44 -63,-47 -86,-41z"/>
       <path class="fil20" d="M9267 12244c1,10 -15,23 -22,28 -13,9 -23,14 -38,17 -27,5 -57,7 -82,16 -31,10 -72,17 -84,48 -17,44 367,23 414,23 0,0 27,-97 -20,-144l-166 13z"/>
       <path class="fil20" d="M9735 12251c1,10 -15,22 -22,27 -12,9 -23,14 -37,17 -26,5 -55,7 -80,15 -30,10 -63,31 -75,62 0,1 15,15 37,16 91,3 331,-8 360,-8 0,0 26,-95 -20,-141l-162 12z"/>
       <path class="fil20" d="M9592 10452l-149 1806c0,0 -66,23 -176,-13 -71,-852 -118,-1078 -61,-1831l385 38z"/>
       <path class="fil20" d="M9866 10411c85,117 7,1220 40,1834 0,0 -78,52 -172,10 -101,-637 -208,-985 -302,-1910 125,19 309,47 434,66z"/>
       <path class="fil21" d="M9943 10672c0,0 -3,-66 16,-74 18,-8 88,-1 88,-1 0,0 19,5 21,30 2,25 2,45 2,45l-24 0c0,0 2,-37 -2,-42 -4,-5 -69,-2 -69,-2 0,0 -9,0 -9,19 0,19 0,25 0,25l-21 0z"/>
       <polygon class="fil22" points="9704,10660 9863,10660 9863,11311 9704,11311 "/>
       <polygon class="fil23" points="9855,10660 10221,10671 10222,11311 9855,11311 "/>
       <path class="fil24" d="M10212 10671l4 0 5 56 1 584 -367 0 0 -197c202,312 333,-169 357,-443z"/>
       <path class="fil25" d="M10093 10415c0,31 6,60 16,89 8,21 13,38 14,61 1,18 14,91 -17,94 -3,0 -6,-1 -9,-3 -4,14 -26,4 -34,1 -6,14 -30,7 -37,0 -6,23 -79,0 -67,-24 3,-6 13,-4 18,-2 19,-18 23,-3 20,-38 -12,0 -45,-2 -51,11 -8,-4 12,-38 14,-47 8,-36 13,-77 26,-110 6,-17 5,-30 2,-48l105 16z"/>
       <path class="fil20" d="M9659 9238c0,0 215,-3 304,93 0,0 176,436 186,590l-34 567 -138 -8 2 -495 -75 -161c-4,393 9,604 9,729 -183,40 -517,45 -735,2l23 -506c-66,110 -184,311 -305,414l-100 -65 274 -500c0,0 85,-514 140,-572 30,-36 186,-99 271,-88 0,0 -24,119 63,128 97,-5 101,-84 116,-128z"/>
       <path class="fil26" d="M9472 9230l7 90 45 825 -169 -655 61 -69 -45 -52 22 -125c17,-5 41,-14 79,-14z"/>
       <path class="fil26" d="M9674 9230l-17 81 -139 833 233 -645 -52 -77 51 -45 -6 -134c-15,-3 -54,-14 -70,-14z"/>
       <path class="fil8" d="M9444 9230c-21,182 55,716 74,914 6,-16 156,-774 170,-914 -60,-12 -134,-22 -244,0z"/>
       <path class="fil27" d="M9479 9799c16,139 32,267 39,345l3 -10 10 -41c14,-64 38,-183 62,-312l-30 -314 21 -50 -40 -52 -40 53 22 49 -49 333z"/>
       <polygon class="fil26" points="9268,9711 9377,9711 9377,9745 9268,9745 "/>
       <path class="fil25" d="M9663 9096c-15,20 -13,53 -12,77 1,22 1,45 3,67l1 8c-15,44 -23,113 -117,118 -87,-8 -63,-127 -63,-128 2,-8 4,-16 4,-25 0,-9 -1,-15 -3,-24 -1,-6 -6,-21 -3,-20l191 -75z"/>
       <path class="fil25" d="M9457 8792c0,0 -199,279 -68,373 0,0 115,78 235,-18 0,0 133,-32 95,-112 0,0 -15,-25 -43,-16l73 -120 -65 -125 -131 4 -96 14z"/>
       <path class="fil20" d="M9686 9032c-3,3 -52,58 -57,55 -7,-4 3,-24 5,-29 60,-157 -112,-86 -227,-165 -73,-51 -29,-175 25,-199 33,-15 32,9 73,26 33,14 93,-4 127,-1 39,4 154,39 145,139 68,53 -11,214 -57,192 -9,-4 -21,-21 -34,-13 1,0 3,-1 4,-1l-4 -3z"/>
      </g>
      <g>
       <path class="fil25" d="M3252 10569c3,25 23,49 17,74 -4,18 -7,32 -5,50 1,14 -2,75 23,73 3,0 5,-1 7,-3 5,11 22,1 28,-3 6,10 25,3 30,-4 7,18 63,-8 52,-26 14,-13 7,-14 4,-29 2,-2 -29,-109 -34,-118 -7,-13 -17,-24 -17,-38l-104 23z"/>
       <path class="fil20" d="M3592 12350c0,0 38,46 75,66 37,20 95,28 117,49 16,15 57,80 -96,78 -153,-1 -227,9 -243,-16 -16,-25 8,-192 8,-192 0,0 52,22 140,14z"/>
       <path class="fil20" d="M4159 12372c0,0 5,51 44,72 39,21 183,39 206,61 17,16 44,80 -184,74 -162,-4 -240,10 -258,-17 -17,-26 -4,-186 -4,-186 0,0 101,5 196,-4z"/>
       <path class="fil20" d="M3471 10331c0,0 -64,190 -56,354 8,164 90,441 73,612 -19,191 -44,547 -47,649 -3,102 12,428 12,428l155 4c94,-571 243,-999 293,-1581 6,-65 -431,-466 -431,-466z"/>
       <path class="fil20" d="M4123 10365c0,0 85,449 96,549 11,100 -14,485 -9,548 6,63 -78,832 -48,925l-198 0c-56,-494 -19,-1071 -217,-1520 -76,-172 -230,-217 -276,-536 0,0 589,-67 652,34z"/>
       <path class="fil25" d="M3542 8898c0,0 124,-111 235,-27 28,21 55,15 70,53 11,28 60,98 75,134 6,14 -13,22 -8,36 23,72 20,116 -8,141 -63,56 -178,85 -243,30 -65,-55 -138,-141 -163,-209 -25,-68 12,-125 43,-159z"/>
       <path class="fil25" d="M3877 9238c0,0 9,40 26,55 17,15 -175,91 -175,91 0,0 -56,-96 -119,-171 -63,-75 269,24 269,24z"/>
       <path class="fil20" d="M3702 9250c38,-22 79,-36 97,-81 6,-16 -14,-108 -9,-113 19,-17 58,33 58,33 8,-24 66,-227 -39,-292 -7,-4 -8,10 -26,18 -16,7 -58,-13 -66,-14 -170,-12 -384,196 -122,428 37,32 58,50 106,21z"/>
       <path class="fil28" d="M3924 9350c0,0 -4,-61 -22,-65 -19,-4 -216,-2 -238,13l1 78c0,0 59,20 259,-26z"/>
       <path class="fil25" d="M3826 9065c-8,-12 -65,-47 -62,-3 3,44 55,84 70,73 16,-11 12,-40 -9,-69z"/>
       <path class="fil19" d="M4575 9624l31 -73 16 -98c-1,-12 7,-85 23,-59 11,18 23,65 25,65 26,-5 103,-120 106,-120 34,-8 -11,68 -18,81 -3,5 27,2 14,26 -10,18 -3,6 -2,10 1,2 24,2 12,23 -11,18 -4,3 -4,8 0,6 7,4 6,9 0,4 -1,13 -2,16 -46,93 -87,76 -137,184 -28,60 -68,-46 -70,-70z"/>
       <path class="fil20" d="M3924 9328c78,28 166,56 220,83 86,42 137,379 172,388 98,-64 104,-64 270,-244 6,11 117,90 107,85 -128,174 -347,450 -364,414 0,0 -192,-45 -195,-89 0,0 -1,56 -6,91 -5,35 83,714 80,733 -2,19 -399,43 -558,25 -159,-17 -287,-54 -287,-54 73,-313 98,-425 76,-856l-118 210 68 482 -141 55c0,0 -93,-508 -103,-550 -10,-42 15,-97 31,-132 64,-138 201,-489 285,-584 85,-35 229,-63 229,-63l232 9z"/>
       <polygon class="fil14" points="4973,11629 6990,11629 6990,11887 4973,11887 "/>
       <polygon class="fil14" points="5229,11887 4973,11887 4973,11629 5229,11629 "/>
       <polygon class="fil15" points="5229,11629 5488,11629 5488,11887 5229,11887 "/>
       <polygon class="fil16" points="5488,11629 6417,11629 6417,11887 5488,11887 "/>
       <polygon class="fil17" points="6417,11629 6808,11629 6808,11887 6417,11887 "/>
       <polygon class="fil18" points="5072,11887 6894,11887 6894,11912 5072,11912 "/>
       <polygon class="fil14" points="4751,11912 6773,11912 6773,12167 4751,12167 "/>
       <polygon class="fil14" points="5007,12167 4751,12167 4751,11912 5007,11912 "/>
       <polygon class="fil15" points="5007,11912 5266,11912 5266,12167 5007,12167 "/>
       <polygon class="fil16" points="5266,11912 6199,11912 6199,12167 5266,12167 "/>
       <polygon class="fil17" points="6199,11912 6591,11912 6591,12167 6199,12167 "/>
       <polygon class="fil18" points="4849,12167 6678,12167 6678,12192 4849,12192 "/>
       <polygon class="fil14" points="4755,11346 6772,11346 6772,11604 4755,11604 "/>
       <polygon class="fil14" points="5011,11604 4755,11604 4755,11346 5011,11346 "/>
       <polygon class="fil15" points="5011,11346 5269,11346 5269,11604 5011,11604 "/>
       <polygon class="fil16" points="5269,11346 6199,11346 6199,11604 5269,11604 "/>
       <polygon class="fil17" points="6199,11346 6590,11346 6590,11604 6199,11604 "/>
       <polygon class="fil18" points="4854,11604 6676,11604 6676,11629 4854,11629 "/>
       <path class="fil29" d="M7605 11756l-46 140 1226 435c50,18 108,7 124,-43 17,-50 -22,-99 -72,-115l-1232 -416z"/>
       <path class="fil30" d="M7611 11740l-51 154c-6,19 4,39 23,46l0 0c19,6 39,-4 46,-23l51 -154c6,-19 -4,-39 -23,-46l0 0c-19,-6 -39,4 -46,23z"/>
       <path class="fil31" d="M6380 11208c100,-141 251,-236 421,-265 171,-29 344,10 486,110 141,100 236,251 265,421 29,171 -10,344 -110,486 -100,141 -251,236 -421,265 -171,29 -344,-10 -486,-110 -141,-100 -236,-251 -265,-421 -29,-171 10,-344 110,-486zm408 -344l0 0c-192,33 -361,139 -473,298 -112,159 -157,354 -124,545 33,192 139,361 298,473 158,112 353,157 545,124 192,-33 361,-139 473,-298 112,-159 157,-354 124,-545 -33,-192 -139,-361 -298,-473 -159,-112 -354,-157 -545,-124z"/>
      </g>
     </g>
    </g>
   </g>
   <path class="fil32" d="M14239 7943c0,179 -7,356 -22,531 -14,171 -35,340 -63,508 -496,3025 -3122,5334 -6288,5334 -3166,0 -5792,-2309 -6288,-5334 -27,-167 -48,-336 -63,-508 -15,-175 -22,-352 -22,-531 0,-3519 2853,-6372 6372,-6372 3519,0 6372,2853 6372,6372z"/>
  </g>
 </g>
</svg>
