<?xml version="1.0" standalone="no"?>
<!DOCTYPE svg PUBLIC "-//W3C//DTD SVG 20010904//EN"
 "http://www.w3.org/TR/2001/REC-SVG-20010904/DTD/svg10.dtd">
<svg version="1.0" xmlns="http://www.w3.org/2000/svg"
 width="214.000000pt" height="213.000000pt" viewBox="0 0 214.000000 213.000000"
 preserveAspectRatio="xMidYMid meet">

<g transform="translate(0.000000,213.000000) scale(0.100000,-0.100000)"
fill="#000000" stroke="none">
<path d="M1440 1360 c0 -18 -6 -20 -52 -18 -44 1 -46 2 -15 5 20 2 37 8 37 14
0 14 -87 11 -125 -5 -47 -20 -45 -43 3 -51 46 -7 78 -24 47 -24 -41 -1 -86
-14 -82 -25 2 -6 17 -15 33 -20 16 -4 49 -17 73 -28 49 -21 67 -15 34 11 -21
18 -18 18 115 24 118 5 139 3 150 -11 10 -14 12 -11 12 16 l0 32 -54 0 c-71 0
-80 16 -15 25 39 5 54 4 60 -6 6 -10 9 -6 9 14 0 27 0 27 -70 27 -63 0 -70 2
-70 20 0 17 -7 20 -45 20 -38 0 -45 -3 -45 -20z"/>
<path d="M1178 1295 c-6 -30 16 -34 32 -6 14 27 13 31 -9 31 -12 0 -20 -9 -23
-25z"/>
<path d="M1555 1030 l-30 -8 35 -1 c39 -2 61 -15 78 -48 28 -52 -7 -110 -74
-123 l-39 -8 37 -1 c57 -2 93 34 93 92 0 37 -6 52 -29 76 -17 17 -32 30 -35
30 -3 -1 -19 -5 -36 -9z"/>
<path d="M1297 634 c-3 -3 1 -17 10 -30 14 -22 14 -24 0 -24 -27 0 -47 -30
-47 -71 0 -38 2 -41 47 -60 50 -21 111 -19 125 4 5 8 52 13 133 15 l125 4 0
26 c0 23 -1 24 -12 9 -12 -16 -18 -15 -88 1 l-75 18 84 7 c46 4 88 10 93 13
11 7 10 41 -2 49 -5 3 -10 -1 -10 -9 0 -14 -20 -16 -142 -16 -79 0 -154 -3
-167 -7 -19 -5 -23 -3 -18 9 6 17 -45 73 -56 62z m95 -175 c-15 -6 -30 -5 -40
1 -13 7 -8 9 23 9 35 0 37 -1 17 -10z"/>
<path d="M1190 505 c0 -31 26 -43 47 -22 16 15 9 42 -8 32 -5 -4 -9 -1 -9 4 0
6 -7 11 -15 11 -9 0 -15 -9 -15 -25z"/>
</g>
</svg>
