<?xml version="1.0" encoding="UTF-8"?>
<!DOCTYPE svg PUBLIC "-//W3C//DTD SVG 1.0//EN" "http://www.w3.org/TR/2001/REC-SVG-20010904/DTD/svg10.dtd">
<!-- Creator: CorelDRAW 2019 (64-Bit) -->
<svg xmlns="http://www.w3.org/2000/svg" xml:space="preserve" width="0.8in" height="0.8in" version="1.0" style="shape-rendering:geometricPrecision; text-rendering:geometricPrecision; image-rendering:optimizeQuality; fill-rule:evenodd; clip-rule:evenodd"
viewBox="0 0 49198 49198"
 xmlns:xlink="http://www.w3.org/1999/xlink">
 <defs>
  <style type="text/css">
   <![CDATA[
    .fil0 {fill:none}
    .fil12 {fill:#232E4F;fill-rule:nonzero}
    .fil4 {fill:#233862;fill-rule:nonzero}
    .fil3 {fill:#2B478B;fill-rule:nonzero}
    .fil2 {fill:#2C3A64;fill-rule:nonzero}
    .fil10 {fill:#35488B;fill-rule:nonzero}
    .fil13 {fill:#E3A330;fill-rule:nonzero}
    .fil5 {fill:#ED7D2B;fill-rule:nonzero}
    .fil7 {fill:#ED985F;fill-rule:nonzero}
    .fil9 {fill:#F0995E;fill-rule:nonzero}
    .fil8 {fill:#F99746;fill-rule:nonzero}
    .fil1 {fill:#FFB27D;fill-rule:nonzero}
    .fil6 {fill:#FFB93E;fill-rule:nonzero}
    .fil11 {fill:white;fill-rule:nonzero}
   ]]>
  </style>
 </defs>
 <g id="Layer_x0020_1">
  <metadata id="CorelCorpID_0Corel-Layer"/>
  <rect class="fil0" width="49198" height="49198"/>
  <g id="_2091493992160">
   <path class="fil1" d="M23547 23115l472 153c0,0 750,-248 1405,630 0,0 205,327 -47,576 -233,230 -278,-311 -726,-203 -448,108 -751,-61 -951,-334l-330 -197 177 -626z"/>
   <path class="fil2" d="M33231 8240c3,-83 67,-974 1424,-1020 0,0 -668,79 -783,373 0,0 454,-362 825,-246 370,117 588,765 590,978 2,213 -204,901 -438,960 -89,22 -192,16 -284,0 62,98 124,205 182,325 542,1112 -17,2199 -476,2079 -294,-77 -377,425 -377,425l-2857 -2313c0,0 1049,-2172 2195,-1560z"/>
   <path class="fil1" d="M26220 20980c0,0 -566,-110 -696,0 -130,110 -744,734 -612,939 131,205 762,-169 893,-205 131,-35 497,-178 497,-178l-83 -556z"/>
   <path class="fil3" d="M32236 40996l607 226c0,0 2636,-3656 2961,-6873 58,-574 38,-1131 -87,-1644 0,0 26,-147 71,-407 21,-122 47,-268 76,-435 86,-491 204,-1163 338,-1928 310,-1760 712,-4011 1024,-5665l-163 -53 -1769 -571 -366 -1161 -1318 -347c0,0 -294,576 -557,3295 -49,357 -93,750 -126,1177 -103,1302 -110,2917 125,4764 60,473 137,961 231,1462 69,368 80,868 51,1444 -133,2629 -1098,6716 -1098,6716z"/>
   <path class="fil4" d="M32927 26610l2861 5688c21,-122 47,-268 76,-435 86,-491 204,-1163 338,-1928 310,-1760 712,-4011 1024,-5665l-163 -53 -1769 -571 -366 -1161 -1318 -347c0,0 -294,576 -557,3295 -49,357 -93,750 -126,1177z"/>
   <path class="fil3" d="M34185 22868l66 -568c1109,295 4074,-824 4074,-824 0,0 1075,945 934,3210 -69,1105 -195,5803 -326,7193 -47,504 -89,862 -106,1006 0,1 0,1 0,1 -5,44 10,85 32,123 193,328 354,670 485,1020 1290,3437 -199,7670 -199,7670l-386 -156c0,0 -847,-4711 -1535,-6792 -117,-353 -229,-630 -332,-796 -299,-483 -577,-1272 -829,-2211 -476,-1775 -860,-4083 -1115,-5865 -35,1 -763,-3012 -763,-3012z"/>
   <path class="fil1" d="M26220 20980l83 556c0,0 37,0 101,-5 202,-14 694,-41 1249,-101 836,-83 1828,-230 2223,-473 602,-368 1589,-1493 2232,-2618 19,-28 32,-55 46,-83 335,-597 570,-1190 588,-1663 14,-289 -18,-537 -78,-753 -78,-285 -207,-510 -340,-680 -18,-28 -37,-55 -64,-78 -221,-262 -436,-372 -436,-372 -110,-46 -230,9 -354,142l0 5c-101,106 -211,266 -317,468 -5,5 -9,9 -9,14 -23,41 -46,87 -74,138 -9,9 -14,23 -18,32 -51,106 -101,216 -152,331 -565,1231 -1049,3040 -1549,3595 -216,239 -1321,763 -2107,1112 -565,248 -1024,432 -1024,432z"/>
   <path class="fil5" d="M27221 19779c659,-299 1415,-49 1714,1209 200,840 2143,1772 1268,3054 -837,1007 -2851,348 -2681,-928 170,-1276 598,-2343 131,-2546 -583,-254 -433,-789 -433,-789z"/>
   <path class="fil6" d="M26083 23469c1382,-198 2707,-150 2780,1370 74,1521 433,4381 2,4944 -431,563 -2690,483 -2690,483 -1512,-2578 -92,-6798 -92,-6798z"/>
   <path class="fil1" d="M32065 15979c348,161 769,272 1278,299 1908,105 2341,-1568 2419,-2678 -275,-100 -516,-90 -654,-83 -135,8 -276,21 -393,36 -233,-122 -653,-714 -895,-1704l-82 38 -1376 647c0,0 146,448 254,876 84,336 145,660 94,750 -109,44 -174,72 -174,72 0,0 0,0 0,2 -14,35 -313,798 -471,1744z"/>
   <path class="fil7" d="M32362 12535c0,0 146,448 254,877 805,-225 1049,-1070 1122,-1524l-1376 647z"/>
   <path class="fil1" d="M32192 13008c0,0 1925,-445 1629,-1640 -296,-1194 -247,-2056 -1488,-1822 -1242,234 -1367,749 -1365,1171 2,423 716,2376 1224,2291z"/>
   <path class="fil2" d="M30860 10039c207,-433 451,-410 603,-333 905,-837 1792,-153 1792,-153 341,825 1081,1162 1081,1162 0,0 -296,303 -1153,296 -262,-2 -525,-122 -764,-288 462,465 1004,748 1004,748 -1073,-205 -1792,-1447 -1866,-1579 -91,134 -265,420 -279,661 -20,328 93,965 -95,989 0,0 -632,-854 -322,-1503z"/>
   <path class="fil8" d="M30895 15839c69,-208 533,-1016 533,-1016 0,0 0,0 0,0 2,-2 294,-270 1108,-590 0,0 0,1 0,2 -13,47 -360,1305 -233,1574 129,273 2567,-608 2700,-810 107,-161 109,-1015 107,-1348 0,-83 -2,-133 -2,-133 0,0 910,-123 1422,84 0,0 -202,439 -276,923 -7,46 -13,92 -17,138 -10,98 -13,195 -7,290 7,126 72,237 176,346 94,100 222,199 367,304 95,68 196,140 301,218 0,0 0,0 0,0 9,570 -31,1507 74,2508 27,253 111,496 244,711 52,86 113,167 180,243 538,603 1491,1805 1282,2553 -15,706 -5967,1633 -5839,858 0,0 -894,-4310 -1377,-5351 -17,-38 -33,-75 -48,-113 -155,-411 -129,-833 -76,-1211 -273,-194 -617,-181 -617,-181z"/>
   <path class="fil5" d="M34616 21246c1174,-12 2168,-1231 2775,-2205 -133,-215 -217,-458 -244,-711 -106,-1000 -66,-1938 -74,-2508 0,0 0,0 0,0 -105,-78 -207,-150 -301,-218 -145,-106 -272,-204 -367,-304 -961,1625 -3381,5964 -1789,5947z"/>
   <path class="fil1" d="M30179 21885l161 588c0,0 202,-37 524,-96 96,-18 152,-32 152,-32 257,-51 565,-120 900,-193l5 0c574,-138 1217,-303 1759,-487 381,-133 712,-276 937,-418 23,-14 41,-28 64,-46 537,-390 1176,-1539 1672,-2769 69,-170 133,-340 198,-505 230,-615 413,-1222 523,-1745 69,-312 115,-597 124,-831 5,-83 9,-161 5,-234 -9,-1332 -671,-1515 -671,-1515 -14,-5 -28,-9 -46,-14 -115,-18 -234,60 -358,211 -156,188 -322,496 -491,868 -262,593 -537,1360 -795,2122 -142,418 -280,836 -418,1222 -78,234 -156,455 -230,657 -142,386 -271,698 -386,896 -73,129 -285,308 -565,510 -487,353 -1199,781 -1819,1130 -257,147 -501,280 -703,391 -326,179 -542,294 -542,294z"/>
   <path class="fil8" d="M35637 14667c884,-244 1566,447 1566,447 -11,-1330 -673,-1512 -673,-1512 -266,-110 -575,351 -893,1065z"/>
   <path class="fil4" d="M36900 42015l3057 0c0,0 73,-466 -86,-819 -153,-339 -393,-493 -335,-904 -194,200 -511,424 -953,364 -54,88 -349,558 -530,688 -200,144 -1090,92 -1152,671z"/>
   <path class="fil4" d="M30337 42015l3056 0c0,0 115,-488 -86,-819 -178,-293 -110,-461 22,-704 -138,57 -317,108 -515,97 -152,-9 -313,-78 -454,-160 -132,150 -695,788 -871,915 -200,144 -1090,92 -1152,671z"/>
   <path class="fil9" d="M23486 31278c0,0 1232,8736 1090,9815l777 -94c0,0 973,-3814 856,-4881 -117,-1067 964,-5466 -33,-5852 -997,-387 -2689,1012 -2689,1012z"/>
   <path class="fil1" d="M24606 31289c0,0 1757,8745 1682,9830l769 -178c0,0 747,-3931 565,-4989 -183,-1058 625,-5514 -394,-5839 -1019,-324 -2622,1176 -2622,1176z"/>
   <path class="fil2" d="M24585 40940c0,0 -185,339 -537,418 -222,50 -411,166 -528,329 -99,138 -1,330 168,329l1789 -10c152,-1 270,-133 254,-284 -14,-132 -29,-287 -36,-405 -15,-258 -294,-490 -294,-490 0,0 -246,141 -340,158 -206,36 -476,-43 -476,-43z"/>
   <path class="fil10" d="M26266 40940c0,0 -185,339 -537,418 -222,50 -411,166 -528,329 -99,138 -1,330 168,329l1788 -10c152,-1 270,-133 254,-284 -14,-132 -29,-287 -36,-405 -15,-258 -294,-490 -294,-490 0,0 -246,141 -340,158 -206,36 -476,-43 -476,-43z"/>
   <path class="fil1" d="M24244 23710c0,0 -1169,1970 -1404,3577 0,0 568,767 799,228 231,-538 1890,-3421 605,-3805z"/>
   <path class="fil5" d="M24467 20212c13,-21 536,-848 1513,-1013 792,-134 1533,426 1655,1220 122,798 -2,1831 -1304,2203l-1864 -2411z"/>
   <path class="fil1" d="M24706 23767l1473 875 389 -1036c0,0 -187,-379 -237,-983 -21,-254 -20,-548 24,-871l-1281 556c0,0 22,116 31,287 9,184 3,431 -64,662 -58,198 -160,384 -335,510z"/>
   <path class="fil2" d="M28091 33000c-138,-1574 -343,-3643 -472,-4493 -43,-280 -45,-565 -6,-846l303 -2235 95 -701c50,-371 -156,-730 -501,-875 -315,-131 -545,-162 -942,-245 -246,223 -725,542 -1232,443 -381,-75 -456,-263 -436,-482 -97,10 -185,3 -268,15 -319,43 -594,221 -769,474 0,0 0,-1 0,-1l-6 11c-27,41 -52,83 -74,127l-560 957c0,0 54,333 329,487 -275,3029 -594,9869 -337,9956 1664,568 4616,-222 5016,-604 20,-19 -43,-882 -140,-1989z"/>
   <path class="fil6" d="M24454 23766c-862,691 -1152,2431 -1039,3615 216,-538 202,-1336 412,-2182 204,-823 772,-1465 772,-1465 -21,0 -145,32 -145,32z"/>
   <path class="fil7" d="M25041 23257c706,26 1289,-634 1289,-634l-1226 -28c9,184 3,431 -64,662z"/>
   <path class="fil1" d="M24724 22842c0,0 1383,461 1940,-627 601,-1174 82,-2090 -392,-2180 -945,-179 -1521,149 -1713,522 -192,373 -598,2037 166,2284z"/>
   <path class="fil11" d="M25322 22248c0,0 -68,141 -434,36 0,0 -307,-88 -261,-250 0,0 328,-50 695,214z"/>
   <path class="fil12" d="M28091 33000c-44,-51 -2843,-3317 -2944,-5055 -101,-1751 1405,-3031 1405,-3031 600,-39 1043,157 1365,513l-303 2235c-38,281 -36,565 6,846 129,849 334,2919 472,4493z"/>
   <path class="fil6" d="M26991 23654c-1336,308 -1695,2516 -1082,4206 455,1254 1860,1851 1860,1851 153,-171 35,-557 35,-557 -2060,-1313 -1713,-3168 -1237,-4104 476,-936 572,-1283 1276,-1032 -88,-393 -852,-363 -852,-363z"/>
   <path class="fil5" d="M25693 20165c0,0 -131,1298 1100,1758 489,183 744,-1799 -279,-2195 -1023,-396 -2031,74 -2152,766 -121,692 -29,836 -29,836 0,0 479,-1316 1359,-1165z"/>
   <path class="fil1" d="M26441 24410c0,0 -565,2233 -586,3121 0,0 -1239,2164 -1312,2318 -73,154 447,364 447,364 0,0 1554,-1658 1854,-2354 300,-697 1362,-2962 937,-3638 -425,-676 -1340,189 -1340,189z"/>
   <path class="fil1" d="M22840 27287c0,0 -111,1521 971,2719 0,0 295,-356 258,-466 -37,-110 -461,-1806 -770,-2047 -309,-241 -459,-206 -459,-206z"/>
   <path class="fil1" d="M24543 29848c0,0 -693,-5 -731,158 -39,163 178,673 685,495 507,-178 494,-289 494,-289l-447 -364z"/>
   <path class="fil1" d="M24069 29540c0,0 556,257 367,531 -189,274 -567,110 -626,-65 -58,-176 258,-466 258,-466z"/>
   <path class="fil2" d="M26033 25588c0,0 726,676 1847,571 0,0 552,-1956 -333,-2196 -885,-240 -1617,919 -1513,1625z"/>
   <path class="fil4" d="M17391 12742c0,0 1676,2620 1146,7409 -165,1495 5075,3867 5075,3867 0,0 393,-308 225,-860 0,0 -2909,-2903 -3204,-3260 -262,-316 -972,-3685 -1278,-4807 -527,-1928 -1963,-2349 -1963,-2349z"/>
   <path class="fil4" d="M9701 39342c0,0 -574,523 -462,896 112,372 630,620 700,1075 70,455 350,703 602,703l1201 0c0,0 185,-320 -262,-416 -448,-96 -617,-631 -589,-1127 28,-496 -42,-1158 -42,-1158l-952 -221 -196 248z"/>
   <path class="fil4" d="M16740 40696c0,0 -103,1191 149,1316l3224 -7c0,0 0,-372 -518,-455 -518,-83 -1428,-386 -1581,-1061 -154,-675 -1274,207 -1274,207z"/>
   <path class="fil6" d="M19462 23863c0,0 -170,2089 -370,4600 -272,3411 -599,7601 -631,8394 -56,1378 -280,3583 -280,3583 0,0 -531,524 -1595,303 0,0 -948,-3147 -1219,-6477 -4,-54 -8,-109 -13,-164 -252,-3390 -644,-10528 -644,-10528l4751 289z"/>
   <path class="fil13" d="M19462 23863c0,0 -170,2089 -370,4600l-3725 5803c-4,-54 -8,-109 -13,-164 -252,-3390 -644,-10528 -644,-10528l4751 289z"/>
   <path class="fil6" d="M18685 24111c0,0 -3065,7565 -5080,11120 -2015,3555 -2645,4547 -2645,4547 0,0 -1154,-455 -1259,-765 0,0 770,-6863 2120,-8537 763,-945 1658,-3783 1700,-4775 42,-992 273,-2956 273,-2956l4891 1364z"/>
   <path class="fil1" d="M14653 12453c0,0 2073,1000 3269,629 0,0 -294,-371 -809,-647 41,-240 74,-448 92,-625 51,-407 51,-638 51,-638l-800 -629 -759 -602c60,1693 -1044,2513 -1044,2513z"/>
   <path class="fil3" d="M19593 24035c-37,32 -78,50 -124,50 -451,-9 -1761,240 -2869,127 -938,-91 -1766,-362 -2653,-751 -120,-54 -391,-200 -386,-326 5,-145 18,-348 37,-612 37,-517 90,-1251 106,-2122 12,-645 5,-1366 -41,-2129 -3,-51 -6,-103 -8,-155 -13,-280 -20,-561 -20,-837 -5,-887 59,-1734 188,-2490 226,-1313 644,-2348 1269,-2806 83,-63 603,193 1081,424 437,213 873,236 1287,154l414 362c502,457 1053,1086 1297,2037 202,806 322,2264 386,3776 32,688 55,1376 64,2032l0 23c5,68 5,136 5,204 23,1680 0,3015 -32,3038z"/>
   <path class="fil7" d="M15683 10587c0,0 524,955 1522,1222 51,-407 51,-638 51,-638l-800 -629 -773 45z"/>
   <path class="fil1" d="M17620 11144c0,0 -1978,324 -2164,-892 -186,-1216 -566,-1993 689,-2251 1255,-258 1572,169 1734,561 162,391 250,2468 -259,2583z"/>
   <path class="fil5" d="M14737 7854c-18,-21 -59,-37 -152,-42 0,0 74,-46 172,-48 19,-128 87,-355 308,-410 0,0 -118,63 -134,199 255,-262 803,-453 2319,-334 1998,158 1340,1437 1081,1589 -259,153 -910,-266 -1392,-227 -482,38 -574,735 -737,830 -163,95 -99,-74 -320,-174 -221,-100 -242,267 -178,505 64,238 -240,553 -240,553l-307 -331c-307,-331 -597,-1732 -457,-2030 13,-26 25,-53 37,-80z"/>
   <path class="fil1" d="M24231 23362c0,0 253,-113 404,50 151,163 505,275 474,360 -63,176 -389,-23 -733,84 -121,38 -494,-193 -146,-494z"/>
   <path class="fil4" d="M13703 20401c12,-646 5,-1366 -41,-2129 -3,-51 -6,-103 -8,-155 188,-931 473,-1758 891,-1785 0,0 1247,1960 -842,4069z"/>
   <path class="fil1" d="M12053 23781c0,0 104,1011 218,1202 114,191 600,802 807,922 207,120 -126,-805 -84,-985 42,-180 170,329 261,340 91,12 68,-445 71,-612 3,-167 -444,-578 -601,-932 -158,-354 -672,65 -672,65z"/>
   <path class="fil3" d="M15097 11982c0,0 -1252,593 -1852,1504 -931,1413 -2010,6564 -2030,7041 -20,477 788,3845 788,3845 0,0 819,-54 1030,-467 0,0 -163,-3460 -60,-3683 104,-222 3414,-4641 3042,-5584 -372,-943 -918,-2656 -918,-2656z"/>
   <path class="fil1" d="M28277 22455c294,124 707,556 1369,294 473,-184 974,-312 1217,-372 96,-18 152,-32 152,-32l-262 -762c0,0 -9,4 -32,9 -170,37 -1033,220 -1438,129 -455,-106 -1217,441 -1217,441 0,0 -83,175 211,294z"/>
  </g>
 </g>
</svg>
