<?xml version="1.0" encoding="UTF-8"?>
<!DOCTYPE svg PUBLIC "-//W3C//DTD SVG 1.0//EN" "http://www.w3.org/TR/2001/REC-SVG-20010904/DTD/svg10.dtd">
<!-- Creator: CorelDRAW 2019 (64-Bit) -->
<svg xmlns="http://www.w3.org/2000/svg" xml:space="preserve" width="0.8in" height="0.8in" version="1.0" style="shape-rendering:geometricPrecision; text-rendering:geometricPrecision; image-rendering:optimizeQuality; fill-rule:evenodd; clip-rule:evenodd"
viewBox="0 0 33657 33657"
 xmlns:xlink="http://www.w3.org/1999/xlink">
 <defs>
  <style type="text/css">
   <![CDATA[
    .fil21 {fill:none}
    .fil15 {fill:#013D5D;fill-rule:nonzero}
    .fil5 {fill:#3B8E7C;fill-rule:nonzero}
    .fil4 {fill:#4FBFA5;fill-rule:nonzero}
    .fil2 {fill:#747395;fill-rule:nonzero}
    .fil11 {fill:#80213C;fill-rule:nonzero}
    .fil7 {fill:#8A2643;fill-rule:nonzero}
    .fil3 {fill:#A9A5BD;fill-rule:nonzero}
    .fil19 {fill:#B4431E;fill-rule:nonzero}
    .fil6 {fill:#BC344B;fill-rule:nonzero}
    .fil12 {fill:#E49C48;fill-rule:nonzero}
    .fil8 {fill:#EA7A0C;fill-rule:nonzero}
    .fil16 {fill:#EDFBFF;fill-rule:nonzero}
    .fil1 {fill:#F47256;fill-rule:nonzero}
    .fil17 {fill:#F47457;fill-rule:nonzero}
    .fil13 {fill:#F6A390;fill-rule:nonzero}
    .fil0 {fill:#F7A391;fill-rule:nonzero}
    .fil14 {fill:#FD544D;fill-rule:nonzero}
    .fil9 {fill:#FDA701;fill-rule:nonzero}
    .fil20 {fill:#FFB3A5;fill-rule:nonzero}
    .fil18 {fill:#FFC359;fill-rule:nonzero}
    .fil10 {fill:white;fill-rule:nonzero}
    .fil22 {fill:white;fill-rule:nonzero}
   ]]>
  </style>
 </defs>
 <g id="Layer_x0020_1">
  <metadata id="CorelCorpID_0Corel-Layer"/>
  <g id="_2079743221440">
   <g>
    <path class="fil0" d="M12192 16558c-272,44 -256,88 -291,93 -41,5 -533,-241 -533,-241 0,0 -1454,-715 -1531,-757l-1049 -1316 -809 372c0,0 1180,1399 1255,1461 75,62 2159,790 2340,861 0,0 183,166 301,267 118,101 276,140 314,163 6,3 136,72 320,112 159,34 26,-73 26,-73 0,0 -281,-118 -267,-140 11,-16 160,58 335,98 45,10 90,20 131,29 107,23 155,-38 47,-81 -38,-15 -102,-39 -150,-49 -52,-11 -96,-38 -138,-54 -84,-32 -145,-54 -142,-57 4,-4 -7,-22 41,-13 58,11 175,63 262,73 49,6 151,24 151,24 0,0 180,17 182,-8 3,-55 -108,-86 -176,-84 -43,-22 -151,-38 -151,-38 0,0 -209,-82 -197,-113 5,-12 131,7 266,16 142,10 245,10 252,-18 12,-44 -101,-60 -101,-60 0,0 -100,-15 -132,-22 -38,-9 -151,-44 -151,-44 0,0 -385,-141 -371,-169 14,-28 77,-88 105,-87 27,0 76,27 103,27 27,0 85,-5 90,-39 4,-34 -147,-105 -147,-105 0,0 -105,-42 -184,-29z"/>
    <polygon class="fil1" points="23686,19402 7464,19402 7464,21100 23686,21100 "/>
    <g>
     <path class="fil2" d="M19371 25411c-3658,-1934 -7631,-3125 -11710,-3509 151,-1770 302,-3540 453,-5310 4716,444 9310,1821 13539,4057 -761,1587 -1522,3174 -2283,4762z"/>
     <path class="fil3" d="M8021 20932c103,-1104 206,-2208 309,-3311 429,44 813,-233 859,-629 3932,494 7764,1642 11352,3402 -160,363 28,810 414,1011 -467,995 -934,1989 -1401,2984 -355,-184 -776,-32 -936,330 -3151,-1545 -6516,-2553 -9969,-2987 47,-396 -234,-759 -628,-799z"/>
     <g>
      <path class="fil4" d="M16461 21114c-330,949 -1346,1433 -2290,1143 -942,-292 -1548,-1277 -1336,-2262 211,-984 1258,-1574 2318,-1246 1061,327 1637,1417 1308,2365z"/>
      <path class="fil5" d="M14164 21923c26,-106 53,-212 79,-318 -142,-46 -277,-111 -384,-180 -90,-57 -122,-174 -74,-266 2,-4 4,-7 6,-11 54,-102 185,-135 284,-70 101,67 220,126 352,163 193,54 343,19 378,-114 33,-127 -55,-239 -288,-394 -337,-223 -552,-455 -478,-781 67,-296 340,-473 738,-438 26,-106 52,-212 78,-318 117,32 234,65 350,99 -25,98 -50,196 -75,294 128,43 229,90 311,139 101,59 136,183 81,277 -57,97 -188,124 -289,61 -76,-47 -173,-96 -297,-131 -228,-65 -325,9 -348,103 -27,111 78,214 345,405 376,260 488,495 406,794 -82,296 -363,482 -763,438 -29,113 -59,227 -88,341 -108,-31 -216,-62 -325,-92z"/>
      <path class="fil4" d="M12277 19958c-932,-215 -1874,-390 -2822,-525 22,-170 44,-340 66,-511 961,137 1916,314 2861,533 -35,168 -70,335 -105,503z"/>
      <path class="fil4" d="M19547 22539c-868,-424 -1750,-810 -2646,-1158 57,-161 113,-322 170,-483 908,352 1803,744 2683,1174 -69,156 -138,311 -207,467z"/>
     </g>
    </g>
    <g>
     <path class="fil2" d="M21228 19730c-3774,788 -7368,2369 -10592,4657 -871,-1503 -1742,-3006 -2613,-4510 3728,-2646 7883,-4473 12247,-5385 320,1746 639,3491 959,5237z"/>
     <path class="fil3" d="M10362 23387c-537,-943 -1074,-1886 -1611,-2829 341,-238 471,-702 285,-1047 3177,-2108 6643,-3632 10268,-4515 83,390 470,627 867,540 208,1088 415,2176 622,3264 -365,80 -590,468 -507,858 -3184,776 -6228,2114 -9017,3965 -186,-345 -594,-454 -908,-236z"/>
     <g>
      <path class="fil2" d="M16694 18164c284,965 -198,1996 -1055,2365 -858,367 -1852,-30 -2243,-949 -390,-917 54,-2051 1019,-2465 965,-415 1995,86 2278,1049z"/>
      <path class="fil3" d="M15447 20268c-39,-101 -79,-202 -118,-303 -131,54 -266,88 -384,101 -98,12 -187,-60 -202,-165 -1,-4 -1,-8 -2,-13 -17,-115 62,-225 171,-236 112,-11 233,-40 351,-94 172,-80 264,-203 216,-331 -46,-122 -173,-155 -431,-130 -372,37 -660,-10 -786,-317 -115,-278 -11,-592 301,-817 -40,-101 -80,-202 -119,-303 104,-49 209,-97 314,-144 36,94 72,188 108,281 118,-47 219,-74 307,-88 107,-17 202,59 214,169 12,113 -70,218 -180,233 -82,11 -181,34 -292,85 -205,94 -235,214 -200,303 41,105 177,120 480,103 422,-32 635,83 740,373 104,288 0,613 -320,833 41,109 83,218 124,327 -97,44 -194,88 -290,134z"/>
      <path class="fil4" d="M12964 19906c-808,422 -1600,881 -2374,1377 -78,-149 -157,-298 -235,-448 785,-503 1589,-968 2408,-1396 67,156 134,311 202,467z"/>
      <path class="fil2" d="M19763 17335c-876,214 -1742,469 -2596,762 -48,-164 -95,-328 -143,-492 866,-297 1744,-555 2633,-773 35,168 71,335 107,503z"/>
     </g>
    </g>
    <g>
     <path class="fil2" d="M21682 22636c-3925,-238 -7856,338 -11585,1698 -513,-1686 -1027,-3372 -1540,-5058 4312,-1572 8857,-2238 13395,-1963 -90,1774 -180,3549 -269,5323z"/>
     <path class="fil3" d="M10059 23293c-313,-1055 -625,-2110 -938,-3165 393,-140 630,-554 526,-937 3640,-1197 7431,-1753 11231,-1646 -8,400 320,731 733,753 -48,1108 -95,2216 -143,3324 -380,-20 -695,296 -702,696 -3337,-94 -6666,394 -9862,1445 -104,-383 -483,-597 -845,-469z"/>
     <g>
      <path class="fil2" d="M17553 19917c57,1009 -661,1879 -1597,2009 -936,128 -1828,-521 -2002,-1513 -173,-991 532,-1970 1585,-2115 1053,-146 1958,612 2014,1619z"/>
      <path class="fil3" d="M15827 21623c-16,-108 -31,-216 -47,-325 -142,17 -284,14 -404,-4 -100,-15 -171,-108 -162,-213 0,-4 1,-8 1,-13 10,-116 114,-201 225,-183 113,19 240,23 370,2 189,-31 309,-127 291,-264 -17,-130 -136,-196 -397,-240 -378,-62 -652,-185 -706,-516 -49,-299 127,-576 489,-711 -16,-108 -32,-216 -48,-324 115,-19 230,-38 345,-56 14,100 28,201 41,301 128,-14 234,-14 325,-4 110,12 187,111 172,220 -15,112 -120,193 -232,178 -84,-12 -187,-15 -309,5 -225,36 -283,145 -269,241 17,113 147,163 452,227 426,81 610,249 647,557 36,306 -143,594 -512,721 16,116 31,233 47,349 -106,17 -213,34 -319,52z"/>
      <path class="fil4" d="M13449 20614c-899,194 -1791,428 -2675,703 -43,-165 -86,-330 -129,-496 896,-278 1800,-516 2712,-713 30,168 61,337 91,506z"/>
      <path class="fil4" d="M20788 19929c-918,-25 -1836,-8 -2751,49 -9,-171 -18,-343 -27,-514 928,-58 1859,-75 2790,-50 -4,172 -8,343 -12,515z"/>
     </g>
    </g>
    <polygon class="fil6" points="7464,19402 7464,26541 23686,26541 23686,19402 "/>
    <polygon class="fil7" points="22829,20308 8062,20308 8062,19753 22829,19753 "/>
    <polygon class="fil7" points="15135,21408 8250,21408 8250,21224 15135,21224 "/>
    <g>
     <path class="fil8" d="M21778 22529c486,693 319,1649 -374,2136 -693,486 -1649,319 -2136,-374 -486,-693 -319,-1650 374,-2136 693,-486 1650,-319 2136,374z"/>
     <path class="fil9" d="M21576 22671c408,582 268,1384 -314,1792 -582,408 -1384,268 -1792,-314 -408,-582 -268,-1384 314,-1792 582,-408 1384,-268 1792,314z"/>
     <g>
      <path class="fil10" d="M20671 24315l-56 -207c-95,21 -191,28 -274,24 -69,-3 -123,-60 -124,-129l0 -8c-1,-76 63,-137 138,-132 77,5 162,0 248,-23 124,-34 196,-105 173,-192 -22,-83 -107,-116 -283,-127 -255,-15 -444,-81 -501,-293 -52,-192 43,-379 264,-488l-56 -207 214 -58 52 192c80,-18 148,-25 207,-25 72,0 130,58 131,129 1,74 -60,134 -134,132 -55,-1 -122,4 -199,25 -142,38 -171,112 -155,173 19,72 108,97 313,117 285,22 422,113 475,310 53,194 -40,397 -279,509l60 223 -214 58z"/>
     </g>
    </g>
    <g>
     <path class="fil8" d="M19076 21490c0,847 -687,1533 -1533,1533 -847,0 -1533,-686 -1533,-1533 0,-847 687,-1533 1533,-1533 847,0 1533,686 1533,1533z"/>
     <path class="fil9" d="M18829 21490c0,711 -576,1287 -1287,1287 -711,0 -1287,-576 -1287,-1287 0,-711 576,-1287 1287,-1287 711,0 1287,576 1287,1287z"/>
    </g>
    <polygon class="fil7" points="22829,26096 15884,26096 15884,22374 22829,22374 "/>
    <path class="fil11" d="M23686 24387l-4014 0c-178,0 -322,179 -322,399l0 0c0,220 144,399 322,399l-521 0c-178,0 -322,178 -322,399 0,220 144,399 322,399l90 0c-178,0 -322,178 -322,399 0,57 10,111 27,160l4739 0 0 -2153z"/>
    <g>
     <g>
      <path class="fil12" d="M2104 26424c0,72 65,131 145,131l27819 0c80,0 145,-59 145,-131 0,-72 -65,-131 -145,-131l-27819 0c-80,0 -145,59 -145,131z"/>
     </g>
    </g>
    <path class="fil9" d="M23726 26293l-4145 0c-166,0 -301,-135 -301,-301 0,-166 135,-301 301,-301l4145 0c166,0 301,135 301,301 0,166 -135,301 -301,301z"/>
    <path class="fil8" d="M23642 25691l-4145 0c-166,0 -301,-135 -301,-301 0,-166 135,-301 301,-301l4145 0c166,0 301,135 301,301 0,166 -135,301 -301,301z"/>
    <path class="fil9" d="M24128 25089l-4145 0c-166,0 -301,-135 -301,-301 0,-166 135,-301 301,-301l4145 0c166,0 301,135 301,301 0,166 -135,301 -301,301z"/>
    <g>
     <g>
      <g>
       <path class="fil13" d="M25750 25089c0,0 -123,528 -88,702 19,94 123,286 75,374 -48,88 -103,110 -103,110l-1242 20c-68,1 -23,-42 31,-81 89,-64 161,-107 446,-243 19,-9 86,-51 111,-66 62,-37 124,-96 178,-154 89,-98 97,-571 97,-571l494 -91z"/>
       <path class="fil7" d="M24700 17906c0,0 -534,-263 -431,309 103,572 900,7155 900,7155l732 41c0,0 78,-2293 58,-2601 -21,-308 -142,-785 -142,-785l-62 -1903 -691 -2350 -364 135z"/>
       <path class="fil14" d="M24982 25905c328,83 571,27 707,-27 35,98 81,220 57,291 -30,86 -70,125 -107,126 -300,8 -1102,-1 -1331,2 -32,0 -50,-36 -29,-60 57,-67 679,-316 704,-331z"/>
       <path class="fil13" d="M24269 14039c0,0 -451,-868 -521,-1187 -70,-319 -312,-1924 -292,-2027 20,-103 404,-352 356,-440 -47,-88 -412,-88 -496,-80 -84,7 -252,56 -323,115 -72,59 81,1983 126,2397 46,414 606,1689 606,1689l544 -467z"/>
       <g>
        <path class="fil13" d="M27784 20805c0,0 372,-390 455,-548 44,-84 85,-300 177,-338 93,-38 149,-21 149,-21l977 767c53,42 -8,47 -76,43 -110,-6 -193,-18 -500,-93 -20,-5 -99,-15 -127,-19 -72,-10 -157,-4 -235,8 -131,20 -435,382 -435,382l-385 -182z"/>
        <path class="fil14" d="M28839 20597c-203,-271 -427,-380 -566,-424 34,-98 72,-226 135,-265 78,-48 132,-38 162,-15 238,183 860,684 1040,825 25,20 16,59 -16,65 -86,16 -727,-182 -755,-186z"/>
        <path class="fil15" d="M27793 13774c-232,-486 -745,-753 -1242,-624 -178,-241 -454,-410 -741,-451 -566,-80 -1297,194 -1222,785 -179,413 -135,983 222,1262 -66,543 479,1025 1124,960 259,358 710,568 1132,486 101,-20 255,-56 282,-52 -33,-4 736,500 1266,-397 541,-915 8,-1937 -820,-1971z"/>
        <path class="fil8" d="M24485 18113c0,0 1197,-532 1216,-472 150,483 617,327 894,1179 116,356 235,2728 235,2728 0,0 472,-392 1146,-1076 52,-53 559,430 559,430 -1339,1809 -1916,1903 -2140,1802 -466,-212 -1450,-3168 -1449,-3168 -118,-230 -462,-1422 -462,-1422z"/>
        <path class="fil13" d="M26469 14773c0,0 1730,-2 2100,-24 335,-19 1665,14 1717,8 52,-6 396,-588 453,-526 57,62 -191,289 -114,347 77,59 902,-73 891,-12 -21,114 -502,100 -502,155 1,55 504,-31 538,60 34,92 -484,37 -505,78 -21,41 481,116 429,201 -28,46 -444,-77 -442,-14 2,63 306,206 268,256 -37,50 -238,-154 -415,-157 -176,-2 -303,-94 -584,-17 -139,38 -1200,168 -2096,244 -919,79 -1672,104 -1672,104l-67 -705z"/>
        <path class="fil16" d="M23904 15996c-23,-278 32,-492 44,-584 -84,-289 -263,-904 -327,-1025 0,0 301,-579 610,-575 0,0 315,710 558,837 3,-1 86,37 122,36 235,-2 1056,-27 1210,-29l-86 1165c-595,1167 -434,1779 -208,2005 107,107 -1485,539 -1559,388 -86,-178 -318,-1658 -365,-2219z"/>
        <path class="fil16" d="M25704 14700c152,-72 1248,-36 1248,-36 0,0 153,764 29,947 0,0 -980,146 -952,226l-325 -1137z"/>
        <path class="fil13" d="M25416 14209c0,0 -19,416 0,590 19,173 -178,580 -546,587 -368,7 -54,-390 -22,-561 32,-171 71,-839 71,-839l496 223z"/>
        <path class="fil17" d="M24920 13987c0,0 -9,155 -22,335 116,138 294,209 511,125 2,-129 7,-237 7,-237l-496 -223z"/>
        <path class="fil13" d="M25447 12969c0,0 208,62 325,270 117,208 166,801 -283,1045 -449,244 -757,-166 -736,-544 21,-378 136,-877 694,-771z"/>
        <path class="fil13" d="M24663 13615c30,94 99,155 154,138 54,-18 74,-108 44,-202 -30,-94 -99,-155 -154,-137 -54,18 -74,108 -44,202z"/>
        <path class="fil15" d="M25384 12952c0,0 228,623 461,694 233,70 209,374 209,374 0,0 43,-703 -168,-879 -211,-177 -502,-188 -502,-188z"/>
        <path class="fil13" d="M25743 13765c-38,96 -16,195 49,220 65,26 148,-31 186,-127 38,-96 16,-195 -49,-220 -65,-26 -148,31 -186,127z"/>
       </g>
       <path class="fil17" d="M22927 10568c0,0 507,22 566,22 59,0 233,-179 233,-179l-799 157z"/>
      </g>
      <g>
       <path class="fil18" d="M24627 7845c553,788 363,1876 -426,2429 -788,553 -1876,363 -2429,-426 -553,-788 -363,-1876 426,-2429 788,-553 1876,-363 2429,426z"/>
       <path class="fil8" d="M24397 8006c464,661 304,1574 -357,2038 -661,464 -1574,304 -2038,-357 -464,-661 -304,-1574 357,-2038 662,-464 1574,-304 2038,357z"/>
      </g>
     </g>
     <path class="fil13" d="M23494 10590l209 -188c0,0 -99,-118 -58,-141 67,-37 181,106 171,140 -10,35 -133,146 -133,146l-189 42z"/>
    </g>
    <g>
     <g>
      <g>
       <path class="fil19" d="M9518 15153c0,0 -262,237 -371,315 -90,65 -532,277 -532,277 0,0 -439,-670 -631,-1006 -233,-408 -394,-1014 -339,-1030 154,-46 367,-74 563,15 679,311 1309,1429 1309,1429z"/>
      </g>
     </g>
     <path class="fil13" d="M5305 25347c0,0 -29,513 -29,514 -11,65 -53,226 -53,285 0,222 990,-189 768,-287 -20,-9 -125,-76 -132,-152 -10,-117 -36,-353 -36,-353l-518 -7z"/>
     <g>
      <path class="fil15" d="M5989 25856c0,0 -232,68 -351,85 -119,17 -276,-126 -360,-88 -93,43 -84,439 -84,439 0,0 1194,104 1579,0 91,-49 -308,-278 -783,-437z"/>
     </g>
     <path class="fil13" d="M3638 25363c0,0 -29,513 -29,514 -11,65 -53,226 -53,285 0,222 990,-189 768,-287 -20,-9 -156,-127 -163,-203 -10,-117 -5,-302 -5,-302l-518 -7z"/>
     <g>
      <path class="fil15" d="M4321 25872c0,0 -232,68 -351,85 -119,17 -276,-126 -360,-87 -93,43 -96,426 -96,426 0,0 802,60 1604,-4 69,-50 -321,-261 -796,-420z"/>
     </g>
     <path class="fil2" d="M3867 17248c0,0 -168,865 -99,1521 68,656 74,2987 74,2987l-261 3729 619 14c0,0 734,-3727 720,-3632 -14,96 246,-2625 246,-2625l-875 -2078 -424 82z"/>
     <path class="fil3" d="M4102 16690c0,0 -760,798 -477,1670 113,350 1172,3695 1186,3968 14,273 358,3295 358,3295l720 -22 156 -3359 -206 -4526 -437 -763 -1300 -262z"/>
     <g>
      <path class="fil8" d="M8714 14102c-249,-277 -790,-680 -790,-680 0,0 -323,-275 -454,-320 -193,-67 -525,-244 -1005,481 -343,519 -2508,3204 -2864,3294l2321 1107c64,-529 1211,-1528 1376,-1715 369,-417 1651,-1906 1416,-2168z"/>
     </g>
     <g>
      <path class="fil13" d="M8606 12967l-723 422c0,0 -20,615 216,775 198,134 349,-188 349,-188 0,0 269,-372 473,-487 204,-116 -315,-522 -315,-522z"/>
      <path class="fil17" d="M8485 13238c27,128 90,314 188,467 80,-86 169,-170 249,-215 94,-54 34,-169 -58,-278 -130,-135 -258,-245 -258,-245l-139 81c-9,53 8,147 18,190z"/>
      <path class="fil13" d="M8983 11910c-12,-15 -606,723 -533,1069 73,346 433,662 682,575 276,-96 790,-965 606,-1386 -184,-422 -755,-258 -755,-258z"/>
      <path class="fil15" d="M9634 11677c-259,-144 -741,-254 -1057,-89 -388,203 -417,782 -296,1093 122,311 -18,487 -18,487l206 -120c0,0 120,-187 136,-336 16,-149 234,-123 341,-191 82,-52 187,-221 320,-309 0,0 334,-41 499,51 280,157 241,-380 -131,-586z"/>
      <path class="fil13" d="M8842 12554c16,-161 -131,-308 -227,-122 -76,148 -62,391 59,355 122,-36 168,-233 168,-233z"/>
     </g>
     <path class="fil20" d="M10782 17645c-284,-34 -284,-11 -320,-17 -43,-6 -484,-385 -484,-385 0,0 -1308,-1108 -1377,-1170l-718 -1586 -948 141c0,0 883,1865 945,1946 62,81 2002,1212 2170,1332 0,0 148,214 245,345 97,131 248,215 281,248 5,5 121,109 298,200 153,79 43,-64 43,-64 0,0 -257,-195 -239,-212 14,-13 149,101 317,190 43,23 86,45 125,65 103,53 164,7 65,-65 -35,-26 -95,-67 -141,-90 -50,-25 -88,-64 -127,-92 -78,-55 -130,-90 -126,-92 5,-2 -7,-27 40,-4 56,27 162,111 248,145 48,19 147,66 147,66 0,0 146,19 151,10 30,-45 -57,-81 -126,-99 -39,-33 -144,-79 -144,-79 0,0 -193,-139 -174,-166 7,-10 121,67 260,119 159,59 236,27 250,2 22,-39 -76,-63 -76,-63 0,0 -134,-32 -165,-49 -37,-19 -463,-341 -443,-365 20,-24 86,-24 113,-16 27,8 76,27 103,35 27,8 75,-24 87,-56 11,-32 -91,-90 -91,-90 0,0 -107,-75 -189,-84z"/>
     <g>
      <path class="fil19" d="M7086 15398c0,0 273,-86 448,-166 117,-54 628,-307 628,-307 0,0 -220,-926 -369,-1259 -546,-1222 -1167,-379 -1252,-183 -188,440 545,1916 545,1916z"/>
     </g>
    </g>
   </g>
  </g>
  <rect class="fil21" width="33657" height="33657"/>
  <path class="fil22" d="M22707 8061l1096 0 0 2c-65,100 -101,152 -109,160l-293 0c40,47 68,105 82,172l312 0c4,1 6,2 6,5 -70,105 -106,157 -107,157l-203 0c-4,54 -30,119 -77,195 -62,77 -122,127 -179,149 -106,51 -208,76 -305,76l0 2c0,8 220,269 660,783l-291 0c-428,-499 -643,-750 -643,-752l0 -151 2 -6c38,5 82,8 133,8 241,0 389,-78 448,-234 9,-23 14,-46 14,-71l-652 0c-3,0 -5,-1 -5,-4 72,-105 109,-158 111,-158l517 0 0 -2c-29,-60 -87,-107 -172,-140 -61,-20 -115,-29 -164,-29l-289 0 0 -6c70,-104 106,-156 108,-156z"/>
  <path class="fil22" d="M18118 20742l556 944 -2 1c-119,-5 -183,-10 -193,-13l-149 -252c-20,58 -56,111 -107,158l158 269c1,4 1,6 -1,7 -126,-7 -189,-11 -190,-12l-103 -175c-49,24 -118,34 -207,32 -98,-14 -171,-40 -219,-78 -98,-66 -171,-141 -221,-224l-2 1c-7,4 -120,326 -340,966l-147 -250c213,-622 320,-934 322,-936l130 -77 6 -1c14,35 35,75 60,119 122,207 265,296 429,268 24,-4 47,-12 68,-24l-331 -562c-1,-3 -1,-5 1,-6 127,9 191,14 192,16l263 446 2 -1c37,-56 48,-129 33,-220 -14,-62 -33,-114 -58,-156l-147 -249 5 -3c125,8 188,12 189,14z"/>
 </g>
</svg>
