<?xml version="1.0" encoding="UTF-8"?>
<!DOCTYPE svg PUBLIC "-//W3C//DTD SVG 1.0//EN" "http://www.w3.org/TR/2001/REC-SVG-20010904/DTD/svg10.dtd">
<!-- Creator: CorelDRAW 2019 (64-Bit) -->
<svg xmlns="http://www.w3.org/2000/svg" xml:space="preserve" width="0.8in" height="0.8in" version="1.0" style="shape-rendering:geometricPrecision; text-rendering:geometricPrecision; image-rendering:optimizeQuality; fill-rule:evenodd; clip-rule:evenodd"
viewBox="0 0 30780 30780"
 xmlns:xlink="http://www.w3.org/1999/xlink">
 <defs>
  <style type="text/css">
   <![CDATA[
    .fil0 {fill:none}
    .fil16 {fill:#18262F;fill-rule:nonzero}
    .fil14 {fill:#1F3B52;fill-rule:nonzero}
    .fil13 {fill:#21313F;fill-rule:nonzero}
    .fil12 {fill:#2A2F3A;fill-rule:nonzero}
    .fil9 {fill:#2B4B69;fill-rule:nonzero}
    .fil8 {fill:#2F495E;fill-rule:nonzero}
    .fil15 {fill:#90B8C3;fill-rule:nonzero}
    .fil3 {fill:#A1C4D1;fill-rule:nonzero}
    .fil1 {fill:#C3DBE6;fill-rule:nonzero}
    .fil4 {fill:#DBEBEF;fill-rule:nonzero}
    .fil7 {fill:#FF7700;fill-rule:nonzero}
    .fil6 {fill:#FF9013;fill-rule:nonzero}
    .fil5 {fill:#FF9307;fill-rule:nonzero}
    .fil11 {fill:#FFA880;fill-rule:nonzero}
    .fil10 {fill:#FFC19E;fill-rule:nonzero}
    .fil2 {fill:white;fill-rule:nonzero}
   ]]>
  </style>
 </defs>
 <g id="Layer_x0020_1">
  <metadata id="CorelCorpID_0Corel-Layer"/>
  <rect class="fil0" width="30780" height="30780"/>
  <g id="_2091382890640">
   <g>
    <g>
     <polygon class="fil1" points="28856,25938 1924,25938 1924,25890 28856,25890 "/>
    </g>
   </g>
   <g id="_2091382865392">
    <g>
     <path class="fil1" d="M5359 17682l0 -9196c0,-496 402,-899 899,-899l16014 0c497,0 899,402 899,899l0 9196c0,496 -402,899 -899,899l-16014 0c-496,0 -899,-402 -899,-899z"/>
     <path class="fil2" d="M6306 18388c-417,0 -754,-338 -754,-754l0 -9133c0,-399 323,-722 722,-722l15983 0c399,0 722,323 722,722l0 9133c0,417 -338,754 -754,754l-15918 0z"/>
     <path class="fil3" d="M6235 7779l16021 0c399,0 722,323 722,722l0 581 -17464 0 0 -581c0,-399 323,-722 722,-722z"/>
     <g>
      <path class="fil4" d="M6662 8430c0,92 -75,166 -166,166 -92,0 -167,-75 -167,-166 0,-92 75,-166 167,-166 92,0 166,75 166,166z"/>
      <path class="fil4" d="M7654 8430c0,92 -75,166 -166,166 -92,0 -166,-75 -166,-166 0,-92 75,-166 166,-166 92,0 166,75 166,166z"/>
      <path class="fil4" d="M8646 8430c0,92 -75,166 -166,166 -92,0 -166,-75 -166,-166 0,-92 75,-166 166,-166 92,0 166,75 166,166z"/>
     </g>
    </g>
    <g>
     <g>
      <path class="fil1" d="M6452 16714c-40,0 -72,-32 -72,-72 0,-40 32,-72 72,-72l0 145zm9937 0l-9937 0 0 -145 9937 0 0 145zm0 -145c40,0 72,32 72,72 0,40 -32,72 -72,72l0 -145z"/>
     </g>
     <g>
      <path class="fil1" d="M6452 17287c-40,0 -72,-32 -72,-72 0,-40 32,-72 72,-72l0 145zm7762 0l-7762 0 0 -145 7762 0 0 145zm0 -145c40,0 72,32 72,72 0,40 -32,72 -72,72l0 -145z"/>
     </g>
     <g>
      <path class="fil1" d="M6452 17860c-40,0 -72,-32 -72,-72 0,-40 32,-72 72,-72l0 145zm4833 0l-4833 0 0 -145 4833 0 0 145zm0 -145c40,0 72,32 72,72 0,40 -32,72 -72,72l0 -145z"/>
     </g>
     <g>
      <g>
       <path class="fil1" d="M17786 16714c-40,0 -72,-32 -72,-72 0,-40 32,-72 72,-72l0 145zm919 0l-919 0 0 -145 919 0 0 145zm0 -145c40,0 72,32 72,72 0,40 -32,72 -72,72l0 -145z"/>
      </g>
      <g>
       <path class="fil1" d="M17786 17287c-40,0 -72,-32 -72,-72 0,-40 32,-72 72,-72l0 145zm919 0l-919 0 0 -145 919 0 0 145zm0 -145c40,0 72,32 72,72 0,40 -32,72 -72,72l0 -145z"/>
      </g>
      <g>
       <path class="fil1" d="M17786 17860c-40,0 -72,-32 -72,-72 0,-40 32,-72 72,-72l0 145zm919 0l-919 0 0 -145 919 0 0 145zm0 -145c40,0 72,32 72,72 0,40 -32,72 -72,72l0 -145z"/>
      </g>
      <g>
       <path class="fil1" d="M19472 16714c-40,0 -72,-32 -72,-72 0,-40 32,-72 72,-72l0 145zm919 0l-919 0 0 -145 919 0 0 145zm0 -145c40,0 72,32 72,72 0,40 -32,72 -72,72l0 -145z"/>
      </g>
      <g>
       <path class="fil1" d="M19472 17287c-40,0 -72,-32 -72,-72 0,-40 32,-72 72,-72l0 145zm919 0l-919 0 0 -145 919 0 0 145zm0 -145c40,0 72,32 72,72 0,40 -32,72 -72,72l0 -145z"/>
      </g>
      <g>
       <path class="fil1" d="M19472 17860c-40,0 -72,-32 -72,-72 0,-40 32,-72 72,-72l0 145zm919 0l-919 0 0 -145 919 0 0 145zm0 -145c40,0 72,32 72,72 0,40 -32,72 -72,72l0 -145z"/>
      </g>
      <g>
       <path class="fil1" d="M21159 16714c-40,0 -72,-32 -72,-72 0,-40 32,-72 72,-72l0 145zm919 0l-919 0 0 -145 919 0 0 145zm0 -145c40,0 72,32 72,72 0,40 -32,72 -72,72l0 -145z"/>
      </g>
      <g>
       <path class="fil1" d="M21159 17287c-40,0 -72,-32 -72,-72 0,-40 32,-72 72,-72l0 145zm919 0l-919 0 0 -145 919 0 0 145zm0 -145c40,0 72,32 72,72 0,40 -32,72 -72,72l0 -145z"/>
      </g>
      <g>
       <path class="fil1" d="M21159 17860c-40,0 -72,-32 -72,-72 0,-40 32,-72 72,-72l0 145zm919 0l-919 0 0 -145 919 0 0 145zm0 -145c40,0 72,32 72,72 0,40 -32,72 -72,72l0 -145z"/>
      </g>
     </g>
     <g>
      <g>
       <polygon class="fil1" points="21991,11609 21991,9403 22029,9403 22029,11609 "/>
      </g>
      <g>
       <polygon class="fil1" points="21858,11092 21858,10088 22162,10088 22162,11092 "/>
      </g>
      <g>
       <polygon class="fil1" points="21501,11983 21501,9777 21539,9777 21539,11983 "/>
      </g>
      <g>
       <polygon class="fil1" points="21368,11465 21368,10803 21672,10803 21672,11465 "/>
      </g>
      <g>
       <polygon class="fil1" points="21011,12176 21011,9970 21049,9970 21049,12176 "/>
      </g>
      <g>
       <polygon class="fil1" points="20878,12130 20878,11095 21182,11095 21182,12130 "/>
      </g>
      <g>
       <polygon class="fil1" points="20521,12067 20521,9861 20559,9861 20559,12067 "/>
      </g>
      <g>
       <polygon class="fil1" points="20388,11550 20388,10184 20692,10184 20692,11550 "/>
      </g>
      <g>
       <polygon class="fil1" points="20031,12271 20031,10616 20069,10616 20069,12271 "/>
      </g>
      <g>
       <polygon class="fil1" points="19898,11773 19898,11043 20202,11043 20202,11773 "/>
      </g>
      <g>
       <polygon class="fil1" points="19541,12822 19541,10854 19579,10854 19579,12822 "/>
      </g>
      <g>
       <polygon class="fil1" points="19408,12542 19408,11371 19712,11371 19712,12542 "/>
      </g>
      <g>
       <polygon class="fil1" points="19051,12220 19051,10506 19089,10506 19089,12220 "/>
      </g>
      <g>
       <polygon class="fil1" points="18918,11880 18918,10908 19222,10908 19222,11880 "/>
      </g>
      <g>
       <polygon class="fil1" points="18561,11872 18561,9819 18599,9819 18599,11872 "/>
      </g>
      <g>
       <polygon class="fil1" points="18428,11507 18428,10217 18732,10217 18732,11507 "/>
      </g>
      <g>
       <polygon class="fil1" points="18071,12419 18071,10790 18109,10790 18109,12419 "/>
      </g>
      <g>
       <polygon class="fil1" points="17938,11969 17938,11180 18242,11180 18242,11969 "/>
      </g>
      <g>
       <polygon class="fil1" points="17581,13094 17581,11456 17619,11456 17619,13094 "/>
      </g>
      <g>
       <polygon class="fil1" points="17448,12576 17448,11974 17752,11974 17752,12576 "/>
      </g>
      <g>
       <polygon class="fil1" points="17091,12704 17091,11032 17129,11032 17129,12704 "/>
      </g>
      <g>
       <polygon class="fil1" points="16958,12181 16958,11550 17262,11550 17262,12181 "/>
      </g>
      <g>
       <polygon class="fil1" points="16601,13484 16601,11456 16639,11456 16639,13484 "/>
      </g>
      <g>
       <polygon class="fil1" points="16468,13145 16468,11974 16772,11974 16772,13145 "/>
      </g>
      <g>
       <polygon class="fil1" points="16111,12861 16111,11456 16149,11456 16149,12861 "/>
      </g>
      <g>
       <polygon class="fil1" points="15978,12545 15978,11974 16282,11974 16282,12545 "/>
      </g>
      <g>
       <polygon class="fil1" points="15621,12704 15621,11236 15659,11236 15659,12704 "/>
      </g>
      <g>
       <polygon class="fil1" points="15488,12181 15488,11754 15792,11754 15792,12181 "/>
      </g>
      <g>
       <polygon class="fil1" points="15131,14265 15131,11456 15169,11456 15169,14265 "/>
      </g>
      <g>
       <polygon class="fil1" points="14998,13959 14998,11974 15302,11974 15302,13959 "/>
      </g>
      <g>
       <polygon class="fil1" points="14641,14452 14641,12245 14679,12245 14679,14452 "/>
      </g>
      <g>
       <polygon class="fil1" points="14508,13934 14508,12763 14812,12763 14812,13934 "/>
      </g>
      <g>
       <polygon class="fil1" points="14150,14850 14150,12339 14189,12339 14189,14850 "/>
      </g>
      <g>
       <polygon class="fil1" points="14017,14333 14017,12814 14322,12814 14322,14333 "/>
      </g>
      <g>
       <polygon class="fil1" points="13660,15818 13660,13781 13699,13781 13699,15818 "/>
      </g>
      <g>
       <polygon class="fil1" points="13527,15300 13527,14129 13832,14129 13832,15300 "/>
      </g>
      <g>
       <polygon class="fil1" points="13170,14025 13170,11819 13209,11819 13209,14025 "/>
      </g>
      <g>
       <polygon class="fil1" points="13037,13779 13037,12337 13342,12337 13342,13779 "/>
      </g>
      <g>
       <polygon class="fil1" points="12680,14205 12680,12000 12719,12000 12719,14205 "/>
      </g>
      <g>
       <polygon class="fil1" points="12547,13688 12547,12831 12852,12831 12852,13688 "/>
      </g>
      <g>
       <polygon class="fil1" points="12190,15037 12190,12831 12229,12831 12229,15037 "/>
      </g>
      <g>
       <polygon class="fil1" points="12057,14519 12057,13773 12362,13773 12362,14519 "/>
      </g>
      <g>
       <polygon class="fil1" points="11700,15554 11700,13349 11739,13349 11739,15554 "/>
      </g>
      <g>
       <polygon class="fil1" points="11567,15037 11567,14452 11872,14452 11872,15037 "/>
      </g>
      <g>
       <polygon class="fil1" points="11210,15249 11210,13043 11248,13043 11248,15249 "/>
      </g>
      <g>
       <polygon class="fil1" points="11077,14731 11077,14019 11381,14019 11381,14731 "/>
      </g>
      <g>
       <polygon class="fil1" points="10720,15037 10720,12831 10758,12831 10758,15037 "/>
      </g>
      <g>
       <polygon class="fil1" points="10587,14519 10587,13628 10891,13628 10891,14519 "/>
      </g>
      <g>
       <polygon class="fil1" points="10230,15581 10230,13375 10268,13375 10268,15581 "/>
      </g>
      <g>
       <polygon class="fil1" points="10097,15063 10097,13689 10401,13689 10401,15063 "/>
      </g>
      <g>
       <polygon class="fil1" points="9740,14663 9740,12457 9778,12457 9778,14663 "/>
      </g>
      <g>
       <polygon class="fil1" points="9607,14307 9607,12975 9911,12975 9911,14307 "/>
      </g>
      <g>
       <polygon class="fil1" points="9250,13756 9250,11549 9288,11549 9288,13756 "/>
      </g>
      <g>
       <polygon class="fil1" points="9117,13416 9117,12067 9421,12067 9421,13416 "/>
      </g>
      <g>
       <polygon class="fil1" points="8760,14129 8760,11923 8798,11923 8798,14129 "/>
      </g>
      <g>
       <polygon class="fil1" points="8627,13611 8627,12296 8931,12296 8931,13611 "/>
      </g>
      <g>
       <polygon class="fil1" points="8270,13671 8270,11465 8308,11465 8308,13671 "/>
      </g>
      <g>
       <polygon class="fil1" points="8137,12347 8137,11983 8441,11983 8441,12347 "/>
      </g>
      <g>
       <polygon class="fil1" points="7780,13170 7780,10964 7818,10964 7818,13170 "/>
      </g>
      <g>
       <polygon class="fil1" points="7647,12067 7647,11482 7951,11482 7951,12067 "/>
      </g>
      <g>
       <polygon class="fil1" points="7290,14647 7290,12029 7328,12029 7328,14647 "/>
      </g>
      <g>
       <polygon class="fil1" points="7157,14129 7157,12301 7461,12301 7461,14129 "/>
      </g>
      <g>
       <polygon class="fil1" points="6800,15733 6800,13527 6838,13527 6838,15733 "/>
      </g>
      <g>
       <polygon class="fil1" points="6667,13960 6667,12967 6971,12967 6971,13960 "/>
      </g>
      <g>
       <polygon class="fil1" points="6310,15580 6310,13374 6348,13374 6348,15580 "/>
      </g>
      <g>
       <polygon class="fil1" points="6177,15063 6177,13773 6481,13773 6481,15063 "/>
      </g>
     </g>
    </g>
   </g>
   <g>
    <path class="fil4" d="M27287 14602l-651 1001 -1194 0c37,-649 575,-1164 1234,-1164 222,0 431,59 612,163z"/>
    <path class="fil1" d="M27911 15675c0,234 -65,453 -179,640l-958 -659 634 -975c305,225 503,587 503,994z"/>
    <path class="fil3" d="M27650 16434c-226,290 -578,477 -974,477 -658,0 -1196,-514 -1234,-1163l1211 0 997 686z"/>
   </g>
   <g>
    <g>
     <path class="fil1" d="M21650 14936l2793 0 0 131 -2793 0 0 0 0 -131zm-229 -98l131 0 0 0 0 5 1 5 0 5 1 4 1 5 1 5 2 5 2 4 2 5 2 4 2 4 3 4 3 4 3 3 3 3 4 4 4 4 3 3 3 3 4 3 4 3 4 2 4 2 5 2 4 2 5 2 5 1 5 1 4 1 5 0 5 1 5 0 0 131 -12 0 -12 -1 -11 -1 -12 -2 -11 -3 -11 -3 -10 -3 -11 -4 -10 -5 -10 -5 -10 -6 -9 -6 -9 -6 -9 -7 -9 -8 -8 -7 -7 -8 -8 -9 -7 -9 -6 -9 -6 -9 -6 -10 -5 -10 -5 -10 -4 -11 -3 -10 -3 -11 -3 -11 -2 -12 -1 -11 -1 -12 0 -12 0 0zm131 -1914l0 1914 -131 0 0 -1914 0 0 131 0zm98 -230l0 131 0 0 -5 0 -5 1 -5 0 -4 1 -5 1 -5 1 -5 2 -4 2 -4 2 -5 2 -4 2 -4 3 -4 3 -3 3 -3 3 -3 3 -4 4 -3 3 -3 4 -3 4 -3 4 -2 4 -2 4 -2 5 -2 4 -2 5 -1 5 -1 5 -1 4 0 5 -1 5 0 5 -131 0 0 -12 1 -12 1 -11 2 -12 3 -11 3 -11 3 -10 4 -11 5 -10 5 -10 6 -10 6 -9 6 -9 7 -9 7 -8 7 -8 8 -8 9 -8 9 -7 9 -6 9 -6 10 -5 9 -5 11 -5 11 -4 10 -3 11 -3 11 -3 12 -2 11 -1 12 -1 12 0 0 0zm2793 131l-2793 0 0 -131 2793 0 0 0 0 131zm229 98l-131 0 0 0 0 -5 -1 -5 0 -5 -1 -4 -1 -5 -1 -5 -2 -5 -2 -4 -2 -5 -2 -4 -2 -4 -3 -4 -3 -4 -3 -4 -3 -3 -4 -4 -3 -3 -3 -3 -3 -3 -4 -3 -4 -3 -4 -2 -5 -2 -4 -2 -4 -2 -5 -2 -5 -1 -5 -1 -4 -1 -5 0 -5 -1 -5 0 0 -131 12 0 12 1 11 1 12 2 11 3 11 3 10 3 11 4 11 5 9 5 10 5 9 6 9 6 9 7 9 8 8 8 7 8 7 8 7 9 6 9 6 9 6 10 5 10 5 10 4 11 3 10 3 11 3 11 2 12 1 11 1 12 0 12 0 0zm-131 1914l0 -1914 131 0 0 1914 0 0 -131 0zm-98 229l0 -131 0 0 5 0 5 -1 5 0 4 -1 5 -1 5 -1 5 -2 4 -2 5 -2 4 -2 4 -2 4 -3 4 -3 3 -3 3 -3 4 -4 4 -4 3 -3 3 -3 3 -4 3 -4 2 -4 2 -4 2 -5 2 -4 2 -5 1 -5 1 -5 1 -4 0 -5 1 -5 0 -5 131 0 0 12 -1 12 -1 11 -2 12 -3 11 -3 11 -3 10 -4 11 -5 10 -5 10 -6 10 -6 9 -6 9 -7 9 -8 9 -7 8 -8 7 -9 8 -9 7 -9 6 -9 6 -10 6 -10 5 -10 5 -11 4 -10 3 -11 3 -11 3 -12 2 -11 1 -12 1 -12 0 0 0z"/>
     <path id="1" class="fil2" d="M24443 15001l-2793 0c-90,0 -164,-73 -164,-164l0 -1914c0,-90 73,-164 164,-164l2793 0c90,0 164,73 164,164l0 1914c0,90 -73,164 -164,164z"/>
    </g>
    <g>
     <path class="fil1" d="M21713 14768c-27,0 -48,-22 -48,-48 0,-27 22,-48 48,-48l0 96zm444 -400l0 96 0 0 -16 1 -15 2 -13 3 -13 4 -12 5 -12 6 -11 7 -11 8 -10 9 -10 10 -10 11 -10 12 -10 13 -10 13 -10 14 -10 14 -10 14 -11 15 -11 15 -12 14 -12 14 -13 14 -14 13 -15 13 -16 12 -17 11 -18 10 -20 9 -21 7 -22 5 -23 3 -24 1 0 -96 16 -1 15 -2 14 -3 12 -4 12 -5 11 -6 11 -7 11 -8 10 -9 10 -10 10 -11 10 -12 10 -13 10 -13 10 -14 10 -14 10 -14 11 -15 11 -15 12 -14 12 -14 13 -14 14 -13 15 -13 16 -12 17 -11 18 -10 20 -9 21 -7 22 -5 23 -3 24 -1 0 0zm0 0c27,0 48,22 48,48 0,27 -22,48 -48,48l0 -96zm444 -536l0 96 0 0 -13 1 -12 3 -11 4 -11 7 -11 9 -12 11 -11 13 -11 15 -11 17 -11 19 -11 21 -11 22 -10 23 -10 24 -10 25 -10 25 -10 25 -11 25 -11 25 -11 25 -12 24 -13 24 -13 23 -14 22 -15 21 -17 20 -18 18 -20 15 -23 13 -24 10 -26 6 -27 2 0 -96 13 -1 12 -3 11 -4 11 -7 11 -9 12 -11 11 -13 11 -15 11 -17 11 -19 11 -21 11 -22 10 -23 10 -24 10 -25 10 -25 10 -25 11 -25 11 -25 11 -25 12 -24 13 -24 13 -23 14 -22 15 -21 17 -20 18 -18 20 -15 23 -13 24 -10 26 -6 27 -2 0 0zm0 0c27,0 48,22 48,48 0,27 -22,48 -48,48l0 -96zm383 349l0 96 0 0 -25 -1 -24 -4 -22 -6 -21 -8 -19 -11 -17 -12 -16 -13 -14 -15 -13 -15 -12 -16 -11 -17 -9 -17 -9 -17 -8 -17 -8 -17 -8 -17 -7 -16 -7 -16 -7 -15 -8 -15 -8 -13 -8 -12 -8 -11 -8 -10 -8 -8 -9 -8 -9 -7 -9 -5 -11 -4 -12 -3 -13 -2 -15 -1 0 -96 25 1 24 4 22 6 21 8 19 11 17 12 16 13 14 15 13 15 12 16 11 17 9 17 9 17 8 17 8 17 8 17 7 16 7 15 7 15 8 15 8 13 8 12 8 11 8 10 8 8 9 8 9 7 9 5 11 4 12 3 13 2 15 1 0 0zm0 0c27,0 48,22 48,48 0,27 -22,48 -48,48l0 -96zm506 -915l0 96 0 0 -8 1 -9 4 -11 7 -13 12 -14 16 -14 21 -15 25 -14 29 -14 32 -14 34 -14 37 -13 39 -13 40 -13 41 -13 42 -13 43 -13 43 -13 43 -14 42 -14 42 -14 40 -15 39 -15 37 -16 35 -16 33 -18 31 -19 28 -20 25 -23 22 -26 17 -30 12 -32 4 0 -96 8 -1 9 -4 11 -7 13 -12 14 -16 14 -21 15 -25 14 -29 14 -32 14 -34 14 -37 13 -39 13 -40 13 -41 13 -42 13 -43 13 -43 13 -43 14 -42 14 -42 14 -40 15 -39 15 -37 16 -35 16 -33 18 -31 19 -28 20 -25 23 -22 26 -17 30 -12 32 -4 0 0zm0 0c27,0 48,22 48,48 0,27 -22,48 -48,48l0 -96zm445 402l0 96 0 0 -26 -2 -25 -4 -23 -7 -22 -9 -20 -12 -19 -13 -17 -15 -16 -16 -15 -17 -14 -18 -13 -18 -12 -19 -12 -19 -11 -19 -11 -19 -11 -19 -10 -19 -10 -18 -10 -18 -10 -17 -10 -16 -11 -15 -11 -14 -11 -12 -11 -11 -11 -10 -11 -8 -12 -7 -12 -5 -12 -4 -14 -2 -15 -1 0 -96 26 2 25 4 23 7 22 9 20 12 19 13 17 15 16 16 15 17 14 18 13 18 12 19 12 19 11 19 11 19 10 19 10 19 10 18 10 18 10 17 10 16 11 15 11 14 11 12 11 11 11 9 11 8 11 7 12 5 12 4 13 2 15 1 0 0zm0 0c27,0 48,22 48,48 0,27 -22,48 -48,48l0 -96zm444 -402l0 96 -15 1 -13 2 -12 4 -12 5 -11 7 -11 8 -11 9 -11 11 -11 12 -11 14 -11 15 -10 16 -10 17 -10 18 -10 18 -10 19 -11 19 -11 19 -11 19 -12 19 -12 19 -13 18 -14 18 -15 17 -16 16 -17 15 -19 13 -20 12 -22 9 -23 7 -25 4 -26 2 0 -96 15 -1 13 -2 12 -4 12 -5 11 -7 11 -8 11 -9 11 -11 11 -12 11 -14 11 -15 10 -16 10 -17 10 -18 10 -18 10 -19 10 -19 11 -19 11 -19 12 -19 12 -19 13 -18 14 -18 15 -17 16 -16 17 -15 19 -13 20 -12 22 -9 23 -7 25 -4 26 -2zm0 0c27,0 48,22 48,48 0,27 -22,48 -48,48l0 -96z"/>
    </g>
   </g>
   <g>
    <g>
     <path class="fil5" d="M15235 22341c-21,-166 -106,-318 -215,-444 -109,-126 -243,-228 -379,-325 -173,-124 -359,-245 -571,-269 -101,-12 -206,1 -294,52 -87,51 -153,144 -155,246 -2,124 87,231 183,308 97,77 208,140 284,237 98,126 123,295 203,433 76,132 204,234 349,280 130,41 357,58 456,-56 109,-123 158,-300 137,-461z"/>
     <path class="fil6" d="M15270 22352c-46,-117 -68,-248 -39,-371 33,-142 129,-261 178,-398 50,-139 53,-297 132,-422 91,-144 285,-216 447,-162 162,54 276,229 254,399 -15,118 -85,221 -117,336 -45,164 -9,343 -59,506 -42,136 -146,252 -276,308 -62,27 -128,42 -190,66 -42,16 -90,44 -136,32 -95,-26 -163,-212 -195,-294z"/>
     <path class="fil7" d="M15586 23398c64,-117 191,-197 325,-204 95,-5 188,25 283,33 105,9 213,-9 316,14 103,23 206,108 197,213 -6,77 -70,139 -143,166 -72,26 -151,24 -228,19 -77,-5 -155,-11 -229,9 -89,24 -164,83 -245,125 -87,45 -226,83 -285,-16 -61,-103 -46,-258 9,-359z"/>
     <g>
      <polygon class="fil7" points="16072,23369 16076,23404 16018,23413 15962,23429 15910,23451 15861,23479 15814,23511 15770,23548 15728,23590 15689,23635 15653,23684 15619,23736 15587,23791 15557,23847 15530,23906 15505,23965 15482,24025 15461,24086 15442,24146 15424,24206 15409,24264 15395,24322 15383,24377 15372,24429 15362,24479 15354,24526 15348,24569 15342,24607 15337,24641 15334,24669 15331,24692 15330,24709 15328,24720 15328,24723 15293,24720 15294,24717 15295,24706 15297,24689 15299,24665 15303,24636 15307,24602 15313,24563 15320,24520 15328,24473 15338,24423 15349,24370 15361,24314 15375,24256 15391,24197 15408,24136 15428,24075 15449,24013 15473,23952 15498,23891 15526,23832 15556,23774 15589,23718 15624,23664 15662,23614 15703,23566 15746,23523 15793,23484 15842,23449 15895,23420 15951,23396 16010,23379 "/>
     </g>
     <g>
      <polygon class="fil7" points="15721,21615 15754,21627 15707,21761 15663,21898 15623,22037 15586,22178 15553,22320 15522,22464 15494,22608 15469,22752 15446,22895 15426,23038 15408,23179 15393,23319 15379,23456 15368,23590 15358,23721 15350,23849 15343,23972 15338,24091 15334,24205 15331,24313 15330,24416 15328,24511 15328,24600 15329,24681 15330,24755 15331,24820 15332,24877 15333,24924 15335,24962 15336,24989 15336,25006 15337,25011 15302,25013 15302,25007 15301,24990 15300,24963 15298,24925 15297,24878 15296,24821 15295,24756 15294,24682 15293,24600 15294,24511 15295,24415 15296,24313 15299,24204 15303,24090 15308,23971 15315,23847 15323,23719 15333,23587 15345,23452 15358,23315 15374,23175 15392,23033 15412,22890 15434,22746 15460,22601 15488,22457 15519,22313 15552,22169 15590,22028 15630,21888 15674,21750 "/>
     </g>
     <g>
      <polygon class="fil7" points="14195,21740 14214,21711 14319,21784 14418,21860 14510,21940 14595,22021 14675,22105 14749,22190 14817,22277 14880,22365 14938,22453 14991,22542 15039,22630 15083,22719 15122,22806 15157,22892 15189,22977 15217,23060 15241,23141 15262,23219 15281,23294 15296,23366 15309,23434 15320,23498 15329,23558 15336,23613 15341,23663 15345,23707 15347,23746 15349,23778 15350,23804 15350,23823 15350,23835 15350,23839 15316,23838 15316,23835 15316,23824 15315,23805 15314,23780 15313,23748 15310,23710 15306,23666 15301,23617 15294,23562 15286,23503 15275,23440 15262,23373 15247,23302 15228,23228 15207,23150 15183,23071 15156,22989 15125,22905 15090,22820 15051,22733 15008,22646 14961,22559 14908,22472 14851,22384 14790,22298 14722,22212 14649,22128 14571,22046 14486,21965 14396,21887 14299,21812 "/>
     </g>
    </g>
    <g>
     <path class="fil8" d="M16044 24674l-734 0 -734 0c0,0 -120,638 217,1240l518 0 518 0c337,-602 217,-1240 217,-1240z"/>
     <path class="fil9" d="M16144 24935c-6,-162 -21,-261 -21,-261l-813 0 -813 0c0,0 -15,99 -21,261l1667 0z"/>
    </g>
   </g>
   <g>
    <polygon class="fil1" points="19048,7131 18145,7131 18145,5741 19048,5741 "/>
    <polygon class="fil1" points="18597,4865 17773,5889 19419,5889 "/>
   </g>
   <g>
    <polygon class="fil1" points="10979,9566 11881,9566 11881,10956 10979,10956 "/>
    <polygon class="fil1" points="11430,11832 12253,10808 10607,10808 "/>
   </g>
   <g>
    <path class="fil1" d="M5770 7026l-561 0c-61,0 -110,-49 -110,-110l0 -561c0,-61 49,-110 110,-110l561 0c61,0 110,49 110,110l0 561c0,61 -49,110 -110,110z"/>
    <g>
     <g>
      <path class="fil2" d="M5263 6711c-20,-22 -18,-56 4,-75 22,-20 56,-18 75,4l-79 71zm89 99l-89 -99 79 -71 89 99 -2 74 -77 -2zm79 -71c20,22 18,56 -4,75 -22,20 -56,18 -75,-4l79 -71zm282 -205l-285 279 -75 -76 285 -279 75 76zm-75 -76c21,-21 55,-20 76,1 21,21 20,55 -1,76l-75 -76z"/>
     </g>
    </g>
   </g>
   <g>
    <path class="fil1" d="M26451 18786l-561 0c-61,0 -110,-50 -110,-111l0 -561c0,-61 50,-111 110,-111l561 0c61,0 111,50 111,111l0 561c0,61 -50,111 -111,111z"/>
    <g>
     <g>
      <path class="fil2" d="M25944 18471c-20,-22 -18,-56 4,-75 22,-20 56,-18 75,4l-79 71zm89 99l-89 -99 79 -71 89 99 -2 74 -77 -2zm79 -71c20,22 18,56 -4,75 -22,20 -56,18 -75,-4l79 -71zm282 -205l-285 279 -75 -76 285 -279 75 76zm-75 -76c21,-21 55,-20 76,1 21,21 20,55 -1,76l-75 -76z"/>
     </g>
    </g>
   </g>
   <g>
    <polygon class="fil1" points="10095,7280 9785,7280 9785,6950 10095,6950 "/>
    <polygon class="fil1" points="10540,7280 10230,7280 10230,6751 10540,6751 "/>
    <polygon class="fil1" points="10985,7280 10674,7280 10674,6497 10985,6497 "/>
    <polygon class="fil1" points="11430,7280 11119,7280 11119,6176 11430,6176 "/>
   </g>
   <g>
    <polygon class="fil10" points="6645,25469 6164,25469 6116,24689 6587,24659 "/>
    <polygon class="fil10" points="4080,25452 3610,25438 3694,24753 4129,24820 "/>
    <g>
     <polygon class="fil9" points="4503,17342 3560,25161 4137,25161 5507,19471 6091,25161 6662,25161 6522,17342 "/>
    </g>
    <path class="fil10" d="M7940 14464c0,0 96,-184 88,-268 -7,-85 -24,-206 62,-336 20,-30 76,-111 76,-111 0,0 46,49 22,101 -24,52 -40,108 -40,108 0,0 42,-76 200,-122 74,-22 366,-96 366,-96 41,1 36,60 -46,98 0,0 36,37 -30,75 0,0 47,35 -46,87 0,0 37,30 -59,86 -85,51 -223,125 -253,173 -41,65 -106,287 -106,287l-234 -84z"/>
    <g>
     <path class="fil6" d="M4912 13626c0,0 -587,172 -721,207 -133,35 0,884 183,1860 182,976 129,1649 129,1649l2019 0c0,0 84,-3150 37,-3257 -84,-193 -931,-462 -931,-462l-716 2z"/>
    </g>
    <path class="fil11" d="M5030 12928c0,0 20,484 -64,678l103 195 271 165 172 -129 50 -147 0 -762 -532 0z"/>
    <g>
     <path class="fil12" d="M4815 12571c-24,-62 -22,-133 6,-194 22,-50 60,-90 84,-139 21,-42 32,-91 66,-125 34,-34 86,-45 133,-36 47,9 89,37 123,71 46,47 79,107 94,171 18,78 9,160 -7,238 -14,71 -35,144 -84,198 -39,42 -93,69 -150,74 -56,5 -138,-11 -169,-64 -15,-26 -23,-56 -37,-83 -19,-37 -44,-72 -59,-112z"/>
    </g>
    <path class="fil10" d="M5848 12158c0,0 117,1072 -196,1226 -203,100 -527,-7 -576,-484 -49,-477 166,-710 416,-742 220,-28 356,0 356,0z"/>
    <path class="fil10" d="M5069 12691c0,0 -73,-80 -143,0 -70,80 58,246 155,254l-13 -254z"/>
    <g>
     <path class="fil12" d="M5233 12311c58,8 117,1 175,8 68,9 131,38 196,61 96,35 198,57 300,46 101,-11 202,-58 262,-140 61,-84 72,-202 29,-296 -43,-94 -140,-162 -244,-171 -116,-10 -225,48 -334,88 -116,43 -240,66 -364,68 -51,1 -103,-2 -152,11 -50,12 -98,42 -117,90 -24,61 16,108 60,143 58,45 115,81 190,91z"/>
    </g>
    <path class="fil7" d="M4986 13547c0,0 67,234 354,419 -9,88 -255,266 -360,-27 -52,-145 -68,-313 -68,-313l74 -78z"/>
    <path class="fil7" d="M5340 13966c216,-149 222,-411 222,-411l66 68c0,0 49,292 -54,427 -71,92 -224,-28 -234,-84z"/>
    <path class="fil10" d="M4365 17372c0,0 204,309 291,379 88,70 155,219 155,219l-259 352c0,0 -155,-52 -204,-238 -49,-186 -96,-207 -176,-386 -81,-179 -81,-179 -81,-179l274 -147z"/>
    <g>
     <path class="fil6" d="M4161 13863c0,0 -299,18 -440,566 -140,547 -315,1448 -362,1831 -20,163 844,1586 844,1586 0,0 172,-156 325,-286 0,0 -478,-998 -478,-1363 0,0 429,-1191 442,-1551 14,-365 16,-746 -332,-784z"/>
    </g>
    <g>
     <path class="fil6" d="M6559 14085c112,17 454,779 671,1172 218,393 218,393 218,393l526 -1348c0,0 176,-28 281,126 0,0 -281,1818 -351,2021 -70,204 -288,351 -674,-133 -386,-484 -1053,-1425 -1109,-1530 -56,-105 -211,-800 437,-702z"/>
    </g>
    <path class="fil13" d="M6164 25413l449 0c0,0 49,0 197,154 147,154 575,7 737,316l-1418 0c0,0 -133,-246 35,-470z"/>
    <g>
     <path class="fil13" d="M3448 25883c-54,-180 72,-311 112,-470 25,-98 517,-159 566,56 47,206 9,414 9,414l-688 0z"/>
    </g>
    <polygon class="fil14" points="4544,18436 4451,18372 4851,17787 4944,17851 "/>
    <polygon class="fil14" points="6524,17487 4503,17487 4503,17342 6524,17342 "/>
    <polygon class="fil14" points="5507,19471 5788,18422 5603,20406 "/>
    <polygon class="fil7" points="6564,15426 6573,14656 6752,15685 "/>
    <path class="fil7" d="M4319 15391l131 -477 -48 931c0,0 -79,-407 -83,-455z"/>
   </g>
   <g>
    <g>
     <g>
      <g>
       <path class="fil9" d="M23708 25818l-934 -4090 349 0 724 4090c-4,88 -134,88 -138,0z"/>
      </g>
      <g>
       <path class="fil9" d="M21347 25818l-934 -4090 349 0 724 4090c-4,88 -134,88 -138,0z"/>
      </g>
      <g>
       <path class="fil3" d="M18113 25818l934 -4090 -349 0 -724 4090c4,88 134,88 138,0z"/>
      </g>
      <g>
       <path class="fil3" d="M24064 18489l-1901 0c-123,0 -232,76 -274,192l-929 2554c-69,190 72,391 274,391l1901 0c123,0 232,-76 274,-192l929 -2554c69,-190 -71,-391 -274,-391z"/>
      </g>
      <g>
       <path class="fil3" d="M23318 21829l-4884 0c-56,0 -102,-46 -102,-102 0,-56 45,-102 102,-102l4884 0c56,0 102,46 102,102 0,56 -46,102 -102,102z"/>
      </g>
      <g>
       <path class="fil15" d="M23318 21829l-1970 0c-56,0 -102,-46 -102,-102 0,-56 46,-102 102,-102l1970 0c56,0 102,46 102,102 0,56 -46,102 -102,102z"/>
      </g>
      <g>
       <path class="fil3" d="M20320 25818l935 -4090 -349 0 -724 4090c4,88 134,88 138,0z"/>
      </g>
     </g>
     <g>
      <path class="fil13" d="M21877 15855c0,0 -281,15 -304,319 -23,304 31,462 -100,766 -131,304 -237,712 310,750 547,37 716,14 884,145 169,131 743,-267 537,-618 -206,-351 -284,-552 -200,-823 84,-271 -93,-569 -421,-697 -275,-108 -501,-91 -707,158z"/>
     </g>
     <g>
      <path class="fil6" d="M21735 17597c0,0 77,239 -112,927 -188,686 -250,915 -427,1043 -110,79 -1354,79 -1354,79l0 -351 1095 -133c0,0 138,-679 278,-1106 48,-148 130,-530 303,-606 173,-75 217,147 217,147z"/>
     </g>
     <g>
      <g>
       <path class="fil6" d="M23141 18771c-52,388 -192,1338 -192,1338l-1455 0c0,0 44,-581 -28,-897 -13,-58 -30,-107 -52,-142 -113,-180 -214,-349 -215,-535 0,-45 6,-91 19,-139 65,-243 163,-782 285,-931 122,-150 728,-131 728,-131 0,0 793,2 1031,135 63,35 88,115 93,211 16,297 -175,797 -214,1090z"/>
      </g>
      <path class="fil7" d="M22906 18898c0,0 -1110,89 -1440,315 -13,-58 -30,-107 -52,-142 -113,-180 -214,-349 -215,-535 74,153 261,355 738,362 768,9 969,0 969,0z"/>
      <path class="fil7" d="M23141 18771c-52,388 -192,1338 -192,1338l70 -2245 336 -183c16,297 -175,797 -214,1090z"/>
     </g>
     <g>
      <path class="fil10" d="M22581 19340c0,0 -694,26 -912,40 0,0 -198,-75 -321,-84 -186,-14 -350,172 -399,351l1609 0 23 -306z"/>
      <g>
       <path class="fil6" d="M23324 17545c0,0 205,382 338,887 133,505 316,1018 147,1158 -168,140 -1249,84 -1249,84l-28 -379 823 -133c0,0 -311,-779 -360,-919 -49,-140 -86,-572 87,-647 173,-75 242,-50 242,-50z"/>
      </g>
     </g>
     <g>
      <g>
       <polygon class="fil10" points="19358,25484 19110,25484 19078,25118 19380,25088 "/>
       <g>
        <path class="fil16" d="M19358 25484c0,0 91,95 61,306 -14,100 -232,93 -599,93l-365 0c-62,0 -90,-77 -42,-117 22,-19 54,-37 97,-50 413,-128 600,-232 600,-232l248 0z"/>
       </g>
      </g>
      <path class="fil14" d="M22294 20109c-2,126 288,555 230,972 -38,274 -273,544 -821,544 -749,0 -1942,-8 -2137,0 -155,7 -229,10 -138,302 215,691 33,1868 -23,3462l-327 0c0,0 -290,-1653 -410,-2453 -187,-1245 -471,-1733 70,-1991 573,-273 2757,-835 2757,-835l799 0z"/>
      <g>
       <polygon class="fil10" points="20064,25484 19816,25484 19783,25118 20086,25088 "/>
       <g>
        <path class="fil13" d="M20064 25484c0,0 91,95 61,306 -14,100 -232,93 -599,93l-366 0c-62,0 -90,-77 -42,-117 22,-19 53,-37 97,-50 413,-128 600,-232 600,-232l248 0z"/>
       </g>
      </g>
      <g>
       <path class="fil9" d="M22949 20109c-2,126 288,555 230,972 -38,274 -273,544 -821,544 -749,0 -1937,0 -2137,0 -155,0 -229,10 -138,302 215,691 119,1882 12,3462l-328 0c0,0 -324,-1653 -444,-2453 -187,-1245 -471,-1733 70,-1991 573,-273 2590,-835 2590,-835l966 0z"/>
      </g>
     </g>
     <g>
      <g>
       <path class="fil10" d="M21835 17352c0,0 -4,310 206,488 0,0 447,-208 608,-487 0,0 -419,-46 -814,-1z"/>
       <path class="fil10" d="M21926 17344c0,0 110,-11 110,-140 0,-129 13,-375 13,-375l414 35c0,0 -35,406 32,480 67,74 67,74 67,74 0,0 -569,97 -635,-74z"/>
      </g>
      <path class="fil11" d="M22036 17151c0,0 272,42 418,-74l9 -214 -427 93 0 195z"/>
      <path class="fil10" d="M21795 16007c0,0 -365,1000 147,1113 512,112 618,-421 618,-421 0,0 132,-32 153,-146 20,-111 -134,-69 -134,-69 0,0 136,-412 -173,-550 -325,-145 -547,-69 -611,73z"/>
      <g>
       <path class="fil13" d="M21844 15884c0,0 117,562 735,599 0,0 159,-398 52,-566 -108,-168 -604,-274 -786,-33z"/>
      </g>
     </g>
    </g>
    <g>
     <g>
      <path class="fil13" d="M21280 19534l-2439 0 -584 -1605c-25,-68 26,-140 98,-140l2216 0c44,0 83,27 98,69l610 1677z"/>
     </g>
     <g>
      <path class="fil13" d="M22730 19685l-2424 0c-42,0 -76,-34 -76,-76 0,-42 34,-76 76,-76l2424 0c42,0 76,34 76,76 0,42 -34,76 -76,76z"/>
     </g>
     <g>
      <path class="fil13" d="M21272 19685l-2424 0c-42,0 -76,-34 -76,-76 0,-42 34,-76 76,-76l2424 0c42,0 76,34 76,76 0,42 -34,76 -76,76z"/>
     </g>
    </g>
   </g>
   <g>
    <path class="fil9" d="M27031 25788l-1362 -5960 509 0 1054 5960c-6,128 -195,128 -202,0z"/>
    <path class="fil9" d="M13284 25788l-1362 -5960 509 0 1054 5960c-6,128 -195,128 -202,0z"/>
    <path class="fil1" d="M7900 25788l1362 -5960 -509 0 -1054 5960c7,128 195,128 202,0z"/>
    <path class="fil1" d="M20979 25788l1362 -5960 -509 0 -1054 5960c6,128 195,128 202,0z"/>
    <path class="fil3" d="M7820 19969l19425 0c68,0 123,-55 123,-123l0 -38c0,-68 -55,-123 -123,-123l-19425 0c-68,0 -123,55 -123,123l0 38c0,68 55,123 123,123z"/>
    <path class="fil15" d="M22905 19969l4322 0c78,0 142,-63 142,-142 0,-78 -64,-142 -142,-142l-4322 0c-78,0 -142,63 -142,142 0,78 64,142 142,142z"/>
   </g>
   <g>
    <g>
     <path class="fil13" d="M11952 19534l2439 0 584 -1605c25,-68 -26,-140 -98,-140l-2217 0c-44,0 -83,27 -98,69l-610 1677z"/>
    </g>
    <g>
     <path class="fil13" d="M10503 19685l2424 0c42,0 76,-34 76,-76 0,-42 -34,-76 -76,-76l-2424 0c-42,0 -76,34 -76,76 0,42 34,76 76,76z"/>
    </g>
    <g>
     <path class="fil13" d="M11960 19685l2424 0c42,0 76,-34 76,-76 0,-42 -34,-76 -76,-76l-2424 0c-42,0 -76,34 -76,76 0,42 34,76 76,76z"/>
    </g>
   </g>
  </g>
 </g>
</svg>
