<?xml version="1.0" encoding="UTF-8"?>
<!DOCTYPE svg PUBLIC "-//W3C//DTD SVG 1.0//EN" "http://www.w3.org/TR/2001/REC-SVG-20010904/DTD/svg10.dtd">
<!-- Creator: CorelDRAW 2019 (64-Bit) -->
<svg xmlns="http://www.w3.org/2000/svg" xml:space="preserve" width="0.8in" height="0.8in" version="1.0" style="shape-rendering:geometricPrecision; text-rendering:geometricPrecision; image-rendering:optimizeQuality; fill-rule:evenodd; clip-rule:evenodd"
viewBox="0 0 15585 15585"
 xmlns:xlink="http://www.w3.org/1999/xlink">
 <defs>
  <style type="text/css">
   <![CDATA[
    .str0 {stroke:#7BA8E2;stroke-width:58;stroke-miterlimit:2.61313}
    .fil29 {fill:none}
    .fil27 {fill:#012FA0}
    .fil18 {fill:#082877}
    .fil24 {fill:#1677FF}
    .fil21 {fill:#1A42A1}
    .fil20 {fill:#1A46B5}
    .fil2 {fill:#2AB1E6}
    .fil19 {fill:#3466E2}
    .fil3 {fill:#59BFED}
    .fil23 {fill:#6D6E9A}
    .fil1 {fill:#75CAED}
    .fil0 {fill:#8CD6F6}
    .fil5 {fill:#CCEBFB}
    .fil15 {fill:#DF641D}
    .fil14 {fill:#EB820E}
    .fil16 {fill:#F6AAAC}
    .fil13 {fill:#FBA700}
    .fil11 {fill:#FDA500}
    .fil12 {fill:#FFD115}
    .fil6 {fill:white}
    .fil17 {fill:#000346;fill-rule:nonzero}
    .fil26 {fill:#2199F4;fill-rule:nonzero}
    .fil30 {fill:#7BA8E2;fill-rule:nonzero}
    .fil10 {fill:#C88262;fill-rule:nonzero}
    .fil25 {fill:#CFD1D3;fill-rule:nonzero}
    .fil22 {fill:#F6AAAC;fill-rule:nonzero}
    .fil4 {fill:url(#id0);fill-rule:nonzero}
    .fil9 {fill:url(#id1);fill-rule:nonzero}
    .fil7 {fill:url(#id2);fill-rule:nonzero}
    .fil8 {fill:url(#id3);fill-rule:nonzero}
    .fil28 {fill:url(#id4);fill-rule:nonzero}
   ]]>
  </style>
  <linearGradient id="id0" gradientUnits="userSpaceOnUse" x1="4115" y1="9026" x2="4115" y2="6256">
   <stop offset="0" style="stop-opacity:1; stop-color:#59BFED"/>
   <stop offset="1" style="stop-opacity:1; stop-color:#B3E2F9"/>
  </linearGradient>
  <linearGradient id="id1" gradientUnits="userSpaceOnUse" xlink:href="#id0" x1="11942" y1="9026" x2="11942" y2="6256">
  </linearGradient>
  <linearGradient id="id2" gradientUnits="userSpaceOnUse" xlink:href="#id0" x1="6724" y1="9026" x2="6724" y2="6256">
  </linearGradient>
  <linearGradient id="id3" gradientUnits="userSpaceOnUse" xlink:href="#id0" x1="9333" y1="9026" x2="9333" y2="6256">
  </linearGradient>
  <linearGradient id="id4" gradientUnits="userSpaceOnUse" x1="6524" y1="13151" x2="6264" y2="11629">
   <stop offset="0" style="stop-opacity:1; stop-color:#012FA0"/>
   <stop offset="0.509804" style="stop-opacity:1; stop-color:#1268CD"/>
   <stop offset="1" style="stop-opacity:1; stop-color:#23A1FB"/>
  </linearGradient>
 </defs>
 <g id="Layer_x0020_1">
  <metadata id="CorelCorpID_0Corel-Layer"/>
  <g id="_2079802471872">
   <g>
    <polygon class="fil0" points="2198,10601 13386,10601 13386,11042 2198,11042 "/>
    <polygon class="fil1" points="1586,11028 13998,11028 13998,11469 1586,11469 "/>
    <polygon class="fil1" points="974,11455 14611,11455 14611,11897 974,11897 "/>
    <polygon class="fil2" points="3128,5526 3630,5526 3630,5733 3128,5733 "/>
    <polygon class="fil0" points="3616,5526 4760,5526 4760,5733 3616,5733 "/>
    <polygon class="fil2" points="2938,5255 3630,5255 3630,5540 2938,5540 "/>
    <polygon class="fil0" points="3616,5255 4960,5255 4960,5540 3616,5540 "/>
    <polygon class="fil3" points="3262,5719 3630,5719 3630,10164 3262,10164 "/>
    <polygon class="fil4" points="3616,10164 4614,10164 4614,5719 3616,5719 "/>
    <polygon class="fil2" points="3128,10358 3630,10358 3630,10150 3128,10150 "/>
    <polygon class="fil0" points="3616,10358 4760,10358 4760,10150 3616,10150 "/>
    <polygon class="fil2" points="2938,10629 3630,10629 3630,10344 2938,10344 "/>
    <polygon class="fil0" points="3616,10629 4960,10629 4960,10344 3616,10344 "/>
    <polygon class="fil0" points="1666,5268 13919,5268 13919,4651 1666,4651 "/>
    <polygon class="fil0" points="2034,4672 13550,4672 13550,4412 7792,1373 2034,4412 "/>
    <polygon class="fil5" points="2610,4447 12975,4447 7792,1711 "/>
    <path class="fil6" d="M7792 2212c569,0 1031,462 1031,1031 0,569 -462,1031 -1031,1031 -570,0 -1031,-462 -1031,-1031 0,-569 462,-1031 1031,-1031z"/>
    <polygon class="fil2" points="5737,5526 6239,5526 6239,5733 5737,5733 "/>
    <polygon class="fil2" points="8346,5526 8848,5526 8848,5733 8346,5733 "/>
    <polygon class="fil2" points="10956,5526 11457,5526 11457,5733 10956,5733 "/>
    <polygon class="fil0" points="6225,5526 7369,5526 7369,5733 6225,5733 "/>
    <polygon class="fil0" points="8834,5526 9978,5526 9978,5733 8834,5733 "/>
    <polygon class="fil0" points="11443,5526 12587,5526 12587,5733 11443,5733 "/>
    <polygon class="fil2" points="5547,5255 6239,5255 6239,5540 5547,5540 "/>
    <polygon class="fil2" points="8156,5255 8848,5255 8848,5540 8156,5540 "/>
    <polygon class="fil2" points="10765,5255 11457,5255 11457,5540 10765,5540 "/>
    <polygon class="fil0" points="6225,5255 7569,5255 7569,5540 6225,5540 "/>
    <polygon class="fil0" points="8834,5255 10178,5255 10178,5540 8834,5540 "/>
    <polygon class="fil0" points="11443,5255 12787,5255 12787,5540 11443,5540 "/>
    <polygon class="fil3" points="5871,5719 6239,5719 6239,10164 5871,10164 "/>
    <polygon class="fil3" points="8480,5719 8848,5719 8848,10164 8480,10164 "/>
    <polygon class="fil3" points="11089,5719 11457,5719 11457,10164 11089,10164 "/>
    <polygon class="fil7" points="6225,10164 7223,10164 7223,5719 6225,5719 "/>
    <polygon class="fil8" points="8834,10164 9832,10164 9832,5719 8834,5719 "/>
    <polygon class="fil9" points="11443,10164 12441,10164 12441,5719 11443,5719 "/>
    <polygon class="fil2" points="5737,10358 6239,10358 6239,10150 5737,10150 "/>
    <polygon class="fil2" points="8346,10358 8848,10358 8848,10150 8346,10150 "/>
    <polygon class="fil2" points="10956,10358 11457,10358 11457,10150 10956,10150 "/>
    <polygon class="fil0" points="6225,10358 7369,10358 7369,10150 6225,10150 "/>
    <polygon class="fil0" points="8834,10358 9978,10358 9978,10150 8834,10150 "/>
    <polygon class="fil0" points="11445,10358 12589,10358 12589,10150 11445,10150 "/>
    <polygon class="fil2" points="5547,10629 6239,10629 6239,10344 5547,10344 "/>
    <polygon class="fil2" points="8156,10629 8848,10629 8848,10344 8156,10344 "/>
    <polygon class="fil2" points="10765,10629 11457,10629 11457,10344 10765,10344 "/>
    <polygon class="fil0" points="6225,10629 7569,10629 7569,10344 6225,10344 "/>
    <polygon class="fil0" points="8834,10629 10178,10629 10178,10344 8834,10344 "/>
    <polygon class="fil0" points="11445,10629 12790,10629 12790,10344 11445,10344 "/>
    <path class="fil10" d="M12391 11293c0,0 -29,46 -39,59 -10,13 26,21 41,8 15,-13 -2,-67 -2,-67z"/>
   </g>
   <g>
    <polygon class="fil11" points="9620,13088 12375,13088 12375,13441 9620,13441 "/>
    <polygon class="fil11" points="9969,13441 9620,13441 9620,13088 9969,13088 "/>
    <polygon class="fil12" points="9969,13088 10322,13088 10322,13441 9969,13441 "/>
    <polygon class="fil13" points="10322,13088 11592,13088 11592,13441 10322,13441 "/>
    <polygon class="fil14" points="11592,13088 12126,13088 12126,13441 11592,13441 "/>
    <polygon class="fil15" points="9754,13441 12244,13441 12244,13475 9754,13475 "/>
    <polygon class="fil11" points="9620,13475 12481,13475 12481,13828 9620,13828 "/>
    <polygon class="fil11" points="9983,13828 9620,13828 9620,13475 9983,13475 "/>
    <polygon class="fil12" points="9983,13475 10350,13475 10350,13828 9983,13828 "/>
    <polygon class="fil13" points="10350,13475 11669,13475 11669,13828 10350,13828 "/>
    <polygon class="fil14" points="11669,13475 12223,13475 12223,13828 11669,13828 "/>
    <polygon class="fil15" points="9760,13828 12345,13828 12345,13862 9760,13862 "/>
    <polygon class="fil11" points="9619,12701 12373,12701 12373,13054 9619,13054 "/>
    <polygon class="fil11" points="9968,13054 9619,13054 9619,12701 9968,12701 "/>
    <polygon class="fil12" points="9968,12701 10321,12701 10321,13054 9968,13054 "/>
    <polygon class="fil13" points="10321,12701 11591,12701 11591,13054 10321,13054 "/>
    <polygon class="fil14" points="11591,12701 12125,12701 12125,13054 11591,13054 "/>
    <polygon class="fil15" points="9753,13054 12243,13054 12243,13088 9753,13088 "/>
    <polygon class="fil11" points="10066,11927 12820,11927 12820,12280 10066,12280 "/>
    <polygon class="fil11" points="10415,12280 10066,12280 10066,11927 10415,11927 "/>
    <polygon class="fil12" points="10417,11927 10770,11927 10770,12280 10417,12280 "/>
    <polygon class="fil13" points="10769,11927 12039,11927 12039,12280 10769,12280 "/>
    <polygon class="fil14" points="12033,11927 12567,11927 12567,12280 12033,12280 "/>
    <polygon class="fil15" points="10199,12280 12688,12280 12688,12314 10199,12314 "/>
    <polygon class="fil11" points="9625,12314 12485,12314 12485,12667 9625,12667 "/>
    <polygon class="fil11" points="9978,12667 9616,12667 9616,12314 9978,12314 "/>
    <polygon class="fil12" points="9987,12314 10354,12314 10354,12667 9987,12667 "/>
    <polygon class="fil13" points="10344,12314 11663,12314 11663,12667 10344,12667 "/>
    <polygon class="fil14" points="11667,12314 12221,12314 12221,12667 11667,12667 "/>
    <polygon class="fil15" points="9760,12667 12345,12667 12345,12701 9760,12701 "/>
    <polygon class="fil11" points="11508,13082 14300,13082 14300,13441 11508,13441 "/>
    <polygon class="fil11" points="11862,13441 11508,13441 11508,13082 11862,13082 "/>
    <polygon class="fil12" points="11862,13082 12220,13082 12220,13441 11862,13441 "/>
    <polygon class="fil13" points="12220,13082 13507,13082 13507,13441 12220,13441 "/>
    <polygon class="fil14" points="13507,13082 14049,13082 14049,13441 13507,13441 "/>
    <polygon class="fil15" points="11645,13441 14168,13441 14168,13475 11645,13475 "/>
    <polygon class="fil11" points="11502,13475 14302,13475 14302,13828 11502,13828 "/>
    <polygon class="fil11" points="11857,13828 11502,13828 11502,13475 11857,13475 "/>
    <polygon class="fil12" points="11857,13475 12216,13475 12216,13828 11857,13828 "/>
    <polygon class="fil13" points="12216,13475 13507,13475 13507,13828 12216,13828 "/>
    <polygon class="fil14" points="13507,13475 14050,13475 14050,13828 13507,13828 "/>
    <polygon class="fil15" points="11639,13828 14170,13828 14170,13862 11639,13862 "/>
    <polygon class="fil11" points="11508,12690 14300,12690 14300,13048 11508,13048 "/>
    <polygon class="fil11" points="11862,13048 11508,13048 11508,12690 11862,12690 "/>
    <polygon class="fil12" points="11862,12690 12220,12690 12220,13048 11862,13048 "/>
    <polygon class="fil13" points="12220,12690 13507,12690 13507,13048 12220,13048 "/>
    <polygon class="fil14" points="13507,12690 14049,12690 14049,13048 13507,13048 "/>
    <polygon class="fil15" points="11645,13048 14168,13048 14168,13082 11645,13082 "/>
    <polygon class="fil11" points="10066,11540 12820,11540 12820,11893 10066,11893 "/>
    <polygon class="fil11" points="10415,11893 10066,11893 10066,11540 10415,11540 "/>
    <polygon class="fil12" points="10417,11540 10770,11540 10770,11893 10417,11893 "/>
    <polygon class="fil13" points="10769,11540 12039,11540 12039,11893 10769,11893 "/>
    <polygon class="fil14" points="12033,11540 12567,11540 12567,11893 12033,11893 "/>
    <polygon class="fil15" points="10199,11893 12688,11893 12688,11927 10199,11927 "/>
    <path class="fil16" d="M9144 11144l-78 71 -116 64c-15,4 -103,46 -64,55 27,6 91,0 92,2 5,35 -104,182 -104,186 5,46 80,-43 93,-58 3,-4 -38,73 -33,73 6,0 21,2 36,-15 18,-20 42,-59 49,-60 7,0 -34,73 -28,73 5,-1 14,-2 25,-15 18,-21 38,-59 45,-61 7,-2 -25,49 -19,47 5,-2 11,4 15,1 96,-99 94,-195 207,-306 63,-62 -87,-65 -119,-57z"/>
    <path class="fil17" d="M9731 13747c2,14 -21,32 -31,38 -18,12 -33,20 -53,24 -37,7 -78,10 -114,22 -42,14 -100,23 -117,66 -23,61 508,31 573,31 0,0 37,-134 -28,-199l-230 17z"/>
    <path class="fil17" d="M10379 13756c2,13 -21,31 -30,38 -17,12 -32,19 -52,23 -36,7 -76,9 -111,21 -41,14 -87,43 -103,85 0,1 21,21 51,22 126,4 459,-11 498,-11 0,0 36,-131 -27,-195l-225 17z"/>
    <path class="fil17" d="M10181 11265l-206 2500c0,0 -92,32 -243,-18 -98,-1180 -163,-1493 -84,-2535l533 53z"/>
    <path class="fil17" d="M10561 11209c117,162 9,1689 55,2539 0,0 -108,72 -238,14 -139,-882 -288,-1364 -418,-2645 173,26 428,65 601,91z"/>
    <path class="fil18" d="M10667 11570c0,0 -4,-92 22,-103 25,-11 122,-1 122,-1 0,0 26,7 29,41 2,34 2,63 2,63l-33 0c0,0 3,-51 -3,-58 -6,-7 -96,-2 -96,-2 0,0 -12,0 -13,26 -1,26 0,34 0,34l-29 0z"/>
    <polygon class="fil19" points="10336,11554 10557,11554 10557,12455 10336,12455 "/>
    <polygon class="fil20" points="10546,11554 11053,11569 11054,12455 10546,12455 "/>
    <path class="fil21" d="M11040 11569l6 0 7 78 1 809 -508 0 0 -273c280,432 462,-234 494,-613z"/>
    <path class="fil22" d="M10875 11215c0,43 8,84 23,124 11,29 18,53 20,85 1,25 19,126 -24,130 -5,0 -9,-1 -12,-4 -6,20 -37,6 -48,1 -8,19 -41,10 -52,0 -8,31 -109,0 -93,-33 4,-9 18,-6 24,-3 27,-25 31,-4 28,-52 -17,0 -62,-3 -70,15 -11,-6 17,-53 20,-65 11,-50 18,-106 36,-152 9,-23 7,-41 3,-67l146 22z"/>
    <path class="fil17" d="M10274 9585c0,0 298,-5 421,129 0,0 243,604 258,817l-47 785 -191 -11 3 -686 -104 -222c-6,544 13,836 12,1009 -253,55 -716,63 -1018,3l32 -701c-92,152 -255,430 -423,573l-139 -90 379 -692c0,0 118,-712 194,-791 41,-50 257,-137 376,-122 0,0 -33,165 87,177 134,-7 140,-116 161,-177z"/>
    <path class="fil23" d="M10015 9573l10 124 63 1142 -234 -907 84 -95 -63 -71 31 -173c23,-7 57,-19 109,-19z"/>
    <path class="fil23" d="M10295 9573l-23 112 -192 1154 323 -893 -72 -107 70 -62 -8 -185c-21,-5 -75,-19 -96,-19z"/>
    <path class="fil6" d="M9977 9573c-30,252 77,991 102,1266 8,-22 216,-1072 236,-1266 -82,-16 -185,-31 -338,0z"/>
    <path class="fil24" d="M10025 10362c22,192 44,370 54,477l4 -14 14 -57c20,-89 52,-253 86,-432l-41 -434 29 -70 -55 -72 -55 73 31 67 -67 461z"/>
    <polygon class="fil23" points="9733,10239 9885,10239 9885,10286 9733,10286 "/>
    <path class="fil22" d="M10280 9388c-20,28 -18,73 -17,107 1,31 1,63 4,93l1 11c-21,61 -31,157 -163,163 -120,-12 -87,-176 -87,-177 3,-11 5,-22 6,-34 0,-12 -1,-21 -4,-33 -2,-8 -9,-29 -5,-27l264 -104z"/>
    <path class="fil22" d="M9995 8967c0,0 -275,386 -93,517 0,0 160,108 325,-25 0,0 185,-44 131,-155 0,0 -20,-34 -59,-22l101 -167 -90 -173 -182 5 -133 19z"/>
    <path class="fil17" d="M10312 9300c-4,4 -72,80 -79,76 -10,-6 4,-33 7,-40 83,-217 -155,-119 -314,-229 -102,-70 -41,-242 34,-276 45,-20 44,12 101,37 46,20 129,-6 175,-2 54,5 213,54 201,193 94,73 -15,296 -79,266 -13,-6 -29,-29 -47,-19 2,0 4,-2 6,-2l-6 -4z"/>
   </g>
   <g>
    <path class="fil22" d="M1404 11428c4,35 32,68 24,102 -6,25 -9,44 -7,70 2,20 -3,103 32,102 4,0 7,-1 10,-5 6,15 30,1 38,-4 8,14 34,4 41,-5 10,24 88,-11 71,-35 19,-18 9,-20 5,-40 3,-2 -41,-151 -47,-163 -9,-18 -24,-33 -23,-53l-144 31z"/>
    <path class="fil17" d="M1874 13894c0,0 53,64 104,92 51,28 131,39 161,68 22,21 79,110 -133,109 -212,-2 -314,13 -337,-22 -23,-34 11,-265 11,-265 0,0 72,30 193,19z"/>
    <path class="fil17" d="M2659 13924c0,0 6,70 60,100 54,30 253,54 285,84 23,22 61,111 -254,102 -224,-6 -333,13 -357,-23 -24,-36 -6,-258 -6,-258 0,0 140,7 272,-6z"/>
    <path class="fil17" d="M1707 11098c0,0 -89,263 -77,490 12,227 125,610 101,847 -26,264 -61,758 -65,899 -4,141 17,593 17,593l215 5c130,-791 336,-1383 406,-2188 8,-89 -597,-645 -597,-645z"/>
    <path class="fil17" d="M2609 11145c0,0 118,622 134,761 15,139 -20,672 -12,759 8,87 -109,1152 -67,1281l-274 0c-78,-684 -26,-1483 -300,-2105 -105,-238 -318,-301 -382,-743 0,0 815,-93 903,47z"/>
    <path class="fil22" d="M1805 9114c0,0 172,-154 325,-37 38,29 77,21 97,73 15,39 83,136 104,186 8,19 -17,31 -11,50 31,100 27,161 -11,195 -87,78 -247,118 -337,42 -90,-76 -191,-196 -225,-289 -34,-93 17,-173 59,-220z"/>
    <path class="fil22" d="M2270 9585c0,0 13,56 36,77 24,21 -243,126 -243,126 0,0 -77,-133 -165,-236 -88,-103 372,34 372,34z"/>
    <path class="fil17" d="M2028 9601c52,-30 110,-50 134,-112 8,-22 -19,-150 -12,-156 27,-23 81,46 81,46 11,-33 92,-314 -53,-404 -10,-6 -11,14 -36,25 -22,10 -81,-19 -91,-19 -235,-16 -531,272 -169,592 51,45 80,69 147,29z"/>
    <path class="fil25" d="M2335 9740c0,0 -5,-84 -31,-90 -26,-5 -299,-3 -329,18l2 107c0,0 82,28 358,-36z"/>
    <path class="fil22" d="M2199 9346c-11,-16 -90,-65 -85,-5 4,61 76,117 97,101 22,-16 16,-56 -12,-96z"/>
    <path class="fil16" d="M3236 10119l43 -101 23 -136c-1,-16 10,-117 31,-82 15,25 31,90 34,90 37,-7 143,-166 147,-167 47,-11 -15,93 -24,112 -4,6 38,3 19,37 -14,24 -5,8 -3,14 1,3 34,3 17,31 -15,25 -6,4 -5,11 0,8 9,5 9,12 0,6 -1,17 -3,22 -64,129 -120,106 -190,255 -39,83 -94,-63 -97,-97z"/>
    <path class="fil17" d="M2335 9710c108,39 230,78 304,115 119,58 190,525 239,537 136,-89 144,-88 374,-338 9,16 162,124 148,117 -177,241 -481,623 -504,573 0,0 -266,-63 -270,-123 0,0 -1,78 -8,126 -7,48 115,989 111,1015 -3,26 -552,59 -772,35 -220,-24 -397,-75 -397,-75 101,-433 135,-588 106,-1186l-163 290 94 667 -195 76c0,0 -129,-703 -143,-762 -14,-59 21,-134 43,-182 89,-191 279,-677 394,-809 118,-48 316,-88 316,-88l322 13z"/>
    <polygon class="fil11" points="3787,12895 6579,12895 6579,13253 3787,13253 "/>
    <polygon class="fil11" points="4141,13253 3787,13253 3787,12895 4141,12895 "/>
    <polygon class="fil12" points="4141,12895 4499,12895 4499,13253 4141,13253 "/>
    <polygon class="fil13" points="4499,12895 5786,12895 5786,13253 4499,13253 "/>
    <polygon class="fil14" points="5786,12895 6328,12895 6328,13253 5786,13253 "/>
    <polygon class="fil15" points="3924,13253 6447,13253 6447,13287 3924,13287 "/>
    <polygon class="fil11" points="3479,13287 6279,13287 6279,13640 3479,13640 "/>
    <polygon class="fil11" points="3834,13640 3479,13640 3479,13287 3834,13287 "/>
    <polygon class="fil12" points="3834,13287 4193,13287 4193,13640 3834,13640 "/>
    <polygon class="fil13" points="4193,13287 5484,13287 5484,13640 4193,13640 "/>
    <polygon class="fil14" points="5484,13287 6027,13287 6027,13640 5484,13640 "/>
    <polygon class="fil15" points="3616,13640 6147,13640 6147,13674 3616,13674 "/>
    <polygon class="fil11" points="3485,12503 6277,12503 6277,12861 3485,12861 "/>
    <polygon class="fil11" points="3839,12861 3485,12861 3485,12503 3839,12503 "/>
    <polygon class="fil12" points="3839,12503 4197,12503 4197,12861 3839,12861 "/>
    <polygon class="fil13" points="4197,12503 5484,12503 5484,12861 4197,12861 "/>
    <polygon class="fil14" points="5484,12503 6026,12503 6026,12861 5484,12861 "/>
    <polygon class="fil15" points="3622,12861 6145,12861 6145,12895 3622,12895 "/>
    <path class="fil26" d="M7430 13071l-64 193 1697 602c69,24 149,10 172,-59 23,-70 -30,-136 -100,-160l-1706 -576z"/>
    <path class="fil27" d="M7439 13049l-70 213c-9,26 6,55 32,63l0 0c26,9 55,-6 63,-32l70 -213c9,-26 -6,-55 -32,-63l0 0c-26,-9 -55,6 -63,32z"/>
    <path class="fil28" d="M5734 12312c139,-196 347,-327 584,-367 236,-40 477,14 672,153 196,139 327,347 367,584 40,236 -14,477 -153,672 -139,196 -347,327 -584,367 -236,40 -477,-14 -672,-153 -195,-139 -327,-347 -367,-583 -40,-236 14,-477 153,-672zm565 -476l0 0c-265,45 -500,193 -655,412 -156,220 -217,489 -172,755 45,265 193,499 412,655 220,156 489,217 755,172 265,-45 499,-193 655,-412 156,-220 217,-489 172,-755 -45,-265 -193,-500 -412,-655 -220,-155 -489,-217 -755,-172z"/>
   </g>
  </g>
  <rect class="fil29" width="15585" height="15585"/>
  <path class="fil30 str0" d="M7498 2880l631 0 0 1c-37,57 -58,88 -63,92l-169 0c23,27 39,60 47,99l180 0c2,0 3,1 3,3 -40,61 -61,91 -62,91l-117 0c-2,31 -17,69 -45,112 -36,44 -70,73 -103,86 -61,29 -120,44 -176,44l0 1c0,4 127,155 380,451l-167 0c-247,-287 -370,-432 -370,-433l0 -87 1 -3c22,3 48,5 77,5 139,0 224,-45 258,-135 5,-13 8,-27 8,-41l-376 0c-2,0 -3,-1 -3,-2 42,-61 63,-91 64,-91l298 0 0 -1c-17,-34 -50,-61 -99,-81 -35,-11 -67,-17 -95,-17l-167 0 0 -3c40,-60 61,-90 63,-90z"/>
 </g>
</svg>
