<?xml version="1.0" encoding="UTF-8"?>
<!DOCTYPE svg PUBLIC "-//W3C//DTD SVG 1.0//EN" "http://www.w3.org/TR/2001/REC-SVG-20010904/DTD/svg10.dtd">
<!-- Creator: CorelDRAW 2019 (64-Bit) -->
<svg xmlns="http://www.w3.org/2000/svg" xml:space="preserve" width="1.15323in" height="1.08655in" version="1.0" style="shape-rendering:geometricPrecision; text-rendering:geometricPrecision; image-rendering:optimizeQuality; fill-rule:evenodd; clip-rule:evenodd"
viewBox="0 0 47217 44487"
 xmlns:xlink="http://www.w3.org/1999/xlink">
 <defs>
  <style type="text/css">
   <![CDATA[
    .str2 {stroke:#263138;stroke-width:166;stroke-miterlimit:2.61313}
    .str0 {stroke:#263138;stroke-width:166;stroke-miterlimit:10}
    .str3 {stroke:#263138;stroke-width:166;stroke-linejoin:round;stroke-miterlimit:2.61313}
    .str1 {stroke:#263138;stroke-width:166;stroke-linecap:round;stroke-linejoin:round;stroke-miterlimit:10}
    .fil2 {fill:none;fill-rule:nonzero}
    .fil3 {fill:#263138;fill-rule:nonzero}
    .fil12 {fill:#8A8A8A;fill-rule:nonzero}
    .fil5 {fill:#ABD1FD;fill-rule:nonzero}
    .fil4 {fill:#ADADAD;fill-rule:nonzero}
    .fil9 {fill:#B3DBF2;fill-rule:nonzero}
    .fil11 {fill:#C2C2C2;fill-rule:nonzero}
    .fil0 {fill:#D4F7FF;fill-rule:nonzero}
    .fil8 {fill:#DBDBDB;fill-rule:nonzero}
    .fil6 {fill:white;fill-rule:nonzero}
    .fil1 {fill:white;fill-rule:nonzero;fill-opacity:0.701961}
    .fil10 {fill:url(#id0);fill-rule:nonzero}
    .fil7 {fill:url(#id1);fill-rule:nonzero}
   ]]>
  </style>
  <linearGradient id="id0" gradientUnits="objectBoundingBox" x1="173.45%" y1="94.7003%" x2="0%" y2="20.4037%">
   <stop offset="0" style="stop-opacity:1; stop-color:#082B4F"/>
   <stop offset="1" style="stop-opacity:1; stop-color:#1A4466"/>
  </linearGradient>
  <linearGradient id="id1" gradientUnits="objectBoundingBox" xlink:href="#id0" x1="173.45%" y1="94.7003%" x2="0%" y2="20.4037%">
  </linearGradient>
 </defs>
 <g id="Layer_x0020_1">
  <metadata id="CorelCorpID_0Corel-Layer"/>
  <g id="_1821167664464">
   <g>
    <path class="fil0" d="M46116 25450c-1348,4085 -4251,8562 -8524,10019 -6456,2203 -7033,7498 -18750,7461 -1827,-5 -3523,-197 -5087,-546 -841,-188 -1644,-422 -2409,-699 -6941,-2504 -10742,-8459 -11284,-14822 -715,-8369 4981,-12591 8692,-15078 3711,-2487 7943,-11731 19462,-11786 1756,-8 3515,165 5229,559 3911,898 7936,3063 10353,6362 182,248 355,502 522,761 3261,5073 3633,12199 1795,17768z"/>
    <path class="fil1" d="M46116 25450c-1348,4085 -4251,8562 -8524,10019 -6456,2203 -7033,7498 -18750,7461 -1827,-5 -3523,-197 -5087,-546 -841,-188 -1644,-422 -2409,-699 -6941,-2504 -10742,-8459 -11284,-14822 -715,-8369 4981,-12591 8692,-15078 3711,-2487 7943,-11731 19462,-11786 1756,-8 3515,165 5229,559 3911,898 7936,3063 10353,6362 182,248 355,502 522,761 3261,5073 3633,12199 1795,17768z"/>
   </g>
   <g>
    <line class="fil2 str0" x1="2697" y1="43667" x2="46560" y2= "43667" />
   </g>
   <g id="_1821167632784">
    <g>
     <path class="fil3" d="M8443 26763l0 -1c3,-6 0,-14 -7,-16 -6,-3 -14,0 -17,7 -391,903 -666,1852 -896,2808 -222,959 -382,1932 -494,2911l-70 736c-11,123 -24,245 -33,368l-20 369c-11,246 -26,493 -33,739l7 740 8 370c5,123 14,246 23,369 19,246 34,492 56,737 47,490 121,978 197,1463 1,6 6,11 13,11 7,0 13,-6 13,-13l0 -1c-1,-246 -12,-492 -17,-737 -7,-245 -28,-489 -25,-734 1,-245 -5,-490 -8,-734l-7 -367 7 -367 3 -733 20 -732 8 -367c5,-122 14,-244 20,-366l45 -732c86,-974 220,-1945 415,-2904 195,-958 435,-1913 793,-2825z"/>
     <path class="fil3" d="M8548 30595c2,-6 -2,-14 -8,-16 -7,-2 -14,1 -16,8 -211,609 -379,1232 -522,1861 -136,630 -243,1269 -308,1913 -65,641 -137,1283 -146,1928 -10,645 0,1290 68,1934 1,6 5,11 12,12 7,1 14,-5 14,-12 74,-642 120,-1282 164,-1923 45,-640 51,-1282 93,-1922 39,-638 119,-1274 229,-1905 108,-632 242,-1261 419,-1878z"/>
     <path class="fil3" d="M10672 31943c-4,-6 -12,-8 -18,-4 -532,337 -1006,761 -1420,1238 -204,243 -393,496 -555,772l-114 215 -89 224c-32,74 -55,151 -78,227 -23,76 -49,152 -69,229 -160,616 -265,1243 -294,1874 -26,630 -14,1262 71,1887 1,6 6,11 12,11 7,0 13,-5 14,-12l162 -1868c64,-618 104,-1239 237,-1842 17,-75 39,-148 58,-223 19,-74 38,-149 65,-220l76 -216 98 -204c144,-270 320,-528 509,-773 379,-490 826,-936 1334,-1298l1 0c6,-4 7,-12 3,-17z"/>
     <path class="fil3" d="M9644 34343c-290,187 -483,481 -646,776 -155,302 -277,623 -362,951 -25,81 -45,164 -63,247l-59 248c-30,167 -53,335 -63,505 -2,170 -7,339 4,508 14,169 33,337 67,505 1,5 5,9 10,10 7,1 14,-3 16,-10 41,-167 68,-332 89,-497 26,-165 52,-328 71,-491 24,-163 46,-325 58,-489 23,-162 35,-328 70,-487 57,-324 151,-640 277,-943 126,-300 290,-599 542,-810l2 -2c5,-4 6,-11 3,-17 -4,-6 -12,-8 -18,-4z"/>
     <path class="fil3" d="M6665 36215c-70,-829 -207,-1650 -336,-2471 -130,-821 -273,-1639 -423,-2456 -155,-816 -318,-1630 -494,-2442 -1,-7 -8,-11 -15,-10 -7,1 -12,8 -10,15 142,817 270,1637 392,2458 124,820 242,1641 345,2463 101,823 180,1648 284,2469l303 2469c1,6 6,11 12,11 7,0 13,-5 14,-12 10,-208 10,-416 15,-624 2,-208 -8,-416 -12,-624 -8,-417 -43,-831 -74,-1246z"/>
     <path class="fil3" d="M6167 36203c-44,-329 -105,-655 -167,-981l-117 -484c-38,-162 -74,-323 -122,-483 -166,-643 -377,-1274 -634,-1886l-99 -228 -111 -223c-70,-150 -155,-294 -236,-438 -173,-282 -353,-565 -599,-794 -5,-5 -13,-5 -18,0 -5,5 -5,13 0,18l1 1c227,235 392,525 548,812 72,147 148,292 210,445l98 226 86 231c230,614 414,1245 553,1887 76,319 126,644 187,966l78 486c28,162 63,322 85,485 52,324 111,648 168,972 50,325 110,650 178,975 1,6 6,11 13,11 7,0 13,-6 13,-13 1,-331 -6,-663 -23,-994 -19,-331 -58,-660 -93,-990z"/>
     <path class="fil3" d="M5481 36245c-154,-435 -331,-861 -525,-1279 -199,-415 -413,-823 -661,-1211 -4,-5 -12,-8 -17,-4 -6,4 -8,12 -5,18 216,403 398,824 564,1249 168,424 320,855 447,1292 130,437 223,882 339,1321 122,438 221,881 356,1326 2,5 7,10 12,10 7,0 13,-6 13,-13 7,-463 -39,-926 -129,-1380 -81,-456 -242,-893 -395,-1328z"/>
     <path class="fil4" d="M5453 37695c-79,-273 -213,-526 -365,-766 -150,-240 -323,-468 -531,-660 -107,-93 -217,-182 -338,-255 -119,-75 -246,-138 -383,-173 -6,-1 -12,1 -15,7 -3,6 0,14 6,17l2 1c248,111 458,294 636,494 180,201 324,431 443,671 126,238 191,501 300,747 48,126 96,252 152,378 47,128 100,256 167,383l0 1c2,4 6,7 11,7 7,0 14,-5 14,-13 6,-142 -2,-283 -16,-424 -20,-139 -50,-278 -83,-415z"/>
    </g>
    <path class="fil5" d="M5504 30033c0,0 -1359,-314 -1673,-1777 -314,-1463 697,-836 -209,-3136 -906,-2300 -697,-2823 -383,-3485 314,-662 488,-453 767,418 279,871 1289,2230 1673,4774 383,2544 -174,3206 -174,3206z"/>
    <path class="fil5" d="M8187 27559c0,0 -906,-314 -941,-2021 -35,-1708 662,-1359 767,-3485 104,-2126 244,-3624 627,-3659 383,-35 1394,1045 1742,3415 348,2370 -453,3938 -1150,4635 -697,697 -1045,1115 -1045,1115z"/>
    <path class="fil5" d="M5016 32089c0,0 -209,-1254 -627,-1847 -418,-592 -1324,-1115 -1917,-2265 -592,-1150 -1254,-1708 -1220,-70 35,1638 767,2474 1673,3032 906,557 2091,1150 2091,1150z"/>
    <path class="fil5" d="M4633 34250c0,0 -836,-1603 -2056,-2788 -1220,-1185 -2195,-1777 -1847,-1185 349,592 767,558 1359,1603 592,1046 418,1812 1254,2405 836,592 1289,-35 1289,-35z"/>
    <path class="fil5" d="M4528 36306c-35,-105 -70,-871 -1254,-1498 -1185,-627 -2300,-383 -2160,-70 139,314 871,836 1603,1150 732,314 1812,418 1812,418z"/>
    <path class="fil5" d="M8117 32159c0,0 -523,-662 -244,-2056 279,-1394 906,-1046 1603,-1777 697,-732 558,-836 1254,-1603 697,-767 1324,-1185 1603,-871 279,314 -139,1289 -558,1847 -418,558 -1080,836 -1394,1533 -314,697 -174,1812 -976,2335 -801,523 -1289,592 -1289,592z"/>
    <path class="fil5" d="M9860 32542c0,0 1254,-1429 2160,-2474 906,-1045 1254,-1847 1289,-1150 35,697 314,1255 -418,2160 -732,906 -3032,1464 -3032,1464z"/>
    <path class="fil5" d="M9198 34842c0,0 -35,-558 1951,-1847 1986,-1289 2823,-1533 2613,-1011 -209,523 -1080,1045 -2021,1986 -941,941 -2544,871 -2544,871z"/>
    <g>
     <path class="fil2 str1" d="M5587 29885c0,0 -466,-2500 -954,-4277 -488,-1777 -801,-2857 -801,-2857"/>
    </g>
    <g>
     <path class="fil2 str1" d="M8107 27586c0,0 847,-2710 1126,-4347 279,-1638 -35,-2857 -174,-3589"/>
    </g>
    <g>
     <path class="fil2 str1" d="M4906 32037c0,0 -517,-923 -1284,-1829 -767,-906 -1359,-1394 -1708,-2265"/>
    </g>
    <g>
     <path class="fil2 str1" d="M8117 32159c0,0 279,-1673 941,-2544 662,-871 1986,-2230 2509,-3101"/>
    </g>
    <g>
     <path class="fil2 str1" d="M4446 36268c0,0 -1173,-763 -2009,-1182"/>
    </g>
    <path class="fil3" d="M7856 43658l-1534 0c-272,0 -517,-163 -621,-413 -501,-1201 -1839,-4667 -1033,-5650 768,-936 4076,-936 4844,0 806,983 -532,4449 -1033,5650 -104,250 -350,413 -621,413z"/>
   </g>
   <g>
    <g>
     <g>
      <path class="fil2 str2" d="M31720 5710l0 34320c0,942 -764,1706 -1706,1706l-14829 0c-942,0 -1706,-764 -1706,-1706l0 -34320c0,-942 763,-1705 1705,-1705l6365 0 5 20c159,571 524,942 929,942l232 0c405,0 770,-372 929,-942l6 -20 6363 0c942,0 1706,764 1706,1706z"/>
      <path id="1" class="fil6" d="M31720 5710l0 34320c0,942 -764,1706 -1706,1706l-14829 0c-942,0 -1706,-764 -1706,-1706l0 -34320c0,-942 763,-1705 1705,-1705l6365 0 5 20c159,571 524,942 929,942l232 0c405,0 770,-372 929,-942l6 -20 6363 0c942,0 1706,764 1706,1706z"/>
     </g>
    </g>
    <g>
     <polygon class="fil7" points="22755,18269 17019,22442 28492,22442 "/>
     <polygon class="fil7" points="28606,22894 16904,22894 16904,23715 28606,23715 "/>
     <polygon class="fil7" points="28606,30080 28179,30080 28179,24194 26810,24194 26810,30080 25031,30080 25031,24194 23662,24194 23662,30080 21883,30080 21883,24194 20514,24194 20514,30080 18735,30080 18735,24194 17366,24194 17366,30080 16904,30080 16904,30901 28606,30901 "/>
     <polygon class="fil7" points="16211,31347 16211,32502 29299,32502 29299,31347 "/>
    </g>
    <g>
     <g>
      <path class="fil2 str3" d="M31720 7307l0 -1597c0,-942 -764,-1706 -1706,-1706l-6363 0 -6 20c-159,571 -524,942 -929,942l-232 0c-405,0 -770,-372 -929,-942l-5 -20 -6365 0c-941,0 -1705,763 -1705,1705l0 1598 18240 0z"/>
      <path id="1" class="fil8" d="M31720 7307l0 -1597c0,-942 -764,-1706 -1706,-1706l-6363 0 -6 20c-159,571 -524,942 -929,942l-232 0c-405,0 -770,-372 -929,-942l-5 -20 -6365 0c-941,0 -1705,763 -1705,1705l0 1598 18240 0z"/>
     </g>
     <g>
      <path class="fil2 str3" d="M13480 39761l0 268c0,942 764,1706 1706,1706l14829 0c942,0 1706,-764 1706,-1706l0 -268 -18240 0z"/>
      <path id="1" class="fil8" d="M13480 39761l0 268c0,942 764,1706 1706,1706l14829 0c942,0 1706,-764 1706,-1706l0 -268 -18240 0z"/>
     </g>
    </g>
    <g>
     <g>
      <path class="fil2 str3" d="M32880 13907l0 -3428 -310 0 0 -4388c0,-1494 -1211,-2705 -2705,-2705l-14530 0c-1494,0 -2705,1211 -2705,2705l0 34871c0,1494 1211,2705 2705,2705l14530 0c1494,0 2705,-1211 2705,-2705l0 -24134 310 0 0 -2025 -310 0 0 -896 310 0zm-1160 25123l0 0c0,1495 -1212,2705 -2705,2705l-12830 0c-1494,0 -2705,-1211 -2705,-2705l0 -32321c0,-1493 1212,-2704 2705,-2704l5364 0 5 20c159,571 524,942 929,942l232 0c405,0 770,-372 929,-942l6 -20 5364 0c1493,0 2705,1211 2705,2704l0 32321z"/>
      <path id="1" class="fil9" d="M32880 13907l0 -3428 -310 0 0 -4388c0,-1494 -1211,-2705 -2705,-2705l-14530 0c-1494,0 -2705,1211 -2705,2705l0 34871c0,1494 1211,2705 2705,2705l14530 0c1494,0 2705,-1211 2705,-2705l0 -24134 310 0 0 -2025 -310 0 0 -896 310 0zm-1160 25123l0 0c0,1495 -1212,2705 -2705,2705l-12830 0c-1494,0 -2705,-1211 -2705,-2705l0 -32321c0,-1493 1212,-2704 2705,-2704l5364 0 5 20c159,571 524,942 929,942l232 0c405,0 770,-372 929,-942l6 -20 5364 0c1493,0 2705,1211 2705,2704l0 32321z"/>
     </g>
     <g>
      <path class="fil2 str3" d="M29648 3758l-14096 0c-1441,0 -2609,1168 -2609,2609l0 34319c0,1441 1168,2609 2609,2609l14096 0c1441,0 2609,-1168 2609,-2609l0 -34319c0,-1441 -1168,-2609 -2609,-2609zm2072 35368l0 0c0,1441 -1168,2609 -2609,2609l-13022 0c-1441,0 -2609,-1168 -2609,-2609l0 -32513c0,-1441 1168,-2608 2608,-2608l5462 0 5 20c159,571 524,942 929,942l232 0c405,0 770,-372 929,-942l6 -20 5460 0c1441,0 2609,1168 2609,2609l0 32513z"/>
      <path id="1" class="fil3" d="M29648 3758l-14096 0c-1441,0 -2609,1168 -2609,2609l0 34319c0,1441 1168,2609 2609,2609l14096 0c1441,0 2609,-1168 2609,-2609l0 -34319c0,-1441 -1168,-2609 -2609,-2609zm2072 35368l0 0c0,1441 -1168,2609 -2609,2609l-13022 0c-1441,0 -2609,-1168 -2609,-2609l0 -32513c0,-1441 1168,-2608 2608,-2608l5462 0 5 20c159,571 524,942 929,942l232 0c405,0 770,-372 929,-942l6 -20 5460 0c1441,0 2609,1168 2609,2609l0 32513z"/>
     </g>
     <path class="fil6" d="M22798 4134c0,-140 -114,-254 -254,-254 -140,0 -254,114 -254,254 0,140 114,254 254,254 140,0 254,-114 254,-254z"/>
     <g>
      <g>
       <path class="fil3" d="M15101 5107c0,257 -289,349 -290,546l0 13 280 0 0 86 -374 0 0 -73c0,-275 289,-329 289,-569 0,-88 -29,-134 -100,-134 -69,0 -100,50 -100,125l0 76 -89 0 0 -69c0,-130 60,-217 191,-217 133,0 192,85 192,215z"/>
       <path class="fil3" d="M15568 5106l0 22c0,88 -35,150 -103,175 72,27 103,91 103,177l0 66c0,130 -61,216 -192,216 -130,0 -191,-85 -191,-216l0 -59 89 0 0 65c0,77 32,123 100,123 69,0 100,-45 100,-131l0 -66c0,-84 -35,-124 -107,-127l-51 0 0 -85 56 0c63,-2 102,-43 102,-117l0 -39c0,-88 -30,-133 -100,-133 -68,0 -100,47 -100,124l0 44 -89 0 0 -39c0,-130 61,-214 191,-214 132,0 192,84 192,214z"/>
       <path class="fil3" d="M15752 5170l0 118 -91 0 0 -118 91 0zm0 464l0 0 0 118 -91 0 0 -118 91 0z"/>
       <path class="fil3" d="M15944 5247c27,-46 69,-71 127,-71 110,0 158,80 158,202l0 167c0,130 -62,216 -192,216 -130,0 -191,-85 -191,-216l0 -57 89 0 0 63c0,77 32,123 100,123 68,0 100,-46 100,-123l0 -166c0,-77 -32,-123 -100,-123 -52,0 -88,29 -96,91l0 20 -89 0 23 -474 336 0 0 85 -251 0 -13 262z"/>
       <path class="fil3" d="M16703 5104l0 16 -89 0 0 -22c0,-77 -32,-122 -101,-122 -72,0 -103,46 -103,137l0 191c23,-58 69,-91 138,-91 109,0 158,79 158,202l0 129c0,130 -65,216 -195,216 -132,0 -196,-85 -196,-216l0 -435c0,-135 61,-219 196,-219 132,0 192,83 192,213zm-293 319l0 0 0 128c0,77 32,123 101,123 68,0 101,-46 101,-123l0 -128c0,-77 -33,-123 -101,-123 -69,0 -101,46 -101,123z"/>
      </g>
      <g>
       <polygon class="fil3" points="26008,5743 25767,5743 25767,5142 26008,5142 "/>
       <polygon class="fil3" points="26328,5743 26088,5743 26088,5021 26328,5021 "/>
       <polygon class="fil3" points="26649,5743 26409,5743 26409,4936 26649,4936 "/>
       <polygon class="fil3" points="26970,5743 26730,5743 26730,4787 26970,4787 "/>
       <g>
        <g>
         <path class="fil3" d="M29948 5727l-1444 0 0 -882 1444 0 0 882zm-1364 -80l0 0 1283 0 0 -722 -1283 0 0 722z"/>
        </g>
        <g>
         <polygon class="fil3" points="29467,5559 28705,5559 28705,5012 29467,5012 "/>
        </g>
        <g>
         <polygon class="fil3" points="30080,5390 29898,5390 29898,5182 30080,5182 "/>
        </g>
       </g>
       <g>
        <path class="fil3" d="M27975 5535c-9,0 -19,-2 -28,-8 -294,-175 -488,-13 -496,-6 -22,20 -56,17 -76,-5 -20,-22 -17,-56 5,-76 10,-9 259,-222 622,-6 25,15 34,48 19,74 -10,17 -28,26 -46,26z"/>
       </g>
       <g>
        <path class="fil3" d="M28084 5354c-9,0 -19,-2 -28,-8 -425,-253 -710,-8 -713,-6 -22,20 -56,17 -76,-5 -20,-22 -18,-56 5,-76 3,-3 348,-298 840,-6 26,15 34,48 19,74 -10,17 -28,26 -46,26z"/>
       </g>
       <g>
        <path class="fil3" d="M28182 5144c-9,0 -19,-2 -28,-8 -538,-320 -896,-19 -911,-6 -22,20 -56,17 -76,-5 -20,-22 -17,-56 5,-76 4,-4 429,-367 1037,-6 26,15 34,48 19,74 -10,17 -28,26 -46,26z"/>
       </g>
       <g>
        <path class="fil3" d="M27813 5625c0,75 -61,135 -135,135 -75,0 -135,-61 -135,-135 0,-75 61,-135 135,-135 75,0 135,60 135,135z"/>
       </g>
      </g>
     </g>
    </g>
   </g>
   <g>
    <polygon class="fil7" points="19486,35127 19486,34646 19249,33914 19481,33914 19612,34341 19733,33914 19958,33914 19724,34646 19724,35127 "/>
    <path class="fil10" d="M20380 35144c-89,0 -159,-16 -211,-48 -52,-32 -89,-78 -112,-137 -22,-59 -34,-131 -34,-214l0 -452c0,-83 11,-154 34,-213 23,-59 60,-104 112,-135 52,-31 122,-46 211,-46 90,0 161,16 213,47 52,31 90,76 112,135 22,59 34,129 34,212l0 452c0,83 -11,154 -34,214 -23,59 -60,105 -112,137 -52,32 -124,48 -213,48zm0 -178l0 0c32,0 55,-7 70,-22 15,-15 25,-34 30,-59 5,-25 8,-51 8,-79l0 -574c0,-28 -3,-54 -8,-78 -5,-24 -15,-43 -30,-58 -15,-15 -38,-22 -70,-22 -30,0 -53,7 -68,22 -15,15 -25,34 -30,58 -5,24 -7,50 -7,78l0 574c0,28 2,54 7,79 5,25 14,44 29,59 15,15 38,22 69,22z"/>
    <path class="fil10" d="M21246 35144c-92,0 -163,-16 -214,-47 -51,-32 -87,-77 -107,-136 -20,-59 -31,-132 -31,-216l0 -830 244 0 0 864c0,30 2,59 7,88 5,29 15,52 30,70 15,18 39,27 71,27 33,0 57,-9 73,-27 15,-18 25,-41 29,-70 4,-29 6,-58 6,-88l0 -864 244 0 0 830c0,85 -10,157 -31,216 -20,59 -56,105 -107,136 -51,31 -122,47 -214,47z"/>
    <path class="fil7" d="M21770 35127l0 -1213 315 0c82,0 152,9 210,28 59,19 103,51 135,98 31,47 47,112 47,195 0,50 -4,94 -13,133 -9,38 -24,72 -45,100 -22,29 -52,51 -91,68l168 592 -253 0 -139 -550 -87 0 0 550 -247 0zm247 -697l0 0 72 0c40,0 71,-7 94,-20 23,-13 39,-33 49,-59 10,-26 14,-59 14,-98 0,-56 -10,-99 -31,-128 -20,-29 -59,-44 -115,-44l-84 0 0 349z"/>
    <path class="fil7" d="M23014 35127l0 -1213 307 0c53,0 102,5 147,14 45,9 85,25 119,48 34,23 61,55 79,95 19,40 28,93 28,158 0,49 -7,91 -21,125 -14,34 -34,62 -60,82 -26,20 -58,34 -96,40 47,7 86,23 118,48 32,25 56,58 72,99 16,41 24,90 24,148 0,61 -8,114 -23,159 -16,45 -38,82 -68,111 -30,29 -67,51 -111,65 -44,14 -95,22 -153,22l-363 0zm247 -724l0 0 61 0c43,0 75,-6 97,-19 22,-12 37,-31 46,-57 9,-25 13,-57 13,-94 0,-37 -6,-67 -19,-89 -13,-22 -32,-39 -57,-49 -25,-10 -58,-15 -97,-15l-45 0 0 322zm0 550l0 0 69 0c62,0 105,-15 128,-46 24,-31 35,-77 35,-139 0,-48 -5,-86 -17,-115 -11,-29 -29,-49 -53,-63 -25,-13 -57,-20 -98,-20l-64 0 0 383z"/>
    <path class="fil7" d="M23811 35127l235 -1213 274 0 234 1213 -229 0 -44 -267 -192 0 -46 267 -232 0zm301 -418l0 0 145 0 -74 -490 -72 490z"/>
    <polygon class="fil7" points="24668,35127 24668,33914 24840,33914 25110,34546 25110,33914 25313,33914 25313,35127 25149,35127 24879,34456 24879,35127 "/>
    <polygon class="fil7" points="25498,35127 25498,33914 25745,33914 25745,34426 25963,33914 26203,33914 25976,34459 26220,35127 25971,35127 25784,34584 25745,34652 25745,35127 "/>
   </g>
   <g>
    <g>
     <path class="fil2 str2" d="M35406 26414c0,0 47,7150 71,7244 24,94 -142,1133 -94,2194 47,1062 519,4531 519,4531l-378 496 283 873c0,0 -307,1015 -566,1463 -260,448 -543,661 -283,897 260,236 1038,142 1298,118 260,-24 496,-47 590,-212 94,-165 189,-637 283,-1038 94,-401 71,-755 71,-897 0,-142 71,-448 142,-708 71,-260 -142,-967 -142,-1109 0,-142 307,-6064 307,-6064l708 -4224 260 401 330 3823 260 1675c0,0 -24,1557 94,2077 118,519 330,2525 330,2525 0,0 -307,307 -330,496 -24,189 165,637 165,637 0,0 -71,94 -24,260 47,165 94,425 94,425 0,0 -260,1321 -94,1487 165,165 732,425 849,472 118,47 849,189 1062,142 212,-47 519,-47 401,-425 -118,-378 -496,-826 -566,-991 -71,-165 -236,-732 -236,-732 0,0 212,-614 189,-684 -24,-71 -24,-614 -71,-802 -47,-189 -189,-354 -189,-519 0,-165 614,-3162 472,-3728 -142,-566 -94,-2855 -94,-2855l-142 -6112 -71 -637 -5498 -496z"/>
     <path id="1" class="fil3" d="M35406 26414c0,0 47,7150 71,7244 24,94 -142,1133 -94,2194 47,1062 519,4531 519,4531l-378 496 283 873c0,0 -307,1015 -566,1463 -260,448 -543,661 -283,897 260,236 1038,142 1298,118 260,-24 496,-47 590,-212 94,-165 189,-637 283,-1038 94,-401 71,-755 71,-897 0,-142 71,-448 142,-708 71,-260 -142,-967 -142,-1109 0,-142 307,-6064 307,-6064l708 -4224 260 401 330 3823 260 1675c0,0 -24,1557 94,2077 118,519 330,2525 330,2525 0,0 -307,307 -330,496 -24,189 165,637 165,637 0,0 -71,94 -24,260 47,165 94,425 94,425 0,0 -260,1321 -94,1487 165,165 732,425 849,472 118,47 849,189 1062,142 212,-47 519,-47 401,-425 -118,-378 -496,-826 -566,-991 -71,-165 -236,-732 -236,-732 0,0 212,-614 189,-684 -24,-71 -24,-614 -71,-802 -47,-189 -189,-354 -189,-519 0,-165 614,-3162 472,-3728 -142,-566 -94,-2855 -94,-2855l-142 -6112 -71 -637 -5498 -496z"/>
    </g>
    <g>
     <g>
      <path class="fil2 str2" d="M37653 17005l-453 172 -374 4214 -1623 4947c0,0 437,562 1202,1077 765,515 1483,733 1483,733l328 -765 94 796c0,0 671,-47 1124,-109 453,-62 1436,-281 1436,-281l-609 -7366 281 -3230 -2887 -187z"/>
      <path id="1" class="fil6" d="M37653 17005l-453 172 -374 4214 -1623 4947c0,0 437,562 1202,1077 765,515 1483,733 1483,733l328 -765 94 796c0,0 671,-47 1124,-109 453,-62 1436,-281 1436,-281l-609 -7366 281 -3230 -2887 -187z"/>
     </g>
     <g>
      <line class="fil2 str0" x1="38714" y1="18831" x2="38605" y2= "20345" />
     </g>
     <g>
      <line class="fil2 str0" x1="38259" y1="26221" x2="38246" y2= "26618" />
     </g>
     <g>
      <line class="fil2 str0" x1="38371" y1="22701" x2="38269" y2= "25906" />
     </g>
     <g>
      <line class="fil2 str0" x1="36202" y1="24808" x2="37481" y2= "25978" />
     </g>
     <g>
      <line class="fil2 str0" x1="36327" y1="24636" x2="37357" y2= "25058" />
     </g>
    </g>
    <g>
     <path class="fil2 str2" d="M37781 16701c0,0 -219,39 -271,116 -52,78 -103,361 -103,400 0,39 -39,1536 -39,1536l968 -568 749 -64 852 813c0,0 400,-1497 310,-1820 -90,-323 -465,-529 -529,-555 -65,-26 -1988,39 -1936,142z"/>
     <path id="1" class="fil6" d="M37781 16701c0,0 -219,39 -271,116 -52,78 -103,361 -103,400 0,39 -39,1536 -39,1536l968 -568 749 -64 852 813c0,0 400,-1497 310,-1820 -90,-323 -465,-529 -529,-555 -65,-26 -1988,39 -1936,142z"/>
    </g>
    <g>
     <g>
      <path class="fil2 str2" d="M37703 16326c0,0 -129,904 -13,1071 116,168 981,1239 1071,1175 90,-64 775,-891 865,-1007 90,-116 206,-491 206,-491l0 -645 -2130 -103z"/>
      <path id="1" class="fil11" d="M37703 16326c0,0 -129,904 -13,1071 116,168 981,1239 1071,1175 90,-64 775,-891 865,-1007 90,-116 206,-491 206,-491l0 -645 -2130 -103z"/>
     </g>
     <g>
      <path class="fil2 str2" d="M38550 17460l-859 -62c0,0 -31,-225 -37,-393 -6,-168 86,-521 86,-521l810 976z"/>
      <path id="1" class="fil3" d="M38550 17460l-859 -62c0,0 -31,-225 -37,-393 -6,-168 86,-521 86,-521l810 976z"/>
     </g>
    </g>
    <g>
     <g>
      <path class="fil2 str2" d="M40428 13453c0,0 -4,37 -10,103 -48,474 -330,2710 -462,2973 -151,300 -805,858 -927,940 -122,82 -251,73 -478,-8 -227,-81 -1018,-1147 -1045,-1317 -27,-170 -27,-2344 -36,-2578 -9,-234 93,-576 476,-872 384,-296 1127,-372 1625,-104 0,0 794,303 857,864z"/>
      <path id="1" class="fil11" d="M40428 13453c0,0 -4,37 -10,103 -48,474 -330,2710 -462,2973 -151,300 -805,858 -927,940 -122,82 -251,73 -478,-8 -227,-81 -1018,-1147 -1045,-1317 -27,-170 -27,-2344 -36,-2578 -9,-234 93,-576 476,-872 384,-296 1127,-372 1625,-104 0,0 794,303 857,864z"/>
     </g>
     <g>
      <path class="fil2 str2" d="M37469 13565c-9,-234 93,-576 476,-872 384,-296 1127,-372 1625,-104 0,0 794,303 857,864 0,0 -4,37 -10,103 -22,215 -76,738 -141,1269l-26 13c0,0 -107,-137 -111,-254 -5,-117 -74,-963 -74,-963 0,0 -547,414 -1002,433 -454,19 -1177,-550 -1177,-550 0,0 -80,758 -125,845 -36,70 -214,468 -281,619 -5,-622 -7,-1281 -12,-1403z"/>
      <path id="1" class="fil3" d="M37469 13565c-9,-234 93,-576 476,-872 384,-296 1127,-372 1625,-104 0,0 794,303 857,864 0,0 -4,37 -10,103 -22,215 -76,738 -141,1269l-26 13c0,0 -107,-137 -111,-254 -5,-117 -74,-963 -74,-963 0,0 -547,414 -1002,433 -454,19 -1177,-550 -1177,-550 0,0 -80,758 -125,845 -36,70 -214,468 -281,619 -5,-622 -7,-1281 -12,-1403z"/>
     </g>
     <g>
      <path class="fil2 str0" d="M39892 15330c0,0 -515,-37 -664,56"/>
     </g>
     <g>
      <path class="fil2 str0" d="M38700 15348c0,0 -364,-156 -632,-32"/>
     </g>
     <g>
      <path class="fil2 str0" d="M38612 15678c0,0 -285,187 -529,-25"/>
     </g>
     <g>
      <path class="fil2 str0" d="M39696 15717c0,0 -205,153 -453,6"/>
     </g>
     <g>
      <path class="fil2 str0" d="M39169 16404c0,0 -144,210 -309,159 -165,-50 -296,-202 -296,-202"/>
     </g>
     <g>
      <path class="fil2 str0" d="M39343 16675c0,0 -290,251 -544,194 -255,-57 -380,-299 -380,-299"/>
     </g>
     <g>
      <path class="fil2 str2" d="M40277 14825c0,0 190,-295 245,32 54,327 -344,648 -344,648l99 -681z"/>
      <path id="1" class="fil11" d="M40277 14825c0,0 190,-295 245,32 54,327 -344,648 -344,648l99 -681z"/>
     </g>
     <g>
      <path class="fil2 str2" d="M37479 14692c0,0 -131,-346 -253,-83 -122,263 258,730 258,730l-5 -647z"/>
      <path id="1" class="fil11" d="M37479 14692c0,0 -131,-346 -253,-83 -122,263 258,730 258,730l-5 -647z"/>
     </g>
    </g>
    <g>
     <g>
      <path class="fil2 str2" d="M37470 16987c0,0 -31,3836 -93,4300 -62,464 -727,2692 -1098,3218 -371,526 -495,727 -495,727l-309 990 31 541 -944 0c0,0 -572,-1176 -712,-1856 -139,-681 -170,-1299 -62,-1733 108,-433 1346,-4300 1361,-4393 15,-93 -108,-1021 0,-1145 108,-124 2320,-650 2320,-650z"/>
      <path id="1" class="fil5" d="M37470 16987c0,0 -31,3836 -93,4300 -62,464 -727,2692 -1098,3218 -371,526 -495,727 -495,727l-309 990 31 541 -944 0c0,0 -572,-1176 -712,-1856 -139,-681 -170,-1299 -62,-1733 108,-433 1346,-4300 1361,-4393 15,-93 -108,-1021 0,-1145 108,-124 2320,-650 2320,-650z"/>
     </g>
     <g>
      <path class="fil2 str2" d="M34317 26131c0,0 -387,3343 -341,3582 46,239 501,626 1137,569 637,-57 955,-671 955,-671l-650 -3481 -1101 2z"/>
      <path id="1" class="fil12" d="M34317 26131c0,0 -387,3343 -341,3582 46,239 501,626 1137,569 637,-57 955,-671 955,-671l-650 -3481 -1101 2z"/>
     </g>
     <g>
      <path class="fil2 str2" d="M33976 29713c27,139 193,329 453,451 -21,-77 -45,-167 -69,-274 -79,-353 387,-3296 387,-3296l-93 -463 -337 0c0,0 -387,3343 -341,3582z"/>
      <path id="1" class="fil12" d="M33976 29713c27,139 193,329 453,451 -21,-77 -45,-167 -69,-274 -79,-353 387,-3296 387,-3296l-93 -463 -337 0c0,0 -387,3343 -341,3582z"/>
     </g>
     <g>
      <path class="fil2 str0" d="M34260 23163c0,0 876,-68 1240,273"/>
     </g>
     <g>
      <path class="fil2 str0" d="M34670 22890c0,0 443,23 728,250"/>
     </g>
     <g>
      <line class="fil2 str0" x1="35353" y1="20760" x2="35386" y2= "21173" />
     </g>
     <g>
      <line class="fil2 str0" x1="35182" y1="18660" x2="35325" y2= "20414" />
     </g>
     <g>
      <path class="fil2 str0" d="M36882 17172c0,0 -186,1841 -155,2444 31,603 387,2413 402,2491"/>
     </g>
    </g>
    <g>
     <g>
      <polygon class="fil2 str2" points="36294,17281 34747,26593 35289,26578 36727,17203 "/>
      <polygon id="1" class="fil12" points="36294,17281 34747,26593 35289,26578 36727,17203 "/>
     </g>
     <g>
      <path class="fil2 str2" d="M35152 24079c0,0 -533,205 -574,287 -41,82 -420,697 -400,779 20,82 482,502 482,502 0,0 410,410 502,400 92,-10 256,-62 103,-267 -154,-205 -338,-379 -338,-379l226 -1322z"/>
      <path id="1" class="fil11" d="M35152 24079c0,0 -533,205 -574,287 -41,82 -420,697 -400,779 20,82 482,502 482,502 0,0 410,410 502,400 92,-10 256,-62 103,-267 -154,-205 -338,-379 -338,-379l226 -1322z"/>
     </g>
     <g>
      <line class="fil2 str0" x1="34927" y1="25401" x2="34609" y2= "24827" />
     </g>
     <g>
      <path class="fil2 str2" d="M34260 25258c0,0 -113,349 -62,400 51,51 472,338 543,410 72,72 328,174 389,103 62,-72 31,-123 31,-123 0,0 -184,-123 -215,-154 -31,-31 -687,-636 -687,-636z"/>
      <path id="1" class="fil11" d="M34260 25258c0,0 -113,349 -62,400 51,51 472,338 543,410 72,72 328,174 389,103 62,-72 31,-123 31,-123 0,0 -184,-123 -215,-154 -31,-31 -687,-636 -687,-636z"/>
     </g>
     <g>
      <path class="fil2 str2" d="M34353 25811c0,0 10,318 123,400 113,82 461,174 543,164 82,-10 113,-205 113,-205 0,0 -236,41 -389,-103 -154,-143 -390,-256 -390,-256z"/>
      <path id="1" class="fil11" d="M34353 25811c0,0 10,318 123,400 113,82 461,174 543,164 82,-10 113,-205 113,-205 0,0 -236,41 -389,-103 -154,-143 -390,-256 -390,-256z"/>
     </g>
     <g>
      <path class="fil2 str2" d="M34476 26211c0,0 -10,103 72,195 82,92 318,185 410,185 92,0 -20,-215 -20,-215l-461 -164z"/>
      <path id="1" class="fil11" d="M34476 26211c0,0 -10,103 72,195 82,92 318,185 410,185 92,0 -20,-215 -20,-215l-461 -164z"/>
     </g>
     <g>
      <path class="fil2 str2" d="M35634 24356c0,0 328,379 420,441 92,61 143,492 154,584 10,92 -789,748 -789,748l-82 -10 297 -1763z"/>
      <path id="1" class="fil11" d="M35634 24356c0,0 328,379 420,441 92,61 143,492 154,584 10,92 -789,748 -789,748l-82 -10 297 -1763z"/>
     </g>
     <g>
      <path class="fil2 str0" d="M35398 25801c0,0 318,-533 543,-656"/>
     </g>
    </g>
    <g>
     <path class="fil2 str2" d="M40178 16855c0,0 -579,1912 -632,2930 -53,1018 18,4614 18,4614l281 3263c0,0 386,421 982,614 597,193 1000,298 1000,298l-649 -4912 140 -930 2175 -17c0,0 -491,-3070 -596,-3632 -105,-561 -281,-1404 -456,-1456 -176,-53 -2263,-772 -2263,-772z"/>
     <path id="1" class="fil5" d="M40178 16855c0,0 -579,1912 -632,2930 -53,1018 18,4614 18,4614l281 3263c0,0 386,421 982,614 597,193 1000,298 1000,298l-649 -4912 140 -930 2175 -17c0,0 -491,-3070 -596,-3632 -105,-561 -281,-1404 -456,-1456 -176,-53 -2263,-772 -2263,-772z"/>
    </g>
    <g>
     <path class="fil2 str0" d="M40810 17188c0,0 -245,1263 -526,2246 -281,982 -719,2123 -719,2123"/>
    </g>
    <g>
     <line class="fil2 str0" x1="40704" y1="19978" x2="41213" y2= "22399" />
    </g>
    <g>
     <path class="fil2 str0" d="M42335 17801c0,0 -562,1389 -702,2575"/>
    </g>
    <g>
     <path class="fil2 str0" d="M41578 21761c-20,127 -34,236 -39,316"/>
    </g>
    <g>
     <path class="fil2 str0" d="M41929 20048c0,0 -200,862 -314,1500"/>
    </g>
    <g>
     <g>
      <path class="fil2 str2" d="M40775 24171l-234 -1345 577 62c0,0 -140,1113 -343,1282z"/>
      <path id="1" class="fil6" d="M40775 24171l-234 -1345 577 62c0,0 -140,1113 -343,1282z"/>
     </g>
     <g>
      <line class="fil2 str0" x1="42827" y1="22399" x2="40880" y2= "22171" />
     </g>
     <path class="fil5" d="M43424 22364l-2544 -193c0,0 35,930 -18,1404 -53,474 -88,596 -88,596 0,0 1544,70 2070,-35 526,-105 790,-298 842,-632 53,-333 -263,-1140 -263,-1140z"/>
     <g>
      <path class="fil2 str0" d="M40880 22171c0,0 35,930 -18,1404 -53,474 -88,596 -88,596 0,0 1544,70 2070,-35 526,-105 790,-298 842,-632 53,-333 -263,-1140 -263,-1140"/>
     </g>
     <g>
      <polygon class="fil2 str2" points="38835,21905 38522,20694 39812,20748 40046,21999 "/>
      <polygon id="1" class="fil3" points="38835,21905 38522,20694 39812,20748 40046,21999 "/>
     </g>
     <g>
      <g>
       <path class="fil2 str2" d="M40880 22171l-302 -383c0,0 -180,-313 -219,-391 -39,-78 -484,-195 -484,-195l86 414c0,0 -672,39 -797,16 -125,-23 -234,-47 -242,63 -8,109 0,156 141,172 141,16 649,109 649,109 0,0 -719,-23 -805,-47 -86,-23 -336,-117 -359,-16 -23,102 0,141 31,164 31,24 188,102 188,102 0,0 -55,156 0,234 55,78 359,258 398,274 39,16 211,211 320,313 109,102 258,86 414,86 156,0 344,-47 414,-55 70,-8 586,55 586,55l-18 -914z"/>
       <path id="1" class="fil11" d="M40880 22171l-302 -383c0,0 -180,-313 -219,-391 -39,-78 -484,-195 -484,-195l86 414c0,0 -672,39 -797,16 -125,-23 -234,-47 -242,63 -8,109 0,156 141,172 141,16 649,109 649,109 0,0 -719,-23 -805,-47 -86,-23 -336,-117 -359,-16 -23,102 0,141 31,164 31,24 188,102 188,102 0,0 -55,156 0,234 55,78 359,258 398,274 39,16 211,211 320,313 109,102 258,86 414,86 156,0 344,-47 414,-55 70,-8 586,55 586,55l-18 -914z"/>
      </g>
      <g>
       <path class="fil2 str0" d="M39710 21975c0,0 219,31 281,8 63,-24 94,-133 70,-242"/>
      </g>
      <g>
       <path class="fil2 str0" d="M38765 22178c0,0 461,164 602,226 141,63 539,47 570,47"/>
      </g>
      <g>
       <path class="fil2 str0" d="M39163 22686c0,0 344,109 406,125 63,16 281,0 281,0"/>
      </g>
     </g>
    </g>
   </g>
  </g>
 </g>
</svg>
