<?xml version="1.0" encoding="UTF-8"?>
<!DOCTYPE svg PUBLIC "-//W3C//DTD SVG 1.0//EN" "http://www.w3.org/TR/2001/REC-SVG-20010904/DTD/svg10.dtd">
<!-- Creator: CorelDRAW 2019 (64-Bit) -->
<svg xmlns="http://www.w3.org/2000/svg" xml:space="preserve" width="1.26719in" height="1.13136in" version="1.0" style="shape-rendering:geometricPrecision; text-rendering:geometricPrecision; image-rendering:optimizeQuality; fill-rule:evenodd; clip-rule:evenodd"
viewBox="0 0 68399 61068"
 xmlns:xlink="http://www.w3.org/1999/xlink">
 <defs>
  <style type="text/css">
   <![CDATA[
    .str2 {stroke:#263138;stroke-width:146;stroke-miterlimit:2.61313}
    .str3 {stroke:#263138;stroke-width:146;stroke-miterlimit:10}
    .str5 {stroke:#263138;stroke-width:292;stroke-linecap:round;stroke-miterlimit:10}
    .str1 {stroke:#263138;stroke-width:146;stroke-linecap:round;stroke-miterlimit:10}
    .str4 {stroke:#A6A6A6;stroke-width:146;stroke-linecap:round;stroke-miterlimit:10}
    .str0 {stroke:#92989B;stroke-width:146;stroke-linecap:round;stroke-linejoin:round;stroke-miterlimit:10}
    .fil2 {fill:none;fill-rule:nonzero}
    .fil5 {fill:#032B5B;fill-rule:nonzero}
    .fil6 {fill:#263138;fill-rule:nonzero}
    .fil15 {fill:#4F4F4F;fill-rule:nonzero}
    .fil9 {fill:#878787;fill-rule:nonzero}
    .fil14 {fill:#91E2A8;fill-rule:nonzero}
    .fil7 {fill:#A3A3A3;fill-rule:nonzero}
    .fil12 {fill:#A6A6A6;fill-rule:nonzero}
    .fil13 {fill:#ABD1FD;fill-rule:nonzero}
    .fil8 {fill:#BDBDBD;fill-rule:nonzero}
    .fil16 {fill:#D1D1D1;fill-rule:nonzero}
    .fil3 {fill:#EEF6FE;fill-rule:nonzero}
    .fil0 {fill:whitesmoke;fill-rule:nonzero}
    .fil11 {fill:white;fill-rule:nonzero}
    .fil4 {fill:#EEF6FE;fill-rule:nonzero;fill-opacity:0.400000}
    .fil10 {fill:#EEF6FE;fill-rule:nonzero;fill-opacity:0.600000}
    .fil1 {fill:whitesmoke;fill-rule:nonzero;fill-opacity:0.800000}
   ]]>
  </style>
 </defs>
 <g id="Layer_x0020_1">
  <metadata id="CorelCorpID_0Corel-Layer"/>
  <g id="_1822097662592">
   <g>
    <path class="fil0" d="M56797 53299c3053,-1676 5712,-3888 7622,-7199 2189,-3794 3475,-8418 3874,-12772 808,-8832 -3066,-17535 -9272,-23707 -2413,-2400 -5195,-4441 -8242,-5965 -6143,-3071 -10509,917 -15916,3257 -6746,2920 -12877,-3220 -19428,-3851 -8595,-828 -15174,7812 -14401,15922 578,6074 6363,10846 6652,15618 289,4772 -5495,7954 -5495,14895 0,3631 4567,6237 7352,7558 6264,2973 13510,3727 20361,3371 9060,-471 18892,-2734 26893,-7128z"/>
    <path class="fil1" d="M56797 53299c3053,-1676 5712,-3888 7622,-7199 2189,-3794 3475,-8418 3874,-12772 808,-8832 -3066,-17535 -9272,-23707 -2413,-2400 -5195,-4441 -8242,-5965 -6143,-3071 -10509,917 -15916,3257 -6746,2920 -12877,-3220 -19428,-3851 -8595,-828 -15174,7812 -14401,15922 578,6074 6363,10846 6652,15618 289,4772 -5495,7954 -5495,14895 0,3631 4567,6237 7352,7558 6264,2973 13510,3727 20361,3371 9060,-471 18892,-2734 26893,-7128z"/>
   </g>
   <g>
    <g>
     <g>
      <g>
       <path class="fil2 str0" d="M23961 18019c-900,-491 -1309,-82 -1637,-491 -327,-409 900,-1473 -1555,-2537 0,0 -164,-2291 -3518,-2373 -3355,-82 -2455,2291 -3355,2864 -900,573 -1145,-327 -2046,245 -900,573 -491,1718 -1227,1882 -736,163 -1718,-737 -2618,-164 -900,573 -900,1064 -1309,1064 -409,0 -1227,-327 -1718,0 -491,327 -1064,736 -1064,736"/>
      </g>
      <g>
       <line class="fil2 str0" x1="3915" y1="19246" x2="24616" y2= "19246" />
      </g>
      <g>
       <path class="fil2 str0" d="M24616 19246c0,0 245,-736 -655,-1227"/>
      </g>
     </g>
    </g>
    <g>
     <path class="fil2 str0" d="M11715 17683c-97,56 -217,113 -365,173"/>
    </g>
    <g>
     <path class="fil2 str0" d="M16144 13861c0,0 -649,250 -799,999 -150,749 -499,1248 -899,1298 -400,50 -1897,-100 -2147,449 -88,193 -108,355 -140,502"/>
    </g>
   </g>
   <g>
    <g>
     <g>
      <g>
       <path class="fil2 str0" d="M44887 13016c-441,-240 -641,-40 -801,-240 -160,-200 441,-721 -761,-1242 0,0 -80,-1122 -1723,-1162 -1643,-40 -1202,1122 -1643,1402 -441,281 -561,-160 -1002,120 -441,281 -241,841 -601,922 -360,80 -841,-361 -1282,-80 -441,281 -441,521 -641,521 -200,0 -601,-160 -841,0 -241,160 -521,361 -521,361"/>
      </g>
      <g>
       <line class="fil2 str0" x1="35071" y1="13616" x2="45208" y2= "13616" />
      </g>
      <g>
       <path class="fil2 str0" d="M45208 13616c0,0 120,-361 -321,-601"/>
      </g>
     </g>
    </g>
    <g>
     <path class="fil2 str0" d="M38890 12851c-48,27 -106,55 -179,84"/>
    </g>
    <g>
     <path class="fil2 str0" d="M41059 10979c0,0 -318,122 -391,489 -73,367 -244,611 -440,636 -196,24 -929,-49 -1051,220 -43,94 -53,174 -68,245"/>
    </g>
   </g>
   <g>
    <g>
     <g>
      <g>
       <g>
        <path class="fil2 str0" d="M61486 8188c-340,-185 -494,-31 -617,-185 -123,-154 340,-555 -586,-957 0,0 -62,-864 -1327,-895 -1265,-31 -926,864 -1265,1080 -340,216 -432,-123 -772,92 -339,216 -185,648 -463,710 -278,62 -648,-278 -988,-62 -340,216 -340,401 -494,401 -154,0 -463,-123 -648,0 -185,123 -401,278 -401,278"/>
       </g>
       <g>
        <line class="fil2 str0" x1="53925" y1="8651" x2="61733" y2= "8651" />
       </g>
       <g>
        <path class="fil2 str0" d="M61733 8651c0,0 92,-278 -247,-463"/>
       </g>
      </g>
     </g>
     <g>
      <path class="fil2 str0" d="M56867 8061c-37,21 -82,43 -138,65"/>
     </g>
     <g>
      <path class="fil2 str0" d="M58537 6620c0,0 -245,94 -301,377 -57,282 -188,471 -339,490 -151,19 -716,-38 -810,169 -33,73 -41,134 -53,189"/>
     </g>
    </g>
    <g>
     <g>
      <g>
       <g>
        <line class="fil2 str0" x1="56085" y1="7993" x2="56627" y2= "7993" />
       </g>
       <g>
        <line class="fil2 str0" x1="60868" y1="7993" x2="64518" y2= "7993" />
       </g>
       <g>
        <path class="fil2 str0" d="M64518 7993c0,0 293,-880 -782,-1467 -1076,-587 -1564,-98 -1956,-587 -391,-489 1076,-1760 -1858,-3031 0,0 -196,-2738 -4204,-2835 -4009,-98 -2933,2738 -4009,3422 -1076,684 -1369,-391 -2444,293 -1076,684 -587,2053 -1467,2249 -880,196 -2053,-880 -3129,-196 -1076,684 -1076,1271 -1564,1271 -489,0 -1467,-391 -2053,0 -587,391 -1271,880 -1271,880"/>
       </g>
       <g>
        <line class="fil2 str0" x1="39780" y1="7993" x2="55468" y2= "7993" />
       </g>
      </g>
     </g>
     <g>
      <path class="fil2 str0" d="M49102 6125c-116,67 -259,135 -436,206"/>
     </g>
     <g>
      <path class="fil2 str0" d="M49632 5439c39,-175 62,-369 167,-599 298,-656 2089,-477 2566,-537 477,-60 895,-656 1074,-1552 179,-895 955,-1193 955,-1193"/>
     </g>
    </g>
   </g>
   <g>
    <g>
     <path class="fil3" d="M28258 21819c0,0 3829,-1914 6940,1077 42,41 83,76 125,116 2549,-2006 4183,-5090 4183,-8551 0,-6047 -4982,-10948 -11128,-10948 -6146,0 -11128,4902 -11128,10948 0,3472 1644,6564 4207,8570 696,-513 3936,-2697 6801,-1211z"/>
     <path class="fil4" d="M28258 21819c0,0 3829,-1914 6940,1077 42,41 83,76 125,116 2549,-2006 4183,-5090 4183,-8551 0,-6047 -4982,-10948 -11128,-10948 -6146,0 -11128,4902 -11128,10948 0,3472 1644,6564 4207,8570 696,-513 3936,-2697 6801,-1211z"/>
    </g>
    <polygon class="fil5" points="24414,19481 28070,20707 27893,56999 28802,56999 28603,19011 31432,17440 35486,17897 31856,17204 36313,14728 33581,16064 33991,14768 35831,13315 34109,14396 34625,12764 33419,15670 32407,14448 32971,12557 32232,14237 31042,12799 33271,16026 33172,16263 28590,18504 28479,14176 29847,12597 33867,11558 32235,11840 33006,10973 31926,11894 30198,12192 32179,9905 30608,11419 30732,9491 30361,11657 28461,13487 28378,10213 28320,12177 27636,11016 27896,9610 29354,8217 27971,9205 28390,6942 27415,10640 26495,9078 27122,10334 25530,9836 27300,10688 28305,12698 28211,15884 26098,14255 25572,12949 25806,11007 25392,12488 25423,12580 24497,10284 25799,14024 23808,12488 26318,14756 22533,14521 24607,14817 22051,15520 25127,14892 26721,15119 28195,16450 28088,20081 25607,19528 23257,16623 24504,18381 21603,17656 24839,18853 25263,19451 22464,18827 23934,19320 21017,19999 "/>
   </g>
   <g>
    <g>
     <path class="fil3" d="M59217 43501c0,0 2242,-1121 4063,630 25,24 48,45 73,68 1492,-1175 2449,-2980 2449,-5006 0,-3540 -2917,-6409 -6514,-6409 -3598,0 -6514,2870 -6514,6409 0,2032 963,3843 2463,5017 408,-300 2304,-1579 3982,-709z"/>
     <path class="fil4" d="M59217 43501c0,0 2242,-1121 4063,630 25,24 48,45 73,68 1492,-1175 2449,-2980 2449,-5006 0,-3540 -2917,-6409 -6514,-6409 -3598,0 -6514,2870 -6514,6409 0,2032 963,3843 2463,5017 408,-300 2304,-1579 3982,-709z"/>
    </g>
    <polygon class="fil5" points="56966,42132 59107,42850 59074,56897 59459,56897 59419,41857 61075,40937 63448,41205 61323,40799 63932,39349 62333,40131 62573,39373 63650,38522 62642,39155 62944,38200 62238,39901 61646,39186 61976,38079 61544,39062 60847,38220 62152,40109 62094,40248 59411,41560 59346,39027 60147,38102 62500,37494 61545,37659 61996,37151 61364,37690 60352,37865 61512,36526 60592,37412 60665,36284 60448,37552 59336,38623 59287,36706 59253,37856 58853,37177 59005,36353 59858,35538 59049,36116 59294,34791 58723,36956 58184,36042 58552,36777 57620,36485 58656,36984 59244,38161 59189,40026 57952,39072 57644,38308 57781,37171 57539,38038 57557,38092 57015,36748 57777,38937 56611,38038 58081,39366 55865,39228 57079,39402 55583,39813 57384,39445 58317,39579 59180,40358 59117,42483 57665,42159 56289,40459 57019,41488 55321,41064 57215,41765 57463,42115 55825,41749 56685,42038 54978,42435 "/>
   </g>
   <g>
    <g>
     <path class="fil3" d="M42135 33488c0,0 2559,-1280 4638,720 28,27 55,51 83,78 1703,-1341 2796,-3402 2796,-5715 0,-4041 -3330,-7317 -7437,-7317 -4107,0 -7437,3276 -7437,7317 0,2320 1099,4387 2811,5727 465,-343 2630,-1802 4545,-809z"/>
     <path class="fil4" d="M42135 33488c0,0 2559,-1280 4638,720 28,27 55,51 83,78 1703,-1341 2796,-3402 2796,-5715 0,-4041 -3330,-7317 -7437,-7317 -4107,0 -7437,3276 -7437,7317 0,2320 1099,4387 2811,5727 465,-343 2630,-1802 4545,-809z"/>
    </g>
    <polygon class="fil5" points="39566,31926 42010,32745 41891,56999 42499,56999 42366,31612 44256,30561 46966,30867 44539,30404 47518,28749 45693,29642 45967,28776 47196,27805 46045,28527 46390,27437 45584,29379 44908,28562 45285,27298 44791,28421 43996,27460 45486,29616 45419,29775 42357,31273 42283,28381 43197,27325 45884,26631 44793,26819 45308,26239 44587,26855 43432,27054 44756,25526 43706,26538 43789,25249 43540,26697 42271,27920 42215,25732 42177,27044 41720,26269 41894,25328 42868,24398 41943,25058 42223,23546 41572,26017 40957,24973 41376,25812 40312,25480 41495,26049 42166,27392 42104,29521 40692,28433 40340,27560 40496,26262 40220,27253 40240,27313 39622,25779 40492,28279 39161,27253 40839,28767 38309,28611 39695,28809 37987,29279 40043,28858 41108,29011 42093,29900 42022,32326 40363,31957 38793,30015 39626,31191 37688,30706 39850,31506 40134,31906 38263,31489 39246,31818 37296,32271 "/>
   </g>
   <g>
    <g>
     <g>
      <g>
       <g>
        <path class="fil6" d="M57719 56929c-32,0 -57,-26 -57,-57l0 -7460c0,-32 26,-57 57,-57 32,0 57,26 57,57l0 7460c0,32 -26,57 -57,57z"/>
       </g>
       <g>
        <path class="fil6" d="M57663 56198c0,0 -393,-561 -897,-841 -505,-280 -1346,-280 -1346,-280 0,0 449,1627 2243,1122z"/>
       </g>
       <g>
        <path class="fil6" d="M57719 56198c0,0 393,-561 897,-841 505,-280 1346,-280 1346,-280 0,0 -449,1627 -2243,1122z"/>
       </g>
       <g>
        <path class="fil6" d="M57663 54179c0,0 -393,-561 -897,-841 -505,-281 -1346,-281 -1346,-281 0,0 449,1627 2243,1122z"/>
       </g>
       <g>
        <path class="fil6" d="M57719 54179c0,0 393,-561 897,-841 505,-281 1346,-281 1346,-281 0,0 -449,1627 -2243,1122z"/>
       </g>
       <g>
        <path class="fil6" d="M57663 52160c0,0 -393,-561 -897,-841 -505,-281 -1346,-281 -1346,-281 0,0 449,1627 2243,1122z"/>
       </g>
       <g>
        <path class="fil6" d="M57719 52160c0,0 393,-561 897,-841 505,-281 1346,-281 1346,-281 0,0 -449,1627 -2243,1122z"/>
       </g>
       <g>
        <path class="fil6" d="M57663 50141c0,0 -393,-561 -897,-841 -505,-280 -1346,-280 -1346,-280 0,0 449,1627 2243,1122z"/>
       </g>
       <g>
        <path class="fil6" d="M57719 50141c0,0 393,-561 897,-841 505,-280 1346,-280 1346,-280 0,0 -449,1627 -2243,1122z"/>
       </g>
       <g>
        <path class="fil6" d="M57719 49412c0,0 -449,-604 -472,-1181 -23,-577 357,-1328 357,-1328 0,0 1375,1135 115,2509z"/>
       </g>
      </g>
     </g>
    </g>
    <g>
     <g>
      <g>
       <g>
        <path class="fil6" d="M52794 56896l0 -3393c0,-32 -26,-58 -58,-58 -32,0 -57,26 -57,58l0 3393 115 0z"/>
       </g>
       <g>
        <path class="fil6" d="M52680 56251c0,0 -393,-561 -897,-841 -505,-281 -1346,-281 -1346,-281 0,0 449,1627 2244,1122z"/>
       </g>
       <g>
        <path class="fil6" d="M52736 56251c0,0 393,-561 897,-841 505,-281 1346,-281 1346,-281 0,0 -449,1627 -2243,1122z"/>
       </g>
       <g>
        <path class="fil6" d="M52680 54232c0,0 -393,-561 -897,-841 -505,-281 -1346,-281 -1346,-281 0,0 449,1627 2244,1122z"/>
       </g>
       <g>
        <path class="fil6" d="M52736 54232c0,0 393,-561 897,-841 505,-281 1346,-281 1346,-281 0,0 -449,1627 -2243,1122z"/>
       </g>
       <g>
        <path class="fil6" d="M52736 53503c0,0 -449,-604 -472,-1181 -23,-577 357,-1328 357,-1328 0,0 1375,1135 115,2509z"/>
       </g>
      </g>
     </g>
    </g>
    <g>
     <g>
      <g>
       <g>
        <path class="fil6" d="M62561 56896l0 -3393c0,-32 -26,-58 -57,-58 -32,0 -57,26 -57,58l0 3393 115 0z"/>
       </g>
       <g>
        <path class="fil6" d="M62448 56251c0,0 -393,-561 -897,-841 -505,-281 -1346,-281 -1346,-281 0,0 449,1627 2243,1122z"/>
       </g>
       <g>
        <path class="fil6" d="M62504 56251c0,0 393,-561 897,-841 505,-281 1346,-281 1346,-281 0,0 -449,1627 -2243,1122z"/>
       </g>
       <g>
        <path class="fil6" d="M62448 54232c0,0 -393,-561 -897,-841 -505,-281 -1346,-281 -1346,-281 0,0 449,1627 2243,1122z"/>
       </g>
       <g>
        <path class="fil6" d="M62504 54232c0,0 393,-561 897,-841 505,-281 1346,-281 1346,-281 0,0 -449,1627 -2243,1122z"/>
       </g>
       <g>
        <path class="fil6" d="M62504 53503c0,0 -449,-604 -472,-1181 -23,-577 357,-1328 357,-1328 0,0 1375,1135 115,2509z"/>
       </g>
      </g>
     </g>
    </g>
   </g>
   <g>
    <line class="fil2 str1" x1="73" y1="56999" x2="66267" y2= "56999" />
   </g>
   <g>
    <g>
     <path class="fil7" d="M42339 48744c-796,1951 -764,4176 88,6103l894 2024c18,42 31,85 40,128l-832 0 -729 -1650c-987,-2235 -1024,-4813 -102,-7075l1632 -4000c111,-272 80,-567 -83,-811 -164,-244 -426,-383 -719,-383l-3719 0c-343,0 -622,357 -622,14 0,-343 278,-622 622,-622l3208 0c704,0 1358,349 1751,933 393,584 468,687 203,1338l-1632 4000z"/>
    </g>
    <g>
     <polygon class="fil7" points="38810,56953 39303,56953 39303,39131 38810,39131 "/>
     <polygon class="fil7" points="3292,56953 3785,56953 3785,39131 3292,39131 "/>
     <polygon class="fil8" points="3568,40487 39549,40487 39549,37899 3568,37899 "/>
     <polygon class="fil8" points="3568,43567 39549,43567 39549,40980 3568,40980 "/>
     <polygon class="fil8" points="3568,47880 42213,47880 42213,47018 3568,47018 "/>
     <polygon class="fil9" points="3568,47880 9714,47880 9714,47018 3568,47018 "/>
    </g>
    <g>
     <path class="fil7" d="M8878 44273c111,-272 81,-567 -83,-811 -164,-244 -426,-383 -719,-383l-4507 0 0 -608 3996 0c704,0 1358,349 1751,933 393,584 468,687 202,1338l-1632 4000c-796,1951 -764,4176 88,6103l894 2024c19,42 31,85 40,128l-832 0 -729 -1650c-987,-2235 -1025,-4813 -102,-7075l1632 -4000z"/>
    </g>
   </g>
   <g>
    <path class="fil3" d="M54395 59404c0,918 -9874,1663 -22053,1663 -12180,0 -22053,-745 -22053,-1663 0,-918 9874,-1663 22053,-1663 12180,0 22053,744 22053,1663z"/>
    <path class="fil10" d="M54395 59404c0,918 -9874,1663 -22053,1663 -12180,0 -22053,-745 -22053,-1663 0,-918 9874,-1663 22053,-1663 12180,0 22053,744 22053,1663z"/>
   </g>
   <g>
    <g>
     <g>
      <path class="fil2 str2" d="M33959 56629c0,0 -392,686 -359,1144 33,458 948,523 1111,458 163,-65 686,-1372 621,-1699 -65,-327 -1274,-196 -1372,98z"/>
      <path id="1" class="fil11" d="M33959 56629c0,0 -392,686 -359,1144 33,458 948,523 1111,458 163,-65 686,-1372 621,-1699 -65,-327 -1274,-196 -1372,98z"/>
     </g>
     <g>
      <path class="fil2 str2" d="M31606 45748c0,0 196,4346 588,5098 392,751 1862,5163 1862,5163l-98 621 359 131c0,0 588,196 1013,-229 425,-425 -261,-6013 -261,-6013l-163 -4313 -3300 -458z"/>
      <path id="1" class="fil6" d="M31606 45748c0,0 196,4346 588,5098 392,751 1862,5163 1862,5163l-98 621 359 131c0,0 588,196 1013,-229 425,-425 -261,-6013 -261,-6013l-163 -4313 -3300 -458z"/>
     </g>
     <g>
      <g>
       <path class="fil2 str2" d="M34645 56826c0,0 -131,588 -392,1078 -261,490 -392,882 261,1013 653,131 1764,196 2157,-65 392,-261 196,-1503 196,-1503 0,0 -1209,-1307 -2222,-523z"/>
       <path id="1" class="fil11" d="M34645 56826c0,0 -131,588 -392,1078 -261,490 -392,882 261,1013 653,131 1764,196 2157,-65 392,-261 196,-1503 196,-1503 0,0 -1209,-1307 -2222,-523z"/>
      </g>
      <g>
       <path class="fil2 str2" d="M35658 58590c-728,-36 -1273,-103 -1613,-155 -31,231 78,404 469,482 653,131 1764,196 2157,-65 137,-91 201,-301 228,-536 -272,165 -673,303 -1241,275z"/>
       <path id="1" class="fil11" d="M35658 58590c-728,-36 -1273,-103 -1613,-155 -31,231 78,404 469,482 653,131 1764,196 2157,-65 137,-91 201,-301 228,-536 -272,165 -673,303 -1241,275z"/>
      </g>
     </g>
     <g>
      <path class="fil2 str2" d="M34416 46206c0,0 -163,3562 -163,4444 0,882 555,5326 555,5326l-229 621 65 229 0 196c0,0 98,-229 850,-131 751,98 1405,817 1405,817 0,0 163,-948 163,-1242 0,-294 -33,-751 -33,-948 0,-196 163,-5588 163,-5588l588 -4215 -3365 490z"/>
      <path id="1" class="fil6" d="M34416 46206c0,0 -163,3562 -163,4444 0,882 555,5326 555,5326l-229 621 65 229 0 196c0,0 98,-229 850,-131 751,98 1405,817 1405,817 0,0 163,-948 163,-1242 0,-294 -33,-751 -33,-948 0,-196 163,-5588 163,-5588l588 -4215 -3365 490z"/>
     </g>
     <g>
      <path class="fil2 str2" d="M30920 43657l-261 1830c0,0 882,1144 3431,1274 2549,131 4477,-1209 4477,-1209l-490 -1993 -7156 98z"/>
      <path id="1" class="fil11" d="M30920 43657l-261 1830c0,0 882,1144 3431,1274 2549,131 4477,-1209 4477,-1209l-490 -1993 -7156 98z"/>
     </g>
     <g>
      <g>
       <path class="fil2 str2" d="M32292 34573c0,0 -1405,425 -1503,654 -98,229 -2320,4019 -2320,4019l-1993 -784 -229 915c0,0 1993,1928 2418,2026 425,98 2189,-1830 2189,-1830l-359 4313c0,0 1013,882 2974,882 1960,0 3300,-131 3888,-327 588,-196 1013,-392 1013,-392l-653 -4836c0,0 1895,1961 2255,1993 359,33 3162,-3600 3162,-3600l-653 -882 -2476 1639c0,0 -1797,-3039 -2222,-3366 -425,-327 -1536,-490 -1666,-555 -131,-65 -3823,131 -3823,131z"/>
       <path id="1" class="fil3" d="M32292 34573c0,0 -1405,425 -1503,654 -98,229 -2320,4019 -2320,4019l-1993 -784 -229 915c0,0 1993,1928 2418,2026 425,98 2189,-1830 2189,-1830l-359 4313c0,0 1013,882 2974,882 1960,0 3300,-131 3888,-327 588,-196 1013,-392 1013,-392l-653 -4836c0,0 1895,1961 2255,1993 359,33 3162,-3600 3162,-3600l-653 -882 -2476 1639c0,0 -1797,-3039 -2222,-3366 -425,-327 -1536,-490 -1666,-555 -131,-65 -3823,131 -3823,131z"/>
      </g>
      <g>
       <line class="fil2 str3" x1="30855" y1="39572" x2="31097" y2= "37151" />
      </g>
      <g>
       <line class="fil2 str3" x1="37717" y1="39213" x2="37359" y2= "37188" />
      </g>
      <g>
       <path class="fil2 str3" d="M32983 39706c1137,92 2674,116 4122,-188"/>
      </g>
      <g>
       <path class="fil2 str3" d="M31243 39482c0,0 544,109 1380,192"/>
      </g>
      <g>
       <path class="fil2 str3" d="M37045 42493c128,-30 257,-63 387,-98"/>
      </g>
      <g>
       <path class="fil2 str3" d="M31315 42431c0,0 2155,824 5402,136"/>
      </g>
      <g>
       <line class="fil2 str3" x1="34312" y1="42209" x2="34264" y2= "43851" />
      </g>
      <g>
       <line class="fil2 str3" x1="34447" y1="37552" x2="34325" y2= "41743" />
      </g>
     </g>
     <g>
      <path class="fil2 str2" d="M32979 33560c0,0 -1144,490 -1242,1111 -98,621 719,1078 1013,1405 294,327 1895,1405 1895,1405 0,0 1699,-1993 1961,-2124 261,-131 653,-850 392,-1209 -261,-359 -1438,-719 -1895,-817 -458,-98 -2124,229 -2124,229z"/>
      <path id="1" class="fil11" d="M32979 33560c0,0 -1144,490 -1242,1111 -98,621 719,1078 1013,1405 294,327 1895,1405 1895,1405 0,0 1699,-1993 1961,-2124 261,-131 653,-850 392,-1209 -261,-359 -1438,-719 -1895,-817 -458,-98 -2124,229 -2124,229z"/>
     </g>
     <g>
      <path class="fil2 str2" d="M33240 33691c0,0 196,1569 392,1895 196,327 719,1405 882,1405 163,0 719,-1732 817,-1993 98,-261 163,-1176 163,-1176l-2255 -131z"/>
      <path id="1" class="fil12" d="M33240 33691c0,0 196,1569 392,1895 196,327 719,1405 882,1405 163,0 719,-1732 817,-1993 98,-261 163,-1176 163,-1176l-2255 -131z"/>
     </g>
     <g>
      <g>
       <path class="fil2 str2" d="M32325 31763c0,0 -752,163 -1438,686 -686,523 -784,1928 -784,1928 0,0 294,196 1078,-229 784,-425 1242,-1111 1307,-1601 65,-490 -163,-784 -163,-784z"/>
       <path id="1" class="fil6" d="M32325 31763c0,0 -752,163 -1438,686 -686,523 -784,1928 -784,1928 0,0 294,196 1078,-229 784,-425 1242,-1111 1307,-1601 65,-490 -163,-784 -163,-784z"/>
      </g>
      <g>
       <path class="fil2 str2" d="M36193 31763c0,0 752,163 1438,686 686,523 784,1928 784,1928 0,0 -294,196 -1078,-229 -784,-425 -1242,-1111 -1307,-1601 -65,-490 163,-784 163,-784z"/>
       <path id="1" class="fil6" d="M36193 31763c0,0 752,163 1438,686 686,523 784,1928 784,1928 0,0 -294,196 -1078,-229 -784,-425 -1242,-1111 -1307,-1601 -65,-490 163,-784 163,-784z"/>
      </g>
      <g>
       <g>
        <path class="fil2 str2" d="M32325 31763c0,0 -621,-196 -490,490 131,686 850,882 850,784 0,-98 -359,-1274 -359,-1274z"/>
        <path id="1" class="fil12" d="M32325 31763c0,0 -621,-196 -490,490 131,686 850,882 850,784 0,-98 -359,-1274 -359,-1274z"/>
       </g>
       <g>
        <path class="fil2 str2" d="M36196 31763c0,0 621,-196 490,490 -131,686 -850,882 -850,784 0,-98 360,-1274 360,-1274z"/>
        <path id="1" class="fil12" d="M36196 31763c0,0 621,-196 490,490 -131,686 -850,882 -850,784 0,-98 360,-1274 360,-1274z"/>
       </g>
       <g>
        <path class="fil2 str2" d="M32325 31763c0,0 196,1438 457,1830 262,392 1209,1046 1634,1078 425,33 1242,-588 1503,-1046 261,-458 359,-2908 359,-3006 0,-98 -98,-817 -980,-1405 -882,-588 -2418,-458 -2843,359 -425,817 -131,2189 -131,2189z"/>
        <path id="1" class="fil12" d="M32325 31763c0,0 196,1438 457,1830 262,392 1209,1046 1634,1078 425,33 1242,-588 1503,-1046 261,-458 359,-2908 359,-3006 0,-98 -98,-817 -980,-1405 -882,-588 -2418,-458 -2843,359 -425,817 -131,2189 -131,2189z"/>
       </g>
       <g>
        <path class="fil6" d="M33690 31742c0,-116 -94,-211 -211,-211 -116,0 -211,94 -211,211 0,116 94,211 211,211 116,0 211,-94 211,-211z"/>
        <path class="fil6" d="M35338 31742c0,-116 -94,-211 -211,-211 -116,0 -211,94 -211,211 0,116 94,211 211,211 116,0 211,-94 211,-211z"/>
        <g>
         <path class="fil2 str1" d="M34797 32632c0,0 -310,213 -834,19"/>
        </g>
        <g>
         <path class="fil2 str1" d="M33536 33137c0,0 233,310 873,252 640,-58 893,-407 893,-407"/>
        </g>
        <g>
         <path class="fil2 str1" d="M32973 31157c0,0 252,-310 621,-272"/>
        </g>
        <g>
         <path class="fil2 str1" d="M34797 30905c0,0 446,-58 796,291"/>
        </g>
       </g>
      </g>
      <g>
       <path class="fil2 str2" d="M32325 31763c0,0 163,-262 457,-719 294,-458 817,-1405 817,-1405 0,0 751,882 1340,1078 588,196 915,360 915,360 0,0 51,686 196,686 145,0 751,-1078 751,-2026 0,-948 -1895,-2255 -3202,-1764 -1307,490 -1993,1340 -1993,2124 0,784 719,1666 719,1666z"/>
       <path id="1" class="fil6" d="M32325 31763c0,0 163,-262 457,-719 294,-458 817,-1405 817,-1405 0,0 751,882 1340,1078 588,196 915,360 915,360 0,0 51,686 196,686 145,0 751,-1078 751,-2026 0,-948 -1895,-2255 -3202,-1764 -1307,490 -1993,1340 -1993,2124 0,784 719,1666 719,1666z"/>
      </g>
     </g>
    </g>
    <g>
     <g>
      <g>
       <path class="fil2 str2" d="M11216 36697l0 1013c0,0 294,719 294,948 0,229 -392,1340 -425,1569 -33,229 -359,163 -359,33 0,-131 33,-523 0,-980 -33,-458 -523,-196 -523,-196 0,0 65,1013 196,1274 29,58 49,120 61,181 46,224 -225,394 -387,232 -17,-17 -29,-35 -34,-54 -33,-131 -948,-653 -980,-784 -33,-131 -33,-1111 0,-1536 33,-425 523,-1863 555,-1961 33,-98 163,-327 163,-327 0,0 1373,-131 1438,588z"/>
       <path id="1" class="fil12" d="M11216 36697l0 1013c0,0 294,719 294,948 0,229 -392,1340 -425,1569 -33,229 -359,163 -359,33 0,-131 33,-523 0,-980 -33,-458 -523,-196 -523,-196 0,0 65,1013 196,1274 29,58 49,120 61,181 46,224 -225,394 -387,232 -17,-17 -29,-35 -34,-54 -33,-131 -948,-653 -980,-784 -33,-131 -33,-1111 0,-1536 33,-425 523,-1863 555,-1961 33,-98 163,-327 163,-327 0,0 1373,-131 1438,588z"/>
      </g>
      <g>
       <polygon class="fil2 str2" points="9238,39043 9328,39944 9989,40576 9538,39403 9508,38862 "/>
       <polygon id="1" class="fil12" points="9238,39043 9328,39944 9989,40576 9538,39403 9508,38862 "/>
      </g>
     </g>
     <g>
      <path class="fil2 str2" d="M12392 21143c0,0 -588,98 -719,882 -131,784 -458,6895 -458,6895l-1863 7679c0,0 33,-261 980,-163 948,98 948,490 948,490l1601 -5130 621 -1895 -654 -8855 -457 98z"/>
      <path id="1" class="fil13" d="M12392 21143c0,0 -588,98 -719,882 -131,784 -458,6895 -458,6895l-1863 7679c0,0 33,-261 980,-163 948,98 948,490 948,490l1601 -5130 621 -1895 -654 -8855 -457 98z"/>
     </g>
     <g>
      <g>
       <path class="fil2 str2" d="M17751 56205c0,0 -327,686 -882,1144 -555,458 -1209,850 -1013,1372 196,523 1078,392 1601,261 523,-131 980,-490 1209,-621 229,-131 653,-588 653,-588l98 -1569 -1666 0z"/>
       <path id="1" class="fil13" d="M17751 56205c0,0 -327,686 -882,1144 -555,458 -1209,850 -1013,1372 196,523 1078,392 1601,261 523,-131 980,-490 1209,-621 229,-131 653,-588 653,-588l98 -1569 -1666 0z"/>
      </g>
      <g>
       <path class="fil2 str2" d="M18601 57937c-490,359 -1013,686 -1764,850 -496,108 -834,-154 -1008,-344 -16,89 -9,182 27,279 196,523 1078,392 1601,261 523,-131 980,-490 1209,-621 229,-131 653,-588 653,-588l20 -317c-204,120 -480,291 -739,480z"/>
       <path id="1" class="fil11" d="M18601 57937c-490,359 -1013,686 -1764,850 -496,108 -834,-154 -1008,-344 -16,89 -9,182 27,279 196,523 1078,392 1601,261 523,-131 980,-490 1209,-621 229,-131 653,-588 653,-588l20 -317c-204,120 -480,291 -739,480z"/>
      </g>
     </g>
     <g>
      <g>
       <path class="fil2 str2" d="M18862 56858c0,0 -98,2222 0,2353 98,131 588,229 719,327 131,98 65,327 752,458 686,131 2026,360 2059,-588 33,-948 -1209,-1830 -1209,-1830l-65 -653 -2255 -65z"/>
       <path id="1" class="fil13" d="M18862 56858c0,0 -98,2222 0,2353 98,131 588,229 719,327 131,98 65,327 752,458 686,131 2026,360 2059,-588 33,-948 -1209,-1830 -1209,-1830l-65 -653 -2255 -65z"/>
      </g>
      <g>
       <path class="fil2 str2" d="M22387 59465c-180,195 -462,383 -878,367 -850,-33 -1764,-555 -1764,-555l-922 -435c5,199 17,340 40,370 98,131 588,229 719,327 131,98 65,327 752,458 672,128 1968,349 2054,-530z"/>
       <path id="1" class="fil11" d="M22387 59465c-180,195 -462,383 -878,367 -850,-33 -1764,-555 -1764,-555l-922 -435c5,199 17,340 40,370 98,131 588,229 719,327 131,98 65,327 752,458 672,128 1968,349 2054,-530z"/>
      </g>
     </g>
     <g>
      <path class="fil2 str2" d="M22293 38037c-360,-2777 -490,-3823 -490,-3823l-8202 131c0,0 -621,5032 -490,7156 130,2124 196,5522 751,6372 555,850 2745,5882 3039,6372 294,490 588,1078 523,1569 -65,490 131,817 131,817l1307 229 98 229c0,0 621,65 1111,65 490,0 1111,-33 1111,-33 0,0 98,-588 98,-850 0,-261 -33,-948 -33,-948 0,0 817,-4052 784,-6013 -33,-1961 98,-3660 196,-4902 98,-1242 425,-3594 65,-6372zm-4444 10391l0 0c-163,-915 -588,-1863 -588,-1863l588 -6797 294 33c0,0 229,6274 229,7352 0,1078 425,7026 425,7026 0,0 -784,-4836 -948,-5751z"/>
      <path id="1" class="fil6" d="M22293 38037c-360,-2777 -490,-3823 -490,-3823l-8202 131c0,0 -621,5032 -490,7156 130,2124 196,5522 751,6372 555,850 2745,5882 3039,6372 294,490 588,1078 523,1569 -65,490 131,817 131,817l1307 229 98 229c0,0 621,65 1111,65 490,0 1111,-33 1111,-33 0,0 98,-588 98,-850 0,-261 -33,-948 -33,-948 0,0 817,-4052 784,-6013 -33,-1961 98,-3660 196,-4902 98,-1242 425,-3594 65,-6372zm-4444 10391l0 0c-163,-915 -588,-1863 -588,-1863l588 -6797 294 33c0,0 229,6274 229,7352 0,1078 425,7026 425,7026 0,0 -784,-4836 -948,-5751z"/>
     </g>
     <g>
      <path class="fil2 str2" d="M24613 36991c0,0 -294,1046 -294,1503 0,458 555,1144 555,1144 0,0 229,196 229,-196 0,-392 277,82 277,82 0,0 -375,376 181,539 555,163 1405,-490 1536,-784 131,-294 -490,-2157 -555,-2385 -65,-229 -261,-490 -261,-490 0,0 -1340,-294 -1666,588z"/>
      <path id="1" class="fil12" d="M24613 36991c0,0 -294,1046 -294,1503 0,458 555,1144 555,1144 0,0 229,196 229,-196 0,-392 277,82 277,82 0,0 -375,376 181,539 555,163 1405,-490 1536,-784 131,-294 -490,-2157 -555,-2385 -65,-229 -261,-490 -261,-490 0,0 -1340,-294 -1666,588z"/>
     </g>
     <g>
      <line class="fil2 str1" x1="26342" y1="38381" x2="26342" y2= "38874" />
     </g>
     <g>
      <path class="fil2 str1" d="M26342 38874c0,129 -48,253 -136,347 -224,242 -656,693 -766,693"/>
     </g>
     <g>
      <path class="fil2 str1" d="M26883 38592c0,0 30,451 -180,721 -210,271 -661,782 -812,782"/>
     </g>
     <g>
      <path class="fil2 str2" d="M25380 39523c0,0 246,-539 475,-670 229,-131 -163,-752 -359,-784 -196,-33 -588,196 -588,588 0,392 0,490 0,490 0,0 375,278 473,376z"/>
      <path id="1" class="fil12" d="M25380 39523c0,0 246,-539 475,-670 229,-131 -163,-752 -359,-784 -196,-33 -588,196 -588,588 0,392 0,490 0,490 0,0 375,278 473,376z"/>
     </g>
     <g>
      <path class="fil2 str2" d="M23012 21110c0,0 1536,490 1634,1176 98,686 294,7254 294,7254l33 915 1471 6307c0,0 -653,-163 -1144,-131 -490,33 -751,588 -751,588 0,0 -2484,-5294 -2484,-6013 0,-719 948,-10097 948,-10097z"/>
      <path id="1" class="fil13" d="M23012 21110c0,0 1536,490 1634,1176 98,686 294,7254 294,7254l33 915 1471 6307c0,0 -653,-163 -1144,-131 -490,33 -751,588 -751,588 0,0 -2484,-5294 -2484,-6013 0,-719 948,-10097 948,-10097z"/>
     </g>
     <g>
      <path class="fil2 str2" d="M18176 19117c0,0 -4313,1601 -4477,2091 -163,490 -163,13757 -163,13757 0,0 1503,425 3496,490 1993,65 4804,-523 4804,-523 0,0 784,-9280 948,-10522 163,-1242 392,-2124 163,-2875 -229,-752 -2712,-2157 -3431,-2451 -719,-294 -1340,33 -1340,33z"/>
      <path id="1" class="fil3" d="M18176 19117c0,0 -4313,1601 -4477,2091 -163,490 -163,13757 -163,13757 0,0 1503,425 3496,490 1993,65 4804,-523 4804,-523 0,0 784,-9280 948,-10522 163,-1242 392,-2124 163,-2875 -229,-752 -2712,-2157 -3431,-2451 -719,-294 -1340,33 -1340,33z"/>
     </g>
     <path class="fil13" d="M23927 22025l-588 3496c0,0 -621,7222 -621,7875 0,653 1307,5555 1307,5555 0,0 -2189,719 -2287,196 -98,-523 -784,-7646 -948,-10032 -163,-2385 -261,-8692 -261,-8692 0,0 -163,-882 33,-850 196,33 2157,1405 2680,1699 523,294 686,752 686,752z"/>
     <g>
      <path class="fil2 str1" d="M23339 25521c0,0 -621,7222 -621,7875 0,653 1307,5555 1307,5555 0,0 -2189,719 -2287,196 -98,-523 -784,-7646 -948,-10032 -163,-2385 -261,-8692 -261,-8692 0,0 -163,-882 33,-850 196,33 2157,1405 2680,1699 523,294 686,752 686,752"/>
     </g>
     <g>
      <path class="fil2 str2" d="M18078 17450c0,0 -229,1961 -229,2484 0,523 653,1601 1536,1732 882,131 1634,-1078 1667,-1274 33,-196 -2745,-3333 -2745,-3333l-229 392z"/>
      <path id="1" class="fil12" d="M18078 17450c0,0 -229,1961 -229,2484 0,523 653,1601 1536,1732 882,131 1634,-1078 1667,-1274 33,-196 -2745,-3333 -2745,-3333l-229 392z"/>
     </g>
     <g>
      <g>
       <path class="fil2 str2" d="M23458 15543c0,0 -256,1867 -696,3441 -439,1574 -549,1794 -1428,1977 -879,183 -1721,-366 -2307,-1098 -586,-732 -696,-1977 -696,-1977l-330 -549 -183 -366c0,0 -73,-2123 183,-3185 256,-1062 1062,-1794 3258,-1574 2197,220 2782,1684 2746,2380 -37,696 -549,952 -549,952z"/>
       <path id="1" class="fil12" d="M23458 15543c0,0 -256,1867 -696,3441 -439,1574 -549,1794 -1428,1977 -879,183 -1721,-366 -2307,-1098 -586,-732 -696,-1977 -696,-1977l-330 -549 -183 -366c0,0 -73,-2123 183,-3185 256,-1062 1062,-1794 3258,-1574 2197,220 2782,1684 2746,2380 -37,696 -549,952 -549,952z"/>
      </g>
      <path class="fil12" d="M18479 17703l73 -622c0,0 -146,-696 -622,-659 -476,37 -403,915 -73,1391 330,476 622,-110 622,-110z"/>
      <g>
       <path class="fil2 str1" d="M18552 17080c0,0 -146,-696 -622,-659 -476,37 -403,915 -73,1391 330,476 622,-110 622,-110"/>
      </g>
      <g>
       <path class="fil2 str2" d="M24007 14591c37,-696 -549,-2160 -2746,-2380 -2197,-220 -3002,513 -3258,1574 -177,733 -197,1973 -192,2670 227,-51 496,-65 595,113 152,274 26,1031 -21,1678 77,424 255,1132 643,1617 586,732 1428,1281 2307,1098 814,-170 968,-371 1336,-1653 -167,-212 -498,-532 -1007,-580 -769,-73 -1940,513 -1940,513 0,0 -512,-366 -696,-805 -183,-439 -183,-1464 -73,-1757 110,-293 293,-256 513,-696 220,-439 0,-769 403,-1172 403,-403 1172,-403 1721,0 206,151 412,256 589,328 261,106 544,147 825,132l380 -20 73 293c0,0 513,-256 549,-952z"/>
       <path id="1" class="fil6" d="M24007 14591c37,-696 -549,-2160 -2746,-2380 -2197,-220 -3002,513 -3258,1574 -177,733 -197,1973 -192,2670 227,-51 496,-65 595,113 152,274 26,1031 -21,1678 77,424 255,1132 643,1617 586,732 1428,1281 2307,1098 814,-170 968,-371 1336,-1653 -167,-212 -498,-532 -1007,-580 -769,-73 -1940,513 -1940,513 0,0 -512,-366 -696,-805 -183,-439 -183,-1464 -73,-1757 110,-293 293,-256 513,-696 220,-439 0,-769 403,-1172 403,-403 1172,-403 1721,0 206,151 412,256 589,328 261,106 544,147 825,132l380 -20 73 293c0,0 513,-256 549,-952z"/>
      </g>
      <g>
       <path class="fil2 str1" d="M22140 17153c0,0 146,1135 -110,1501 -256,366 -549,256 -622,37 -73,-220 -73,-220 -73,-220"/>
      </g>
      <g>
       <path class="fil2 str4" d="M21920 19314c0,0 -586,256 -1355,-256"/>
      </g>
      <path class="fil6" d="M21111 17295c-30,138 -119,237 -198,219 -79,-17 -119,-143 -88,-282 30,-138 119,-236 198,-219 79,17 119,143 88,282z"/>
      <path class="fil6" d="M22689 17568c-25,139 -109,241 -189,227 -80,-14 -124,-139 -99,-278 25,-139 109,-241 189,-227 80,14 124,139 99,278z"/>
      <g>
       <path class="fil2 str5" d="M20429 16671c0,0 498,-249 996,21"/>
      </g>
      <g>
       <path class="fil2 str5" d="M22213 16857c0,0 602,-62 830,228"/>
      </g>
      <g>
       <path class="fil2 str1" d="M21611 17251c0,367 -297,664 -664,664 -367,0 -664,-297 -664,-664 0,-367 297,-664 664,-664 367,0 664,297 664,664z"/>
      </g>
      <g>
       <path class="fil2 str1" d="M23458 17563c0,367 -297,664 -664,664 -367,0 -664,-297 -664,-664 0,-367 297,-664 664,-664 367,0 664,297 664,664z"/>
      </g>
      <g>
       <path class="fil2 str1" d="M21570 17148c0,0 455,-37 643,166"/>
      </g>
      <g>
       <line class="fil2 str1" x1="20284" y1="17065" x2="18406" y2= "16568" />
      </g>
     </g>
     <g>
      <line class="fil2 str1" x1="12588" y1="23006" x2="13209" y2= "30064" />
     </g>
     <path class="fil14" d="M12131 37644l1078 -7581c0,0 -33,1601 -98,2124 -65,523 -980,5457 -980,5457z"/>
     <g>
      <path class="fil2 str1" d="M13209 30064c0,0 -33,1601 -98,2124 -65,523 -980,5457 -980,5457"/>
     </g>
     <g>
      <line class="fil2 str1" x1="12131" y1="37644" x2="14222" y2= "38625" />
     </g>
     <path class="fil13" d="M12327 21764l1895 16861c0,0 2026,-8136 2189,-9738 163,-1601 719,-9476 719,-9476 0,0 -4575,1503 -4738,1732 -163,229 -65,621 -65,621z"/>
     <g>
      <path class="fil2 str1" d="M14222 38625c0,0 2026,-8136 2189,-9738 163,-1601 719,-9476 719,-9476 0,0 -4575,1503 -4738,1732 -163,229 -65,621 -65,621"/>
     </g>
    </g>
    <g>
     <g>
      <g>
       <path class="fil2 str2" d="M51353 56173c0,0 -298,1510 -477,2245 -179,735 -536,1271 -119,1510 417,238 1470,318 1927,79 457,-238 358,-1093 358,-1808 0,-715 -139,-1708 -139,-1708l-1549 -318z"/>
       <path id="1" class="fil13" d="M51353 56173c0,0 -298,1510 -477,2245 -179,735 -536,1271 -119,1510 417,238 1470,318 1927,79 457,-238 358,-1093 358,-1808 0,-715 -139,-1708 -139,-1708l-1549 -318z"/>
      </g>
      <g>
       <path class="fil2 str2" d="M53033 59286c-287,310 -753,651 -1382,542 -676,-117 -925,-420 -1018,-616 -98,329 -123,575 124,716 417,238 1470,318 1927,79 227,-119 317,-390 350,-721z"/>
       <path id="1" class="fil11" d="M53033 59286c-287,310 -753,651 -1382,542 -676,-117 -925,-420 -1018,-616 -98,329 -123,575 124,716 417,238 1470,318 1927,79 227,-119 317,-390 350,-721z"/>
      </g>
     </g>
     <g>
      <g>
       <path class="fil2 str2" d="M47797 55300c0,0 -377,1351 -596,1807 -218,457 -636,914 -556,1172 79,258 755,536 1490,358 735,-179 1053,-1112 1093,-1430 40,-318 218,-596 417,-1073 199,-477 -119,-934 -357,-1271 -238,-338 -1490,437 -1490,437z"/>
       <path id="1" class="fil13" d="M47797 55300c0,0 -377,1351 -596,1807 -218,457 -636,914 -556,1172 79,258 755,536 1490,358 735,-179 1053,-1112 1093,-1430 40,-318 218,-596 417,-1073 199,-477 -119,-934 -357,-1271 -238,-338 -1490,437 -1490,437z"/>
      </g>
      <g>
       <path class="fil2 str2" d="M49069 57286c-198,536 -556,1033 -1212,1132 -603,92 -1104,-321 -1181,-387 -37,95 -52,179 -31,248 79,258 755,536 1490,358 735,-179 1053,-1112 1093,-1430 40,-318 218,-596 417,-1073 98,-235 70,-466 -12,-679 -404,498 -367,1301 -564,1832z"/>
       <path id="1" class="fil11" d="M49069 57286c-198,536 -556,1033 -1212,1132 -603,92 -1104,-321 -1181,-387 -37,95 -52,179 -31,248 79,258 755,536 1490,358 735,-179 1053,-1112 1093,-1430 40,-318 218,-596 417,-1073 98,-235 70,-466 -12,-679 -404,498 -367,1301 -564,1832z"/>
      </g>
     </g>
     <g>
      <path class="fil2 str2" d="M45777 35619c0,0 -567,4270 -697,6666 -131,2396 174,5228 392,5708 218,479 1960,6579 2091,6797 131,218 44,697 436,828 392,131 1220,-87 1481,-697l-44 -1307 -261 -697c0,0 -87,-3703 -479,-4836 -392,-1133 -566,-1481 -566,-1481l1569 -6274c0,0 479,6840 828,7668 349,828 479,5969 653,6797 174,828 174,1525 174,1525 0,0 349,305 959,305 610,0 610,0 610,0 0,0 610,-4313 828,-5446 218,-1133 -262,-4095 -174,-5010 87,-915 -44,-1873 44,-2527 87,-654 784,-5185 828,-6013 44,-828 -44,-1830 -44,-1830l-8627 -174z"/>
      <path id="1" class="fil15" d="M45777 35619c0,0 -567,4270 -697,6666 -131,2396 174,5228 392,5708 218,479 1960,6579 2091,6797 131,218 44,697 436,828 392,131 1220,-87 1481,-697l-44 -1307 -261 -697c0,0 -87,-3703 -479,-4836 -392,-1133 -566,-1481 -566,-1481l1569 -6274c0,0 479,6840 828,7668 349,828 479,5969 653,6797 174,828 174,1525 174,1525 0,0 349,305 959,305 610,0 610,0 610,0 0,0 610,-4313 828,-5446 218,-1133 -262,-4095 -174,-5010 87,-915 -44,-1873 44,-2527 87,-654 784,-5185 828,-6013 44,-828 -44,-1830 -44,-1830l-8627 -174z"/>
     </g>
     <g>
      <path class="fil2 str2" d="M52602 22592c0,0 -815,-388 -1980,-388 -1165,0 -3134,390 -3411,525 -277,135 -976,13761 -976,13761 0,0 2058,1165 3377,971 1320,-194 3067,-854 3067,-854l-78 -13665 0 -349z"/>
      <path id="1" class="fil6" d="M52602 22592c0,0 -815,-388 -1980,-388 -1165,0 -3134,390 -3411,525 -277,135 -976,13761 -976,13761 0,0 2058,1165 3377,971 1320,-194 3067,-854 3067,-854l-78 -13665 0 -349z"/>
     </g>
     <g>
      <path class="fil2 str2" d="M47427 14224c0,0 -1662,923 -1877,2154 -215,1231 580,1495 571,1937 -9,443 -1320,2916 -1090,3655 230,739 3039,1895 5339,1665 2300,-230 4036,-1014 4151,-2351 114,-1338 -1292,-2327 -1341,-2763 -49,-436 1009,-1762 261,-2914 -748,-1152 -3696,-2233 -4451,-2148 -756,85 -1562,765 -1562,765z"/>
      <path id="1" class="fil6" d="M47427 14224c0,0 -1662,923 -1877,2154 -215,1231 580,1495 571,1937 -9,443 -1320,2916 -1090,3655 230,739 3039,1895 5339,1665 2300,-230 4036,-1014 4151,-2351 114,-1338 -1292,-2327 -1341,-2763 -49,-436 1009,-1762 261,-2914 -748,-1152 -3696,-2233 -4451,-2148 -756,85 -1562,765 -1562,765z"/>
     </g>
     <g>
      <path class="fil2 str2" d="M52020 21777l2873 1320 -776 6444 1320 8851c0,0 -1669,699 -3106,854 0,0 -660,-4969 -660,-6405 0,-1436 155,-10288 155,-10288l0 -737 194 -39z"/>
      <path id="1" class="fil11" d="M52020 21777l2873 1320 -776 6444 1320 8851c0,0 -1669,699 -3106,854 0,0 -660,-4969 -660,-6405 0,-1436 155,-10288 155,-10288l0 -737 194 -39z"/>
     </g>
     <g>
      <path class="fil2 str2" d="M47650 21960c0,0 -3594,588 -3725,1111 -131,523 -588,7254 -588,7254 0,0 -686,2001 -366,4604 0,0 1050,-548 1644,228 0,0 -274,3060 -137,3242 137,183 2283,1005 2283,1005 0,0 685,-10641 685,-12377 0,-1736 204,-5068 204,-5068z"/>
      <path id="1" class="fil11" d="M47650 21960c0,0 -3594,588 -3725,1111 -131,523 -588,7254 -588,7254 0,0 -686,2001 -366,4604 0,0 1050,-548 1644,228 0,0 -274,3060 -137,3242 137,183 2283,1005 2283,1005 0,0 685,-10641 685,-12377 0,-1736 204,-5068 204,-5068z"/>
     </g>
     <g>
      <polygon class="fil2 str2" points="44683,26436 45343,30046 44615,35157 "/>
      <polygon id="1" class="fil11" points="44683,26436 45343,30046 44615,35157 "/>
     </g>
     <path class="fil11" d="M54303 26434l161 -3493c0,0 793,260 1128,894 146,277 1087,6017 1165,6677 78,660 -1359,5435 -1359,5435 0,0 -621,-466 -893,-505 -272,-39 -543,-39 -543,-39 0,0 272,-4581 310,-4697 39,-116 31,-4272 31,-4272z"/>
     <g>
      <path class="fil2 str1" d="M54463 22941c0,0 793,260 1128,894 146,277 1087,6017 1165,6677 78,660 -1359,5435 -1359,5435 0,0 -621,-466 -893,-505 -272,-39 -543,-39 -543,-39 0,0 272,-4581 310,-4697 39,-116 31,-4272 31,-4272"/>
     </g>
     <path class="fil11" d="M55941 30512l-1436 116c0,0 932,-466 1436,-116z"/>
     <g>
      <path class="fil2 str1" d="M54505 30628c0,0 932,-466 1436,-116"/>
     </g>
     <g>
      <g>
       <path class="fil2 str2" d="M53961 35403c0,0 -621,1320 -621,1669 0,350 78,971 78,1242 0,272 388,194 388,194 0,0 0,699 311,660 310,-39 466,-505 737,-738 272,-233 699,-893 699,-1281 0,-388 -155,-1203 -155,-1203 0,0 -505,-815 -1436,-544z"/>
       <path id="1" class="fil16" d="M53961 35403c0,0 -621,1320 -621,1669 0,350 78,971 78,1242 0,272 388,194 388,194 0,0 0,699 311,660 310,-39 466,-505 737,-738 272,-233 699,-893 699,-1281 0,-388 -155,-1203 -155,-1203 0,0 -505,-815 -1436,-544z"/>
      </g>
      <g>
       <line class="fil2 str1" x1="53806" y1="38509" x2="53806" y2= "37344" />
      </g>
      <g>
       <polyline class="fil2 str1" points="54204,39142 54377,38925 54572,37690 "/>
      </g>
      <g>
       <line class="fil2 str1" x1="54789" y1="38514" x2="55028" y2= "37690" />
      </g>
     </g>
     <g>
      <g>
       <polygon class="fil2 str2" points="48703,22875 48411,29896 50107,30335 50020,23022 "/>
       <polygon id="1" class="fil3" points="48703,22875 48411,29896 50107,30335 50020,23022 "/>
      </g>
      <g>
       <polygon class="fil2 str2" points="49610,23519 49610,31417 51658,31183 51043,23168 "/>
       <polygon id="1" class="fil3" points="49610,23519 49610,31417 51658,31183 51043,23168 "/>
      </g>
      <g>
       <path class="fil2 str2" d="M48235 20536c0,0 -936,58 -936,322 0,263 -263,1433 -88,1872 176,439 1199,878 2428,878 1229,0 2428,-936 2545,-1024 117,-88 146,-585 88,-702 -58,-117 -263,-1199 -556,-1346 -293,-146 -2106,58 -2516,88 -410,29 -965,-88 -965,-88z"/>
       <path id="1" class="fil3" d="M48235 20536c0,0 -936,58 -936,322 0,263 -263,1433 -88,1872 176,439 1199,878 2428,878 1229,0 2428,-936 2545,-1024 117,-88 146,-585 88,-702 -58,-117 -263,-1199 -556,-1346 -293,-146 -2106,58 -2516,88 -410,29 -965,-88 -965,-88z"/>
      </g>
     </g>
     <g>
      <path class="fil2 str2" d="M48206 20418c0,0 -58,614 234,907 293,293 1872,88 2311,-322 439,-410 322,-1053 322,-1053 0,0 -1960,731 -2867,468z"/>
      <path id="1" class="fil16" d="M48206 20418c0,0 -58,614 234,907 293,293 1872,88 2311,-322 439,-410 322,-1053 322,-1053 0,0 -1960,731 -2867,468z"/>
     </g>
     <g>
      <g>
       <path class="fil2 str2" d="M48333 15357c0,0 -595,1001 -955,1378 -360,376 -480,571 -480,571 0,0 133,1961 492,2619 360,658 1034,1241 1957,1080 922,-161 1667,-1154 1692,-1601 25,-447 -153,-1899 -153,-1899 0,0 -2160,-430 -2553,-2147z"/>
       <path id="1" class="fil16" d="M48333 15357c0,0 -595,1001 -955,1378 -360,376 -480,571 -480,571 0,0 133,1961 492,2619 360,658 1034,1241 1957,1080 922,-161 1667,-1154 1692,-1601 25,-447 -153,-1899 -153,-1899 0,0 -2160,-430 -2553,-2147z"/>
      </g>
      <g>
       <path class="fil2 str1" d="M48155 17421c0,0 21,558 66,670 46,112 -347,670 0,827 347,157 670,141 670,141"/>
      </g>
      <g>
       <path class="fil2 str1" d="M48048 19564c0,0 199,149 782,95 583,-54 806,-352 806,-352"/>
      </g>
      <path class="fil6" d="M47746 17864c16,112 -29,211 -101,221 -72,10 -143,-72 -159,-184 -16,-112 30,-211 101,-221 72,-10 143,72 159,184z"/>
      <path class="fil6" d="M49295 17642c16,112 -29,211 -101,221 -72,10 -143,-72 -159,-184 -16,-112 29,-211 101,-221 72,-10 143,72 159,184z"/>
      <g>
       <path class="fil2 str1" d="M47125 17450c0,0 298,-397 720,-132"/>
      </g>
      <g>
       <path class="fil2 str1" d="M48494 17313c0,0 443,-625 1134,-132"/>
      </g>
     </g>
     <g>
      <g>
       <g>
        <path class="fil2 str2" d="M42971 34929l-292 933c0,0 -217,666 -198,862 18,196 582,991 1039,1265 457,274 1142,0 1279,-228 137,-228 -91,-822 -91,-822 0,0 320,-457 366,-685 45,-228 -457,-1096 -457,-1096 0,0 -548,-914 -1644,-228z"/>
        <path id="1" class="fil16" d="M42971 34929l-292 933c0,0 -217,666 -198,862 18,196 582,991 1039,1265 457,274 1142,0 1279,-228 137,-228 -91,-822 -91,-822 0,0 320,-457 366,-685 45,-228 -457,-1096 -457,-1096 0,0 -548,-914 -1644,-228z"/>
       </g>
       <g>
        <polyline class="fil2 str1" points="44731,37863 44232,37625 43756,36454 "/>
       </g>
       <g>
        <path class="fil2 str1" d="M43148 36584c0,0 304,975 520,1170 217,195 607,303 607,303"/>
       </g>
       <g>
        <path class="fil2 str1" d="M42758 36693c0,0 122,505 375,914"/>
       </g>
      </g>
      <g>
       <path class="fil2 str2" d="M44641 36799l-234 -732c0,0 351,-59 615,410 264,469 29,908 29,908l-176 88 -234 -673z"/>
       <path id="1" class="fil12" d="M44641 36799l-234 -732c0,0 351,-59 615,410 264,469 29,908 29,908l-176 88 -234 -673z"/>
      </g>
     </g>
    </g>
   </g>
  </g>
 </g>
</svg>
