<?xml version="1.0" encoding="UTF-8"?>
<!DOCTYPE svg PUBLIC "-//W3C//DTD SVG 1.0//EN" "http://www.w3.org/TR/2001/REC-SVG-20010904/DTD/svg10.dtd">
<!-- Creator: CorelDRAW 2019 (64-Bit) -->
<svg xmlns="http://www.w3.org/2000/svg" xml:space="preserve" width="0.164902in" height="0.128472in" version="1.0" style="shape-rendering:geometricPrecision; text-rendering:geometricPrecision; image-rendering:optimizeQuality; fill-rule:evenodd; clip-rule:evenodd"
viewBox="0 0 1273 992"
 xmlns:xlink="http://www.w3.org/1999/xlink">
 <defs>
  <style type="text/css">
   <![CDATA[
    .fil0 {fill:url(#id0);fill-rule:nonzero}
   ]]>
  </style>
  <linearGradient id="id0" gradientUnits="userSpaceOnUse" x1="1307" y1="992" x2="1307" y2="0">
   <stop offset="0" style="stop-opacity:1; stop-color:#FF7A6E"/>
   <stop offset="1" style="stop-opacity:1; stop-color:#FFA400"/>
  </linearGradient>
 </defs>
 <g id="Layer_x0020_1">
  <metadata id="CorelCorpID_0Corel-Layer"/>
  <g id="_2122979223056">
   <path class="fil0" d="M1239 365l-198 0 -256 -351c-11,-15 -32,-18 -47,-7 -15,11 -18,32 -7,47l227 311 -642 0 227 -311c11,-15 8,-36 -7,-47 -15,-11 -36,-8 -47,7l-256 351 -198 0c-19,0 -34,15 -34,34 0,19 15,34 34,34l31 0 183 536c5,14 18,23 32,23 0,0 1,0 1,0 1,0 1,0 2,0l247 0c0,0 0,0 0,0 0,0 0,0 0,0l213 0c0,0 0,0 0,0 0,0 0,0 0,0l250 0c0,0 0,0 0,0 0,0 0,0 0,0 1,0 3,0 4,0 0,0 1,0 1,0 2,0 3,-1 4,-1 0,0 0,0 0,0 1,0 3,-1 4,-2 0,0 0,0 1,0 1,-1 3,-1 4,-2 0,0 0,0 1,0 1,-1 2,-2 3,-3 0,0 0,0 1,-1 1,-1 2,-2 3,-3 0,0 0,-1 1,-1 1,-1 2,-3 2,-4 0,0 0,0 0,0 1,-1 1,-3 2,-4 0,0 0,0 0,0l92 -271c2,-4 4,-8 4,-13l86 -252 31 0c19,0 34,-15 34,-34 0,-19 -15,-34 -34,-34zm-270 559l0 0 -184 0 47 -210 209 0 -71 210zm-253 0l0 0 -159 0 -47 -210 253 0 -47 210zm-221 -277l0 0 -48 -214 378 0 -48 214 -283 0zm-117 -214l0 0 48 214 -217 0 -73 -214 242 0zm-146 282l0 0 209 0 47 210 -184 0 -71 -210zm831 -68l0 0 -217 0 48 -214 242 0 -73 214z"/>
  </g>
 </g>
</svg>
