<?xml version="1.0" encoding="UTF-8"?>
<!DOCTYPE svg PUBLIC "-//W3C//DTD SVG 1.0//EN" "http://www.w3.org/TR/2001/REC-SVG-20010904/DTD/svg10.dtd">
<!-- Creator: CorelDRAW 2019 (64-Bit) -->
<svg xmlns="http://www.w3.org/2000/svg" xml:space="preserve" width="0.0357992in" height="0.0332441in" version="1.0" style="shape-rendering:geometricPrecision; text-rendering:geometricPrecision; image-rendering:optimizeQuality; fill-rule:evenodd; clip-rule:evenodd"
viewBox="0 0 54 50"
 xmlns:xlink="http://www.w3.org/1999/xlink">
 <defs>
  <style type="text/css">
   <![CDATA[
    .fil0 {fill:black;fill-rule:nonzero}
   ]]>
  </style>
 </defs>
 <g id="Layer_x0020_1">
  <metadata id="CorelCorpID_0Corel-Layer"/>
  <path class="fil0" d="M27 36l-1 1c-6,8 -10,13 -14,13 -4,0 -8,-3 -12,-10 1,0 1,0 1,0 5,0 10,-4 16,-11l1 -2 -2 -2c-5,-6 -8,-10 -8,-14 0,-3 3,-7 9,-11 1,6 3,11 7,16l2 2 1 -2c6,-8 11,-11 16,-11 4,0 7,3 9,9 -1,0 -1,0 -1,0 -2,0 -4,1 -7,3 -3,2 -6,5 -8,8l-2 2 2 2c6,6 12,8 18,8 -3,7 -7,10 -11,10 -3,0 -8,-3 -14,-9l-2 -2z"/>
 </g>
</svg>
