<?xml version="1.0" encoding="UTF-8"?>
<!DOCTYPE svg PUBLIC "-//W3C//DTD SVG 1.0//EN" "http://www.w3.org/TR/2001/REC-SVG-20010904/DTD/svg10.dtd">
<!-- Creator: CorelDRAW 2019 (64-Bit) -->
<svg xmlns="http://www.w3.org/2000/svg" xml:space="preserve" width="0.0714449in" height="0.109406in" version="1.0" style="shape-rendering:geometricPrecision; text-rendering:geometricPrecision; image-rendering:optimizeQuality; fill-rule:evenodd; clip-rule:evenodd"
viewBox="0 0 149 228"
 xmlns:xlink="http://www.w3.org/1999/xlink">
 <defs>
  <style type="text/css">
   <![CDATA[
    .fil0 {fill:white}
   ]]>
  </style>
 </defs>
 <g id="Layer_x0020_1">
  <metadata id="CorelCorpID_0Corel-Layer"/>
  <g id="_2122987387952">
   <path class="fil0" d="M0 71l0 88c9,81 109,90 140,30 5,-10 8,-19 9,-33 0,-6 0,-15 0,-21 0,-7 0,-14 0,-21 -2,-29 5,-47 -8,-74 -27,-53 -104,-52 -130,-3 -5,9 -9,21 -10,33zm78 -16c2,5 11,0 11,23l51 0c0,-24 -9,-44 -26,-56 -10,-7 -22,-13 -36,-13l0 47zm-70 23l51 0c0,-23 9,-17 11,-23l0 -47c-9,0 -18,3 -25,7 -25,13 -36,35 -36,62zm63 -12c-3,1 -4,0 -4,8 0,4 0,9 0,13 0,3 -1,9 1,12 1,3 5,5 9,3 7,-3 3,-34 3,-34 -1,-3 -5,-4 -9,-3zm69 70l0 22c-2,14 -4,21 -10,32 -18,28 -53,39 -85,24 -16,-8 -31,-24 -36,-46 -2,-11 -1,-28 -1,-40 0,-13 0,-27 0,-41l51 0c0,8 -1,17 5,21 10,7 15,2 18,2l1 -1c6,-6 6,-12 5,-22l51 0 0 49 0 0z"/>
   <path class="fil0" d="M70 191c-9,-6 -9,-14 -17,-11 -1,6 2,8 8,14 2,2 3,3 6,6 7,6 5,10 20,-5 4,-4 10,-8 9,-15 -9,-4 -10,7 -17,11l0 -26c0,-4 1,-11 -2,-12 -6,-3 -6,4 -6,8 0,10 0,20 0,30z"/>
   <path class="fil0" d="M78 130l0 -9c-4,-1 -4,-1 -7,0 -2,6 -1,12 7,9l1 0z"/>
   <path class="fil0" d="M70 142c0,4 1,7 5,6 3,-1 1,0 2,-2 5,-9 -8,-13 -8,-4z"/>
  </g>
 </g>
</svg>
