<?xml version="1.0" encoding="UTF-8"?>
<!DOCTYPE svg PUBLIC "-//W3C//DTD SVG 1.0//EN" "http://www.w3.org/TR/2001/REC-SVG-20010904/DTD/svg10.dtd">
<!-- Creator: CorelDRAW 2019 (64-Bit) -->
<svg xmlns="http://www.w3.org/2000/svg" xml:space="preserve" width="0.0714449in" height="0.109406in" version="1.0" style="shape-rendering:geometricPrecision; text-rendering:geometricPrecision; image-rendering:optimizeQuality; fill-rule:evenodd; clip-rule:evenodd"
viewBox="0 0 5167 7912"
 xmlns:xlink="http://www.w3.org/1999/xlink">
 <defs>
  <style type="text/css">
   <![CDATA[
    .fil0 {fill:black}
   ]]>
  </style>
 </defs>
 <g id="Layer_x0020_1">
  <metadata id="CorelCorpID_0Corel-Layer"/>
  <g id="_2122979206224">
   <path class="fil0" d="M0 2454l1 3058c309,2817 3781,3139 4848,1050 178,-349 291,-669 310,-1130 9,-226 11,-506 3,-731 -8,-247 16,-489 -1,-731 -71,-1023 172,-1646 -294,-2583 -921,-1852 -3609,-1813 -4533,-92 -174,324 -308,715 -334,1160zm2723 -541c63,186 384,-7 380,782l1767 4c-4,-848 -330,-1527 -895,-1939 -356,-260 -772,-463 -1254,-468l2 1620zm-2436 785l1767 1c-5,-788 322,-606 378,-785l0 -1618c-305,-11 -642,110 -884,236 -852,446 -1260,1208 -1262,2166zm2197 -431c-89,41 -139,13 -139,294 0,154 1,308 1,462 0,112 -20,328 28,421 47,91 178,158 313,93 231,-111 105,-1167 98,-1181 -46,-98 -170,-149 -302,-89zm2395 2434l-6 763c-80,473 -122,735 -357,1095 -635,970 -1846,1356 -2948,831 -568,-271 -1075,-828 -1235,-1603 -81,-393 -45,-965 -45,-1383 0,-466 12,-948 -3,-1414l1772 7c-13,290 -25,589 174,728 338,235 518,60 634,63l49 -45c225,-212 197,-422 187,-753l1772 5 0 1706 6 0z"/>
   <path class="fil0" d="M2436 6650c-315,-204 -311,-478 -598,-368 -48,220 68,271 286,497 79,81 101,102 212,194 240,200 174,349 684,-181 130,-136 352,-272 300,-507 -302,-127 -336,240 -601,368l6 -897c0,-140 37,-371 -77,-427 -208,-103 -217,143 -215,292 3,336 -14,699 5,1030z"/>
   <path class="fil0" d="M2723 4520l-12 -299c-133,-35 -134,-38 -258,-1 -56,220 -21,417 231,316l40 -17z"/>
   <path class="fil0" d="M2431 4917c0,139 46,246 186,201 106,-34 36,-2 78,-63 157,-309 -265,-441 -265,-138z"/>
  </g>
 </g>
</svg>
