<?xml version="1.0" encoding="UTF-8"?>
<!DOCTYPE svg PUBLIC "-//W3C//DTD SVG 1.0//EN" "http://www.w3.org/TR/2001/REC-SVG-20010904/DTD/svg10.dtd">
<!-- Creator: CorelDRAW 2019 (64-Bit) -->
<svg xmlns="http://www.w3.org/2000/svg" xml:space="preserve" width="2.27736in" height="2.41695in" version="1.0" style="shape-rendering:geometricPrecision; text-rendering:geometricPrecision; image-rendering:optimizeQuality; fill-rule:evenodd; clip-rule:evenodd"
viewBox="0 0 84090 89245"
 xmlns:xlink="http://www.w3.org/1999/xlink">
 <defs>
  <style type="text/css">
   <![CDATA[
    .fil7 {fill:#089395;fill-rule:nonzero}
    .fil2 {fill:#44676E;fill-rule:nonzero}
    .fil12 {fill:#68B9F8;fill-rule:nonzero}
    .fil0 {fill:#6B9EA8;fill-rule:nonzero}
    .fil1 {fill:#79B5C1;fill-rule:nonzero}
    .fil9 {fill:#9A2126;fill-rule:nonzero}
    .fil4 {fill:#AE1F11;fill-rule:nonzero}
    .fil11 {fill:#B2DFFF;fill-rule:nonzero}
    .fil3 {fill:#BA3F03;fill-rule:nonzero}
    .fil10 {fill:#ED9A01;fill-rule:nonzero}
    .fil8 {fill:#EFD6BC;fill-rule:nonzero}
    .fil13 {fill:#F8FCFF;fill-rule:nonzero}
    .fil14 {fill:white;fill-rule:nonzero}
    .fil6 {fill:#9E9F9F;fill-rule:nonzero}
    .fil5 {fill:#E5E5E5;fill-rule:nonzero}
   ]]>
  </style>
 </defs>
 <g id="Layer_x0020_1">
  <metadata id="CorelCorpID_0Corel-Layer"/>
  <g id="_1874341173056">
   <path class="fil0" d="M15190 76330c-1365,-2564 -374,-7161 860,-9585 408,-801 1467,-2525 2619,-2235 645,162 975,983 1134,1546 864,3068 -512,5282 -2518,7491 -491,540 -1122,1128 -1473,1775 -128,236 -587,1075 -623,1008z"/>
   <path class="fil0" d="M9434 72517c-1747,-2127 -1685,-6583 -992,-9066 229,-821 891,-2620 2015,-2566 630,30 1090,732 1343,1225 1376,2688 511,5003 -939,7430 -355,593 -831,1257 -1037,1924 -75,243 -345,1108 -390,1052z"/>
   <path class="fil1" d="M26219 65800l577 4631 -1975 -951c615,-1721 1126,-3013 1398,-3680z"/>
   <path class="fil1" d="M26773 65680c433,531 1298,1614 2432,3135l-1848 1547 -583 -4682z"/>
   <path class="fil2" d="M26432 65294c0,0 164,199 336,409l584 4682 -258 216 -303 -146 -577 -4631c123,-301 218,-530 218,-530z"/>
   <path class="fil3" d="M10024 34985l61938 0c2230,0 4038,1808 4038,4038l0 36394c0,2230 -1807,4038 -4038,4038l-61938 0c-2230,0 -4038,-1808 -4038,-4038l0 -36394c0,-2230 1808,-4038 4038,-4038z"/>
   <path class="fil4" d="M41108 79428l30227 27c4076,0 4571,-3159 4571,-3159l-35251 -18905 -34303 19406c0,0 446,2972 5322,2631l29434 0z"/>
   <path class="fil4" d="M41202 36291l30228 -27c4076,0 4570,3159 4570,3159l-35346 17969 -34208 -18470c0,0 446,-2973 5322,-2631l29433 0z"/>
   <path class="fil4" d="M40926 40108l-34940 -1084c0,0 -249,-2348 3578,-5607 3827,-3258 31669,-22721 31669,-22721 0,0 27872,20170 31733,23529 3861,3358 3034,5198 3034,5198l-35074 685z"/>
   <polygon class="fil5" points="12782,17620 69288,17620 69288,43101 40655,57392 12782,42203 "/>
   <path class="fil6" d="M24296 35528l30260 0c406,0 736,330 736,736 0,407 -329,736 -736,736l-30260 0c-406,0 -736,-329 -736,-736 0,-406 330,-736 736,-736z"/>
   <path class="fil6" d="M17250 38636l44351 0c406,0 736,330 736,736 0,407 -330,736 -736,736l-44351 0c-406,0 -736,-329 -736,-736 0,-406 329,-736 736,-736z"/>
   <path class="fil6" d="M17250 42158l46671 0c406,0 736,329 736,736 0,406 -330,736 -736,736l-46671 0c-406,0 -736,-329 -736,-736 0,-407 329,-736 736,-736z"/>
   <polygon class="fil7" points="24728,45614 57719,45614 57719,48914 49857,52752 32107,52734 24711,48703 "/>
   <polygon class="fil5" points="32847,47073 33779,49426 34717,47073 35808,47073 34179,50937 33380,50937 31756,47073 "/>
   <polygon class="fil5" points="38411,47925 37218,47925 37218,48570 38344,48570 38344,49420 37218,49420 37218,50087 38411,50087 38411,50937 36213,50937 36213,47073 38411,47073 "/>
   <path class="fil5" d="M40138 48800l189 0c198,0 350,-41 456,-123 106,-82 158,-200 158,-354 0,-153 -53,-272 -158,-354 -106,-82 -258,-123 -456,-123l-189 0 0 953zm2208 2137l0 0 -1250 0 -958 -1486 0 1486 -1005 0 0 -3864 1563 0c215,0 403,32 564,95 160,63 292,149 397,258 104,110 183,236 236,379 53,143 79,297 79,461 0,293 -71,532 -213,714 -141,183 -351,307 -628,372l1214 1584z"/>
   <polygon class="fil5" points="42766,47073 43770,47073 43770,50937 42766,50937 "/>
   <polygon class="fil5" points="46793,47925 45584,47925 45584,48570 46686,48570 46686,49420 45584,49420 45584,50937 44580,50937 44580,47073 46793,47073 "/>
   <polygon class="fil5" points="48325,49082 46916,47073 48115,47073 48833,48129 49545,47073 50744,47073 49330,49082 49330,50937 48325,50937 "/>
   <path class="fil8" d="M68693 36478c0,-1144 217,-2071 1276,-2071 1058,0 333,1312 800,2071 404,655 899,2070 -160,2070 -1059,0 -1917,-927 -1917,-2070z"/>
   <path class="fil9" d="M43489 25511l-341 2830c-23,182 -34,364 -34,546 0,76 19,137 57,182 38,45 84,68 137,68 174,0 336,-57 483,-171 148,-114 276,-265 386,-454 110,-190 195,-406 256,-648 60,-242 91,-492 91,-751 0,-431 -83,-826 -250,-1182 -167,-356 -396,-659 -687,-909 -292,-250 -634,-443 -1029,-580 -394,-136 -818,-204 -1273,-204 -523,0 -1006,89 -1450,267 -444,178 -826,420 -1148,727 -322,307 -574,673 -756,1097 -182,424 -273,879 -273,1364 0,546 99,1034 296,1466 197,432 464,796 801,1091 337,296 732,521 1182,676 451,156 930,233 1438,233 295,0 557,-9 785,-28 227,-19 441,-55 642,-108 200,-53 394,-125 579,-216 186,-91 389,-208 609,-352l489 955c-462,288 -945,502 -1449,642 -504,140 -1051,210 -1643,210 -743,0 -1411,-121 -2006,-364 -595,-242 -1100,-572 -1517,-989 -417,-417 -739,-902 -966,-1455 -228,-553 -341,-1140 -341,-1762 0,-644 121,-1242 364,-1796 243,-553 576,-1034 1001,-1444 424,-409 922,-731 1495,-966 572,-235 1192,-352 1858,-352 614,0 1186,102 1716,307 531,205 991,485 1381,841 390,356 697,775 921,1256 223,481 335,995 335,1540 0,462 -58,885 -176,1268 -117,382 -284,712 -500,989 -216,276 -476,490 -778,642 -303,151 -644,227 -1023,227 -205,0 -389,-53 -552,-159 -163,-107 -305,-250 -426,-432 -250,250 -489,407 -716,471 -227,65 -439,97 -636,97 -242,0 -495,-59 -756,-176 -261,-117 -500,-282 -716,-494 -216,-212 -396,-466 -540,-762 -144,-296 -216,-621 -216,-978 0,-348 68,-668 205,-960 136,-292 314,-543 534,-751 220,-208 472,-369 756,-483 284,-114 574,-170 870,-170 325,0 610,63 852,187 242,125 420,290 534,495l102 -579 1046 0zm-3660 2251l0 0c0,152 30,299 91,443 61,144 142,269 245,375 102,106 224,191 363,256 141,64 286,97 438,97 152,0 297,-32 437,-97 140,-65 262,-150 364,-256 102,-106 184,-231 245,-375 60,-144 91,-291 91,-443 0,-152 -30,-297 -91,-437 -61,-140 -142,-265 -245,-375 -102,-110 -223,-197 -364,-262 -140,-64 -286,-96 -437,-96 -152,0 -297,32 -438,96 -140,65 -261,152 -363,262 -102,110 -183,235 -245,375 -61,140 -91,286 -91,437z"/>
   <path class="fil10" d="M67263 16810c0,0 1125,1147 2448,1147 1322,0 2840,-1147 2840,-1147 0,0 -1332,1290 -1332,2579 0,1290 1332,2580 1332,2580 0,0 -1573,-1248 -2895,-1248 -1322,0 -2393,1248 -2393,1248 0,0 1171,-1290 1171,-2580 0,-1289 -1171,-2579 -1171,-2579z"/>
   <path class="fil10" d="M69906 12470c0,0 1126,1147 2448,1147 1322,0 2841,-1147 2841,-1147 0,0 -1333,1290 -1333,2579 0,1290 1333,2579 1333,2579 0,0 -1573,-1248 -2896,-1248 -1322,0 -2393,1248 -2393,1248 0,0 1172,-1290 1172,-2579 0,-1289 -1172,-2579 -1172,-2579z"/>
   <path class="fil10" d="M64718 21969c0,0 1126,1147 2448,1147 1322,0 2840,-1147 2840,-1147 0,0 -1333,1289 -1333,2579 0,1290 1333,2579 1333,2579 0,0 -1573,-1248 -2896,-1248 -1322,0 -2393,1248 -2393,1248 0,0 1172,-1289 1172,-2579 0,-1290 -1172,-2579 -1172,-2579z"/>
   <path class="fil10" d="M61974 15049c0,0 1126,1147 2448,1147 1322,0 2841,-1147 2841,-1147 0,0 -1333,1290 -1333,2579 0,1289 1333,2579 1333,2579 0,0 -1573,-1248 -2896,-1248 -1322,0 -2393,1248 -2393,1248 0,0 1172,-1290 1172,-2579 0,-1290 -1172,-2579 -1172,-2579z"/>
   <path class="fil10" d="M3413 21027l19674 0c736,0 1333,597 1333,1333 0,736 -597,1333 -1333,1333l-19674 0c-736,0 -1333,-597 -1333,-1333 0,-736 597,-1333 1333,-1333z"/>
   <path class="fil10" d="M12024 4058c-6884,748 -6888,7984 -6888,16806l16229 0c0,-8822 -6,-16058 -6888,-16806 -328,316 -754,513 -1227,513 -472,0 -898,-197 -1227,-513z"/>
   <path class="fil10" d="M13251 0c-1029,0 -1862,909 -1862,2030 0,606 249,1143 635,1515 328,316 754,513 1227,513 472,0 898,-198 1227,-513 387,-372 635,-908 635,-1515 0,-1121 -834,-2030 -1862,-2030z"/>
   <path class="fil10" d="M16414 23963c0,1747 -1416,3164 -3164,3164 -1747,0 -3164,-1417 -3164,-3164l6327 0z"/>
   <path class="fil0" d="M15190 76330c-1365,-2564 -374,-7161 860,-9585 408,-801 1467,-2525 2619,-2235 645,162 975,983 1134,1546 864,3068 -512,5282 -2518,7491 -491,540 -1122,1128 -1473,1775 -128,236 -587,1075 -623,1008z"/>
   <path class="fil0" d="M9434 72517c-1747,-2127 -1685,-6583 -992,-9066 229,-821 891,-2620 2015,-2566 630,30 1090,732 1343,1225 1376,2688 511,5003 -939,7430 -355,593 -831,1257 -1037,1924 -75,243 -345,1108 -390,1052z"/>
   <path class="fil1" d="M26219 65800l577 4631 -1975 -951c615,-1721 1126,-3013 1398,-3680z"/>
   <path class="fil1" d="M26773 65680c433,531 1298,1614 2432,3135l-1848 1547 -583 -4682z"/>
   <path class="fil2" d="M26432 65294c0,0 164,199 336,409l584 4682 -258 216 -303 -146 -577 -4631c123,-301 218,-530 218,-530z"/>
   <path class="fil11" d="M10024 34985l61938 0c2230,0 4038,1808 4038,4038l0 36394c0,2230 -1807,4038 -4038,4038l-61938 0c-2230,0 -4038,-1808 -4038,-4038l0 -36394c0,-2230 1808,-4038 4038,-4038z"/>
   <path class="fil12" d="M41108 79428l30227 27c4076,0 4571,-3159 4571,-3159l-35251 -18905 -34303 19406c0,0 446,2972 5322,2631l29434 0z"/>
   <path class="fil12" d="M41202 36291l30228 -27c4076,0 4570,3159 4570,3159l-35346 17969 -34208 -18470c0,0 446,-2973 5322,-2631l29433 0z"/>
   <path class="fil12" d="M40926 40108l-34940 -1084c0,0 -249,-2348 3578,-5607 3827,-3258 31669,-22721 31669,-22721 0,0 27872,20170 31733,23529 3861,3358 3034,5198 3034,5198l-35074 685z"/>
   <polygon class="fil13" points="12782,17620 69288,17620 69288,43101 40655,57392 12782,42203 "/>
   <path class="fil11" d="M24296 35528l30260 0c406,0 736,330 736,736 0,407 -329,736 -736,736l-30260 0c-406,0 -736,-329 -736,-736 0,-406 330,-736 736,-736z"/>
   <path class="fil11" d="M17250 38636l44351 0c406,0 736,330 736,736 0,407 -330,736 -736,736l-44351 0c-406,0 -736,-329 -736,-736 0,-406 329,-736 736,-736z"/>
   <path class="fil11" d="M17250 42158l46671 0c406,0 736,329 736,736 0,406 -330,736 -736,736l-46671 0c-406,0 -736,-329 -736,-736 0,-407 329,-736 736,-736z"/>
   <polygon class="fil12" points="24728,45614 57719,45614 57719,48914 49857,52752 32107,52734 24711,48703 "/>
   <polygon class="fil14" points="32847,47073 33779,49426 34717,47073 35808,47073 34179,50937 33380,50937 31756,47073 "/>
   <polygon class="fil14" points="38411,47925 37218,47925 37218,48570 38344,48570 38344,49420 37218,49420 37218,50087 38411,50087 38411,50937 36213,50937 36213,47073 38411,47073 "/>
   <path class="fil14" d="M40138 48800l189 0c198,0 350,-41 456,-123 106,-82 158,-200 158,-354 0,-153 -53,-272 -158,-354 -106,-82 -258,-123 -456,-123l-189 0 0 953zm2208 2137l0 0 -1250 0 -958 -1486 0 1486 -1005 0 0 -3864 1563 0c215,0 403,32 564,95 160,63 292,149 397,258 104,110 183,236 236,379 53,143 79,297 79,461 0,293 -71,532 -213,714 -141,183 -351,307 -628,372l1214 1584z"/>
   <polygon class="fil14" points="42766,47073 43770,47073 43770,50937 42766,50937 "/>
   <polygon class="fil14" points="46793,47925 45584,47925 45584,48570 46686,48570 46686,49420 45584,49420 45584,50937 44580,50937 44580,47073 46793,47073 "/>
   <polygon class="fil14" points="48325,49082 46916,47073 48115,47073 48833,48129 49545,47073 50744,47073 49330,49082 49330,50937 48325,50937 "/>
   <path class="fil11" d="M1294 88213c0,-569 18535,-1031 41398,-1031 22864,0 41398,462 41398,1031 0,570 -18534,1031 -41398,1031 -22864,0 -41398,-462 -41398,-1031z"/>
   <path class="fil12" d="M43489 25511l-341 2830c-23,182 -34,364 -34,546 0,76 19,137 57,182 38,45 84,68 137,68 174,0 336,-57 483,-171 148,-114 276,-265 386,-454 110,-190 195,-406 256,-648 60,-242 91,-492 91,-751 0,-431 -83,-826 -250,-1182 -167,-356 -396,-659 -687,-909 -292,-250 -634,-443 -1029,-580 -394,-136 -818,-204 -1273,-204 -523,0 -1006,89 -1450,267 -444,178 -826,420 -1148,727 -322,307 -574,673 -756,1097 -182,424 -273,879 -273,1364 0,546 99,1034 296,1466 197,432 464,796 801,1091 337,296 732,521 1182,676 451,156 930,233 1438,233 295,0 557,-9 785,-28 227,-19 441,-55 642,-108 200,-53 394,-125 579,-216 186,-91 389,-208 609,-352l489 955c-462,288 -945,502 -1449,642 -504,140 -1051,210 -1643,210 -743,0 -1411,-121 -2006,-364 -595,-242 -1100,-572 -1517,-989 -417,-417 -739,-902 -966,-1455 -228,-553 -341,-1140 -341,-1762 0,-644 121,-1242 364,-1796 243,-553 576,-1034 1001,-1444 424,-409 922,-731 1495,-966 572,-235 1192,-352 1858,-352 614,0 1186,102 1716,307 531,205 991,485 1381,841 390,356 697,775 921,1256 223,481 335,995 335,1540 0,462 -58,885 -176,1268 -117,382 -284,712 -500,989 -216,276 -476,490 -778,642 -303,151 -644,227 -1023,227 -205,0 -389,-53 -552,-159 -163,-107 -305,-250 -426,-432 -250,250 -489,407 -716,471 -227,65 -439,97 -636,97 -242,0 -495,-59 -756,-176 -261,-117 -500,-282 -716,-494 -216,-212 -396,-466 -540,-762 -144,-296 -216,-621 -216,-978 0,-348 68,-668 205,-960 136,-292 314,-543 534,-751 220,-208 472,-369 756,-483 284,-114 574,-170 870,-170 325,0 610,63 852,187 242,125 420,290 534,495l102 -579 1046 0zm-3660 2251l0 0c0,152 30,299 91,443 61,144 142,269 245,375 102,106 224,191 363,256 141,64 286,97 438,97 152,0 297,-32 437,-97 140,-65 262,-150 364,-256 102,-106 184,-231 245,-375 60,-144 91,-291 91,-443 0,-152 -30,-297 -91,-437 -61,-140 -142,-265 -245,-375 -102,-110 -223,-197 -364,-262 -140,-64 -286,-96 -437,-96 -152,0 -297,32 -438,96 -140,65 -261,152 -363,262 -102,110 -183,235 -245,375 -61,140 -91,286 -91,437z"/>
   <path class="fil10" d="M5288 75464c0,0 1126,1147 2448,1147 1322,0 2841,-1147 2841,-1147 0,0 -1332,1290 -1332,2579 0,1290 1332,2580 1332,2580 0,0 -1573,-1248 -2895,-1248 -1322,0 -2393,1248 -2393,1248 0,0 1172,-1290 1172,-2580 0,-1289 -1172,-2579 -1172,-2579z"/>
   <path class="fil10" d="M7933 71123c0,0 1126,1147 2448,1147 1322,0 2841,-1147 2841,-1147 0,0 -1332,1290 -1332,2579 0,1290 1332,2580 1332,2580 0,0 -1573,-1248 -2895,-1248 -1322,0 -2393,1248 -2393,1248 0,0 1171,-1290 1171,-2580 0,-1289 -1171,-2579 -1171,-2579z"/>
   <path class="fil10" d="M2744 80623c0,0 1126,1146 2448,1146 1322,0 2840,-1146 2840,-1146 0,0 -1332,1289 -1332,2579 0,1289 1332,2579 1332,2579 0,0 -1573,-1248 -2895,-1248 -1322,0 -2393,1248 -2393,1248 0,0 1172,-1290 1172,-2579 0,-1290 -1172,-2579 -1172,-2579z"/>
   <path class="fil10" d="M0 73702c0,0 1126,1147 2448,1147 1322,0 2840,-1147 2840,-1147 0,0 -1332,1290 -1332,2580 0,1289 1332,2579 1332,2579 0,0 -1573,-1248 -2895,-1248 -1322,0 -2394,1248 -2394,1248 0,0 1172,-1290 1172,-2579 0,-1290 -1172,-2580 -1172,-2580z"/>
   <path class="fil10" d="M67263 16810c0,0 1125,1147 2448,1147 1322,0 2840,-1147 2840,-1147 0,0 -1332,1290 -1332,2579 0,1290 1332,2580 1332,2580 0,0 -1573,-1248 -2895,-1248 -1322,0 -2393,1248 -2393,1248 0,0 1171,-1290 1171,-2580 0,-1289 -1171,-2579 -1171,-2579z"/>
   <path class="fil10" d="M69906 12470c0,0 1126,1147 2448,1147 1322,0 2841,-1147 2841,-1147 0,0 -1333,1290 -1333,2579 0,1290 1333,2579 1333,2579 0,0 -1573,-1248 -2896,-1248 -1322,0 -2393,1248 -2393,1248 0,0 1172,-1290 1172,-2579 0,-1289 -1172,-2579 -1172,-2579z"/>
   <path class="fil10" d="M64718 21969c0,0 1126,1147 2448,1147 1322,0 2840,-1147 2840,-1147 0,0 -1333,1289 -1333,2579 0,1290 1333,2579 1333,2579 0,0 -1573,-1248 -2896,-1248 -1322,0 -2393,1248 -2393,1248 0,0 1172,-1289 1172,-2579 0,-1290 -1172,-2579 -1172,-2579z"/>
   <path class="fil10" d="M61974 15049c0,0 1126,1147 2448,1147 1322,0 2841,-1147 2841,-1147 0,0 -1333,1290 -1333,2579 0,1289 1333,2579 1333,2579 0,0 -1573,-1248 -2896,-1248 -1322,0 -2393,1248 -2393,1248 0,0 1172,-1290 1172,-2579 0,-1290 -1172,-2579 -1172,-2579z"/>
   <path class="fil10" d="M3413 21027l19674 0c736,0 1333,597 1333,1333 0,736 -597,1333 -1333,1333l-19674 0c-736,0 -1333,-597 -1333,-1333 0,-736 597,-1333 1333,-1333z"/>
   <path class="fil10" d="M12024 4058c-6884,748 -6888,7984 -6888,16806l16229 0c0,-8822 -6,-16058 -6888,-16806 -328,316 -754,513 -1227,513 -472,0 -898,-197 -1227,-513z"/>
   <path class="fil10" d="M13251 0c-1029,0 -1862,909 -1862,2030 0,606 249,1143 635,1515 328,316 754,513 1227,513 472,0 898,-198 1227,-513 387,-372 635,-908 635,-1515 0,-1121 -834,-2030 -1862,-2030z"/>
   <path class="fil10" d="M16414 23963c0,1747 -1416,3164 -3164,3164 -1747,0 -3164,-1417 -3164,-3164l6327 0z"/>
   <path class="fil11" d="M8612 88031c0,-569 15258,-1031 34080,-1031 18822,0 34080,462 34080,1031 0,570 -15258,1031 -34080,1031 -18822,0 -34080,-462 -34080,-1031z"/>
  </g>
 </g>
</svg>
