<?xml version="1.0" encoding="UTF-8"?>
<!DOCTYPE svg PUBLIC "-//W3C//DTD SVG 1.0//EN" "http://www.w3.org/TR/2001/REC-SVG-20010904/DTD/svg10.dtd">
<!-- Creator: CorelDRAW 2019 (64-Bit) -->
<svg xmlns="http://www.w3.org/2000/svg" xml:space="preserve" width="0.148638in" height="0.16in" version="1.0" style="shape-rendering:geometricPrecision; text-rendering:geometricPrecision; image-rendering:optimizeQuality; fill-rule:evenodd; clip-rule:evenodd"
viewBox="0 0 361 389"
 xmlns:xlink="http://www.w3.org/1999/xlink">
 <defs>
  <style type="text/css">
   <![CDATA[
    .fil0 {fill:white}
   ]]>
  </style>
 </defs>
 <g id="Layer_x0020_1">
  <metadata id="CorelCorpID_0Corel-Layer"/>
  <g id="_2585385077728">
   <path class="fil0" d="M326 237c-10,0 -18,0 -28,-1 -4,0 -25,0 -28,1l0 14c13,1 41,0 55,0l0 -13zm0 -195l-152 0 0 -13 152 0 0 14zm0 243l-55 0 0 -14 55 0 0 14zm0 -83l-56 0 0 14 55 -1 0 -13zm0 -35l-55 0 0 13 55 0 0 -14zm0 -35c-14,-1 -147,-1 -152,1l0 13 152 0 0 -13zm-1 -35l-152 0 0 12c6,2 138,2 153,1l-1 -14zm0 -35l-153 0 0 14 152 0 0 -14zm35 264l-111 0c-1,-22 0,-45 0,-67 -1,-47 13,-75 -50,-84 -26,-4 -38,0 -61,5l0 -180 222 0c-3,111 2,218 0,326z"/>
   <path class="fil0" d="M196 188c17,2 56,14 33,30 -19,13 -55,13 -81,7 -5,-1 -8,-4 -13,-6 -11,-4 -13,-14 -3,-21 15,-11 43,-13 64,-11z"/>
   <path class="fil0" d="M99 279c18,2 56,14 32,30 -39,25 -130,2 -96,-20 17,-11 42,-13 64,-10z"/>
   <path class="fil0" d="M125 231c6,1 41,22 86,8 4,-1 9,-2 13,-3 6,-2 8,-5 12,-6 0,20 0,21 -17,28 -22,8 -54,9 -76,1 -16,-6 -21,-7 -19,-27z"/>
   <path class="fil0" d="M27 355c42,17 69,19 111,0 0,19 -1,21 -17,27 -22,9 -55,9 -77,0 -20,-8 -18,-13 -18,-28z"/>
   <path class="fil0" d="M27 320c28,11 50,18 87,9 11,-3 16,-6 24,-9 2,17 -3,22 -16,27 -11,4 -25,6 -38,6 -16,0 -40,-3 -52,-14 -6,-6 -4,-10 -5,-20z"/>
   <path class="fil0" d="M125 270l0 -6c20,7 23,13 55,13 22,0 39,-4 55,-13 2,18 -2,21 -15,27 -11,5 -24,7 -36,7 -7,0 -14,0 -21,-1 -10,-1 -9,0 -13,-8 -4,-9 -14,-15 -25,-19z"/>
   <path class="fil0" d="M153 365l-1 -20c18,1 27,4 46,1 18,-2 23,-6 37,-12 1,17 0,24 -28,31 -16,4 -38,4 -55,0z"/>
   <path class="fil0" d="M179 333l-27 -3 0 -21c24,3 34,5 59,-1 11,-3 16,-6 25,-9 0,14 3,19 -17,27 -8,3 -30,8 -40,6z"/>
   <g>
    <path class="fil0" d="M3 197c3,3 7,7 12,8 4,-10 64,-89 68,-97 -2,-3 -8,-6 -12,-8 -2,5 -29,41 -34,48l-34 48z"/>
    <path class="fil0" d="M70 191c-3,2 -8,6 -12,1 -3,-4 -1,-16 12,-8l0 7zm9 11c2,-3 1,-2 3,-4l3 -5c3,-29 -28,-33 -38,-17 -12,19 9,42 33,26z"/>
    <path class="fil0" d="M28 122c-3,2 -8,6 -12,1 -3,-4 -1,-16 12,-8l0 7zm9 11c2,-3 1,-2 3,-4l3 -5c3,-29 -28,-33 -38,-17 -12,19 9,42 33,26z"/>
   </g>
  </g>
 </g>
</svg>
