<?xml version="1.0" encoding="UTF-8"?>
<!DOCTYPE svg PUBLIC "-//W3C//DTD SVG 1.1//EN" "http://www.w3.org/Graphics/SVG/1.1/DTD/svg11.dtd">
<!-- Creator: CorelDRAW 2019 (64-Bit) -->
<svg xmlns="http://www.w3.org/2000/svg" xml:space="preserve" width="2.66666in" height="2.47723in" version="1.1" style="shape-rendering:geometricPrecision; text-rendering:geometricPrecision; image-rendering:optimizeQuality; fill-rule:evenodd; clip-rule:evenodd"
viewBox="0 0 1212.12 1126.01"
 xmlns:xlink="http://www.w3.org/1999/xlink">
 <defs>
  <style type="text/css">
   <![CDATA[
    .fil0 {fill:#003493;fill-rule:nonzero}
    .fil2 {fill:#BD0003;fill-rule:nonzero}
    .fil1 {fill:white;fill-rule:nonzero}
   ]]>
  </style>
 </defs>
 <g id="Layer_x0020_1">
  <metadata id="CorelCorpID_0Corel-Layer"/>
  <g id="_2030126241184">
   <g>
    <path class="fil0" d="M287.3 167.25l-9.11 19.04 -11.59 4.14 -7.45 19.04 -3.31 39.74 -43.05 35.6 -52.99 0 -18.22 8.28 -25.67 4.97 0 6.62 -30.63 5.79 -9.11 9.94 -25.67 8.28 -30.64 48.02 0 18.22 -15.73 10.76 0 23.18 6.62 19.87 14.9 9.93 6.62 19.04 -9.11 9.94 -19.04 0 -4.14 7.45 15.73 16.56 22.36 39.74 11.59 24.01 -1.66 12.42 7.45 31.46 -2.48 16.56 16.56 31.46 8.28 60.44 -10.76 16.56 -9.11 12.42 -0.83 16.56 31.46 15.73 31.46 4.97 16.56 -12.42 14.9 0 9.11 -9.93 11.59 1.66 18.21 -10.76 14.9 -13.25 77.83 2.49 15.73 -12.42 22.36 -6.62 6.62 -12.42 19.87 -2.48 5.79 -10.76 19.87 -8.28 20.7 -6.62 37.26 -0.83 14.9 -8.28 18.21 -6.62 14.91 -14.07 42.22 6.62 14.07 8.28 39.74 0 12.42 9.11 21.52 10.76 17.39 0 6.62 18.21 9.94 9.11 11.59 24.84 9.11 9.11 8.28 18.21 19.04 3.31 8.28 -19.04 21.53 -19.87 0 -18.21 19.87 -9.94 7.45 23.18 -13.25 17.39 -27.32 27.32 0 13.25 17.39 0 23.18 0 0 17.39 24.01 12.42 8.28 18.22 13.25 9.93 5.8 30.64 12.42 9.94 4.97 14.07 19.04 9.11 28.15 0 12.42 9.94 28.98 5.8 26.49 -11.59 16.56 6.62 15.73 4.97 14.9 8.28 21.53 -4.97 47.19 -38.09 30.63 -1.66 20.7 -6.62 11.59 -7.45 0 -62.93 8.28 -15.73 4.14 -14.9 9.94 -7.45 0 -14.9 14.07 -6.62 4.14 -20.7 13.25 -34.77c0,0 14.9,-14.91 14.9,-17.39 0,-2.48 0,-17.39 0,-17.39l16.56 -9.11 0 -52.16 8.28 -15.73 7.45 -37.67 0 -34.36 -14.9 -19.04c0,0 -8.28,-39.74 -10.76,-45.54 -2.48,-5.79 -13.25,-25.67 -13.25,-25.67l-1.66 -20.7 -37.26 -24.01 -19.04 -20.7 -5.79 -17.39 -22.36 -12.42 -3.31 -12.42 -6.62 -9.11 -12.42 -20.7 -13.25 -7.45 0 -11.59 -14.91 -9.94 -43.88 -22.36 -6.62 -32.29 -12.42 -17.39 -0.83 -33.12 -8.28 -8.28 -4.97 -28.15 -30.63 -22.35 -4.97 -13.25 -11.59 0 -9.94 -36.43 -6.62 -10.76 -4.14 -24.01 -11.59 0 -11.59 -9.94 -11.59 0 1.66 40.57 -11.59 13.25 1.66 28.98 -12.42 14.9 -1.66 54.65 -10.76 25.67 -18.21 14.08 -14.91 3.31 -19.04 -17.39 -24.84 -9.11 -2.48 -7.45 -7.45 -1.66 -14.07 -19.04 -14.9 0.83 -18.22 -14.9 -19.87 -9.94 0 -15.73 16.56 -3.31 10.76 -6.62 -7.45 -14.9 -3.31 -13.25 10.76 -10.76 0.83 -10.76 9.94 -7.45 -0.83 -14.9 -56.3 6.62 -20.7 -9.94 -16.56 3.31 -27.32 -14.07 -16.56 -0.83 -4.97 -8.28 -19.87 0 -24.84 14.07 -9.94 14.07 10.76 1.66 33.12 -6.62 -21.53 16.56 -34.77 28.15 0 10.76 -14.08 15.73 -2.48 21.53 -13.25 13.25 -14.07 -8.28 -9.94 -10.76 -15.73 -0.83 -14.91 -9.94 -19.04 -2.48 -18.21 0 -6.62 11.59 -11.59 4.14 -18.21 25.67 -17.39 3.31 -0.83 17.39 -11.59 4.97 -7.45 19.87 -7.45 -11.59 -7.45 -4.97z"/>
    <path class="fil0" d="M706.24 808.49l-6.62 9.11 -9.11 3.31 -4.97 10.35 12.42 1.66 10.76 -5.79 18.63 -4.55 4.14 14.49c0,0 19.87,2.49 21.11,2.07 1.24,-0.41 7.04,-6.62 7.04,-6.62l0 -8.67 -18.63 -9.96c0,0 -2.9,-3.31 -4.14,-5.38 -1.24,-2.07 -30.63,0 -30.63,0z"/>
    <polygon class="fil0" points="940.34,985.68 934.76,1004.3 948.42,1019.83 948.42,1048.39 963.94,1068.88 963.94,1092.48 976.98,1105.52 998.09,1126.01 1016.72,1126.01 1037.83,1086.89 1040.32,1055.84 1049.01,1044.05 1045.29,1032.25 1034.11,1020.45 1049.01,1009.27 1043.42,992.5 1002.44,1006.17 975.12,1012.38 955.87,990.02 "/>
   </g>
   <polygon class="fil1" points="267.37,653.2 285.27,628.85 255.56,634.41 247.68,605.23 233.5,631.92 205.78,619.89 217.81,647.62 191.12,661.79 220.29,669.68 214.73,699.38 239.09,681.48 258.85,704.36 260.04,674.15 290.24,672.96 "/>
   <polygon class="fil1" points="771.23,363.9 783.42,347.31 763.19,351.1 757.82,331.23 748.16,349.41 729.28,341.21 737.47,360.1 719.3,369.75 739.17,375.12 735.38,395.35 751.97,383.16 765.43,398.74 766.24,378.17 786.8,377.36 "/>
   <polygon class="fil1" points="967.21,363.9 955.02,347.31 975.25,351.1 980.62,331.23 990.27,349.41 1009.15,341.21 1000.96,360.1 1019.14,369.75 999.27,375.12 1003.05,395.35 986.47,383.16 973.01,398.74 972.2,378.17 951.63,377.36 "/>
   <polygon class="fil1" points="882.63,252.05 894.82,235.47 874.59,239.26 869.22,219.38 859.56,237.56 840.68,229.37 848.87,248.25 830.7,257.91 850.57,263.27 846.78,283.51 863.37,271.32 876.82,286.89 877.63,266.32 898.2,265.51 "/>
   <polygon class="fil1" points="842.43,772.74 854.62,756.15 834.39,759.94 829.02,740.07 819.37,758.25 800.49,750.05 808.68,768.93 790.5,778.59 810.37,783.96 806.59,804.19 823.17,792 836.63,807.57 837.44,787.01 858.01,786.19 "/>
   <polygon class="fil1" points="877.79,467.27 886.74,455.09 871.89,457.87 867.95,443.29 860.86,456.63 847,450.62 853.02,464.47 839.68,471.56 854.26,475.5 851.48,490.35 863.65,481.4 873.53,492.83 874.13,477.74 889.22,477.14 "/>
   <polygon class="fil1" points="13.54,450.6 443.61,229.34 479.25,229.34 479.25,255.97 4.73,500.1 -0,495.12 4.14,487.66 23.18,487.66 32.29,477.73 25.67,458.68 "/>
   <polygon class="fil1" points="479.25,481.4 120.99,297.08 115.91,298.06 115.91,304.69 85.28,310.48 77.06,319.44 443.61,508.02 479.25,508.02 "/>
   <polygon class="fil2" points="479.25,489.17 115.91,302.24 115.91,304.69 85.28,310.48 81.9,314.16 458.72,508.02 479.25,508.02 "/>
   <polygon class="fil1" points="479.25,408.3 4.14,408.3 4.14,405.7 19.87,394.93 19.87,376.72 50.27,329.07 479.25,329.07 "/>
   <polygon class="fil1" points="185.92,508.02 185.92,284.82 212.78,284.82 247.02,256.51 247.02,508.02 "/>
   <polygon class="fil2" points="43.54,339.62 479.25,339.62 479.25,397.74 15.76,397.74 19.87,394.93 19.87,376.72 "/>
   <polygon class="fil2" points="196.48,508.02 196.48,284.82 212.78,284.82 236.46,265.24 236.46,508.02 "/>
   <path class="fil2" d="M20.12 454.99l438.6 -225.64 20.53 0 0 18.86 -447.69 230.32 0.73 -0.79 -6.62 -19.04 -5.55 -3.7zm-6.33 32.68l-13.51 6.95 3.86 -6.95 9.65 0z"/>
  </g>
 </g>
</svg>
