<?xml version="1.0" encoding="UTF-8"?>
<!DOCTYPE svg PUBLIC "-//W3C//DTD SVG 1.1//EN" "http://www.w3.org/Graphics/SVG/1.1/DTD/svg11.dtd">
<!-- Creator: CorelDRAW 2019 (64-Bit) -->
<svg xmlns="http://www.w3.org/2000/svg" xml:space="preserve" width="2.66667in" height="2.3423in" version="1.1" style="shape-rendering:geometricPrecision; text-rendering:geometricPrecision; image-rendering:optimizeQuality; fill-rule:evenodd; clip-rule:evenodd"
viewBox="0 0 1212.12 1064.68"
 xmlns:xlink="http://www.w3.org/1999/xlink">
 <defs>
  <style type="text/css">
   <![CDATA[
    .fil0 {fill:#FEFEFE;fill-rule:nonzero}
    .fil1 {fill:#E31E24;fill-rule:nonzero}
   ]]>
  </style>
 </defs>
 <g id="Layer_x0020_1">
  <metadata id="CorelCorpID_0Corel-Layer"/>
  <g id="_2031630413440">
   <g>
    <g>
     <path class="fil0" d="M932.94 564.29c-4.67,-3.59 -9.12,-6.93 -9.12,-6.93 0,0 -9.36,-5.05 -12.06,-6.6 -2.72,-1.54 -10.9,-5.52 -14.37,-9.05 -3.46,-3.52 -13.56,-10.87 -15.6,-12.66 -2.04,-1.79 -6.93,-0.68 -7.02,0.26 -0.09,0.94 0.45,5.13 0.26,7.02 -0.18,1.89 0.26,7.02 -0.73,17.09 -1,10.07 -0.72,7.24 -2.44,15.01 -1.72,7.78 -2.8,5.76 -4.9,10.96 -2.1,5.2 -2.67,7.69 -4.55,7.5 -1.89,-0.19 -5.83,-2.17 -8,-2.7 -2.17,-0.53 -8.57,-3.39 -9.51,-3.48 -0.94,-0.09 -9.13,-4.08 -12.82,-5.4 -3.68,-1.32 -5.17,-5.6 -6.62,-10.19 -1.46,-4.6 0.77,-7.87 0.62,-12.66 -0.17,-4.78 -4.9,-11.61 -9.97,-14.97 -5.07,-3.36 -2.87,0.04 -2.87,0.04 0,0 -3.61,1.23 -9.81,2.84 -6.2,1.61 -11.75,-3.39 -12.66,-3.79 -0.92,-0.41 -5.83,-2.17 -9.45,-4.11 -3.63,-1.95 -11.06,-3.95 -10.87,-5.84 0.19,-1.89 -23.07,-1.33 -25.65,-0.94 -2.58,0.38 -17.85,0.46 -23.26,3.74 -5.4,3.28 -11.98,5.49 -9.2,15.94 2.78,10.45 2.91,9.19 2.15,12.5 -0.75,3.31 4.89,19.13 7.96,22.4 3.07,3.27 0.68,1.76 6.61,14.64 5.94,12.88 -0.54,5.46 -2.41,15.87 -1.88,10.41 -4.27,4.67 -6.37,12.93 -2.08,8.27 1.18,5.2 1.18,5.2 0,0 0,0 10.67,7.84 10.67,7.83 15.54,10.01 16.72,10.97 1.18,0.97 7.61,13.05 10,14.55 2.39,1.51 6.06,11.62 5.65,20.05 -0.41,8.44 -8.87,21.16 -12.35,26.33 -3.47,5.17 -3.93,5.55 -6.25,7.44 -2.31,1.89 -4.31,5.08 -7.66,8.99 -3.35,3.9 -0.62,6.29 -0.62,6.29 0,0 2.32,6.59 4.3,12.29 1.98,5.71 4.62,8.93 10.59,17.15 5.98,8.22 1.48,2.26 5.55,8.17 4.08,5.91 1.53,6.08 2.75,15.11 1.24,9.02 -1.79,5.33 -5.32,10.92 -3.51,5.59 -3.38,8.57 -5.94,12.98 -2.55,4.41 -7.97,7.69 -9.22,7.57 -1.26,-0.13 -12.1,-10.52 -13.94,-13.25 -1.86,-2.72 0,0 -10,-6.07 -10,-6.07 -13.5,-17.86 -13.79,-19.16 -0.3,-1.3 -2.24,-11.66 -3.76,-17.74 -1.52,-6.08 -5.19,-20.43 -4.77,-24.63 0.41,-4.2 -1.94,-6.13 -1.81,-7.39 0.12,-1.26 -13.35,-6.41 -14.61,-6.53 -1.26,-0.13 -7.42,2.23 -10.03,2.83 -2.6,0.59 -5.54,0.3 -14.39,-0.15 -8.86,-0.45 -17.22,-10.18 -18.82,-11.18 -1.59,-1 -4.95,-1.34 -4.95,-1.34 0,0 -19.56,-7.87 -23.55,-10.38 -3.99,-2.51 -5.24,-2.64 -5.24,-2.64 0,0 -2.53,-0.25 -6.73,-0.66 -4.2,-0.42 -14.64,-1.87 -21.95,-5.14 -7.31,-3.26 -9.87,-3.09 -15.79,-3.25 -5.48,-0.15 -4.87,0.67 -4.76,0.79 -0.09,-0.08 -1.61,-1.54 -4.06,-5.9 -2.52,-4.49 -4.5,-10.19 -4.5,-10.19 0,0 -2.69,-2.81 -6.61,-10.4 -3.92,-7.59 -7.28,-12.16 -7.28,-12.16l-4.12 -1.25 -1.63 -4.83c0,0 -3.25,-10.07 -3.31,-18.12 -0.06,-8.06 2.94,-25.56 2.94,-25.56 0,0 1.8,-5.33 3.47,-9.41 1.68,-4.07 1.55,-7.05 3.39,-12.8 1.83,-5.75 1.76,-4.91 3.55,-10.25 1.81,-5.33 4.03,-6.39 8.76,-11.43 4.74,-5.04 3.87,-4.7 6.2,-7.02 2.35,-2.31 3.73,-11.92 3.73,-11.92 0,0 6.79,-4.41 11.78,-7.74 4.99,-3.32 2.89,-3.53 6.91,-5.67 4.03,-2.15 5.5,-8.36 16.39,-19.99 10.89,-11.64 5.79,-7.06 7.79,-10.25 2.01,-3.19 1.14,-2.86 -0.72,-9.82 -1.86,-6.96 2.76,-6.51 4.61,-8.02 1.84,-1.52 2.93,-3.95 3.06,-5.21 0.13,-1.26 -1.44,-11.16 -3.8,-13.09 -2.35,-1.93 6.2,-2.78 7.3,-0.98 1.09,1.81 3.23,1.59 6.59,1.92 3.35,0.33 4.36,-1.26 6.38,-4.46 2,-3.19 2.21,-5.29 4.18,-3.82 1.98,1.47 6.26,1.04 7.56,0.75 1.3,-0.3 5.12,-4.58 5.75,-6.64 0.62,-2.06 5.36,-7.1 10.35,-10.42 4.98,-3.32 3.56,-1.77 3.39,-4.33 -0.18,-2.56 -4.26,-8.48 -6.98,-10.86 -2.73,-2.39 -5.3,-6.46 -8.33,-14.39 -3.03,-7.93 -0.8,-4.74 -0.8,-4.74 0,0 7.88,-15.33 3.84,-17.42 -4.04,-2.09 -9.37,-8.13 -11.93,-12.2 -2.56,-4.07 -7.52,-1.16 -9.23,-0.91 -1.73,0.26 -17.71,3.34 -17.87,5.01 -0.17,1.68 1.72,3.98 3.53,7.13 1.81,3.15 1.48,6.5 1.31,8.18 -0.17,1.68 -0.88,4.58 -3.51,9.82 -2.63,5.25 -0.04,4.66 -0.29,7.18 -0.24,2.52 0.22,6.38 -0.11,9.74 -0.33,3.36 0.04,8.05 0.04,8.05 0,0 -2.06,3.61 -4.86,6.3 -2.81,2.69 -5.16,0.76 -7.68,0.51 -2.52,-0.25 -3.33,-4.99 -8.24,-10.98 -4.92,-6 0.67,-10.96 1.83,-14.23 1.18,-3.28 -0.25,-5.96 -1.27,-8.6 -1.01,-2.64 -3.02,-3.69 -6.09,-6.96 -3.08,-3.27 -5.84,-1 -8.48,0.01 -2.63,1.01 -0.71,7.13 -0.28,11.41 0.42,4.28 -0.75,3.32 -4.31,5.08 -3.57,1.77 -7.19,-4.52 -7.19,-8.76 0,-4.24 0,0 0.79,-3.74 0.79,-3.73 -1.35,-7.76 -6.18,-14.6 -4.84,-6.83 -5.13,0.34 -8.2,-2.93 -3.06,-3.27 1.22,-7.94 5.66,-10.04 4.45,-2.1 0.16,-5.92 0.16,-5.92 0,0 -3.03,-7.93 -4.25,-8.47 -1.22,-0.54 -5.12,-3.9 -7.74,-7.55 -2.6,-3.65 -3.94,-11.41 -3.49,-16.03 0.46,-4.62 -5.59,-3.52 -9.79,-3.93 -4.2,-0.41 -2.3,1.89 -4.44,6.34 -2.14,4.45 -7.59,12.39 -8.92,21.58 -1.32,9.2 0.93,3.48 2.03,9.53 1.1,6.04 1.77,3.56 9.5,15.35 7.73,11.78 2.65,3.23 6.18,6.12 3.53,2.89 8.45,8.89 11.01,12.95 2.57,4.07 -0.42,4.2 -1.71,8.73 -1.3,4.53 -4.61,8.02 -7.34,9.87 -2.72,1.85 -4.49,2.52 -8.97,5.04 -4.48,2.53 -2.85,3.11 -2.76,6.51 0.09,3.4 2.56,4.07 -0.75,7.56 -3.32,3.49 -7.84,-2.05 -7.84,-2.05 0,0 0,0 -2.32,-6.59 -2.31,-6.58 -1.44,-6.92 -4.25,-12.71 -2.83,-5.79 -1.98,-1.47 -3.66,-1.63 -1.67,-0.17 -5.66,1.56 -5.66,1.56 0,0 -1.92,2.36 -4.61,8.02 -2.67,5.67 -11.74,3.08 -14.69,2.79 -2.94,-0.29 -4.95,-1.34 -14.86,-4.01 -9.9,-2.68 -11.72,-5.82 -17.8,-8.54 -6.09,-2.72 -3.53,-2.89 -5.05,-8.97 -1.52,-6.08 -2.65,-7.46 -4.76,-11.91 -2.1,-4.45 -4.41,-2.56 -5.67,-2.68 -1.26,-0.12 -7.55,-0.74 -11.88,0.1 -4.31,0.85 -8.67,2.11 -11.78,3.5 -3.1,1.39 1.85,6.96 1.85,6.96 0,0 1.68,0.16 7.98,0.79 6.29,0.62 3.68,-3.03 10.95,-3.58 7.26,-0.55 1.3,3.94 0.26,5.96 -1.05,2.01 -2.3,1.89 -3.6,2.19 -1.31,0.3 -7.43,6.47 -10.95,7.82 -3.52,1.34 -2.01,3.19 -2.51,8.22 -0.5,5.04 -3.53,1.35 -3.53,1.35 0,0 -8.65,-2.55 -13.61,-8.13 -4.96,-5.57 -6.02,-12.03 -7.28,-12.16 -1.26,-0.13 -4.7,0.38 -9.74,-0.12 -5.03,-0.5 -11.67,-2 -14.18,-2.25 -2.52,-0.25 -5.04,-0.5 -14.32,-5.23 -9.28,-4.73 -2.3,-2.35 -1.9,-6.55 0.42,-4.2 9.53,-2.02 12.3,-4.29 2.76,-2.27 -3.21,-10.49 -3.08,-11.75 0.13,-1.26 -3.24,-5.83 -5.3,-6.46 -2.05,-0.63 -12.76,-3.8 -14.7,-5.69 -1.93,-1.88 -3.77,-4.61 -3.77,-4.61l-2.74 -10.87c0,0 -15.21,-13.37 -21.06,-18.61 -5.83,-5.24 -2.93,-0.29 -2.93,-0.29 0,0 -5.33,2.44 -10.78,1.9 -5.46,-0.54 -2.28,-2.76 -2.48,-4.91 -0.22,-2.14 1.2,-7.93 1.62,-12.13 0.41,-4.2 -3.28,-5.41 -3.28,-5.41 0,0 -1.36,2.01 -2.64,4.71l0 553.08 3.78 1.34 16.54 4.18 7.39 2.42 40.12 5.66 65.48 6.47c0,0 46.25,3.72 70.68,5.28 24.43,1.57 15.27,-0.19 20.31,0.31 5.04,0.5 10.08,0.99 12.6,1.25 2.51,0.25 14.53,7.37 16.96,8.45 2.43,1.09 4.19,0.42 9.23,0.91 5.05,0.5 6.56,2.34 6.56,2.34 0,0 6.81,8.3 10.09,9.47 3.27,1.17 14.6,-1.95 14.6,-1.95 11.95,-5.07 21.77,1.73 25.1,3.33 3.34,1.6 -9.09,5.14 -12.74,6.69 -3.65,1.55 0,0 -9.31,4.17 -9.31,4.16 -5.5,4.22 -14.81,11.57 -9.31,7.34 -5.6,5.17 -5.6,5.17 0,0 7.56,0.74 10.55,-0.55 2.99,-1.3 16.07,-5.09 17.84,-3.64 1.77,1.45 -4.15,3.41 -7.73,10.68 -3.58,7.28 5.01,0.82 12.84,-1.27 7.83,-2.09 14.56,-5.88 16.7,-8.21 2.14,-2.33 8.44,-4.89 12.62,-8.61 4.18,-3.72 3.92,-4.38 10.09,-5.67 6.17,-1.3 -1.22,5.92 -4.27,7.84 -3.05,1.92 -4.83,7.15 -3.58,7.27 1.25,0.12 4.16,-0.22 8.25,0.18 4.08,0.4 3.21,2.86 8.86,6.91 5.63,4.05 3.46,0.34 6.09,-0.67 2.65,-1.01 7.84,-5.27 13.44,-7.25 5.59,-1.99 19.7,-3.14 19.16,-0.97 -0.53,2.17 3,8.24 5.49,8.8 2.49,0.57 4.13,0.09 10.74,0.74 6.62,0.65 5.45,2.77 7.22,7.39 1.77,4.63 -4.85,0.79 -12.31,2.28 -7.45,1.49 -4.49,0.51 -6.7,0.29 -2.2,-0.22 0,0 -2.93,0.66 -2.92,0.67 -5.31,2.34 -12.47,0.68 -7.14,-1.66 -3.48,-0.03 -6.45,0.95 -2.95,0.98 -1.73,4.6 -5.94,5.45 -4.21,0.86 -1.32,-2.67 -2.61,-2.48 -1.29,0.19 -2.96,0.98 -5.86,1.33 -2.88,0.35 -2.57,3.56 -6.47,10.8 -3.89,7.24 -3.98,8.19 -7.35,13.26 -3.36,5.07 -1.53,5.89 0.04,6.04 1.57,0.15 2.05,-1.39 5.72,-6.43 3.67,-5.04 5.4,-9.64 6.94,-12.35 1.54,-2.71 5.04,-2.68 4.91,-1.42 -0.12,1.26 -0.84,5.32 -3.49,9.51 -2.63,4.19 -2.35,4.53 -3.95,11.05 -1.6,6.52 -0.91,2.77 -7.22,15.18 -6.31,12.41 -2.11,2.02 -2.76,8.63 -0.65,6.61 0.2,4.47 3.32,14.63 3.13,10.16 0.51,4.5 0.39,15.3 -0.11,10.79 2.63,8.84 7.1,15 4.48,6.16 6.12,2.51 10.64,1.68 4.53,-0.82 8.01,-10.33 11.32,-14.77 3.3,-4.44 -1.08,-11.56 -1,-15.68 0.09,-4.12 -1.33,-5.85 -4.07,-13.43 -2.75,-7.58 -2.53,-6.61 -1.65,-9.06 0.88,-2.46 4.11,-9.45 4.11,-12.63 -0.01,-3.18 0.97,-3.4 1.05,-7.53 0.1,-4.12 1.76,-8.09 3.21,-9.85 1.44,-1.77 3.87,-0.57 3.72,1 -0.16,1.57 2.62,5.66 4.91,4.93 2.3,-0.73 0.38,-6.96 0.43,-10.76 0.05,-3.81 0,0 0.84,-2.14 0.85,-2.14 3.9,-4.06 4.28,-7.84 0.37,-3.78 3.52,-3.47 5.12,-3.63 1.61,-0.16 5,0.81 9.35,1.88 4.35,1.07 12.57,4.74 15.76,11.1 3.19,6.35 2.84,6.64 3.82,9.59 0.97,2.96 -0.79,4.69 -2.22,9.63 -1.45,4.94 -4.37,5.61 -7.01,9.8 -2.63,4.19 0.33,6.39 0.74,8.65 0.41,2.27 3.37,1.29 4.53,-0.82 1.16,-2.11 1.85,-5.86 3.65,-7.9 1.79,-2.05 7.26,-2.78 9.09,-1.96 1.83,0.81 2.11,4.34 4.45,9.66 2.34,5.31 2.02,5.28 3.92,11.83 1.89,6.55 1.21,7.11 1.05,8.68 -0.15,1.58 -1.44,4.94 -3.36,8.25 -1.92,3.31 -6.31,9.23 -6.81,14.27 -0.5,5.04 5.44,2.76 9.05,8.2 3.59,5.44 1.44,1.41 7.21,1.03 5.75,-0.38 15.66,-7.36 19.05,-9.56 3.4,-2.21 13.78,-10.72 17.49,-12.9 3.71,-2.18 3.49,-3.15 10.15,-9.49 6.67,-6.33 6.14,-4.16 9.02,-7.69 2.9,-3.53 -0.98,-6.13 -0.89,-10.26 0.09,-4.12 2.56,-0.07 7.15,-1.52 4.59,-1.45 16.55,-3.45 21.43,-4.56 4.87,-1.11 3.9,-0.89 8.81,-2.31 4.91,-1.42 2.36,-1.35 6.88,-5.36 4.54,-4 7.18,-5.01 7.18,-5.01 0,0 -2.71,-4.72 -3.15,-6.67 -0.43,-1.95 0.15,-4.75 1.97,-10.3 1.35,-4.12 1.56,-5.54 2.92,-7.7 2.81,-0.96 9.95,-3.39 13.95,-4.64 5.05,-1.58 4.74,-1.9 5.67,-2.53 0.95,-0.63 9.48,-1.58 12.32,-2.21 2.83,-0.63 13.57,-7.89 14.52,-8.21 0.95,-0.31 10.73,-13.25 13.89,-18.94 3.15,-5.68 0,-9.16 1.57,-12.94 1.58,-3.79 -2.84,-2.53 -4.1,-8.21 -1.04,-4.71 -0.35,-16.37 1.35,-24.35 2.16,-2.96 2.34,-2.65 6.28,-6.4 0.19,0.27 0.38,0.53 0.57,0.76 1.57,1.89 4.1,0.94 8.2,-4.11 4.11,-5.05 5.06,-2.53 8.21,-2.21 1.28,0.13 2.61,0.63 4.02,1.36l0 -312.67z"/>
     <g>
      <path class="fil0" d="M605.78 294.75c1.66,-18.81 -1.82,-13.44 1.66,-18.81 3.48,-5.37 7.16,-12.02 7.16,-12.02 0,0 -6.08,-11.48 -13.17,-4.06 -7.09,7.43 -9.52,10.33 -13.85,16.88 -4.33,6.55 -6.26,18.74 -7.2,20.56 -0.95,1.82 -7.18,10.04 -2.22,16.09 4.96,6.05 19.9,17.62 19.9,17.62 0,0 4.36,5.62 -0.86,5.45 -5.24,-0.17 -11.52,-4.12 -12.63,-3.31 -1.11,0.81 -1.69,8.61 1.49,11.42 3.17,2.8 5.47,4.81 8.41,4.95 2.93,0.13 3.58,0.24 7.59,-0.11 3.99,-0.35 5.21,-1.8 5.92,-0.05 0.72,1.76 7.19,4.43 13.01,5.02 5.83,0.59 15.68,2.81 21.37,2.07 5.72,-0.74 14.31,-1.02 15.69,-1.46 1.38,-0.44 0.03,-2.3 -2.12,-3.29 -2.13,-1 14.33,2.93 16.99,0.72 2.65,-2.21 -1.29,-6.45 -2.53,-8.95 -1.25,-2.5 -4.79,-5.03 0.38,-4.54 5.19,0.49 7.99,3.56 9.49,4.46 1.5,0.9 1.89,8.85 2.75,9.65 0.86,0.79 3.47,0.88 4.81,0.76 1.32,-0.12 5.4,1.18 9.16,4.41 3.75,3.22 8.65,5.64 8.65,5.64 0,0 1.67,8.16 -2.01,8.56 -3.69,0.4 -5.57,6.02 -2.4,6.85 3.15,0.83 7.03,-0.86 8.78,-3.54 1.74,-2.68 5.97,-6.61 8.02,-4.97 2.04,1.64 -9.24,0.18 10.58,7.92 19.82,7.74 22.65,14.77 24.32,22.92 1.67,8.15 -1.61,18.49 -4.73,21.61 -3.13,3.12 -3.28,4.08 -4.5,5.53 -1.22,1.45 -11.26,0.52 -4.96,6.45 6.28,5.93 13.39,6.72 13.31,9.34 -0.09,2.62 -1.95,3.97 -7.75,5.35 -5.81,1.38 -9.18,8.09 -17.23,9.11 -8.06,1.03 -10.82,1.9 -12.52,4.27 -1.69,2.36 -9.37,15.62 -5.02,19.26 4.36,3.65 9.84,8.46 17.56,5.41 7.71,-3.05 4.34,-10.82 10.76,-9.8 6.41,1.01 10.94,5.68 11.76,0.55 0.81,-5.13 6.48,-3.58 10.33,-2.97 3.85,0.61 5.06,3.43 7.59,6.14 2.53,2.7 3.14,5.1 5.23,6.41 2.1,1.32 5.71,-0.74 10.35,-0.99 4.64,-0.25 6.15,6.89 5.84,8.82 -0.3,1.92 1.55,6.82 7.96,7.83 6.42,1.02 11.6,1.51 15.44,0.14 3.82,-1.37 3.71,-2.7 5.27,-2.13 1.55,0.58 10.88,6 14.41,6.56 3.52,0.56 17.98,4.82 23.04,3.98 5.07,-0.84 8.48,-1.62 9.54,-2.11 1.07,-0.49 1.6,-7.97 -2.53,-8.95 -4.12,-0.98 -8.3,-1.64 -15.59,-5.43 -7.29,-3.78 -17.68,-8.72 -18.55,-9.51 -0.86,-0.79 -4.82,-2.74 -4.42,-5.31 0.41,-2.56 -1.45,-1.22 0.41,-2.56 1.85,-1.35 1.48,-3.06 6.35,-0.64 4.88,2.42 5.37,3.48 10.67,5.3 5.31,1.83 7.87,2.23 10.1,2.59 2.25,0.36 12.2,1.93 13.8,2.18 1.6,0.25 3.85,0.61 3.85,0.61 0,0 -1.21,-2.82 -2,-8.21 -0.79,-5.39 -0.96,-6.4 -1.67,-8.15 -0.71,-1.76 2.1,-11.18 -4.99,-16.25 -7.1,-5.07 -5.29,-12.34 -11.22,-14.27 -5.94,-1.93 -3.45,-3.18 -9.48,-4.46 -6.05,-1.29 -5.46,-0.86 -10.96,-1.41 -5.51,-0.54 -9.69,-9.43 -9.69,-9.43l-4.35 -9.89 13.23 -6.79c0,0 6.07,3.27 6.73,5.34 0.65,2.08 -3.73,0.72 5.33,5.77 9.06,5.05 6.62,5.98 10.67,5.31 4.05,-0.67 2.33,3.98 5.82,-1.38 3.47,-5.37 7.66,-2.73 3.77,-7.3 -3.88,-4.56 -5.84,-2.57 -4.66,-7.97 1.19,-5.4 -0.78,-5.38 2.93,-8.09 3.71,-2.7 2.45,-0.93 3.71,-2.7 1.26,-1.77 0.55,-11.75 0.55,-11.75 0,0 2.78,-7.12 1.84,-9.57 -0.93,-2.45 -1.82,-7.19 -7.42,-7.09 -5.61,0.1 -12.61,-1.34 -12.61,-1.34 0,0 -14.58,0.65 -19.66,-0.48 -5.08,-1.13 -9.65,-5.48 -14.46,-6.23 -4.8,-0.76 -4.44,-1.03 -8.99,-1.42 -4.54,-0.39 -11.51,2.12 -14.59,-1.32 -3.07,-3.45 -5.43,-5.13 -6.68,-7.63 -1.25,-2.5 -5.24,-8.39 -5.24,-8.39l11.15 -6.13c0,0 -5.75,-5.19 -7.84,-6.51 -2.09,-1.32 -1.08,-1.49 -3.41,-5.47 -2.33,-3.98 -15.95,-11.4 -15.95,-11.4 0,0 -4.51,-2.68 -6.89,-6.35 -2.37,-3.66 -2.46,-7.3 -5.26,-4.12 -2.81,3.17 -9.25,4.45 -10.34,2.97 -1.08,-1.49 -8.6,-7.94 -8.6,-7.94l-8.32 -5.59c0,0 -3.2,1.46 -5.58,2.07 -2.41,0.6 -8.97,0.55 -9.83,-0.24 -0.86,-0.79 4.78,-3.19 -3.58,-6.49 -8.36,-3.3 -4.96,-6.05 -13.85,-8.11 -8.88,-2.06 -12.88,-1.71 -12.95,-3.36 -0.07,-1.66 3.26,0.18 3.31,-6.38 0.06,-6.57 3.73,-6.97 -3.65,-8.14 -7.38,-1.17 -9.14,-2.43 -13.32,-3.09 -4.17,-0.66 -11.22,-1.78 -13.78,-2.18 -2.57,-0.41 -4.83,-2.74 -8.23,0.01 -3.39,2.75 -8.59,6.53 -10.72,7.51 -2.12,0.98 -10.15,5.95 -11.09,7.78 -0.95,1.83 -2.2,5.57 -2.71,8.78 -0.5,3.21 2.27,16.8 2.27,16.8 0,0 4.61,2.04 0.1,5.6 -4.51,3.56 -11.45,10.03 -9.79,-8.78z"/>
      <path class="fil0" d="M448.04 355.06l5.63 2.6 4.33 1.3 1.29 3.9c0,0 1.73,5.19 3.9,5.63 2.17,0.43 -3.03,0 5.2,0.43 8.22,0.43 16.88,1.3 16.88,1.3 0,0 0.44,2.17 -0.43,-2.6 -0.87,-4.76 1.73,-10.83 -2.59,-10.83 -4.33,0 -5.64,-2.6 -6.28,-5.41 -0.65,-2.82 -0.87,-6.28 0,-6.28 0.86,0 0.86,0 4.11,0 3.24,0 12.34,2.38 12.34,2.38 0,0 1.31,0.65 3.04,-1.52 1.73,-2.17 4.32,-4.11 0.64,-8.44 -3.68,-4.33 -4.98,-8.66 -11.91,-10.17 -6.92,-1.52 -7.36,-0.65 -10.18,-2.81 -2.82,-2.17 -3.03,-6.93 -4.98,-8.66 -1.95,-1.73 -3.68,-3.68 -1.08,-9.31 2.6,-5.62 0.42,-13.42 -1.09,-17.97 -1.51,-4.55 -3.24,-7.58 -3.89,-10.61 -0.65,-3.03 -1.73,-6.49 -1.95,-8.66 -0.21,-2.16 0.44,-3.46 -0.86,-5.63 -1.31,-2.17 -7.15,-8.66 -7.15,-8.66 0,0 -1.3,0 -3.46,0 -2.17,0 -6.29,-2.16 -6.29,-2.16 0,0 0,6.06 0.44,10.82 0.43,4.76 -1.3,23.6 -0.87,24.25 0.43,0.65 1.95,1.3 1.08,5.41 -0.87,4.11 -0.22,5.84 -1.3,5.41 -1.08,-0.43 -3.04,-2.16 -3.04,-9.52 0,-7.36 0.66,-8.23 0,-14.29 -0.64,-6.06 -0.86,-8.23 -4.11,-11.26 -3.24,-3.03 -3.46,-4.11 -5.19,-4.98 -1.73,-0.87 -5.63,-0.65 -4.77,1.3 0.87,1.95 4.77,5.63 3.68,6.71 -1.08,1.09 -1.3,2.17 -3.46,2.17 -2.17,0 -1.08,-1.51 -3.46,0 -2.38,1.52 -1.94,1.08 -4.11,2.38 -2.17,1.3 -7.58,8.44 -3.68,1.08 3.89,-7.36 4.76,-10.18 4.76,-11.26 0,-1.08 -1.52,-3.68 -2.82,-3.9 -1.3,-0.22 -3.03,-1.74 -3.68,-1.74 -0.65,0 -4.11,-2.38 -6.06,0 -1.95,2.38 -3.68,3.47 -5.2,3.9 -1.52,0.43 -4.54,1.08 -2.82,-3.03 1.74,-4.11 5.19,-8.23 2.82,-10.61 -2.38,-2.39 0,-5.85 -6.92,-3.25 -6.93,2.6 -6.29,1.08 -12.13,3.68 -5.84,2.6 -8.66,2.81 -11.04,3.9 -2.39,1.08 -4.99,1.95 -5.85,3.25 -0.87,1.3 -2.16,4.98 -2.16,5.63 0,0.65 1.08,5.63 1.08,5.63 0,0 -1.08,0.65 -3.25,1.52 -2.17,0.86 -5.85,4.98 -5.85,4.98 0,0 -0.43,6.28 -0.43,6.93 0,0.65 1.52,1.08 3.46,0.65 1.95,-0.43 3.9,1.52 3.25,3.68 -0.65,2.16 4.11,2.81 6.49,2.6 2.38,-0.22 13.65,-0.43 13.65,-0.43 0,0 0.64,3.9 -5.85,5.2 -6.49,1.3 -11.7,0.65 -14.29,0.65 -2.61,0 -6.07,6.5 -6.07,7.15 0,0.65 0,3.25 2.39,5.2 2.38,1.95 -2.17,1.73 9.74,4.98 11.92,3.25 8.01,1.09 14.72,1.52 6.72,0.43 7.14,-1.08 9.96,1.3 2.82,2.38 12.99,11.05 12.99,11.05 0,0 -1.52,2.6 -11.91,0.21 -10.39,-2.38 -9.74,-7.14 -15.59,-6.93 -5.84,0.22 -6.93,0.22 -11.91,1.52 -4.98,1.3 -10.61,3.25 -10.17,7.36 0.43,4.12 10.17,17.32 10.17,17.32 0,0 11.91,2.16 12.56,2.38 0.65,0.22 0.43,-3.68 2.39,1.73 1.94,5.42 4.33,7.58 2.59,9.31 -1.73,1.73 -0.21,7.58 -0.21,7.58 0,0 3.46,4.98 9.31,4.33 5.84,-0.65 16.02,0 20.13,0.21 4.12,0.22 8.66,-1.95 13.43,-3.24 4.76,-1.3 5.63,-0.22 9.09,-2.17 3.47,-1.95 1.3,1.08 4.99,-3.03 3.67,-4.11 8,-6.71 7.79,-3.03z"/>
      <path class="fil0" d="M523.08 392.43l3.68 -4.98c0,0 3.45,-0.65 2.39,-3.04 -1.09,-2.38 -1.09,-6.5 -3.04,-8.01 -1.95,-1.52 -0.22,-3.03 -3.68,-5.41 -3.47,-2.38 -5.2,-4.76 -9.75,-7.58 -4.55,-2.82 -0.86,-3.03 -4.55,-2.82 -3.68,0.22 -4.32,-2.81 -5.41,0.65 -1.08,3.46 -3.25,4.76 -2.17,5.2 1.09,0.43 2.39,1.95 2.39,1.95 0,0 0.87,1.08 -1.08,1.51 -1.95,0.44 -3.25,0.44 -4.33,2.17 -1.09,1.73 -3.68,4.33 -3.68,4.33l-1.08 0.87c0,0 -1.3,2.16 -1.08,3.24 0.21,1.08 0.43,4.33 1.29,4.98 0.87,0.65 1.52,1.52 3.9,1.52 2.39,0 3.89,-0.44 6.93,0.86 3.03,1.3 2.81,3.03 9.09,5.41 6.28,2.38 8.44,1.73 10.18,-0.87z"/>
      <path class="fil0" d="M520.2 305.71c0,0 7.36,4.55 9.09,-3.89 1.73,-8.45 4.34,-1.3 2.17,-6.49 -2.17,-5.2 -6.06,-4.98 -3.25,-7.36 2.81,-2.38 4.98,-0.87 4.98,-3.68 0,-2.81 -1.09,-4.98 -5.19,-7.8 -4.12,-2.81 -6.5,-6.06 -7.16,-6.06 -0.64,0 -3.24,4.76 -4.32,3.47 -1.08,-1.3 -1.3,-4.98 1.73,-7.36 3.03,-2.38 3.68,-3.46 4.98,-6.71 1.3,-3.25 6.28,-4.11 1.52,-6.93 -4.76,-2.81 -2.38,-4.12 -6.07,-3.47 -3.68,0.65 -2.37,0.43 -4.97,1.09 -2.6,0.64 -0.22,1.3 -4.99,0.86 -4.76,-0.43 -5.2,-1.73 -7.36,-0.65 -2.16,1.08 -4.97,-0.65 -2.81,4.98 2.16,5.63 3.25,3.68 3.68,6.28 0.43,2.6 1.29,1.73 0.64,7.58 -0.64,5.85 0.87,6.28 -0.64,7.58 -1.52,1.3 -3.25,4.55 -5.2,1.08 -1.95,-3.46 -3.9,-9.31 -6.28,-7.8 -2.37,1.52 -4.54,6.06 -3.46,9.31 1.09,3.25 1.95,4.76 3.89,6.06 1.95,1.3 2.82,2.38 4.11,3.47 1.3,1.08 2.83,-1.3 4.99,3.68 2.17,4.98 2.59,6.71 2.59,6.71 0,0 -2.16,-2.38 2.17,2.81 4.34,5.2 8.01,10.83 8.01,10.83 0,0 2.61,4.33 4.77,0.86 2.17,-3.46 4.33,-6.71 2.39,-8.44z"/>
      <path class="fil0" d="M547.73 292.97c0.81,-2.83 -10.82,-7.15 -6.06,-18.41 4.76,-11.26 0,-1.51 3.04,-7.8 3.02,-6.28 -0.87,-8.44 7.79,-12.34 8.66,-3.9 8.44,-6.93 10.61,-4.11 2.17,2.81 -5.19,6.06 3.9,4.55 9.09,-1.51 6.06,-3.47 9.09,-1.51 3.03,1.95 3.46,3.24 3.03,8.23 -0.43,4.98 0.21,9.74 -2.6,12.99 -2.82,3.25 -4.98,5.41 -6.28,7.15 -1.3,1.73 -2.82,5.19 -6.28,5.63 -3.46,0.43 -4.76,-0.22 -4.97,0.86 -0.21,1.08 -0,3.68 0.86,4.98 0.87,1.3 -0.65,7.79 -1.08,9.09 -0.44,1.3 -4.77,5.41 -6.28,4.76 -1.51,-0.65 -7.14,-5.63 -4.77,-14.07z"/>
      <path class="fil0" d="M564.55 196.47c0,0 9.08,3.25 7.14,11.04 -1.95,7.79 -2.6,-2.38 -1.95,6.71 0.65,9.1 0.86,10.18 1.73,13.21 0.87,3.03 -4.11,4.55 -1.08,5.85 3.03,1.3 9.53,0.65 15.8,0.87 6.28,0.22 7.36,0.65 8.23,0.22 0.87,-0.43 -4.76,-3.9 2.16,-3.03 6.93,0.87 12.78,2.38 13.64,2.38 0.86,0 8.66,-3.9 11.04,-5.2 2.39,-1.3 2.16,-0.87 6.28,-1.95 4.12,-1.08 5.63,-1.52 7.36,-2.17 1.73,-0.65 0.65,-0.65 5.63,-1.95 4.99,-1.3 5.84,-1.95 7.15,-2.81 1.3,-0.87 2.38,-1.95 3.03,-2.17 0.65,-0.21 3.25,3.47 1.3,-4.11 -1.96,-7.58 -0.65,-9.75 -3.68,-11.26 -3.04,-1.52 -2.39,-6.5 -6.29,-7.79 -3.9,-1.3 -7.58,-5.2 -11.04,-3.46 -3.47,1.73 -6.06,1.51 -8.45,3.68 -2.38,2.17 -4.76,2.17 -6.92,5.41 -2.17,3.25 -5.62,7.8 -8.01,7.8 -2.39,0 1.29,-0.87 -4.99,-0.87 -6.27,0 -8.43,-0.43 -10.38,-0.43 -1.95,0 -5.85,-3.46 -6.28,-4.98 -0.44,-1.52 -7.36,-1.3 -7.58,-2.81 -0.23,-1.52 -0.66,-5.41 2.38,-5.63 3.03,-0.21 2.6,-5.41 -0.86,-4.76 -3.46,0.65 -12.56,0.43 -10.18,-1.08 2.38,-1.52 7.57,-2.38 3.03,-2.81 -4.55,-0.43 -8.44,3.25 -11.69,3.9 -3.25,0.65 -1.08,-3.03 -4.55,-5.2 -3.46,-2.16 -8.45,-4.54 -10.61,-4.76 -2.17,-0.22 -3.24,-1.73 -4.76,0.43 -1.51,2.16 -4.76,-0.43 -2.81,2.81 1.95,3.25 2.81,3.46 2.81,4.33 0,0.87 -0.22,1.73 0,2.6 0.22,0.86 0.86,2.81 2.39,2.81 1.52,0 3.68,1.08 6.71,2.16 3.03,1.08 2.6,1.08 4.55,1.08 1.95,0 3.68,0 4.97,-0.65 1.3,-0.65 2.17,0.43 4.77,2.6z"/>
      <path class="fil0" d="M548.93 215.76l-4.98 5.85c0,0 -1.72,3.89 -3.02,6.27 -1.31,2.39 -2.6,0 -2.39,3.25 0.22,3.25 2.6,6.49 4.33,8.44 1.73,1.95 11.9,1.73 11.9,1.73 0,0 1.08,0.43 2.82,-1.95 1.73,-2.38 3.03,-1.52 1.95,-6.71 -1.08,-5.2 -0.22,-6.28 -3.46,-9.74 -3.25,-3.47 -4.98,-6.06 -4.98,-6.06 0,0 -0.22,-3.68 -2.16,-1.08z"/>
      <path class="fil0" d="M527.62 202.97c-1.2,-2.56 3.42,-1.93 1.08,-11.26 -0.54,-2.16 0.04,-7.02 -1.41,-8.66 -1.93,-2.19 -10.71,-2.81 -11.15,-3.47 -0.43,-0.65 -2.17,-3.24 -4.33,-2.38 -2.17,0.87 -5.84,-2.81 -4.32,1.3 1.51,4.11 2.6,6.93 3.24,7.36 0.64,0.43 6.71,3.9 3.03,6.5 -3.68,2.6 -1.95,4.33 -4.33,0.43 -2.38,-3.9 -3.68,-8.44 -5.41,-7.8 -1.73,0.65 -2.6,1.08 -2.81,2.81 -0.22,1.74 0.43,4.77 1.52,5.41 1.08,0.65 3.46,1.52 1.74,3.68 -1.74,2.16 -2.38,1.73 -3.69,3.9 -1.3,2.16 -3.89,3.03 -3.89,3.03 0,0 -0.43,0.87 0.65,1.73 1.09,0.86 3.04,1.08 3.04,1.08 0,0 -3.26,1.3 2.16,-0.22 5.42,-1.52 5.42,-1.73 7.14,-2.16 1.74,-0.43 3.24,-1.08 4.55,-1.51 1.29,-0.44 2.17,-0.44 2.17,-0.44 0,0 0.42,-0.43 1.08,1.73 0.65,2.17 0.21,2.81 -1.52,3.9 -1.73,1.08 -2.6,4.54 -3.25,6.93 -0.65,2.38 -3.03,8.01 1.3,7.36 4.33,-0.65 8.65,-0.65 11.26,-1.95 2.6,-1.3 4.76,1.52 4.11,-2.38 -0.65,-3.9 -3.89,-4.98 -1.51,-6.71 2.39,-1.73 6.29,-2.16 5.63,-4.11 -0.65,-1.95 -4.94,-1.68 -6.06,-4.11z"/>
      <path class="fil0" d="M616.03 170.18l-3.68 4.76c0,0 -3.03,1.08 -5.19,3.25 -2.16,2.16 -4.76,4.33 -4.76,4.33 0,0 -2.38,-1.95 -0.86,1.52 1.52,3.46 1.52,4.76 4.11,4.76 2.6,0 6.49,-0.43 11.48,-0.43 4.97,0 15.59,-0.22 17.1,-0.65 1.52,-0.43 1.73,0.43 3.25,-1.08 1.52,-1.52 1.94,-0.87 5.42,-2.6 3.46,-1.73 5.63,-4.55 6.92,-4.98 1.3,-0.43 7.36,-4.11 7.15,-1.08 -0.21,3.03 -1.08,10.17 1.74,10.61 2.81,0.43 7.79,-9.31 8.86,-11.69 1.09,-2.38 7.8,-2.16 3.04,-8.22 -4.77,-6.06 -5.2,-7.15 -6.49,-7.15 -1.3,0 -3.04,-1.73 -4.55,-1.73 -1.52,0 -7.14,-2.17 -8.01,-3.25 -0.87,-1.09 3.89,-2.38 5.84,-3.9 1.95,-1.52 2.81,-1.73 2.81,-3.46 0,-1.73 2.17,-1.51 0,-4.98 -2.17,-3.46 -2.81,-4.98 -2.59,-5.63 0.22,-0.65 2.39,-0.43 4.98,-3.68 2.59,-3.25 3.46,-3.9 3.9,-6.07 0.43,-2.16 0.64,-0.65 1.3,-4.98 0.65,-4.33 -0.44,-5.19 -3.47,-10.61 -3.04,-5.41 -2.82,-7.15 -4.98,-8.88 -2.17,-1.73 -2.38,-1.73 -3.68,-3.68 -1.3,-1.95 -1.52,-5.2 0.43,-8.01 1.95,-2.82 1.95,-2.17 4.33,-4.98 2.38,-2.81 1.73,-3.25 3.47,-6.71 1.73,-3.46 2.81,-6.49 2.81,-8.23 0,-1.73 -0.21,-11.26 -0.65,-13.21 -0.43,-1.95 -0.65,-1.08 -0.21,-3.9 0.43,-2.81 -1.51,-8.22 0.65,-11.69 2.16,-3.46 0.43,-3.68 2.16,-10.82 1.73,-7.15 2.6,-9.53 2.6,-9.53 0,0 1.09,-8.87 -2.17,-4.11 -3.25,4.76 -5.85,10.61 -7.36,11.69 -1.52,1.08 -1.73,3.9 -2.6,0.43 -0.87,-3.46 -0.87,-4.76 2.38,-9.31 3.25,-4.55 6.06,-2.81 5.19,-8.66 -0.86,-5.85 -1.51,-4.76 -4.54,-7.15 -3.03,-2.38 -12.56,-6.49 -12.56,-6.49 0,0 -1.95,-0.22 -5.19,1.51 -3.25,1.73 -4.12,1.52 -7.15,2.82 -3.03,1.3 -6.06,2.17 -6.06,2.17 0,0 -8.87,6.93 -12.56,8.87 -3.68,1.95 -4.33,1.73 -9.31,4.55 -4.98,2.81 -8,2.16 -8.66,5.2 -0.65,3.03 1.08,7.58 0.66,9.1 -0.44,1.51 -5.19,3.25 -7.15,4.76 -1.95,1.52 -1.95,1.52 -3.68,3.03 -1.73,1.52 -4.54,5.85 -6.27,8.88 -1.74,3.03 -3.68,6.06 -5.21,7.15 -1.51,1.08 -3.68,1.08 -4.54,1.73 -0.87,0.65 -0.65,5.2 2.38,6.28 3.03,1.09 1.52,1.31 3.68,4.98 2.16,3.68 -0.65,0.65 2.82,4.76 3.46,4.12 2.6,3.47 3.46,4.12 0.87,0.65 -4.98,3.46 1.95,4.11 6.93,0.65 6.93,1.3 8.45,0 1.51,-1.3 0.43,-2.81 2.17,-2.38 1.73,0.43 10.6,2.82 11.69,1.95 1.08,-0.87 5.85,-3.25 6.93,-5.2 1.08,-1.95 -0.44,-4.55 1.74,-6.71 2.16,-2.17 0.86,-6.5 3.67,-5.42 2.82,1.08 2.16,3.25 1.95,6.28 -0.21,3.03 3.46,5.42 -0.43,9.09 -3.9,3.68 -6.93,6.93 -6.93,6.93 0,0 -0.22,0.65 0.86,1.52 1.08,0.86 4.33,5.41 4.55,6.06 0.22,0.65 2.38,2.38 0,2.81 -2.38,0.43 -1.94,0 -4.55,-1.3 -2.6,-1.3 -3.46,-0.22 -6.28,-2.38 -2.81,-2.17 -2.81,-2.17 -2.81,-2.17l-1.73 0c0,0 0.43,-3.03 -3.02,0 -3.47,3.03 -1.52,7.14 -0.66,7.36 0.87,0.22 2.17,-0.86 2.39,0.65 0.21,1.51 -3.25,1.51 0.65,3.47 3.89,1.95 7.79,4.98 7.79,4.98 0,0 0.43,1.3 1.73,3.9 1.3,2.6 6.92,4.98 7.79,5.63 0.87,0.65 3.9,3.03 3.9,3.03 0,0 -1.73,5.41 -5.42,6.5 -3.68,1.08 -3.89,-0.87 -9.1,2.38 -5.19,3.25 -5.63,3.46 -5.63,4.76 0,1.3 -0.21,3.46 -0.21,5.63 0,2.16 -1.3,0.87 0,2.16 1.3,1.3 2.38,2.6 3.25,2.6 0.86,0 6.71,-4.33 6.92,-5.84 0.21,-1.51 0.43,-3.46 1.08,-3.46 0.65,0 3.03,5.41 3.47,9.31 0.43,3.9 0,3.9 0.22,5.84 0.21,1.95 -6.72,0.87 0.43,4.12 7.15,3.25 9.52,3.03 9.09,4.55 -0.44,1.51 2.81,5.41 -4.77,3.46 -7.58,-1.95 -6.28,0.65 -9.31,-4.33 -3.03,-4.98 -3.89,-7.36 -6.06,-4.76 -2.16,2.6 -5.84,3.9 -3.89,7.36 1.95,3.47 7.36,7.8 7.36,7.8z"/>
      <path class="fil0" d="M589.12 96c0,0 2.17,1.3 -7.36,-5.84 -9.53,-7.15 -5.2,-4.98 -8.01,-6.5 -2.81,-1.52 -6.28,-0.86 -7.59,-6.93 -1.29,-6.06 4.11,-10.83 -2.16,-8.44 -6.27,2.38 -7.36,1.52 -8.65,5.41 -1.31,3.9 -1.95,4.55 -1.73,7.58 0.22,3.03 -0.22,2.38 -0.87,6.93 -0.64,4.55 -1.07,9.31 -1.07,9.96 0,0.65 2.59,4.76 2.8,5.41 0.23,0.65 3.26,4.76 3.26,8.44 0,3.68 0,6.93 0,6.93 0,0 -2.6,0.65 -0.44,1.51 2.17,0.87 3.9,1.52 5.19,0.87 1.3,-0.65 4.33,-3.47 6.07,-3.47 1.73,0 2.6,5.41 1.73,5.85 -0.86,0.43 -2.81,0.43 -3.9,1.52 -1.08,1.08 -3.02,5.2 -1.73,6.92 1.3,1.73 5.2,4.33 5.85,4.33 0.65,0 1.73,7.14 1.73,7.14 0,0 -0.43,0.43 3.68,0.65 4.12,0.22 5.42,1.08 7.8,1.08 2.38,0 3.46,-2.81 5.41,-2.17 1.95,0.65 5.2,6.5 5.42,0 0.22,-6.5 -3.46,-5.41 -0.43,-10.17 3.03,-4.77 3.46,-5.2 5.63,-6.93 2.17,-1.73 5.64,-3.9 6.06,-5.84 0.44,-1.95 4.55,-0.43 -0.22,-5.85 -4.76,-5.41 -5.63,-8.88 -6.49,-9.31 -0.87,-0.43 -0.65,-2.17 -4.76,-2.82 -4.12,-0.64 -8.45,0.22 -8.66,-3.03 -0.22,-3.25 4.11,-0.22 3.46,-3.25z"/>
      <path class="fil0" d="M564.17 148.21c0.42,-0.5 -5.96,-5.94 -5.96,-5.94 0,0 4.11,-1.74 2.38,-4.33 -1.74,-2.59 -2.81,-3.68 -4.12,-4.33 -1.3,-0.65 -3.25,-1.52 -4.98,-2.38 -1.73,-0.87 -4.33,-1.95 -4.33,-1.95l-3.9 -0.43 -1.73 2.38c0,0 -0.22,1.95 0,2.6 0.21,0.65 0.21,0.65 0.87,1.52 0.64,0.86 1.07,1.08 1.07,1.73 0,0.65 0.43,3.9 0.43,4.55 0,0.65 1.51,2.81 1.73,3.47 0.21,0.65 1.51,3.47 1.51,3.47l0.88 2.6c0,0 0.21,1.51 2.16,1.29 1.95,-0.21 3.68,-1.73 4.55,-1.95 0.86,-0.22 6.36,1.39 9.43,-2.29z"/>
      <path class="fil0" d="M532.84 139.48c0.57,-1.79 1.51,0 -1.52,-7.36 -3.03,-7.36 2.59,-5.63 -0.65,-6.71 -3.24,-1.08 -2.81,1.3 -4.54,-2.17 -1.74,-3.46 -0.22,-4.98 -2.6,-5.41 -2.39,-0.44 -1.95,4.33 -4.77,-0.44 -2.81,-4.76 -3.24,-6.28 -3.9,-6.28 -0.65,0 -6.92,-2.6 -8.01,0.22 -1.07,2.81 -1.29,6.71 1.74,8.66 3.02,1.95 5.63,0.86 5.19,3.68 -0.44,2.81 4.76,4.76 2.17,6.28 -2.61,1.52 -3.03,1.52 -4.99,1.52 -1.95,0 -4.76,-0.43 -4.76,3.68 0,4.11 3.24,4.77 4.32,4.77 1.08,0 0.87,-0.65 3.68,-1.08 2.82,-0.43 3.9,-2.81 7.15,0.43 3.24,3.25 4.33,3.03 5.62,5.42 1.3,2.38 1.95,5.84 2.17,6.93 0.21,1.09 2.16,1.73 4.75,0.21 2.6,-1.51 -2.21,-8.79 -1.08,-12.34z"/>
      <path class="fil0" d="M563.93 168.22c-0.46,-1.22 0.43,-4.33 -1.52,-6.49 -1.94,-2.17 -4.11,-3.9 -6.49,0.65 -2.39,4.55 5.63,8.23 6.71,8.23 1.08,0 1.94,-0.65 1.3,-2.38z"/>
      <path class="fil0" d="M525.62 149.84c-0.33,-0.38 0.4,-4.78 -5.59,-2.44 -6,2.34 -3.37,1.02 -5.75,2.78 -3.62,2.68 -3.67,3.5 -1.67,5.34 2,1.83 3.51,3.67 5.83,2 2.34,-1.67 5.17,-3.17 6,-4.5 0.84,-1.33 2.5,-1.66 1.17,-3.17z"/>
      <path class="fil0" d="M428.98 136.13c-2.39,0.44 1.72,-0.43 -5.64,-1.3 -7.36,-0.86 -5.84,-2.6 -5.84,-2.6 0,0 -4.98,2.82 -6.49,3.9 -1.51,1.08 -5.2,7.15 -7.15,8.45 -1.95,1.3 -4.76,2.17 -6.92,3.03 -2.17,0.87 -6.5,1.3 -6.5,1.3 0,0 -0.87,-0.65 -1.95,0.87 -1.08,1.51 -3.25,4.55 -3.25,5.2 0,0.65 0,2.6 0,2.6 0,0 0.86,-1.08 2.38,-0.87 1.51,0.22 1.73,1.52 2.6,2.38 0.87,0.87 1.95,0.87 3.25,0.65 1.3,-0.22 3.25,0.43 3.25,0.43 0,0 1.51,-1.73 2.81,-1.3 1.3,0.43 -0.44,3.03 1.08,4.33 1.51,1.3 2.81,1.51 4.54,0.43 1.74,-1.08 1.74,-2.6 2.17,-3.68 0.43,-1.08 0.43,-1.73 2.6,-2.38 2.17,-0.65 0.87,1.73 2.17,-0.65 1.3,-2.38 0.65,-1.73 1.73,-3.25 1.08,-1.52 1.95,-3.25 2.6,-3.47 0.65,-0.21 0.43,-0.65 2.37,-1.3 1.95,-0.65 3.9,-4.12 1.95,-0.65 -1.95,3.47 -2.39,3.03 -2.6,4.33 -0.22,1.3 -1.51,2.81 0.44,4.54 1.95,1.74 3.68,3.25 3.68,3.25 0,0 0.21,3.9 2.38,-0.22 2.17,-4.12 2.16,-4.33 2.59,-4.98 0.43,-0.65 0.22,-0.21 2.17,-1.51 1.95,-1.3 1.95,1.3 1.95,-1.3 0,-2.6 -1.95,-3.9 -0.43,-4.76 1.51,-0.87 1.51,-0.87 2.38,-1.52 0.87,-0.65 1.08,-0.87 2.38,-2.38 1.3,-1.52 2.81,1.95 2.17,-4.12 -0.65,-6.06 -1.1,-8.66 -3.04,-8.66 -1.95,0 -4.76,0.43 -5.19,2.81 -0.44,2.38 -0.65,2.38 -0.65,2.38z"/>
      <path class="fil0" d="M447.58 193.87c0,0 -4.11,-0.65 -5.2,-6.93 -1.08,-6.28 -0.21,-1.09 -0.86,-4.77 -0.66,-3.68 -1.08,-6.49 -2.6,-7.15 -1.52,-0.65 -1.3,1.51 -4.11,-0.87 -2.81,-2.38 -3.68,-1.95 -3.68,-4.33 0,-2.39 0.65,-4.33 -0.22,-4.33 -0.86,0 -2.81,1.52 -5.84,3.47 -3.03,1.95 -3.47,1.52 -4.99,2.6 -1.51,1.08 -1.29,-0.43 -3.03,1.95 -1.74,2.38 -4.54,0.65 -1.74,2.38 2.82,1.74 4.98,2.82 4.98,2.82 0,0 0.43,0.87 -3.03,2.17 -3.47,1.3 -4.97,0.87 -6.28,1.73 -1.3,0.87 -1.73,1.95 -1.73,1.95 0,0 2.81,1.08 0,1.73 -2.81,0.65 -3.69,0.65 -4.77,3.03 -1.08,2.38 -2.81,5.85 -0.43,6.71 2.38,0.87 6.28,1.95 7.35,2.17 1.1,0.21 4.33,1.73 4.33,1.73 0,0 0.44,0.22 4.12,-0.22 3.68,-0.43 8.23,-0.21 9.53,0.22 1.3,0.43 1.3,0.87 4.33,0.87 3.03,0 6.06,0 7.58,0.21 1.52,0.22 5.2,-2.38 3.03,0.87 -2.16,3.25 -1.95,4.98 -7.58,4.98 -5.63,0 -6.93,-0.65 -9.31,0.22 -2.38,0.87 -6.5,5.41 -6.5,5.41 0,0 0,1.08 1.95,2.6 1.96,1.51 6.71,4.76 6.71,4.76 0,0 -1.29,0.86 3.03,0.22 4.33,-0.65 6.5,-2.6 9.31,-3.68 2.81,-1.08 4.12,-1.52 7.36,-3.03 3.24,-1.52 5.84,-3.47 8.44,-3.47 2.59,0 5.63,-1.52 8.01,0.43 2.38,1.95 -4.11,2.38 2.82,3.04 6.93,0.65 11.47,-4.55 12.55,-9.96 1.08,-5.42 1.73,-6.5 2.17,-11.91 0.43,-5.41 5.41,-5.85 0.43,-5.41 -4.98,0.43 -6.93,0 -7.79,1.3 -0.87,1.3 -2.82,5.63 -4.77,3.68 -1.94,-1.95 -4.33,-5.2 -4.33,-5.2 0,0 0,-0.43 0.44,-1.73 0.43,-1.31 -0.87,-3.04 -1.95,-4.34 -1.08,-1.3 -1.3,-1.52 -1.3,-4.11 0,-2.6 0,-2.6 0,-3.68 0,-1.08 2.17,-0.21 0,-4.77 -2.16,-4.55 -0.43,-4.98 -0.43,-4.98 0,0 -4.55,1.3 -6.28,3.68 -1.73,2.38 -2.17,5.41 -3.68,6.06 -1.51,0.65 -3.47,1.52 -3.47,1.52 0,0 4.55,2.6 5.2,3.25 0.65,0.65 1.74,4.11 1.95,4.76 0.21,0.65 3.68,0.64 0.65,1.51 -3.03,0.87 -4.98,0.65 -4.98,1.3 0,0.65 -0.65,1.52 0.22,2.38 0.87,0.87 1.95,3.25 3.24,3.68 1.31,0.43 2.82,-1.73 3.04,2.17 0.22,3.89 -8.67,4.76 -11.91,1.3z"/>
      <path class="fil0" d="M507.46 161.64c0,0 -6.07,-10.39 -8.02,-10.82 -1.95,-0.44 -0.43,4.11 0.22,6.28 0.65,2.16 0.65,9.09 3.24,9.52 2.61,0.43 8.23,-1.94 4.55,-4.98z"/>
      <path class="fil0" d="M474.09 136.71c0,0 10.4,-1.3 3.9,-3.25 -6.5,-1.95 -2.17,-2.38 -6.5,-1.95 -4.32,0.43 -2.6,-1.08 -6.06,0.43 -3.46,1.52 -4.76,-3.68 -6.93,2.16 -2.17,5.85 -2.81,9.96 -2.17,10.61 0.65,0.65 0.44,2.38 2.39,2.38 1.95,0 7.14,0.22 7.14,0.22 0,0 8.01,-2.38 8.23,-3.68 0.22,-1.3 -6.28,-2.38 -5.84,-4.77 0.44,-2.38 5.84,-2.17 5.84,-2.17z"/>
      <path class="fil0" d="M457.2 124.39c0,0 -6.28,0.43 5.84,0.43 12.12,0 10.39,0.43 10.39,0.43 0,0 2.39,0.22 3.25,-1.3 0.86,-1.52 3.03,-1.52 1.3,-4.33 -1.73,-2.82 1.07,-4.98 -3.03,-4.12 -4.11,0.87 -9.1,3.68 -12.12,4.33 -3.03,0.65 -8.23,-1.08 -9.53,0.44 -1.29,1.51 2.82,3.9 3.9,4.11z"/>
      <path class="fil0" d="M405.62 169.36c0,0 -6.71,4.98 -8.66,5.2 -1.96,0.21 -1.52,4.33 0.21,4.33 1.74,0 2.6,0.87 4.33,0.87 1.74,0 -2.16,2.6 4.12,-1.95 6.28,-4.55 8.01,-6.71 6.92,-7.58 -1.08,-0.87 -3.46,-3.68 -6.05,-1.51l-0.87 0.65z"/>
      <path class="fil0" d="M380.22 204.06c-0.12,-0.67 6.06,-11.04 -8.23,-15.59 -14.29,-4.55 -8.45,1.52 -10.4,-0.21 -1.95,-1.73 -3.68,-3.03 -3.68,-3.03 0,0 -3.9,-1.73 -7.37,-1.3 -3.46,0.43 -4.54,6.28 -5.2,8.66 -0.65,2.38 0.87,9.31 0.87,9.31 0,0 -6.28,6.5 -7.58,7.36 -1.3,0.87 -10.61,16.02 -12.56,17.1 -1.95,1.08 -5.41,6.5 -6.06,6.71 -0.65,0.22 -3.03,3.25 -1.73,4.98 1.3,1.73 4.77,8.88 6.51,11.26 1.73,2.38 4.11,4.11 4.11,5.63 0,1.52 -0.43,1.74 -2.38,5.42 -1.95,3.68 3.68,7.8 4.32,7.36 0.66,-0.43 8.66,-6.28 9.97,-6.71 1.3,-0.43 4.98,3.68 5.63,3.68 0.64,0 4.12,4.98 6.93,-1.08 2.82,-6.06 1.3,-6.93 4.55,-10.39 3.24,-3.46 2.37,-7.36 12.12,-13.21 9.74,-5.85 19.05,-10.18 19.05,-10.18 0,0 7.58,-1.73 9.96,-2.38 2.39,-0.65 6.92,0 4.54,-4.98 -2.37,-4.98 -1.72,-0.43 -4.1,-8.66 -2.39,-8.23 -3.25,-9.75 -3.25,-10.39 0,-0.65 -2.17,-1.73 -3.68,-1.73 -1.52,0 -6.49,-2.38 -7.58,-0.21 -1.07,2.16 -4.33,4.98 -4.76,2.6z"/>
      <path class="fil0" d="M477.44 263.6c0.36,-1.25 8.66,-6.49 3.03,-11.26 -5.63,-4.76 1.73,-4.11 -4.12,-4.55 -5.84,-0.44 -5.62,-1.73 -9.52,-0.44 -3.89,1.3 -6.72,5.42 -4.76,6.72 1.94,1.3 2.38,1.08 4.98,3.68 2.59,2.6 3.45,4.98 4.97,6.06 1.52,1.08 3.03,8.01 5.41,-0.22z"/>
      <path class="fil0" d="M680.28 498.33c0,0 0.43,-6.49 -14.72,-13.86 -15.15,-7.36 -1.3,-3.46 -12.99,-7.36 -11.69,-3.9 -13,-3.03 -18.19,-4.33 -5.19,-1.3 -9.09,-14.72 -11.69,-6.93 -2.59,7.8 -2.16,14.29 -2.16,17.32 0,3.03 0.43,13.42 0.43,13.42 0,0 0.43,2.17 0.87,4.76 0.43,2.6 2.16,3.47 0.43,5.63 -1.73,2.16 -3.89,5.63 -3.89,5.63l2.16 9.96c0,0 0.43,2.17 3.9,0.43 3.46,-1.73 7.79,-7.36 7.79,-3.03 0,4.33 6.05,13.42 8.66,10.82 2.6,-2.59 3.47,-5.19 6.5,-8.66 3.03,-3.46 7.36,-6.49 7.36,-7.79 0,-1.3 -0.87,-10.4 -0.87,-10.4 0,0 4.77,0 6.51,0 1.73,0 3.46,3.04 7.79,4.76 4.34,1.73 -6.49,1.73 4.34,1.73 10.82,0 14.83,0.71 16.56,0.71 1.73,0 5.09,7.09 5.09,-2.44 0,-9.53 1.29,-14.29 -3.03,-15.15 -4.33,-0.87 -6.49,4.76 -10.83,4.76z"/>
      <path class="fil0" d="M664.94 532.13c-1.49,1.49 -10.88,6.01 -10.88,6.01l-4.71 6.82c0,0 2.44,7.15 2.44,8.12 0,0.97 -0.49,2.43 0.33,4.06 0.81,1.62 -3.74,8.28 5.35,0.81 9.1,-7.47 12.67,-8.93 12.67,-9.91 0,-0.98 6.49,-12.51 1.62,-15.59 -4.87,-3.09 -5.69,-1.46 -6.82,-0.33z"/>
      <path class="fil0" d="M684.17 547.04l-3.08 6.82c0,0 0.66,11.04 2.6,12.18 1.95,1.13 2.76,2.27 4.71,2.27 1.95,0 3.25,3.08 4.87,-2.11 1.62,-5.19 5.2,-1.62 2.59,-9.41 -2.59,-7.8 -2.1,-10.39 -5.03,-11.69 -2.92,-1.3 -5.35,-2.27 -6.66,1.95z"/>
      <path class="fil0" d="M729.02 504.18l-5.52 2.76c0,0 -3.08,2.44 0.49,4.38 3.57,1.95 6.49,3.25 8.12,2.92 1.63,-0.33 2.92,2.11 2.92,-2.6 0,-4.71 2.28,-4.38 0.17,-6.17 -2.11,-1.79 -4.55,-3.25 -6.17,-1.3z"/>
      <path class="fil0" d="M803.03 511.59c0,0 -10.38,-0.49 -5.19,3.73 5.19,4.22 1.63,1.14 4.55,3.58 2.93,2.44 2.6,5.03 4.87,2.92 2.28,-2.11 1.79,0 2.44,-3.09 0.65,-3.09 4.71,-4.22 0,-5.03 -4.71,-0.81 -4.71,-5.03 -6.66,-2.11z"/>
      <path class="fil0" d="M713.71 512.46c0.61,-0.21 10.18,0.22 10.18,0.22 0,0 8.22,5.42 2.37,8.23 -5.84,2.81 -8.65,3.25 -9.96,0.65 -1.29,-2.6 -7.79,-7.36 -2.59,-9.09z"/>
      <path class="fil0" d="M877.25 513.75c0,0 -7.59,-2.16 -3.25,4.98 4.33,7.14 4.11,6.28 6.5,6.06 2.38,-0.22 0,-10.39 -3.25,-11.04z"/>
      <path class="fil0" d="M715.25 388.94c0,0 -13,-8.65 -12.56,6.06 0.43,14.72 -2.17,9.09 -0.44,12.99 1.73,3.9 4.33,11.26 4.33,11.26 0,0 4.33,2.16 8.67,0.87 4.33,-1.3 3.9,3.47 6.93,-4.33 3.03,-7.79 9.96,-3.46 3.03,-14.29 -6.93,-10.82 -9.96,-12.56 -9.96,-12.56z"/>
      <path class="fil0" d="M733.74 389.12c-1.29,0.07 -6.5,3.9 -6.5,3.9l4.77 7.36c0,0 2.6,1.73 5.2,1.73 2.6,0 1.3,2.6 2.6,0 1.29,-2.6 1.73,-13.42 -6.07,-12.99z"/>
      <path class="fil0" d="M683.18 372.26c0,0 -7.79,9.96 -2.16,9.52 5.63,-0.43 5.2,-0.43 5.63,-0.43 0.43,0 1.3,-2.59 1.3,-2.59l1.3 -3.9c0,0 -1.73,-6.49 -6.06,-2.6z"/>
      <path class="fil0" d="M668.55 364.63l0.87 13.85c0,0 6.93,-12.12 5.2,-17.75 -1.73,-5.63 -6.93,-2.6 -6.06,3.9z"/>
     </g>
    </g>
    <g>
     <path class="fil1" d="M281.08 305.67c-0.96,1.59 -2.64,4.61 -3.53,7.73 -1.3,4.53 -4.82,1.64 -8.06,0.05 -3.24,-1.59 -1.9,-6.55 -3.04,-12.17 -1.13,-5.62 -0.14,-7.22 -0.43,-12.76 -0.31,-5.54 -5.34,-6.04 -9.96,-6.49 -4.61,-0.46 -3.81,8.52 -5.07,8.4 -1.27,-0.13 -0.21,2.1 -1.25,4.11 -1.05,2.02 0,0 -9.27,-0.49 -9.27,-0.49 -9.87,-3.09 -9.87,-3.09 0,0 2.56,-0.17 10.32,-5.76 7.75,-5.59 -0.31,-5.54 -0.31,-5.54 0,0 -5.95,0.26 -13.59,0.35 -7.64,0.09 -7.64,0.09 -14.31,-0.99 -6.67,-1.08 -5.54,0.3 -10.37,1.94 -4.82,1.64 -3.35,3.91 -7.04,2.69 -3.7,-1.21 -14.69,-5.69 -14.69,-5.69l-8.8 -14.01 -0.32 -18.26 -10.33 -11.19c0,0 -33.04,25.56 -34.43,26.69 -1.38,1.13 -20.1,27.68 -25.43,34.36 -5.32,6.68 -23.09,32.05 -27.66,35.41 -4.57,3.36 -35.63,34.63 -46.28,43.75 -10.64,9.12 -17.02,13.58 -23.34,17.61 -6.33,4.04 -3.61,6.42 -2.34,10.79 1.26,4.37 13.73,15.35 18.32,20.46 4.58,5.11 -3.97,14.44 -4.56,16.08 -0.59,1.64 5.56,20.89 5.56,20.89 0,0 6.75,-4 9.06,-5.89 2.31,-1.89 17.34,4.68 17.34,4.68 0,0 0.01,8.47 -0.7,15.61 -0.7,7.13 -0.23,6.76 -0.15,10.16 0.09,3.4 1.65,13.3 2.29,23.96 0.64,10.66 -0.5,5.04 -1.53,11.29 -1.04,6.25 -6.52,18.85 -6.27,20.57 0.25,1.72 3.07,7.51 6.36,17.15 3.28,9.65 2.31,6.59 6.52,19.72 4.21,13.13 -1.79,13.81 -3.5,18.3 -1.71,4.5 -8.47,8.49 -13,11.43 -4.52,2.95 -6.66,3.15 -9.77,4.55 -3.1,1.39 -5.27,14.73 -5.39,16 -0.13,1.26 2.15,8.26 3.42,21.1 1.28,12.84 2.88,13.84 3.38,17.29 0.51,3.44 0.48,12.34 -0.32,16.08 -0.79,3.73 -2.8,6.93 -3.56,10.24 -0.74,3.31 -0.71,7.14 -0.83,8.4 -0.12,1.26 2.16,8.26 2.16,8.26 0,0 11.06,21.01 15.84,24.03 4.8,3.02 8.24,6.75 9.42,7.71 1.17,0.96 0.59,2.6 0.59,2.6 0,0 5,9.4 5.3,10.69 0.29,1.3 2.4,5.75 2.69,7.05 0.3,1.3 6.2,14.6 6.2,14.6l-1.17 7.51 14.49 12.03 33.3 10.5 24.69 16c0,0 18.05,6.02 20.57,6.27 2.51,0.25 31.15,10.71 31.15,10.71l43.4 6.83 48.09 16.99 0 -557.29z"/>
    </g>
    <g>
     <path class="fil1" d="M1093.19 641.48c-2.24,-3.08 -10.27,-11.83 -12.16,-12.01 -1.89,-0.19 -14.29,-3.32 -25.76,-6.36 -11.45,-3.04 -16.72,-4.51 -15.23,-6.59 1.47,-2.08 11.22,-7.47 1.16,-8.47 -10.08,-0.99 -9.64,4.14 -20.71,3.68 -11.08,-0.46 -9.95,0.92 -10.7,2.12 -0.76,1.2 -2.61,0.7 -2.61,0.7 0,0 -14.21,-4.26 -26.36,-6.73 -12.15,-2.47 -15.59,-3.13 -18.07,-3.69 -2.49,-0.57 -9.5,-19.69 -10.35,-20.73 -0.86,-1.04 -8.6,-9.43 -8.83,-10.41 -0.14,-0.64 -8.63,-7.18 -14.43,-11.6l0 314.26c3.1,0.4 6.51,2.87 10.52,5.64 4.11,2.85 5.68,12.63 8.84,18 3.15,5.37 9.15,11.05 12.62,16.1 3.48,5.05 6.32,2.21 14.52,3.47 8.21,1.26 11.68,-4.11 11.68,-4.11 0,0 1.27,-3.79 1.59,-7.58 0.31,-3.79 9.78,-8.52 11.99,-11.36 2.21,-2.84 4.73,-8.84 6.94,-10.42 2.22,-1.58 0,2.21 -0.31,4.42 -0.31,2.21 -1.26,5.37 1.27,4.73 2.53,-0.63 4.74,-1.89 7.89,-3.78 3.16,-1.89 11.05,-7.26 12.95,-5.68 1.89,1.58 -0.95,3.16 -4.11,6.63 -3.17,3.47 -3.17,2.52 -7.57,5.99 -4.42,3.47 -3.79,5.68 -7.9,10.42 -4.11,4.74 -3.15,3.47 -8.21,17.05 -5.04,13.58 0.32,5.69 0.32,7.26 0,1.58 6.63,11.68 9.47,12.31 2.84,0.63 4.73,-0.94 6.94,-1.58 2.21,-0.63 3.78,-5.05 6.94,-10.73 3.16,-5.68 0.95,-7.26 0.95,-10.1 0,-2.84 3.16,-10.74 4.42,-17.05 1.26,-6.31 19.26,-12.31 20.52,-20.2 1.26,-7.89 10.73,-6.31 13.26,-9.79 2.53,-3.47 7.27,-10.42 7.58,-14.21 0.31,-3.79 -5.05,-0.31 -5.37,-1.26 -0.31,-0.95 -0.94,-3.79 -0.94,-5.68 0,-1.89 1.26,-4.74 1.89,-9.79l2.53 1.9c0,0 2.53,0.31 5.05,-2.53 2.52,-2.84 0,0 3.16,-4.42 3.16,-4.42 2.85,-5.05 2.53,-6.31 -0.32,-1.26 -1.9,-4.1 -3.16,-5.05 -1.26,-0.95 -3.16,0.31 -7.57,4.1 -4.42,3.79 -2.53,1.26 -3.48,1.26 -0.94,0 -1.26,-4.42 -1.26,-12 0,-7.58 -0.64,-5.37 -2.84,-6 -2.21,-0.63 -4.74,1.9 -6.32,3.47 -1.57,1.58 -2.84,5.06 -3.15,6 -0.32,0.95 0,6.94 -0.32,8.52 -0.32,1.58 -0.63,8.21 0.32,11.68 0.94,3.47 2.2,6.63 0.94,10.42 -1.26,3.79 -4.11,-0.31 -4.11,-0.31 0,0 -1.26,4.42 -1.89,5.37 -0.63,0.94 -3.79,3.16 -6,4.73 -2.21,1.58 -5.05,1.9 -7.58,2.84 -2.53,0.94 -4.74,0.94 -9.16,3.48 -4.42,2.53 -3.79,1.26 -10.1,0.94 -6.32,-0.32 0.94,-1.58 0.94,-4.74 0,-3.15 -2.52,0 -3.46,0.31 -0.95,0.31 -1.58,0.63 -5.69,0.63 -4.1,0 -4.74,0 -7.89,-1.27 -3.16,-1.26 -14.53,-10.1 -14.53,-12.94 0,-2.84 -0.64,-6 -1.26,-9.15 -0.64,-3.16 -5.37,-9.79 -6.63,-9.79 -1.26,0 -1.57,1.58 -2.84,3.79 -1.26,2.21 -6.63,4.1 -11.05,5.05 -4.42,0.95 -5.36,0 -11.05,-0.95 -5.68,-0.95 -1.26,-2.53 2.52,-4.1 3.79,-1.58 15.15,-3.15 17.05,-5.68 1.89,-2.52 4.11,-7.58 4.74,-14.84 0.63,-7.26 -0.63,-6.62 -1.58,-8.52 -0.94,-1.9 -0.94,-2.21 -5.36,-6.95 -4.43,-4.74 -4.11,-1.26 -13.26,0.63 -4.18,0.87 -6.12,1.6 -7.42,2.39 1.28,-2.2 2.14,-3.93 2.22,-4.72 0.31,-3.14 0.88,-2.45 6.56,-8.57 5.69,-6.12 6.67,-6.34 10.56,-10.4 3.9,-4.07 6.58,-5.39 8.03,-7.16 1.44,-1.76 4.33,-2.12 6.35,-3.18 2.02,-1.08 8.02,-3.98 15.48,-8.65 7.45,-4.67 5.38,-2.97 11.63,-5.21 6.26,-2.24 9.91,-3.79 12.21,-4.52 2.3,-0.72 8.03,-3.97 17.97,-8.08 9.94,-4.11 18.79,-19.76 21.02,-26.22 2.22,-6.45 1.66,-10.32 5.48,-16.94 3.83,-6.62 6.06,-9.89 6.91,-12.03 0.86,-2.14 3.09,-2.24 9.98,-7.6 6.89,-5.36 6.38,-3.5 7.1,-4.38 0.72,-0.88 2.32,-7.4 3.67,-11.4 1.34,-4 2.79,-8.94 3.6,-13.95 0.81,-5.01 -2,-8.78 -4.24,-11.86z"/>
     <path class="fil1" d="M1104.45 768.2c-0.88,0.2 -4.57,14.27 -6.85,-13.13 -2.29,-27.4 -0.57,-10.27 -1.43,-19.69 -0.86,-9.42 -0.28,1.14 -0.86,-6.57 -0.57,-7.7 -1.99,-8.85 -1.71,-13.13 0.29,-4.28 4.57,-10.56 5.99,-10.85 1.43,-0.28 3.15,2.86 4.57,0 1.42,-2.85 1.42,-7.13 4.28,-4.28 2.85,2.86 3.43,4.57 2,7.14 -1.44,2.57 -1.15,-2.57 -1.44,4.85 -0.28,7.42 0.29,9.7 0.86,11.7 0.58,2 2.85,15.41 3.42,18.26 0.58,2.85 2.29,7.13 4.01,7.99 1.71,0.85 3.99,1.14 3.42,-2.86 -0.57,-4 -2.28,-9.99 -2.28,-9.99 0,0 4.56,-2.57 7.41,-2.86 2.86,-0.29 4.28,-2 4.57,-2.85 0.29,-0.86 2.57,3.43 -0.57,5.99 -3.14,2.57 -5.43,3.14 -2,4.85 3.42,1.71 3.42,1.71 6.28,1.71 2.85,0 9.7,3.43 13.12,-1.43 3.43,-4.85 4.28,-5.71 3.72,-7.42 -0.57,-1.71 -3.43,-4.28 1.15,-5.99 4.56,-1.71 7.41,-3.43 11.13,-3.71 3.7,-0.29 4.56,-1.15 5.42,1.71 0.85,2.85 0.29,10.84 0.29,10.84 0,0 5.14,5.43 6.85,4.57 1.72,-0.85 0.86,-6.28 2,-7.7 1.13,-1.43 2.56,-2.86 3.99,-2.86 1.42,0 1.42,5.71 0.86,7.71 -0.58,2 -3.72,2 -1.15,8.28 2.57,6.28 0.85,7.14 2.28,8.56 1.43,1.43 0.29,3.71 3.43,2.57 3.14,-1.14 2.57,0 2,-4.28 -0.57,-4.28 -1.42,-5.99 -0.29,-8.85 1.14,-2.85 2,-3.14 3.43,-4.85 1.43,-1.71 1.43,5.14 1.99,7.99 0.57,2.85 -1.71,6.85 1.43,6.85 3.14,0 2.28,-7.13 3.42,-7.99 1.14,-0.86 1.71,2 3.14,2.85 1.43,0.86 3.12,0.57 3.12,4.28 0,3.71 -2.27,2.85 0,5.14 2.3,2.28 4.01,9.99 4.58,11.99 0.57,1.99 4,-1.72 0.57,1.99 -3.42,3.72 -6.28,7.99 -7.42,7.99 -1.15,0 -2.57,-9.99 -2.57,-9.99 0,0 -0.85,-0.29 -1.72,-0.57 -0.86,-0.28 -2.57,-2.28 -3.42,2 -0.86,4.28 0.29,7.42 -4,5.99 -4.28,-1.42 -5.14,-14.84 -7.13,-16.55 -2,-1.71 -7.42,-5.14 -7.99,-0.86 -0.57,4.28 0.29,9.42 1.43,12.56 1.13,3.14 0.85,0.86 1.13,3.14 0.3,2.28 0.58,2.85 -0.28,6.28 -0.85,3.43 -0.85,4.28 -2,5.43 -1.14,1.14 -7.42,6.28 -7.42,6.28 0,0 -0.57,0.29 -1.42,0.29 -0.86,0 -7.13,1.71 -2,-2.85 5.14,-4.57 5.99,-5.71 5.99,-11.13 0,-5.42 0.57,-6.28 -0.28,-6.56 -0.85,-0.28 -1.71,-1.14 -3.14,-0.57 -1.42,0.57 -2.56,2.28 -3.42,5.14 -0.86,2.85 -0.58,4.28 -0.86,5.14 -0.29,0.86 -5.42,2.85 -6.85,2.85 -1.43,0 -1.43,0 -1.43,0 0,0 -7.99,6.85 -10.55,8.56 -2.57,1.71 -6.85,4.57 -7.7,4.85 -0.86,0.28 -1.72,0.57 -7.71,3.14 -5.99,2.57 -11.13,13.41 -13.13,15.41 -2,2 -8.85,-3.43 -8.85,-10.84 0,-7.42 3.16,-17.7 3.16,-19.41 0,-1.71 3.42,-2.85 0.56,-3.14 -2.85,-0.28 -6.85,1.14 -6.85,1.14 0,0 -0.57,-4.85 -0.28,-7.42 0.28,-2.57 0.86,-4.28 1.71,-5.71 0.86,-1.43 3.42,-8.28 -1.71,-7.14z"/>
     <path class="fil1" d="M1001.57 797.47c0,0 -10.72,-1.62 -0.65,-6.17 10.08,-4.55 0,-0.65 5.85,-2.92 5.85,-2.27 12.34,-3.57 13.31,-3.9 0.98,-0.33 -2.6,-3.9 8.12,-2.6 10.73,1.3 18.52,3.57 19.5,3.57 0.97,0 2.92,-2.92 3.25,0 0.32,2.92 0.65,9.09 -4.23,10.72 -4.87,1.62 -6.82,3.57 -12.66,3.9 -5.86,0.32 -1.64,2.92 -8.13,0.32 -6.49,-2.6 -3.9,-0.98 -10.07,-3.57 -6.17,-2.6 -10.4,0 -14.29,0.65z"/>
    </g>
   </g>
   <path class="fil1" d="M518.51 674.18l-0.08 -0.01 0.03 -0.08 -0.09 0.07c0,0 -31.57,3.02 -38.96,-3.25 -3.52,-2.99 -6,-19.29 -6,-19.29 0,0 -10.89,18.51 -20.52,33.56 -1.65,2.57 -3.61,3.9 -6.31,1.93 -2.06,-1.51 -1.88,-4.12 -1.05,-7.54 4.72,-19.53 11.24,-54.36 11.24,-54.36 0,0 -13.63,6.48 -17.88,4.21 -8.06,-4.3 -21.67,-35.2 -24.16,-40.99 -2.5,5.8 -16.11,36.69 -24.16,40.99 -4.26,2.27 -17.88,-4.21 -17.88,-4.21 0,0 6.52,34.84 11.25,54.36 0.82,3.42 1,6.04 -1.06,7.54 -2.7,1.97 -4.67,0.64 -6.32,-1.93 -9.62,-15.05 -20.51,-33.56 -20.51,-33.56 0,0 -2.47,16.3 -6.01,19.29 -7.39,6.26 -38.96,3.25 -38.96,3.25l-0.1 -0.07 0.03 0.08 -0.07 0.01 0.1 0.07c0,0 16.31,33.21 15.03,44.1 -0.61,5.21 -11.42,15.19 -11.42,15.19l49.28 13.59 -7.85 15.93 53.11 -4.94 0 2.79 2.46 0 -3.04 74.3 12.24 0 -3.05 -74.3 2.51 0 0 -2.76 53.07 4.91 -7.85 -15.93 49.28 -13.59c0,0 -10.82,-9.98 -11.42,-15.19 -1.28,-10.89 15.02,-44.1 15.02,-44.1l0.11 -0.07z"/>
  </g>
 </g>
</svg>
