<?xml version="1.0" encoding="UTF-8"?>
<!DOCTYPE svg PUBLIC "-//W3C//DTD SVG 1.1//EN" "http://www.w3.org/Graphics/SVG/1.1/DTD/svg11.dtd">
<!-- Creator: CorelDRAW 2019 (64-Bit) -->
<svg xmlns="http://www.w3.org/2000/svg" xml:space="preserve" width="2.15839in" height="2.33333in" version="1.1" style="shape-rendering:geometricPrecision; text-rendering:geometricPrecision; image-rendering:optimizeQuality; fill-rule:evenodd; clip-rule:evenodd"
viewBox="0 0 869.41 939.88"
 xmlns:xlink="http://www.w3.org/1999/xlink">
 <defs>
  <style type="text/css">
   <![CDATA[
    .fil3 {fill:navy;fill-rule:nonzero}
    .fil2 {fill:#138708;fill-rule:nonzero}
    .fil0 {fill:#FF9933;fill-rule:nonzero}
    .fil1 {fill:white;fill-rule:nonzero}
   ]]>
  </style>
 </defs>
 <g id="Layer_x0020_1">
  <metadata id="CorelCorpID_0Corel-Layer"/>
  <g id="_2030638788704">
   <path class="fil0" d="M867.99 311.57l-134.75 0 6.62 -2.87 0 -2.85 5.69 0.1 0 -7.21 2.95 -3.46 10.77 -0.61 7.11 -2.85 0 -2.44 3.56 -1.22 0 -4.06 2.74 0.51 4.98 -6.1 11.38 -5.18 3.45 4.67 4.57 1.12 1.22 -1.52 7.42 3.56 4.98 -4.17 2.44 2.24 2.75 -3.15 4.37 0.71 0.41 -3.96 4.27 0 5.89 -4.88 4.47 7.01 5.18 0 -8.13 5.89 1.32 5.59 9.75 -5.59 -1.02 3.35 4.27 6.71 -10.67 12.6 4.17 2.03 5.89 -3.66 11.69 4.67 4.47 -1.52 6.1 5.49 -0.31 1.04zm-475.58 0l-279.82 0 6.5 -6.42 6 -14.12 17.07 -8.94 9.04 -16.46 3.96 -13.92 11.69 -4.27 4.98 -3.66 -2.95 -7.52 3.96 -2.44 10.67 -15.24 5.39 -2.13 0.41 -3.05 3.05 1.52 1.93 -1.12 -5.69 -4.57 3.15 -10.47 -3.25 -11.79 7.72 -3.76 0.81 -3.56 12.8 -2.44 3.66 -4.57 -0.3 -2.85 -7.42 -5.59 -11.99 -0.81 -2.13 -5.08 2.64 -7.32 -5.59 3.15 -2.85 -3.86 -3.86 -0.2 -14.53 -9.04 -3.96 -0.51 -2.64 -6.81 2.24 -5.49 0 -7.22 -8.43 -24.89 2.13 -6.5 5.49 0.2 2.03 -7.82 6.81 -1.83 6.2 -6.4 0 -5.08 -10.87 -5.08 -1.42 -4.17 3.25 -2.13 -0.51 -2.34 -18.49 -8.64 -0.41 -4.57 -12.7 0.61 -4.68 -3.05 1.63 -10.57 7.92 -5.08 1.02 -3.05 2.74 -0.41 3.05 -3.76 0.51 -4.27 8.23 -1.83 13.51 2.74 0.2 -3.56 -7.62 -6.1 12.5 3.05 10.37 -5.89 9.35 2.23 9.55 -2.85 9.35 1.52 11.68 29.37 -1.73 5.18 10.97 0.61 2.44 8.13 12.19 -3.76 0.92 4.77 4.77 2.95 0 5.49 7.82 7.82 6.5 -5.79 4.06 0 3.25 -3.05 5.39 0.41 2.74 -1.22 3.96 6.1 1.32 -5.08 3.66 -1.02 5.59 3.86 0 7.42 9.86 7.01 -2.24 3.35 -3.96 1.53 5.08 3.56 2.24 -1.73 2.03 1.73 -0.3 4.57 2.95 -1.22 1.83 1.63 -1.63 3.05 4.06 0 6.5 6.1 11.69 0 3.35 8.03 -5.08 0.41 -1.32 5.08 -2.64 -3.35 -7.11 -1.22 -14.02 4.68 3.66 2.95 0.92 4.88 6.61 2.74 -6.61 4.37 6.2 2.03 1.42 2.75 -3.05 4.77 7.22 7.32 -0.3 6.3 3.15 0.71 5.39 9.35 -0.81 7.01 -4.06 -0.71 -4.57 2.64 -0.61 3.66 -4.07 0.81 -6.3 -4.98 -0.2 -7.72 -10.37 4.47 2.44 4.88 -1.02 8.23 7.52 7.93 0 7.21 4.17 5.69 -3.76 3.15 2.54 2.44 -1.22 4.78 2.95 0.41 3.96 6.4 11.48 0.41 6.91 5.39 4.47 -1.73 3.86 0.81 9.15 13.21 12.4 3.56 13.01 8.84 -1.32 0.92 -2.95 -0.92 -3.96 6.1 -12.5 10.06 1.73 5.18 -5.59 6.4 2.95 3.25 -0.51 3.66 -2.44 -0.1 1.73 2.54 -4.17 1.12 -2.34 9.25 12.6 9.75 0 -4.57 2.85 -0.51 13.31 10.16 5.28 0.71 3.35 5.89 1.29 0.83z"/>
   <path class="fil1" d="M475.91 628.56l-332.64 0 -0.2 -0.07 -2.44 -11.43 5.03 -9.14 -6.48 -6.48 -3.89 -12.42 -0.23 -8.92 3.81 -0.61 -2.06 -5.64 4.5 -13.72 -0.15 -6.48 -2.51 -3.89 -0.53 -5.49 2.59 -2.36 -5.94 -2.67 0.3 -9.76 14.18 -9.14 0.08 -2.21 -10.21 4.19 -7.16 -0.15 2.52 -7.77 -4.57 -0.15 2.59 -6.66 4.34 1.17 3.73 -2.67 -2.82 -1.3 -12.27 -2.06 -6.4 12.88 3.81 7.77 -7.7 15.01 -14.56 5.87 -3.12 4.88 -14.63 4.5 -15.47 -4.8 -43.52 -43.44 1.83 -4.5 3.35 0 0.15 2.29 3.28 2.21 26.44 -9.22 5.33 -9.6 5.79 -4.27 0.08 -4.12 -8.31 0.69 -4.8 4.65 -7.01 0.46 -4.35 4.12 -12.27 -1.75 -18.82 -11.81 -3.73 -5.87 -0.31 -10.75 -5.11 3.3 -5.43 0 4.06 -3.86 0 -3.05 3.35 -4.07 9.45 0 0 -10.57 1.83 -0.92 1.02 3.05 2.85 -2.74 2.64 2.74 16.26 -2.03 4.27 3.56 7.22 0.71 5.28 -4.27 12.19 -4.57 0.3 6.1 5.28 0.61 11.79 -6.1 -4.06 -2.03 -0.1 -4.77 2.23 -2.74 -6.3 -14.33 -5.69 -7.52 -0.51 -10.47 -11.58 -1.22 -4.98 -7.52 1.73 -19.51 -10.67 -2.03 -8.74 -4.27 1.93 -14.63 13.31 -12.3 3.96 -9.96 6.4 -5.49 5.79 -0.1 5.69 9.75 3.86 0.51 11.38 -5.08 18.7 -3.25 0.92 -5.79 1.52 -1.5 279.82 0 15.58 10.04 2.13 -1.57 3.35 -0.46 10.87 8.13 7.82 -1.12 1.73 7.42 12.5 1.73 4.17 3.66 2.34 -2.13 0 -2.23 6.91 0.3 6.4 3.05 1.02 -2.44 3.96 0.1 3.96 -3.25 3.96 4.98 10.16 1.52 2.13 4.17 -1.63 5.28 9.65 3.15 1.83 3.35 5.28 -1.02 0 4.37 3.76 0.51 8.43 -4.37 3.05 2.13 0.61 5.18 3.15 2.95 5.89 -3.56 5.28 2.95 3.45 -1.01 11.99 6.2 9.76 -5.08 1.42 4.77 5.99 2.85 2.74 -2.74 6 1.63 8.54 -2.74 3.45 3.86 5.28 -13.62 -1.22 -7.11 -4.98 -4.78 2.44 -14.43 3.96 -7.82 -2.03 -5.59 12.8 -2.9 2.03 -2.79 5.89 3.25 1.73 5.59 -3.46 10.37 0.81 4.98 4.27 3.96 -5.08 5.59 3.66 1.42 -0.51 4.37 2.54 -1.12 4.98 5.59 7.62 -1.73 7.52 2.64 0 1.83 7.93 0.51 8.03 -1.93 1.52 -3.05 4.88 -1.73 10.47 4.57 10.16 -1.73 7.52 1.42 3.66 -3.25 3.86 2.85 7.11 -2.23 2.64 2.64 0.61 -4.37 2.95 2.03 3.45 -2.44 -2.85 -6.5 2.13 -5.39 -3.15 -6.1 -7.62 1.52 -4.57 -7.21 2.13 -3.86 9.65 0.3 7.42 -4.27 3.15 2.64 10.57 -5.28 0 -6 3.24 -1.4 134.75 0 -0.81 2.72 2.23 2.54 0 3.86 -3.66 0 -11.08 9.45 0.31 5.59 7.82 9.96 -1.32 2.03 -7.11 -2.74 0 -3.05 -2.85 -2.74 -5.08 -0.92 -2.64 2.64 -13.01 2.64 -4.88 6.2 -3.66 0.61 -5.39 6.2 -3.15 0.41 -2.13 3.56 -9.04 3.25 -1.86 10.01 3.13 7.93 -4.73 4.35 0.38 6.55 -11.81 10.67 -2.74 6.17 6.55 4.19 -4.42 11.81 -7.39 9.45 -6.33 19.43 -3.96 -2.52 -6.33 -0.08 -1.22 -2.36 -7.39 1.3 -3.81 -4.12 -2.36 0.61 3.81 12.19 -2.44 9.75 0.69 8.15 -2.52 3.96 -5.18 -1.37 -0.99 16.23 3.2 8.54 -1.6 2.94 -3.81 0 -0.99 4.83 -2.52 2.9 -0.76 -3.51 -4.57 -2.52 -3.73 5.18 -2.36 -24.01 -4.27 -6.63 0.38 -12.5 -2.36 -12.57 -3.05 1.14 -1.75 -2.21 -2.9 2.97 -2.74 -2.9 0.46 8.23 -6.25 6.93 2.06 5.64 -6.1 5.33 -5.79 -10.36 -0.53 6.55 -2.44 -1.6 0 -8.15 -5.72 -9.22 3.2 -9.07 3.51 -1.98 0.3 -4.72 6.4 1.45 2.06 -5.41 2.67 4.27 0.38 -4.95 4.19 4.42 -0.23 -5.64 1.68 -2.74c0,0 5.26,-0.46 5.56,-0.69 0.3,-0.23 3.43,-13.87 3.43,-13.87l7.32 -1.45 -2.9 -4.72 -10.14 -5.26 -12.88 2.21 -10.75 -2.67 -24.77 1.98 -16.92 -4.72 -2.13 -3.2 2.06 -9.3 -2.36 -3.12 3.05 -4.65 -6.25 -11.28 -2.44 2.67 1.75 3.2 -1.98 3.05 -4.35 -2.06 -2.13 0.99 -5.41 -4.12 -1.22 -8.08 -5.64 -3.05 -1.6 1.6 4.73 4.19 -2.06 2.21 -2.29 -2.52 -1.6 1.6 -13.57 -12.96 -3.05 5.11 5.72 0.3 0.84 2.36 -10.14 8.46 -0.15 4.04 -2.67 2.52 0.15 4.42 5.26 0 10.44 11.43 5.33 -3.05 0.53 6.25 5.41 2.36 -2.67 4.12 -13.49 -0.91 -0.53 5.49 -2.97 4.72 -3.73 -3.28 -2.21 1.3 0.91 3.12 -4.65 5.49 2.06 6.1 18.9 6.17 -1.52 7.09 3.66 3.96 -5.94 3.73 -0.23 6.86 6.17 4.35 -2.59 7.85 8.31 2.06 -3.35 3.05 0.53 5.33 2.36 2.29 -1.22 9.91 6.02 12.58 -2.21 1.68 -0.38 6.4 2.21 8.38 -3.5 1.37 -6.71 -4.88 0.84 -8.23 -3.66 -2.67 -6.71 15.09 -4.65 -2.36 -1.07 -13.79 -8.46 -7.7 -0.99 4.72 6.1 4.42 -9.98 11.58 -20.58 6.17 -6.48 5.94 -2.44 7.24 5.11 12.73 -7.16 7.16 -0.38 5.72 -6.78 3.73 -4.04 7.16 -25.38 8.08 1.9 -4.88 -7.47 0.61 -4.27 6.55 5.33 1.91 -18.52 13.34 -0.08 3.96 -17.35 20.8z"/>
   <polygon class="fil2" points="143.28,628.56 475.91,628.56 475.66,628.86 462.55,635.42 450.28,648.91 420.86,668.8 418.35,673.3 421.01,675.73 419.64,683.96 404.48,690.14 390.61,691.36 383.82,698.45 384.81,702.48 377.04,708.43 377.19,702.64 360.5,709.04 351.74,724.89 355.4,745.39 352.96,754.99 357.53,765.36 361.19,784.33 354.79,809.33 344.12,831.74 346.33,873.73 331.92,872.89 328.95,880.36 318.82,896.52 318.66,900.86 323.08,904.37 305.1,909.78 297.93,916.56 295.04,930.51 279.64,939.88 268.75,936.91 251.45,917.32 244.51,901.24 248.85,896.44 239.86,880.36 220.66,833.03 210.14,822.14 202.82,807.2 185.52,745.77 182.93,744.25 181.79,740.67 177.37,738.15 175.69,732.89 173.33,730.83 163.5,705.91 159.84,703.48 154.58,686.25 155.65,684.5 143.68,634.73 147.65,634.73 148.18,630.31 "/>
   <g>
    <path class="fil3" d="M320.12 397.27c-39.27,0 -71.1,31.83 -71.1,71.1 0,39.27 31.83,71.1 71.1,71.1 39.27,0 71.1,-31.83 71.1,-71.1 0,-39.27 -31.83,-71.1 -71.1,-71.1zm40.6 118.44l0 0c-0.6,-0.72 -1.5,-1.18 -2.51,-1.18 -1.8,0 -3.27,1.46 -3.27,3.27 0,0.71 0.23,1.37 0.62,1.9 -2.72,1.89 -5.57,3.54 -8.54,4.96 -0.51,-1.14 -1.65,-1.94 -2.98,-1.94 -1.8,0 -3.27,1.46 -3.27,3.27 0,0.42 0.08,0.81 0.22,1.18 -3.06,1.08 -6.21,1.92 -9.42,2.52 -0.24,-1.57 -1.59,-2.77 -3.23,-2.77 -1.8,0 -3.27,1.46 -3.27,3.27 0,0.12 0.01,0.24 0.02,0.35 -1.65,0.13 -3.3,0.2 -4.97,0.2 -1.63,0 -3.25,-0.07 -4.85,-0.19 0.01,-0.12 0.02,-0.24 0.02,-0.36 0,-1.8 -1.46,-3.27 -3.27,-3.27 -1.64,0 -3,1.21 -3.23,2.79 -3.29,-0.6 -6.51,-1.46 -9.63,-2.57 0.16,-0.39 0.25,-0.81 0.25,-1.26 0,-1.81 -1.46,-3.27 -3.27,-3.27 -1.36,0 -2.52,0.83 -3.02,2.01 -2.89,-1.39 -5.67,-3.01 -8.33,-4.84 0.4,-0.54 0.63,-1.21 0.63,-1.93 0,-1.8 -1.46,-3.27 -3.27,-3.27 -1.03,0 -1.94,0.47 -2.54,1.21 -1.24,-1.06 -2.44,-2.17 -3.6,-3.33 -1.14,-1.14 -2.22,-2.31 -3.26,-3.52 0.73,-0.6 1.19,-1.51 1.19,-2.52 0,-1.8 -1.46,-3.27 -3.27,-3.27 -0.71,0 -1.37,0.23 -1.91,0.62 -1.89,-2.72 -3.55,-5.58 -4.96,-8.55 1.15,-0.5 1.96,-1.65 1.96,-2.99 0,-1.8 -1.46,-3.27 -3.27,-3.27 -0.42,0 -0.82,0.08 -1.19,0.23 -1.08,-3.07 -1.92,-6.22 -2.51,-9.45 1.59,-0.22 2.81,-1.58 2.81,-3.23 0,-1.8 -1.46,-3.27 -3.27,-3.27 -0.13,0 -0.26,0.01 -0.39,0.03 -0.13,-1.62 -0.19,-3.26 -0.19,-4.9 0,-1.68 0.07,-3.35 0.2,-5.01 0.14,0.02 0.29,0.03 0.44,0.03 1.8,0 3.27,-1.46 3.27,-3.27 0,-1.66 -1.24,-3.03 -2.85,-3.24 0.6,-3.22 1.44,-6.37 2.53,-9.43 0.36,0.14 0.75,0.22 1.16,0.22 1.8,0 3.27,-1.46 3.27,-3.27 0,-1.33 -0.79,-2.46 -1.92,-2.98 1.4,-2.92 3.04,-5.73 4.89,-8.42 0.54,0.39 1.2,0.63 1.92,0.63 1.8,0 3.27,-1.46 3.27,-3.27 0,-1.02 -0.47,-1.93 -1.21,-2.53 1.05,-1.22 2.15,-2.41 3.3,-3.57 1.16,-1.16 2.35,-2.26 3.58,-3.31 0.6,0.76 1.53,1.25 2.57,1.25 1.8,0 3.27,-1.46 3.27,-3.27 0,-0.74 -0.25,-1.42 -0.66,-1.97 2.7,-1.87 5.53,-3.51 8.47,-4.91 0.51,1.14 1.65,1.94 2.98,1.94 1.8,0 3.27,-1.46 3.27,-3.27 0,-0.41 -0.08,-0.81 -0.22,-1.17 3.06,-1.08 6.2,-1.92 9.41,-2.51 0.25,1.56 1.6,2.75 3.22,2.75 1.8,0 3.27,-1.46 3.27,-3.27 0,-0.11 -0.01,-0.23 -0.02,-0.33 1.64,-0.13 3.29,-0.2 4.95,-0.2 1.63,0 3.24,0.07 4.85,0.19 -0.01,0.11 -0.02,0.23 -0.02,0.34 0,1.8 1.46,3.27 3.27,3.27 1.64,0 2.99,-1.2 3.23,-2.77 3.23,0.59 6.39,1.43 9.46,2.51 -0.16,0.39 -0.26,0.82 -0.26,1.27 0,1.8 1.46,3.27 3.27,3.27 1.37,0 2.55,-0.85 3.03,-2.04 2.94,1.4 5.77,3.04 8.47,4.9 -0.41,0.55 -0.65,1.22 -0.65,1.96 0,1.8 1.46,3.27 3.27,3.27 1.04,0 1.96,-0.49 2.56,-1.24 1.24,1.07 2.45,2.18 3.63,3.35 1.13,1.13 2.2,2.29 3.23,3.49 -0.75,0.6 -1.24,1.52 -1.24,2.56 0,1.8 1.46,3.27 3.27,3.27 0.74,0 1.42,-0.25 1.96,-0.66 1.9,2.74 3.57,5.61 4.99,8.59 -1.14,0.51 -1.94,1.65 -1.94,2.98 0,1.8 1.46,3.27 3.27,3.27 0.41,0 0.81,-0.08 1.17,-0.22 1.08,3.05 1.91,6.19 2.51,9.4 -1.56,0.25 -2.76,1.59 -2.76,3.22 0,1.8 1.46,3.27 3.27,3.27 0.11,0 0.23,-0.01 0.34,-0.02 0.13,1.64 0.2,3.29 0.2,4.95 0,1.65 -0.07,3.29 -0.19,4.92 -0.12,-0.01 -0.24,-0.02 -0.37,-0.02 -1.81,0 -3.27,1.46 -3.27,3.27 0,1.64 1.21,3 2.79,3.23 -0.59,3.24 -1.44,6.42 -2.54,9.51 -0.36,-0.13 -0.74,-0.21 -1.14,-0.21 -1.8,0 -3.27,1.46 -3.27,3.27 0,1.32 0.78,2.45 1.91,2.97 -1.4,2.92 -3.04,5.74 -4.89,8.43 -0.54,-0.4 -1.2,-0.63 -1.93,-0.63 -1.8,0 -3.27,1.46 -3.27,3.27 0,1.02 0.47,1.94 1.21,2.54 -1.05,1.23 -2.15,2.42 -3.31,3.58 -1.13,1.13 -2.3,2.21 -3.5,3.24z"/>
    <path class="fil3" d="M340.48 482.37c0,0 0.01,0 0.01,0.01l31.66 15.85c0.08,0.04 0.15,-0.08 0.07,-0.13l-29.08 -19.08c-0,-0 -0.01,-0 -0.01,-0.01l-11.94 -5.26c0.27,-0.54 0.5,-1.09 0.69,-1.67l11.61 4.69c0,0 0.01,0 0.01,0l34.68 7.15c0.09,0.02 0.13,-0.11 0.04,-0.14l-33.02 -10.93c-0,-0 -0.01,-0 -0.01,-0l-12.96 -2.03c0.14,-0.65 0.23,-1.32 0.27,-2.01l12.34 1.54c0,0 0.01,0 0.01,0l35.35 -2.05c0.09,-0.01 0.09,-0.14 0,-0.15l-34.72 -2.03c-0,0 -0.01,0 -0.01,0l-12.96 1.39c-0.03,-0.66 -0.12,-1.31 -0.25,-1.93l12.3 -1.72c0,-0 0.01,-0 0.01,-0l33.59 -11.18c0.09,-0.03 0.05,-0.16 -0.04,-0.14l-34.05 7.08c-0,0 -0.01,0 -0.01,0l-12.14 4.72c-0.19,-0.57 -0.41,-1.13 -0.68,-1.67l11.42 -4.82c0,-0 0.01,-0 0.01,-0.01l29.58 -19.46c0.08,-0.05 0.01,-0.17 -0.07,-0.13l-31.08 15.62c-0,0 -0.01,0 -0.01,0.01l-10.49 7.67c-0.35,-0.55 -0.74,-1.07 -1.16,-1.55l9.76 -7.58c0,-0 0.01,-0.01 0.01,-0.01l23.55 -26.44c0.06,-0.07 -0.03,-0.16 -0.1,-0.1l-26 23.11c-0,0 -0,0.01 -0.01,0.01l-8.12 10.08c-0.51,-0.47 -1.06,-0.9 -1.65,-1.28l7.46 -9.88c0,-0 0,-0.01 0.01,-0.01l15.85 -31.66c0.04,-0.08 -0.07,-0.15 -0.13,-0.07l-19.08 29.08c-0,0 -0,0.01 -0,0.01l-5.23 11.88c-0.55,-0.28 -1.11,-0.52 -1.7,-0.72l4.62 -11.36c0,-0 0,-0.01 0,-0.01l7.15 -34.68c0.02,-0.09 -0.11,-0.12 -0.14,-0.04l-10.93 33.02c-0,0 -0,0.01 -0,0.01l-1.97 12.7c-0.62,-0.14 -1.26,-0.23 -1.92,-0.27l1.53 -12.18c0,-0 0,-0.01 0,-0.01l-2.05 -35.35c-0.01,-0.09 -0.14,-0.09 -0.15,0l-2.03 34.72c0,0 0,0.01 0,0.01l1.38 12.8c-0.69,0.03 -1.36,0.12 -2.02,0.26l-1.7 -12.21c0,-0 -0,-0.01 -0,-0.01l-11.18 -33.6c-0.03,-0.09 -0.16,-0.05 -0.14,0.04l7.08 34.05c0,0 0,0.01 0,0.01l4.69 12.05c-0.62,0.2 -1.23,0.45 -1.8,0.75l-4.74 -11.23c-0,-0 -0,-0.01 -0.01,-0.01l-19.48 -29.57c-0.05,-0.08 -0.16,-0.01 -0.13,0.07l15.64 31.07c0,0 0,0.01 0.01,0.01l7.56 10.32c-0.54,0.36 -1.06,0.75 -1.54,1.19l-7.47 -9.63c-0,-0 -0.01,-0.01 -0.01,-0.01l-26.44 -23.55c-0.07,-0.06 -0.16,0.03 -0.1,0.1l23.11 26c0,0 0.01,0.01 0.01,0.01l9.97 8.03c-0.43,0.48 -0.81,0.99 -1.16,1.53l-9.81 -7.42c-0,-0 -0.01,-0 -0.01,-0.01l-31.66 -15.85c-0.08,-0.04 -0.15,0.08 -0.07,0.13l29.08 19.08c0,0 0.01,0 0.01,0.01l11.81 5.2c-0.3,0.6 -0.56,1.23 -0.77,1.88l-11.31 -4.6c-0,-0 -0.01,-0 -0.01,-0l-34.68 -7.15c-0.09,-0.02 -0.12,0.11 -0.04,0.14l33.02 10.93c0,0 0.01,0 0.01,0l12.69 1.97c-0.12,0.59 -0.19,1.2 -0.22,1.83l-12.21 -1.54c-0,0 -0.01,0 -0.01,0l-35.35 2.05c-0.09,0.01 -0.09,0.14 0,0.14l34.72 2.03c0,0 0.01,0 0.01,0l12.84 -1.39c0.04,0.67 0.13,1.32 0.27,1.96l-12.2 1.7c-0,0 -0.01,0 -0.01,0l-33.6 11.18c-0.09,0.03 -0.05,0.16 0.04,0.14l34.05 -7.08c0,0 0.01,-0 0.01,-0l12.05 -4.69c0.22,0.66 0.49,1.3 0.82,1.9l-11.37 4.79c-0,0 -0.01,0 -0.01,0.01l-29.58 19.46c-0.08,0.05 -0.01,0.17 0.07,0.13l31.08 -15.62c0,-0 0.01,-0 0.01,-0.01l10.46 -7.66c0.36,0.54 0.77,1.04 1.21,1.51l-9.78 7.6c-0,0 -0.01,0 -0.01,0.01l-23.55 26.44c-0.06,0.07 0.03,0.16 0.1,0.1l26 -23.11c0,-0 0.01,-0 0.01,-0.01l8.17 -10.13c0.47,0.41 0.97,0.78 1.49,1.11l-7.45 9.86c-0,0 -0,0.01 -0.01,0.01l-15.85 31.66c-0.04,0.08 0.08,0.15 0.13,0.07l19.08 -29.08c0,-0 0,-0.01 0.01,-0.01l5.22 -11.88c0.6,0.3 1.22,0.55 1.87,0.75l-4.68 11.56c-0,0 -0,0.01 -0,0.01l-7.15 34.68c-0.02,0.09 0.11,0.13 0.14,0.04l10.93 -33.02c0,-0 0,-0.01 0,-0.01l2.02 -12.94c0.62,0.12 1.27,0.2 1.92,0.22l-1.54 12.37c0,0 0,0.01 0,0.01l2.05 35.35c0,0.09 0.14,0.09 0.14,0l2.03 -34.72c0,-0 0,-0.01 0,-0.01l-1.39 -13.01c0.63,-0.04 1.26,-0.13 1.86,-0.26l1.73 12.29c0,0 0,0.01 0,0.01l11.18 33.6c0.03,0.09 0.16,0.05 0.14,-0.04l-7.08 -34.05c-0,-0 -0,-0.01 -0,-0.01l-4.72 -12.14c0.61,-0.2 1.2,-0.46 1.77,-0.75l4.91 11.55c0,0 0,0.01 0.01,0.01l19.48 29.57c0.05,0.08 0.17,0.01 0.13,-0.07l-15.64 -31.07c-0,-0 -0,-0.01 -0.01,-0.01l-7.75 -10.63c0.52,-0.35 1.02,-0.73 1.49,-1.15l7.71 9.9c0,0 0.01,0.01 0.01,0.01l26.44 23.55c0.07,0.06 0.16,-0.03 0.1,-0.1l-23.11 -26c-0,-0 -0,-0 -0.01,-0.01l-10.22 -8.28c0.44,-0.49 0.84,-1.02 1.2,-1.58l9.93 7.49zm-14.14 -24.91l0 0c-0,-0 -0,-0 -0,-0 0,0 0,0 0,0z"/>
   </g>
  </g>
 </g>
</svg>
