<?xml version="1.0" encoding="UTF-8"?>
<!DOCTYPE svg PUBLIC "-//W3C//DTD SVG 1.1//EN" "http://www.w3.org/Graphics/SVG/1.1/DTD/svg11.dtd">
<!-- Creator: CorelDRAW 2019 (64-Bit) -->
<svg xmlns="http://www.w3.org/2000/svg" xml:space="preserve" width="1.77348in" height="2.33333in" version="1.1" style="shape-rendering:geometricPrecision; text-rendering:geometricPrecision; image-rendering:optimizeQuality; fill-rule:evenodd; clip-rule:evenodd"
viewBox="0 0 632.4 832.04"
 xmlns:xlink="http://www.w3.org/1999/xlink">
 <defs>
  <style type="text/css">
   <![CDATA[
    .fil1 {fill:#FEFEFE;fill-rule:nonzero}
    .fil2 {fill:#B62D2B;fill-rule:nonzero}
    .fil0 {fill:#323862;fill-rule:nonzero}
   ]]>
  </style>
 </defs>
 <g id="Layer_x0020_1">
  <metadata id="CorelCorpID_0Corel-Layer"/>
  <g id="_2030836661456">
   <g>
    <path class="fil0" d="M62.26 808.45c-14,-5.05 -2.93,8.48 -4.7,12.73 -1,2.4 -7.76,2.56 -9.73,3.95 -2.53,1.79 -4.39,4.51 -6.03,6.91 -3.62,-3.26 -2.85,-12.51 -4.68,-17.39 -6.35,0.03 -11.76,-8.18 -17.61,-6.75 -5.86,1.44 -8.66,15.65 -17.13,12.7 -6.74,-2.38 3.07,-9.75 2.16,-14.29 -5.11,-2.24 -3.58,-6.98 0.85,-9.44 4.07,-2.27 9.29,0.61 12.92,0.07 3.09,-0.46 2.95,0.45 5.51,-0.59 1.43,-0.58 4.86,-4.73 6.63,-5.95 3.05,-2.1 7.98,-6.14 11.22,-7.06 -0.03,-1.94 1.32,-3.74 1.01,-5.82 5.58,-0.93 6.81,-6.04 7.57,-10.63 2.22,0.19 9.42,-7.05 9.78,-9.17 0.59,-3.48 -3.31,-4.57 -1.61,-7.78 2.43,-4.58 5.76,-2.8 5.48,1.57 1.14,0.22 2.41,0.25 3.54,-0.02 2.3,-5.89 5.08,-7.08 11.37,-6.82 1.18,-5.24 8.16,-11.6 7.83,-15.65 14.26,-1.7 12.03,-17.54 11.84,-28.17 -0.07,-3.95 -1.31,-14.77 0.17,-18.18 3.69,-8.45 7.86,1.06 11.97,3.8 13.03,8.69 12.71,-14.88 13.79,-21.99 0.71,-4.68 -2.29,-4.9 3.03,-6.82 3.34,-1.2 6.58,1.31 9.68,1.7 8.27,1.06 8.31,-3.17 16.08,-6.44 6.44,-2.71 12.4,-0.57 18.78,0.36 6,0.87 10.39,-1.65 16.12,-0.96 7.08,0.85 28.44,8.25 34.06,2.88 3.32,-3.17 1.92,-11.53 3.96,-15.72 2.3,-4.7 6.98,-7.15 11.17,-9.87 4.99,-3.25 8.02,-8.22 12.74,-11.57 5,-3.56 9.43,-2.77 13.62,-8.3 4.43,-5.85 6.36,-9.46 12.1,-14.4 3.12,-2.69 12.24,-16.53 1.92,-11.74 -2.47,1.14 -2.88,5.33 -4.91,7.22 -2.01,1.88 -5.61,2.9 -7.98,4.9 -4.66,3.94 -8.06,11.85 -13.7,14.11 -0.88,-4.93 3.33,-9.1 4.25,-13.71 0.9,-4.54 0.29,-10.25 0.05,-14.87 -5,-0.23 -8.07,-1.67 -11.29,-4.66 -2.07,-1.92 1.25,-4.4 -3.75,-5.33 -2.68,-0.5 -3.88,3.06 -6.02,3.86 -9.45,3.51 -16.76,-2.28 -18.4,-11.99 -1.53,-9.1 -1.05,-19.44 -0.78,-28.18 0.21,-6.66 2.48,-19.58 9.16,-24.08 -2.68,-1.7 -5.22,-4.05 -8.05,-5.7 -1.91,-1.12 -8.85,-2.44 -9.87,-3.69 -5,-6.14 0.31,-16.4 8.05,-15.17 1.41,-3.89 17.79,-3.18 13.81,-12.03 -2.45,-5.45 -6.29,0.24 -8.16,1.01 -4.22,1.73 -5.24,3.15 -10.7,2.71 0.05,-8.5 5.32,-7.27 10.55,-11.99 3.07,-2.77 8.5,-9.5 6.19,-13.13 -2.28,-3.59 -11.96,-4 -15.34,-5.83 -8.77,-4.75 -4.72,-7.66 0.04,-14.41 5.51,-7.82 10.92,-29.44 25.01,-17.63 3.8,3.18 5.16,11.71 12.27,8.73 9.31,-3.91 0.31,-8.1 -1.91,-11.36 -1.63,-2.41 -0.81,-6.65 -2.22,-8.37 -2.53,-3.08 -7,-0.9 -9.51,-4.91 -3.88,-6.19 3.75,-8.73 -3.24,-15.56 -4.7,-4.59 -13.69,-6.16 -15.91,-12.27 -3.26,-8.98 4.91,-12.82 8.56,-18.89 2.08,5.97 9.06,16.18 14.19,20.25 5.43,4.31 18.65,2.78 18.07,-6.55 -10.53,-0.53 -10.63,-2.03 -17.29,-9.23 -4.42,-4.77 -10.84,-9.05 -14.23,-14.57 -7.97,-13 15.41,-20.81 14.85,-33.04 -8.67,-0.43 -11.54,0.91 -12.77,-8.45 -1,-7.65 0.14,-10.5 5.32,-14.38 6.66,-4.98 12.25,-5.15 10,-13.11 -0.77,-2.72 -3.37,-2.21 -3.22,-5.85 0.14,-3.34 3.24,-4.2 4.56,-6.78 1.82,-3.55 3.48,-15 0.65,-18.22 -3.69,-4.19 -4.27,-0.57 -8.24,-0.78 -1.83,-0.1 -6.79,-2.02 -8.32,-1.5 -7.55,2.56 -2.33,10.77 -5.45,15.77 -3.27,5.24 -9.33,5.4 -10.46,-0.61 -1.07,-5.72 4.74,-10.13 3.68,-16.55 -5.31,0.28 -3.7,6.22 -7.43,7.5 -4.98,1.7 -9.04,-3.25 -10.4,-7.47 0.39,1.22 3.04,-4.77 3.1,-5.3 0.44,-3.41 -2.9,-7.83 -4.52,-10.54 -3.35,-5.59 -7.18,-11.59 -11.28,-16.68 -6.9,-8.57 -7.86,-7.42 -3.07,-16.75 3.27,-6.37 2.67,-14.1 5.82,-20.54 2.26,-4.63 6.24,-8.65 8.39,-13.53 1.97,-4.46 1.53,-8.79 2.95,-13.66 6.98,-3.21 14.75,-15.59 19.72,-3.98 2.78,-1.7 5.94,-6.6 6.69,-9.78 0.53,-2.24 -0.92,-5.49 -0.01,-7.6 1.75,-4.07 1.71,-1.6 4.54,-3.79 5.46,-4.22 19.43,-6.1 21.33,-14.28 0.67,-0.18 1.5,0.12 2.09,-0.26 -1.99,-5.25 1.03,-17.43 5.97,-20.53 3.44,-2.16 6.58,-0.53 10.2,-3.57 3.2,-2.68 5.84,-6.4 9.47,-9.28 5.6,-4.43 12.62,-7.67 10.04,-16.48 -1.24,-4.23 -4.29,-3.89 -6.12,-7.56 -1.96,-3.94 0.36,-8.19 -2.69,-11.99 2.37,-1.52 5.24,-0.53 7.31,-1.65 3.04,-1.63 4.54,-4.72 7.01,-7.44 4.53,-4.99 9.77,-8.56 12.86,-14.55 1.65,-3.19 4.49,-13.6 10.27,-6.67 2.53,3.03 -0.16,13.61 1.83,17.85 4.91,10.43 19.96,13.26 25.41,23.11 2.32,4.19 4.49,11.35 6.08,15.89 1.79,5.1 1.22,12.37 0.93,18.02 -0.6,11.5 4.91,24.23 6.84,36.37 0.48,3.04 0.62,6.41 2.44,9.11 2.46,3.65 5.07,2.45 7.41,4.68 3.18,3.04 7.57,11.96 9.09,16.54 1.87,5.6 -3.21,12.76 -1.38,17.43 1.1,2.82 4.53,3.05 6.12,5.26 1.49,2.09 1.63,6.1 2.79,7.6 3.62,4.67 9.53,3.85 14.26,8.52 8.4,8.29 10.76,11.78 22.27,14.89 8.1,2.19 14.36,6.25 18.77,13.35 4.22,6.78 6.62,14 11.92,20.21 6.46,7.56 8.96,15.71 16.37,21.69 4.19,3.39 8.19,4.02 12.58,7.12 -3.85,6.49 -8.18,7.79 -6.89,15.93 0.76,4.81 3.74,10.48 6.8,14.44 4.35,5.63 5.78,9.42 8.72,15.54 2.45,5.11 6.79,8.57 9.81,13.03 8.85,13.08 -5.36,15.7 -15.09,10.42 -9.9,-5.38 -20.62,-11.82 -32.04,-12.88 -16.17,-1.5 4.51,9.49 9.68,11.78 6.86,3.04 14.31,5.98 20.42,10.61 5.31,4.03 11.21,8.4 16.1,13.62 9.83,10.49 16.05,42.8 6.28,54.52 -5.62,6.73 -16.91,16.51 -12.88,23.91 3.67,6.75 18.9,18.34 27.11,14.6 10.76,-4.9 3.83,-22 18.17,-25.04 6.41,-1.36 10.42,1.13 16.67,1.53 5.96,0.38 12.01,-0.57 18.18,0.04 5.44,0.54 12.82,-0.2 18.21,1.46 5.51,1.69 9.04,6.36 13.79,9.7 9.78,6.87 20.44,11.69 24.29,24.42 1.71,5.67 2.5,12.53 3.56,18.21 1.15,6.19 -1.15,9.89 -2.08,15.89 -1.42,9.17 -2.81,15.54 -5.66,24.21 -2.81,8.53 -6.93,14.09 -10.44,22.02 -3.99,8.99 -5.55,15.12 -15.17,18.9 -6.57,2.58 -15.52,5.37 -15,15.07 2.55,0.02 4.29,1.67 6.02,2.41 -1.87,3.56 -5.97,7.81 -9.76,9.26 -7.76,2.96 -5.58,-3.19 -11.54,-3.95 -4.79,-0.61 -8.25,5.74 -11.94,7.8 -4.09,2.28 -13.6,1.45 -11.44,8.75 7.16,0.36 20.55,-2.45 16.61,8.49 -1.08,3 -10.04,15.13 -13.13,16.44 -6.18,2.62 -14.97,-3.46 -22.71,0.02 -3.87,1.74 -5.7,5.91 -9.64,7.74 -3.68,1.71 -8.88,0.63 -12.86,0.93 7.6,7.81 24.18,1.43 32.37,-1.61 -0.65,10.12 3.66,8.36 11.52,9.78 6.33,1.14 11.51,4.37 18.19,5.27 6.16,0.83 12.51,2.96 18.19,2.31 6.02,-0.69 10.91,-3.28 18.07,-2.92 0.33,5.27 -1.75,10.85 -2.16,15.8 -0.5,5.98 -0.07,8.71 -6.23,12.69 -4.37,2.82 -10.12,4.32 -15.03,6.8 -3.61,1.83 -12.51,4.32 -14.96,7.24 -3.87,4.6 -0.8,8.79 -7.9,12.52 -4.55,2.4 -11.95,4.63 -17.3,6.21 -5.4,1.59 -9.96,3.88 -15.3,5.88 -6.25,2.32 -8.97,5.09 -14.8,8.73 -10.88,6.79 -20.12,-0.68 -30.48,-3.99 -9.63,-3.09 -24.61,-9.61 -35.04,-6.25 -10.83,3.49 -17.8,17.37 -30.31,11.74 -2.64,-1.19 -3.13,-3.65 -5.88,-4.73 -1.76,-0.7 -8.11,-1.57 -9.83,-1.58 -5.99,-0.01 -10.45,2.59 -16.67,-0.89 -3.85,-2.15 -9.08,-11.63 -14.42,-10.42 -5.44,1.24 -1.96,11.12 -5.43,15.78 -9.89,3.03 -20.53,4.7 -30.15,7.75 -4.41,1.4 -12.85,-0.59 -16.71,1.44 -5.77,3.04 -2.53,9.97 -5.44,15.08 -4.96,0.25 -10.28,0.54 -15.06,-0.64 -5.74,-1.42 -8.51,-4.75 -14.19,-4.36 -5.62,0.38 -6.95,2.62 -13.05,-0.36 -4.49,-2.19 -8.59,-6.34 -13.03,-8.02 -4.13,-1.57 -11.25,-2.52 -15.76,-2.46 -6.62,0.08 -8.7,3.39 -14.36,5.38 -5.44,1.91 -10.34,0.33 -15.74,3.2 -3.91,2.07 -7.52,5.56 -9.43,9.51 -1.01,-0.61 -2.45,-0.24 -3.66,-1.45 -11.16,7.37 -8.97,18.1 -10.59,29.63 -0.93,6.66 -4.8,11.94 -9.28,16.48 -7.24,7.34 -10.28,7.16 -18.05,0.92 -3.6,-2.89 -8.79,-9.26 -12.8,-10.63 -2.71,-0.92 -6.37,0.8 -9.15,0.05 -3.57,-0.96 -3.87,-3.36 -8.32,-3.82 -4.76,-0.49 -11.73,0.25 -16.67,0.02 -6.26,-0.29 -9.95,3.86 -15.16,4.58 -4.69,0.64 -8.01,-3.7 -12.33,-1.76 -4.91,2.21 -3,7.86 -5.06,10.85 -4.76,6.9 -14.58,6.8 -14.43,16.63l0.76 2.27z"/>
   </g>
   <g>
    <path class="fil1" d="M610.35 545.96l-219.16 -155.99 -48.41 68.01 214.98 153.02c1.95,-2.71 3.52,-5.19 3.93,-6.34 3.93,-10.94 -9.46,-8.13 -16.61,-8.49 -2.16,-7.3 7.35,-6.47 11.44,-8.75 3.69,-2.06 7.15,-8.41 11.94,-7.8 5.95,0.76 3.78,6.91 11.54,3.95 3.78,-1.44 7.89,-5.7 9.76,-9.26 -1.73,-0.74 -3.47,-2.39 -6.02,-2.41 -0.52,-9.69 8.43,-12.48 15,-15.07 6.43,-2.53 9.26,-6.1 11.62,-10.88z"/>
   </g>
   <g>
    <path class="fil1" d="M245.59 411.08l92.71 65.99 48.4 -68.01 -160.28 -114.08c-0.14,1.59 -0.03,3.46 0.27,5.77 1.22,9.36 4.09,8.02 12.77,8.45 0.57,12.23 -22.82,20.04 -14.85,33.04 3.38,5.52 9.81,9.8 14.23,14.57 6.66,7.19 6.76,8.7 17.29,9.23 0.58,9.34 -12.64,10.86 -18.07,6.55 -5.14,-4.08 -12.11,-14.28 -14.19,-20.25 -3.66,6.06 -11.83,9.91 -8.56,18.89 2.22,6.12 11.21,7.69 15.91,12.27 6.99,6.82 -0.64,9.36 3.24,15.56 2.51,4 6.98,1.83 9.51,4.91 1.19,1.45 0.79,4.69 1.62,7.12z"/>
   </g>
   <g>
    <path class="fil1" d="M491.87 309.3l-19.07 13.74c4.03,2.01 7.96,4.24 11.76,6.3 9.73,5.28 23.94,2.66 15.09,-10.42 -2.3,-3.4 -5.36,-6.21 -7.77,-9.62zm-27.57 19.86l-111.39 80.22 48.79 67.74 106.72 -76.86c4.35,-14.43 -1.38,-38.92 -9.7,-47.79 -4.89,-5.22 -10.79,-9.59 -16.1,-13.62 -5.5,-4.16 -12.07,-6.96 -18.32,-9.69z"/>
   </g>
   <g>
    <path class="fil1" d="M227.38 576.04l165.1 -118.9 -48.79 -67.74 -116.12 83.64c0.24,0.32 0.47,0.72 0.69,1.2 3.98,8.85 -12.4,8.14 -13.81,12.03 -7.74,-1.23 -13.06,9.04 -8.05,15.17 1.02,1.25 7.96,2.58 9.87,3.69 2.83,1.65 5.37,4 8.05,5.7 -6.68,4.51 -8.96,17.42 -9.16,24.08 -0.27,8.75 -0.76,19.09 0.78,28.18 1.21,7.17 5.5,12.19 11.46,12.93z"/>
   </g>
   <g>
    <path class="fil1" d="M422.58 720.45l0 -522.55c-0.34,-0.1 -0.67,-0.2 -1.01,-0.29 -11.51,-3.11 -13.87,-6.59 -22.27,-14.89 -4.73,-4.67 -10.65,-3.85 -14.26,-8.52 -1.16,-1.5 -1.3,-5.51 -2.79,-7.6 -1.58,-2.21 -5.01,-2.45 -6.12,-5.26 -1.83,-4.67 3.25,-11.83 1.38,-17.43 -1.52,-4.58 -5.91,-13.5 -9.09,-16.54 -2.34,-2.23 -4.95,-1.03 -7.41,-4.68 -1.82,-2.7 -1.96,-6.07 -2.44,-9.11 -1.93,-12.14 -7.44,-24.87 -6.84,-36.37 0.29,-5.65 0.87,-12.92 -0.93,-18.02 -1.59,-4.54 -3.77,-11.7 -6.08,-15.89 -5.45,-9.85 -20.49,-12.68 -25.41,-23.11 -0.66,-1.4 -0.81,-3.5 -0.8,-5.79l-5.43 0 0 712.94 0.01 -0c3.85,-2.03 12.29,-0.05 16.71,-1.44 9.62,-3.04 20.25,-4.71 30.15,-7.75 3.47,-4.66 -0.01,-14.54 5.43,-15.78 5.34,-1.22 10.56,8.26 14.42,10.42 6.22,3.48 10.68,0.88 16.67,0.89 1.72,0 8.06,0.88 9.83,1.58 2.75,1.09 3.23,3.54 5.88,4.73 3.92,1.76 7.3,1.61 10.42,0.46z"/>
   </g>
   <g>
    <path class="fil1" d="M221.07 508.53l405.5 0c1.47,-5.4 2.44,-10.43 3.43,-16.82 0.93,-6 3.23,-9.7 2.08,-15.89 -1.05,-5.68 -1.84,-12.54 -3.56,-18.21 -3.85,-12.73 -14.51,-17.55 -24.29,-24.42 -4.75,-3.34 -8.28,-8.01 -13.79,-9.7 -5.39,-1.66 -12.77,-0.91 -18.21,-1.46 -6.17,-0.62 -12.22,0.34 -18.18,-0.04 -6.25,-0.4 -10.26,-2.89 -16.67,-1.53 -14.34,3.04 -7.41,20.15 -18.17,25.04 -8.21,3.74 -23.44,-7.85 -27.11,-14.6 -4.02,-7.4 7.27,-17.18 12.88,-23.91 7.4,-8.88 5.63,-29.57 0.06,-43.64l-259.85 0c2.36,1.77 4.98,2.38 10.93,2.68 0.58,9.34 -12.64,10.86 -18.07,6.55 -2.53,-2.01 -5.5,-5.5 -8.12,-9.24l-14.54 0c-0.98,2.2 -1.25,4.72 -0.1,7.87 2.22,6.12 11.21,7.69 15.91,12.27 6.99,6.82 -0.64,9.36 3.24,15.56 2.51,4 6.98,1.83 9.51,4.91 1.41,1.72 0.59,5.96 2.22,8.37 2.21,3.27 11.21,7.46 1.91,11.36 -7.11,2.99 -8.48,-5.55 -12.27,-8.73 -14.09,-11.81 -19.5,9.81 -25.01,17.63 -4.76,6.75 -8.81,9.65 -0.04,14.41 3.38,1.83 13.06,2.25 15.34,5.83 2.31,3.63 -3.12,10.35 -6.19,13.13 -5.23,4.72 -10.5,3.49 -10.55,11.99 5.46,0.45 6.48,-0.98 10.7,-2.71 1.87,-0.77 5.72,-6.45 8.16,-1.01 3.98,8.85 -12.4,8.14 -13.81,12.03 -7.74,-1.23 -13.06,9.04 -8.05,15.17 1.02,1.25 7.96,2.58 9.87,3.69 1.67,0.98 3.25,2.2 4.81,3.39z"/>
   </g>
   <g>
    <path class="fil2" d="M209.39 477.77l4.56 0c2.06,-0.45 3.45,-1.42 6.13,-2.53 1.87,-0.77 5.72,-6.45 8.16,-1.01 0.63,1.4 0.75,2.56 0.5,3.53l403.59 0c-0.05,-0.63 -0.13,-1.28 -0.26,-1.96 -1.05,-5.68 -1.84,-12.54 -3.56,-18.21 -3.85,-12.73 -14.51,-17.55 -24.29,-24.42 -4.75,-3.34 -8.28,-8.01 -13.79,-9.7 -5.39,-1.66 -12.77,-0.91 -18.21,-1.46 -6.17,-0.62 -12.22,0.34 -18.18,-0.04 -6.25,-0.4 -10.26,-2.89 -16.67,-1.53 -14.34,3.04 -7.41,20.15 -18.17,25.04 -8.21,3.74 -23.44,-7.85 -27.11,-14.6 -4.02,-7.4 7.27,-17.18 12.88,-23.91 2.59,-3.11 4.06,-7.67 4.63,-12.88l-276.23 0c-0.23,1.45 -0.13,3.02 1.07,4.94 2.51,4 6.98,1.83 9.51,4.91 1.41,1.72 0.59,5.96 2.22,8.37 2.21,3.27 11.21,7.46 1.91,11.36 -7.11,2.99 -8.48,-5.55 -12.27,-8.73 -14.09,-11.81 -19.5,9.81 -25.01,17.63 -4.76,6.75 -8.81,9.65 -0.04,14.41 3.38,1.83 13.06,2.25 15.34,5.83 2.31,3.63 -3.12,10.35 -6.19,13.13 -5.19,4.69 -10.43,3.51 -10.55,11.81z"/>
   </g>
   <g>
    <path class="fil2" d="M216.38 565.2l286.61 -206.43c-1.31,-2.52 -2.75,-4.68 -4.27,-6.31 -4.89,-5.22 -10.79,-9.59 -16.1,-13.62 -1.1,-0.84 -2.25,-1.62 -3.43,-2.35l-262.88 189.33c-0.74,3.39 -1.09,6.66 -1.17,9.09 -0.27,8.75 -0.76,19.09 0.78,28.18 0.12,0.72 0.28,1.42 0.46,2.1zm284.47 -244.31l-13.48 9.71c8.82,3.23 19.03,0.53 13.48,-9.71z"/>
   </g>
   <g>
    <path class="fil2" d="M589.65 574.49l-1.08 -0.79c-1.37,-0.79 -2.87,-1.78 -4.84,-1.8 -0.03,-0.6 -0.03,-1.18 0.01,-1.72l-202.37 -147.58 -18.41 26.16 191.34 139.53c0.83,-0.25 1.59,-0.52 2.22,-0.88 3.69,-2.06 7.15,-8.41 11.94,-7.8 5.95,0.76 3.78,6.91 11.54,3.95 3.72,-1.42 7.75,-5.56 9.66,-9.08z"/>
   </g>
   <g>
    <path class="fil2" d="M222.83 353.87l2.49 1.81c-0.6,-1.2 -1.09,-2.33 -1.44,-3.34 -0.32,0.53 -0.67,1.03 -1.04,1.53zm27.73 20.19l88.52 64.44 18.41 -26.16 -124.6 -90.71c-6.01,6.41 -13.25,12.5 -8.27,20.61 3.38,5.52 9.81,9.8 14.23,14.57 6.66,7.19 6.76,8.7 17.29,9.23 0.26,4.18 -2.24,6.79 -5.58,8.02z"/>
   </g>
   <g>
    <path class="fil2" d="M402.95 714.46l0 -528.09c-1.1,-1.1 -2.3,-2.32 -3.65,-3.65 -4.73,-4.67 -10.65,-3.85 -14.26,-8.52 -1.16,-1.5 -1.3,-5.51 -2.79,-7.6 -1.58,-2.21 -5.01,-2.45 -6.12,-5.26 -1.83,-4.67 3.25,-11.83 1.38,-17.43 -1.52,-4.58 -5.91,-13.5 -9.09,-16.54 -2.34,-2.23 -4.95,-1.03 -7.41,-4.68 -1.82,-2.7 -1.96,-6.07 -2.44,-9.11 -1.93,-12.14 -7.44,-24.87 -6.84,-36.37 0.29,-5.65 0.87,-12.92 -0.93,-18.02 -1.59,-4.54 -3.77,-11.7 -6.08,-15.89 -2.56,-4.63 -7.26,-7.71 -12.01,-10.76l0 692.49c8.82,-2.52 18.33,-4.14 27.23,-6.87 3.47,-4.66 -0.01,-14.54 5.43,-15.78 5.34,-1.22 10.56,8.26 14.42,10.42 6.22,3.48 10.68,0.88 16.67,0.89 1.09,0 4.03,0.35 6.49,0.79z"/>
   </g>
  </g>
 </g>
</svg>
