<?xml version="1.0" encoding="UTF-8"?>
<!DOCTYPE svg PUBLIC "-//W3C//DTD SVG 1.1//EN" "http://www.w3.org/Graphics/SVG/1.1/DTD/svg11.dtd">
<!-- Creator: CorelDRAW 2019 (64-Bit) -->
<svg xmlns="http://www.w3.org/2000/svg" xml:space="preserve" width="2.66666in" height="1.71289in" version="1.1" style="shape-rendering:geometricPrecision; text-rendering:geometricPrecision; image-rendering:optimizeQuality; fill-rule:evenodd; clip-rule:evenodd"
viewBox="0 0 1212.12 778.59"
 xmlns:xlink="http://www.w3.org/1999/xlink">
 <defs>
  <style type="text/css">
   <![CDATA[
    .fil1 {fill:#1A1A1A;fill-rule:nonzero}
    .fil0 {fill:white;fill-rule:nonzero}
    .fil5 {fill:url(#id0);fill-rule:nonzero}
    .fil18 {fill:url(#id1);fill-rule:nonzero}
    .fil17 {fill:url(#id2);fill-rule:nonzero}
    .fil16 {fill:url(#id3);fill-rule:nonzero}
    .fil12 {fill:url(#id4);fill-rule:nonzero}
    .fil7 {fill:url(#id5);fill-rule:nonzero}
    .fil2 {fill:url(#id6);fill-rule:nonzero}
    .fil4 {fill:url(#id7);fill-rule:nonzero}
    .fil14 {fill:url(#id8);fill-rule:nonzero}
    .fil10 {fill:url(#id9);fill-rule:nonzero}
    .fil8 {fill:url(#id10);fill-rule:nonzero}
    .fil13 {fill:url(#id11);fill-rule:nonzero}
    .fil15 {fill:url(#id12);fill-rule:nonzero}
    .fil6 {fill:url(#id13);fill-rule:nonzero}
    .fil9 {fill:url(#id14);fill-rule:nonzero}
    .fil3 {fill:url(#id15);fill-rule:nonzero}
    .fil11 {fill:url(#id16);fill-rule:nonzero}
   ]]>
  </style>
  <linearGradient id="id0" gradientUnits="userSpaceOnUse" x1="891.95" y1="636.66" x2="1194.71" y2="636.66">
   <stop offset="0" style="stop-opacity:1; stop-color:#4F0001"/>
   <stop offset="0.0901961" style="stop-opacity:1; stop-color:#4F0001"/>
   <stop offset="0.301961" style="stop-opacity:1; stop-color:#C6010A"/>
   <stop offset="0.411765" style="stop-opacity:1; stop-color:#870001"/>
   <stop offset="0.729412" style="stop-opacity:1; stop-color:#870001"/>
   <stop offset="0.811765" style="stop-opacity:1; stop-color:#870001"/>
   <stop offset="0.921569" style="stop-opacity:1; stop-color:#CD0105"/>
   <stop offset="0.94902" style="stop-opacity:1; stop-color:#CD0105"/>
   <stop offset="0.980392" style="stop-opacity:1; stop-color:#CD0105"/>
   <stop offset="1" style="stop-opacity:1; stop-color:#CD0105"/>
  </linearGradient>
  <linearGradient id="id1" gradientUnits="userSpaceOnUse" x1="114.77" y1="25.96" x2="115.54" y2="25.96">
   <stop offset="0" style="stop-opacity:1; stop-color:#0C1348"/>
   <stop offset="0.25098" style="stop-opacity:1; stop-color:#0C1348"/>
   <stop offset="0.588235" style="stop-opacity:1; stop-color:#0A0C24"/>
   <stop offset="0.901961" style="stop-opacity:1; stop-color:#1C3479"/>
   <stop offset="1" style="stop-opacity:1; stop-color:#1F1D49"/>
  </linearGradient>
  <linearGradient id="id2" gradientUnits="userSpaceOnUse" xlink:href="#id1" x1="270.4" y1="67.36" x2="275.19" y2="67.36">
  </linearGradient>
  <linearGradient id="id3" gradientUnits="userSpaceOnUse" xlink:href="#id1" x1="4.22" y1="217.89" x2="484.27" y2="217.89">
  </linearGradient>
  <linearGradient id="id4" gradientUnits="userSpaceOnUse" xlink:href="#id0" x1="1108.87" y1="90.35" x2="1137.06" y2="90.35">
  </linearGradient>
  <linearGradient id="id5" gradientUnits="userSpaceOnUse" xlink:href="#id0" x1="-331.2" y1="497.19" x2="1974.13" y2="497.19">
  </linearGradient>
  <linearGradient id="id6" gradientUnits="userSpaceOnUse" xlink:href="#id0" x1="-331.19" y1="751.04" x2="1974.11" y2="751.04">
  </linearGradient>
  <linearGradient id="id7" gradientUnits="userSpaceOnUse" xlink:href="#id0" x1="-331.21" y1="730.8" x2="1974.13" y2="730.8">
  </linearGradient>
  <linearGradient id="id8" gradientUnits="userSpaceOnUse" xlink:href="#id0" x1="-331.19" y1="136.29" x2="1974.12" y2="136.29">
  </linearGradient>
  <linearGradient id="id9" gradientUnits="userSpaceOnUse" xlink:href="#id0" x1="-331.2" y1="249.78" x2="1974.13" y2="249.78">
  </linearGradient>
  <linearGradient id="id10" gradientUnits="userSpaceOnUse" xlink:href="#id0" x1="-334.77" y1="374.44" x2="1976.24" y2="374.44">
  </linearGradient>
  <linearGradient id="id11" gradientUnits="userSpaceOnUse" xlink:href="#id0" x1="-331.18" y1="120.32" x2="1974.12" y2="120.32">
  </linearGradient>
  <linearGradient id="id12" gradientUnits="userSpaceOnUse" xlink:href="#id0" x1="-331.23" y1="11.81" x2="1974.14" y2="11.81">
  </linearGradient>
  <linearGradient id="id13" gradientUnits="userSpaceOnUse" xlink:href="#id0" x1="-331.2" y1="628.08" x2="1974.13" y2="628.08">
  </linearGradient>
  <linearGradient id="id14" gradientUnits="userSpaceOnUse" xlink:href="#id0" x1="-336.61" y1="249.78" x2="1979.59" y2="249.78">
  </linearGradient>
  <linearGradient id="id15" gradientUnits="userSpaceOnUse" xlink:href="#id0" x1="-331.69" y1="723.55" x2="1974.92" y2="723.55">
  </linearGradient>
  <linearGradient id="id16" gradientUnits="userSpaceOnUse" xlink:href="#id0" x1="-337.64" y1="120.32" x2="1981.47" y2="120.32">
  </linearGradient>
 </defs>
 <g id="Layer_x0020_1">
  <metadata id="CorelCorpID_0Corel-Layer"/>
  <g id="_2030795205792">
   <g>
    <path class="fil0" d="M1199.79 45.3c-5.14,-4.58 -4.68,-8.56 -14.2,-10 -0.39,-3.29 -1.51,-6.72 -2.74,-12.45 -2.51,-3.82 -6.2,-14.03 -9.33,-18.36 -1.57,-2.15 -3.06,-2.72 -5.96,-3.7 -10.42,-3.47 -10.82,5.21 -18.65,10.46l-8.2 -4.66c-1.69,5.61 -2.97,12.44 -3.98,16.25 -2.83,22.92 -3.28,36.11 -3.46,54.23 -7.3,2.21 -10.01,4.96 -10.26,8.78 -0.01,3.82 -0.02,3.7 -0.03,3.96 0,0.01 0.01,0.3 0.01,0.45 -11.47,-0.13 -19.06,8.6 -27.84,11.62 -5.04,1.74 -9.5,3.87 -14.08,5.65 -11.46,4.48 -22.16,2.52 -34.32,22.25 -4.32,7.05 -0.21,11.97 -3.84,14.97 -4.78,3.96 -5.05,0.31 -7.43,9.86 -0.19,0 -0.37,-0.14 -0.6,0.43 3.4,2.97 2.75,1.77 8.41,1.71l2.95 16.08c-2.39,1.99 -9.58,4.24 -13.44,7.05 -12.96,9.46 -4.59,4.58 -12.66,6.62 -5.37,1.38 -10.49,3.27 -16.18,4.7 -4.55,1.17 -11.52,2.47 -15.33,4.76 1.85,5.01 6.17,9.73 8.52,16.02 -1.62,1.32 -3.46,-0.09 -5.39,5.64 -6.91,3.82 -15.16,14.26 -20.45,19.99 -2.88,3.11 -5.28,5.29 -8.27,8.23 -4,3.93 -12.71,12.37 -18.28,15.37 -3.61,1.92 -7.95,2.86 -11.82,4.98 -4.08,2.29 -7.03,4.57 -10.48,6.68 -5.83,-1.77 -10.36,-4.13 -17.06,-5.87 0.77,-7.1 2.22,-9.72 4.01,-15.6 1.53,-5.08 1.53,-10.43 3.03,-15.13 1.24,-1.79 5.76,-1.05 7.82,-2.06 1.13,-4.24 -2.49,-12.77 -4.98,-16.59 -0.38,0 -0.74,-2.34 -1.05,-2.91 -1.71,-3.14 -3.04,-6.12 -4.62,-8.96 -0.87,-1.55 -1.34,-2.59 -2.1,-4.43l-1.99 -4.51c-14.4,2.31 -18.01,23.03 -21.25,12.31 -1.67,-5.56 15.13,-19.97 7.13,-32.11 -4.11,-6.24 -4.5,-2.33 -2.72,-11.66 -6.37,-1.45 -15.38,-4.38 -21.85,-6.5 -2.01,-0.66 -13.6,-7.42 -16.25,5.17 1.92,1.39 0.72,0.96 2.17,2.73 -2.02,2.1 -2.15,2.72 -7.9,4.36l0 11.96c-3.83,0 -0.81,-2.24 -3.99,-7.28 -5.57,2.56 -0.79,6.73 -8.73,8.35 -0.82,9.03 -2.66,21.8 -2.8,30.44 -0.01,0.79 0.36,3.02 0.48,3.02 0.65,0 2.83,5.12 4.31,8.63 1.61,3.72 2.93,8.63 3.89,12.97 3.95,18.07 1.68,28.77 -9.02,42.2l-12.73 0c-3.5,-7.67 -5.79,-10.28 -5.86,-17.38 -0.11,-9.19 0.57,-7.33 -2.74,-14.34 -1.71,-3.63 -2.76,-7.04 -3.04,-11.59 -0.46,-7.41 0.55,-16.62 2.04,-20.43 2.43,-9.55 6.18,-22.78 7.17,-34.15 -6.3,2.85 -9.42,8.61 -12.32,14.49 -1.56,3.15 -0.98,3.85 -4.02,4.35 -3.44,-6.14 12.08,-29.47 12.77,-40.48 4.8,2.55 3.84,1.46 9.51,-1.06 -0.16,1.34 -0.73,2.47 -0.8,3.34 -0.11,2.09 -0.51,1.06 0.66,2.36l10.68 -8.49c2.43,-1.88 3.81,-3.43 4.92,-3.43 1.55,-3.82 2.56,-4.27 5.04,-6.81l15.5 3.9c2.49,-5.9 4.02,-5.23 8.45,-4.56 7.45,1.1 0.91,-6.91 -4.66,-11.01 -2.38,1.26 -5.03,2.64 -8.59,3 -5.05,0.52 -2.59,-0.58 -6.52,-2.82 -0.45,-3.03 0.13,-4.98 -1.01,-7.3 -2.34,-0.66 -3.08,2.07 -7.29,3.23 -3.44,0.94 -6.5,1.1 -9.16,2.93 -3.49,2.35 -9.16,9.21 -12.98,10.39 -6.88,2.13 -13,-3.57 -17.2,-6.15 -7.41,-4.57 -8.69,-5.08 -17.76,-2.31 -1.3,-12.13 5.53,-12.18 9.12,-19.38 -8.74,2.45 -14.49,8.08 -20.54,13.71 -6.11,5.64 -10.68,12.05 -18.88,15.93 -8.33,3.95 -12.44,3.41 -13.31,7.23 -0.13,0 -0.19,0.16 -0.19,0.96l-5.07 0.09c-0.09,0.22 -0.18,0.27 -0.25,0.47 -0.05,0.18 -0.16,0.33 -0.23,0.59 -0.09,0.4 -0.17,0.66 -0.24,0.93 -0.02,0.15 -0.04,0.24 -0.06,0.42 -0.11,0.79 -0.04,2.02 -0.04,2.93l-4.07 1.06c-0.04,-4.61 -0.33,-7.43 1.76,-7.43 0.58,-3.82 1.29,-1.94 2.29,-2.4l-0.35 -8.05c-5.43,-0.97 -12.56,5.77 -20.87,4.4 -1.98,-0.34 -1.04,-0.04 -2.18,-1.02 0.91,-3.43 -0.48,0.4 2.71,-2.46 0.56,-0.47 1.54,-1.85 2.15,-2.73 1.19,-1.72 2.77,-4.06 4.02,-5.71 2.72,-3.66 6.35,-8.62 8.96,-11.2 3.36,-3.36 6.42,-7.04 10.67,-9.45 7.38,-4.18 6.03,-0.59 12,-7.9 -3.84,-2.84 -12.89,-2.63 -18.31,-2.47 -7.22,0.2 -10.83,2.17 -16.91,3.28 -4.16,-4.65 -8.39,-5.98 -15.11,-7.83 -1.37,1.64 -1.6,2.99 -3.43,3.63 -1.19,-1.66 -0.96,-2.87 -1.85,-5.23 -0.23,-0.62 -0.71,-1.67 -1.01,-2.27l-0.87 -1.64c-0.05,-0.3 -0.2,-0.37 -0.32,-0.55 -15.71,3.29 -24.09,-2.25 -40.33,-1.34 -0.56,-1.89 -1.34,-2.12 -2.17,-7.88l-14.63 0c-0.28,0 -0.55,1.91 -0.89,2 -5.42,1.46 -11.73,3.16 -17.76,2.85 -14.97,-0.84 -23.1,0.61 -37.16,1.84 -29.88,2.64 -57.84,0.15 -90.31,-1.9 -1.91,-0.49 -11.84,1.73 -19.05,-3.78 -0.69,0 -1.09,-0.08 -1.78,-0.11 -9.61,-0.42 -18.36,0.11 -27.56,0.11 -3.19,0 -6.33,1.37 -9.63,1.37 -1.71,0 -3.42,-0 -5.15,-0.05 -0.06,0 -1.24,-0.75 -0.92,-0.09l-1.54 -1.93 -0 -0.31 -14.64 0c-8.39,0 -16.84,-1.88 -25.08,-3.23l1.41 4.41 1.64 5.53 -0.05 0 -1.59 -5.3 -1.41 -3.92c-7.26,-1.2 -14.35,-2.04 -21.07,-3.43l-0.01 -0.03c-0.31,-0.06 -0.64,0.47 -0.96,0.4 -23.38,-4.86 -48.06,-7.47 -72.24,-11.41l-9.77 6.17 9.77 -7.07c-3.54,-0.58 -7.06,-3.22 -10.57,-3.22l-4.51 0 -0.28 0.44c-3.24,-0.61 -6.46,-1.86 -9.67,-2.55l-0.24 0.61c-1.06,-0.14 -2.13,0.17 -3.18,-0.06 -5,-1.12 -10.58,-2.84 -15.4,-3.62 -5.62,-0.9 -11.52,-1.03 -17.07,-2.17 -4.93,-1.01 -9.67,-3.26 -15.56,-4.49 -1.65,-0.34 -3.38,-0.58 -5.08,-0.86l-0.04 0.03c-1.11,-0.19 -2.19,-0.4 -3.32,-0.57l-1.29 3.95 -0.01 0.01 1.3 -3.97c-8.1,-1.28 -16.49,-2.34 -24.06,-4.66 -5.09,-1.58 -8.71,-3.68 -14,-5.37 -3.77,-1.19 -18.89,-6.27 -32.75,-10.76l-0.1 0.39c-2.41,-0.79 -4.77,-1.82 -7.02,-1.82l-7.32 0 -0.33 -1.92 0.28 0c-0.09,0 -0.19,-0.36 -0.29,-0.39l-0.41 -3.44 -9.38 0 -0.29 2.2c0.6,0.64 1.39,2.14 2.11,3.72 0.98,2.19 1.47,6.08 1.74,8.68 0.27,2.49 0.42,4.95 0.53,7.46 0.18,4.02 0.27,8.05 0.57,12.15 -8.43,1.67 -6.93,6.87 -6.68,14.14 -3.84,2.63 -9.02,4.12 -13.73,5.41 -0.98,-3.02 -1.74,-2.59 -1.64,-6.55l8.09 0.39c0.94,-2.08 2.86,-3.98 2.95,-5.78 0.11,-1.83 -0.57,-2.35 -1.37,-3.08 -1.01,-0.94 -0.3,-0.23 -1.54,-1.03l-1.09 -0.66c1.02,-3.79 2.3,-5.08 5.02,-7.31l0.91 -0.8c-0.18,-0.08 -0.41,-0.2 -0.61,-0.28 -0.87,-0.4 -1.85,-0.88 -2.98,-1.48 -9.43,-4.96 -26.76,-15.84 -31.16,-17.62 -1.85,1.18 -2.38,1.92 -4.12,3.32 0.44,6.99 1.58,13.98 2.17,21.75 0.26,3.48 0.6,6.78 0.9,6.78 1.05,9.55 1.74,7.64 -2.32,12.24l3.15 7.57c-0.75,0.72 -1.24,1.13 -1.62,1.13l-0.79 0c-0.34,0 -0.64,-0.35 -1.22,-0.16l0.44 0.16 -1.74 0c0.03,0 0.1,1 0.14,1.25 -0.1,0.05 -0.2,1.14 -0.31,1.2 0,0.43 0.06,2.34 0.17,2.34l0.45 0c1.11,2.88 3.5,5.72 5.12,7.17l-7.72 0.39c-0.64,5.6 -2.52,14.69 -3.91,20.36 -0.94,3.91 -2.52,2.9 -4.62,5.7 -5.12,6.81 -5.25,7.52 -6.32,13.24 -0.11,7.64 -0.23,3.33 -0.37,4.22 -0.11,0.71 -0.66,2.71 -1.4,3.97l6.83 6.68 -0.05 0.42 -6.77 -4.31c-0.98,1.66 -2.35,1.12 -3.93,6.62 -2.8,0 -6.11,7.45 -8.36,12.16 -1.72,3.6 -3.22,8.41 -4.55,8.41 -0.65,1.91 -1.25,2.88 -1.82,4.24l5.84 -4.24 -5.84 4.52c-0.02,0.05 -0.04,0.18 -0.06,0.23l-8.32 6.08 2.9 9c0,-0.01 0.01,-0.01 0.01,-0.02l2.51 7.82 -0.01 -0.01 -2.51 -7.77c-0.54,1.84 -0.96,3.5 -1.29,5.02l3.54 2.59 -3.54 -2.19c-1.5,6.99 -1.07,10.29 -0.74,15.8 0.34,5.5 0.56,8.78 -1.84,17.28 -1.37,4.77 -0.04,5.99 -0.38,10.57 -1.22,1.14 -2.17,1.73 -3.05,2.37l-0.03 -0.08c-1.08,0.78 -3.34,1.48 -4.45,2.67 -2.19,2.32 -3.59,3.09 -6.46,4.92l0 11.73c0,0.7 2.41,1.54 2.92,2.37l2.98 -1.69 0.33 0.04 -2.15 2.36c1.8,2.94 3.12,4.75 3.86,11.35 1.29,5.51 1.14,13.7 -0.46,19.32l-2.63 3.66c1.44,3.48 3.3,4.23 4.69,8.14 1.39,4.01 2.06,9.06 3.82,9.06 0.08,0 0.14,2.69 0.23,2.87 5.1,10.16 -6.37,7.67 3.62,20.14l0.71 0 0.02 0 0.43 0.63c0.39,0.46 0.73,1.22 1.17,1.72 3.23,-0.83 2.65,-0.44 4.34,-2.36 0.01,0 0.02,0 0.03,0 0.02,0 0.04,-0.05 0.06,-0.09 0.02,0.04 0.03,0.09 0.05,0.09l0.02 0c1.81,5.75 2.18,3.31 1.91,7.67l-3.34 0.45c-1.35,18.32 -1.83,16.03 8.18,25.67 5.69,5.46 0.3,6.92 -1.21,11.16 -0.88,2.43 1.44,14.15 4.56,16.06 3.96,11.46 9.21,19.79 10.82,22.48 2.81,4.69 6.08,5.3 5.08,12.63 -0.73,5.19 -2.26,9.71 -2.88,15.33 9.25,4.92 11.52,8.71 24.77,9.16 0.76,0.9 1.46,1.51 2.13,1.51 3.23,7.64 5.77,12.66 11.1,15.23 4.66,2.28 7.88,0.89 9.78,5.45 2.42,5.83 0.38,5.51 7.13,6.96 14.35,3.09 16.42,25.82 17.89,35.37 0.18,5.73 0.36,4.83 0.55,6.21l57.04 9.62c5.19,9.71 6.56,6.99 16.75,12.13 3.22,1.61 10.58,8.34 16.88,11.59 6.31,3.23 8.87,3.57 19.09,9.21 6.14,3.37 12,7.31 17.53,10.92l9.7 7.17 6.71 4.65c4.32,2.93 18.46,2.92 24.59,3.54 17.27,1.76 34.43,4.14 51.59,5.6l1.76 -13.59 44.2 3.51c3.17,5.61 2.66,6.93 7.5,12.22 4.69,5.14 19.38,15.15 22.21,18.97 1.1,1.48 0.18,-0.16 0.82,1.66l2.49 5.44c1.74,2.54 1.19,5.52 2.2,9.3 1.07,3.98 3.24,9.8 6.15,13.62 8.71,9.55 24.04,24.66 36.36,27.24 3.43,-4.71 13.73,-15.02 18.67,-18.58 4.05,-2.89 7.95,-5.16 14.05,-5.03 5.28,0.1 11.25,1.84 13.32,5.39 6.65,11.28 3.72,6.66 12.93,14.42 3.27,2.75 1.53,2.95 3.34,7.07 4.29,9.72 16.2,23.71 23.99,32.34l0.01 0c-0,0 -0.01,0 -0.01,0l1.17 0c-0.14,0 -0.3,0 -0.44,0l0.44 0c3.52,2.88 4.86,3.28 6.08,10.05 1.26,7.02 7.2,21.41 10.21,26.74 7.24,12.84 29.18,7.28 39.65,15.89 4.27,3.55 8.46,2.64 13.85,0.58 -1.39,-2.49 -3.34,-2.13 -5.21,-3.57 3.96,-12.7 -7.05,-17.17 -4.43,-25.29 1.26,-3.83 1.3,-6.03 1.58,-10.2l-5.19 -1.36 0.18 -3.28 5.79 0.91c-0.16,-4.34 -0.02,-5.64 1.88,-8.99l-3.32 -1.33 -0.51 -1.21c2.95,-2.41 2.88,-1.98 5.58,-3.41 0.12,-9.25 3.54,-6.48 6.1,-9.15 0.02,-0.02 1.12,-1.71 1.31,-1.96 2.28,-3.23 3.44,-3.81 3.68,-8.15 4.09,0.89 1.25,0.51 4.32,2.44 2.33,-2.82 2.62,-2.58 6.51,-3.83l-1.76 -5.01c18.74,-2.84 34.25,-7.15 38.89,-26.44l1.32 -5.91c0.2,-0.47 0.28,-0.82 0.33,-0.82l2.47 0c2.79,2.88 2.55,5.35 1.06,9.04l28.48 -9.04 2.28 0 10.8 0c0.83,0 1.81,0.22 3.1,0.48 5.92,1.21 13.02,0.75 19.33,0.72 1.23,-0.29 1.23,-0.82 1.64,-0.82 0.49,-3.82 1.57,-4.3 6.18,-8.13l13.73 6.5 -13.73 -6.45c-4.61,3.83 -5.69,4.82 -6.18,7.69l23.81 0c-0.03,0 -0.25,4.39 -0.38,6.69 3.84,3.01 4.43,2.8 10.4,4.37 5.11,-5.39 10.85,-4.35 20.72,-6.4 -0.18,-1.55 -0.47,-4.66 -0.98,-4.66l9.31 0c3.58,0 8.49,6.29 11.26,7.75 1.73,-0.98 4.91,-4.77 5.78,-7.45 -0.26,-0.33 -0.56,0.09 -0.84,0.09 -4.35,-3.82 -11.44,-5.13 -13.24,-11.39 1.74,-5.05 3.41,-4.03 7.75,-6.03 1.22,-3.36 0.6,-3.75 -0.98,-6.07l-12.96 1.32 -0.57 -4.55 -4.3 -0.36 -1.49 3.02 -10.3 0.07c-1.67,-2.15 -3.43,-3.92 -4.41,-6.5 2.12,-0.64 4.07,-1.35 6.33,-2.28 4.55,-1.83 3.52,-2.16 6.93,-0.09 16.95,10.19 17.93,-4.46 26.74,-5.58 13.32,-1.71 14.68,4.02 22.1,-6.27 0.09,-0.13 0.25,-0.34 0.33,-0.45 0.09,-0.14 0.26,-0.4 0.32,-0.48 0.07,-0.09 0.21,-0.32 0.32,-0.48 5.48,5.19 5.37,7.61 15.43,5 5.21,-1.37 3,-2.81 4.69,-6.42l32.24 0.44c7.34,0.6 9.53,3.32 14.47,8.11 9.19,8.94 15.78,-0.96 23.49,-4.02l-0.09 -5.46 15.22 -0.82 9.76 13.55c5.26,5.07 10.16,5.05 16.47,8.68 10.33,5.94 6.23,17.58 6.79,27.13 0.2,0 1,6.58 3.34,10.33 2.67,-1.44 0.21,-1.4 3.38,-3.47 4.71,3.77 3.75,6.46 0.57,11.58l4.06 6.36c6.13,14.22 10.81,0.28 18.91,13.33 5,8.08 9.84,15.33 15.87,24.88 0.67,0 1.28,0.8 1.97,1.55 5.16,5.64 7.74,4.5 14.35,8.08 -1.41,4.71 -0.2,0.48 -1.94,2.06 -1.13,1.01 -0.51,-1.59 -2.2,2.52 3.18,0.74 10.9,-0.36 13.78,-1.37 3.17,-4.11 5.3,-9.03 6.62,-12.85 3.41,-15.28 1.31,-27.36 -3.33,-40.84 -2.9,-8.36 -6.38,-18.35 -10.14,-22.17 -4.31,-9.55 -8.99,-15.93 -13.57,-23.52 0.5,-0.32 -0.37,-1.59 3.2,-0.83 0.73,0.15 0.86,0.27 0.86,0.38 0.1,-0.12 0.43,0.33 1.41,-0.24 -9.99,-13.48 -22.08,-21.61 -27.21,-40.71 -0.85,0 -2.63,-6.05 -3.05,-9.93 -4.18,0.4 -5.69,2.06 -5.69,8.49 0,-0.03 0,-0.24 0,-0.24l1.55 0c0.2,0 -1.55,0.53 -1.55,0.71 0,0.32 0,1.2 0,1.2l1.55 0c-7.13,-7.67 2.84,-12.95 3.21,-13.92 -0.11,-4.96 -1.58,-11.56 -2.56,-16.44 -1.37,-6.65 4.38,-17.58 6.7,-36.67 0.5,0 0.9,-4.83 0.96,-8.09 3.66,-1.76 4.41,-1.9 7.97,-4.49 13.38,-9.69 27.32,-33.28 34.08,-50.46 0.33,0 0.66,-0.05 0.96,-0.79 2.95,-7.33 10.85,-3.79 16.02,-8.2 5.26,-4.48 2.28,-14.48 6.37,-18.25 5.71,-5.26 14.35,-11.18 21.46,-15.4 3.68,-2.2 2.97,-4.21 1.48,-8.02 -4.34,1.46 -7.52,8.03 -13.46,5.58 1.25,-2.71 2.33,-2.28 5.96,-2.64l2.01 -10.09 -6.22 0.21c0.5,-1.18 1.11,-3.52 1.75,-3.52 1.13,0 2.41,-2.71 3.71,-5.01 12.77,6.29 19.84,-9.65 15.38,-16.34 -1.57,-2.37 -0.73,-1.54 -3.45,-2.5l-2.14 6.06c-3.52,-0.27 -6.38,-1.45 -9.97,-1.03 -4.88,0.59 -3.61,2.57 -9.21,2.82l-0.62 -8.72c4.27,0.48 5.33,0.78 9.15,-0.98 2.28,-1.07 6.66,-2.03 8.55,-3.34 -4.82,-10.08 0.18,-9.09 -3.59,-14.7 -4.48,-6.61 -4.77,-5 -13.1,-4.32 -2.7,0.23 -5.07,0.44 -7.09,-1.14 2.97,-3.43 2.32,-2.59 7.34,-1.42 -1.44,-4.64 -4.48,-3.65 -6.05,-6.65 1.16,-2.63 -0.42,-0.3 1.84,-2.33 0.55,-0.48 1.45,-0.27 2.28,-1.01 -0.18,-0.37 -0.42,-0.42 -0.71,-0.42l-0.03 0c-2.1,-5.75 -6.75,-6.05 -8.87,-8.4 3.43,-1.26 4.16,0.35 8.14,0.43 0.11,-11.61 -3.86,-6.67 -7.66,-12.27 2.24,-3.6 1.51,-1.68 4.89,-3.51 -1.96,-2.31 -4.87,-4.23 -6.6,-7.5 -1.62,-3.08 -2.88,-6.96 -4.35,-10.21 -3.91,-8.65 -1.11,-6.46 2.18,-14.57 1.6,-3.96 0.22,-3.39 3.35,-4.24 1.72,1.05 1.1,0.25 1.23,2.24 0.28,3.43 -1.87,8.98 -1.76,11.79 0.18,5.58 6.08,3.11 5.12,13.03 11.2,-0.03 5.32,12.5 17.03,12.98 -0.3,6.01 -2.46,9.51 -2.5,16.98 3.09,-1.28 4.37,-4.38 5.61,-7.77 4.04,-10.92 3.49,-24.52 2.66,-35.99 -1.71,-0.5 -3.69,-1.12 -5.11,-2.08 -1.69,-1.1 -1.1,-0.98 -2.27,-1.9l-2.51 -1.05c-3.33,-2.05 -3.38,-6.44 -3.55,-10.28l1.12 0c4.17,0.96 6.09,1.5 11.55,2.6 1.08,2.4 0.66,5.02 0.69,8.26 2.67,-1.55 5.09,-7.72 7.08,-11.54 4.34,-13.37 6.65,-32.19 5.13,-35.87 -5.3,-1.13 -7.89,0.37 -8.11,-6.6 -0.16,-4.48 1.76,-7.86 3.79,-10.89 2.86,-4.26 5.89,-9.74 9.38,-9.74 1.86,-5.73 3.82,-4.06 6.03,-5.68 6.18,-4.52 11.17,-8.33 18.05,-12.24 16.48,-9.33 7.22,-4.89 13.78,-16.92 2.08,1.46 2.65,2.21 5.68,3.19l5.08 -5.61c8.93,-8.95 14.83,-6.78 17.23,-16.63 -3.89,-1.46 -6.88,-4.68 -11.11,-5.04 0.64,4.79 3.4,3.23 4.59,10.82 -3.42,2.1 -6.19,3.74 -11.4,4.35 -3.24,-6.37 -15.12,-13.53 -11.72,-19.26 0.44,-3.82 1.1,-3.24 2.1,-4.43 -5.6,-4.53 -9.21,-7.25 -5.46,-17.37 4.77,-12.89 21.68,-32.28 23.71,-42.81 0.17,-0.87 0.2,1.61 0.18,-4.12 -0.16,0 -3.09,-1.23 0.27,-5.13 6.76,2.72 -1.01,5.06 7.26,5.06 0.14,-0.15 0.32,-0.22 0.37,-0.11l2.22 -6.03 5.37 -0.47c0.55,-7.33 7.62,-10.02 11.36,-14.84 1.45,-1.87 3.51,-3.92 3.51,-5.69l0 -3.27c-4.79,-2.3 -7.92,-6.17 -12.33,-10.09z"/>
    <g>
     <path class="fil1" d="M487.11 343.76l602.28 0c-0.01,0 -0.02,0 -0.03,0l-602.25 0z"/>
     <g>
      <path class="fil2" d="M616.13 773.21c3.96,-12.7 -7.05,-17.17 -4.43,-25.29 1.26,-3.83 1.3,-6.03 1.58,-10.2l-5.19 -1.37 0.18 -3.28 5.79 0.91c-0.16,-4.34 -0.02,-5.72 1.88,-9.07l-3.32 -1.41 -61.05 0c3.52,2.88 4.86,3.28 6.08,10.05 1.26,7.02 7.2,21.41 10.21,26.74 7.24,12.84 29.18,7.28 39.65,15.89 4.27,3.55 8.46,2.64 13.85,0.58 -1.39,-2.49 -3.34,-2.12 -5.21,-3.56z"/>
      <path class="fil3" d="M550.39 724.07l1.17 0c-0.36,-0.31 -0.74,-0.65 -1.14,-1.05 -0.01,-0.01 -0.02,1.05 -0.03,1.05z"/>
      <path class="fil4" d="M1035.75 725.14c5.16,5.64 7.74,4.54 14.35,8.13 -1.41,4.71 -0.2,0.5 -1.94,2.09 -1.13,1 -0.51,-1.58 -2.2,2.53 3.18,0.74 10.9,-0.44 13.78,-1.45 3.17,-4.11 5.3,-9.09 6.62,-12.93l-32.59 0c0.67,0 1.28,0.88 1.97,1.63z"/>
      <path class="fil5" d="M1043.37 636.62c-0.09,0.11 -0,0.08 0,0z"/>
      <path class="fil6" d="M1039.32 636.91c0.5,-0.32 -0.37,-1.49 3.2,-0.72 0.73,0.15 0.86,0.33 0.86,0.43 0.1,-0.12 0.43,0.48 1.41,-0.09 -9.99,-13.47 -22.08,-21.39 -27.21,-40.56l-760.06 0 6.71 4.54c4.32,2.93 18.46,2.86 24.59,3.48 17.27,1.76 34.43,4.11 51.59,5.57l1.76 -13.6 44.2 3.51c3.17,5.61 2.66,6.93 7.5,12.21 4.69,5.14 19.38,15.15 22.21,18.97 1.1,1.48 0.18,-0.16 0.82,1.66l2.49 5.44c1.74,2.54 1.19,5.3 2.2,9.08 1.07,3.98 3.24,10.52 6.15,13.4l284.94 0 10.8 0 24.07 0c0.49,-2.88 1.57,-4.11 6.18,-7.94l13.73 6.59 -13.73 -6.4c-4.61,3.83 -5.69,4.86 -6.18,7.74l23.81 0 29.76 0 9.31 0 16.2 0c-4.35,-2.88 -11.44,-4.93 -13.24,-11.2 1.74,-5.05 3.41,-3.94 7.75,-5.93 1.22,-3.36 0.6,-3.7 -0.98,-6.02l-12.96 1.34 -0.57 -4.54 -4.3 -0.36 -1.49 3.03 -10.3 0.07c-1.67,-2.15 -3.43,-3.91 -4.41,-6.5 2.12,-0.64 4.07,-1.34 6.33,-2.28 4.55,-1.83 3.52,-2.16 6.93,-0.09 16.95,10.19 17.93,-4.46 26.74,-5.58 13.32,-1.71 14.68,4.02 22.1,-6.27 0.09,-0.13 0.25,-0.34 0.33,-0.45 0.09,-0.14 0.26,-0.4 0.32,-0.48 0.07,-0.09 0.21,-0.32 0.32,-0.48 5.48,5.19 5.37,7.61 15.43,5 5.21,-1.37 3,-2.81 4.69,-6.42l32.24 0.44c7.34,0.6 9.53,3.32 14.47,8.11 9.19,8.94 15.78,-0.96 23.49,-4.02l-0.09 -5.46 15.22 -0.82 9.76 13.55c5.26,5.07 10.16,4.83 16.47,8.46 10.33,5.94 6.23,18.28 6.79,26.91l65.25 0c-4.31,-8.63 -8.99,-15.71 -13.57,-23.3zm-271.55 19.2l0 0c-0.19,-3.59 -2.94,-5.69 -4.24,-9.55 0.03,0.01 0.06,0.01 0.08,0.02 1.33,3.73 3.97,5.95 4.15,9.53zm27.21 -6.85l0 0c-0.21,1.52 -0.31,2.6 -0.31,3.38 0.01,-0.76 0.11,-1.84 0.31,-3.38z"/>
      <path class="fil7" d="M1018.68 520.79c3.66,-1.76 4.41,-2.05 7.97,-4.63 13.38,-9.69 27.32,-33.35 34.08,-50.61l-986.67 0c3.23,8.63 5.77,12.83 11.1,15.4 4.66,2.28 7.88,0.97 9.78,5.54 2.42,5.83 0.38,5.53 7.13,6.98 14.35,3.08 16.42,26.75 17.89,35.38l897.75 0c0.5,0 0.9,-4.79 0.96,-8.05z"/>
      <path class="fil8" d="M1112.72 380.92l-2.14 6.06c-3.52,-0.27 -6.38,-1.45 -9.97,-1.03 -4.88,0.59 -3.61,2.57 -9.21,2.82l-0.62 -8.72c4.27,0.48 5.33,0.78 9.15,-0.98 2.28,-1.07 6.66,-2.03 8.55,-3.34 -4.82,-10.08 0.18,-9.09 -3.59,-14.7 -4.48,-6.61 -4.77,-5 -13.1,-4.32 -2.7,0.23 -5.07,0.44 -7.09,-1.14 2.97,-3.43 2.32,-2.59 7.34,-1.42 -1.44,-4.64 -4.48,-3.65 -6.05,-6.65 1.16,-2.63 -0.42,-0.3 1.84,-2.33 0.55,-0.48 1.45,-0.27 2.28,-1.01 -0.18,-0.37 -0.42,-0.42 -0.71,-0.42l-605.12 0 0 61.37 612.8 0c1.13,0 2.41,-2.89 3.71,-5.19 12.77,6.29 19.84,-9.74 15.38,-16.44 -1.57,-2.37 -0.73,-1.63 -3.45,-2.59z"/>
      <path class="fil9" d="M810.4 264.05c-0.11,-9.19 0.57,-7.33 -2.74,-14.34 -1.71,-3.63 -2.76,-6.79 -3.04,-11.34 -0.46,-7.41 0.55,-16.4 2.04,-20.23l-322.39 0 0 63.29 331.99 0c-3.5,-7.67 -5.79,-10.28 -5.86,-17.38z"/>
      <path class="fil10" d="M971.3 237.87c-2.88,3.11 -5.28,5.16 -8.27,8.11 -4,3.94 -12.71,12.31 -18.28,15.31 -3.61,1.92 -7.95,2.83 -11.82,4.95 -4.08,2.29 -7.03,4.55 -10.48,6.67 -5.83,-1.77 -10.36,-4.14 -17.06,-5.88 0.77,-7.1 2.22,-9.73 4.01,-15.61 1.53,-5.08 1.53,-10.43 3.03,-15.13 1.24,-1.78 5.76,-0.8 7.82,-1.81 1.13,-4.24 -2.49,-12.5 -4.98,-16.33l-85.37 0c0.65,0 2.78,4.87 4.26,8.38 1.61,3.72 2.9,8.51 3.86,12.84 3.95,18.07 1.65,28.64 -9.04,42.07l285.84 0c4.34,-13.43 6.65,-32.53 5.13,-36.21 -5.3,-1.13 -7.89,0.2 -8.11,-6.77 -0.16,-4.48 1.76,-7.69 3.79,-10.73 2.86,-4.26 5.89,-9.58 9.38,-9.58l-133.27 0c-6.91,3.83 -15.16,14 -20.45,19.73z"/>
      <path class="fil11" d="M729.32 152.33l-0.35 -8.11c-5.43,-0.97 -12.56,5.74 -20.87,4.37 -1.98,-0.34 -1.04,-0.05 -2.18,-1.03 0.91,-3.43 -0.48,0.39 2.71,-2.47 0.56,-0.47 1.54,-1.86 2.15,-2.73 1.19,-1.72 2.77,-4.06 4.02,-5.71 2.72,-3.66 6.35,-8.63 8.96,-11.2 3.36,-3.36 6.42,-7.04 10.67,-9.45 7.38,-4.18 6.03,-0.59 12,-7.9 -3.84,-2.84 -12.89,-2.63 -18.31,-2.47 -7.22,0.2 -10.83,2.17 -16.91,3.28 -4.16,-4.65 -8.39,-5.98 -15.11,-7.83 -1.37,1.64 -1.6,2.99 -3.43,3.63 -1.19,-1.66 -0.96,-2.87 -1.85,-5.23 -0.23,-0.62 -0.71,-1.67 -1.01,-2.27l-0.87 -1.64c-0.05,-0.3 -0.2,-0.37 -0.32,-0.55 -15.71,3.29 -24.09,-2.25 -40.33,-1.34 -0.56,-1.89 -1.34,-2.12 -2.17,-7.88l-14.63 0c-0.28,0 -0.55,1.91 -0.89,2 -5.42,1.46 -11.73,3.16 -17.76,2.85 -14.97,-0.84 -23.66,0.61 -37.73,1.84 -29.88,2.64 -59.23,0.15 -90.87,-1.89l0 64.25 242.76 0c0.58,-3.84 1.29,-2.05 2.29,-2.51z"/>
      <path class="fil12" d="M1122.97 90.3c-0.01,-0.03 -0.01,0.23 0,0z"/>
      <path class="fil13" d="M1123 85.8c-0.01,4.8 -0.02,3.74 -0.03,3.99 0,0.01 0.01,0.31 0.01,0.46 -11.47,-0.13 -19.06,8.61 -27.84,11.62 -5.04,1.74 -9.5,3.87 -14.08,5.65 -11.46,4.48 -22.16,2.52 -34.32,22.25 -4.32,7.05 -0.21,12.09 -3.84,15.08 -4.78,3.95 -5.05,0.38 -7.43,9.97l125.76 0c0.44,-3.84 1.1,-3.36 2.1,-4.55 -5.6,-4.53 -9.21,-7.31 -5.46,-17.43 4.77,-12.89 21.68,-32.34 23.71,-42.88 0.17,-0.87 0.2,1.57 0.18,-4.19l-58.77 0z"/>
      <path class="fil14" d="M735.43 154.84l99.8 0c1.55,-3.84 2.56,-4.39 5.04,-6.93l15.5 3.85c2.49,-5.9 4.02,-5.26 8.45,-4.59 7.45,1.1 0.91,-6.93 -4.66,-11.02 -2.38,1.26 -5.03,2.63 -8.59,3 -5.05,0.52 -2.59,-0.58 -6.52,-2.83 -0.45,-3.03 0.13,-4.98 -1.01,-7.3 -2.34,-0.66 -3.08,2.07 -7.29,3.23 -3.44,0.94 -6.5,1.1 -9.16,2.93 -3.49,2.35 -9.16,9.2 -12.98,10.38 -6.88,2.13 -13,-3.57 -17.2,-6.15 -7.41,-4.57 -8.69,-5.08 -17.76,-2.31 -1.3,-12.13 5.53,-12.18 9.12,-19.38 -8.74,2.45 -14.49,8.08 -20.54,13.71 -6.11,5.64 -10.68,12.17 -18.88,16.05 -8.33,3.95 -12.44,3.51 -13.31,7.35z"/>
      <path class="fil15" d="M1173.57 4.8c-1.57,-2.15 -3.09,-2.87 -5.99,-3.86 -10.42,-3.47 -10.83,5.13 -18.66,10.38l-8.21 -4.39c-1.69,5.61 -2.98,11.73 -3.98,16.52l46.23 0c-2.5,-4.79 -6.25,-14.34 -9.38,-18.66z"/>
     </g>
     <g>
      <path class="fil16" d="M484.27 216.69l0 -61.63 0 -64.46c-2.88,-0.49 -11.27,1.72 -18.49,-3.78 -0.69,0 -0.81,-0.08 -1.5,-0.11 -9.61,-0.42 -18.22,0.11 -27.42,0.11 -3.19,0 -6.27,1.37 -9.57,1.37 -1.72,0 -3.41,0.47 -5.15,0.43l4.3 13.49 17.57 0 -14.21 10.4 5.42 16.81 -14.25 -10.35 -14.23 10.38 5.45 -16.84 -14.23 -10.4 17.59 0 3.88 -14.17c0.11,0 0.23,-0.47 0.34,-0.46l-0.02 -1.67 -14.64 0c-8.39,0 -16.84,-1.88 -25.08,-3.23l1.41 3.99 1.64 5.18 -6.95 -4.98 -7.28 -5.25 -7.28 5.29 -6.95 5.06 1.64 -5.04 2.7 -7.04c-0.32,-0.06 -0.65,0.5 -0.97,0.43 -23.38,-4.86 -48.06,-7.46 -72.24,-11.4l-11.71 7.41 3.8 10.6 1.64 5.05 -6.96 -5.05 -7.29 -5.28 -7.29 5.28 -6.96 5.05 1.65 -5.05 3.82 -11.73 -14.26 -10.38 17.61 0 0.92 -1.54c-1.14,-0.24 -2.29,0.2 -3.42,-0.05 -5,-1.12 -10.58,-2.83 -15.4,-3.61 -5.62,-0.89 -11.52,-1.03 -17.07,-2.17 -4.93,-1.01 -9.67,-3.25 -15.56,-4.49 -1.65,-0.34 -3.38,-0.58 -5.08,-0.86l-4.66 3.41 1.3 -3.97c-8.1,-1.28 -16.49,-2.34 -24.06,-4.66 -5.09,-1.58 -8.71,-3.68 -14,-5.37 -3.77,-1.19 -18.89,-6.27 -32.75,-10.76l-11.1 8.04 5.45 16.73 -14.23 -10.38 -0.59 0.43c0.18,4.02 0.27,8.07 0.57,12.17 -8.43,1.67 -6.93,6.88 -6.68,14.15 -3.84,2.63 -9.02,4.13 -13.73,5.42 -0.98,-3.02 -1.74,-2.59 -1.64,-6.54l8.09 0.39c0.94,-2.08 2.86,-3.98 2.95,-5.78 0.11,-1.83 -0.57,-2.35 -1.37,-3.08 -1.01,-0.94 -0.3,-0.23 -1.54,-1.03l-1.09 -0.66c1.02,-3.79 2.3,-5.08 5.02,-7.31l0.91 -0.8c-0.18,-0.08 -0.41,-0.2 -0.61,-0.28 -0.87,-0.4 -1.85,-0.88 -2.98,-1.48 -9.43,-4.96 -26.76,-15.84 -31.16,-17.62 -1.85,1.18 -2.38,1.92 -4.12,3.32 0.44,6.99 1.58,13.9 2.17,21.67 0.26,3.48 0.6,6.7 0.9,6.7l15.78 0 -14.21 10.38 3.78 11.43 1.64 4.69 -6.96 -5.41 -4.12 0c0.03,0 0.1,1 0.14,1.25 -0.1,0.05 -0.2,1.14 -0.31,1.2 0,0.43 0.06,2.34 0.17,2.34l0.45 0c1.11,2.88 3.5,5.72 5.12,7.17l-7.72 0.39c-0.64,5.6 -2.52,14.69 -3.91,20.36 -0.94,3.91 -2.52,2.98 -4.62,5.77 -5.12,6.81 -5.25,7.54 -6.32,13.29l8.42 0 5.42 -16.69 5.47 16.69 17.57 0 -14.21 13.41 0.33 3.83 5.09 14.58 -14.25 -10.88 -14.23 11.28 5.11 -14.76 0.34 -2.27 -6.83 -4.35c-0.98,1.66 -2.35,1.12 -3.93,6.63 -2.8,0 -6.11,7.61 -8.36,12.32 -1.72,3.6 -3.22,8.57 -4.55,8.57l4.02 0 -5.84 4.36c-0.02,0.05 -0.04,0.1 -0.06,0.15l-8.32 6.04 2.9 8.98c0,-0.01 0.01,-0.02 0.01,-0.03l2.51 7.81 -3.81 -2.36c-1.5,6.99 -1.07,10.29 -0.74,15.8 0.34,5.5 0.56,8.78 -1.84,17.28 -1.37,4.77 -0.04,5.99 -0.38,10.57 -1.23,1.15 -2.19,2.07 -3.07,2.71l1.06 3.49 17.59 0 -14.23 10.05 5.42 16.52 -14.21 -10.41 -2.33 2.35c1.8,2.94 3.05,4.73 3.79,11.33 1.29,5.51 1.11,13.69 -0.49,19.31l-2.65 3.65c1.44,3.48 3.29,4.23 4.69,8.14 1.39,4.01 2.05,9.06 3.81,9.06l16.2 0 -14.23 12.67 2.59 10.34 0.02 0 0.43 0.63c0.39,0.46 0.73,1.22 1.17,1.72 3.23,-0.83 2.65,-0.44 4.34,-2.36 0.01,0 0.02,0 0.03,0 0.02,0 0.04,-0.05 0.06,-0.09 0.02,0.04 0.03,0.09 0.05,0.09l0.02 0c1.81,5.75 2.18,3.31 1.91,7.67l-3.34 0.45c-1.35,18.32 -1.83,16.03 8.18,25.67 5.69,5.46 0.3,7.1 -1.21,11.34 -0.88,2.43 1.44,14.32 4.56,16.24l450.12 0 0 -61.87 0 -62.74 0 -63.84zm-49.03 60.09l0 0 -14.25 -10.14 -14.23 10.42 5.45 -16.31 -14.23 -10.01 17.59 0 5.42 -16.72 5.47 16.72 17.57 0 -14.21 10.05 5.42 15.99zm-52.15 -34.37l0 0 -14.23 -10.43 -14.23 10.27 5.45 -15.62 -13.2 -8.5 16.54 0 5.44 -16.73 5.44 16.73 16.56 0 -13.2 8.48 5.42 15.8zm-112.41 49.56l0 0 17.59 0 -14.23 8.9 5.45 15.94 -14.25 -10.7 -14.25 10.14 5.47 -15.3 -14.26 -8.99 17.61 0 3.21 -11.23 2.21 -6.93 2.22 6.98 3.22 11.17zm-103.62 0l0 0 17.6 0 -14.23 8.9 5.42 15.94 -14.21 -10.7 -14.25 10.14 5.42 -15.3 -14.21 -8.99 17.57 0 3.24 -11.23 2.23 -6.93 2.21 6.98 3.21 11.17zm-42.68 -88.74l0 0 -14.23 -10.35 -14.25 10.39 5.47 -16.88 -14.26 -10.44 17.62 0 5.42 -16.72 5.44 16.72 17.59 0 -14.26 10.44 5.45 16.85zm207.24 73.55l0 0 -14.23 -10.14 -14.23 10.42 5.42 -16.31 -14.23 -10.01 17.59 0 5.44 -16.72 5.44 16.72 17.59 0 -14.23 10.05 5.42 15.99zm0 -73.55l0 0 -14.23 -10.35 -14.23 10.39 5.42 -16.88 -14.23 -10.44 17.59 0 5.44 -16.72 5.44 16.72 17.59 0 -14.23 10.44 5.42 16.85zm-52.12 39.18l0 0 -14.25 -10.43 -14.25 10.27 5.47 -15.62 -13.23 -8.5 16.59 0 5.42 -16.73 5.44 16.73 16.57 0 -13.2 8.48 5.45 15.8zm-51.5 34.37l0 0 -14.23 -10.14 -14.23 10.42 5.45 -16.31 -14.23 -10.01 17.57 0 5.45 -16.72 5.44 16.72 17.59 0 -14.23 10.05 5.42 15.99zm0 -73.55l0 0 -14.23 -10.35 -14.23 10.39 5.45 -16.88 -14.23 -10.44 17.57 0 5.45 -16.72 5.44 16.72 17.59 0 -14.23 10.44 5.42 16.85zm-52.15 39.18l0 0 -14.21 -10.43 -14.25 10.27 5.42 -15.62 -13.18 -8.5 16.54 0 5.47 -16.73 5.42 16.73 16.57 0 -13.2 8.48 5.42 15.8zm-51.47 34.37l0 0 -14.23 -10.14 -14.25 10.42 5.47 -16.31 -14.26 -10.01 17.62 0 5.42 -16.72 5.44 16.72 17.59 0 -14.26 10.05 5.45 15.99zm310.86 -73.55l0 0 -14.25 -10.35 -14.23 10.39 5.45 -16.88 -14.23 -10.44 17.59 0 5.42 -16.72 5.47 16.72 17.57 0 -14.21 10.44 5.42 16.85zm-71.82 -65.65l0 0 5.44 -16.69 5.44 16.69 17.59 0 -14.23 13.41 0.33 3.83 5.09 14.58 -14.23 -10.88 -14.23 11.28 5.11 -14.76 0.34 -4.06 -14.23 -13.4 17.57 0zm-46.03 -54.55l0 0 1.23 3.72 4.21 15.35 17.59 0 -14.23 10.4 5.42 16.81 -14.23 -10.35 -14.23 10.38 5.42 -16.84 -14.23 -10.4 17.59 0 4.21 -15.35 1.23 -3.72zm-57.57 54.55l0 0 5.42 -16.69 5.44 16.69 17.59 0 -14.23 13.41 0.34 3.83 5.11 14.58 -14.25 -10.88 -14.25 11.28 5.13 -14.76 0.34 -4.06 -14.26 -13.4 17.61 0zm-46.05 -54.55l0 0 1.23 3.72 4.21 15.35 17.59 0 -14.23 10.4 5.42 16.81 -14.23 -10.35 -14.23 10.38 5.45 -16.84 -14.23 -10.4 17.57 0 4.21 -15.35 1.23 -3.72zm-57.59 -18.33l0 0 5.47 -16.73 5.42 16.73 17.6 0 -14.23 10.38 3.78 11.43 1.64 5.2 -6.94 -4.97 -7.27 -5.24 -7.29 5.3 -6.96 5.06 1.64 -5.04 3.79 -11.73 -14.21 -10.38 17.57 0zm-46.03 18.33l0 0 1.23 3.72 4.21 15.35 17.59 0 -14.26 10.4 5.45 16.81 -14.23 -10.35 -14.25 10.38 5.47 -16.84 -14.26 -10.4 17.62 0 4.19 -15.35 1.23 -3.72zm28.46 54.55l0 0 17.57 0 5.47 -16.69 5.42 16.69 17.6 0 -14.23 13.41 0.33 3.83 5.09 14.58 -14.21 -10.88 -14.25 11.28 5.09 -14.76 0.33 -4.06 -14.21 -13.4zm-86.03 80.55l0 0 5.42 -16.73 5.47 16.73 16.54 0 -13.18 8.48 5.42 16.16 -14.25 -10.61 -14.23 10.18 5.44 -15.66 -13.2 -8.55 16.57 0zm5.42 55.57l0 0 2.23 7.04 3.24 11.23 17.57 0 -14.21 8.9 5.42 15.94 -14.25 -10.7 -14.23 10.14 5.44 -15.3 -14.23 -8.99 17.59 0 3.21 -11.23 2.21 -7.04zm54.4 70.05l0 0 -0.06 0 -2.19 -1.59 -2.19 1.59 -0.06 0 -12 8.69 2.84 -8.69 0.02 0 2.61 -10.34 -14.26 -12.67 17.62 0 5.42 -16.73 5.44 16.73 17.59 0 -14.26 12.67 2.6 10.34 0.02 0 2.83 8.69 -11.97 -8.69zm103.62 0l0 0 -0.06 0 -2.19 -1.59 -2.19 1.59 -0.06 0 -11.98 8.69 2.83 -8.69 0.01 0 2.6 -10.34 -14.23 -12.67 17.57 0 5.45 -16.73 5.44 16.73 17.59 0 -14.23 12.67 2.59 10.34 0.02 0 2.81 8.69 -11.98 -8.69zm103.62 0l0 0 -0.06 0 -2.19 -1.59 -2.19 1.59 -0.06 0 -11.97 8.69 2.82 -8.69 0.02 0 2.59 -10.34 -14.23 -12.67 17.59 0 5.44 -16.73 5.44 16.73 17.59 0 -14.23 12.67 2.59 10.34 0.02 0 2.81 8.69 -11.97 -8.69zm115.6 8.69l0 0 -12 -8.69 -0.06 0 -2.19 -1.59 -2.19 1.59 -0.07 0 -11.98 8.69 2.83 -8.69 0.01 0 2.6 -10.34 -14.23 -12.67 17.59 0 5.42 -16.73 5.47 16.73 17.57 0 -14.21 12.67 2.59 10.34 0.02 0 2.82 8.69zm-60.94 -60.47l0 0 17.59 0 -14.23 8.9 5.42 15.94 -14.23 -10.7 -14.23 10.14 5.45 -15.3 -14.23 -8.99 17.57 0 3.22 -11.23 2.22 -6.93 2.22 6.98 3.23 11.17z"/>
      <path class="fil17" d="M275.19 67.58c-1.59,0 -3.2,-0.13 -4.79,-0.43l0.28 0.43 4.51 0z"/>
      <path class="fil18" d="M115.54 26.08c-0.25,-0.08 -0.52,-0.17 -0.77,-0.23l0.08 0.23 0.7 0z"/>
     </g>
     <path class="fil0" d="M726.56 660.7c5.92,1.21 13.02,0.53 19.33,0.5 1.23,-0.29 1.23,-0.98 1.64,-0.98l-24.07 0c0.83,0 1.81,0.22 3.1,0.48z"/>
     <path class="fil0" d="M712.27 660.57l-1.89 0.6 2.28 0c-0.13,0 -0.25,-0.67 -0.39,-0.6z"/>
     <path class="fil0" d="M678.37 660.21l2.47 0c-0.51,0 -1.12,-0.55 -1.86,-0.71 -0.57,0.65 -0.52,0.71 -0.61,0.71z"/>
     <path class="fil0" d="M681.9 669.25l28.48 -9.04 -29.55 0c2.79,2.88 2.55,5.35 1.06,9.04z"/>
     <path class="fil0" d="M464.08 687.67c3.43,-4.7 13.73,-14.91 18.67,-18.47 4.05,-2.89 7.95,-5.11 14.05,-4.97 5.28,0.09 11.25,1.87 13.32,5.42 6.65,11.28 3.72,6.67 12.93,14.44 3.27,2.74 1.53,2.96 3.34,7.07 4.29,9.73 16.2,23.72 23.99,32.35l62.22 0 -0.51 -1.13c2.95,-2.41 2.88,-1.94 5.58,-3.37 0.12,-9.25 3.54,-6.45 6.1,-9.13 0.02,-0.02 1.12,-1.69 1.31,-1.95 2.28,-3.22 3.44,-3.81 3.68,-8.15 4.09,0.89 1.25,0.51 4.32,2.44 2.33,-2.82 2.62,-2.58 6.51,-3.83l-1.76 -5.01c18.74,-2.84 34.25,-7.15 38.89,-26.44l1.32 -5.91c0.2,-0.47 0.28,-0.82 0.33,-0.82l-250.64 0c8.71,10.55 24.04,24.88 36.36,27.46z"/>
     <path class="fil0" d="M1052.89 660.21l-65.25 0c0.2,0 1,6.8 3.34,10.55 2.67,-1.44 0.21,-1.29 3.38,-3.36 4.71,3.77 3.75,6.52 0.57,11.64l4.06 6.39c6.13,14.22 10.81,0.21 18.91,13.27 5,8.08 9.84,16.18 15.87,24.81l32.59 0c3.41,-14.38 1.31,-27.5 -3.33,-40.98 -2.9,-8.36 -6.38,-17.51 -10.14,-22.31z"/>
     <path class="fil0" d="M826.61 660.21l-16.2 0c3.58,0 8.49,6.29 11.26,7.75 1.73,-0.98 4.91,-4.99 5.78,-7.67 -0.26,-0.33 -0.56,-0.08 -0.84,-0.08z"/>
     <path class="fil0" d="M801.1 660.21l-29.76 0c-0.03,0 -0.25,4.39 -0.38,6.69 3.84,3.01 4.43,2.8 10.4,4.37 5.11,-5.39 10.85,-4.35 20.72,-6.4 -0.18,-1.55 -0.47,-4.66 -0.98,-4.66z"/>
     <path class="fil0" d="M1011.02 594.2l-0.65 0c0.21,0.18 0.42,0.37 0.65,0.56 -0,-0.19 -0,-0.38 -0,-0.56z"/>
     <path class="fil0" d="M1013.58 582.04c-0.11,-4.96 -1.58,-11.59 -2.56,-16.47 -1.37,-6.65 4.38,-16.6 6.7,-36.74l-897.75 0c0.18,5.76 0.36,4.86 0.55,6.23l57.04 9.63c5.19,9.71 6.56,6.99 16.75,12.13 3.22,1.61 10.58,8.35 16.88,11.6 6.31,3.23 8.87,3.57 19.09,9.21 6.14,3.38 12,7.43 17.53,11.03l9.7 7.28 752.86 0c-7.13,-7.67 2.84,-12.95 3.21,-13.92z"/>
     <path class="fil0" d="M1015.61 586.03c-4.48,0.43 -4.61,2.26 -4.59,9.93l6.55 0c-0.85,0 -1.53,-6.05 -1.95,-9.93z"/>
     <path class="fil0" d="M1093.57 420.8c1.25,-2.71 2.33,-2.28 5.96,-2.64l2.01 -10.09 -6.22 0.39c0.5,-1.18 1.11,-3.34 1.75,-3.34l-608.56 0 -454.36 0c3.96,11.51 9.21,19.62 10.82,22.3 2.81,4.69 6.08,5.21 5.08,12.54 -0.73,5.19 -2.26,9.66 -2.88,15.28 9.25,4.92 11.52,8.52 24.77,8.97 0.76,0.9 1.46,1.32 2.13,1.32l986.67 0c0.33,0 0.66,0.11 0.96,-0.62 2.95,-7.33 10.85,-3.71 16.02,-8.12 5.26,-4.48 2.28,-14.44 6.37,-18.21 5.71,-5.25 14.35,-11.16 21.46,-15.37 3.68,-2.2 2.97,-4.2 1.48,-8.01 -4.34,1.46 -7.52,8.04 -13.46,5.59z"/>
     <path class="fil0" d="M816.26 281.43l-331.99 0 0 62.33 605.09 0c-2.1,-5.75 -6.75,-6.05 -8.87,-8.4 3.43,-1.26 4.16,0.35 8.14,0.43 0.11,-11.61 -3.86,-6.67 -7.66,-12.27 2.24,-3.6 1.51,-1.68 4.89,-3.51 -1.96,-2.31 -4.87,-4.23 -6.6,-7.5 -1.62,-3.08 -2.88,-6.96 -4.35,-10.21 -3.91,-8.65 -1.11,-6.46 2.18,-14.57 1.6,-3.96 0.22,-3.39 3.35,-4.24 1.72,1.05 1.1,0.25 1.23,2.24 0.28,3.43 -1.87,8.98 -1.76,11.79 0.18,5.58 6.08,3.11 5.12,13.03 11.2,-0.03 5.32,12.5 17.03,12.98 -0.3,6.01 -2.46,9.51 -2.5,16.98 3.09,-1.28 4.37,-4.38 5.61,-7.77 4.04,-10.92 3.49,-24.52 2.66,-35.99 -1.71,-0.5 -3.69,-1.12 -5.11,-2.08 -1.69,-1.1 -1.1,-0.98 -2.27,-1.9l-2.51 -1.05c-3.33,-2.05 -3.38,-6.44 -3.55,-10.28l-265.42 0 -12.73 0z"/>
     <path class="fil0" d="M1107.07 284.02c1.08,2.4 0.66,5.41 0.69,8.65 2.67,-1.55 5.09,-7.42 7.08,-11.25l-19.31 0c4.17,0.96 6.09,1.5 11.55,2.6z"/>
     <path class="fil0" d="M1094.4 280.53l1.12 0c-0.36,-0.16 -0.74,-0.33 -1.14,-0.52 0.01,0.18 0.01,0.35 0.02,0.52z"/>
     <path class="fil0" d="M813.83 183.76c-6.3,2.86 -9.42,8.49 -12.32,14.38 -1.56,3.15 -0.98,3.8 -4.02,4.3 -3.44,-6.14 12.08,-29.5 12.77,-40.51 4.8,2.55 3.84,1.45 9.51,-1.07 -0.16,1.34 -0.73,2.46 -0.8,3.33 -0.11,2.09 -0.51,1.05 0.66,2.36l10.68 -8.38c2.43,-1.88 3.81,-3.31 4.92,-3.31l-99.8 0c-0.13,0 -0.19,0.04 -0.19,0.84l-5.07 0.03c-0.09,0.22 -0.18,0.24 -0.25,0.44 -0.05,0.18 -0.16,0.32 -0.23,0.57 -0.09,0.4 -0.17,0.65 -0.24,0.92 -0.02,0.15 -0.04,0.23 -0.06,0.41 -0.11,0.79 -0.04,2.02 -0.04,2.93l-4.07 1.17c-0.04,-4.61 -0.33,-7.32 1.76,-7.32l-242.76 0 0 63.29 322.39 0c2.43,-9.59 6.18,-23 7.17,-34.38z"/>
     <path class="fil0" d="M829.51 214.86c-0.01,0.79 0.26,3.28 0.39,3.28l85.37 0c-0.38,0 -0.74,-2.59 -1.05,-3.16 -1.71,-3.14 -3.04,-6.25 -4.62,-9.09 -0.87,-1.55 -1.34,-2.65 -2.1,-4.5l-1.99 -4.55c-14.4,2.31 -18.01,23.01 -21.25,12.29 -1.67,-5.56 15.13,-19.98 7.13,-32.11 -4.11,-6.24 -4.5,-2.34 -2.72,-11.66 -6.37,-1.45 -15.38,-4.39 -21.85,-6.5 -2.01,-0.66 -13.6,-7.42 -16.25,5.17 1.92,1.39 0.72,0.95 2.17,2.73 -2.02,2.1 -2.15,2.72 -7.9,4.36l0 11.96c-3.83,0 -0.81,-2.24 -3.99,-7.28 -5.57,2.56 -0.79,6.86 -8.73,8.47 -0.82,9.03 -2.48,21.92 -2.61,30.56z"/>
     <path class="fil0" d="M1184.35 169.52c-3.42,2.1 -6.19,3.85 -11.4,4.47 -3.24,-6.37 -15.12,-13.39 -11.72,-19.14l-125.76 0c-0.19,0 -0.37,-0.25 -0.6,0.31 3.4,2.97 2.75,1.71 8.41,1.65l2.95 16.05c-2.39,1.99 -9.58,4.22 -13.44,7.03 -12.96,9.46 -4.59,4.57 -12.66,6.62 -5.37,1.38 -10.49,3.26 -16.18,4.7 -4.55,1.17 -11.52,2.47 -15.33,4.76 1.85,5.01 6.17,9.98 8.52,16.27 -1.62,1.32 -3.46,0.14 -5.39,5.89l133.27 0c1.86,-5.76 3.82,-4.31 6.03,-5.93 6.18,-4.52 11.17,-8.45 18.05,-12.36 16.48,-9.33 7.22,-4.95 13.78,-16.98 2.08,1.46 2.65,2.18 5.68,3.16l5.08 -5.63c8.93,-8.95 14.83,-6.79 17.23,-16.64 -3.89,-1.46 -6.88,-4.68 -11.11,-5.05 0.64,4.79 3.4,3.23 4.59,10.82z"/>
     <path class="fil0" d="M1199.79 45.3c-5.14,-4.58 -4.68,-8.25 -14.2,-9.69 -0.39,-3.29 -1.41,-6.39 -2.64,-12.14l-46.23 0c-2.83,23.02 -3.28,35.77 -3.46,53.89 -7.3,2.21 -10.02,4.61 -10.26,8.44l58.77 0c-0.16,0 -3.09,-1.2 0.27,-5.1 6.76,2.72 -1.01,5.08 7.26,5.08 0.14,-0.15 0.32,-0.21 0.37,-0.1l2.22 -6.02 5.37 -0.47c0.55,-7.33 7.62,-10.02 11.36,-14.84 1.45,-1.87 3.51,-3.92 3.51,-5.69l0 -3.27c-4.79,-2.3 -7.92,-6.17 -12.33,-10.09z"/>
     <path class="fil0" d="M23.72 180.18l5.84 -4.24 -4.02 0c-0.65,1.92 -1.25,2.88 -1.82,4.24z"/>
     <path class="fil0" d="M18.23 195.47c-0.54,1.84 -0.96,3.5 -1.29,5.02l3.81 2.78 -2.52 -7.81z"/>
     <path class="fil0" d="M10.91 247.15c-1.08,0.79 -3.34,1.32 -4.45,2.51 -2.19,2.32 -3.59,2.92 -6.46,4.75l0 11.73c0,0.7 2.41,1.54 2.92,2.37l2.98 -1.69 14.57 10.33 -5.28 -16.36 14.37 -10.05 -17.59 0 -1.06 -3.59z"/>
     <path class="fil0" d="M29.56 320.74l-16.2 0c0.09,0 0.14,2.7 0.23,2.87 5.1,10.16 -6.37,7.68 3.62,20.14l0.71 0 -0.03 -0.35c0.16,0.18 0.32,0.24 0.47,0.42l-0.43 -1.16 -0.02 0.12 -0.25 0 -2.34 -9.4 14.23 -12.66z"/>
     <path class="fil0" d="M72.25 91.86l-1.64 -5.05 -3.78 -11.73 14.21 -10.38 -15.78 0c1.05,9.59 1.74,7.72 -2.32,12.32l3.15 7.64c-2.47,2.38 -2.27,0.59 -3.63,1.02l2.83 1.06 6.96 5.12z"/>
     <path class="fil0" d="M48.87 155.06l-5.11 14.46 14.23 -10.94 14.25 11.25 -5.09 -14.77 -0.33 -4.07 14.21 -13.41 -17.57 0 -5.47 -16.69 -5.42 16.69 -8.42 0c-0.11,7.67 -0.23,3.27 -0.37,4.15 -0.11,0.71 -0.66,2.68 -1.4,3.94l6.83 6.67 -0.34 2.71z"/>
     <polygon class="fil0" points="43.77,242.41 58,231.98 72.25,242.25 66.83,226.64 80.01,218.14 63.46,218.14 58,201.4 52.58,218.14 36.01,218.14 49.21,226.61 "/>
     <polygon class="fil0" points="43.77,316.71 58,306.07 72.25,316.24 66.83,300.95 81.03,291.97 63.46,291.97 60.23,280.75 58,273.82 55.79,280.8 52.58,291.97 34.98,291.97 49.21,300.87 "/>
     <path class="fil0" d="M109.02 37.98c0.27,2.49 0.42,4.99 0.53,7.5l0.59 -0.43 14.23 10.38 -5.45 -16.73 11.1 -7.62c-2.44,-0.78 -4.84,-1.86 -7.12,-1.86l-7.32 0 -0.74 -5.75 -9.38 0 -0.29 2.2c0.6,0.64 1.39,2.14 2.11,3.72 0.98,2.19 1.47,6 1.74,8.6z"/>
     <polygon class="fil0" points="95.89,129.34 110.15,118.98 124.38,129.35 118.93,112.5 133.18,102.1 115.59,102.1 111.38,86.75 110.15,83 108.92,86.74 104.72,102.1 87.11,102.1 101.36,112.5 "/>
     <polygon class="fil0" points="95.89,203.28 110.15,192.9 124.38,203.28 118.93,186.38 133.18,175.94 115.59,175.94 110.15,159.22 104.72,175.94 87.11,175.94 101.36,186.38 "/>
     <polygon class="fil0" points="95.89,277.15 110.15,266.83 124.38,277.15 118.93,260.79 133.18,250.74 115.59,250.74 110.15,234.02 104.72,250.74 87.11,250.74 101.36,260.79 "/>
     <polygon class="fil0" points="98.75,343.76 98.73,343.76 95.89,352.44 107.89,343.76 107.95,343.76 110.15,342.16 112.34,343.76 112.4,343.76 124.38,352.44 121.55,343.76 121.53,343.76 118.93,333.42 133.18,320.74 115.59,320.74 110.15,304.01 104.72,320.74 87.11,320.74 101.36,333.42 "/>
     <polygon class="fil0" points="149.02,86.81 147.39,91.86 154.35,86.81 161.64,81.54 168.91,86.81 175.85,91.86 174.21,86.81 170.43,75.08 184.66,64.7 167.06,64.7 161.64,47.97 156.17,64.7 138.61,64.7 152.81,75.08 "/>
     <polygon class="fil0" points="152.48,155.06 147.39,169.51 161.64,158.57 175.85,169.82 170.76,155.06 170.43,150.99 184.66,137.58 167.06,137.58 161.64,120.9 156.17,137.58 138.61,137.58 152.81,150.99 "/>
     <polygon class="fil0" points="167.06,218.14 161.64,201.4 156.17,218.14 139.63,218.14 152.81,226.61 147.39,242.78 161.64,232.16 175.85,242.34 170.43,226.68 183.63,218.14 "/>
     <polygon class="fil0" points="147.39,316.71 161.64,306.07 175.85,316.24 170.43,300.95 184.66,291.97 167.06,291.97 163.85,280.75 161.64,273.82 159.41,280.8 156.17,291.97 138.61,291.97 152.81,300.87 "/>
     <path class="fil0" d="M200.84 51.45l-1.3 3.97 4.66 -3.39c-1.12,-0.2 -2.22,-0.41 -3.36,-0.58z"/>
     <polygon class="fil0" points="199.54,129.34 213.77,118.98 228,129.35 222.57,112.5 236.8,102.1 219.21,102.1 215,86.75 213.77,83 212.53,86.74 208.32,102.1 190.75,102.1 204.98,112.5 "/>
     <polygon class="fil0" points="199.54,203.28 213.77,192.9 228,203.28 222.57,186.38 236.8,175.94 219.21,175.94 213.77,159.22 208.32,175.94 190.75,175.94 204.98,186.38 "/>
     <polygon class="fil0" points="199.54,277.15 213.77,266.83 228,277.15 222.57,260.79 236.8,250.74 219.21,250.74 213.77,234.02 208.32,250.74 190.75,250.74 204.98,260.79 "/>
     <polygon class="fil0" points="202.38,343.76 202.37,343.76 199.54,352.44 211.51,343.76 211.57,343.76 213.77,342.16 215.96,343.76 216.02,343.76 228,352.44 225.18,343.76 225.16,343.76 222.57,333.42 236.8,320.74 219.21,320.74 213.77,304.01 208.32,320.74 190.75,320.74 204.98,333.42 "/>
     <path class="fil0" d="M252.64 86.81l-1.65 5.05 6.96 -5.05 7.29 -5.28 7.29 5.28 6.96 5.05 -1.64 -5.05 -3.8 -10.44 11.71 -8.45c-3.54,-0.58 -7.06,-3.22 -10.57,-3.22l-4.51 0 -0.28 0.44c-3.24,-0.61 -6.46,-1.94 -9.67,-2.63l-0.92 2.19 -17.61 0 14.26 10.38 -3.82 11.73z"/>
     <polygon class="fil0" points="256.12,155.06 250.99,169.51 265.24,158.57 279.49,169.82 274.38,155.06 274.05,150.99 288.27,137.58 270.68,137.58 265.24,120.9 259.82,137.58 242.2,137.58 256.46,150.99 "/>
     <polygon class="fil0" points="270.68,218.14 265.24,201.4 259.82,218.14 243.23,218.14 256.46,226.61 250.99,242.78 265.24,232.16 279.49,242.34 274.05,226.68 287.25,218.14 "/>
     <polygon class="fil0" points="250.99,316.71 265.24,306.07 279.49,316.24 274.05,300.95 288.27,291.97 270.68,291.97 267.46,280.75 265.24,273.82 263.03,280.8 259.82,291.97 242.2,291.97 256.46,300.87 "/>
     <polygon class="fil0" points="303.16,129.34 317.39,118.98 331.61,129.35 326.2,112.5 340.43,102.1 322.83,102.1 318.62,85.8 317.9,85.8 317.39,84.22 316.87,85.8 316.15,85.8 311.94,102.1 294.35,102.1 308.58,112.5 "/>
     <polygon class="fil0" points="303.16,203.28 317.39,192.9 331.61,203.28 326.2,186.38 340.43,175.94 322.83,175.94 317.39,159.22 311.94,175.94 294.35,175.94 308.58,186.38 "/>
     <polygon class="fil0" points="303.16,277.15 317.39,266.83 331.61,277.15 326.2,260.79 340.43,250.74 322.83,250.74 317.39,234.02 311.94,250.74 294.35,250.74 308.58,260.79 "/>
     <polygon class="fil0" points="305.99,343.76 305.98,343.76 303.16,352.44 315.13,343.76 315.19,343.76 317.39,342.16 319.58,343.76 319.64,343.76 331.61,352.44 328.8,343.76 328.79,343.76 326.2,333.42 340.43,320.74 322.83,320.74 317.39,304.01 311.94,320.74 294.35,320.74 308.58,333.42 "/>
     <path class="fil0" d="M368.86 81.54l7.28 5.28 6.95 5.05 -1.64 -5.05 -1.41 -3.72c-7.26,-1.2 -14.35,-1.94 -21.07,-3.33l-2.7 7.05 -1.64 5.05 6.95 -5.05 7.28 -5.28z"/>
     <polygon class="fil0" points="359.74,155.06 354.63,169.51 368.86,158.57 383.09,169.82 378,155.06 377.67,150.99 391.89,137.58 374.3,137.58 368.86,120.9 363.42,137.58 345.85,137.58 360.07,150.99 "/>
     <polygon class="fil0" points="374.3,218.14 368.86,201.4 363.42,218.14 346.87,218.14 360.07,226.61 354.63,242.78 368.86,232.16 383.09,242.34 377.67,226.68 390.87,218.14 "/>
     <polygon class="fil0" points="354.63,316.71 368.86,306.07 383.09,316.24 377.67,300.95 391.89,291.97 374.3,291.97 371.08,280.75 368.86,273.82 366.64,280.8 363.42,291.97 345.85,291.97 360.07,300.87 "/>
     <path class="fil0" d="M406.75 129.34l14.23 -10.36 14.25 10.37 -5.42 -16.85 14.21 -10.4 -17.57 0 -4.23 -13.49c-0.06,0 -1.24,-0.99 -0.92,-0.33l-1.55 -1.54 -4.2 15.37 -17.59 0 14.23 10.4 -5.45 16.84z"/>
     <polygon class="fil0" points="406.75,203.28 420.99,192.9 435.24,203.28 429.82,186.38 444.02,175.94 426.45,175.94 420.99,159.22 415.56,175.94 397.97,175.94 412.2,186.38 "/>
     <polygon class="fil0" points="406.75,277.15 420.99,266.83 435.24,277.15 429.82,260.79 444.02,250.74 426.45,250.74 420.99,234.02 415.56,250.74 397.97,250.74 412.2,260.79 "/>
     <polygon class="fil0" points="409.6,343.76 409.58,343.76 406.75,352.44 418.73,343.76 418.8,343.76 420.99,342.16 423.18,343.76 423.24,343.76 435.24,352.44 432.42,343.76 432.41,343.76 429.82,333.42 444.02,320.74 426.45,320.74 420.99,304.01 415.56,320.74 397.97,320.74 412.2,333.42 "/>
    </g>
   </g>
  </g>
 </g>
</svg>
