<?xml version="1.0" encoding="UTF-8"?>
<!DOCTYPE svg PUBLIC "-//W3C//DTD SVG 1.1//EN" "http://www.w3.org/Graphics/SVG/1.1/DTD/svg11.dtd">
<!-- Creator: CorelDRAW 2019 (64-Bit) -->
<svg xmlns="http://www.w3.org/2000/svg" xml:space="preserve" width="0.159787in" height="0.166661in" version="1.1" style="shape-rendering:geometricPrecision; text-rendering:geometricPrecision; image-rendering:optimizeQuality; fill-rule:evenodd; clip-rule:evenodd"
viewBox="0 0 159.79 166.66"
 xmlns:xlink="http://www.w3.org/1999/xlink">
 <defs>
  <style type="text/css">
   <![CDATA[
    .fil0 {fill:#6CBBE9}
   ]]>
  </style>
 </defs>
 <g id="Layer_x0020_1">
  <metadata id="CorelCorpID_0Corel-Layer"/>
  <g id="_2052487651200">
   <path class="fil0" d="M140.72 152.91l9.15 9.15c1.31,-0.67 4.83,-4.28 5.9,-5.65 -0.81,-1.38 -7.91,-8.63 -9.44,-9.34 -1.49,1.01 -4.89,4.24 -5.61,5.84z"/>
   <polygon class="fil0" points="132.14,166.67 140.29,166.67 140.29,153.19 132.14,153.19 "/>
   <g>
    <path class="fil0" d="M26.95 7.18c-8.01,0.87 -12.88,-1.11 -19.1,3.51 -3.92,2.91 -7.85,7.95 -7.85,15.29l0 77.69c0,11 8.19,19.11 19.52,19.11l42.67 0 -0.3 -27.24c-2.43,0.58 -5.63,2.22 -8.02,1.92 -5.61,-0.7 -6.92,-9.28 -0.81,-11.03 2.87,-0.82 6.01,1.09 8.83,1.73l0 -19.01c14.82,-1.16 5.52,1.14 12.86,8.68 7.03,7.22 21.67,5.33 23.67,-8.78l17.11 0 -0.01 -43.07c0,-7.42 -3.87,-12.34 -7.84,-15.29 -5.46,-4.05 -11.8,-3.42 -19.44,-3.42l0 -7.01c-2.09,-0.3 -6.17,-0.44 -8.13,0.11l0 6.89 -44.89 0 -0.12 -7.01 -8.19 -0.15 0.04 7.07zm0.29 61.87l-19.11 0c0,7.51 0,15.03 0,22.54 0,7.07 -1.09,15.83 3.07,19.99 3.99,4 12.66,3.07 19.59,3.07 7.65,0 15.3,0 22.95,0l0 -9c-7.27,-0.94 -12.78,-5.85 -12.88,-13.66 -0.07,-5.54 3.15,-10.36 7.59,-12.52 1.84,-0.9 3.42,-0.89 5.17,-1.57l0.13 -8.85 -19.15 -0.02c0.7,-1.93 2.22,-5.94 1.91,-8 -0.98,-6.43 -9.98,-6.09 -11.13,-0.22 -0.49,2.49 1.23,5.84 1.87,8.25zm-18.99 -39.95l99.02 0c0.66,-5.5 -1.26,-9.71 -4.29,-11.71 -4.21,-2.78 -9.22,-2 -14.75,-2l-0.04 7.11 -8 0.03 -0.11 -7.14 -44.98 0 -0.06 7.11 -8 0.03 -0.1 -7.14c-5.48,0 -10.24,-0.76 -14.43,2 -3.04,2.01 -4.95,6.2 -4.28,11.71zm-0.13 30.29l0.09 1.52 8.88 -0c1.67,-7.25 5.24,-12.78 13.69,-12.78 7.72,0 13,5.41 13.93,12.65l36.21 0.15c-0.66,2.13 -2.25,5.93 -1.91,8.11 0.43,2.72 2.65,4.75 5.7,4.73 2.6,-0.02 5,-2.14 5.43,-4.5 0.47,-2.61 -1.26,-5.8 -1.87,-8.36l19 0 0.12 -23.65 -99.27 0 0 22.14z"/>
    <path class="fil0" d="M80.52 104.69c-4.78,1.61 -5.75,1.27 -8.87,4.41 -6.65,6.67 -5.78,20.72 8.78,23.44l0.09 17.03 43.67 0c10.6,0 18.21,-8.96 18.21,-19.73l0 -42.06 -17.28 0c-0.56,6.96 -5.93,12.7 -13.41,12.86 -4.09,0.09 -7.58,-1.63 -9.66,-3.83 -3.24,-3.43 -2.84,-3.61 -4.44,-8.84l-17.1 -0.21 0 16.92z"/>
    <path class="fil0" d="M146.37 146.23l13.39 -0.02 0.03 -8.01 -13.31 -0.1c-0.55,1.96 -0.41,6.04 -0.11,8.13z"/>
   </g>
  </g>
 </g>
</svg>
