<?xml version="1.0" encoding="UTF-8"?>
<!DOCTYPE svg PUBLIC "-//W3C//DTD SVG 1.1//EN" "http://www.w3.org/Graphics/SVG/1.1/DTD/svg11.dtd">
<!-- Creator: CorelDRAW 2019 (64-Bit) -->
<svg xmlns="http://www.w3.org/2000/svg" xml:space="preserve" width="0.1375in" height="0.166665in" version="1.1" style="shape-rendering:geometricPrecision; text-rendering:geometricPrecision; image-rendering:optimizeQuality; fill-rule:evenodd; clip-rule:evenodd"
viewBox="0 0 137.5 166.66"
 xmlns:xlink="http://www.w3.org/1999/xlink">
 <defs>
  <style type="text/css">
   <![CDATA[
    .fil0 {fill:#6CBBE9}
   ]]>
  </style>
 </defs>
 <g id="Layer_x0020_1">
  <metadata id="CorelCorpID_0Corel-Layer"/>
  <g id="_2016673935648">
   <path class="fil0" d="M68.75 29.16l0.06 0c18.96,0.02 36.13,7.71 48.56,20.14 12.44,12.44 20.13,29.63 20.13,48.61 0,18.98 -7.69,36.17 -20.13,48.61 -12.44,12.44 -29.63,20.13 -48.61,20.13 -18.98,0 -36.17,-7.69 -48.61,-20.13 -12.44,-12.44 -20.14,-29.63 -20.14,-48.61 0,-18.98 7.7,-36.17 20.14,-48.61 12.43,-12.43 29.6,-20.12 48.56,-20.14l0.05 0zm34.35 -1.4l0 0c-0.88,-0.52 -1.18,-1.65 -0.67,-2.53 0.51,-0.88 1.65,-1.18 2.53,-0.67l9.29 5.42c0.88,0.52 1.18,1.65 0.67,2.53 -0.51,0.88 -1.65,1.18 -2.53,0.67l-2.99 -1.74 -3.06 5.3c-0.51,0.88 -1.63,1.19 -2.52,0.68 -0.88,-0.5 -1.19,-1.63 -0.68,-2.52l3.07 -5.31 -3.11 -1.82zm-26.5 59.74l0 0c-0.52,0.88 -1.65,1.18 -2.53,0.67 -0.88,-0.52 -1.18,-1.65 -0.67,-2.53l12.04 -20.6c0.52,-0.88 1.65,-1.18 2.53,-0.67 0.88,0.51 1.18,1.65 0.67,2.53l-12.04 20.6zm-38.76 -46.83l0 0 3 5.2c0.51,0.89 0.21,2.02 -0.67,2.53 -0.88,0.51 -2.02,0.21 -2.52,-0.67l-3 -5.2c-4.32,2.67 -8.31,5.83 -11.88,9.4 -3.57,3.57 -6.73,7.56 -9.4,11.89l5.19 3c0.88,0.51 1.19,1.64 0.68,2.52 -0.51,0.88 -1.64,1.19 -2.52,0.68l-5.2 -3c-4.7,8.69 -7.49,18.57 -7.78,29.07l5.99 0c1.02,0 1.85,0.82 1.85,1.84 0,1.02 -0.83,1.84 -1.85,1.84l-5.99 0c0.29,10.5 3.07,20.38 7.78,29.07l5.2 -3c0.88,-0.51 2.01,-0.21 2.52,0.67 0.51,0.88 0.21,2.02 -0.67,2.53l-5.2 3c2.67,4.32 5.83,8.31 9.4,11.88 3.57,3.57 7.56,6.73 11.89,9.4l3 -5.19c0.5,-0.88 1.63,-1.19 2.52,-0.68 0.88,0.51 1.19,1.64 0.68,2.52l-3 5.2c8.69,4.7 18.57,7.49 29.07,7.78l0 -5.99c0,-1.02 0.83,-1.85 1.84,-1.85 1.02,0 1.84,0.83 1.84,1.85l0 5.99c10.5,-0.29 20.38,-3.07 29.07,-7.78l-3 -5.2c-0.51,-0.88 -0.21,-2.01 0.67,-2.52 0.88,-0.51 2.02,-0.21 2.53,0.67l3 5.2c4.32,-2.67 8.31,-5.82 11.88,-9.39 3.57,-3.57 6.73,-7.56 9.4,-11.89l-5.19 -3c-0.88,-0.51 -1.19,-1.64 -0.68,-2.52 0.5,-0.88 1.63,-1.19 2.52,-0.68l5.2 3c4.7,-8.69 7.48,-18.57 7.78,-29.07l-5.99 0c-1.02,0 -1.84,-0.83 -1.84,-1.84 0,-1.02 0.83,-1.84 1.84,-1.84l5.99 -0c-0.29,-10.5 -3.07,-20.38 -7.78,-29.07l-5.2 3c-0.89,0.51 -2.02,0.21 -2.52,-0.67 -0.51,-0.88 -0.21,-2.01 0.67,-2.52l5.2 -3c-2.67,-4.32 -5.83,-8.31 -9.4,-11.88 -3.57,-3.57 -7.56,-6.73 -11.89,-9.4l-3 5.19c-0.51,0.88 -1.64,1.19 -2.52,0.68 -0.88,-0.51 -1.19,-1.64 -0.68,-2.52l3 -5.2c-8.69,-4.7 -18.57,-7.48 -29.07,-7.78l0 5.99c0,1.02 -0.83,1.85 -1.85,1.85 -1.02,0 -1.85,-0.83 -1.85,-1.85l0 -5.99c-10.5,0.3 -20.38,3.07 -29.07,7.78z"/>
   <path class="fil0" d="M68.75 88.54c5.18,0 9.37,4.2 9.37,9.37 0,5.18 -4.2,9.37 -9.37,9.37 -5.18,0 -9.37,-4.2 -9.37,-9.37 0,-5.18 4.2,-9.37 9.37,-9.37z"/>
   <polygon class="fil0" points="79.63,9.03 79.63,24.31 60.42,24.31 60.42,9.03 54.17,9.03 54.17,0 85.88,0 85.88,9.03 "/>
   <path class="fil0" d="M32.63 24.57c0.88,-0.52 2.02,-0.22 2.53,0.67 0.51,0.88 0.22,2.02 -0.67,2.53l-3.12 1.82 3.07 5.31c0.5,0.88 0.2,2.01 -0.68,2.52 -0.88,0.51 -2.01,0.2 -2.52,-0.68l-3.06 -5.3 -2.99 1.74c-0.88,0.52 -2.02,0.22 -2.53,-0.67 -0.52,-0.88 -0.22,-2.02 0.67,-2.53l9.29 -5.42z"/>
   <path class="fil0" d="M18.79 97.91c0,-27.59 22.37,-49.96 49.96,-49.96 27.59,0 49.96,22.37 49.96,49.96 0,27.59 -22.37,49.96 -49.96,49.96 -27.59,0 -49.96,-22.37 -49.96,-49.96zm108.54 -4.54l0 0c-0.57,-7.41 -2.51,-14.43 -5.57,-20.81 -2.11,0.96 -4.66,0.18 -5.85,-1.87 -1.19,-2.05 -0.59,-4.65 1.29,-6 -4.1,-5.97 -9.27,-11.14 -15.23,-15.24 -1.35,1.88 -3.94,2.48 -5.98,1.3 -2.06,-1.18 -2.85,-3.74 -1.88,-5.85 -6.38,-3.06 -13.4,-5 -20.81,-5.57 -0.22,2.31 -2.18,4.13 -4.55,4.13 -2.37,0 -4.33,-1.81 -4.55,-4.13 -7.4,0.57 -14.42,2.51 -20.8,5.57 0.96,2.11 0.18,4.66 -1.87,5.85 -2.05,1.19 -4.65,0.59 -6,-1.29 -5.97,4.1 -11.14,9.27 -15.24,15.23 1.88,1.35 2.48,3.94 1.3,5.98 -1.18,2.06 -3.73,2.85 -5.85,1.88 -3.06,6.38 -5,13.41 -5.57,20.81 2.31,0.22 4.12,2.17 4.12,4.54 0,2.37 -1.81,4.31 -4.12,4.54 0.57,7.41 2.51,14.43 5.57,20.81 2.11,-0.96 4.66,-0.18 5.85,1.87 1.19,2.05 0.59,4.65 -1.29,6 4.1,5.97 9.27,11.14 15.23,15.24 1.35,-1.88 3.94,-2.48 5.98,-1.3 2.06,1.18 2.85,3.73 1.88,5.85 6.39,3.06 13.41,5 20.81,5.57 0.23,-2.31 2.17,-4.12 4.54,-4.12 2.37,0 4.32,1.81 4.54,4.12 7.41,-0.57 14.43,-2.51 20.81,-5.57 -0.96,-2.11 -0.18,-4.66 1.87,-5.85 2.05,-1.19 4.65,-0.6 6,1.29 5.97,-4.1 11.14,-9.27 15.24,-15.24 -1.88,-1.35 -2.48,-3.93 -1.3,-5.98 1.18,-2.06 3.74,-2.85 5.85,-1.88 3.06,-6.39 5,-13.41 5.57,-20.81 -2.31,-0.23 -4.12,-2.18 -4.12,-4.54 0,-2.37 1.81,-4.32 4.12,-4.54z"/>
  </g>
 </g>
</svg>
