<?xml version="1.0" encoding="UTF-8"?>
<!DOCTYPE svg PUBLIC "-//W3C//DTD SVG 1.1//EN" "http://www.w3.org/Graphics/SVG/1.1/DTD/svg11.dtd">
<!-- Creator: CorelDRAW 2019 (64-Bit) -->
<svg xmlns="http://www.w3.org/2000/svg" xml:space="preserve" width="0.105386in" height="0.166665in" version="1.1" style="shape-rendering:geometricPrecision; text-rendering:geometricPrecision; image-rendering:optimizeQuality; fill-rule:evenodd; clip-rule:evenodd"
viewBox="0 0 105.39 166.67"
 xmlns:xlink="http://www.w3.org/1999/xlink">
 <defs>
  <style type="text/css">
   <![CDATA[
    .fil0 {fill:#6CBBE9}
   ]]>
  </style>
 </defs>
 <g id="Layer_x0020_1">
  <metadata id="CorelCorpID_0Corel-Layer"/>
  <g id="_2016600527248">
   <path class="fil0" d="M24.09 100.65c-0.38,6.74 -0.59,7.85 -0.18,14.33 0.11,1.75 0.3,3.27 2.15,3.4 2.01,0.14 2.48,-1.4 2.37,-3.17 -0.94,-15.49 1.95,-28.62 7.67,-42.1 7.7,-18.15 16.82,-33.03 31.23,-45.7 2.04,-1.79 3.87,-3.26 5.95,-5.03 4.17,-3.56 21.71,-15.21 27.23,-16.77 1.47,11.22 -0.96,30.36 -3.78,41.49 -3.15,12.47 -7.77,22.43 -13.83,31.91 -6.2,9.69 -12.76,18.38 -20.18,25.58 -3.7,3.59 -7.57,6.72 -12.68,10.34 -1.89,1.34 -4.87,3.07 -7.2,4.28 -3.84,2 -6.9,2.45 -6.19,5.06 0.91,3.34 5.89,0.14 7.67,-0.78 2.81,-1.45 4.88,-2.7 7.27,-4.23 1.77,-1.13 1.53,-1.54 3.48,-0.38l14.41 8.6c3.37,2.06 3.91,-0.5 5.92,-3.84l6.48 -10.9c1.34,-2.25 0.48,-7.62 0.41,-10.58 -0.09,-3.67 -0.2,-7.28 -0.32,-10.99 -0.11,-3.74 0.44,-3.17 3.58,-8 15.55,-23.89 21.72,-51.88 19.33,-80.18 -0.45,-5.3 -4.51,-2.51 -9.56,-0.01 -3.58,1.78 -6.89,3.65 -10.22,5.63 -2.99,1.78 -6.57,4.2 -9.36,6.23 -7.65,5.54 -10.59,8.2 -16.98,14.46 -13.14,12.84 -21.9,31.7 -22.5,32.2 -1.39,1.14 -19.6,9.47 -20.63,10.81 -0.89,1.16 -2.15,3.54 -2.97,4.96 -1.81,3.14 -4.15,6.73 -5.92,9.91 -1.74,3.13 2.59,4.47 7.46,7.39 2.29,1.37 8.4,4.63 9.89,6.06zm33.59 14.69l12.83 7.54c0.86,-0.93 5.66,-9.33 6.77,-11.15 1.27,-2.08 0.63,-4.52 0.56,-8.26 -0.06,-2.88 -0.06,-5.72 -0.25,-8.61 -0.54,0.18 -3.98,4.59 -4.52,5.25 -3.01,3.72 -6.59,7.01 -9.95,10.24l-4.11 3.55c-0.92,0.71 -0.96,0.44 -1.33,1.44zm-45.99 -27.41l13.08 7.75c0.99,-5.09 2.04,-9.74 3.58,-14.47l4.82 -12.96 -10.16 5.1c-5.28,2.79 -3.06,0.72 -7.47,7.88 -0.78,1.26 -3.31,5.19 -3.85,6.71z"/>
   <path class="fil0" d="M76.39 29.23c-6.93,1.26 -12.48,7.23 -11.3,15.31 0.98,6.7 7.35,12.74 15.66,11.36 6.53,-1.08 12.34,-7.46 11.1,-15.45 -1.04,-6.71 -7.59,-12.65 -15.46,-11.22zm0.43 4.5c-12.65,3.31 -7.36,20.09 3.54,17.68 12.03,-2.67 7.26,-20.5 -3.54,-17.68z"/>
   <path class="fil0" d="M56.65 75.75c-1.49,0.61 -7.56,11.83 -8.45,13.31 -1.89,3.16 -22,36.32 -22.11,37.7 -0.14,1.82 1.58,2.84 3.17,2.2 1.13,-0.46 7.31,-11.58 8.41,-13.37 2.77,-4.57 5.37,-9.06 8.11,-13.62 1.36,-2.27 2.59,-4.42 3.99,-6.74l5.05 -8.5c0.22,-0.66 -0.01,-0.39 0.33,-0.94 0.19,-0.31 0.3,-0.2 0.72,-0.82 0.81,-1.17 3.83,-5.91 3.87,-7.06 0.07,-1.73 -1.47,-2.8 -3.09,-2.14z"/>
   <path class="fil0" d="M22.13 133.76c-1.28,0.57 -4.44,6.58 -5.4,8.2l-12.69 21.31c-0.91,2.02 0.78,4.09 2.93,3.18 1.1,-0.47 4.62,-7.06 5.35,-8.22l12.67 -21.32c0.93,-2.05 -0.78,-4.07 -2.86,-3.15z"/>
   <path class="fil0" d="M35.47 133.33c-1,0.6 -7.9,12.75 -9.19,14.85 -0.54,0.89 -6.53,10.73 -6.66,11.54 -0.32,2.05 1.6,3.39 3.4,2.31 0.87,-0.52 8.04,-13.09 9.14,-14.9 0.71,-1.16 6.49,-10.59 6.65,-11.52 0.35,-2.04 -1.56,-3.36 -3.34,-2.28z"/>
   <path class="fil0" d="M16.26 121.47c-1.41,0.56 -8.2,12.83 -9.46,14.89l-6.7 11.44c-0.48,1.78 0.99,3.35 2.83,2.83 1.35,-0.39 8.26,-12.74 9.47,-14.82 1.67,-2.87 2.96,-4.95 4.49,-7.53 0.42,-0.71 2.07,-3.29 2.26,-3.94 0.61,-2.05 -1.04,-3.6 -2.89,-2.87z"/>
  </g>
 </g>
</svg>
