<?xml version="1.0" encoding="UTF-8"?>
<!DOCTYPE svg PUBLIC "-//W3C//DTD SVG 1.1//EN" "http://www.w3.org/Graphics/SVG/1.1/DTD/svg11.dtd">
<!-- Creator: CorelDRAW 2019 (64-Bit) -->
<svg xmlns="http://www.w3.org/2000/svg" xml:space="preserve" width="1.66668in" height="1.25448in" version="1.1" style="shape-rendering:geometricPrecision; text-rendering:geometricPrecision; image-rendering:optimizeQuality; fill-rule:evenodd; clip-rule:evenodd"
viewBox="0 0 1666.69 1254.48"
 xmlns:xlink="http://www.w3.org/1999/xlink">
 <defs>
  <style type="text/css">
   <![CDATA[
    .fil12 {fill:black;fill-rule:nonzero}
    .fil2 {fill:#004770;fill-rule:nonzero}
    .fil3 {fill:#005485;fill-rule:nonzero}
    .fil5 {fill:#263138;fill-rule:nonzero}
    .fil0 {fill:#3C95C9;fill-rule:nonzero}
    .fil7 {fill:#445964;fill-rule:nonzero}
    .fil1 {fill:#6CBBE9;fill-rule:nonzero}
    .fil11 {fill:#AE7460;fill-rule:nonzero}
    .fil6 {fill:#DFDFDF;fill-rule:nonzero}
    .fil10 {fill:#FF9A6C;fill-rule:nonzero}
    .fil9 {fill:#FFBF9C;fill-rule:nonzero}
    .fil4 {fill:white;fill-rule:nonzero}
    .fil8 {fill:white;fill-rule:nonzero;fill-opacity:0.600000}
   ]]>
  </style>
 </defs>
 <g id="Layer_x0020_1">
  <metadata id="CorelCorpID_0Corel-Layer"/>
  <g id="_2016558824352">
   <g>
    <g>
     <g>
      <g>
       <g>
        <g>
         <path class="fil0" d="M230.05 1068.18c0.15,-26.21 17.3,-42.96 17.3,-42.96 5.23,21.56 -17.3,42.96 -17.3,42.96z"/>
        </g>
       </g>
      </g>
      <g>
       <g>
        <g>
         <path class="fil0" d="M255.16 1056.02c24.09,-10.31 46.3,-1.28 46.3,-1.28 -17.68,13.39 -46.3,1.28 -46.3,1.28z"/>
        </g>
       </g>
      </g>
      <g>
       <g>
        <g>
         <path class="fil0" d="M258.02 1042.05c-4.19,-20.26 6.3,-35.98 6.3,-35.98 7.58,15.79 -6.3,35.98 -6.3,35.98z"/>
        </g>
       </g>
      </g>
      <g>
       <g>
        <g>
         <path class="fil0" d="M160.93 991.66c36.7,9.77 56.39,41.68 56.39,41.68 -31.37,0.02 -56.39,-41.68 -56.39,-41.68z"/>
        </g>
       </g>
      </g>
      <g>
       <g>
        <g>
         <path class="fil0" d="M219.55 1006.7c-1.91,-39.56 36.76,-84.34 36.76,-84.34 -5.84,49.12 -36.76,84.34 -36.76,84.34z"/>
        </g>
       </g>
      </g>
      <g>
       <g>
        <g>
         <path class="fil0" d="M219.35 894.03c1.64,32.09 -13.9,56.67 -13.9,56.67 -5.46,-25.44 13.9,-56.67 13.9,-56.67z"/>
        </g>
       </g>
      </g>
      <g>
       <g>
        <g>
         <path class="fil0" d="M204.45 974.4c-28.93,-3.1 -44.66,-31.88 -44.66,-31.88 34.98,9.8 44.66,31.88 44.66,31.88z"/>
        </g>
       </g>
      </g>
      <g>
       <g>
        <g>
         <path class="fil0" d="M142.06 1095.36c22.1,-14.08 45.48,-8.76 45.48,-8.76 -15.28,16.08 -45.48,8.76 -45.48,8.76z"/>
        </g>
       </g>
      </g>
      <g>
       <g>
        <g>
         <path class="fil0" d="M217.01 1108.34c-5.48,15.12 -19.44,21.89 -19.44,21.89 1.24,-13.35 19.44,-21.89 19.44,-21.89z"/>
        </g>
       </g>
      </g>
      <g>
       <g>
        <g>
         <path class="fil0" d="M213.29 1104.08c-16.45,10.13 -34.59,6.17 -34.59,6.17 11.13,-11.6 34.59,-6.17 34.59,-6.17z"/>
        </g>
       </g>
      </g>
      <g>
       <g>
        <g>
         <g>
          <path class="fil0" d="M228.08 1157.34c-0.02,0 -0.04,-0.2 -0.06,-0.59 -0.01,-0.46 -0.02,-1.03 -0.04,-1.72 -0,-1.63 -0.01,-3.84 -0.01,-6.63 0.02,-2.88 0.03,-6.4 -0.06,-10.48 -0.06,-4.09 -0.07,-8.74 -0.29,-13.88 -0.25,-10.29 -0.98,-22.52 -2.03,-36.07 -1.18,-13.55 -2.82,-28.41 -5.08,-43.94 -4.57,-31.07 -10.82,-58.84 -15.84,-78.79 -2.53,-9.98 -4.67,-18.03 -6.22,-23.57 -0.72,-2.7 -1.3,-4.83 -1.72,-6.4 -0.17,-0.67 -0.31,-1.22 -0.42,-1.67 -0.09,-0.38 -0.12,-0.58 -0.1,-0.58 0.02,-0.01 0.1,0.18 0.23,0.54 0.15,0.44 0.32,0.98 0.54,1.64 0.48,1.56 1.14,3.67 1.96,6.33 1.7,5.5 3.98,13.52 6.62,23.48 5.25,19.91 11.65,47.7 16.23,78.83 2.27,15.56 3.88,30.46 4.99,44.03 0.99,13.59 1.63,25.85 1.76,36.15 0.16,5.15 0.11,9.81 0.1,13.9 0.02,4.09 -0.06,7.62 -0.16,10.5 -0.1,2.79 -0.17,5 -0.23,6.63 -0.04,0.69 -0.07,1.26 -0.09,1.72 -0.03,0.39 -0.06,0.59 -0.07,0.59z"/>
         </g>
        </g>
       </g>
      </g>
      <g>
       <g>
        <g>
         <g>
          <path class="fil0" d="M174.99 1073.6c0.2,-0.3 11.89,7.37 26.11,17.11 14.22,9.75 25.58,17.89 25.38,18.18 -0.2,0.3 -11.89,-7.36 -26.11,-17.11 -14.22,-9.74 -25.58,-17.89 -25.38,-18.18z"/>
         </g>
        </g>
       </g>
      </g>
      <g>
       <g>
        <g>
         <g>
          <path class="fil0" d="M226.48 1077.81c-0.06,-0.07 0.59,-0.76 1.8,-1.96 1.43,-1.38 3.17,-3.06 5.2,-5.01 4.69,-4.39 10.71,-10.05 17.38,-16.31 6.67,-6.26 12.7,-11.91 17.39,-16.3 2.06,-1.93 3.81,-3.58 5.27,-4.94 1.26,-1.16 1.98,-1.77 2.04,-1.7 0.06,0.06 -0.54,0.79 -1.69,2.06 -1.14,1.28 -2.85,3.06 -4.98,5.24 -4.28,4.36 -10.33,10.24 -17.14,16.59 -6.81,6.36 -13.07,12.01 -17.65,16.04 -2.29,2.01 -4.17,3.62 -5.48,4.71 -1.32,1.09 -2.07,1.66 -2.14,1.59z"/>
         </g>
        </g>
       </g>
      </g>
      <g>
       <g>
        <g>
         <path class="fil0" d="M137.86 1054.85c0,0 29.89,-0.57 42.54,22.96 0,0 -25.5,0.84 -42.54,-22.96z"/>
        </g>
       </g>
      </g>
      <g>
       <g>
        <g>
         <path class="fil0" d="M178.68 1042.85c0,0 24.34,17.36 20.47,43.79 0,0 -20.98,-14.53 -20.47,-43.79z"/>
        </g>
       </g>
      </g>
      <g>
       <g>
        <g>
         <path class="fil0" d="M306.88 1000.07c0,0 -9.6,33.46 -40.12,39.47 0,0 7.8,-28.67 40.12,-39.47z"/>
        </g>
       </g>
      </g>
      <g>
       <g>
        <g>
         <path class="fil0" d="M165.41 875.68c0,0 38.13,24.88 33.91,65.34 0,0 -32.83,-20.78 -33.91,-65.34z"/>
        </g>
       </g>
      </g>
     </g>
     <g>
      <g>
       <g>
        <g>
         <path class="fil0" d="M292.34 1096.95c0.05,0.07 -0.84,0.78 -2.48,1.99 -1.65,1.19 -4,2.97 -6.84,5.23 -5.7,4.51 -13.24,11.17 -20.65,19.4 -7.4,8.26 -13.21,16.47 -17.08,22.61 -1.94,3.07 -3.46,5.6 -4.47,7.36 -1.02,1.76 -1.63,2.72 -1.71,2.68 -0.08,-0.04 0.37,-1.07 1.26,-2.91 0.87,-1.85 2.28,-4.45 4.13,-7.6 3.69,-6.31 9.44,-14.68 16.9,-23 7.48,-8.31 15.19,-14.92 21.06,-19.26 2.93,-2.18 5.37,-3.85 7.11,-4.92 1.73,-1.08 2.71,-1.65 2.76,-1.57z"/>
        </g>
       </g>
      </g>
     </g>
     <g>
      <g>
       <g>
        <path class="fil0" d="M259.15 1121.79c-4.87,-25.75 8.76,-45.47 8.76,-45.47 4.1,28.35 -8.76,45.47 -8.76,45.47z"/>
       </g>
      </g>
     </g>
     <g>
      <g>
       <g>
        <path class="fil0" d="M284.81 1107.81c16.44,-9.65 33.29,-5.16 33.29,-5.16 -18.41,9.77 -33.29,5.16 -33.29,5.16z"/>
       </g>
      </g>
     </g>
    </g>
    <g>
     <g>
      <g>
       <g>
        <g>
         <polygon class="fil0" points="172.48,1160.45 186.78,1254.48 269.91,1254.48 289.21,1161.81 "/>
        </g>
       </g>
      </g>
     </g>
     <g>
      <g>
       <g>
        <g>
         <g>
          <g>
           <path class="fil1" d="M277.58 1220.71c0,0.27 -21.3,0.49 -47.57,0.49 -26.28,0 -47.57,-0.22 -47.57,-0.49 0,-0.27 21.3,-0.49 47.57,-0.49 26.27,0 47.57,0.22 47.57,0.49z"/>
          </g>
         </g>
        </g>
       </g>
      </g>
      <g>
       <g>
        <g>
         <g>
          <g>
           <path class="fil1" d="M277.91 1216.09c0,0.27 -21.44,0.48 -47.89,0.48 -26.46,0 -47.9,-0.22 -47.9,-0.48 0,-0.27 21.44,-0.49 47.9,-0.49 26.45,0 47.89,0.22 47.89,0.49z"/>
          </g>
         </g>
        </g>
       </g>
      </g>
      <g>
       <g>
        <g>
         <g>
          <g>
           <path class="fil1" d="M277.74 1210.87c0,0.27 -21.44,0.49 -47.89,0.49 -26.46,0 -47.9,-0.22 -47.9,-0.49 0,-0.27 21.44,-0.49 47.9,-0.49 26.45,0 47.89,0.22 47.89,0.49z"/>
          </g>
         </g>
        </g>
       </g>
      </g>
      <g>
       <g>
        <g>
         <g>
          <g>
           <path class="fil1" d="M196.34 1249.11c-0.27,0.05 -1.41,-5.25 -2.55,-11.84 -1.15,-6.59 -1.85,-11.96 -1.59,-12 0.27,-0.05 1.41,5.25 2.55,11.84 1.14,6.58 1.85,11.96 1.59,12z"/>
          </g>
         </g>
        </g>
       </g>
      </g>
      <g>
       <g>
        <g>
         <g>
          <g>
           <path class="fil1" d="M201.99 1248.12c-0.28,0 -0.59,-5.18 -1.03,-11.56 -0.43,-6.38 -0.81,-11.55 -0.54,-11.58 0.26,-0.03 1.09,5.11 1.52,11.52 0.44,6.4 0.32,11.61 0.06,11.62z"/>
          </g>
         </g>
        </g>
       </g>
      </g>
      <g>
       <g>
        <g>
         <g>
          <g>
           <path class="fil1" d="M212.3 1248.11c-0.26,0.05 -1.39,-5.23 -2.17,-11.84 -0.78,-6.61 -0.89,-12.01 -0.63,-12.02 0.28,-0.02 0.83,5.33 1.6,11.91 0.77,6.58 1.47,11.91 1.2,11.96z"/>
          </g>
         </g>
        </g>
       </g>
      </g>
      <g>
       <g>
        <g>
         <g>
          <g>
           <path class="fil1" d="M219.53 1248.61c-0.26,0.02 -0.94,-5.36 -1.15,-12.04 -0.22,-6.68 0.11,-12.09 0.37,-12.09 0.28,0.01 0.39,5.41 0.61,12.06 0.21,6.65 0.45,12.04 0.18,12.07z"/>
          </g>
         </g>
        </g>
       </g>
      </g>
      <g>
       <g>
        <g>
         <g>
          <g>
           <path class="fil1" d="M232.34 1248.12c-0.27,0.01 -0.66,-5.11 -0.88,-11.42 -0.21,-6.32 -0.17,-11.45 0.1,-11.46 0.27,-0.01 0.66,5.1 0.87,11.42 0.21,6.31 0.17,11.44 -0.1,11.46z"/>
          </g>
         </g>
        </g>
       </g>
      </g>
      <g>
       <g>
        <g>
         <g>
          <g>
           <path class="fil1" d="M241.69 1248.61c-0.27,0 -0.44,-5.29 -0.39,-11.81 0.06,-6.52 0.31,-11.81 0.59,-11.81 0.27,0 0.44,5.29 0.39,11.81 -0.05,6.52 -0.31,11.81 -0.58,11.81z"/>
          </g>
         </g>
        </g>
       </g>
      </g>
      <g>
       <g>
        <g>
         <g>
          <g>
           <path class="fil1" d="M250.47 1247.35c-0.27,-0.02 0.05,-5.56 0.71,-12.35 0.66,-6.8 1.41,-12.28 1.68,-12.26 0.27,0.03 -0.05,5.56 -0.71,12.35 -0.66,6.79 -1.41,12.28 -1.68,12.25z"/>
          </g>
         </g>
        </g>
       </g>
      </g>
      <g>
       <g>
        <g>
         <g>
          <g>
           <path class="fil1" d="M261.77 1246.12c-0.26,-0.03 0.15,-4.78 1.4,-10.5 1.24,-5.73 2.84,-10.21 3.09,-10.13 0.27,0.08 -0.91,4.66 -2.14,10.34 -1.24,5.68 -2.07,10.33 -2.35,10.29z"/>
          </g>
         </g>
        </g>
       </g>
      </g>
     </g>
     <g>
      <g>
       <g>
        <g>
         <path class="fil2" d="M162.94 1141.83l0 17.59c0,3.83 3.1,6.93 6.93,6.93l120.38 0c3.82,0 6.93,-3.1 6.93,-6.93l0 -17.59 -134.23 0z"/>
        </g>
       </g>
      </g>
     </g>
     <g>
      <g>
       <g>
        <g>
         <polygon class="fil3" points="173.37,1166.35 174.37,1171.95 285.45,1179.87 288.26,1166.35 "/>
        </g>
       </g>
      </g>
     </g>
    </g>
   </g>
   <g>
    <g>
     <g>
      <polygon class="fil3" points="1206.29,407.38 974.2,407.38 974.2,23.21 1206.29,23.21 "/>
     </g>
    </g>
    <g>
     <g>
      <polygon class="fil1" points="1198.57,407.38 966.48,407.38 966.48,23.21 1198.57,23.21 "/>
     </g>
    </g>
    <g>
     <g>
      <polygon class="fil4" points="1188.68,399.59 976.36,399.59 976.36,31 1188.68,31 "/>
     </g>
    </g>
    <g>
     <g>
      <g>
       <polygon class="fil0" points="1147.35,351.7 1016.79,351.7 1016.79,78.9 1147.35,78.9 "/>
      </g>
     </g>
     <g>
      <g>
       <path class="fil1" d="M1016.79 255.16c-0.3,-25.48 22.61,-50.36 47.85,-53.92 12.03,-1.7 24.82,0.69 36.06,-3.92 20.07,-8.23 26.46,-34.89 46.65,-42.8l0.92 197.17 -131.48 0 0 -96.54z"/>
      </g>
     </g>
    </g>
   </g>
   <g>
    <g>
     <path class="fil5" d="M1666.69 1250.24c0,0.43 -368.83,0.78 -823.7,0.78 -455.03,0 -823.78,-0.35 -823.78,-0.78 0,-0.43 368.75,-0.78 823.78,-0.78 454.87,0 823.7,0.35 823.7,0.78z"/>
    </g>
   </g>
   <g>
    <g>
     <polygon class="fil0" points="1468.64,1250.24 403.46,1250.24 403.46,1034.46 1468.64,1034.46 "/>
    </g>
    <g>
     <polygon class="fil1" points="1542.58,1047.08 329.52,1047.08 329.52,1022.27 1542.58,1022.27 "/>
    </g>
    <g>
     <g>
      <path class="fil1" d="M1542.69 1046.99c0,0.43 -270.45,0.78 -604,0.78 -333.66,0 -604.06,-0.35 -604.06,-0.78 0,-0.43 270.39,-0.78 604.06,-0.78 333.54,0 604,0.35 604,0.78z"/>
     </g>
    </g>
    <g>
     <g>
      <path class="fil2" d="M1469.54 1180.52c0,0.43 -238.06,0.78 -531.65,0.78 -293.69,0 -531.7,-0.35 -531.7,-0.78 0,-0.43 238.01,-0.78 531.7,-0.78 293.59,0 531.65,0.35 531.65,0.78z"/>
     </g>
    </g>
    <g>
     <g>
      <path class="fil2" d="M1467.5 1110.09c0,0.43 -238.06,0.78 -531.65,0.78 -293.69,0 -531.7,-0.35 -531.7,-0.78 0,-0.43 238.01,-0.78 531.7,-0.78 293.59,0 531.65,0.35 531.65,0.78z"/>
     </g>
    </g>
   </g>
   <g>
    <g>
     <g>
      <polygon class="fil4" points="754.82,617.33 22.43,617.33 22.43,11.07 754.82,11.07 "/>
     </g>
     <g>
      <g>
       <path class="fil5" d="M754.82 617.33c-0,-4.22 -0.2,-240.91 -0.5,-606.25l0.5 0.5c-209.72,0.03 -461.65,0.06 -732.33,0.1l-0.06 0 0.6 -0.6c-0.02,219.47 -0.05,426.58 -0.07,606.25l-0.54 -0.54c435.98,0.32 727.7,0.53 732.39,0.54 -4.69,0 -296.41,0.22 -732.39,0.54l-0.54 0 0 -0.54c-0.02,-179.67 -0.04,-386.79 -0.07,-606.25l0 -0.61 0.61 0 0.06 0c270.68,0.04 522.6,0.07 732.33,0.1l0.5 0 0 0.51c-0.3,365.35 -0.5,602.03 -0.5,606.25z"/>
      </g>
     </g>
     <g>
      <path class="fil6" d="M674.37 395.47l-235.37 0c-4.06,0 -7.35,-3.29 -7.35,-7.35l0 -1.87c0,-4.06 3.29,-7.35 7.35,-7.35l235.37 0c4.06,0 7.35,3.29 7.35,7.35l0 1.87c0,4.06 -3.29,7.35 -7.35,7.35z"/>
     </g>
     <g>
      <path class="fil6" d="M674.37 429.71l-235.37 0c-4.06,0 -7.35,-3.29 -7.35,-7.35l0 -1.87c0,-4.06 3.29,-7.35 7.35,-7.35l235.37 0c4.06,0 7.35,3.29 7.35,7.35l0 1.87c0,4.06 -3.29,7.35 -7.35,7.35z"/>
     </g>
     <g>
      <path class="fil6" d="M562.62 461.4l-123.63 0c-4.06,0 -7.35,-3.29 -7.35,-7.35l0 -1.87c0,-4.06 3.29,-7.35 7.35,-7.35l123.63 0c4.06,0 7.35,3.29 7.35,7.35l0 1.87c0,4.06 -3.29,7.35 -7.35,7.35z"/>
     </g>
    </g>
    <g>
     <path class="fil2" d="M757.66 44.69l-737.83 0c-10.95,0 -19.82,-8.88 -19.82,-19.82l0 -5.04c0,-10.95 8.87,-19.82 19.82,-19.82l737.83 0c10.95,0 19.82,8.87 19.82,19.82l0 5.04c0,10.94 -8.87,19.82 -19.82,19.82z"/>
    </g>
    <g>
     <g>
      <g>
       <path class="fil0" d="M402.17 385.98c0,0.17 -67.93,0.31 -151.7,0.31 -83.8,0 -151.71,-0.14 -151.71,-0.31 0,-0.17 67.91,-0.31 151.71,-0.31 83.77,0 151.7,0.14 151.7,0.31z"/>
      </g>
     </g>
     <g>
      <g>
       <path class="fil0" d="M402.17 419.48c0,0.17 -67.93,0.31 -151.7,0.31 -83.8,0 -151.71,-0.14 -151.71,-0.31 0,-0.17 67.91,-0.31 151.71,-0.31 83.77,0 151.7,0.14 151.7,0.31z"/>
      </g>
     </g>
     <g>
      <g>
       <path class="fil0" d="M402.17 452.98c0,0.17 -67.93,0.31 -151.7,0.31 -83.8,0 -151.71,-0.14 -151.71,-0.31 0,-0.17 67.91,-0.31 151.71,-0.31 83.77,0 151.7,0.14 151.7,0.31z"/>
      </g>
     </g>
     <g>
      <g>
       <path class="fil0" d="M402.17 486.49c0,0.17 -67.93,0.31 -151.7,0.31 -83.8,0 -151.71,-0.14 -151.71,-0.31 0,-0.17 67.91,-0.31 151.71,-0.31 83.77,0 151.7,0.14 151.7,0.31z"/>
      </g>
     </g>
     <g>
      <g>
       <path class="fil0" d="M402.17 519.99c0,0.17 -67.93,0.31 -151.7,0.31 -83.8,0 -151.71,-0.14 -151.71,-0.31 0,-0.17 67.91,-0.31 151.71,-0.31 83.77,0 151.7,0.14 151.7,0.31z"/>
      </g>
     </g>
     <g>
      <polygon class="fil0" points="315.29,455.85 285.06,455.85 285.06,553.18 315.29,553.18 "/>
     </g>
     <g>
      <polygon class="fil0" points="372.37,423.7 342.14,423.7 342.14,553.18 372.37,553.18 "/>
     </g>
     <g>
      <polygon class="fil0" points="156.16,507.62 125.94,507.62 125.94,553.18 156.16,553.18 "/>
     </g>
     <g>
      <polygon class="fil0" points="206.17,494.03 175.95,494.03 175.95,553.18 206.17,553.18 "/>
     </g>
     <g>
      <polygon class="fil0" points="258,476.82 227.78,476.82 227.78,553.18 258,553.18 "/>
     </g>
     <g>
      <g>
       <path class="fil0" d="M404.93 553.22c0,0 -0.47,0.02 -1.39,0.03 -0.93,0 -2.3,0.01 -4.08,0.02 -3.6,0.01 -8.88,0.03 -15.69,0.05 -13.64,0.02 -33.35,0.05 -57.7,0.09 -48.73,0.02 -116.04,0.05 -190.37,0.08 -12.89,0 -25.56,-0 -37.62,-0l-0.31 0 0 -0.26c0.04,-56.39 0.08,-106.22 0.11,-141.95 0.04,-17.86 0.07,-32.19 0.09,-42.08 0.02,-4.93 0.04,-8.74 0.06,-11.34 0.01,-1.28 0.02,-2.26 0.03,-2.94 0.01,-0.66 0.03,-1 0.03,-1 0,0 0.02,0.34 0.03,1 0,0.67 0.02,1.65 0.03,2.94 0.01,2.6 0.03,6.41 0.05,11.34 0.02,9.89 0.06,24.22 0.09,42.08 0.03,35.74 0.06,85.56 0.11,141.95l-0.31 -0.27c12.06,0 24.73,0 37.62,-0 74.33,0.03 141.64,0.06 190.37,0.08 24.35,0.04 44.07,0.07 57.7,0.09 6.8,0.02 12.09,0.04 15.69,0.05 1.79,0.01 3.15,0.02 4.08,0.03 0.92,0.01 1.39,0.03 1.39,0.03z"/>
      </g>
     </g>
     <g>
      <g>
       <path class="fil0" d="M113.08 402.9c0,0.17 -3.36,0.31 -7.5,0.31 -4.15,0 -7.51,-0.14 -7.51,-0.31 0,-0.17 3.36,-0.31 7.51,-0.31 4.15,0 7.5,0.14 7.5,0.31z"/>
      </g>
     </g>
     <g>
      <g>
       <path class="fil0" d="M113.08 434.77c0,0.17 -3.36,0.31 -7.5,0.31 -4.15,0 -7.51,-0.14 -7.51,-0.31 0,-0.17 3.36,-0.31 7.51,-0.31 4.15,0 7.5,0.14 7.5,0.31z"/>
      </g>
     </g>
     <g>
      <g>
       <path class="fil0" d="M113.08 466.64c0,0.17 -3.36,0.31 -7.5,0.31 -4.15,0 -7.51,-0.14 -7.51,-0.31 0,-0.17 3.36,-0.31 7.51,-0.31 4.15,0 7.5,0.14 7.5,0.31z"/>
      </g>
     </g>
     <g>
      <g>
       <path class="fil0" d="M113.08 498.52c0,0.17 -3.36,0.31 -7.5,0.31 -4.15,0 -7.51,-0.14 -7.51,-0.31 0,-0.17 3.36,-0.31 7.51,-0.31 4.15,0 7.5,0.14 7.5,0.31z"/>
      </g>
     </g>
    </g>
    <g>
     <path class="fil1" d="M518.21 134.98l-225.04 0c-6.03,0 -10.92,-4.89 -10.92,-10.92l0 -2.78c0,-6.03 4.89,-10.92 10.92,-10.92l225.04 0c6.03,0 10.92,4.89 10.92,10.92l0 2.78c0,6.03 -4.89,10.92 -10.92,10.92z"/>
    </g>
    <g>
     <path class="fil6" d="M658.75 197.63l-553.64 0c-4.06,0 -7.35,-3.29 -7.35,-7.35l0 -1.87c0,-4.06 3.29,-7.35 7.35,-7.35l553.64 0c4.06,0 7.35,3.29 7.35,7.35l0 1.87c0,4.06 -3.29,7.35 -7.35,7.35z"/>
    </g>
    <g>
     <path class="fil6" d="M658.75 237.13l-553.64 0c-4.06,0 -7.35,-3.29 -7.35,-7.35l0 -1.87c0,-4.06 3.29,-7.35 7.35,-7.35l553.64 0c4.06,0 7.35,3.29 7.35,7.35l0 1.87c0,4.06 -3.29,7.35 -7.35,7.35z"/>
    </g>
    <g>
     <path class="fil6" d="M658.75 276.63l-553.64 0c-4.06,0 -7.35,-3.29 -7.35,-7.35l0 -1.87c0,-4.06 3.29,-7.35 7.35,-7.35l553.64 0c4.06,0 7.35,3.29 7.35,7.35l0 1.87c0,4.06 -3.29,7.35 -7.35,7.35z"/>
    </g>
    <g>
     <path class="fil6" d="M226.6 316.13l-123.62 0c-4.06,0 -7.35,-3.29 -7.35,-7.35l0 -1.87c0,-4.06 3.29,-7.35 7.35,-7.35l123.62 0c4.06,0 7.35,3.29 7.35,7.35l0 1.87c0,4.06 -3.29,7.35 -7.35,7.35z"/>
    </g>
   </g>
   <g>
    <g>
     <g>
      <g>
       <g>
        <g>
         <g>
          <g>
           <g>
            <g>
             <g>
              <g>
               <g>
                <g>
                 <path class="fil4" d="M1276.35 570.4l-6.04 -21.31c-11.41,-5.31 -21.55,-13.75 -28.98,-25.04 -21.39,-32.45 -12.41,-76.1 20.04,-97.48 32.45,-21.39 76.1,-12.41 97.48,20.04 21.39,32.45 12.41,76.1 -20.04,97.48 -13.55,8.93 -29.05,12.55 -44.07,11.39l0.04 0.01 -18.43 14.9z"/>
                </g>
               </g>
              </g>
             </g>
             <g>
              <g>
               <g>
                <g>
                 <g>
                  <path class="fil0" d="M1276.35 570.4c0,0 0.42,-0.37 1.21,-1.04 0.83,-0.69 2,-1.66 3.51,-2.92 3.11,-2.56 7.65,-6.3 13.53,-11.16l0.08 0.48c0,0 -0.02,-0.01 -0.04,-0.02 -0.15,-0.05 -0.22,-0.21 -0.17,-0.35 0.04,-0.13 0.17,-0.2 0.29,-0.19 9.06,0.63 21.2,-0.28 33.96,-6.06 6.37,-2.81 12.73,-7 18.59,-12.41 5.87,-5.4 11.18,-12.16 15.14,-20.13 3.97,-7.94 6.57,-17.07 7.19,-26.73 0.63,-9.65 -0.76,-19.82 -4.45,-29.49 -7.24,-19.35 -24.6,-36.36 -46.67,-42.22 -11.09,-3.01 -22.72,-3.37 -33.48,-0.86 -10.78,2.39 -20.69,7.29 -28.87,13.84 -8.17,6.57 -14.47,14.84 -18.75,23.61 -4.29,8.79 -6.54,18.11 -7.02,27.05 -0.93,17.99 5.15,34.04 13.48,45.18 8.31,11.31 18.42,18.04 26.53,21.87 0.07,0.03 0.13,0.1 0.15,0.17 1.87,6.87 3.31,12.17 4.31,15.8 0.48,1.78 0.85,3.15 1.11,4.13 0.25,0.93 0.36,1.44 0.36,1.44 0,0 -0.15,-0.42 -0.41,-1.31 -0.29,-0.96 -0.69,-2.29 -1.2,-4.02 -1.08,-3.66 -2.65,-8.99 -4.69,-15.9l0.15 0.17c-8.21,-3.76 -18.49,-10.47 -26.98,-21.87 -8.5,-11.21 -14.76,-27.46 -13.87,-45.73 0.44,-9.08 2.7,-18.56 7.04,-27.5 4.33,-8.93 10.72,-17.36 19.03,-24.06 8.3,-6.67 18.39,-11.68 29.37,-14.12 10.96,-2.56 22.8,-2.2 34.09,0.86 22.48,5.98 40.15,23.33 47.48,43.02 3.74,9.85 5.13,20.2 4.47,30.01 -0.65,9.82 -3.33,19.09 -7.39,27.14 -4.05,8.07 -9.48,14.92 -15.45,20.37 -5.98,5.46 -12.44,9.66 -18.91,12.47 -12.95,5.77 -25.23,6.57 -34.35,5.84l0.11 -0.54c0.01,0 0.04,0.01 0.04,0.01 0.15,0.05 0.23,0.21 0.18,0.35 -0.02,0.05 -0.06,0.1 -0.09,0.13 -6.05,4.79 -10.71,8.48 -13.91,11.02 -1.52,1.2 -2.69,2.12 -3.53,2.78 -0.78,0.61 -1.17,0.89 -1.17,0.89z"/>
                 </g>
                </g>
               </g>
              </g>
             </g>
            </g>
           </g>
          </g>
         </g>
        </g>
       </g>
      </g>
     </g>
    </g>
    <g>
     <g>
      <g>
       <g>
        <g>
         <g>
          <g>
           <g>
            <path class="fil0" d="M1280.47 470.05l10.49 0c0,0 0,-8.81 9.16,-8.97 4.75,-0.08 7.22,3.04 8.22,5.42 1.17,2.77 0.81,5.93 -0.75,8.5 -1.78,2.94 -5.68,5.6 -12.75,4.36l0 23.66 10.38 0 0 -13.86c0,0 14.55,-3.76 14.55,-19.8 0,-15.34 -13.76,-18.91 -19.65,-18.91 -4.5,0 -19.85,1.09 -19.65,19.6z"/>
           </g>
          </g>
         </g>
        </g>
       </g>
       <g>
        <g>
         <g>
          <g>
           <g>
            <polygon class="fil0" points="1305.35,517.72 1294.81,517.72 1294.81,507.89 1305.35,507.89 "/>
           </g>
          </g>
         </g>
        </g>
       </g>
      </g>
     </g>
    </g>
   </g>
   <g>
    <g>
     <g>
      <g>
       <g>
        <g>
         <g>
          <g>
           <g>
            <g>
             <g>
              <g>
               <g>
                <path class="fil4" d="M988.51 187l9.79 -16.97c-3.67,-10.52 -4.56,-22.15 -1.99,-33.83 7.4,-33.58 40.62,-54.8 74.2,-47.41 33.58,7.4 54.81,40.62 47.41,74.2 -7.4,33.58 -40.62,54.8 -74.2,47.41 -14.02,-3.09 -25.87,-10.69 -34.41,-20.93l0.02 0.04 -20.82 -2.5z"/>
               </g>
              </g>
             </g>
            </g>
            <g>
             <g>
              <g>
               <g>
                <g>
                 <path class="fil5" d="M988.51 187c0,0 0.49,0.04 1.4,0.13 0.95,0.1 2.28,0.24 4.02,0.43 3.55,0.39 8.72,0.96 15.43,1.7l-0.25 0.35c0,0 -0.01,-0.02 -0.02,-0.03 -0.06,-0.12 -0,-0.27 0.12,-0.33 0.11,-0.05 0.23,-0.02 0.3,0.07 5.19,6.13 13.25,13.28 24.79,17.8 5.72,2.31 12.29,3.76 19.34,4.15 7.04,0.39 14.61,-0.41 22.11,-2.81 7.49,-2.38 14.89,-6.36 21.39,-11.93 6.5,-5.55 12.1,-12.7 15.96,-21.01 7.81,-16.53 7.89,-38.03 -1.99,-55.65 -4.93,-8.89 -11.87,-16.49 -20.1,-21.77 -8.17,-5.37 -17.39,-8.63 -26.58,-9.78 -9.21,-1.13 -18.34,-0.03 -26.55,2.66 -8.22,2.7 -15.52,7.02 -21.48,12.24 -11.98,10.5 -18.42,24.26 -20.35,36.41 -2.05,12.25 -0.09,22.82 2.48,30.32 0.02,0.07 0.01,0.14 -0.02,0.2 -3.2,5.42 -5.67,9.61 -7.37,12.48 -0.83,1.4 -1.48,2.48 -1.94,3.25 -0.44,0.73 -0.69,1.12 -0.69,1.12 0,0 0.17,-0.35 0.57,-1.07 0.43,-0.77 1.03,-1.85 1.81,-3.24 1.66,-2.94 4.07,-7.22 7.2,-12.78l-0.02 0.2c-2.68,-7.53 -4.76,-18.19 -2.77,-30.6 1.87,-12.3 8.32,-26.3 20.46,-37 6.04,-5.32 13.44,-9.73 21.79,-12.5 8.34,-2.76 17.63,-3.9 27,-2.77 9.35,1.15 18.75,4.46 27.07,9.92 8.39,5.37 15.46,13.11 20.48,22.17 10.07,17.94 9.96,39.85 1.98,56.65 -3.94,8.45 -9.65,15.71 -16.28,21.34 -6.63,5.65 -14.16,9.66 -21.78,12.06 -7.62,2.41 -15.31,3.19 -22.45,2.76 -7.15,-0.42 -13.8,-1.93 -19.57,-4.3 -11.65,-4.66 -19.73,-11.95 -24.89,-18.19l0.41 -0.26c0.01,0.01 0.02,0.03 0.02,0.03 0.06,0.12 0.01,0.27 -0.12,0.33 -0.04,0.02 -0.09,0.02 -0.14,0.02 -6.77,-0.88 -11.98,-1.56 -15.56,-2.02 -1.7,-0.23 -3,-0.41 -3.93,-0.53 -0.87,-0.12 -1.29,-0.2 -1.29,-0.2z"/>
                </g>
               </g>
              </g>
             </g>
            </g>
           </g>
          </g>
         </g>
        </g>
       </g>
      </g>
     </g>
    </g>
    <g>
     <g>
      <g>
       <g>
        <g>
         <g>
          <g>
           <g>
            <g>
             <g>
              <path class="fil0" d="M1040.55 149.73c0.02,3.27 -2.6,5.94 -5.87,5.96 -3.27,0.03 -5.94,-2.6 -5.96,-5.87 -0.03,-3.27 2.6,-5.94 5.87,-5.96 3.27,-0.02 5.94,2.6 5.96,5.87z"/>
             </g>
            </g>
           </g>
          </g>
         </g>
        </g>
       </g>
      </g>
     </g>
     <g>
      <g>
       <g>
        <g>
         <g>
          <g>
           <g>
            <g>
             <g>
              <path class="fil0" d="M1064.23 149.55c0.02,3.27 -2.6,5.94 -5.87,5.96 -3.27,0.03 -5.94,-2.6 -5.96,-5.87 -0.03,-3.26 2.6,-5.94 5.87,-5.96 3.27,-0.03 5.94,2.6 5.96,5.87z"/>
             </g>
            </g>
           </g>
          </g>
         </g>
        </g>
       </g>
      </g>
     </g>
     <g>
      <g>
       <g>
        <g>
         <g>
          <g>
           <g>
            <g>
             <g>
              <path class="fil0" d="M1087.82 146.4c1.66,2.81 0.72,6.44 -2.1,8.1 -2.81,1.65 -6.44,0.71 -8.1,-2.1 -1.66,-2.81 -0.72,-6.44 2.1,-8.1 2.81,-1.66 6.44,-0.72 8.1,2.1z"/>
             </g>
            </g>
           </g>
          </g>
         </g>
        </g>
       </g>
      </g>
     </g>
    </g>
   </g>
   <g>
    <g>
     <g>
      <g>
       <g>
        <g>
         <g>
          <g>
           <g>
            <g>
             <g>
              <g>
               <g>
                <g>
                 <g>
                  <path class="fil5" d="M859.02 943.2l0.89 50.21c0,0 -50.74,17.76 -51.48,27.06l97.42 1.78 1.83 -78.29 -48.65 -0.76z"/>
                 </g>
                </g>
               </g>
              </g>
             </g>
            </g>
           </g>
          </g>
         </g>
        </g>
       </g>
       <g>
        <g>
         <g>
          <g>
           <g>
            <g>
             <g>
              <g>
               <g>
                <g>
                 <g>
                  <g>
                   <path class="fil6" d="M890.1 989.73c1.87,0.55 3.14,2.69 2.67,4.59 -0.47,1.9 -2.64,3.2 -4.53,2.69 -1.89,-0.52 -3.48,-3.04 -2.8,-4.87 0.68,-1.83 3.31,-3.22 5.02,-2.27l-0.36 -0.13z"/>
                  </g>
                 </g>
                </g>
               </g>
              </g>
             </g>
            </g>
           </g>
          </g>
         </g>
        </g>
       </g>
       <g>
        <g>
         <g>
          <g>
           <g>
            <g>
             <g>
              <g>
               <g>
                <g>
                 <g>
                  <path class="fil7" d="M905.84 1022.24l-0.13 -7.9 -93.35 1.25c0,0 -4.37,1.81 -3.94,4.87l97.42 1.78z"/>
                 </g>
                </g>
               </g>
              </g>
             </g>
            </g>
           </g>
          </g>
         </g>
        </g>
       </g>
       <g>
        <g>
         <g>
          <g>
           <g>
            <g>
             <g>
              <g>
               <g>
                <g>
                 <g>
                  <g>
                   <path class="fil4" d="M858.33 992.88c0.01,0.48 2.39,0.74 4.7,2.31 2.35,1.51 3.52,3.59 3.96,3.41 0.44,-0.08 -0.22,-2.94 -3.05,-4.8 -2.81,-1.88 -5.7,-1.36 -5.61,-0.93z"/>
                  </g>
                 </g>
                </g>
               </g>
              </g>
             </g>
            </g>
           </g>
          </g>
         </g>
        </g>
       </g>
       <g>
        <g>
         <g>
          <g>
           <g>
            <g>
             <g>
              <g>
               <g>
                <g>
                 <g>
                  <g>
                   <path class="fil4" d="M848.04 996.92c-0.12,0.46 1.93,1.31 3.51,3.35 1.64,2 2,4.18 2.48,4.17 0.44,0.08 0.82,-2.7 -1.19,-5.2 -1.99,-2.52 -4.78,-2.77 -4.8,-2.31z"/>
                  </g>
                 </g>
                </g>
               </g>
              </g>
             </g>
            </g>
           </g>
          </g>
         </g>
        </g>
       </g>
       <g>
        <g>
         <g>
          <g>
           <g>
            <g>
             <g>
              <g>
               <g>
                <g>
                 <g>
                  <g>
                   <path class="fil4" d="M842.01 1009.04c0.43,0.11 1.13,-2.26 -0.04,-4.88 -1.15,-2.64 -3.38,-3.7 -3.59,-3.31 -0.28,0.39 1.14,1.81 2.07,3.98 0.98,2.15 1.08,4.16 1.56,4.21z"/>
                  </g>
                 </g>
                </g>
               </g>
              </g>
             </g>
            </g>
           </g>
          </g>
         </g>
        </g>
       </g>
       <g>
        <g>
         <g>
          <g>
           <g>
            <g>
             <g>
              <g>
               <g>
                <g>
                 <g>
                  <g>
                   <path class="fil4" d="M859.4 981.42c0.19,0.44 2.39,-0.18 5.07,0.05 2.69,0.18 4.76,1.12 5.02,0.71 0.28,-0.34 -1.73,-2.13 -4.89,-2.36 -3.17,-0.25 -5.43,1.22 -5.2,1.6z"/>
                  </g>
                 </g>
                </g>
               </g>
              </g>
             </g>
            </g>
           </g>
          </g>
         </g>
        </g>
       </g>
      </g>
     </g>
     <g>
      <g>
       <g>
        <g>
         <g>
          <g>
           <g>
            <g>
             <path class="fil5" d="M977.87 940.12l5.28 60.53 -9.63 49.07c-0.7,3.54 1.75,6.92 5.33,7.37 2,0.25 3.99,-0.46 5.35,-1.95 8.68,-9.46 40.45,-44.45 39.82,-48.86 -0.74,-5.1 -1.33,-64.21 -1.33,-64.21l-44.82 -1.95z"/>
            </g>
           </g>
          </g>
         </g>
        </g>
       </g>
       <g>
        <g>
         <g>
          <g>
           <g>
            <g>
             <path class="fil7" d="M978.84 1057.1l44.91 -54.91 0.17 2.57c0.14,2.22 -0.5,4.42 -1.83,6.2 -3.56,4.77 -13.68,17.73 -37.71,44.17 -1.4,1.54 -3.48,2.28 -5.54,1.96z"/>
            </g>
           </g>
          </g>
         </g>
        </g>
       </g>
       <g>
        <g>
         <g>
          <g>
           <g>
            <g>
             <g>
              <path class="fil8" d="M1010.06 983.43c-1.45,1.15 -1.8,3.48 -0.71,4.98 1.09,1.5 3.45,1.87 4.93,0.75 1.47,-1.12 1.97,-3.91 0.73,-5.27 -1.25,-1.37 -4.05,-1.65 -5.21,-0.21l0.27 -0.24z"/>
             </g>
            </g>
           </g>
          </g>
         </g>
        </g>
       </g>
       <g>
        <g>
         <g>
          <g>
           <g>
            <g>
             <g>
              <path class="fil4" d="M991 1029.72c-0.33,0.19 -1.9,-2.9 -5.62,-4.37 -3.67,-1.59 -6.96,-0.52 -7.07,-0.89 -0.06,-0.15 0.68,-0.67 2.08,-0.96 1.39,-0.3 3.46,-0.23 5.5,0.61 2.04,0.85 3.54,2.26 4.31,3.46 0.79,1.2 0.94,2.09 0.79,2.15z"/>
             </g>
            </g>
           </g>
          </g>
         </g>
        </g>
       </g>
       <g>
        <g>
         <g>
          <g>
           <g>
            <g>
             <g>
              <path class="fil4" d="M987.21 1038.11c-0.27,0.28 -2.35,-1.56 -5.54,-2.26 -3.18,-0.77 -5.85,-0.01 -5.97,-0.39 -0.2,-0.3 2.64,-1.77 6.27,-0.92 3.64,0.81 5.54,3.38 5.24,3.56z"/>
             </g>
            </g>
           </g>
          </g>
         </g>
        </g>
       </g>
       <g>
        <g>
         <g>
          <g>
           <g>
            <g>
             <g>
              <path class="fil4" d="M998.37 1018.79c-0.26,0.31 -3.44,-2.55 -8.31,-4.07 -4.85,-1.59 -9.09,-1.12 -9.13,-1.52 -0.12,-0.32 4.33,-1.45 9.54,0.25 5.22,1.65 8.19,5.15 7.9,5.34z"/>
             </g>
            </g>
           </g>
          </g>
         </g>
        </g>
       </g>
       <g>
        <g>
         <g>
          <g>
           <g>
            <g>
             <g>
              <path class="fil4" d="M998.31 1000.26c-0.14,0.37 -3.58,-0.81 -7.95,-0.69 -4.37,0.06 -7.76,1.39 -7.91,1.02 -0.19,-0.29 3.19,-2.28 7.88,-2.36 4.7,-0.12 8.15,1.73 7.98,2.02z"/>
             </g>
            </g>
           </g>
          </g>
         </g>
        </g>
       </g>
       <g>
        <g>
         <g>
          <g>
           <g>
            <g>
             <g>
              <path class="fil4" d="M997.21 982.46c-0.17,0.36 -3.67,-1.44 -8.26,-0.94 -4.6,0.41 -7.68,2.86 -7.91,2.54 -0.11,-0.12 0.51,-0.92 1.85,-1.82 1.33,-0.9 3.45,-1.8 5.93,-2.04 2.48,-0.24 4.73,0.22 6.21,0.84 1.49,0.61 2.25,1.28 2.17,1.42z"/>
             </g>
            </g>
           </g>
          </g>
         </g>
        </g>
       </g>
       <g>
        <g>
         <g>
          <g>
           <g>
            <g>
             <g>
              <path class="fil4" d="M988.84 978.12c-0.07,0.01 -0.26,-0.8 -0.23,-2.29 0.04,-1.48 0.33,-3.67 1.44,-6.12 0.58,-1.17 1.17,-2.66 2.81,-3.57 0.81,-0.46 2.08,-0.38 2.85,0.38 0.76,0.74 1.06,1.72 1.14,2.68 0.18,3.85 -2.88,7.78 -7.18,8.61 -4.31,0.76 -8.41,-1.47 -10.35,-4.69 -0.43,-0.83 -0.76,-1.87 -0.35,-2.93 0.4,-1.06 1.6,-1.55 2.48,-1.46 1.82,0.15 3.02,1.12 4.13,1.82 2.2,1.55 3.61,3.23 4.44,4.45 0.84,1.22 1.13,2 1.07,2.04 -0.2,0.17 -1.72,-2.88 -6.03,-5.7 -1.08,-0.64 -2.33,-1.46 -3.63,-1.5 -0.64,-0.02 -1.17,0.26 -1.36,0.79 -0.2,0.5 -0.02,1.26 0.35,1.91 1.63,2.63 5.38,4.65 9.02,3.96 3.62,-0.66 6.31,-4.13 6.19,-7.23 -0.04,-0.74 -0.29,-1.48 -0.71,-1.9 -0.42,-0.41 -1.03,-0.49 -1.57,-0.23 -1.15,0.55 -1.86,1.88 -2.44,2.98 -2.27,4.62 -1.78,8.05 -2.06,8z"/>
             </g>
            </g>
           </g>
          </g>
         </g>
        </g>
       </g>
      </g>
     </g>
     <g>
      <g>
       <g>
        <path class="fil3" d="M811.67 523.92c0,0 -7.39,28.6 -4.71,63.45 1.04,13.48 46.54,386.5 46.54,386.5l61.43 0 -17.27 -350.58 5.03 1.09c0,0 33.54,149.52 36.27,173.73 2.46,21.76 30.74,179.84 30.74,179.84l56.17 0.65 -17.94 -209.1 -20.87 -200.64 -7.85 -58.4 -167.54 13.46z"/>
       </g>
      </g>
      <g>
       <g>
        <g>
         <path class="fil5" d="M907.35 587.52c0.04,0.08 -0.87,0.61 -2.56,1.44 -1.7,0.8 -4.21,2.03 -7.61,2.67 -1.7,0.31 -3.63,0.4 -5.66,0.04 -2.02,-0.36 -4.17,-1.22 -5.92,-2.84 -1.74,-1.63 -2.87,-3.91 -3.59,-6.27 -0.72,-2.39 -1.14,-4.87 -1.65,-7.39 -1.96,-10.12 -3.29,-19.36 -4.06,-26.06 -0.39,-3.35 -0.65,-6.07 -0.79,-7.96 -0.13,-1.88 -0.17,-2.93 -0.07,-2.94 0.09,-0.01 0.29,1.02 0.58,2.88 0.32,2.13 0.72,4.77 1.19,7.89 1,6.66 2.47,15.85 4.43,25.94 0.99,4.99 1.67,10.07 4.78,13.04 3.11,2.92 7.44,3.22 10.61,2.76 3.27,-0.49 5.8,-1.56 7.55,-2.22 1.75,-0.69 2.73,-1.07 2.77,-0.98z"/>
        </g>
       </g>
      </g>
      <g>
       <g>
        <g>
         <path class="fil5" d="M888.86 539.97c-0.02,-0.06 0.4,-0.32 1.26,-0.37 0.85,-0.06 2.15,0.2 3.44,1.11 1.23,0.9 2.54,2.53 2.59,4.74 0.1,2.24 -1.65,4.45 -3.93,5.28 -2.26,0.88 -5.04,0.37 -6.44,-1.39 -1.42,-1.7 -1.5,-3.79 -1.17,-5.28 0.37,-1.53 1.18,-2.58 1.86,-3.09 0.69,-0.53 1.17,-0.6 1.2,-0.55 0.17,0.17 -1.73,1.03 -2.16,3.81 -0.19,1.31 0.03,3.06 1.17,4.31 1.09,1.29 3.2,1.67 5.08,0.96 1.88,-0.7 3.21,-2.37 3.19,-4.06 0.03,-1.7 -0.95,-3.15 -1.96,-4.01 -2.15,-1.81 -4.15,-1.22 -4.13,-1.46z"/>
        </g>
       </g>
      </g>
      <g>
       <g>
        <g>
         <path class="fil5" d="M986.21 565.26c0.01,0.09 -0.74,0.2 -2.09,0.33 -1.35,0.15 -3.33,0.19 -5.76,0.07 -4.87,-0.22 -11.61,-1.4 -18.5,-4.28 -6.89,-2.92 -12.44,-6.92 -15.99,-10.24 -1.78,-1.66 -3.14,-3.1 -3.98,-4.17 -0.86,-1.06 -1.3,-1.67 -1.22,-1.72 0.17,-0.15 2.15,2.11 5.81,5.2 3.65,3.1 9.15,6.88 15.89,9.73 6.74,2.83 13.3,4.12 18.06,4.57 4.78,0.46 7.77,0.3 7.78,0.52z"/>
        </g>
       </g>
      </g>
      <g>
       <g>
        <g>
         <path class="fil5" d="M841.14 539.08c0.13,0.07 -0.91,2.56 -3.19,6.26 -2.27,3.71 -5.89,8.57 -10.65,13.22 -4.78,4.64 -9.74,8.12 -13.52,10.28 -3.77,2.17 -6.29,3.15 -6.35,3.01 -0.09,-0.19 2.27,-1.45 5.87,-3.8 3.6,-2.34 8.39,-5.87 13.09,-10.43 4.69,-4.57 8.35,-9.25 10.8,-12.79 2.44,-3.54 3.77,-5.86 3.96,-5.76z"/>
        </g>
       </g>
      </g>
     </g>
    </g>
    <g>
     <g>
      <g>
       <g>
        <g>
         <g>
          <g>
           <g>
            <g>
             <path class="fil9" d="M882.45 111.89l2.46 -0.14c24.69,-1.42 46.33,16.36 49.73,40.86 3.16,22.78 6.36,47.98 6.91,60.26 1.15,25.44 -24.05,30.85 -24.05,30.85l0.91 10.34c1.5,17.08 -11.19,32.12 -28.27,33.53 -16.87,1.39 -31.72,-11.03 -33.33,-27.88l-9.04 -94.39c-3.8,-26.27 8.33,-50.37 34.69,-53.44z"/>
            </g>
           </g>
          </g>
         </g>
         <g>
          <g>
           <g>
            <g>
             <g>
              <g>
               <g>
                <g>
                 <g>
                  <g>
                   <g>
                    <g>
                     <path class="fil10" d="M917.71 243.68c0,0 -16.18,1.91 -33.87,-7.83 0,0 8.89,17.85 34.12,14.1l-0.25 -6.26z"/>
                    </g>
                   </g>
                  </g>
                 </g>
                </g>
               </g>
              </g>
             </g>
            </g>
           </g>
          </g>
         </g>
         <g>
          <g>
           <g>
            <g>
             <g>
              <g>
               <g>
                <g>
                 <g>
                  <g>
                   <g>
                    <g>
                     <g>
                      <g>
                       <g>
                        <path class="fil5" d="M927.52 176.23c0.18,1.91 -1.3,3.64 -3.29,3.86 -1.99,0.22 -3.75,-1.14 -3.93,-3.06 -0.18,-1.91 1.3,-3.65 3.28,-3.87 2,-0.22 3.76,1.15 3.94,3.06z"/>
                       </g>
                      </g>
                     </g>
                    </g>
                   </g>
                  </g>
                 </g>
                </g>
               </g>
              </g>
             </g>
            </g>
           </g>
          </g>
         </g>
         <g>
          <g>
           <g>
            <g>
             <g>
              <g>
               <g>
                <g>
                 <g>
                  <g>
                   <g>
                    <g>
                     <g>
                      <g>
                       <g>
                        <g>
                         <path class="fil5" d="M929.88 165.35c-0.43,0.5 -3.29,-1.38 -7.2,-1.15 -3.91,0.18 -6.66,2.35 -7.11,1.9 -0.22,-0.2 0.19,-1.08 1.39,-2.06 1.18,-0.98 3.22,-1.98 5.66,-2.11 2.43,-0.13 4.53,0.65 5.76,1.5 1.25,0.85 1.71,1.69 1.5,1.91z"/>
                        </g>
                       </g>
                      </g>
                     </g>
                    </g>
                   </g>
                  </g>
                 </g>
                </g>
               </g>
              </g>
             </g>
            </g>
           </g>
          </g>
         </g>
         <g>
          <g>
           <g>
            <g>
             <g>
              <g>
               <g>
                <g>
                 <g>
                  <g>
                   <g>
                    <g>
                     <g>
                      <g>
                       <g>
                        <path class="fil5" d="M893.73 178.63c0.18,1.91 -1.3,3.64 -3.29,3.86 -1.99,0.22 -3.75,-1.14 -3.93,-3.06 -0.18,-1.91 1.3,-3.64 3.29,-3.86 1.99,-0.22 3.76,1.15 3.93,3.06z"/>
                       </g>
                      </g>
                     </g>
                    </g>
                   </g>
                  </g>
                 </g>
                </g>
               </g>
              </g>
             </g>
            </g>
           </g>
          </g>
         </g>
         <g>
          <g>
           <g>
            <g>
             <g>
              <g>
               <g>
                <g>
                 <g>
                  <g>
                   <g>
                    <g>
                     <g>
                      <g>
                       <g>
                        <g>
                         <path class="fil5" d="M891.52 168.29c-0.42,0.5 -3.3,-1.38 -7.2,-1.14 -3.91,0.18 -6.66,2.35 -7.11,1.9 -0.22,-0.2 0.19,-1.08 1.39,-2.06 1.18,-0.98 3.22,-1.98 5.66,-2.11 2.43,-0.13 4.53,0.65 5.76,1.5 1.25,0.85 1.71,1.69 1.5,1.91z"/>
                        </g>
                       </g>
                      </g>
                     </g>
                    </g>
                   </g>
                  </g>
                 </g>
                </g>
               </g>
              </g>
             </g>
            </g>
           </g>
          </g>
         </g>
         <g>
          <g>
           <g>
            <g>
             <g>
              <g>
               <g>
                <g>
                 <g>
                  <g>
                   <g>
                    <g>
                     <g>
                      <g>
                       <g>
                        <path class="fil5" d="M907.37 196.45c-0.03,-0.22 2.37,-0.78 6.28,-1.51 0.99,-0.16 1.92,-0.41 2.05,-1.1 0.19,-0.73 -0.28,-1.79 -0.83,-2.92 -1.08,-2.36 -2.2,-4.83 -3.39,-7.43 -4.72,-10.58 -8.2,-19.3 -7.77,-19.49 0.43,-0.19 4.6,8.24 9.32,18.82 1.14,2.61 2.23,5.1 3.27,7.48 0.44,1.11 1.17,2.36 0.74,3.89 -0.22,0.76 -0.93,1.34 -1.56,1.55 -0.63,0.23 -1.19,0.28 -1.68,0.33 -3.95,0.44 -6.4,0.6 -6.43,0.38z"/>
                       </g>
                      </g>
                     </g>
                    </g>
                   </g>
                  </g>
                 </g>
                </g>
               </g>
              </g>
             </g>
            </g>
           </g>
          </g>
         </g>
         <g>
          <g>
           <g>
            <g>
             <g>
              <g>
               <g>
                <g>
                 <g>
                  <g>
                   <g>
                    <path class="fil5" d="M891.65 152.92c-0.33,1.09 -4.26,0.81 -8.81,1.62 -4.57,0.72 -8.19,2.28 -8.85,1.36 -0.3,-0.44 0.29,-1.48 1.72,-2.59 1.42,-1.11 3.73,-2.22 6.46,-2.69 2.73,-0.46 5.28,-0.17 6.99,0.42 1.72,0.58 2.61,1.37 2.48,1.88z"/>
                   </g>
                  </g>
                 </g>
                </g>
               </g>
              </g>
             </g>
            </g>
           </g>
          </g>
         </g>
         <g>
          <g>
           <g>
            <g>
             <g>
              <g>
               <g>
                <g>
                 <g>
                  <g>
                   <g>
                    <path class="fil5" d="M927.8 154.13c-0.64,0.93 -3.38,0.16 -6.62,0.3 -3.24,0.03 -5.94,0.94 -6.63,0.05 -0.3,-0.43 0.08,-1.35 1.23,-2.26 1.13,-0.91 3.07,-1.7 5.3,-1.76 2.22,-0.06 4.2,0.63 5.38,1.48 1.2,0.85 1.62,1.74 1.35,2.19z"/>
                   </g>
                  </g>
                 </g>
                </g>
               </g>
              </g>
             </g>
            </g>
           </g>
          </g>
         </g>
         <g>
          <g>
           <g>
            <g>
             <g>
              <g>
               <g>
                <g>
                 <g>
                  <g>
                   <path class="fil5" d="M931.52 141.08c0,0 -7.62,-15.54 -15.52,-18.81 -9.55,-3.96 -12.96,6.47 -21.96,4.5 -9,-1.97 -18.12,-5.77 -26.78,1.59 -9.48,8.06 -4.53,13.06 -4.49,24.37 0.15,45.87 -7.46,59.29 -11.07,37.89 -0.4,-2.35 -7.06,-3.85 -8.6,-13.76 -2,-12.85 -3.4,-28.53 -1.04,-37.87 1.99,-7.87 6.09,-13.47 13.66,-19.82 11.95,-10.02 29.08,-11.2 40.79,-10.7 11.71,0.5 34.93,12.61 35.02,32.61z"/>
                  </g>
                 </g>
                </g>
               </g>
              </g>
             </g>
            </g>
           </g>
          </g>
         </g>
         <g>
          <g>
           <g>
            <g>
             <g>
              <g>
               <g>
                <g>
                 <g>
                  <g>
                   <path class="fil9" d="M853.27 189.84c-0.39,-3.91 -3.94,-6.82 -7.83,-6.22 -4.72,0.72 -9.84,3.72 -8.96,13.5 1.56,17.35 18.65,12.21 18.64,11.71 -0.01,-0.34 -1.13,-11.73 -1.85,-18.99z"/>
                  </g>
                 </g>
                </g>
               </g>
              </g>
             </g>
            </g>
           </g>
          </g>
         </g>
         <g>
          <g>
           <g>
            <g>
             <g>
              <g>
               <g>
                <g>
                 <g>
                  <g>
                   <path class="fil10" d="M850.75 202.63c-0.08,-0.05 -0.28,0.24 -0.77,0.52 -0.48,0.27 -1.32,0.5 -2.26,0.25 -1.89,-0.51 -3.7,-3.28 -4.06,-6.4 -0.19,-1.57 0.01,-3.11 0.46,-4.4 0.42,-1.31 1.16,-2.28 2.06,-2.52 0.9,-0.3 1.6,0.2 1.86,0.67 0.28,0.46 0.2,0.82 0.29,0.84 0.06,0.04 0.35,-0.33 0.15,-1.03 -0.11,-0.33 -0.34,-0.73 -0.78,-1.02 -0.44,-0.3 -1.07,-0.42 -1.71,-0.29 -1.33,0.21 -2.43,1.55 -2.92,2.97 -0.56,1.43 -0.82,3.16 -0.61,4.93 0.43,3.49 2.51,6.6 5.08,7.1 1.25,0.21 2.23,-0.25 2.72,-0.71 0.5,-0.48 0.56,-0.87 0.49,-0.9z"/>
                  </g>
                 </g>
                </g>
               </g>
              </g>
             </g>
            </g>
           </g>
          </g>
         </g>
        </g>
       </g>
       <g>
        <g>
         <g>
          <g>
           <g>
            <g>
             <g>
              <path class="fil5" d="M935.2 122.26c-2.67,-2.01 -6.35,-2.3 -9,-4.33 -4.83,-3.7 -5.04,-12.11 -10.7,-14.31 -3.36,-1.3 -7.14,0.3 -10.73,-0.07 -5.8,-0.6 -8.04,-4.98 -16.85,-5.01 -11.44,-0.03 -15.12,8.5 -15.12,8.5 0,0 -6.3,-3.41 -13.18,1.24 -5.18,3.5 -5.52,10.52 -5.52,10.52 0,0 -1.81,-0.91 -7.31,3.43 -3.5,2.76 -6.35,8.72 -7.62,12.98 -1.89,6.36 0.87,13.08 3.58,19.13 1.46,3.28 3.28,6.89 6.69,8.04 4.15,1.4 8.72,-1.85 10.34,-5.92 1.62,-4.07 4.19,-8.16 6.15,-12.07 3.42,-6.79 6.92,-13.12 4.05,-17.47 3.95,-1.28 8.28,-1.38 12.22,-0.07 3.98,1.32 7.46,3.87 11.42,5.28 3.96,1.4 8.98,1.32 11.67,-1.9 1.99,4.83 9.23,6.4 13.04,2.83 3.1,5.13 10.44,7.49 15.57,4.39 5.13,-3.09 6.08,-11.59 1.3,-15.19z"/>
             </g>
            </g>
           </g>
          </g>
         </g>
        </g>
       </g>
       <g>
        <g>
         <g>
          <g>
           <g>
            <g>
             <g>
              <path class="fil7" d="M841.02 150.28c0.16,-0.08 0.85,1.52 2.01,3.97 0.61,1.19 1.44,2.61 2.86,3.52 1.43,0.91 3.39,0.99 5.39,0.62 1.99,-0.37 3.79,-1.18 5.2,-2.2 1.41,-1.04 2.51,-2.25 3.4,-3.27 1.75,-2.09 2.77,-3.48 2.9,-3.38 0.1,0.07 -0.69,1.58 -2.33,3.84 -0.84,1.11 -1.9,2.41 -3.4,3.58 -1.5,1.15 -3.44,2.05 -5.59,2.45 -2.11,0.4 -4.41,0.3 -6.09,-0.83 -1.66,-1.13 -2.46,-2.74 -3.01,-4.01 -1.02,-2.61 -1.45,-4.23 -1.35,-4.28z"/>
             </g>
            </g>
           </g>
          </g>
         </g>
        </g>
       </g>
       <g>
        <g>
         <g>
          <g>
           <g>
            <g>
             <g>
              <path class="fil7" d="M841.67 163.68c0.13,-0.14 1.12,1.16 3.44,1.91 1.14,0.36 2.59,0.56 4.15,0.35 1.56,-0.19 3.22,-0.83 4.78,-1.82 3.13,-2 5.13,-4.86 6.53,-6.88 1.39,-2.06 2.24,-3.37 2.37,-3.29 0.11,0.07 -0.5,1.49 -1.74,3.68 -1.26,2.14 -3.24,5.21 -6.6,7.37 -1.67,1.06 -3.49,1.73 -5.22,1.89 -1.73,0.17 -3.3,-0.13 -4.5,-0.61 -2.46,-1.01 -3.29,-2.57 -3.19,-2.59z"/>
             </g>
            </g>
           </g>
          </g>
         </g>
        </g>
       </g>
      </g>
      <g>
       <g>
        <g>
         <g>
          <g>
           <path class="fil10" d="M896.27 202.84c-0.76,1.92 -0.74,3.79 -0.98,5.84 -0.24,2.05 0.63,3.5 1.9,5.13 1.31,1.69 3.49,2.56 5.63,2.6 0.02,0 0.04,0 0.06,0 3.99,0.05 7.38,-2.96 8,-6.91l0.69 -4.31c-4.08,-1.11 -15,-2.07 -15.3,-2.35z"/>
          </g>
         </g>
        </g>
       </g>
       <g>
        <g>
         <g>
          <g>
           <g>
            <path class="fil5" d="M906.96 215.16c-0.02,-0.08 -0.51,0.02 -1.39,0.15 -0.87,0.12 -2.15,0.27 -3.67,0.02 -1.5,-0.24 -3.22,-1.03 -4.47,-2.61 -1.24,-1.53 -1.9,-3.8 -1.76,-6.11 0.07,-1.27 0.4,-2.49 0.93,-3.52l-0.54 0.27c3.91,0.59 7.32,1.06 9.77,1.35 2.44,0.3 3.92,0.41 3.94,0.28 0.02,-0.13 -1.42,-0.47 -3.83,-0.94 -2.41,-0.47 -5.81,-1.07 -9.71,-1.71l-0.36 -0.06 -0.17 0.33c-0.63,1.18 -1,2.54 -1.08,3.95 -0.15,2.56 0.59,5.06 2.07,6.8 1.44,1.74 3.47,2.57 5.12,2.72 1.67,0.17 2.99,-0.12 3.86,-0.37 0.88,-0.25 1.32,-0.49 1.3,-0.55z"/>
           </g>
          </g>
         </g>
        </g>
       </g>
      </g>
     </g>
     <g>
      <path class="fil7" d="M851.32 191.85c-0.89,-1.75 -3.32,-2.79 -4.93,-1.65 -1.98,1.11 -2.36,2.69 -2.9,4.89 -0.38,1.56 -0.28,3.3 0.59,4.65 0.88,1.35 2.62,2.17 4.16,1.69 1.63,-0.51 2.55,-2.21 3.07,-3.83 0.61,-1.87 0.89,-3.99 0,-5.74z"/>
     </g>
     <g>
      <path class="fil7" d="M882.21 222.03c-5.37,0 -10.74,-1.12 -15.63,-3.36 -9.78,-4.48 -17.42,-13.31 -20.43,-23.64l2.88 -0.84c2.77,9.5 9.8,17.64 18.8,21.76 9,4.12 19.75,4.12 28.76,0l1.24 2.72c-4.89,2.24 -10.25,3.35 -15.62,3.35z"/>
     </g>
     <g>
      <path class="fil7" d="M901.26 222.1l-6.24 1.23c-2.59,0.51 -5.1,-1.18 -5.61,-3.76l-0.03 -0.16c-0.51,-2.59 1.18,-5.1 3.76,-5.61l6.24 -1.23c2.59,-0.51 5.1,1.18 5.61,3.77l0.04 0.16c0.51,2.59 -1.18,5.1 -3.77,5.61z"/>
     </g>
     <g>
      <path class="fil7" d="M851 194.74c1.44,-1.5 2.77,-3.17 3.47,-5.12 0.7,-1.96 0.7,-4.25 -0.4,-6.01 -0.96,-1.52 -2.6,-2.48 -4.27,-3.15 -1.46,-0.58 -3.03,-0.98 -4.6,-0.86 -1.57,0.12 -3.14,0.81 -4.07,2.08 -0.51,0.7 -0.78,1.72 -0.24,2.39 0.62,0.76 1.8,0.56 2.75,0.31 1.29,-0.33 2.63,-0.62 3.95,-0.48 1.33,0.14 2.67,0.76 3.37,1.89 0.81,1.3 0.63,3.03 -0.06,4.4 -0.69,1.37 -1.82,2.46 -2.93,3.52l3.03 1.04z"/>
     </g>
    </g>
    <g>
     <g>
      <path class="fil1" d="M792.71 287.05c-1.51,0 -23.03,8.61 -28.69,29.76 -5.66,21.15 -21.14,98.58 -21.14,98.58l-16.41 22.72c0,0 5.31,41.51 35.51,33.63 0,0 20.15,3.52 26.57,-16.91 6.42,-20.43 18.87,-81.37 18.87,-81.37l-14.72 -86.39z"/>
     </g>
     <g>
      <path class="fil0" d="M855.54 251.6l-11.4 17.26 -51.43 18.19 14.72 149.12 -5.5 78.16c-0.73,10.4 7.66,19.16 18.08,18.87l161.63 -4.78c4.04,-0.11 5.93,-5.23 6.61,-10.75 0.6,-4.95 0.07,-9.98 -1.3,-14.78l-8.52 -29.9c1.26,18.61 -4.31,-110.96 -4.52,-115.68l12.46 -66.67 -58.51 -23.66 -9.06 -13.98 -26.33 20.02 -36.92 -21.42z"/>
     </g>
     <g>
      <path class="fil1" d="M986.36 290.64c0,0 11.77,10.33 13.75,18.21 1.97,7.88 44.27,99.57 44.27,99.57l21.03 5.67 5.61 11.64c6.64,13.8 3.04,30.61 -9.16,39.87 -0.77,0.58 -1.52,1.1 -2.25,1.53 -11.36,6.75 -31.78,6.48 -43.68,-7.55 -11.27,-13.29 -44.24,-61.11 -44.24,-61.11l0 -58.5 14.69 -49.33z"/>
     </g>
     <g>
      <path class="fil9" d="M1055.3 417.67l30.23 -17.84 14.56 17.84 -3.01 8.64 -38.97 28.93c0,0 -7.31,-5.37 -9.04,-15.67 -1.82,-10.84 6.23,-21.9 6.23,-21.9z"/>
     </g>
     <g>
      <g>
       <path class="fil5" d="M1045.69 408.45c0,0.28 -2.56,0.06 -6.36,1.28 -3.78,1.16 -8.64,4.06 -12.56,8.7 -3.91,4.66 -6.31,9.76 -7.99,13.42 -1.67,3.69 -2.65,6.01 -2.87,5.93 -0.19,-0.07 0.43,-2.52 1.85,-6.35 1.44,-3.8 3.72,-9.12 7.82,-14 4.11,-4.89 9.39,-7.81 13.45,-8.76 4.09,-1 6.7,-0.36 6.66,-0.22z"/>
      </g>
     </g>
     <g>
      <path class="fil9" d="M1085.01 409.73c-0.28,-0.56 -2.51,-13.4 7.26,-21.78 9.77,-8.37 18.57,-11.31 23.87,-13.68 5.31,-2.37 16.33,-11.59 18.29,-9.35 1.96,2.24 2.8,5.59 0,9.63 -2.79,4.05 -18.78,10.13 -16.55,15.26 0.91,2.1 5.94,2.47 5.94,2.47 0,0 19.27,1.26 27.37,0.56 8.09,-0.7 15.35,0.83 14.94,3.63 -0.42,2.79 -1.95,4.33 -8.65,4.89 -6.7,0.56 -17.59,0.14 -18.15,1.67 -0.56,1.54 1.68,2.51 5.59,2.24 3.91,-0.28 22.34,-0.28 23.59,1.81 1.26,2.09 0.28,5.3 -2.23,6l-4.33 1.54c0,0 2.52,3.49 0.42,5.44 -2.09,1.96 -6.84,1.26 -6.84,1.26l-24.43 -0.7c0,0 -1.39,1.48 -0.7,2.48 0.7,1.01 19.83,-0.39 19.96,1.7 0.14,2.09 1.81,3.07 -3.91,4.47 -5.72,1.4 -20.1,1.4 -25.27,0 -5.17,-1.4 -26.81,-2.37 -26.81,-2.37l-9.35 -17.17z"/>
     </g>
     <g>
      <path class="fil9" d="M753.02 420.86l-28.26 -23.46 -16.23 18.24 1.98 8.93 35.33 33.28c0,0 7.64,-3.7 11.1,-13.56 3.52,-10.02 -3.93,-23.43 -3.93,-23.43z"/>
     </g>
     <g>
      <path class="fil9" d="M724.43 409.51c0.34,-0.52 4.06,-13.02 -4.67,-22.48 -8.73,-9.46 -17.12,-13.39 -22.11,-16.37 -4.99,-2.98 -14.87,-13.41 -17.07,-11.42 -2.2,1.99 -3.43,5.22 -1.12,9.57 2.3,4.35 13.29,9.43 12.9,15.02 -0.28,4.04 -4.43,3.83 -4.43,3.83 0,0 -19.28,-1 -27.24,-2.64 -7.96,-1.63 -15.35,-0.96 -15.26,1.87 0.09,2.82 1.44,4.52 8.03,5.86 6.59,1.33 17.46,2.19 17.83,3.78 0.37,1.59 -1.96,2.3 -5.81,1.57 -3.85,-0.73 -22.15,-2.88 -23.65,-0.95 -1.49,1.93 -0.89,5.24 1.52,6.22l4.12 2.03c0,0 -2.9,3.18 -1.05,5.36 1.85,2.18 6.65,2.04 6.65,2.04l24.35 2.15c0,0 1.22,1.63 0.41,2.55 -0.81,0.92 -19.65,-2.7 -20.03,-0.63 -0.38,2.07 -2.16,2.84 3.36,4.89 5.52,2.06 19.8,3.73 25.09,2.94 5.3,-0.78 26.9,0.77 26.9,0.77l11.29 -15.96z"/>
     </g>
     <g>
      <g>
       <path class="fil5" d="M926.39 271.24c0.15,0.17 -1.86,2.12 -5.08,5.28 -3.22,3.16 -7.63,7.56 -12.3,12.59 -0.98,1.07 -1.94,2.13 -2.87,3.14l-0.62 0.68 -0.56 -0.72c-3.62,-4.64 -6.75,-8.77 -8.93,-11.76 -2.19,-3 -3.43,-4.86 -3.28,-4.98 0.15,-0.12 1.67,1.52 4.07,4.35 2.4,2.83 5.68,6.83 9.35,11.44l-1.18 -0.04c0.93,-1.02 1.89,-2.09 2.88,-3.17 4.7,-5.08 9.27,-9.38 12.69,-12.35 3.43,-2.97 5.69,-4.63 5.83,-4.47z"/>
      </g>
     </g>
     <g>
      <g>
       <path class="fil5" d="M796.05 326.6c0.11,-0.02 0.4,1.11 0.83,3.16 0.44,2.05 0.98,5.04 1.58,8.74 1.2,7.41 2.46,17.69 3.51,29.08 1.05,11.39 1.82,21.7 2.4,29.17 0.25,3.46 0.46,6.41 0.64,8.84 0.13,2.09 0.15,3.26 0.05,3.27 -0.11,0.01 -0.33,-1.13 -0.65,-3.2 -0.32,-2.07 -0.7,-5.08 -1.13,-8.81 -0.86,-7.44 -1.81,-17.75 -2.85,-29.13 -1.05,-11.37 -2.14,-21.65 -3.05,-29.07 -0.43,-3.44 -0.79,-6.38 -1.09,-8.8 -0.25,-2.08 -0.34,-3.24 -0.24,-3.26z"/>
      </g>
     </g>
     <g>
      <g>
       <path class="fil5" d="M974.84 321.39c0.11,-0.01 0.3,1.41 0.55,3.97 0.26,2.56 0.54,6.28 0.78,10.89 0.51,9.2 0.78,21.93 0.81,35.98 0,13.89 0,26.45 0,35.96 0,4.37 0.01,8.02 0.01,10.9 -0.01,2.57 -0.07,4 -0.18,4.01 -0.11,0 -0.26,-1.42 -0.43,-3.99 -0.18,-2.57 -0.35,-6.3 -0.5,-10.9 -0.31,-9.2 -0.43,-21.93 -0.46,-35.98 -0.03,-14.04 -0.12,-26.75 -0.35,-35.94 -0.11,-4.36 -0.2,-8.01 -0.28,-10.89 -0.07,-2.57 -0.05,-4 0.06,-4.01z"/>
      </g>
     </g>
     <g>
      <g>
       <path class="fil5" d="M772.85 453.25c-0.24,0.02 -0.65,-3.04 -1.58,-7.92 -0.95,-4.85 -2.49,-11.6 -6.1,-18.17 -3.62,-6.55 -8.89,-11.16 -13.21,-13.4 -4.33,-2.31 -7.48,-2.59 -7.43,-2.89 0.01,-0.09 0.8,-0.11 2.2,0.1 1.4,0.2 3.41,0.74 5.72,1.8 4.64,2.07 10.31,6.79 14.08,13.63 3.76,6.83 5.14,13.81 5.83,18.74 0.66,4.98 0.68,8.08 0.49,8.1z"/>
      </g>
     </g>
     <g>
      <g>
       <path class="fil5" d="M780.19 422.38c-0.32,0.37 -4.88,-4.31 -12.27,-6.78 -7.35,-2.58 -13.82,-1.67 -13.85,-2.15 -0.17,-0.35 6.56,-2.04 14.35,0.68 7.82,2.62 12.11,8.08 11.76,8.25z"/>
      </g>
     </g>
     <g>
      <g>
       <path class="fil5" d="M896.15 528.57c-0.05,0 -0.11,-0.88 -0.17,-2.56 -0.04,-1.81 -0.1,-4.25 -0.17,-7.32 -0.13,-6.52 -0.31,-15.68 -0.54,-26.94 -0.54,-22.88 -1.27,-54.23 -2.08,-88.87 -0.8,-34.72 -1.27,-66.16 -1.23,-88.91 -0,-11.38 0.12,-20.59 0.26,-26.95 0.09,-3.07 0.17,-5.51 0.22,-7.33 0.07,-1.67 0.13,-2.55 0.19,-2.55 0.05,0 0.1,0.88 0.13,2.56 0.02,1.81 0.04,4.26 0.08,7.33 0.06,6.51 0.13,15.68 0.23,26.94 0.24,22.75 0.89,54.17 1.68,88.89 0.79,34.7 1.45,66.13 1.63,88.89 0.11,11.38 0.1,20.59 0.04,26.95 -0.05,3.07 -0.09,5.51 -0.12,7.33 -0.05,1.68 -0.09,2.56 -0.15,2.56z"/>
      </g>
     </g>
     <g>
      <g>
       <path class="fil5" d="M751.64 419.88c0.12,-0.16 2.23,1.55 4.13,5.32 0.95,1.87 1.87,4.22 2.41,6.98 0.52,2.78 0.54,5.87 0.12,9.05 -0.43,3.18 -1.24,6.19 -2.65,8.69 -1.39,2.48 -3.21,4.34 -4.94,5.57 -3.55,2.49 -6.38,2.44 -6.35,2.29 -0.08,-0.27 2.56,-0.63 5.68,-3.17 1.54,-1.26 3.13,-3.06 4.35,-5.37 1.21,-2.3 1.95,-5.17 2.37,-8.2 0.39,-3.04 0.42,-6 0.01,-8.59 -0.43,-2.61 -1.2,-4.91 -1.99,-6.76 -1.57,-3.74 -3.3,-5.63 -3.13,-5.79z"/>
      </g>
     </g>
     <g>
      <g>
       <path class="fil5" d="M1063.77 458.48c-0.04,0.09 -0.72,-0.07 -1.89,-0.56 -1.17,-0.49 -2.8,-1.38 -4.6,-2.77 -3.59,-2.72 -7.85,-7.96 -9.21,-14.93 -1.33,-6.99 0.67,-13.43 2.99,-17.29 1.16,-1.96 2.33,-3.39 3.24,-4.28 0.9,-0.89 1.48,-1.3 1.54,-1.23 0.21,0.19 -1.83,2.12 -3.81,6.03 -1.98,3.84 -3.67,9.94 -2.43,16.47 1.28,6.52 5.11,11.56 8.38,14.38 3.3,2.89 5.91,3.93 5.79,4.18z"/>
      </g>
     </g>
     <g>
      <g>
       <path class="fil5" d="M948.3 390c0.05,0.1 -1.35,0.91 -3.91,2.29 -2.56,1.39 -6.31,3.31 -10.97,5.63 -9.32,4.64 -22.35,10.75 -36.99,16.95 -14.64,6.19 -28.1,11.3 -37.92,14.76 -4.91,1.73 -8.9,3.08 -11.68,3.95 -2.78,0.88 -4.33,1.31 -4.36,1.21 -0.04,-0.1 1.45,-0.73 4.16,-1.78 2.98,-1.15 6.85,-2.63 11.5,-4.42 9.71,-3.72 23.08,-8.98 37.7,-15.17 14.61,-6.19 27.69,-12.13 37.12,-16.5 4.52,-2.1 8.28,-3.84 11.18,-5.19 2.64,-1.22 4.13,-1.84 4.18,-1.75z"/>
      </g>
     </g>
     <g>
      <g>
       <path class="fil10" d="M1121.79 383.1c0.19,0.18 -1.13,1.44 -2.81,3.66 -0.82,1.13 -1.6,2.53 -1.93,4.29 -0.37,1.76 -0.34,3.82 -0.65,6.07 -0.59,4.65 -3.45,8.13 -5.83,9.83 -2.44,1.76 -4.32,2.02 -4.36,1.87 -0.1,-0.24 1.59,-0.88 3.67,-2.72 2.04,-1.81 4.44,-5.03 4.98,-9.19 0.29,-2.08 0.3,-4.22 0.78,-6.17 0.45,-1.97 1.49,-3.57 2.47,-4.67 2.02,-2.17 3.55,-3.09 3.67,-2.97z"/>
      </g>
     </g>
     <g>
      <g>
       <path class="fil10" d="M681.14 407.13c0,0.42 -7.61,0.82 -17,0.37 -9.39,-0.44 -16.94,-1.56 -16.89,-1.98 0.04,-0.44 7.62,-0.02 16.96,0.42 9.34,0.45 16.93,0.75 16.93,1.19z"/>
      </g>
     </g>
     <g>
      <g>
       <path class="fil10" d="M698.44 405.85c-0.04,0.16 -1.81,-0.14 -3.96,-1.96 -2.1,-1.75 -4.46,-5.32 -4.3,-9.75 0.09,-2.17 0.67,-4.07 1.06,-5.76 0.42,-1.69 0.63,-3.18 0.58,-4.45 -0.06,-2.56 -1.15,-3.87 -0.95,-4.02 0.09,-0.17 1.67,1.05 2.05,3.93 0.2,1.39 0.08,3.09 -0.27,4.84 -0.33,1.76 -0.83,3.61 -0.91,5.52 -0.15,3.83 1.76,7.09 3.5,8.89 1.76,1.86 3.31,2.52 3.2,2.76z"/>
      </g>
     </g>
     <g>
      <g>
       <path class="fil10" d="M1126.14 411.25c0.04,-0.43 8.15,-0.1 18.12,0.73 9.97,0.83 18.03,1.85 17.99,2.28 -0.04,0.43 -8.15,0.1 -18.12,-0.73 -9.97,-0.83 -18.03,-1.85 -17.99,-2.28z"/>
      </g>
     </g>
     <g>
      <g>
       <path class="fil5" d="M890.89 274c0.2,0.09 -1.13,3.46 -3.44,8.85 -0.6,1.39 -1.24,2.85 -1.91,4.4 -0.76,1.59 -1.27,3.21 -2.4,5.09 -0.55,0.9 -1.85,1.84 -3.22,1.56 -1.3,-0.24 -2.17,-1 -3.03,-1.55 -1.74,-1.2 -3.54,-2.43 -5.38,-3.69 -7.36,-5.08 -13.97,-9.74 -18.72,-13.19 -4.74,-3.44 -7.61,-5.66 -7.49,-5.84 0.12,-0.18 3.22,1.72 8.12,4.93 4.91,3.21 11.62,7.73 18.98,12.81 1.83,1.27 3.63,2.51 5.36,3.72 0.88,0.61 1.68,1.22 2.41,1.34 0.7,0.13 1.31,-0.23 1.8,-0.93 1.73,-3.16 3.18,-6.56 4.48,-9.11 2.57,-5.27 4.26,-8.48 4.45,-8.39z"/>
      </g>
     </g>
    </g>
   </g>
   <g>
    <g>
     <g>
      <g>
       <g>
        <polygon class="fil11" points="1152.81,1208.55 1150.86,1150.4 1196.32,1150.4 1193.31,1209.77 1172.78,1217.39 "/>
       </g>
       <g>
        <path class="fil3" d="M1170.01 1209.44l-17.2 -0.89c0,0 -26.48,20.35 -29.03,31.5 -0.91,3.98 0,8.55 0,8.55l40.2 1.11c8.09,0 29.33,0.03 29.33,0.03l0 -39.96 -23.3 -0.34z"/>
       </g>
       <g>
        <polygon class="fil1" points="1193.31,1249.74 1123.41,1249.74 1123.41,1242.81 1193.31,1242.81 "/>
       </g>
       <g>
        <g>
         <path class="fil1" d="M1156.19 1211.65c0.44,0.13 -1.41,6.94 -2.85,15.47 -1.48,8.54 -2.02,15.55 -2.47,15.54 -0.41,-0 -0.58,-7.13 0.92,-15.78 1.47,-8.65 4.02,-15.35 4.41,-15.23z"/>
        </g>
       </g>
       <g>
        <g>
         <path class="fil1" d="M1190.34 1240.64c-0.28,0.09 -0.8,-2.77 -3.65,-6.28 -1.43,-1.72 -3.45,-3.56 -6.12,-4.91 -2.65,-1.36 -5.99,-2.11 -9.47,-1.97 -3.48,0.17 -6.72,1.21 -9.23,2.81 -2.53,1.58 -4.36,3.59 -5.61,5.43 -2.48,3.74 -2.71,6.64 -3,6.58 -0.09,-0.01 -0.14,-0.72 0.09,-2 0.22,-1.27 0.78,-3.09 1.96,-5.13 1.19,-2.02 3.06,-4.25 5.75,-6.03 2.68,-1.8 6.2,-2.98 9.98,-3.16 3.77,-0.16 7.4,0.7 10.24,2.25 2.86,1.53 4.94,3.59 6.33,5.49 1.38,1.93 2.11,3.69 2.46,4.93 0.35,1.24 0.37,1.96 0.28,1.98z"/>
        </g>
       </g>
       <g>
        <polygon class="fil11" points="1271.11,1210.31 1280.18,1152.78 1235.03,1147.75 1230.73,1207.05 1250.18,1216.89 "/>
       </g>
       <g>
        <path class="fil3" d="M1253.91 1209.29l17.2 1.02c0,0 23.8,23.14 24.96,34.5 0.41,4.05 -1.05,8.49 -1.05,8.49l-40.06 -3.35c-8.04,-0.89 -29.13,-3.21 -29.13,-3.21l4.91 -39.69 23.19 2.24z"/>
       </g>
       <g>
        <polygon class="fil1" points="1225.82,1246.74 1295.25,1254.48 1296.1,1247.6 1226.67,1239.86 "/>
       </g>
       <g>
        <g>
         <path class="fil1" d="M1267.37 1213.02c0.4,-0.08 2.11,6.86 2.51,15.61 0.43,8.76 -0.61,15.81 -1.02,15.77 -0.46,-0.04 -0.12,-7.06 -0.55,-15.7 -0.39,-8.64 -1.39,-15.61 -0.94,-15.68z"/>
        </g>
       </g>
       <g>
        <g>
         <path class="fil1" d="M1229.89 1238.03c-0.08,-0.03 0.02,-0.74 0.53,-1.94 0.5,-1.19 1.44,-2.86 3.05,-4.62 1.62,-1.73 3.93,-3.55 6.96,-4.75 3.01,-1.22 6.72,-1.68 10.44,-1.11 3.73,0.59 7.08,2.16 9.52,4.24 2.46,2.06 4.04,4.49 4.98,6.63 0.93,2.15 1.25,4.02 1.32,5.31 0.07,1.29 -0.07,1.99 -0.16,1.99 -0.3,0.03 -0.17,-2.87 -2.18,-6.87 -1.02,-1.96 -2.59,-4.17 -4.91,-6.02 -2.3,-1.86 -5.39,-3.26 -8.83,-3.81 -3.44,-0.53 -6.85,-0.15 -9.65,0.91 -2.82,1.04 -5.06,2.65 -6.69,4.19 -3.25,3.17 -4.12,5.96 -4.39,5.84z"/>
        </g>
       </g>
       <g>
        <path class="fil3" d="M1128 1027.27c0,2.56 10.22,142.98 10.22,142.98l65.45 0 7 -145 -82.68 2.02z"/>
       </g>
       <g>
        <polygon class="fil3" points="1304.57,1025.46 1287.39,1173.51 1223.31,1168.6 1227.48,1021.32 "/>
       </g>
      </g>
      <g>
       <g>
        <g>
         <g>
          <path class="fil5" d="M1247.16 567.68l-1.26 -0.46c-3.02,-7.16 -10.4,-12.28 -18.39,-13.63 -7.99,-1.35 -16.41,0.83 -23.12,5.17 -4.66,3.02 -8.55,7.01 -13.22,10.01 -4.67,3 -10.63,4.96 -15.96,3.22 -0.93,1.85 2.74,3.46 2.23,5.46 -0.24,0.95 -1.37,1.46 -2.4,1.53 -1.51,0.1 -2.98,-0.43 -4.49,-0.57 -1.51,-0.13 -3.3,0.32 -3.85,1.66 -0.28,0.65 -0.19,1.39 -0.09,2.09 0.87,6.25 2.72,12.54 6.7,17.58 3.98,5.04 10.38,8.67 17,8.28 5.29,-0.3 10.05,-3.01 14.57,-5.64 8.58,-5 17.17,-10 25.75,-15 3.96,-2.31 7.97,-4.65 11.16,-7.85 3.19,-3.21 5.52,-7.43 5.37,-11.84z"/>
         </g>
        </g>
        <g>
         <g>
          <path class="fil5" d="M1242.12 568.33c3.52,-2.04 7.46,-3.56 11.57,-3.82 4.11,-0.26 8.43,0.85 11.44,3.52 2.81,2.48 4.26,6 6.04,9.23 1.78,3.22 4.28,6.46 7.98,7.43 0.65,0.17 1.37,0.3 1.8,0.79 0.76,0.87 -0.06,2.3 -1.2,2.64 -1.14,0.33 -2.36,-0.06 -3.48,-0.44 1.59,2.29 4.04,4.02 6.81,4.8 -0.97,2.56 -4.45,3.95 -7.06,2.81 0.54,4.32 1.07,8.7 0.47,13.02 -0.6,4.31 -2.45,8.63 -5.96,11.43 -3.87,3.09 -9.67,4.38 -11.76,8.75l-16.66 -60.16z"/>
         </g>
        </g>
        <g>
         <g>
          <g>
           <g>
            <g>
             <g>
              <g>
               <g>
                <g>
                 <g>
                  <g>
                   <path class="fil11" d="M1189.12 716.78l60.99 6.52 -0.28 -50.03c0,0 4.27,-0.35 7.38,-21.73 3.11,-21.38 8.96,-57.64 8.96,-57.64 -24.7,-13.77 -55.32,-13.77 -80.01,0l-3.67 2.05 6.63 120.82z"/>
                  </g>
                 </g>
                </g>
               </g>
              </g>
             </g>
            </g>
           </g>
          </g>
         </g>
         <g>
          <g>
           <g>
            <g>
             <g>
              <g>
               <g>
                <g>
                 <path class="fil11" d="M1186.08 623.14c-0.36,-0.2 -14.92,-6.2 -16.37,8.5 -1.44,14.7 14.4,13.04 14.46,12.62 0.07,-0.42 1.9,-21.12 1.9,-21.12z"/>
                </g>
               </g>
              </g>
             </g>
            </g>
           </g>
          </g>
         </g>
         <g>
          <g>
           <g>
            <g>
             <g>
              <g>
               <g>
                <g>
                 <path class="fil11" d="M1258.91 628.72c0.41,-0.11 14.62,-1.99 12.19,12.59 -2.43,14.58 -17.35,9.26 -17.31,8.83 0.04,-0.42 5.12,-21.42 5.12,-21.42z"/>
                </g>
               </g>
              </g>
             </g>
            </g>
           </g>
          </g>
         </g>
         <g>
          <g>
           <g>
            <g>
             <path class="fil5" d="M1181.3 620.9c0.68,12.54 -0.63,18.93 0.42,27.38 1.66,13.37 7.12,24.12 18.57,32.06 11.44,7.94 28.11,9.81 39.84,2.26 8.14,-5.24 14.26,-11.53 16.56,-20.61 2.3,-9.08 7.45,-26.04 8.75,-35.3 2.34,-16.7 3.73,-31.76 3.73,-31.76l-49.15 -14.64 -30.76 12.74 -7.96 27.87z"/>
            </g>
           </g>
          </g>
         </g>
         <g>
          <g>
           <g>
            <g>
             <g>
              <path class="fil5" d="M1224.75 690.77c0.03,0.35 -4.05,0.81 -8.91,-0.31 -4.87,-1.09 -8.29,-3.25 -8.09,-3.55 0.19,-0.35 3.77,1.2 8.43,2.24 4.65,1.07 8.57,1.23 8.58,1.62z"/>
             </g>
            </g>
           </g>
          </g>
         </g>
         <g>
          <g>
           <g>
            <g>
             <path class="fil5" d="M1180.97 642.05c0.19,-12.75 1.14,-27.24 0.82,-40.74 -0.12,-5.07 -1.04,-12.46 0.09,-17.41 1.13,-4.97 2.37,-3.27 5.31,-7.52 3.68,-5.34 15.36,-7.8 22.06,-8.27 6.7,-0.47 8.22,-5.74 12.69,-0.96 4.34,-4.76 11.89,-6.61 18.12,-4.44 6.23,2.17 10.72,8.22 10.78,14.52 4,-2.8 9.99,-2.7 13.89,0.23 3.9,2.94 5.36,8.45 3.39,12.79 3.54,1 6.45,3.77 7.51,7.13 1.06,3.35 0.21,7.19 -2.17,9.87 -2.78,3.13 -7.23,4.5 -10.23,7.44 -3.45,3.39 -4.49,8.8 -2.52,13.12l-79.75 14.23z"/>
            </g>
           </g>
          </g>
          <g>
           <g>
            <g>
             <g>
              <path class="fil7" d="M1246.12 647.16c0.35,-0.04 0.24,6.13 -3.44,12.66 -3.62,6.57 -8.92,10.12 -9.08,9.83 -0.31,-0.31 4.38,-4.17 7.83,-10.46 3.53,-6.25 4.26,-12.1 4.69,-12.03z"/>
             </g>
            </g>
           </g>
          </g>
          <g>
           <g>
            <g>
             <g>
              <path class="fil7" d="M1254.29 637.29c0.33,-0.11 1.6,5.34 -0.55,11.71 -2.08,6.39 -6.41,10.17 -6.61,9.89 -0.34,-0.26 3.3,-4.24 5.26,-10.3 2.05,-6.03 1.46,-11.28 1.9,-11.3z"/>
             </g>
            </g>
           </g>
          </g>
         </g>
        </g>
        <g>
         <g>
          <path class="fil5" d="M1197.64 579.12c4.59,-5.26 10.49,-9.74 17.45,-11.46 6.96,-1.71 15.04,-0.22 19.89,4.82l-37.34 6.63z"/>
         </g>
        </g>
        <g>
         <g>
          <g>
           <path class="fil7" d="M1194.62 611.68c0.26,-0.03 0.23,-1.71 0.08,-4.38 -0.13,-2.67 -0.38,-6.34 0.18,-10.28 0.56,-3.94 2.06,-7.3 3.59,-9.43 1.51,-2.17 2.89,-3.21 2.72,-3.43 -0.1,-0.17 -1.82,0.55 -3.74,2.7 -1.92,2.11 -3.76,5.71 -4.35,9.92 -0.59,4.2 -0.11,7.99 0.34,10.65 0.48,2.67 0.95,4.28 1.19,4.25z"/>
          </g>
         </g>
        </g>
        <g>
         <g>
          <g>
           <path class="fil7" d="M1204.38 617.77c0.48,-0.18 -0.39,-3.23 -1.11,-7.01 -0.74,-3.78 -1.08,-6.91 -1.6,-6.92 -0.48,-0.02 -0.95,3.26 -0.17,7.23 0.76,3.97 2.44,6.87 2.88,6.7z"/>
          </g>
         </g>
        </g>
        <g>
         <g>
          <g>
           <path class="fil7" d="M1253.18 619.77c0.14,0.13 2.11,-1.44 4.15,-4.82 2.04,-3.33 3.93,-8.67 3.47,-14.68 -0.46,-6.01 -3.14,-11.03 -5.67,-14.05 -2.53,-3.07 -4.72,-4.35 -4.84,-4.2 -0.2,0.2 1.65,1.79 3.8,4.9 2.16,3.07 4.47,7.85 4.91,13.47 0.43,5.61 -1.14,10.67 -2.81,14 -1.66,3.37 -3.25,5.19 -3.02,5.37z"/>
          </g>
         </g>
        </g>
        <g>
         <g>
          <g>
           <path class="fil7" d="M1205.41 558.74c0.11,0.23 2.06,-0.46 5.22,-1.39 3.15,-0.89 7.63,-2.02 12.5,-1.38 4.91,0.56 8.66,3.19 10.41,5.71 1.83,2.51 1.96,4.55 2.26,4.51 0.19,0.04 0.55,-2.17 -1.18,-5.15 -0.87,-1.45 -2.25,-3.02 -4.19,-4.28 -1.94,-1.27 -4.41,-2.13 -7.06,-2.48 -5.35,-0.69 -10.08,0.73 -13.18,1.93 -3.13,1.25 -4.89,2.33 -4.8,2.53z"/>
          </g>
         </g>
        </g>
        <g>
         <g>
          <g>
           <path class="fil7" d="M1272.39 580.51c0.2,-0.04 0.06,-1.72 -1.28,-4.09 -1.3,-2.33 -4.01,-5.29 -8.04,-6.95 -4.04,-1.65 -8.16,-1.5 -10.84,-0.79 -2.73,0.7 -4.12,1.75 -4.01,1.92 0.12,0.24 1.67,-0.39 4.26,-0.73 2.56,-0.36 6.27,-0.3 9.87,1.18 3.6,1.48 6.19,4 7.67,6.02 1.51,2.03 2.09,3.53 2.36,3.45z"/>
          </g>
         </g>
        </g>
        <g>
         <g>
          <g>
           <path class="fil7" d="M1248.68 632.34c0.09,-0.19 -2.37,-1.14 -6.2,-3.35 -3.81,-2.2 -8.98,-5.83 -13.62,-11.33l-2.56 -3.04 1.12 3.76c0.67,2.25 1.13,4.68 1.26,7.22 0.09,1.22 0.09,2.77 -0.41,2.92 -0.39,0.33 -1.69,-0.49 -2.74,-1.39 -3.77,-3 -6.85,-6.45 -9.2,-9.92l-2.28 -3.36 0.72 3.92c0.72,3.92 1.4,7.57 2.01,10.89l1.25 -0.53c-6.23,-7.18 -7.93,-13.13 -8.3,-12.96 -0.12,0.04 0.19,1.52 1.23,4.02 1.04,2.49 2.87,6.02 5.97,9.78l1.65 2.01 -0.4 -2.54c-0.53,-3.32 -1.11,-6.99 -1.74,-10.93l-1.55 0.56c2.38,3.64 5.55,7.26 9.47,10.37 0.58,0.44 1.1,0.91 1.85,1.33 0.67,0.38 1.81,0.81 2.92,0.23 1.08,-0.62 1.27,-1.7 1.33,-2.41 0.04,-0.78 -0.01,-1.4 -0.04,-2.08 -0.17,-2.67 -0.68,-5.22 -1.43,-7.57l-1.44 0.72c4.91,5.61 10.38,9.16 14.41,11.17 4.06,2.02 6.65,2.65 6.7,2.52z"/>
          </g>
         </g>
        </g>
        <g>
         <g>
          <path class="fil5" d="M1226.73 572.38c1.2,-1.66 3.24,-2.67 5.33,-2.98 2.09,-0.31 4.25,0.01 6.28,0.61 4.96,1.46 9.35,4.63 12.17,8.77 0.65,0.95 1.14,2.35 0.23,3.07 -0.48,0.38 -1.17,0.38 -1.8,0.35 -7.66,-0.3 -15.27,-1.47 -22.64,-3.47l0.43 -6.34z"/>
         </g>
        </g>
       </g>
      </g>
      <g>
       <path class="fil0" d="M1174.22 719.66c0,0 -63.17,15.29 -73.7,31.16 -10.53,15.88 -16.72,52.33 -16.72,58.8 0,6.46 -1.24,79.96 11.76,104.07 13.01,24.11 232.87,17.05 232.87,17.05 0,0 16.72,-8.23 21.06,-32.93 4.33,-24.69 -3.72,-107.01 -8.05,-125.24 -4.33,-18.23 -8.05,-12.94 -28.49,-24.69 -20.44,-11.76 -52.02,-24.11 -52.02,-24.11l-11.15 -19.99c0,0 -35.3,-18.23 -63.17,-2.94l-12.39 18.82z"/>
      </g>
      <g>
       <g>
        <path class="fil12" d="M1310.81 796.7c0.44,0.01 0.56,15.98 0.29,35.67 -0.28,19.7 -0.85,35.66 -1.29,35.65 -0.44,-0 -0.56,-15.97 -0.29,-35.67 0.28,-19.69 0.85,-35.65 1.29,-35.65z"/>
       </g>
      </g>
      <g>
       <g>
        <path class="fil12" d="M1116.16 784.74c0.11,0.01 0.11,1.07 0.04,2.99 -0.1,2.25 -0.22,4.94 -0.37,8.1 -0.31,6.83 -0.62,16.28 -0.54,26.71 0.09,10.43 0.54,19.87 0.96,26.7 0.19,3.15 0.35,5.85 0.49,8.09 0.11,1.91 0.11,2.98 0,2.99 -0.11,0.01 -0.32,-1.03 -0.61,-2.93 -0.3,-1.9 -0.64,-4.65 -0.99,-8.07 -0.7,-6.83 -1.33,-16.3 -1.42,-26.78 -0.08,-10.47 0.41,-19.95 1,-26.78 0.3,-3.42 0.59,-6.18 0.87,-8.08 0.26,-1.9 0.46,-2.95 0.57,-2.94z"/>
       </g>
      </g>
      <g>
       <g>
        <path class="fil12" d="M1288.66 754.87c-0.01,0.05 -0.56,0.03 -1.59,-0.07 -1.22,-0.13 -2.71,-0.29 -4.53,-0.48 -4.16,-0.45 -9.79,-1.07 -16.64,-1.82 -14.06,-1.45 -33.52,-3.05 -55.08,-3.77 -21.57,-0.7 -41.11,-0.39 -55.24,0.15 -6.89,0.3 -12.55,0.54 -16.73,0.72 -1.83,0.07 -3.33,0.13 -4.55,0.19 -1.04,0.02 -1.59,0.01 -1.6,-0.04 -0,-0.05 0.54,-0.14 1.57,-0.26 1.22,-0.12 2.71,-0.28 4.54,-0.46 3.94,-0.39 9.65,-0.81 16.72,-1.2 14.14,-0.8 33.72,-1.29 55.34,-0.59 21.61,0.72 41.11,2.49 55.16,4.22 7.03,0.86 12.7,1.65 16.6,2.3 1.8,0.31 3.29,0.56 4.49,0.76 1.02,0.19 1.56,0.31 1.55,0.37z"/>
       </g>
      </g>
      <g>
       <g>
        <path class="fil12" d="M1257.45 723.3c-0.05,0.23 -4.7,-0.63 -12.25,-1.68 -7.55,-1.06 -18.03,-2.2 -29.66,-2.63 -11.63,-0.41 -22.17,-0.02 -29.79,0.5 -7.61,0.51 -12.31,1.03 -12.35,0.8 -0.02,-0.1 1.14,-0.35 3.26,-0.7 2.11,-0.36 5.19,-0.76 9,-1.15 7.62,-0.79 18.24,-1.35 29.95,-0.94 11.71,0.43 22.24,1.75 29.78,3.08 3.77,0.66 6.8,1.28 8.88,1.8 2.08,0.5 3.21,0.83 3.19,0.93z"/>
       </g>
      </g>
      <g>
       <g>
        <path class="fil3" d="M1324.66 856.42c-5.91,-3.28 -13,-3.86 -19.82,-4.31 -39.64,-2.6 -79.38,-3.42 -119.1,-4.24 -22.83,-0.47 -45.74,-0.93 -68.42,1.61 -7.13,0.8 -14.67,2.09 -19.96,6.69 -7.13,6.19 -8.11,16.51 -6.98,25.61 1.13,9.1 3.87,18.24 2.35,27.3l238.35 21.39c-0.35,-13.18 4.96,-25.86 6.77,-38.93 1.81,-13.07 -1.19,-28.46 -13.17,-35.12z"/>
       </g>
      </g>
     </g>
     <g>
      <g>
       <path class="fil1" d="M1135.07 1037.19c-21.8,0 -39.81,-16.39 -40.4,-37.07 -1.11,-38.82 -1.15,-98.96 -1.1,-125.03 0.01,-7.07 6.05,-12.78 13.5,-12.78l210.13 0c7.58,0 13.68,5.91 13.5,13.11 -0.69,27.07 -2.3,89.85 -3.3,128.76 -0.47,18.38 -16.3,33.02 -35.66,33.02l-156.67 0z"/>
      </g>
      <g>
       <g>
        <g>
         <path class="fil6" d="M1087.29 1249.83l-12 -1.39 24.74 -192.15c1.43,-11.28 11.37,-19.78 23.13,-19.78l177.19 0c11.72,0 21.66,8.47 23.13,19.7 5.93,45.43 22.43,190.84 22.59,192.31l-12.02 1.23c-0.17,-1.46 -16.66,-146.79 -22.57,-192.12 -0.72,-5.49 -5.5,-9.63 -11.13,-9.63l-177.19 0c-5.65,0 -10.43,4.16 -11.13,9.68l-24.74 192.15z"/>
        </g>
        <g>
         <g>
          <path class="fil5" d="M1087.29 1249.83c0,0 0.1,-1.04 0.33,-3.03 0.25,-2.01 0.61,-4.94 1.07,-8.79 0.96,-7.73 2.38,-19.09 4.21,-33.72 3.69,-29.25 9.04,-71.56 15.67,-124 0.83,-6.55 1.69,-13.26 2.56,-20.12 0.24,-1.68 0.31,-3.49 1.01,-5.24 0.64,-1.73 1.78,-3.3 3.2,-4.57 1.45,-1.24 3.22,-2.2 5.16,-2.62 1.98,-0.48 3.92,-0.26 5.79,-0.31 15.22,-0.01 31.07,-0.03 47.48,-0.04 32.83,-0.02 67.95,-0.05 104.97,-0.07 4.63,0 9.29,-0 13.97,-0.01 2.34,0 4.69,0 7.05,-0 2.44,-0.1 5.05,0.57 7.12,1.93 2.1,1.33 3.72,3.32 4.6,5.57 0.93,2.32 0.85,4.63 1.2,6.86 0.54,4.53 1.07,9.08 1.61,13.66 2.16,18.32 4.37,37.02 6.61,56.09 4.49,38.13 9.14,77.67 13.92,118.26l-0.87 -0.66c3.79,-0.39 7.9,-0.81 12.02,-1.23l-0.7 0.82c-0.61,-5.24 -1.28,-10.9 -1.95,-16.58 -4.38,-37.32 -8.67,-73.87 -12.83,-109.34 -2.08,-17.74 -4.13,-35.21 -6.14,-52.38 -0.5,-4.29 -1,-8.56 -1.5,-12.82 -0.37,-4.2 -1.88,-8.18 -4.47,-11.49 -2.55,-3.33 -6.11,-5.88 -10.1,-7.37 -2,-0.73 -4.11,-1.15 -6.22,-1.33 -2.09,-0.14 -4.36,-0.05 -6.53,-0.08 -35.03,-0.02 -68.63,-0.04 -100.49,-0.06 -15.93,-0.01 -31.43,-0.02 -46.45,-0.04 -7.51,-0.01 -14.91,-0.01 -22.17,-0.02 -1.82,-0.01 -3.64,-0.02 -5.37,0.09 -1.74,0.21 -3.47,0.49 -5.11,1.06 -3.3,1.04 -6.28,2.86 -8.69,5.16 -2.44,2.28 -4.27,5.08 -5.41,8.08 -1.2,2.98 -1.37,6.21 -1.83,9.41 -0.83,6.37 -1.64,12.62 -2.44,18.73 -1.59,12.24 -3.12,23.95 -4.57,35.12 -2.91,22.33 -5.54,42.45 -7.85,60.09 -4.65,35.21 -8,60.47 -9.73,73.61l-0.13 -0.15c4.06,0.5 7.03,0.87 9.03,1.13 1.98,0.25 2.96,0.4 2.96,0.4 0,0 -0.92,-0.07 -2.89,-0.28 -2.02,-0.22 -5.03,-0.54 -9.13,-0.98l-0.15 -0.02 0.02 -0.14c1.65,-13.15 4.81,-38.43 9.23,-73.67 2.24,-17.65 4.79,-37.78 7.63,-60.11 1.43,-11.17 2.92,-22.89 4.48,-35.13 0.78,-6.12 1.57,-12.37 2.39,-18.74 0.44,-3.14 0.61,-6.48 1.87,-9.66 1.19,-3.15 3.1,-6.11 5.67,-8.51 2.53,-2.43 5.67,-4.34 9.15,-5.45 1.72,-0.61 3.55,-0.91 5.39,-1.13 1.87,-0.12 3.67,-0.11 5.49,-0.11 7.27,-0.01 14.66,-0.01 22.17,-0.02 15.03,-0.01 30.52,-0.02 46.45,-0.03 31.86,-0.02 65.46,-0.04 100.49,-0.06 2.21,0.03 4.34,-0.07 6.64,0.08 2.26,0.19 4.51,0.64 6.64,1.41 4.26,1.58 8.06,4.3 10.77,7.84 2.76,3.49 4.39,7.84 4.76,12.17 0.5,4.25 1,8.52 1.51,12.82 2.02,17.17 4.08,34.64 6.17,52.38 4.17,35.48 8.47,72.02 12.86,109.35 0.67,5.68 1.33,11.35 1.95,16.59l0.09 0.74 -0.79 0.08c-4.12,0.42 -8.24,0.84 -12.02,1.22l-0.78 0.08 -0.09 -0.74c-4.76,-40.58 -9.4,-80.12 -13.87,-118.25 -2.23,-19.06 -4.43,-37.78 -6.57,-56.09 -0.54,-4.58 -1.07,-9.13 -1.6,-13.66 -0.35,-2.25 -0.31,-4.6 -1.12,-6.54 -0.78,-1.99 -2.2,-3.75 -4.05,-4.92 -1.85,-1.2 -4.02,-1.78 -6.3,-1.69 -2.35,-0 -4.7,-0 -7.05,-0 -4.69,-0 -9.34,-0 -13.97,-0.01 -37.02,-0.02 -72.14,-0.05 -104.97,-0.07 -16.41,-0.02 -32.26,-0.03 -47.48,-0.04 -1.91,0.05 -3.81,-0.16 -5.51,0.27 -1.74,0.38 -3.33,1.23 -4.65,2.35 -1.28,1.15 -2.31,2.56 -2.9,4.13 -0.63,1.53 -0.71,3.26 -0.96,5 -0.9,6.88 -1.77,13.61 -2.63,20.19 -6.89,52.5 -12.44,94.88 -16.29,124.17 -1.93,14.56 -3.43,25.86 -4.45,33.56 -0.52,3.8 -0.91,6.7 -1.18,8.69 -0.27,1.95 -0.43,2.91 -0.43,2.91z"/>
         </g>
        </g>
       </g>
      </g>
      <g>
       <g>
        <path class="fil5" d="M1306.31 1002.4c0.02,-0 0.06,0.29 0.08,0.86 -0.04,0.56 0.24,1.45 -0.14,2.54 -0.3,2.23 -2.19,5.38 -5.91,7.82 -7.41,5.01 -20.25,8.1 -35.98,10.03 -31.64,3.71 -75.77,3.24 -124.08,-1.09 -6.02,-0.62 -12.19,-1.58 -17.52,-4.51 -5.4,-2.87 -8.93,-8.06 -10.56,-13.33 -1.76,-5.3 -2.25,-10.69 -2.8,-15.87 -0.51,-5.2 -1.01,-10.29 -1.49,-15.26 -1.79,-19.88 -2.85,-37.83 -3.42,-52.91 -0.6,-15.08 -0.72,-27.29 -0.73,-35.72 0,-4.22 0.04,-7.5 0.09,-9.72 0.03,-1.04 0.06,-1.87 0.07,-2.52 0.02,-0.57 0.05,-0.86 0.07,-0.86 0.03,0 0.06,0.29 0.08,0.86 0.02,0.65 0.05,1.48 0.09,2.52 0.05,2.32 0.12,5.57 0.21,9.71 0.19,8.43 0.49,20.63 1.22,35.69 0.72,15.06 1.89,32.98 3.76,52.83 0.5,4.96 1.02,10.04 1.54,15.24 0.56,5.18 1.07,10.49 2.77,15.57 1.61,5.07 4.86,9.81 9.88,12.48 4.97,2.74 10.94,3.7 16.89,4.31 48.18,4.31 92.26,4.95 123.77,1.52 15.68,-1.78 28.44,-4.71 35.77,-9.45 3.68,-2.31 5.56,-5.26 5.95,-7.41 0.42,-1.04 0.2,-1.91 0.29,-2.46 0.02,-0.57 0.05,-0.86 0.08,-0.87z"/>
       </g>
      </g>
     </g>
    </g>
    <g>
     <g>
      <g>
       <path class="fil9" d="M753.62 774.55c0,1.85 17.28,68.51 17.28,90.11 0,21.6 -20.37,39.5 -20.37,39.5l-22.22 -48.14 -9.26 -59.87 34.56 -21.6z"/>
      </g>
      <g>
       <path class="fil9" d="M542.34 768.14c-0.19,1.9 3.61,84.8 3.61,84.8l33.33 -3.09 -7.41 -55.54 -29.52 -26.17z"/>
      </g>
      <g>
       <path class="fil0" d="M587.91 698.64c-0.35,0.18 -1.39,0.51 -2.93,1.03 -9.16,3.13 -39.92,13.59 -43.72,40.48l-4.2 38.24 34.8 15.92 4.32 42.58 150.59 3.09 -3.7 -35.8 51.13 -11.24c0,0 -9.64,-46.16 -28.34,-70.86 -6.02,-7.95 -14.82,-13.32 -24.6,-15.28l-77.81 -15.56 -55.55 7.41z"/>
      </g>
      <g>
       <g>
        <g>
         <g>
          <path class="fil5" d="M661.06 547c-10.83,-1.71 -21.98,2.82 -30.06,9.99 -8.07,7.17 -13.46,16.71 -17.79,26.45 -8.43,18.96 -13.32,39.19 -18.18,59.28 -7.16,29.62 -14.34,59.41 -16.25,89.77 -1.91,30.36 7.5,48.29 21.06,75.74l47.95 -6.41 -0.08 -8.77 6.48 8.77 18.61 -2.78c0,0 5.58,-47 5.58,-46.86 0,0.14 8.88,44.77 8.88,44.77l15.51 -1.39c15.43,-59.07 -2.02,-97.94 6.75,-158.26 2.09,-14.35 5.39,-28.62 5.33,-43.11 -0.06,-14.49 -3.93,-29.63 -14.28,-40.12 -10.35,-10.49 -28.2,-14.78 -40.91,-7.08l1.39 0.02z"/>
         </g>
        </g>
       </g>
       <g>
        <g>
         <g>
          <g>
           <path class="fil7" d="M672.81 799.03c-0.02,0 -0.08,-0.22 -0.17,-0.67 -0.1,-0.51 -0.24,-1.17 -0.4,-2 -0.34,-1.83 -0.81,-4.41 -1.43,-7.71 -1.18,-6.71 -2.81,-16.43 -4.28,-28.52 -1.47,-12.08 -2.72,-26.57 -2.42,-42.68 0.2,-8.05 0.77,-16.5 1.95,-25.2 1.22,-8.69 3.14,-17.6 5.65,-26.58 5.3,-17.9 12.7,-34.17 16.3,-49.85 1.85,-7.81 2.87,-15.4 2.84,-22.51 -0.01,-7.11 -1.1,-13.73 -3.07,-19.46 -1.95,-5.74 -4.73,-10.58 -7.65,-14.46 -2.94,-3.87 -6.09,-6.74 -8.85,-8.81 -2.76,-2.1 -5.2,-3.3 -6.83,-4.13 -0.8,-0.35 -1.43,-0.63 -1.91,-0.84 -0.43,-0.2 -0.65,-0.3 -0.64,-0.32 0.01,-0.02 0.24,0.06 0.68,0.22 0.5,0.19 1.15,0.44 1.97,0.75 1.67,0.78 4.17,1.93 7,4 2.83,2.04 6.06,4.9 9.09,8.79 3,3.9 5.86,8.77 7.89,14.57 2.04,5.8 3.19,12.5 3.24,19.69 0.07,7.19 -0.93,14.86 -2.76,22.73 -3.58,15.81 -10.96,32.13 -16.23,49.93 -2.5,8.93 -4.41,17.79 -5.64,26.43 -1.19,8.65 -1.78,17.06 -2,25.08 -0.36,16.05 0.81,30.5 2.18,42.58 1.37,12.08 2.89,21.81 3.94,28.54 0.52,3.31 0.93,5.91 1.22,7.74 0.12,0.84 0.22,1.5 0.3,2.02 0.06,0.46 0.08,0.69 0.06,0.69z"/>
          </g>
         </g>
        </g>
       </g>
       <g>
        <g>
         <g>
          <g>
           <path class="fil7" d="M605.36 768.27c-0.02,0 -0.06,-0.19 -0.11,-0.56 -0.05,-0.43 -0.12,-0.98 -0.2,-1.66 -0.17,-1.54 -0.4,-3.67 -0.69,-6.37 -0.14,-1.39 -0.3,-2.93 -0.47,-4.61 -0.14,-1.69 -0.22,-3.53 -0.35,-5.5 -0.21,-3.95 -0.59,-8.44 -0.6,-13.43 -0.04,-2.49 -0.09,-5.1 -0.14,-7.81 -0.04,-2.72 0.09,-5.55 0.14,-8.47 0.03,-5.86 0.49,-12.11 0.89,-18.68 1.07,-13.13 2.89,-27.52 5.81,-42.46 3.03,-14.93 6.88,-28.94 10.93,-41.52 2.16,-6.25 4.13,-12.21 6.35,-17.66 1.09,-2.74 2.06,-5.41 3.13,-7.92 1.09,-2.5 2.13,-4.91 3.13,-7.21 1.93,-4.62 4.01,-8.66 5.72,-12.25 0.88,-1.79 1.66,-3.46 2.44,-4.98 0.81,-1.5 1.54,-2.87 2.21,-4.11 1.31,-2.41 2.35,-4.31 3.09,-5.67 0.34,-0.6 0.61,-1.08 0.83,-1.46 0.19,-0.33 0.3,-0.49 0.31,-0.48 0.02,0.01 -0.06,0.19 -0.22,0.53 -0.19,0.39 -0.43,0.89 -0.73,1.51 -0.7,1.39 -1.67,3.31 -2.91,5.76 -0.64,1.26 -1.35,2.64 -2.13,4.15 -0.72,1.55 -1.51,3.22 -2.35,5.01 -1.66,3.61 -3.69,7.66 -5.56,12.29 -0.98,2.3 -2,4.71 -3.06,7.22 -1.06,2.51 -2,5.19 -3.07,7.92 -2.19,5.45 -4.12,11.41 -6.25,17.65 -3.99,12.56 -7.8,26.55 -10.81,41.43 -2.92,14.9 -4.76,29.25 -5.89,42.34 -0.42,6.56 -0.92,12.78 -0.98,18.63 -0.06,2.92 -0.21,5.74 -0.2,8.45 0.03,2.71 0.05,5.31 0.07,7.8 -0.04,4.98 0.29,9.46 0.44,13.41 0.09,1.97 0.18,3.8 0.26,5.5 0.14,1.68 0.26,3.22 0.38,4.61 0.2,2.71 0.37,4.85 0.48,6.39 0.04,0.68 0.07,1.23 0.1,1.67 0.02,0.37 0.02,0.57 0,0.57z"/>
          </g>
         </g>
        </g>
       </g>
       <g>
        <g>
         <g>
          <g>
           <path class="fil7" d="M631.96 803.93c-0.02,0 -0.09,-0.18 -0.22,-0.56 -0.14,-0.43 -0.32,-0.98 -0.55,-1.67 -0.48,-1.54 -1.16,-3.69 -2.02,-6.43 -0.43,-1.41 -0.91,-2.96 -1.43,-4.66 -0.52,-1.7 -0.93,-3.59 -1.45,-5.61 -0.95,-4.04 -2.3,-8.59 -3.18,-13.75 -0.5,-2.57 -1.02,-5.26 -1.56,-8.06 -0.57,-2.8 -0.86,-5.75 -1.32,-8.79 -0.37,-3.05 -0.98,-6.18 -1.2,-9.44 -0.29,-3.26 -0.58,-6.62 -0.89,-10.06 -0.87,-13.78 -0.94,-29 0.34,-44.89 1.37,-15.9 3.98,-30.9 6.96,-44.4 0.81,-3.36 1.6,-6.64 2.37,-9.83 0.75,-3.19 1.73,-6.22 2.54,-9.19 1.6,-5.94 3.44,-11.38 5.08,-16.35 1.55,-5 3.35,-9.4 4.76,-13.31 1.4,-3.92 2.79,-7.23 3.93,-9.93 1.11,-2.65 1.99,-4.73 2.62,-6.22 0.29,-0.66 0.52,-1.19 0.71,-1.61 0.17,-0.36 0.26,-0.54 0.28,-0.53 0.02,0.01 -0.04,0.2 -0.17,0.57 -0.16,0.43 -0.36,0.97 -0.61,1.65 -0.58,1.51 -1.4,3.61 -2.43,6.29 -1.08,2.72 -2.4,6.05 -3.75,9.98 -1.35,3.93 -3.1,8.33 -4.6,13.34 -1.58,4.98 -3.39,10.41 -4.94,16.36 -0.79,2.96 -1.74,6 -2.48,9.18 -0.75,3.19 -1.52,6.46 -2.31,9.81 -2.92,13.48 -5.49,28.44 -6.85,44.28 -1.28,15.85 -1.24,31 -0.43,44.75 0.29,3.43 0.57,6.77 0.84,10.02 0.2,3.26 0.79,6.38 1.14,9.42 0.44,3.03 0.7,5.98 1.26,8.78 0.52,2.8 1.01,5.48 1.48,8.05 0.83,5.15 2.12,9.7 3.01,13.75 0.5,2.01 0.87,3.91 1.36,5.61 0.49,1.7 0.94,3.26 1.34,4.68 0.78,2.76 1.39,4.93 1.82,6.48 0.18,0.7 0.33,1.26 0.44,1.7 0.1,0.38 0.14,0.58 0.12,0.59z"/>
          </g>
         </g>
        </g>
       </g>
       <g>
        <g>
         <g>
          <g>
           <path class="fil7" d="M699.29 775.4c-0.02,0.01 -0.13,-0.19 -0.33,-0.58 -0.22,-0.44 -0.51,-1.02 -0.87,-1.75 -0.39,-0.79 -0.85,-1.74 -1.39,-2.85 -0.5,-1.16 -1.07,-2.49 -1.71,-3.98 -2.46,-6.01 -5.76,-14.88 -8.03,-26.28 -2.35,-11.35 -3.67,-25.24 -2.46,-40.54 0.61,-7.64 1.89,-15.63 3.92,-23.74 2,-8.12 4.63,-16.37 7.31,-24.8 2.68,-8.43 5.25,-16.68 7.13,-24.77 1.86,-8.09 3.1,-16.04 3.3,-23.65 0.24,-7.6 -0.53,-14.85 -2.28,-21.39 -1.71,-6.56 -4.54,-12.3 -7.82,-17.09 -6.59,-9.65 -14.95,-15.05 -21.01,-17.58 -3.08,-1.22 -5.58,-1.91 -7.3,-2.26 -0.81,-0.16 -1.46,-0.29 -1.96,-0.39 -0.44,-0.09 -0.67,-0.15 -0.67,-0.17 0,-0.02 0.23,0 0.68,0.06 0.51,0.07 1.16,0.17 1.99,0.29 1.74,0.29 4.28,0.92 7.42,2.09 6.17,2.44 14.72,7.81 21.48,17.55 3.37,4.82 6.28,10.65 8.06,17.28 1.81,6.62 2.63,13.96 2.41,21.64 -0.17,7.69 -1.4,15.7 -3.26,23.84 -1.87,8.15 -4.44,16.42 -7.13,24.86 -2.68,8.43 -5.31,16.65 -7.31,24.72 -2.03,8.06 -3.32,15.98 -3.95,23.57 -1.25,15.2 -0.02,29.01 2.22,40.32 2.16,11.35 5.33,20.23 7.67,26.27 0.6,1.5 1.14,2.83 1.61,4 0.5,1.13 0.93,2.09 1.29,2.89 0.32,0.74 0.57,1.33 0.77,1.79 0.17,0.41 0.25,0.62 0.23,0.63z"/>
          </g>
         </g>
        </g>
       </g>
      </g>
      <g>
       <g>
        <path class="fil12" d="M564.74 747.47c0.22,-0.03 0.83,3.44 1.7,9.05 0.94,6.11 2.09,13.61 3.37,21.92 1.31,8.3 2.51,15.8 3.48,21.91 0.88,5.61 1.37,9.09 1.15,9.14 -0.21,0.04 -1.09,-3.37 -2.26,-8.93 -1.17,-5.57 -2.61,-13.29 -3.94,-21.86 -1.34,-8.57 -2.32,-16.37 -2.91,-22.02 -0.58,-5.65 -0.79,-9.17 -0.57,-9.19z"/>
       </g>
      </g>
      <g>
       <g>
        <path class="fil12" d="M726.08 759.2c0.44,0.03 -0.04,12.76 -1.07,28.44 -1.03,15.69 -2.22,28.37 -2.67,28.34 -0.44,-0.03 0.04,-12.76 1.07,-28.45 1.03,-15.68 2.22,-28.37 2.67,-28.34z"/>
       </g>
      </g>
     </g>
     <g>
      <g>
       <path class="fil9" d="M706.01 1113.38l-17.25 -54.95c0,0 39.93,-12.11 39.66,-12.03 -0.27,0.08 13.09,68.95 13.09,68.95l-19.28 7.78 -16.23 -9.76z"/>
      </g>
      <g>
       <path class="fil3" d="M780.16 1120.34l-14.38 -4.83 -26.2 -10.13 -35.39 3.7 5.32 31.87 29.54 -2.39 50.21 -3.13 -1 -4.31c-1.07,-4.6 -4.02,-8.53 -8.1,-10.78z"/>
      </g>
      <g>
       <g>
        <path class="fil1" d="M744.64 1135.87c-0.44,0.07 -1.93,-6.71 -3.33,-15.15 -1.4,-8.41 -2.2,-15.42 -1.72,-15.34 0.39,-0.22 1.9,6.67 3.3,15.08 1.41,8.44 2.19,15.34 1.76,15.41z"/>
       </g>
      </g>
      <g>
       <polygon class="fil0" points="709.51,1140.95 708.6,1135.51 787.97,1129.85 789.27,1135.43 "/>
      </g>
      <g>
       <polygon class="fil9" points="602.1,1198.82 602.1,1145.85 645.92,1143.08 643.18,1200.13 622.36,1208.26 "/>
      </g>
      <g>
       <path class="fil3" d="M619.55 1199.77l-17.45 -0.95c0,0 -26.84,21.73 -29.43,33.64 -0.92,4.25 0,9.13 0,9.13l40.76 1.18c8.21,0 29.74,0.04 29.74,0.04l0 -42.68 -23.63 -0.36z"/>
      </g>
      <g>
       <path class="fil3" d="M659.23 1015.49c0.85,2.08 12.45,61.82 12.45,61.82l70.87 -15.96 -9.12 -40.44 -74.2 -5.43z"/>
      </g>
      <g>
       <path class="fil3" d="M586.07 1021.54c0,2.47 0,123.62 0,123.62l69.56 2.97 3.02 -126.59 -72.58 0z"/>
      </g>
      <g>
       <polygon class="fil0" points="643.18,1242.81 572.3,1242.81 572.3,1235.41 643.18,1235.41 "/>
      </g>
      <g>
       <g>
        <path class="fil1" d="M605.54 1202.13c0.45,0.13 -1.43,7.41 -2.89,16.53 -1.5,9.11 -2.04,16.6 -2.51,16.59 -0.41,0 -0.59,-7.61 0.93,-16.85 1.49,-9.24 4.07,-16.4 4.47,-16.27z"/>
       </g>
      </g>
      <g>
       <g>
        <path class="fil1" d="M640.17 1233.09c-0.29,0.1 -0.81,-2.96 -3.7,-6.71 -1.44,-1.83 -3.5,-3.8 -6.21,-5.24 -2.69,-1.46 -6.07,-2.26 -9.6,-2.11 -3.54,0.18 -6.82,1.3 -9.37,3 -2.56,1.69 -4.42,3.83 -5.69,5.8 -2.52,4 -2.75,7.1 -3.05,7.03 -0.09,-0.01 -0.14,-0.77 0.09,-2.13 0.23,-1.35 0.79,-3.3 1.99,-5.48 1.21,-2.15 3.1,-4.54 5.83,-6.44 2.71,-1.92 6.29,-3.19 10.11,-3.37 3.83,-0.17 7.5,0.76 10.38,2.41 2.9,1.63 5,3.83 6.41,5.86 1.4,2.06 2.14,3.94 2.5,5.26 0.36,1.33 0.38,2.09 0.29,2.11z"/>
       </g>
      </g>
     </g>
     <g>
      <g>
       <path class="fil1" d="M576.68 1016.45c-22.1,0 -40.36,-17.51 -40.97,-39.6 -1.13,-41.46 -1.16,-105.69 -1.11,-133.54 0.01,-7.55 6.14,-13.65 13.69,-13.65l213.06 0c7.69,0 13.87,6.31 13.69,14 -0.7,28.91 -2.33,95.96 -3.34,137.52 -0.48,19.63 -16.52,35.26 -36.16,35.26l-158.85 0z"/>
      </g>
      <g>
       <g>
        <g>
         <path class="fil6" d="M528.24 1243.55l-12.17 -1.48 25.08 -205.22c1.45,-12.04 11.54,-21.12 23.46,-21.12l179.66 0c11.88,0 21.96,9.04 23.44,21.04 6.01,48.51 22.74,203.82 22.91,205.39l-12.19 1.31c-0.17,-1.56 -16.89,-156.78 -22.89,-205.19 -0.73,-5.87 -5.58,-10.29 -11.28,-10.29l-179.66 0c-5.72,0 -10.57,4.44 -11.28,10.34l-25.09 205.23z"/>
        </g>
        <g>
         <g>
          <path class="fil5" d="M528.24 1243.55c0,0 0.1,-1.12 0.34,-3.24 0.25,-2.15 0.61,-5.28 1.09,-9.39 0.98,-8.26 2.42,-20.38 4.27,-36.01 3.75,-31.24 9.17,-76.43 15.89,-132.44 0.84,-7 1.71,-14.16 2.59,-21.48 0.25,-1.79 0.31,-3.72 1.03,-5.6 0.65,-1.85 1.8,-3.52 3.24,-4.88 1.47,-1.33 3.26,-2.34 5.23,-2.8 2,-0.52 3.97,-0.28 5.87,-0.33 15.43,-0.02 31.5,-0.03 48.14,-0.05 33.29,-0.02 68.9,-0.05 106.43,-0.07 4.69,-0 9.42,-0 14.17,-0.01 2.38,0 4.76,-0 7.15,-0 2.47,-0.11 5.12,0.61 7.21,2.06 2.13,1.42 3.77,3.55 4.67,5.95 0.94,2.48 0.86,4.94 1.22,7.33 0.54,4.83 1.09,9.7 1.63,14.59 2.19,19.56 4.43,39.54 6.7,59.9 4.55,40.72 9.27,82.96 14.11,126.3l-0.88 -0.71c3.84,-0.41 8.01,-0.86 12.19,-1.31l-0.71 0.88c-0.63,-5.59 -1.3,-11.64 -1.98,-17.71 -4.44,-39.86 -8.79,-78.89 -13.01,-116.78 -2.11,-18.94 -4.19,-37.6 -6.22,-55.94 -0.51,-4.58 -1.02,-9.15 -1.52,-13.69 -0.37,-4.49 -1.91,-8.74 -4.54,-12.28 -2.58,-3.55 -6.2,-6.28 -10.24,-7.86 -2.03,-0.78 -4.16,-1.23 -6.31,-1.42 -2.12,-0.15 -4.42,-0.06 -6.61,-0.09 -35.52,-0.02 -69.59,-0.04 -101.89,-0.06 -16.15,-0.01 -31.87,-0.02 -47.1,-0.04 -7.62,-0 -15.11,-0.01 -22.49,-0.02 -1.85,-0.01 -3.69,-0.02 -5.44,0.1 -1.76,0.22 -3.52,0.52 -5.17,1.13 -3.35,1.11 -6.37,3.05 -8.81,5.51 -2.48,2.43 -4.33,5.43 -5.48,8.63 -1.22,3.18 -1.39,6.63 -1.86,10.05 -0.84,6.8 -1.66,13.47 -2.47,20.01 -1.61,13.06 -3.16,25.58 -4.63,37.5 -2.96,23.85 -5.62,45.34 -7.96,64.18 -4.72,37.6 -8.11,64.59 -9.87,78.61l-0.13 -0.16c4.11,0.54 7.13,0.93 9.15,1.2 2.01,0.27 3,0.43 3,0.43 0,0 -0.93,-0.08 -2.93,-0.3 -2.05,-0.23 -5.1,-0.57 -9.26,-1.04l-0.15 -0.02 0.02 -0.15c1.67,-14.04 4.88,-41.04 9.36,-78.68 2.27,-18.85 4.86,-40.35 7.74,-64.2 1.44,-11.93 2.96,-24.45 4.54,-37.52 0.79,-6.54 1.6,-13.21 2.43,-20.02 0.45,-3.35 0.62,-6.92 1.9,-10.31 1.2,-3.37 3.14,-6.53 5.74,-9.09 2.57,-2.59 5.75,-4.64 9.28,-5.82 1.75,-0.65 3.6,-0.97 5.46,-1.21 1.89,-0.13 3.72,-0.11 5.56,-0.11 7.37,-0.01 14.87,-0.02 22.49,-0.02 15.23,-0.01 30.94,-0.02 47.1,-0.04 32.31,-0.02 66.37,-0.04 101.89,-0.06 2.24,0.03 4.4,-0.07 6.73,0.09 2.29,0.2 4.57,0.68 6.74,1.51 4.31,1.69 8.17,4.59 10.92,8.37 2.8,3.72 4.45,8.37 4.83,12.99 0.51,4.54 1.02,9.11 1.53,13.69 2.05,18.34 4.14,37 6.26,55.94 4.23,37.89 8.59,76.93 13.04,116.79 0.68,6.07 1.35,12.11 1.98,17.71l0.09 0.8 -0.8 0.08c-4.18,0.45 -8.35,0.9 -12.19,1.31l-0.79 0.09 -0.09 -0.79c-4.83,-43.34 -9.53,-85.58 -14.07,-126.3 -2.26,-20.36 -4.48,-40.34 -6.66,-59.9 -0.54,-4.89 -1.08,-9.75 -1.62,-14.59 -0.35,-2.41 -0.31,-4.92 -1.13,-6.99 -0.79,-2.12 -2.23,-4 -4.11,-5.25 -1.87,-1.28 -4.07,-1.9 -6.38,-1.81 -2.39,0 -4.77,-0 -7.15,-0 -4.75,-0 -9.47,-0 -14.17,-0.01 -37.53,-0.03 -73.15,-0.05 -106.43,-0.07 -16.65,-0.02 -32.71,-0.03 -48.14,-0.05 -1.94,0.05 -3.87,-0.17 -5.59,0.29 -1.76,0.4 -3.38,1.31 -4.72,2.51 -1.3,1.23 -2.35,2.74 -2.94,4.42 -0.64,1.64 -0.72,3.48 -0.97,5.34 -0.91,7.35 -1.8,14.54 -2.67,21.56 -6.98,56.07 -12.62,101.33 -16.52,132.61 -1.96,15.56 -3.48,27.62 -4.51,35.84 -0.52,4.06 -0.92,7.15 -1.19,9.28 -0.28,2.08 -0.44,3.11 -0.44,3.11z"/>
         </g>
        </g>
       </g>
      </g>
      <g>
       <g>
        <path class="fil5" d="M750.32 979.29c0.03,-0 0.06,0.3 0.09,0.92 -0.04,0.6 0.24,1.55 -0.15,2.7 -0.3,2.39 -2.21,5.75 -5.99,8.35 -7.52,5.34 -20.54,8.65 -36.49,10.71 -32.08,3.96 -76.83,3.46 -125.81,-1.16 -6.11,-0.66 -12.36,-1.69 -17.76,-4.81 -5.47,-3.06 -9.05,-8.61 -10.71,-14.24 -1.78,-5.65 -2.28,-11.42 -2.84,-16.95 -0.52,-5.56 -1.02,-10.99 -1.51,-16.3 -1.82,-21.24 -2.89,-40.4 -3.47,-56.51 -0.61,-16.1 -0.73,-29.15 -0.74,-38.16 0,-4.5 0.03,-8 0.09,-10.37 0.03,-1.11 0.06,-2 0.07,-2.7 0.02,-0.61 0.05,-0.92 0.08,-0.92 0.03,0 0.06,0.31 0.08,0.92 0.02,0.7 0.05,1.58 0.09,2.7 0.05,2.48 0.12,5.95 0.21,10.37 0.19,9 0.49,22.03 1.24,38.11 0.73,16.09 1.91,35.22 3.81,56.43 0.51,5.3 1.03,10.73 1.56,16.27 0.57,5.54 1.09,11.21 2.81,16.63 1.63,5.42 4.93,10.48 10.02,13.33 5.04,2.93 11.09,3.95 17.13,4.6 48.85,4.61 93.55,5.29 125.5,1.63 15.9,-1.9 28.83,-5.03 36.27,-10.09 3.73,-2.47 5.64,-5.62 6.03,-7.91 0.43,-1.11 0.2,-2.04 0.3,-2.63 0.02,-0.6 0.05,-0.92 0.07,-0.92z"/>
       </g>
      </g>
     </g>
    </g>
   </g>
  </g>
 </g>
</svg>
