<svg width="120" height="156" viewBox="0 0 120 156" fill="none" xmlns="http://www.w3.org/2000/svg">
<path d="M99.2671 139.818C99.2262 139.565 99.191 139.305 99.1442 138.988C98.6818 139.363 98.2369 139.697 97.8271 140.06C97.6047 140.256 97.4408 140.279 97.1774 140.106C96.0242 139.34 95.0876 138.349 94.1978 137.317C91.6046 134.321 89.4562 131.025 87.4718 127.625C83.099 120.116 79.6746 112.199 77.0111 103.953C76.976 103.849 76.935 103.751 76.8296 103.647C76.7828 104.068 76.7477 104.483 76.695 104.903C76.5077 106.402 76.5135 107.906 76.5135 109.41C76.5194 122.583 76.5135 135.75 76.5135 148.923C76.5135 149.453 76.5135 149.453 75.9574 149.453C73.6569 149.453 71.3564 149.459 69.05 149.447C68.7748 149.447 68.6695 149.488 68.6578 149.793C68.6051 150.922 68.4997 152.052 68.4412 153.181C68.4295 153.452 68.3534 153.521 68.0841 153.521C66.6265 153.51 65.1631 153.516 63.7055 153.516C55.7443 153.516 47.7891 153.51 39.8279 153.527C39.3948 153.527 39.3128 153.406 39.3713 153.02C39.5762 151.643 40.0621 150.415 41.2094 149.511C41.0865 149.407 40.9577 149.459 40.8406 149.459C37.5449 149.453 34.2434 149.459 30.9477 149.447C30.6492 149.447 30.5146 149.528 30.4092 149.805C29.9409 151.015 29.4492 152.213 28.9516 153.412C28.7058 154.005 28.1145 154.368 27.535 154.328C26.9086 154.288 26.4052 153.913 26.2062 153.343C26.0716 152.962 26.1125 152.582 26.2647 152.213C26.5808 151.435 26.8969 150.652 27.213 149.874C27.2657 149.747 27.3067 149.62 27.3594 149.465C24.7369 149.465 22.1612 149.465 19.5797 149.465C19.1641 149.292 18.9065 148.848 19.0236 148.491C19.2226 148.398 19.4392 148.427 19.6441 148.427C22.0851 148.427 24.5262 148.427 26.9672 148.427C27.096 148.427 27.2189 148.427 27.3477 148.422C27.5818 148.41 27.6052 148.312 27.4823 148.133C26.3642 146.491 25.9779 144.613 25.7086 142.705C25.5213 141.38 25.4335 140.037 25.4628 138.7C25.5213 135.842 25.7379 132.99 26.5633 130.224C27.0374 128.633 27.6813 127.1 28.2726 125.55C29.8355 121.436 31.3809 117.321 32.9556 113.213C32.9849 113.138 33.0141 113.057 33.0493 112.982C33.98 110.522 34.9107 108.067 35.8474 105.606C37.4747 101.308 39.1021 97.0145 40.7353 92.7157C41.0982 91.7591 41.4553 90.7968 41.8241 89.846C41.9938 89.4023 41.9821 89.3158 41.5723 89.0565C40.3489 88.2901 39.2016 87.4257 38.2064 86.3827C36.9127 85.0286 35.8064 83.5361 34.9225 81.888C33.6054 79.4332 32.7332 76.8343 32.259 74.1087C32.0131 72.6911 31.8844 71.2678 31.8492 69.8271C31.738 65.7531 32.4639 61.8 33.6229 57.9104C34.8347 53.9458 36.5557 50.2174 38.9791 46.8233C39.0611 46.7081 39.1313 46.5929 39.266 46.5295C39.664 46.6101 39.8865 46.8694 40.0035 47.2382C39.6289 47.9816 39.1021 48.6328 38.6689 49.3416C36.3508 53.1448 34.7995 57.2419 33.8337 61.5695C33.1897 64.445 32.8795 67.355 33.02 70.2881C33.178 73.6534 33.8746 76.9092 35.303 79.9979C36.1283 81.7843 37.1352 83.4496 38.4406 84.9306C39.2543 85.8468 40.1031 86.74 41.1392 87.4142C42.9655 88.607 44.669 89.9612 46.4544 91.2059C47.1744 91.7073 47.912 92.1913 48.7549 92.4909C49.1823 92.6408 49.6154 92.7272 50.072 92.635C50.3823 92.5716 50.435 92.4449 50.3062 92.174C49.7208 90.9697 48.9891 89.8633 48.07 88.8779C47.4788 88.244 46.8583 87.6505 46.1617 87.1319C46.1032 87.0915 46.0505 87.0454 46.0095 86.9936C45.8573 86.8149 45.8105 86.6248 45.9744 86.4288C46.1442 86.2271 46.3373 86.256 46.5305 86.3943C47.2447 86.9071 47.912 87.4718 48.5149 88.1172C49.6564 89.3389 50.552 90.7161 51.2369 92.2316C51.3423 92.4679 51.4886 92.5198 51.7345 92.4621C52.4955 92.2835 53.1394 91.9089 53.6897 91.3788C54.0643 91.0215 54.0702 90.9293 53.8184 90.4799C52.7531 88.5955 51.5765 86.7803 50.2711 85.0458C50.1774 84.9248 50.0779 84.8096 50.0076 84.6713C49.9198 84.5099 49.914 84.3543 50.0603 84.2218C50.2008 84.095 50.3647 84.0835 50.5286 84.1699C50.7218 84.2679 50.8447 84.4408 50.9677 84.6079C52.2379 86.2617 53.3677 88.0135 54.3863 89.8287C54.5911 90.1917 54.8487 90.2782 55.2175 90.1917C56.5697 89.8863 57.0029 89.0738 56.7102 87.7945C56.5639 87.1664 56.2068 86.6248 55.8263 86.1061C55.0829 85.0804 54.275 84.1066 53.4028 83.1903C53.3853 83.1673 53.3619 83.15 53.3443 83.1269C52.8643 82.5968 52.8819 82.4988 53.4965 82.1358C53.8067 81.9514 54.1287 81.7785 54.4331 81.5768C54.7082 81.3982 54.9248 81.4212 55.1824 81.6344C56.0663 82.3605 57.0497 82.9137 58.1971 83.1154C58.8117 83.2249 59.0107 83.0174 58.8644 82.4124C58.5424 81.1216 57.6644 80.2457 56.5697 79.5657C55.0302 78.6034 53.2975 78.1309 51.5355 77.7563C50.8389 77.6065 50.1306 77.4797 49.4223 77.376C49.0944 77.3299 48.9071 77.1628 48.7842 76.8631C47.8593 74.5466 47.2447 72.1609 47.0105 69.6773C46.9227 68.7323 46.829 67.7815 46.8466 66.8307C46.9286 63.1427 47.7247 59.6045 49.2115 56.2162C49.2701 56.0779 49.3345 55.9338 49.4457 55.8301C49.873 55.7667 50.072 56.0664 50.2828 56.3487C50.3296 56.7175 50.072 56.9941 49.9667 57.3168C49.8964 57.5416 49.7969 57.7548 49.7149 57.9737C47.953 62.6529 47.5315 67.4415 48.5618 72.3338C48.4974 72.1609 48.5676 71.9996 48.632 71.8382C49.4925 69.5736 50.3354 67.3032 51.2135 65.0443C51.3599 64.664 51.354 64.3586 51.0613 64.0589C50.8564 63.8515 50.7101 63.5921 50.5579 63.3444C49.832 62.1803 49.8554 61.0451 50.7101 59.9503C50.9091 59.6967 51.0028 59.4432 50.9677 59.1147C50.9267 58.7344 50.9384 58.3425 50.9735 57.9564C51.2311 56.7982 51.875 55.9799 53.0867 55.6918C53.4438 55.6054 53.4965 55.3115 53.6136 55.0579C53.9589 54.3491 54.4682 53.8363 55.276 53.6461C55.5687 53.577 55.6507 53.3292 55.7326 53.0987C56.277 51.6177 56.8449 50.1483 57.4068 48.6731C59.1161 44.1726 60.8196 39.6664 62.5289 35.1601C63.2606 33.2297 63.9982 31.305 64.7182 29.3746C65.8304 26.4415 66.9426 23.5084 68.0548 20.5695C68.207 20.1604 68.1836 20.1258 67.7387 20.12C67.4285 20.1143 67.1182 20.1373 66.8138 20.1143C66.4919 20.0912 66.4158 20.2238 66.4158 20.5234C66.4158 21.5088 66.1699 22.4366 65.6606 23.2894C65.1923 24.0789 64.5484 24.707 63.7289 25.1392C63.4538 25.2832 63.3308 25.4561 63.2899 25.7673C63.0381 27.6286 62.3474 29.3054 61.001 30.6884C59.5025 32.3134 57.6995 33.3219 55.4107 33.3046C53.8243 33.3564 52.4487 32.7687 51.1725 31.9158C49.7267 30.9477 48.7608 29.5878 47.953 28.0953C47.3266 26.937 46.8759 25.7269 46.6417 24.4361C46.589 24.1423 46.4661 24.05 46.1559 24.0961C44.6456 24.3382 43.7148 23.7965 43.1821 22.3789C42.9597 21.7912 42.8309 21.1803 42.8485 20.5522C42.8602 20.2468 42.7431 20.1143 42.4328 20.1373C42.3216 20.1431 42.2104 20.1373 42.0933 20.1373C28.9809 20.1373 15.8743 20.1373 2.76183 20.1373C1.91888 20.1373 1.91888 20.1373 1.91888 20.9787C1.91888 63.1715 1.91888 105.364 1.91888 147.557C1.91888 148.41 1.91889 148.41 2.80281 148.41C4.93358 148.41 7.0702 148.41 9.20098 148.41C9.42342 148.41 9.65171 148.398 9.87416 148.439C9.97953 148.473 10.12 148.531 10.0381 148.652C9.84489 148.94 10.0381 149.182 10.1025 149.441C7.09947 149.447 4.09648 149.447 1.0935 149.459C0.88276 149.459 0.818373 149.39 0.841788 149.199C0.853496 149.119 0.841788 149.032 0.841788 148.952C0.841788 105.837 0.841786 62.7162 0.830078 19.6014C0.830078 19.1635 0.947158 19.077 1.37448 19.077C15.2011 19.0886 29.0277 19.0828 42.8543 19.0943C43.1763 19.0943 43.3343 19.0137 43.4865 18.7198C44.1714 17.3886 45.3188 16.5531 46.6651 15.9538C46.9168 15.8385 47.0925 15.6887 47.2388 15.4524C48.0583 14.081 49.3813 13.4817 50.8974 13.2224C52.3257 12.9803 53.7482 13.0668 55.1648 13.3203C55.3229 13.3491 55.4458 13.378 55.5921 13.2685C56.5522 12.5366 57.6234 12.4732 58.7415 12.8075C60.4625 13.3261 61.7971 14.8704 61.9552 16.4897C61.9962 16.8931 61.9201 17.2792 61.8206 17.7171C62.3123 17.6191 62.7689 17.5039 63.243 17.5212C64.2909 17.5673 65.1396 17.9706 65.7367 18.8293C65.8714 19.0194 66.0119 19.1001 66.246 19.0943C66.9485 19.077 67.6509 19.0713 68.3534 19.0943C68.646 19.1059 68.7631 19.0079 68.8568 18.7486C69.6471 16.628 70.449 14.5132 71.2627 12.4041C72.293 9.73608 74.0959 7.84021 76.9584 7.06228C78.0062 6.77415 79.0833 6.68195 80.1663 6.80873C80.4531 6.8433 80.5468 6.75111 80.6346 6.50908C81.0385 5.39693 81.4658 4.29053 81.8873 3.17838C82.2737 2.15842 82.859 1.29981 83.9303 0.890673C86.0493 0.0724019 88.2738 1.80691 87.9986 4.04275C87.9108 4.75153 87.6357 5.39692 87.3898 6.05384C87.0211 7.03346 86.6523 8.01885 86.2659 8.99271C86.1781 9.21745 86.2015 9.34422 86.3888 9.5171C87.7996 10.8252 88.7187 12.4041 88.9996 14.3057C89.2279 15.8558 88.9762 17.3541 88.4201 18.8177C86.6991 23.3586 84.9722 27.8994 83.2512 32.4344C83.2103 32.5497 83.181 32.6707 83.1459 32.7917C83.1985 33.0683 83.0463 33.3046 82.9527 33.5408C80.6112 39.7125 78.2755 45.8898 75.934 52.0614C74.9857 54.5566 74.0315 57.0575 73.0949 59.5526C73.0598 59.6448 73.0247 59.7313 72.9954 59.8235C72.8725 60.1808 72.8842 60.2096 73.2588 60.2096C74.8218 60.2096 76.2091 59.7082 77.3975 58.7171C78.3165 57.9449 78.6502 56.8789 78.8141 55.7437C79.0599 54.0437 78.7438 52.3841 78.3575 50.7418C78.2053 50.0907 78.2053 50.0388 78.7614 49.6354C81.0443 47.9989 83.4502 46.5468 85.8971 45.1638C87.5889 44.2072 89.3099 43.3025 91.0426 42.4266C91.2358 42.3286 91.4582 42.1154 91.6631 42.4266C93.8173 46.2586 95.1695 50.3327 95.3685 54.7352C95.5266 58.233 94.7949 61.558 93.3665 64.7446C93.2963 64.8945 93.2378 65.0501 93.1792 65.1999C93.1617 65.7127 92.8046 66.0758 92.5763 66.4849C91.9792 67.5567 91.2358 68.5364 90.4104 69.4526C87.3781 72.8006 83.5322 74.6503 79.1009 75.4283C77.2687 75.751 75.4189 75.8432 73.5691 75.751C71.6725 75.653 69.7993 75.3707 67.967 74.8751C67.3582 74.7137 67.3524 74.7195 67.1299 75.313C65.3445 80.0671 63.5299 84.8153 61.7327 89.5694C59.7834 94.721 57.8517 99.8842 55.8556 105.019C55.4048 106.171 55.2058 107.352 55.0653 108.562C54.796 110.937 54.4741 113.305 54.1755 115.679C53.7482 119.05 53.3033 122.421 52.8526 125.792C52.4838 128.529 52.1209 131.272 51.7404 134.01C51.5296 135.514 51.3189 137.018 51.114 138.527C51.0555 138.948 51.0789 138.977 51.5882 139.046C54.6731 139.455 57.758 139.887 60.843 140.314C63.9396 140.74 67.0421 141.155 70.1388 141.593C70.5954 141.656 71.0578 141.697 71.5144 141.783C71.8012 141.835 71.9125 141.737 71.9417 141.449C72.1173 139.956 72.2578 138.458 72.4217 136.96C72.6149 135.174 72.8022 133.393 72.9837 131.607C73.1593 129.832 73.3525 128.063 73.5281 126.294C73.7096 124.496 73.8969 122.698 74.0784 120.894C74.2598 119.079 74.4413 117.27 74.6228 115.454C74.775 113.904 74.9389 112.348 75.0852 110.798C75.2374 109.202 75.4013 107.612 75.5477 106.015C75.6647 104.684 75.8052 103.347 75.9281 102.016C75.9984 101.261 76.0804 100.507 76.133 99.7459C76.1564 99.4463 76.1623 99.1408 76.3379 98.87C76.5779 98.9564 76.5779 99.1697 76.6306 99.3483C77.3623 101.786 78.1058 104.223 78.9487 106.626C80.219 110.234 81.6356 113.778 83.222 117.264C84.0708 119.131 84.9547 120.981 85.9088 122.796C88.0572 126.876 90.3928 130.84 93.1734 134.534C94.0105 135.646 94.9119 136.701 95.8603 137.726C96.1998 138.095 96.6037 138.401 96.9783 138.729C97.3471 139.046 97.4291 139.046 97.8037 138.746C99.9169 137.058 102.018 135.346 104.12 133.652C106.555 131.693 108.984 129.728 111.414 127.763C111.718 127.515 112.017 127.267 112.327 127.025C112.666 126.755 112.672 126.709 112.397 126.357C110.647 124.104 108.99 121.793 107.416 119.419C105.49 116.509 103.734 113.507 102.206 110.372C100.69 107.266 99.6711 103.993 98.8925 100.645C97.9618 96.6688 97.1247 92.6811 96.3344 88.6762C95.3861 83.8761 94.4846 79.0644 93.63 74.247C93.349 72.668 93.0621 71.0891 92.7929 69.5102C92.7636 69.3373 92.6992 69.1529 92.8339 68.9916C93.1265 68.859 93.4251 68.7323 93.7412 68.9397C94.2095 71.5905 94.6544 74.2412 95.1461 76.8862C95.9071 80.966 96.6739 85.0516 97.4759 89.1257C98.4593 94.116 99.4603 99.112 100.842 104.016C101.878 107.692 103.593 111.081 105.501 114.383C107.983 118.67 110.805 122.727 113.919 126.593C114.118 126.841 114.101 126.939 113.855 127.123C113.064 127.723 113.076 127.734 113.708 128.501C115.652 130.857 117.589 133.226 119.539 135.571C119.744 135.819 119.697 135.923 119.48 136.124C112.988 142.019 106.497 147.914 100.016 153.821C99.4955 154.293 98.9218 154.714 98.4886 155.273C98.4301 155.273 98.3774 155.273 98.3188 155.273C97.9149 154.61 97.4408 153.982 97.1949 153.222C96.8086 152.017 96.8905 150.871 97.511 149.753C98.4652 148.035 98.8867 146.163 99.1559 144.244C99.2086 143.892 99.2203 143.529 99.2496 143.178C99.273 143.103 99.314 143.039 99.3959 143.011C100.005 142.924 100.619 142.901 101.234 142.89C102.13 142.878 103.019 142.797 103.915 142.786C103.956 142.786 103.997 142.786 104.038 142.78C104.155 142.757 104.331 142.774 104.331 142.619C104.331 142.446 104.149 142.469 104.038 142.469C103.423 142.469 102.809 142.429 102.194 142.503C101.334 142.607 100.461 142.486 99.6008 142.607C99.5189 142.619 99.4369 142.59 99.3608 142.544C99.314 142.509 99.2964 142.469 99.3198 142.411C99.3198 141.858 99.314 141.311 99.314 140.757C99.2789 140.642 99.273 140.521 99.3198 140.406C99.513 140.268 99.7472 140.273 99.9637 140.245C101.404 140.043 102.844 139.835 104.29 139.634C104.413 139.616 104.541 139.605 104.658 139.565C104.746 139.536 104.869 139.513 104.846 139.38C104.822 139.271 104.717 139.248 104.618 139.236C104.489 139.219 104.366 139.248 104.243 139.265C102.756 139.461 101.281 139.691 99.794 139.887C99.6535 139.905 99.5189 139.945 99.3784 139.91C99.3374 139.882 99.3023 139.853 99.2671 139.818Z" fill="#44475B"/>
<path d="M91.6864 42.4092C91.5635 42.2766 91.4406 42.3343 91.3118 42.4034C86.939 44.6565 82.6131 46.9961 78.6208 49.8831C78.3808 50.056 78.3574 50.2058 78.4276 50.4709C78.8608 52.1074 79.1418 53.7555 78.9837 55.4612C78.7496 57.9679 77.5613 59.3912 74.7924 60.1345C74.2363 60.2844 73.6627 60.3247 73.0832 60.3477C72.7436 60.3593 72.7261 60.2555 72.8314 59.9732C74.0959 56.654 75.3544 53.3348 76.613 50.0099C78.7555 44.3626 80.8921 38.7154 83.0346 33.0682C83.0755 32.9645 83.1282 32.8665 83.1751 32.7686C85.8854 34.722 88.1625 37.0962 90.0767 39.8103C90.6679 40.6401 91.2533 41.4814 91.6864 42.4092Z" fill="#00D09C"/>
<path d="M93.7585 68.9293C93.4483 68.8947 93.1556 68.9869 92.857 69.0272C92.7341 69.1483 92.5761 69.1886 92.4063 69.2116C91.897 69.275 91.3936 69.3557 90.8843 69.4191C90.7204 69.4422 90.5507 69.4825 90.416 69.3384C91.5107 68.0649 92.4297 66.6762 93.2024 65.1895C93.5888 66.3016 93.8522 67.4483 94.1566 68.5835C94.2737 69.01 93.8463 68.7622 93.7585 68.9293Z" fill="#00D09C"/>
<path d="M99.2669 139.818C99.2961 139.824 99.3196 139.83 99.3488 139.841C99.5069 140.037 99.4835 140.233 99.3488 140.429C99.343 140.533 99.3371 140.637 99.3254 140.746C99.1791 140.441 99.2961 140.124 99.2669 139.818Z" fill="#C7C6D6"/>
<path d="M99.3376 142.4C99.361 142.418 99.3669 142.435 99.3493 142.464C99.4839 142.665 99.5015 142.867 99.3434 143.063C99.32 143.098 99.2908 143.132 99.2673 143.161C99.2732 142.907 99.1971 142.642 99.3376 142.4Z" fill="#CBCAD8"/>
<path d="M90.4156 69.3374C91.2293 69.2337 92.0429 69.13 92.8566 69.0205C93.4244 72.2244 93.9805 75.4341 94.5718 78.6381C95.4147 83.2365 96.2811 87.835 97.2411 92.4104C98.1367 96.6919 98.9738 100.985 100.279 105.163C101.38 108.695 103.083 111.974 104.951 115.166C107.245 119.096 109.833 122.83 112.654 126.409C112.865 126.674 112.83 126.789 112.584 126.985C107.632 130.973 102.685 134.96 97.7504 138.965C97.5045 139.167 97.3582 139.15 97.124 138.96C95.5669 137.692 94.3083 136.153 93.1083 134.569C89.8712 130.281 87.2253 125.648 84.8428 120.86C82.3023 115.76 80.1598 110.493 78.3451 105.099C77.6953 103.163 77.1041 101.21 76.5246 99.2504C76.4953 99.1467 76.4602 99.043 76.3724 98.945C76.2846 99.8497 76.1968 100.754 76.109 101.665C75.8397 104.483 75.5763 107.301 75.3011 110.118C75.0143 113.098 74.7158 116.083 74.4172 119.062C74.1538 121.701 73.8787 124.334 73.6035 126.974C73.3167 129.792 73.024 132.604 72.7313 135.421C72.5147 137.525 72.2806 139.622 72.0757 141.726C72.0464 142.008 71.9118 141.939 71.7479 141.922C69.4181 141.605 67.0824 141.288 64.7526 140.971C61.6033 140.539 58.454 140.106 55.2988 139.668C53.9407 139.478 52.5826 139.282 51.2187 139.109C50.967 139.075 50.9436 138.994 50.9787 138.769C51.4938 135.076 52.0031 131.388 52.5007 127.694C52.9983 123.971 53.4783 120.249 53.9583 116.526C54.3856 113.224 54.7954 109.923 55.2168 106.626C55.2695 106.2 55.4744 105.814 55.6266 105.416C59.4784 95.234 63.336 85.0575 67.1878 74.8752C67.2873 74.6159 67.3927 74.5928 67.6385 74.6562C70.7352 75.5033 73.8845 75.8375 77.0865 75.5609C81.992 75.1403 86.3297 73.4403 89.8419 69.931C90.0292 69.7293 90.2224 69.5334 90.4156 69.3374Z" fill="#FEFEFE"/>
<path d="M51.7984 60.2441C52.0325 61.143 52.5711 61.7539 53.4316 62.0766C53.6482 62.1572 53.8882 62.2379 53.9877 61.9325C54.0814 61.6559 53.853 61.5925 53.6482 61.5119C53.0628 61.2986 52.6647 60.8953 52.454 60.3132C52.3955 60.1577 52.372 59.9848 52.1555 59.9617C52.1203 59.956 52.0676 59.9733 52.0735 59.9099C52.1028 59.1953 51.8159 58.4808 52.0852 57.7547C52.3545 57.0229 53.3496 56.3832 54.0755 56.5043C54.2511 56.5331 54.2394 56.6771 54.2745 56.7808C54.5087 57.4205 54.8892 57.9506 55.4102 58.3943C55.5858 58.5442 55.7672 58.6479 55.9604 58.452C56.1829 58.2272 55.9897 58.0889 55.8258 57.9506C55.3341 57.5357 54.9945 57.0229 54.8014 56.4178C54.7662 56.3141 54.7604 56.1585 54.6492 56.1355C54.2218 56.049 54.4209 55.8012 54.5028 55.5995C54.8541 54.7179 55.5272 54.3894 56.4931 54.6142C57.3419 54.8101 58.0736 55.2365 58.7761 55.7206C59.8766 56.4812 60.9888 57.2073 62.1713 57.8642C62.1713 57.1381 62.1713 56.4409 62.1713 55.7436C62.1713 55.5477 62.0366 55.4555 61.902 55.3518C61.0122 54.6718 60.1751 53.9399 59.5546 53.0007C59.3556 52.701 59.1858 52.3783 59.1156 52.0268C59.0395 51.6638 59.18 51.5024 59.5546 51.5024C59.6775 51.5024 59.8063 51.5197 59.9293 51.5543C61.4688 52.0441 62.944 52.6665 64.2142 53.6806C65.8182 54.9657 66.6611 56.6944 67.1704 58.6191C67.264 58.9763 67.387 59.3452 67.4045 59.7082C67.4338 60.1807 67.6738 60.3421 68.1011 60.4631C69.7519 60.9356 71.4202 61.2583 73.1529 61.2007C74.8154 61.143 76.355 60.7224 77.7247 59.7543C79.1706 58.7286 79.7267 57.2476 79.8906 55.5823C80.0428 54.0437 79.8965 52.5166 79.4984 51.0241C79.3696 50.5401 79.516 50.3211 79.8848 50.0676C82.8 48.0507 85.8615 46.2759 88.9991 44.6163C89.6372 44.2763 90.2869 43.9478 90.925 43.6021C91.124 43.4926 91.2352 43.4695 91.364 43.7173C93.1845 47.2382 94.3904 50.9319 94.4958 54.9023C94.6363 59.9963 93.2021 64.6121 89.8479 68.5478C87.2605 71.5846 83.8888 73.4402 79.9726 74.2008C72.3685 75.676 65.426 74.0913 59.2034 69.539C57.0317 67.9485 54.8716 66.3408 52.9047 64.5026C52.3838 64.0185 51.8979 63.4999 51.5115 62.9006C50.8442 61.9095 50.9262 61.1661 51.7984 60.2441Z" fill="#FEFEFE"/>
<path d="M49.5216 55.8023C47.7713 59.5882 46.8933 63.5586 46.9986 67.7248C47.0806 70.8827 47.7187 73.9368 48.907 76.8699C48.9948 77.0946 49.106 77.2099 49.3753 77.2502C51.4709 77.5671 53.5373 77.9763 55.4808 78.8579C56.6281 79.3766 57.6642 80.045 58.3959 81.0938C58.7003 81.5317 58.9169 82.0043 59.0164 82.5286C59.1277 83.1106 58.9111 83.3354 58.314 83.2547C57.5823 83.1567 56.9149 82.8686 56.2769 82.5229C55.832 82.2808 55.4164 82.0043 55.0476 81.6643C54.8837 81.5144 54.7666 81.4972 54.5793 81.6124C54.1344 81.8948 53.6778 82.1656 53.2095 82.4192C53.0163 82.5286 53.0339 82.592 53.1685 82.7418C54.0583 83.733 54.9598 84.7241 55.7442 85.8017C56.113 86.3088 56.4525 86.8274 56.7101 87.3979C56.9325 87.8935 56.9793 88.4179 56.8623 88.9423C56.6808 89.7836 55.5744 90.4693 54.6847 90.3483C54.4798 90.3195 54.4564 90.1639 54.3861 90.0429C53.3441 88.1816 52.1734 86.401 50.8914 84.6896C50.8095 84.5801 50.7216 84.4706 50.6338 84.3611C50.4933 84.1825 50.3177 84.1191 50.1246 84.2689C49.9255 84.4245 50.0485 84.5916 50.1597 84.7357C50.8973 85.7095 51.6056 86.7064 52.267 87.7264C52.9051 88.7118 53.4963 89.7317 54.0876 90.7459C54.1929 90.9246 54.1402 91.0052 54.0349 91.132C53.3734 91.9388 52.5246 92.4228 51.4943 92.6245C51.3187 92.6591 51.2485 92.6245 51.1665 92.4343C50.1714 90.0602 48.6201 88.101 46.5479 86.5451C46.3898 86.4241 46.2142 86.2166 46.0094 86.4644C45.8045 86.7179 45.9859 86.8851 46.1908 87.0406C48.0465 88.4294 49.4631 90.1639 50.429 92.2499C50.4816 92.3594 50.5285 92.4747 50.5753 92.5899C49.6211 93.0163 48.7723 92.6879 47.9411 92.2614C47.104 91.8293 46.3372 91.2991 45.5937 90.7344C43.9547 89.5012 42.2278 88.3891 40.6005 87.1501C37.8843 85.0756 36.0931 82.3097 34.8111 79.2037C33.1603 75.193 32.5867 71.0037 32.9379 66.7106C33.4881 60.0089 35.5604 53.7969 39.2775 48.1382C39.4883 47.8155 39.7224 47.5043 39.9448 47.1874C40.1497 47.1067 40.261 47.2623 40.3722 47.3718C41.42 48.4321 42.5439 49.4117 43.6444 50.4086C45.1723 51.7916 46.706 53.1631 48.2748 54.5C48.6143 54.7881 48.9304 55.105 49.2758 55.3874C49.4221 55.4911 49.5626 55.6064 49.5216 55.8023Z" fill="#FEFEFE"/>
<path d="M61.2227 56.2914C60.6549 55.9111 60.0871 55.5423 59.5251 55.1562C58.6822 54.5799 57.8158 54.044 56.8148 53.7904C56.4987 53.7098 56.6509 53.56 56.7094 53.4044C58.0909 49.751 59.4724 46.1033 60.8539 42.4499C63.5759 35.2756 66.2979 28.1071 69.0082 20.9328C69.1136 20.6562 69.1955 20.5928 69.4941 20.7139C74.3703 22.6846 79.2348 24.6957 84.0875 26.7184C84.3802 26.8394 84.3919 26.9604 84.2866 27.2312C80.1421 38.1396 76.0093 49.0537 71.8824 59.9736C71.7829 60.2444 71.6658 60.3251 71.3731 60.279C70.4424 60.1407 69.5292 59.9505 68.6219 59.697C68.3936 59.6336 68.294 59.5356 68.2414 59.2878C67.8199 57.2825 67.1174 55.3924 65.6774 53.8423C64.5184 52.5861 63.0549 51.7966 61.4803 51.1743C60.9241 50.9553 60.3739 50.7133 59.7651 50.6326C58.7407 50.5001 58.0617 51.1455 58.2256 52.1482C58.3953 53.1796 59.0627 53.9345 59.7475 54.6664C60.1456 55.0928 60.5846 55.4789 61.0471 55.8419C61.1876 55.9514 61.3456 56.0378 61.2227 56.2914Z" fill="#FEFEFE"/>
<path d="M49.5215 55.8019C49.182 55.3351 48.7078 55.0124 48.2863 54.6378C45.5702 52.2291 42.8365 49.8435 40.2081 47.3426C40.1379 47.2792 40.0501 47.2331 39.974 47.1812C39.7574 46.9565 39.5408 46.7375 39.3184 46.5128C40.8169 44.3807 42.5789 42.479 44.5107 40.7272C47.7478 37.7941 51.3888 35.4373 55.264 33.4147C55.3753 33.357 55.4748 33.2764 55.5743 33.213C57.7577 33.1611 59.4729 32.17 60.9305 30.6487C61.9959 30.084 63.1257 29.669 64.2964 29.3752C64.4662 29.3348 64.6476 29.2369 64.8174 29.3752C64.3959 30.5161 63.9803 31.6571 63.553 32.7923C60.9715 39.6151 58.3841 46.4321 55.8084 53.2549C55.6914 53.5603 55.5392 53.7043 55.2114 53.785C54.4972 53.9521 54.0581 54.4707 53.7186 55.0873C53.5372 54.9605 53.5957 54.7646 53.5898 54.5918C53.5372 53.6986 53.4201 52.8111 53.4025 51.918C53.2269 51.8776 53.1918 52.0102 53.1274 52.0851C52.1323 53.2376 51.2776 54.4765 50.6396 55.8595C50.5576 56.0381 50.5225 56.2686 50.2708 56.3263C49.9664 56.2168 49.8259 55.8998 49.5215 55.8019Z" fill="#00D09C"/>
<path d="M53.2573 112.604C52.9725 114.976 52.6935 117.347 52.4029 119.718C52.031 122.718 51.659 125.725 51.2755 128.725C50.8745 131.871 50.4619 135.01 50.055 138.156C49.9504 138.973 49.8516 139.795 49.7296 140.606C49.6947 140.83 49.7586 140.872 49.9504 140.896C50.5025 140.969 51.0488 141.066 51.6067 141.132C51.8625 141.162 51.9148 141.235 51.7985 141.483C51.4498 142.257 51.043 143.001 50.549 143.685C50.3921 143.903 50.4212 143.993 50.6362 144.145C51.9729 145.082 53.298 146.044 54.6288 146.994C54.6986 147.042 54.7683 147.097 54.8322 147.139C55.0182 147.266 55.0531 147.447 54.9485 147.629C54.8264 147.841 54.6521 147.786 54.4835 147.665C53.6002 147.03 52.7226 146.401 51.8392 145.766C51.2987 145.379 50.7582 145.004 50.2236 144.604C50.0492 144.471 49.962 144.489 49.8284 144.659C49.5145 145.046 49.1949 145.433 48.8462 145.784C48.6486 145.984 48.6835 146.08 48.8753 146.244C49.9272 147.169 50.9733 148.107 52.0194 149.038C52.124 149.135 52.2344 149.226 52.339 149.323C52.4843 149.45 52.5541 149.595 52.4146 149.77C52.2693 149.946 52.1066 149.946 51.938 149.801C51.5138 149.426 51.0895 149.044 50.6711 148.669C49.9388 148.016 49.2007 147.381 48.4859 146.709C48.265 146.504 48.1488 146.486 47.9163 146.703C46.5971 147.962 45.15 149.032 43.5401 149.861C43.3367 149.964 43.1333 150.03 42.9067 150.03C39.7161 150.024 36.5255 150.03 33.3348 150.024C33.2825 150.024 33.2244 150.018 33.1663 150.012C33.1663 149.982 33.1547 149.94 33.1663 149.934C35.4735 148.458 37.3681 146.504 39.0942 144.362C41.198 141.761 43.0868 139.009 44.2317 135.779C45.1267 133.274 46.0275 130.77 46.9225 128.259C48.7648 123.13 50.6013 117.994 52.4436 112.864C52.4785 112.768 52.5192 112.677 52.5541 112.58C52.7865 112.423 53.0248 112.399 53.2573 112.604Z" fill="#FEFEFE"/>
<path d="M52.2558 65.1709C54.2578 67.0149 56.4061 68.5823 58.531 70.19C60.8374 71.9418 63.3604 73.2845 66.1175 74.2007C66.3868 74.2871 66.4278 74.3678 66.3282 74.6271C63.6472 81.6804 60.9721 88.7394 58.3086 95.7985C58.1974 96.0866 58.0978 96.1154 57.811 95.9944C55.9144 95.2164 54.0061 94.4673 52.0977 93.7067C51.9572 93.6491 51.8226 93.5857 51.6353 93.4992C53.087 93.2341 54.1758 92.5196 54.9836 91.3844C55.0831 91.2461 55.2061 91.1942 55.3583 91.1597C57.4364 90.7332 58.3496 89.0794 57.5651 87.1375C57.091 85.9677 56.2949 84.9996 55.4988 84.0373C55.2061 83.6857 54.8958 83.3457 54.6031 82.9885C54.5446 82.9136 54.3397 82.8502 54.4978 82.7004C54.6207 82.5793 54.7553 82.5851 54.9075 82.7004C55.4988 83.1498 56.1485 83.5013 56.8393 83.7722C57.4656 84.02 58.1096 84.1986 58.8003 84.1122C59.491 84.0257 59.9242 83.5705 59.9242 82.8905C59.9242 81.6573 59.333 80.6662 58.5018 79.8076C57.3837 78.6436 55.9495 77.9924 54.4392 77.4796C53.0343 77.0013 51.5826 76.6843 50.1133 76.4711C49.8148 76.425 49.6626 76.2983 49.5162 76.0101C48.8899 74.7597 48.9308 73.5956 49.4986 72.2876C50.4879 70.0287 51.2782 67.6833 52.1563 65.3726C52.1914 65.3207 52.2148 65.2689 52.2558 65.1709Z" fill="#FEFEFE"/>
<path d="M79.5695 7.61621C82.6779 7.79485 85.3765 9.02802 87.1619 11.8286C88.3561 13.7071 88.4907 15.7528 87.8117 17.8388C87.4487 18.951 86.9921 20.0343 86.5999 21.1407C86.4887 21.4634 86.3189 21.3078 86.155 21.2387C83.9189 20.3282 81.6886 19.4062 79.4466 18.5131C76.83 17.47 74.2075 16.4386 71.5733 15.4244C71.2338 15.2918 71.1694 15.165 71.3099 14.8308C71.6904 13.9261 71.9831 12.9868 72.3987 12.0994C73.7685 9.17208 76.1334 7.70841 79.5695 7.61621Z" fill="#FEFEFE"/>
<path d="M55.0944 32.3138C53.6192 32.2792 52.0446 31.5359 50.786 30.2335C49.0065 28.3953 47.9645 26.1825 47.6074 23.6586C47.584 23.4799 47.584 23.3474 47.7655 23.2437C49.6563 22.1776 51.4416 20.9271 53.4846 20.1319C54.0583 19.9072 54.6554 19.7574 55.2817 19.7516C56.2593 19.7343 56.9735 20.1607 57.4652 20.979C57.6291 21.2498 57.752 21.5437 57.9101 21.8261C58.2496 22.4369 58.8994 22.5233 59.4086 22.0278C59.6603 21.78 59.7599 21.4746 59.8008 21.1346C60.0291 19.2906 62.4526 17.9537 63.998 18.53C64.9756 18.893 65.5317 19.7862 65.3912 20.956C65.1863 22.6674 64.3434 23.9294 62.6282 24.5172C62.4175 24.5921 62.3648 24.6843 62.3531 24.8975C62.2243 27.773 60.9189 29.98 58.4428 31.5013C57.5413 32.0487 56.5461 32.3253 55.0944 32.3138Z" fill="#FEFEFE"/>
<path d="M26.9432 133.082C28.1842 133.681 29.3784 134.252 30.5726 134.822C33.8565 136.395 37.1639 137.917 40.483 139.398C40.805 139.542 40.8576 139.634 40.6352 139.928C38.7327 142.509 36.6488 144.924 34.0438 146.854C33.0663 147.58 32.036 148.209 30.8126 148.479C29.8291 148.698 29.0096 148.439 28.3891 147.644C27.5988 146.63 27.2476 145.443 26.9959 144.221C26.3578 141.103 26.3695 137.969 26.7091 134.822C26.7383 134.534 26.7793 134.246 26.8203 133.958C26.8554 133.687 26.8964 133.416 26.9432 133.082Z" fill="#FEFEFE"/>
<path d="M76.8173 106.378C76.8262 106.602 76.8351 106.834 76.8351 107.058C76.8351 122.3 76.8352 137.551 76.8531 152.793C76.8531 153.387 76.7188 153.534 76.0923 153.525C73.0492 153.49 69.9972 153.499 66.9542 153.516C66.4798 153.516 66.3366 153.422 66.3724 152.948C66.5783 150.251 66.7483 147.554 66.9094 144.857C66.9363 144.426 67.1332 144.409 67.4823 144.452C69.0306 144.668 70.588 144.849 72.1274 145.098C72.5749 145.167 72.6375 145.021 72.6733 144.685C72.9776 141.807 73.2909 138.938 73.5952 136.069C74.0606 131.735 74.526 127.41 74.9825 123.076C75.43 118.768 75.8685 114.451 76.316 110.134C76.4414 108.885 76.5756 107.627 76.7099 106.378C76.7457 106.326 76.7815 106.326 76.8173 106.378Z" fill="#FEFEFE"/>
<path d="M64.8176 29.3697C63.6293 29.5829 62.5229 30.0209 61.4282 30.4934C61.2702 30.5626 61.1297 30.7124 60.9307 30.6432C62.2829 29.1911 63.0322 27.4796 63.2019 25.5204C63.2195 25.2957 63.319 25.2208 63.4946 25.1401C65.3151 24.2815 66.48 22.2416 66.2752 20.2535C66.2517 19.9942 66.3278 19.9481 66.562 19.9596C67.0537 19.9711 67.5454 19.9827 68.0313 19.9596C68.3884 19.9423 68.3767 20.0691 68.2772 20.3399C67.2118 23.1232 66.1639 25.9065 65.1044 28.6898C65.0225 28.9145 64.9171 29.1392 64.8176 29.3697Z" fill="#FEFEFE"/>
<path d="M51.0904 57.9108C50.6104 57.905 50.1304 57.905 49.6504 57.8993C49.7909 57.3461 50.0777 56.8505 50.2709 56.3203C50.9031 55.0641 51.5529 53.8252 52.4544 52.7303C52.7587 52.3558 53.069 51.987 53.467 51.5029C53.5607 52.7764 53.6427 53.9289 53.7246 55.0814C53.6427 55.479 53.467 55.7268 53.0046 55.8363C51.9041 56.0899 51.348 56.8851 51.0904 57.9108Z" fill="#FEFEFE"/>
<path d="M99.3486 140.429C99.3486 140.233 99.3486 140.037 99.3486 139.842C101.064 139.594 102.779 139.346 104.488 139.098C104.558 139.087 104.629 139.087 104.699 139.081C104.921 139.064 105.05 139.173 105.068 139.381C105.079 139.588 104.933 139.651 104.746 139.674C103.598 139.836 102.451 140.003 101.304 140.164C100.648 140.251 99.9984 140.343 99.3486 140.429Z" fill="#FDFDFD"/>
<path d="M99.3438 143.057C99.3438 142.855 99.3496 142.659 99.3496 142.458C100.842 142.406 102.335 142.354 103.828 142.308C103.951 142.302 104.079 142.308 104.202 142.302C104.396 142.296 104.589 142.296 104.583 142.561C104.583 142.809 104.419 142.884 104.197 142.89C103.412 142.919 102.634 142.948 101.849 142.976C101.018 143.005 100.181 143.034 99.3438 143.057Z" fill="#FDFDFD"/>
<path d="M53.5022 112.897C53.2681 112.897 53.0281 112.891 52.7939 112.891C53.1276 112.003 53.4554 111.116 53.7891 110.229C53.8125 110.234 53.8359 110.24 53.8593 110.246C53.7364 111.127 53.6193 112.009 53.5022 112.897Z" fill="#00D09C"/>
<path d="M43.621 90.486C43.4044 90.4053 43.1878 90.3188 42.9654 90.2497C42.7956 90.1978 42.7781 90.0999 42.8483 89.9673C42.9244 89.8233 43.0122 89.9328 43.0825 89.9789C43.2873 90.1172 43.4805 90.267 43.6795 90.4168C43.6561 90.4399 43.6386 90.4629 43.621 90.486Z" fill="#EBEBF0"/>
<path d="M75.5888 117.022C75.5654 117.022 75.542 117.022 75.5186 117.028C75.5186 116.913 75.5186 116.792 75.5186 116.613C75.6298 116.786 75.6181 116.907 75.5888 117.022Z" fill="#BFBED0"/>
<path d="M68.2832 77.6758C69.3896 77.8717 70.4374 78.0676 71.4852 78.2463C72.1174 78.3558 72.7555 78.448 73.3936 78.5287C73.575 78.5517 73.6453 78.5978 73.6687 78.788C73.9907 81.4445 74.3068 84.101 74.6697 86.7517C75.0795 89.7424 75.4951 92.7331 76.2561 95.6662C76.3263 95.9486 76.4141 96.2252 76.5195 96.496C76.6366 96.7957 76.6775 97.0665 76.3146 97.2279C76.0219 97.3546 75.817 97.2106 75.659 96.7842C75.2726 95.7181 75.0443 94.6059 74.8336 93.4995C73.9848 88.9818 73.3994 84.4237 72.8901 79.8598C72.8492 79.5025 72.7555 79.3354 72.3399 79.272C70.9584 79.0703 69.5828 78.7937 68.2071 78.5459C67.9203 78.4941 67.8032 78.3154 67.8325 78.0446C67.8676 77.7507 68.0725 77.6643 68.2832 77.6758Z" fill="#44475B"/>
<rect x="9.375" y="80.79" width="8.5657" height="13.3508" fill="white"/>
</svg>
