<svg xmlns="http://www.w3.org/2000/svg" width="202" height="158" viewBox="0 0 202 158">
    <defs>
        <linearGradient id="a" x1=".042%" y1="50.012%" y2="50.012%">
            <stop offset="0%" stop-color="gray" stop-opacity=".25"/>
            <stop offset="54%" stop-color="gray" stop-opacity=".12"/>
            <stop offset="100%" stop-color="gray" stop-opacity=".1"/>
        </linearGradient>
    </defs>
    <g fill="none" fill-rule="nonzero">
        <ellipse cx="70.956" cy="148.254" fill="#00D09C" opacity=".1" rx="35.185" ry="6.672"/>
        <path fill="#00D09C" d="M117.394 22.28c-12.931-.448-25.247-4.628-37.008-9.2-11.76-4.572-23.408-9.636-36.03-12.058-8.118-1.558-17.403-1.78-23.942 2.572-6.296 4.2-8.33 11.43-9.423 18.144-.823 5.052-1.307 10.37.947 15.1 1.567 3.284 4.344 6.044 6.266 9.19 6.687 10.944 1.96 24.44-5.285 35.126-3.396 5.012-7.343 9.8-9.966 15.13-2.623 5.33-3.836 11.458-1.54 16.91 2.273 5.4 7.694 9.448 13.566 12.298 11.926 5.79 25.974 7.446 39.683 8.386 30.336 2.076 60.832 1.178 91.248.276 11.256-.332 22.561-.67 33.634-2.412 6.15-.968 12.498-2.504 16.963-6.212 5.667-4.706 7.071-12.674 3.273-18.574-6.37-9.9-23.976-12.358-28.434-22.98-2.45-5.848.066-12.36 3.629-17.782 7.64-11.634 20.446-21.84 21.119-35.136.463-9.132-5.693-18.278-15.211-22.6-9.976-4.53-23.813-3.96-31.17 3.538-7.582 7.712-20.9 10.682-32.32 10.284z" opacity=".1"/>
        <path fill="url(#a)" d="M107.118 72.348l-6.12-4.13 3.087-4.6-16.164-1.29-5.808 4.496-7.271-4.08-6.064.73-.072-1.6a45.2 45.2 0 0 0-.502-4.98c.026-.5.044-1.074.042-1.698 0-2.63-.355-6.116-1.918-8.44l.36-3.236-2.917-3.45a22.079 22.079 0 0 1 1.598-2.692c.1-.144.2-.284.308-.42 3.786-.274 6.773-3.39 6.773-7.2 0-.176 0-.352-.02-.526 0-.07-.014-.142-.022-.212.37.2.744.4 1.117.6.07.1.15.2.238.318l.018.022.112.138.036.042c.04.048.082.094.124.142l.028.032a7.909 7.909 0 0 0 .377.394l.15.14.042.038c.128.114.264.224.4.328l.044.032.171.118.056.036c.066.04.134.082.2.12l.024.014c.078.042.158.082.238.12l.04.016c.068.03.134.057.2.084l.062.022c.07.024.138.046.21.066l.043.012c.088.022.176.04.266.054h.01c.085.014.17.022.256.026h.058c.076.004.153.004.23 0h.05c.095-.006.19-.017.285-.034a3.15 3.15 0 0 0 1.259-.452 1.1 1.1 0 0 0 .256-.238c.4-.524-.04-1.098-.04-1.098-.156-.372-1.167-.634-1.167-.634s-3.197-1.336-3.197-2.4c0-1.064-.8-6.584-9.049-7.846 0 0-5.367-.302-6.875 2.574l-.032.336c-.444.278-.811.836-1.249 1-.189.04-.371.108-.541.2v-.038a.516.516 0 0 0-.122.158c-.094.187-.15.391-.166.6a2.261 2.261 0 0 1-.382.91l-.034.054c.232.018.465-.02.68-.11-.034.274-.101.542-.2.8.26.008.5-.135.615-.368v-.016l.026-.036c.05-.093.092-.19.124-.29l-.022.024c.04-.13.076-.262.12-.39a.612.612 0 0 1 .098-.2.483.483 0 0 1 .414-.138l-.082 1.734h.036a2.367 2.367 0 0 1-.176.364c-.284.46-.8.774-.99 1.278-.081.243-.112.5-.091.756 0 .15.018.302.03.452v-.012c.028.4.036.78-.18 1.102-.148.22-.386.386-.468.636a.62.62 0 0 0-.03.216c.017.22.062.435.136.642v-.012c.05.152.062.314.034.472-.09.4-.575.734-.551 1.116a.43.43 0 0 0 .022.148.81.81 0 0 0 .451.4c.308.175.662.253 1.015.224.133-.024.26-.068.38-.13-.14.322-.284.64-.43.942-.022.048-.046.096-.07.144 0 0-1.234-.826-1.936.858-.204.35-.35.73-.433 1.128a2.686 2.686 0 0 1-.148.464 2.984 2.984 0 0 1-1.335 1.2c-1.43.656-7.209 7.87-7.31 9.738-.05.73-.174 1.451-.368 2.156a12.842 12.842 0 0 0-.344 5.098c.072.551.19 1.095.354 1.626.613 1.866 1.023 5.348 1.023 5.348l.663 6.044c-.024.834.012 1.67.108 2.498-.677.774-3.396 4-2.358 4.878.8.692 2.198.578 2.984.436-.662 1.638-1.703 4.486-1.84 6.442-.2 2.894.341 6.728 1.198 8.2.857 1.472 3.714 5.248 3.714 5.248s-.133 5.18.888 7.062c1.02 1.882 1.432 5.786 1.432 5.786s.953 3.296.476 4.508c-.478 1.212.885 2.22-.546 3.026-1.43.806-3.26 18.972-3.26 18.972s-.738 11.906 0 12.512a.75.75 0 0 0 .125.074v4s-.511.84 1.569 1.01c1.424.114 5.462.372 7.858.522l1.856.116s4.396.876 6.338 0c1.942-.876 5.385-.856 4.873-3.17a6.589 6.589 0 0 0-.272-.926c-.561-1.436-1.514-1.6-3.27-2a8.235 8.235 0 0 0-.29-.058c-1.85-.322-2.458.54-3.495-.582-.9-.97-3.77-2.056-4.747-2.4.024-.072.054-.142.078-.216a1.462 1.462 0 0 1-.741-.362l2.647.168 1.577.098s3.736.746 5.394 0c1.659-.746 4.576-.726 4.14-2.692a5.646 5.646 0 0 0-.23-.788c-.477-1.22-1.288-1.354-2.78-1.692-.087-.018-.167-.036-.247-.05-1.572-.274-2.088.458-2.969-.494-.755-.812-3.139-1.722-3.996-2.032 0-.444-.6-1.076-.977-1.71-.443-.74.376-3.33.376-3.33l.467-10.746c.178-.08.367-.133.56-.16 0 0 2.114-2.02 1.636-4.172a13.84 13.84 0 0 1-.152-1.966c.696-.646 1.653-1.6 1.924-2.188.444-.958 0-5.6 0-5.6v-17.75l3.537.358 3.209.33.977.1 3.209.324 7.374.746 6.646-1.26 2.875-.544 5.912-1.12V73.36l6.12-1.012zM58.444 24.366l-.411-.044c.135.006.28.032.411.044z"/>
        <path fill="#EFB7B9" d="M92.774 81.75c-1.998 2.862-9.18 1.346-9.18 1.346l-5.567-5.214-.75-.706 1.257-2.672s.4.11 1.085.306c3.599 1.046 14.841 4.534 13.155 6.94z"/>
        <path fill="#000" d="M79.615 74.81c-.246.856-.919 2.138-1.588 3.072l-.75-.706 1.257-2.672s.404.11 1.081.306z" opacity=".1"/>
        <path fill="#DCE6F2" d="M60.524 44.678s-5.13 2.278-4.88 7.872a92.316 92.316 0 0 0 1.176 10.752s-1.05 8.418 3.318 10.588 8.41 3.954 8.41 3.954 6.833.736 7.683 1.04c.849.304 3.502-4.344 3.013-5.068-.49-.724-6.762-2.242-7.561-3.45-.8-1.208-2.647-1.954-2.647-1.954s-1.908-1.156-2.038-2.2c-.13-1.044.373-1.822.501-2.28.128-.458.452-4.88.452-4.88s2.154-15.74-7.427-14.374z"/>
        <path fill="#000" d="M63.91 63.072s-7.038 1.18-6.357 3.646c0 0 2.555-2.662 6.358-3.646zM63.965 64.07s-3.87 3.162-3.113 3.324c.757.162 3.113-3.324 3.113-3.324zM65.825 65.172s-1.037 2.126-.4 1.982c.638-.144.4-1.982.4-1.982z" opacity=".1"/>
        <path fill="#000" d="M79.875 75.036l-.428-.122c.122-.4.156-.724.056-.874-.49-.724-6.757-2.24-7.554-3.45-.797-1.21-2.648-1.954-2.648-1.954s-1.908-1.156-2.038-2.2c-.13-1.044.374-1.822.502-2.28.128-.458.451-4.882.451-4.882s2.148-15.738-7.432-14.372c0 0-5.131 2.28-4.881 7.874a92.058 92.058 0 0 0 1.176 10.752s-1.048 8.418 3.32 10.588c4.367 2.17 8.409 3.954 8.409 3.954s6.831.734 7.682 1.04c.322.116.903-.482 1.473-1.304l.323.302 5.567 5.212s7.183 1.518 9.18-1.344c1.69-2.408-9.552-5.896-13.158-6.94z" opacity=".1"/>
        <path fill="#965D7B" d="M57.571 23.682c-.196.038-.383.11-.553.214-.2.166-.2.45-.25.698a2.297 2.297 0 0 1-.4.956c.228.017.456-.021.666-.11a3.43 3.43 0 0 1-.2.8.647.647 0 0 0 .6-.366c.105-.225.188-.46.249-.702a.578.578 0 0 1 .096-.2c.184-.218.525-.12.809-.092.48.04.946-.183 1.215-.584.301-.458.32-1.63-.4-1.754-.751-.124-1.219.912-1.832 1.14z"/>
        <g fill="#000" opacity=".1">
            <path d="M57.111 24.142c.025-.098.041-.2.07-.298-.257.166-.27.448-.339.698a1.773 1.773 0 0 1-.16.422c.214-.251.36-.53.43-.822zM57.062 25.794c.099-.257.166-.526.2-.8a1.43 1.43 0 0 1-.634.11c-.063.14-.14.275-.23.4.227.018.454-.02.664-.108-.034.274-.1.543-.2.8a.65.65 0 0 0 .6-.366c.049-.09.09-.187.119-.286a.6.6 0 0 1-.52.25zM58.816 24.434c-.284-.028-.628-.126-.811.092a.618.618 0 0 0-.096.2 2.113 2.113 0 0 0-.048.16c.19-.15.497-.07.755-.044.48.04.945-.184 1.215-.584.06-.097.105-.203.134-.314a1.33 1.33 0 0 1-1.15.49z"/>
        </g>
        <path fill="#DCE6F2" d="M63.585 40.2l3.047 3.668-.398 3.702-3.682-5.77z"/>
        <path fill="#000" d="M66.63 43.868l-.374 3.482-.024.22-3.322-5.208-.358-.562.104-.162.927-1.438.206.248z" opacity=".1"/>
        <path fill="#EFB7B9" d="M68.212 35.234c-1.03.296-2.016 1.312-2.873 2.546a21.735 21.735 0 0 0-1.55 2.668c-.282.564-.53 1.106-.735 1.578l-.144.336a26.635 26.635 0 0 0-.542 1.372s-7.892-5.94-6.643-6.34c.42-.134.97-1.034 1.516-2.168l.068-.144c.346-.728.686-1.54.987-2.304a68.712 68.712 0 0 0 1.075-2.934s11.988 4.49 8.841 5.39z"/>
        <path fill="#444053" d="M72.934 29.51s1.822 3.3 4.27 2.85c2.447-.45 1.44-1.772 1.44-1.772l-5.71-1.078z"/>
        <path fill="#A36468" d="M69.403 143.74c-1.614.738-5.265 0-5.265 0l-1.538-.096a616.827 616.827 0 0 1-6.526-.44c-1.726-.142-1.302-.85-1.302-.85v-4.278l8.375-2.124s3.311 1.134 4.218 2.124c.861.944 1.365.218 2.901.49.076.014.156.03.24.05 1.459.334 2.25.466 2.718 1.676.093.254.169.515.225.78.432 1.948-2.433 1.934-4.046 2.668z"/>
        <path fill="#000" d="M73.224 140.292c-.3.188-.616.35-.944.484-1.098.502-2.143 1.114-3.254 1.588-1.111.474-2.308.812-3.51.722-.63-.046-1.274-.2-1.875-.02a4.327 4.327 0 0 0-1.041.578 616.827 616.827 0 0 1-6.526-.44c-1.726-.142-1.302-.85-1.302-.85v-.5c.062 0 .132-.018.212-.024.413-.007.825.055 1.218.182.867.236 1.73.468 2.598.7a2.054 2.054 0 0 1 .999-1.276 3.182 3.182 0 0 1 1.61-.37c1.345.018 2.618.656 3.96.72a2.18 2.18 0 0 0 1.097-.184c.184-.092.346-.226.526-.328.287-.14.592-.242.905-.306.88-.22 1.745-.499 2.587-.836.24-.094.52-.264.488-.52-.042-.34-.576-.38-.716-.692a.4.4 0 0 1 .016-.354c.076.014.156.03.24.05 1.453.334 2.244.466 2.712 1.676z" opacity=".1"/>
        <path fill="#A36468" d="M67.697 153.1c-1.898.868-6.194 0-6.194 0l-1.808-.106c-2.342-.15-6.286-.4-7.679-.518-2.031-.168-1.532-1-1.532-1v-5.042l9.856-2.5s3.896 1.334 4.963 2.5c1.013 1.11 1.599.256 3.415.576.09.016.184.036.282.058 1.716.4 2.647.55 3.197 1.974.11.299.2.606.265.918.496 2.292-2.867 2.274-4.765 3.14z"/>
        <path fill="#000" d="M72.193 149.042c-.354.22-.724.411-1.11.57-1.292.59-2.523 1.31-3.83 1.868-1.306.558-2.715.954-4.131.85-.74-.054-1.497-.24-2.198-.024-.44.171-.853.403-1.23.688-2.34-.15-6.285-.4-7.678-.518-2.031-.168-1.532-1-1.532-1v-.588c.083-.014.166-.023.25-.028a4.38 4.38 0 0 1 1.434.214l3.055.824a2.42 2.42 0 0 1 1.185-1.502 3.725 3.725 0 0 1 1.896-.436c1.583.022 3.08.772 4.66.848.44.04.883-.034 1.286-.214.218-.11.4-.268.62-.386a4.343 4.343 0 0 1 1.065-.36c1.03-.26 2.042-.589 3.029-.984.281-.112.611-.312.573-.612-.05-.4-.677-.448-.843-.816a.482.482 0 0 1 .02-.416c.09.016.184.036.282.058 1.716.384 2.647.54 3.197 1.964z" opacity=".1"/>
        <path fill="#444053" d="M63.401 118.502l-.533 12.566s-.8 2.566-.366 3.3c.434.734 1.165 1.466.9 1.9-.267.434-3.463 5.126-4.496 3.326-1.033-1.8-2.052-9.6-2.052-9.6l.953-9.634 5.594-1.858zM65.715 87.194l1.482 1.984v17.256s.434 4.6 0 5.55c-.433.95-2.63 2.85-2.63 2.85l-1.85-9.5.4-10.05 2.598-8.09z"/>
        <path fill="#000" d="M63.401 118.502l-.533 12.566s-.8 2.566-.366 3.3c.434.734 1.165 1.466.9 1.9-.267.434-3.463 5.126-4.496 3.326-1.033-1.8-2.052-9.6-2.052-9.6l.953-9.634 5.594-1.858zM65.715 87.194l1.482 1.984v17.256s.434 4.6 0 5.55c-.433.95-2.63 2.85-2.63 2.85l-1.85-9.5.4-10.05 2.598-8.09z" opacity=".1"/>
        <path fill="#444053" d="M67.197 79.834v9.334l-1.664 7.266S65 113.968 65.465 116.1c.466 2.132-1.598 4.134-1.598 4.134s-1.199.134-1.199 1.066-1.998 3.6-1.998 3.6l.066 5.2s.867 9.734-.466 11.6c-1.332 1.866.466 2.134.466 2.134-1.664 5.466-9.657 4.2-10.378 3.6-.721-.6 0-12.4 0-12.4s1.786-18 3.185-18.8c1.399-.8.068-1.8.533-3 .466-1.2-.465-4.466-.465-4.466s-.4-3.868-1.399-5.734-.867-7-.867-7-2.797-3.734-3.628-5.2c-.831-1.466-1.367-5.266-1.167-8.134.136-1.938 1.153-4.76 1.798-6.384.31-.778.534-1.282.534-1.282l.19.05 10.913 2.86 7.212 1.89z"/>
        <path fill="#000" d="M68.212 35.234c-1.03.296-2.016 1.312-2.873 2.546h-.223a7.136 7.136 0 0 1-6.194-3.586 7.04 7.04 0 0 1-.628-1.43c.618-1.57 1.075-2.934 1.075-2.934s11.99 4.504 8.843 5.404z" opacity=".1"/>
        <path fill="#EFB7B9" d="M72.258 30.234a7.15 7.15 0 0 1-4.67 6.72 7.138 7.138 0 0 1-7.912-2.075 7.156 7.156 0 0 1-.025-9.241 7.137 7.137 0 0 1 8.683-1.797 7.15 7.15 0 0 1 3.914 5.869c.004.176.01.35.01.524z"/>
        <path fill="#000" d="M66.256 47.35l-.024.22-3.322-5.2c-.348.822-.542 1.372-.542 1.372s-7.892-5.948-6.643-6.348c.42-.134.97-1.034 1.516-2.168l.068-.144c.58 1.728 3.946 5.182 5.347 6.566.162.16.296.292.4.388l.213.2.112.112c.51.526 2.66 2.846 2.875 5.002z" opacity=".1"/>
        <path fill="#DCE6F2" d="M68.74 64.994l-.364 11.714-.064 2.086s-4.307-.4-8.327-.84c-3.237-.354-6.288-.736-6.758-.96-.6-.282-1.884-.5-2.897-.638a35.825 35.825 0 0 0-1.398-.162s-.23.068-.584.132c-.771.14-2.126.254-2.915-.432-1.009-.878 1.642-4.068 2.304-4.834l.146-.166-.25-2.31-.65-5.99s-.4-3.45-.999-5.3a9.784 9.784 0 0 1-.345-1.61 12.908 12.908 0 0 1 .335-5.052c.19-.7.31-1.415.36-2.138.1-1.85 5.744-9 7.143-9.65a2.967 2.967 0 0 0 1.43-1.428 2.73 2.73 0 0 0 .218-.622c.6-2.6 2.116-1.568 2.116-1.568.366 2.034 6.026 7.418 6.026 7.418l.112.112c.562.576 3.063 3.28 2.885 5.588a6.78 6.78 0 0 0 .378 2.528 42.788 42.788 0 0 1 1.968 11.2l.13 2.922z"/>
        <path fill="#000" d="M60.72 51.084s-1.399 3.4-2.448 3.95c-1.049.55 2.947 1.16 2.448-3.95zM61.769 57.434s-3.197.4-3.197 1 3.197-1 3.197-1zM65.116 61.334s-4.646 9.9-5.945 10.2c-1.298.3 5.945-10.2 5.945-10.2zM63.18 43.146l-3.843 1.672-4.637-7.012a2.73 2.73 0 0 0 .218-.622c.599-2.6 2.116-1.568 2.116-1.568.365 2.034 6.026 7.418 6.026 7.418l.12.112z" opacity=".1"/>
        <path fill="#DCE6F2" d="M63.38 42.746l-3.843 1.672-4.637-7.012a2.73 2.73 0 0 0 .217-.622c.6-2.6 2.116-1.568 2.116-1.568.366 2.034 6.026 7.418 6.026 7.418l.12.112z"/>
        <path fill="#000" d="M68.312 78.794s-4.307-.4-8.327-.84l7.212 1.89v2.2c-.315.286-.589.434-.767.358-.83-.35-7.614-1.45-7.614-1.45s-3.94-2-8.192-4.4a4.726 4.726 0 0 1-1.558-1.45c-.786-1.138-1.17-2.6-1.335-4.034a17.461 17.461 0 0 1-.104-2.476c.02-.937.106-1.872.256-2.798a92.106 92.106 0 0 1-.6-10.8c.05-5.6 5.295-7.6 5.295-7.6 9.64-.85 6.651 14.75 6.651 14.75s-.557 4.4-.709 4.85c-.152.45-.697 1.2-.623 2.25.074 1.05 1.916 2.306 1.916 2.306s1.798.844 2.54 2.094c.539.922 4.043 2.172 6.023 3.064l-.064 2.086zM71.541 25.794c.004.33-.064.656-.2.956a5.912 5.912 0 0 1-.355.712 3.28 3.28 0 0 1-.875 1.088c-.462.33-1.045.422-1.599.556-.553.134-1.129.348-1.444.82a2.87 2.87 0 0 0-.338.98 2.11 2.11 0 0 1-.4.948.785.785 0 0 1-.935.224.946.946 0 0 1-.361-.466c-.228-.514-.286-1.084-.378-1.638-.092-.554-.222-1.124-.561-1.57-.34-.446-.942-.74-1.475-.566-.36.139-.65.42-.8.776-.147.353-.248.725-.3 1.104a63.13 63.13 0 0 1-.878 4.048.372.372 0 0 1-.066.152.288.288 0 0 1-.2.084c-.447.06-.877-.254-1.328-.22a.763.763 0 0 0-.138.022 7.152 7.152 0 0 1 .721-8.16l.036-.01c.3-.107.573-.279.8-.504.288-.289.555-.598.798-.926l.16-.2a9.117 9.117 0 0 1 1.559-1.482c.157-.129.337-.227.531-.288.166-.032.336-.038.504-.016.69.083 1.385.109 2.08.078.483-.076.97-.126 1.46-.148 1.265.036 2.344.93 3.143 1.91.43.502.813 1.08.84 1.736z" opacity=".1"/>
        <path fill="#965D7B" d="M57.963 26.92c-.278.456-.78.766-.967 1.266-.276.726.19 1.63-.238 2.278-.142.218-.376.38-.456.63-.136.422.236.872.14 1.306-.096.434-.667.8-.515 1.224a.8.8 0 0 0 .44.4c.302.174.65.251.998.222.546-.09.951-.626 1.505-.666.45-.032.879.28 1.326.222a.3.3 0 0 0 .2-.086.346.346 0 0 0 .066-.152c.336-1.34.629-2.69.88-4.048.05-.38.151-.75.299-1.104.15-.356.44-.636.8-.776.533-.172 1.132.12 1.474.566.341.446.471 1.016.563 1.57.092.554.15 1.124.376 1.638.068.19.196.355.363.468.3.174.704.036.934-.224.21-.278.347-.605.4-.95.051-.344.166-.675.337-.978.315-.472.893-.686 1.444-.82.552-.134 1.133-.228 1.599-.558.366-.295.664-.666.875-1.086.296-.516.571-1.076.547-1.67-.026-.648-.41-1.226-.819-1.73-.799-.98-1.88-1.874-3.145-1.908-.49.02-.977.07-1.46.148a12.49 12.49 0 0 1-2.08-.08 1.633 1.633 0 0 0-.504.018c-.194.06-.374.157-.53.288a9.12 9.12 0 0 0-1.56 1.48c-.296.394-.618.768-.963 1.12a2.168 2.168 0 0 1-.799.506c-.2.056-.4.016-.59.078-.589.186-.667.956-.94 1.408z"/>
        <path fill="#000" d="M77.204 32.358c-1.599.294-2.924-1-3.657-1.944a7.844 7.844 0 0 1-.613-.904l5.486 1.036.222.042s1.01 1.322-1.438 1.77z" opacity=".1"/>
        <g fill="#000" opacity=".1">
            <path d="M56.698 31.828c.056-.262-.043-.525-.29-.768 0 .02-.045.04-.06.06-.215.268.075.546.26.824a.425.425 0 0 0 .09-.116zM56.936 28.554c-.051.277-.038.554.04.83a1.808 1.808 0 0 0-.04-.83zM70.794 26.684a3.28 3.28 0 0 1-.875 1.088c-.462.33-1.043.422-1.599.556-.555.134-1.129.348-1.444.82-.171.304-.285.636-.338.98-.052.345-.19.672-.4.95-.23.26-.633.4-.933.224a.956.956 0 0 1-.363-.468c-.226-.514-.286-1.082-.376-1.638-.09-.556-.224-1.124-.563-1.57-.34-.446-.941-.74-1.475-.566-.36.14-.649.42-.799.776a4.363 4.363 0 0 0-.3 1.104 63.66 63.66 0 0 1-.879 4.048.346.346 0 0 1-.066.152.3.3 0 0 1-.2.086c-.447.058-.877-.254-1.326-.222-.554.04-.96.576-1.505.664a1.687 1.687 0 0 1-.999-.222 1.069 1.069 0 0 1-.365-.26.54.54 0 0 0-.074.466.78.78 0 0 0 .44.4c.301.176.65.253.998.222.546-.088.951-.624 1.505-.664.45-.032.879.28 1.326.222a.3.3 0 0 0 .2-.086.346.346 0 0 0 .066-.152 63.5 63.5 0 0 0 .88-4.048c.05-.38.151-.75.299-1.104.15-.356.439-.636.8-.776.533-.174 1.132.12 1.474.566.341.446.471 1.016.563 1.57.092.554.15 1.124.376 1.638.068.19.196.355.363.468.3.174.704.036.934-.224.21-.278.347-.605.4-.95.052-.344.166-.676.337-.98.315-.472.893-.684 1.444-.82.552-.136 1.133-.226 1.599-.556a3.28 3.28 0 0 0 .875-1.088c.296-.514.571-1.074.547-1.668a2.15 2.15 0 0 0-.024-.228 3.932 3.932 0 0 1-.523 1.29z"/>
        </g>
        <path fill="#000" d="M71.35 26.744c.512.912.815 1.926.888 2.97-1.78-1-3.454-2.098-4.3-2.48-1.472-.666-6.978-.566-9.048-.504.216-.387.47-.753.755-1.092a7.14 7.14 0 0 1 11.714 1.102l-.01.004zM77.703 31.51c-.961.296-2.53-.276-4.156-1.096a7.844 7.844 0 0 1-.613-.904l5.486 1.036c.364.248.456.602-.717.964z" opacity=".1"/>
        <path fill="#444053" d="M65.541 19.81s-5.245-.3-6.72 2.55l-.237 2.526-.4-.044-.08 1.718s8.017-.35 9.84.474c1.825.824 7.493 4.976 9.765 4.276 2.272-.7-.2-1.35-.2-1.35s-3.127-1.326-3.127-2.366-.775-6.534-8.84-7.784z"/>
        <path fill="#000" d="M55.425 113.45s3.347 3.25 4.795 3c0 0-4.096-.35-4.795-3zM54.726 114.956s.3 1.672 1.099 1.508c.799-.164-1.1-1.508-1.1-1.508zM59.97 142.9s-4.75 3.7-3.95 3.8c.802.1 3.95-3.8 3.95-3.8z" opacity=".1"/>
        <path fill="#00D09C" d="M66.326 69.466l15.385-2.506v14.58l-14.617-.766z"/>
        <path fill="#000" d="M66.326 69.466l15.385-2.506v14.58l-14.617-.766z" opacity=".05"/>
        <path fill="#00D09C" d="M81.711 66.96l18.45 1.382L99.14 81.03l-17.429.51z"/>
        <path fill="#000" d="M81.711 66.96l18.45 1.382L99.14 81.03l-17.429.51z" opacity=".1"/>
        <path fill="#00D09C" d="M87.383 62.51l-5.672 4.45 18.45 1.382 3.015-4.554zM60.756 64.606l13.85-1.688 7.105 4.042-15.385 2.506zM85.084 70.746V90.68l-7.207-.74-3.135-.32-.955-.1-3.133-.322-4.328-.444V69.466l15.383 1.048z"/>
        <path fill="#00D09C" d="M100.16 68.342v19.44l-5.775 1.11-2.81.54-6.491 1.248V70.746z"/>
        <path fill="#000" d="M100.16 68.342v19.44l-5.775 1.11-2.81.54-6.491 1.248V70.746z" opacity=".05"/>
        <path fill="#00D09C" d="M60.756 73.662l5.57-4.196 18.758 1.28-2.762 4.656z"/>
        <path fill="#FFF" d="M60.756 73.662l5.57-4.196 18.758 1.28-2.762 4.656z" opacity=".1"/>
        <path fill="#00D09C" d="M100.16 68.342l-15.076 2.404 4.907 4.4 16.15-2.712z"/>
        <path fill="#FFF" d="M100.16 68.342l-15.076 2.404 4.907 4.4 16.15-2.712zM94.385 88.892l-2.81.54v-4.154l2.632-.664zM77.877 87.192v2.748l-3.135-.32v-2.428zM73.787 88.058v1.462l-3.133-.322v-1.14z" opacity=".1"/>
        <path fill="#000" d="M83.198 85.734c-2.148 2.75-9.241.85-9.241.85l-5.271-5.504-.715-.746 1.398-2.6s.4.132 1.067.364c3.533 1.236 14.57 5.322 12.762 7.636z" opacity=".1"/>
        <path fill="#EFB7B9" d="M82.998 85.334c-2.148 2.75-9.241.85-9.241.85l-5.27-5.504-.716-.746 1.399-2.6s.4.132 1.066.364c3.533 1.236 14.57 5.322 12.762 7.636z"/>
        <path fill="#000" d="M70.228 77.698c-.291.84-1.033 2.084-1.75 2.982l-.715-.746 1.399-2.6s.401.132 1.066.364z" opacity=".1"/>
        <path fill="#DCE6F2" d="M52.778 46.594s-5.245 2-5.295 7.6a92.106 92.106 0 0 0 .6 10.8s-1.5 8.35 2.747 10.75c4.245 2.4 8.192 4.4 8.192 4.4s6.783 1.1 7.616 1.45c.833.35 3.728-4.15 3.279-4.9-.45-.75-6.626-2.6-7.359-3.85-.733-1.25-2.54-2.092-2.54-2.092s-1.842-1.258-1.916-2.308c-.073-1.05.47-1.8.624-2.25.154-.45.711-4.85.711-4.85s2.981-15.61-6.66-14.75z"/>
        <path fill="#000" d="M55.175 65.134s-7.093.8-6.543 3.3c0 0 2.695-2.522 6.543-3.3zM55.175 66.134s-4.026 2.95-3.286 3.15c.739.2 3.286-3.15 3.286-3.15zM56.974 67.334s-1.15 2.068-.5 1.96c.65-.108.5-1.96.5-1.96z" opacity=".1"/>
        <path fill="#00D09C" d="M130.824 22.478s-7.592-.458-6.705 4.874c0 0-.178.942.675 1.37 0 0 .014-.4.78-.262.272.046.55.06.825.04a1.711 1.711 0 0 0 1.01-.418s2.137-.882 2.968-4.378c0 0 .615-.764.6-.96l-1.283.55s.437.926.092 1.696c0 0-.04-1.662-.288-1.624-.05 0-.666.322-.666.322s.754 1.612.184 2.786c0 0 .216-1.988-.42-2.67l-.902.528s.88 1.666.283 3.026c0 0 .154-2.086-.473-2.898l-.82.638s.83 1.644.324 2.772c0 0-.066-2.428-.501-2.612 0 0-.716.632-.823.892 0 0 .565 1.2.213 1.822 0 0-.215-1.618-.4-1.626 0 0-.713 1.072-.786 1.8a3.895 3.895 0 0 1 .613-1.908 2.14 2.14 0 0 0-1.091.566s.11-.758 1.267-.824c0 0 .6-.814.747-.864 0 0-1.15-.096-1.848.214 0 0 .613-.714 2.06-.4l.799-.66s-1.514-.2-2.158.022c0 0 .74-.632 2.376-.172l.879-.526s-1.29-.28-2.06-.178c0 0 .811-.438 2.318.036l.629-.282s-.947-.186-1.223-.216c-.275-.03-.291-.106-.291-.106.599-.1 1.214-.03 1.776.2 0 0 1.348-.486 1.32-.57z"/>
        <path fill="#00D09C" d="M153.894 49.146s-7.593-.458-6.706 4.874c0 0-.178.942.676 1.37 0 0 .014-.4.78-.262.273.046.55.06.826.04.37-.027.72-.173.999-.416 0 0 2.138-.884 2.97-4.38 0 0 .612-.762.588-.958l-1.282.548s.437.926.094 1.696c0 0-.042-1.662-.288-1.624-.05 0-.667.322-.667.322s.755 1.614.185 2.786c0 0 .216-1.988-.421-2.67l-.893.522s.88 1.666.283 3.026c0 0 .154-2.086-.473-2.898l-.817.64s.827 1.642.323 2.77c0 0-.066-2.428-.501-2.612 0 0-.715.632-.825.892 0 0 .567 1.2.216 1.822 0 0-.216-1.618-.4-1.626 0 0-.713 1.072-.787 1.8a3.907 3.907 0 0 1 .615-1.908 2.15 2.15 0 0 0-1.093.566s.112-.758 1.269-.824c0 0 .59-.814.747-.864 0 0-1.15-.096-1.848.214 0 0 .613-.714 2.058-.39l.8-.66s-1.517-.2-2.159.022c0 0 .74-.632 2.376-.172l.88-.526s-1.294-.278-2.063-.178c0 0 .813-.438 2.32.036l.63-.282s-.948-.186-1.226-.216c-.277-.03-.291-.106-.291-.106.6-.1 1.215-.03 1.778.2 0 0 1.35-.49 1.327-.574zM107.77 44.412s1.748-7.418-3.655-7.444c0 0-.897-.336-1.463.432 0 0 .386.082.124.814-.09.259-.15.527-.18.8a1.72 1.72 0 0 0 .238 1.066s.506 2.26 3.796 3.676c0 0 .648.736.844.744l-.32-1.358s-.987.274-1.686-.2c0 0 1.644.242 1.646 0 0-.05-.2-.712-.2-.712s-1.716.468-2.775-.294c0 0 1.92.552 2.701.042l-.36-.984s-1.798.586-3.028-.236c0 0 2.028.508 2.935.028l-.49-.916s-1.758.536-2.783-.154c0 0 2.398.348 2.657-.048 0 0-.5-.814-.737-.966 0 0-1.27.356-1.83-.098 0 0 1.628.062 1.666-.11 0 0-.933-.886-1.644-1.086a3.915 3.915 0 0 1 1.776.932 2.16 2.16 0 0 0-.372-1.174s.728.24.6 1.4c0 0 .7.72.721.884 0 0 .29-1.118.104-1.86 0 0 .6.728.034 2.098l.511.91s.464-1.46.346-2.132c0 0 .498.836-.236 2.372l.37.958s.493-1.228.525-2c0 0 .294.876-.431 2.282l.172.668s.343-.902.42-1.17c.075-.268.153-.27.153-.27a3.278 3.278 0 0 1-.497 1.72s.261 1.396.347 1.386zM91.142 46.94s-6.098-4.566-8.278.38c0 0-.665.69-.188 1.516 0 0 .228-.322.8.212.202.188.426.352.667.488.326.182.703.252 1.073.2 0 0 2.27.438 4.883-2.024 0 0 .933-.3 1.02-.476l-1.376-.242s-.144 1.014-.853 1.468c0 0 .877-1.412.65-1.514-.047-.022-.734-.1-.734-.1s-.256 1.764-1.375 2.43c0 0 1.273-1.542 1.115-2.462l-1.045-.056s-.177 1.878-1.424 2.686c0 0 1.273-1.658 1.199-2.682l-1.035.084s-.21 1.826-1.251 2.49c0 0 1.277-2.064 1.015-2.456 0 0-.945.134-1.179.29 0 0-.182 1.308-.821 1.64 0 0 .71-1.47.565-1.572 0 0-1.185.502-1.65 1.074.403-.548.941-.98 1.562-1.256a2.15 2.15 0 0 0-1.222-.128s.507-.572 1.51.01c0 0 .94-.354 1.099-.31 0 0-.91-.714-1.662-.838 0 0 .907-.26 1.936.8l1.037-.106s-1.153-1-1.815-1.168c0 0 .966-.122 2.078 1.162l1.023.046s-.925-.944-1.622-1.284c0 0 .917.08 1.916 1.306l.681.11s-.689-.676-.905-.852c-.215-.176-.185-.25-.185-.25a3.284 3.284 0 0 1 1.376 1.144s1.389.322 1.415.24zM111.444 4.518s-6.098-4.568-8.278.38c0 0-.665.69-.188 1.516 0 0 .228-.322.8.212.203.188.427.35.669.486a1.71 1.71 0 0 0 1.073.2s2.27.438 4.883-2.026c0 0 .933-.298 1.019-.476l-1.377-.238s-.142 1.014-.853 1.468c0 0 .879-1.412.651-1.514-.046-.022-.733-.1-.733-.1s-.264 1.768-1.383 2.43c0 0 1.271-1.542 1.115-2.462l-1.045-.056s-.18 1.878-1.424 2.684c0 0 1.272-1.658 1.198-2.682l-1.032.084s-.212 1.828-1.253 2.492c0 0 1.278-2.064 1.017-2.456 0 0-.945.134-1.18.29 0 0-.18 1.308-.82 1.64 0 0 .709-1.47.565-1.574 0 0-1.185.504-1.65 1.076.402-.548.94-.981 1.562-1.256a2.136 2.136 0 0 0-1.225-.128s.51-.572 1.513.01c0 0 .939-.356 1.099-.31 0 0-.91-.714-1.662-.84 0 0 .905-.258 1.934.8l1.037-.106s-1.151-1-1.815-1.17c0 0 .965-.12 2.08 1.164l1.023.044s-.925-.944-1.624-1.282c0 0 .919.08 1.918 1.306l.68.11s-.692-.668-.908-.84c-.216-.172-.186-.248-.186-.248a3.278 3.278 0 0 1 1.377 1.144s1.389.304 1.423.228zM134.745 10.304s-2.438-7.222-7.035-4.384c0 0-.94.2-1.013 1.142 0 0 .37-.136.533.624.06.27.153.533.274.782.165.335.434.608.767.778 0 0 1.622 1.65 5.17 1.104 0 0 .938.284 1.11.186l-1-.982s-.69.754-1.534.724c0 0 1.525-.664 1.399-.878-.026-.042-.548-.496-.548-.496s-1.21 1.306-2.51 1.22c0 0 1.921-.548 2.313-1.4l-.828-.638s-1.21 1.444-2.695 1.4c0 0 1.998-.642 2.504-1.53l-.9-.518s-1.198 1.386-2.441 1.342c0 0 2.222-.974 2.228-1.446 0 0-.853-.426-1.135-.43 0 0-.891.974-1.599.886 0 0 1.415-.81 1.355-.976 0 0-1.259-.258-1.968-.05a3.89 3.89 0 0 1 1.998-.15 2.156 2.156 0 0 0-.937-.8s.743-.182 1.24.866c0 0 .976.242 1.08.368 0 0-.344-1.102-.893-1.634 0 0 .893.302 1.136 1.764l.916.5s-.378-1.482-.834-2c0 0 .866.448 1.053 2.138l.82.618s-.228-1.304-.612-1.98c0 0 .711.588.84 2.166l.497.476s-.184-.948-.26-1.216c-.076-.268-.014-.286-.014-.286a3.3 3.3 0 0 1 .486 1.724s.967 1.038 1.037.986zM118.836 10.66s-7.572-.844-6.947 4.534c0 0-.226.932.6 1.4 0 0 .034-.4.799-.22.27.058.546.086.823.082a1.717 1.717 0 0 0 1.029-.366s2.18-.774 3.197-4.224c0 0 .651-.73.637-.928l-1.309.484s.4.946 0 1.698c0 0 .042-1.662-.2-1.636-.05 0-.68.288-.68.288s.67 1.65.043 2.8c0 0 .316-1.976-.285-2.688l-.93.48s.8 1.71.13 3.038c0 0 .26-2.076-.325-2.918l-.85.6s.744 1.682.182 2.784c0 0 .058-2.428-.367-2.634 0 0-.748.6-.87.848 0 0 .506 1.22.124 1.83 0 0-.133-1.626-.31-1.642 0 0-.766 1.034-.878 1.764.069-.677.314-1.324.711-1.876a2.149 2.149 0 0 0-1.119.51s.148-.75 1.307-.758c0 0 .63-.782.799-.824 0 0-1.145-.154-1.858.12 0 0 .65-.684 2.076-.286l.84-.618s-1.52-.308-2.163-.108c0 0 .771-.6 2.382-.05l.905-.482s-1.277-.344-2.05-.282c0 0 .833-.4 2.314.154l.643-.25s-.937-.234-1.213-.278c-.276-.044-.286-.12-.286-.12.604-.07 1.216.03 1.767.288 0 0 1.346-.43 1.332-.514zM185.09 69.494s-7.568-.844-6.942 4.528c0 0-.226.932.599 1.4 0 0 .034-.4.8-.222.27.06.546.088.822.082a1.703 1.703 0 0 0 1.03-.366s2.18-.774 3.186-4.222c0 0 .652-.732.638-.928l-1.31.482s.4.948 0 1.7c0 0 .043-1.664-.199-1.636-.05 0-.681.286-.681.286s.671 1.65.044 2.8c0 0 .315-1.974-.286-2.688l-.93.482s.8 1.71.133 3.038c0 0 .258-2.076-.328-2.92l-.849.6s.743 1.682.182 2.782c0 0 .058-2.428-.368-2.632 0 0-.745.6-.869.848 0 0 .508 1.22.124 1.83 0 0-.134-1.626-.31-1.642 0 0-.767 1.034-.879 1.764.07-.677.315-1.324.711-1.876a2.13 2.13 0 0 0-1.119.51s.148-.752 1.307-.76c0 0 .632-.782.8-.822 0 0-1.145-.156-1.859.118 0 0 .65-.682 2.078-.284l.84-.618s-1.503-.284-2.157-.088c0 0 .772-.6 2.382-.052l.905-.48s-1.277-.344-2.05-.282c0 0 .833-.4 2.314.154l.643-.252s-.937-.234-1.212-.276c-.276-.042-.286-.12-.286-.12a3.272 3.272 0 0 1 1.766.286s1.35-.438 1.33-.524zM196.661 76.57s-7.568-.842-6.943 4.528c0 0-.224.932.6 1.4 0 0 .034-.4.799-.22.27.059.545.086.821.08a1.725 1.725 0 0 0 1.025-.364s2.178-.774 3.185-4.224c0 0 .653-.73.637-.928l-1.309.482s.4.948 0 1.7c0 0 .042-1.662-.2-1.636-.05 0-.68.286-.68.286s.67 1.65.043 2.8c0 0 .316-1.974-.285-2.686l-.93.48s.8 1.71.132 3.038c0 0 .258-2.076-.327-2.918l-.85.6s.744 1.682.184 2.784c0 0 .056-2.43-.37-2.634 0 0-.745.6-.868.848 0 0 .507 1.22.123 1.83 0 0-.133-1.626-.31-1.642 0 0-.766 1.034-.876 1.764.069-.676.313-1.323.709-1.876a2.149 2.149 0 0 0-1.119.51s.15-.752 1.309-.758c0 0 .63-.782.799-.824 0 0-1.145-.154-1.858.12 0 0 .65-.684 2.078-.286l.839-.618s-1.503-.284-2.156-.088c0 0 .771-.6 2.382-.05l.905-.482s-1.277-.344-2.05-.282c0 0 .833-.4 2.314.154l.643-.25s-.937-.234-1.21-.278c-.275-.044-.289-.12-.289-.12.604-.07 1.216.03 1.767.288 0 0 1.356-.442 1.336-.528zM170.973 16.968s-6.098-4.566-8.278.38c0 0-.665.69-.188 1.516 0 0 .228-.322.8.212.202.188.426.352.667.488.326.182.703.252 1.073.2 0 0 2.27.438 4.885-2.024 0 0 .93-.3 1.019-.476l-1.373-.248s-.144 1.014-.853 1.468c0 0 .877-1.412.65-1.514-.047-.022-.732-.1-.732-.1s-.258 1.764-1.377 2.43c0 0 1.273-1.542 1.115-2.462l-1.045-.056s-.178 1.878-1.424 2.686c0 0 1.274-1.658 1.199-2.682l-1.035.084s-.2 1.826-1.251 2.49c0 0 1.279-2.064 1.015-2.456 0 0-.945.134-1.179.29 0 0-.18 1.308-.82 1.64 0 0 .708-1.47.564-1.572 0 0-1.185.502-1.65 1.074.403-.548.941-.98 1.562-1.256a2.15 2.15 0 0 0-1.222-.128s.509-.572 1.512.01c0 0 .937-.354 1.097-.31 0 0-.91-.714-1.662-.838 0 0 .907-.26 1.936.8l1.037-.106s-1.151-1-1.815-1.168c0 0 .965-.122 2.078 1.162l1.025.046s-.927-.944-1.624-1.284c0 0 .92.08 1.916 1.306l.681.11s-.689-.676-.905-.852c-.215-.176-.184-.234-.184-.234.556.247 1.031.643 1.375 1.144 0 0 1.385.312 1.41.23zM175.684 49.932s-2.102-7.326-6.83-4.696c0 0-.946.146-1.064 1.094 0 0 .376-.118.505.648.049.275.129.544.24.8.148.345.405.631.731.816 0 0 1.547 1.72 5.115 1.336 0 0 .923.324 1.1.236l-.946-1.028s-.725.724-1.564.656c0 0 1.55-.6 1.43-.814-.024-.044-.523-.522-.523-.522s-1.267 1.252-2.562 1.106c0 0 1.944-.46 2.372-1.288l-.8-.676s-1.274 1.388-2.754 1.28c0 0 2.014-.554 2.569-1.416l-.875-.558s-1.269 1.33-2.5 1.23c0 0 2.264-.874 2.292-1.344 0 0-.835-.464-1.117-.48 0 0-.933.932-1.642.812 0 0 1.45-.746 1.398-.914 0 0-1.246-.314-1.964-.14a3.894 3.894 0 0 1 1.998-.058 2.145 2.145 0 0 0-.899-.84s.752-.15 1.2.92c0 0 .96.284 1.06.416 0 0-.294-1.118-.82-1.672 0 0 .88.34 1.058 1.812l.89.542s-.31-1.5-.742-2.028c0 0 .843.486.957 2.182l.799.654s-.17-1.312-.522-2c0 0 .686.62.742 2.2l.475.5s-.14-.956-.2-1.228 0-.31 0-.31a3.28 3.28 0 0 1 .41 1.744s.911 1.076.983 1.028zM128.846 66.44s-4.082-6.436-7.872-2.584c0 0-.867.4-.715 1.35 0 0 .33-.22.67.48.121.248.273.48.45.692.24.289.565.491.93.576 0 0 1.968 1.216 5.285-.16 0 0 .977.052 1.12-.082l-1.198-.72s-.494.9-1.319 1.07c0 0 1.323-1 1.145-1.184-.034-.036-.65-.352-.65-.352s-.865 1.556-2.147 1.782c0 0 1.736-.99 1.916-1.906l-.957-.422s-.833 1.69-2.284 2c0 0 1.778-1.098 2.068-2.082l-1-.288s-.842 1.634-2.051 1.884c0 0 1.926-1.476 1.82-1.936 0 0-.93-.21-1.199-.146 0 0-.633 1.158-1.348 1.242 0 0 1.183-1.124 1.085-1.272 0 0-1.285.05-1.924.42a3.886 3.886 0 0 1 1.906-.62 2.143 2.143 0 0 0-1.097-.554s.677-.354 1.398.546c0 0 1 0 1.137.1 0 0-.6-1-1.257-1.374 0 0 .94.08 1.523 1.442l1.009.268s-.721-1.35-1.283-1.736c0 0 .945.228 1.53 1.826l.944.4s-.532-1.21-1.065-1.776c0 0 .831.4 1.329 1.902l.599.346s-.4-.878-.542-1.12c-.141-.242-.085-.298-.085-.298.432.427.737.967.88 1.558 0 0 1.195.796 1.25.728z" opacity=".1"/>
        <path fill="#00D09C" d="M155.674 33.556s-3.882-6.558-7.792-2.826c0 0-.88.38-.756 1.328 0 0 .334-.212.654.498.114.252.258.49.43.708.229.295.549.506.91.6 0 0 1.928 1.276 5.287 0 0 0 .975.082 1.123-.048l-1.173-.756s-.52.882-1.35 1.028c0 0 1.352-.966 1.182-1.148-.036-.038-.639-.374-.639-.374s-.913 1.53-2.198 1.716c0 0 1.766-.936 1.972-1.844l-.943-.444s-.885 1.666-2.346 1.932c0 0 1.813-1.042 2.132-2.016l-.987-.32s-.895 1.6-2.11 1.82c0 0 1.97-1.416 1.879-1.878 0 0-.924-.24-1.2-.184 0 0-.669 1.138-1.386 1.2 0 0 1.217-1.084 1.125-1.236 0 0-1.287.01-1.936.36a3.897 3.897 0 0 1 1.924-.56 2.147 2.147 0 0 0-1.08-.588s.688-.334 1.398.588c0 0 .999.034 1.133.136 0 0-.566-1-1.213-1.412 0 0 .935.108 1.476 1.488l1 .3s-.678-1.372-1.23-1.776c0 0 .94.258 1.475 1.872l.93.434s-.494-1.226-1-1.8c0 0 .817.426 1.27 1.942l.586.364s-.375-.89-.507-1.136c-.132-.246-.076-.3-.076-.3.419.44.707.989.833 1.584 0 0 1.145.814 1.203.748zM131.112 47.346s.2-7.62-5.089-6.546c0 0-.947-.146-1.346.722 0 0 .4 0 .287.77-.036.275-.04.552-.012.828.036.374.194.725.45 1 0 0 .953 2.108 4.471 2.824 0 0 .782.59.977.558l-.599-1.264s-.91.468-1.69.15c0 0 1.658-.098 1.612-.342 0-.05-.344-.658-.344-.658s-1.586.81-2.775.278c0 0 1.998.15 2.652-.508l-.558-.886s-1.634.936-3.013.384c0 0 2.088.084 2.88-.57l-.666-.8s-1.612.884-2.755.416c0 0 2.421-.146 2.597-.588 0 0-.655-.694-.919-.8 0 0-1.17.6-1.81.276 0 0 1.598-.268 1.608-.446 0 0-1.093-.678-1.83-.728.68.012 1.345.202 1.928.552a2.15 2.15 0 0 0-.6-1.074s.762.086.866 1.24c0 0 .833.564.887.72 0 0 .058-1.154-.276-1.842 0 0 .735.59.46 2.046l.685.788s.156-1.524-.094-2.158c0 0 .656.718.252 2.37l.553.862s.236-1.302.11-2.068c0 0 .464.8.04 2.322l.304.62s.154-.954.174-1.232c.02-.278.096-.296.096-.296.12.597.072 1.215-.138 1.786 0 0 .537 1.32.625 1.294z"/>
        <ellipse cx="139.856" cy="143.26" fill="#00D09C" opacity=".1" rx="5.381" ry="1"/>
        <ellipse cx="120.241" cy="157.076" fill="#00D09C" opacity=".1" rx="5.381" ry="1"/>
        <ellipse cx="18.809" cy="149.998" fill="#00D09C" opacity=".1" rx="5.381" ry="1"/>
        <ellipse cx="161.053" cy="156.166" fill="#00D09C" opacity=".1" rx="5.381" ry="1"/>
        <ellipse cx="166.655" cy="144.62" fill="#00D09C" rx="8.034" ry="1.36"/>
        <path fill="#00D09C" d="M169.986 142.394c.366-.298.633-.702.765-1.156.1-.46-.096-1.01-.534-1.178-.491-.188-1.017.152-1.416.496-.4.344-.853.738-1.375.666.545-.495.79-1.24.648-1.962a.822.822 0 0 0-.18-.4c-.274-.292-.767-.166-1.095.064-1.04.732-1.329 2.144-1.335 3.416-.104-.458-.016-.936-.018-1.4-.002-.464-.132-1-.53-1.244a1.58 1.58 0 0 0-.798-.2c-.468-.016-.99.03-1.307.372-.4.424-.294 1.138.05 1.6.343.462.869.76 1.352 1.084.387.231.718.546.967.922a.94.94 0 0 1 .07.164h2.93a8.08 8.08 0 0 0 1.806-1.244z"/>
        <path fill="#A8A8A8" d="M15.197 145.768s3.067-.094 3.996-.754c.93-.66 4.721-1.446 4.951-.388.23 1.058 4.612 5.258 1.147 5.286-3.465.028-8.05-.54-8.973-1.104-.923-.564-1.121-3.04-1.121-3.04z"/>
        <path fill="#000" d="M25.349 149.544c-3.465.028-8.05-.54-8.973-1.104-.704-.428-.983-1.966-1.077-2.676h-.102s.2 2.478 1.117 3.04c.917.562 5.508 1.132 8.973 1.104.999 0 1.345-.364 1.327-.892-.14.322-.522.522-1.265.528z" opacity=".2"/>
    </g>
</svg>
