<svg xmlns="http://www.w3.org/2000/svg" width="420" height="338" viewBox="0 0 420 338">
    <g fill="none" fill-rule="evenodd">
        <ellipse cx="216" cy="169" fill="#00D09C" fill-rule="nonzero" opacity=".1" rx="190" ry="169"/>
        <ellipse cx="70" cy="255" fill="#44475B" fill-rule="nonzero" opacity=".1" rx="70" ry="11"/>
        <ellipse cx="104" cy="312.5" fill="#44475B" fill-rule="nonzero" opacity=".1" rx="27" ry="5.5"/>
        <ellipse cx="289" cy="290.5" fill="#44475B" fill-rule="nonzero" opacity=".1" rx="27" ry="5.5"/>
        <ellipse cx="197.5" cy="284.5" fill="#44475B" fill-rule="nonzero" opacity=".1" rx="44.5" ry="7.5"/>
        <ellipse cx="327.5" cy="247.5" fill="#44475B" fill-rule="nonzero" opacity=".1" rx="92.5" ry="14.5"/>
        <path fill="#A8A8A8" fill-rule="nonzero" d="M19.825 222.166a25.54 25.54 0 0 0 1.331 25.641c.81 1.214 1.554 2.087 2.148 2.318 2.852 1.12 8.564 3.875 8.564 3.875l13.753-5.404s2.233-11.811 4.344-21.952c1.44-6.917 2.832-13.053 3.402-14.13 1.424-2.649 0-31.494 0-31.494s-13.753-.922-17.535 9.68l-1.655 3.236-14.352 28.23z"/>
        <path fill="#FFF" fill-rule="nonzero" d="M37.799 225.375c8.507 9.588 12.096 1.295 12.096 1.295 1.465-6.92 2.88-13.06 3.461-14.137 1.449-2.651 0-31.513 0-31.513s-13.993-.923-17.842 9.685l-1.683 3.238c-1.078 8.488-2.144 24.531 3.968 31.432z" opacity=".1"/>
        <path fill="#A8A8A8" fill-rule="nonzero" d="M40 252l48.37-5.619L97 189.268l-6.526-14.834a60.134 60.134 0 0 0-11.286-17.124c-3.285-3.483-7.256-6.831-11.432-8.514a17.088 17.088 0 0 0-1.745-.6 4.498 4.498 0 0 0-4.03.718c-5.967 4.252-8.099 22.334-8.788 31.038a97.663 97.663 0 0 1-1.44 10.658L40 252z"/>
        <path fill="#FFF" fill-rule="nonzero" d="M72.103 187.911L62.167 213c5.207-3.908 12.921-25.191 12.921-25.191L82 212.074l-5.509-25.575a82.076 82.076 0 0 0 .7-16.783c-.437-6.42-6.308-16.726-9.495-21.915a16.62 16.62 0 0 0-1.721-.604 4.363 4.363 0 0 0-3.975.723c2.504 5.16 8.764 18.064 10.672 21.898 2.42 4.83-.569 18.093-.569 18.093z" opacity=".1"/>
        <path fill="#A8A8A8" fill-rule="nonzero" d="M80 254h26.085a7.852 7.852 0 0 0 5.737-2.5 8.118 8.118 0 0 0 2.168-5.949c-.577-11.368-2.04-31.637-5.517-44.503-1.879-6.942-4.062-10.586-6.066-12.382a5.878 5.878 0 0 0-3.449-1.649 4.47 4.47 0 0 0-2.804.692c-4.844 4.72-10.501 29.552-10.501 29.552L80 254z"/>
        <path fill="#FFF" fill-rule="nonzero" d="M104.013 231.259c1.091 3.003 1.523 6.468 0 9.843L98.107 244s-15.874-6.682-13.944-20.377c0 0 .52-2.83 5.987-2.611 6.288.302 11.767 4.352 13.863 10.247zM98.425 195.73c-.181-4.855 2.423-6.54 4.575-7.075A5.933 5.933 0 0 0 99.524 187a9.36 9.36 0 0 0-3.033 4.905L91 219s7.732-15.131 7.425-23.27z" opacity=".1"/>
        <path fill="#A8A8A8" fill-rule="nonzero" d="M73.693 217l13.045 17.998L89 249.853l-8.384 4.175-12.086 2.693c-1.164.261-2.361.34-3.549.233L32 254.028l4.487-10.493 15.498-21.944L73.693 217z"/>
        <path fill="#FFF" fill-rule="nonzero" d="M68.605 211.007s9.021.603 5.634 15.693C70.852 241.79 36 243 36 243s7.406-12.775 18.798-21.929a51.985 51.985 0 0 0 3.69-3.237c2.62-2.551 7.632-7.035 10.117-6.827z" opacity=".1"/>
        <path fill="#000" fill-rule="nonzero" d="M76 222s12.061 11.028 10.924 28M97 188s-12.588 16.938-14 43M53.716 180s6.491 27.94-9.716 49" opacity=".1"/>
        <path fill="#464353" fill-rule="nonzero" d="M164.726 283h66.565a3.743 3.743 0 0 0 3.186-1.792 3.603 3.603 0 0 0 .078-3.604l-33.266-60.68a3.736 3.736 0 0 0-3.28-1.924c-1.372 0-2.632.74-3.281 1.924l-33.283 60.68a3.603 3.603 0 0 0 .082 3.611 3.744 3.744 0 0 0 3.199 1.785zm37.517-11.088h-8.47V263.6h8.47v8.312zm0-13.856h-8.47v-16.628h8.47v16.628z"/>
        <path fill="#000" fill-rule="nonzero" d="M164.726 283h66.565a3.743 3.743 0 0 0 3.186-1.792 3.603 3.603 0 0 0 .078-3.604l-33.266-60.68a3.736 3.736 0 0 0-3.28-1.924c-1.372 0-2.632.74-3.281 1.924l-33.283 60.68a3.603 3.603 0 0 0 .082 3.611 3.744 3.744 0 0 0 3.199 1.785zm37.517-11.088h-8.47V263.6h8.47v8.312zm0-13.856h-8.47v-16.628h8.47v16.628z" opacity=".1"/>
        <path fill="#464353" fill-rule="nonzero" d="M164.726 285h66.565a3.743 3.743 0 0 0 3.186-1.792 3.603 3.603 0 0 0 .078-3.604l-33.266-60.68a3.736 3.736 0 0 0-3.28-1.924c-1.372 0-2.632.74-3.281 1.924l-33.283 60.68a3.603 3.603 0 0 0 .082 3.611 3.744 3.744 0 0 0 3.199 1.785zm37.517-11.088h-8.47V265.6h8.47v8.312zm0-13.856h-8.47v-16.628h8.47v16.628z"/>
        <g fill="#000" fill-rule="nonzero" opacity=".1">
            <path d="M118.116 109.884c0 .122 0 .245.024.364.124-1.2.74-2.327.96-3.527.085-.481.11-.971.076-1.459 0 .214-.04.41-.076.64-.252 1.351-1 2.605-.984 3.982zM96.008 100.392a7.505 7.505 0 0 0-.268-2.458c-.237-.622-.43-1.26-.58-1.91 0 .087-.032.169-.036.255-.044.856.372 1.638.616 2.458.155.538.245 1.094.268 1.655zM95.448 109.613c.05.165.085.333.108.504a3.039 3.039 0 0 0-.108-1.323c-.12-.377-.32-.721-.452-1.098a3.495 3.495 0 0 1-.184-.848c-.06.563.004 1.132.184 1.667.132.377.332.725.452 1.098z"/>
        </g>
        <path fill="#464353" fill-rule="nonzero" d="M99.84 263.247a.528.528 0 0 1-.185.29.615.615 0 0 1-.318.068c-1.432.033-2.865 0-4.293.101-1.352.117-2.708.403-4.057.25a2.08 2.08 0 0 1-2.012-1.326 5.271 5.271 0 0 1-.225-.54 8.033 8.033 0 0 1-.551-2.982v-.806a6.121 6.121 0 0 0-.117-.878 1.336 1.336 0 0 1 .04-1.02c.572-1.043 1.952-1.253 3.014-1.334a24.855 24.855 0 0 1 7.344.54 72.203 72.203 0 0 0 1.16 4.78c.125.414.227.835.305 1.261.1.532.064 1.081-.105 1.596z"/>
        <path fill="#000" fill-rule="nonzero" d="M99.857 263.035a.724.724 0 0 1-.181.372.487.487 0 0 1-.311.088c-1.403.041-2.805 0-4.204.129-1.323.15-2.651.516-3.97.32-.866.04-1.656-.641-1.97-1.698a8.022 8.022 0 0 1-.221-.691h.504c1.659 0 3.321-.078 4.98-.078.5 0 1.004-.03 1.5-.108.497-.077.903-.186 1.356-.258.678-.085 1.36-.121 2.04-.108h.56a5.362 5.362 0 0 1-.083 2.032z" opacity=".06"/>
        <path fill="#464353" fill-rule="nonzero" d="M130.491 255.193a4.188 4.188 0 0 1-1.693 1.135c-2.911 1.171-6.276.644-9.282-.308a14.665 14.665 0 0 0-2.065-.566 14.558 14.558 0 0 0-1.934-.128c-.462 0-.924-.035-1.386-.063-1.17-.07-2.335-.18-3.496-.289a16.5 16.5 0 0 1-2.404-.347 2.626 2.626 0 0 1-.642-.25.941.941 0 0 1-.589-.838c.033-.496.572-.78 1.047-.995 4.207-1.737 8.779-2.49 13.317-3.095a5.526 5.526 0 0 0 1.338-.39c.51-.195.564.125.817.484.12.166.257.32.41.46a4.923 4.923 0 0 0 1.7.953c1.104.39 2.286.495 3.39.866.334.11.654.257.953.437.535.278.905.776 1.003 1.35a1.824 1.824 0 0 1-.504 1.584h.02z"/>
        <path fill="#000" fill-rule="nonzero" d="M130.475 256.094a4.212 4.212 0 0 1-1.705 1.198c-2.931 1.234-6.32.679-9.347-.325a14.247 14.247 0 0 0-2.08-.597 14.01 14.01 0 0 0-1.947-.136c-.465 0-.93-.037-1.396-.066.379-.358.766-.707 1.161-1.045a3.46 3.46 0 0 1 .976-.642c.448-.146.925-.179 1.388-.094 2.355.325 4.472 1.975 6.848 1.83a8.429 8.429 0 0 0 3.15-1.016 5.497 5.497 0 0 0 2.059-1.464c.17-.222.3-.47.382-.737a1.983 1.983 0 0 1 .503 3.094h.008z" opacity=".06"/>
        <path fill="#000" fill-rule="nonzero" d="M121.954 127.915a8.713 8.713 0 0 1-.752 3.002 12.2 12.2 0 0 0-1.286 5.274c-.314 5.476-2.409 11.996.592 16.596.074.114.147.227.217.345a6.489 6.489 0 0 0-1.344.868c-1.29-2.227-1.633-4.868-1.87-7.424a91.53 91.53 0 0 1-.286-4.462 19.887 19.887 0 0 1 .066-3.197c.155-1.217.51-2.406.73-3.615.132-.708.216-1.423.254-2.142.105-1.57.033-3.147-.217-4.702a28.985 28.985 0 0 0-1.135-4.868c-.261-.726-.576-1.428-.861-2.142l-.098-.251a9.078 9.078 0 0 1-1.932 2.783 2.566 2.566 0 0 1-.963.633c-.31.078-.63.108-.948.089-1.089 0-2.177-.016-3.266-.049-.848.01-1.694-.073-2.524-.247a9.04 9.04 0 0 1-2.572-1.152c-3.05-1.875-5.557-4.73-6.631-8.114-.135-.43-.229-.945.07-1.282a1.587 1.587 0 0 1 1.04-.353h.05l3.674 4.515a7.3 7.3 0 0 1 1.062 1.578.94.94 0 0 0 .327.483.842.842 0 0 0 .408.073h11.498a2.952 2.952 0 0 0-.506-1.708c-.106.025-.25.033-.029-.032-.2-1.317-.628-2.59-1.266-3.76a2.61 2.61 0 0 0-.126-.236 4.311 4.311 0 0 1-.604-1.315 2.219 2.219 0 0 1 1.339 0c.502.215.763.755.984 1.254.188.406.376.84.543 1.266 0 .044.04.093.057.138.356.839.585 1.726.678 2.633.024.332.106.754.384.864.043.02.09.03.139.032a1.55 1.55 0 0 1 1.67.406c.401.457.682 1.006.816 1.598.133.592.327 1.168.58 1.72.527.998-.278 1.444.674 2.057.445.243.827.585 1.119.998.269.576.354 1.22.245 1.846zM98.378 254.712c.188 1.08.399 2.151.622 3.222l-.024.066c-1.821-.94-3.686-1.921-5.674-2.128-1.845-.188-3.85.4-5.105 1.978a8.337 8.337 0 0 0-.116-1.024 1.812 1.812 0 0 1 .04-1.189c.566-1.217 1.933-1.461 2.985-1.555a21.017 21.017 0 0 1 7.272.63z" opacity=".1"/>
        <path fill="#000" fill-rule="nonzero" d="M114.995 118.973c.191 0 .122 0 .029.033-.094.032-.248.032-.029-.033zM124 249.982a35.433 35.433 0 0 0-5.135 3.702c-.46.46-1.01.834-1.62 1.104a5.064 5.064 0 0 1-1.952.187 71.189 71.189 0 0 1-7.702-.71.922.922 0 0 1-.591-.822c.033-.485.574-.764 1.05-.974 4.22-1.7 8.805-2.437 13.358-3.03.463-.071.914-.2 1.341-.381.513-.191.566.122.82.474.127.163.271.314.431.45z" opacity=".1"/>
        <path fill="#00D09C" fill-rule="nonzero" d="M94.599 114.43c.59.532 1.264.962 1.863 1.478 1.606 1.375 2.618 3.298 3.614 5.172-.59.216-1.23.26-1.843.126-.316 1.8-.263 3.646.156 5.425a5.021 5.021 0 0 0-1.795 2.251 15.188 15.188 0 0 0-.586 2.84 10273.7 10273.7 0 0 1-1.743 12.667 1.976 1.976 0 0 1-.401 1.14 2.175 2.175 0 0 0-.305.304 1.7 1.7 0 0 0-.141.872c-.024.297-.217.65-.51.61a.634.634 0 0 1-.357-.236 8.27 8.27 0 0 1-.803-1.006c-2.37 4.592-3.51 9.542-4.763 14.565-.895 3.578-1.79 7.197-1.835 10.89.012 1.746.12 3.49.325 5.225l.354 3.562c.285 2.864.57 5.733.88 8.597.2 1.818.4 3.652 1.047 5.364.964 2.6-.104 5.534.305 8.284.322 2.155.96 4.382.318 6.46-.257.831-.707 1.59-1.044 2.393-.828 1.996-.912 4.216-.984 6.378-.13 1.895-.06 3.8.209 5.68.345 1.943 1.12 3.846.967 5.81-.213 2.795-2.252 5.185-2.501 7.976-.197 2.228.77 4.378 1.81 6.354.768 1.456-.3 3.339-.706 4.941-.803 3.14.534 6.427 2.172 9.214a.44.44 0 0 0 .21.22c.188.068.356-.118.481-.277 1.233-1.598 3.417-2.203 5.42-2.028 2.005.174 3.88 1.01 5.719 1.838l2.606-5.863c.442-.994.891-2.07.67-3.136-.156-.763-.642-1.408-.987-2.106-.803-1.647-.843-3.566-.851-5.412l-.049-10.427c2.032-2.58 3.273-5.647 4.056-8.853a28.686 28.686 0 0 1 .24 13.795c-.192.687-.326 1.39-.4 2.101-.157 2.893 2.087 5.34 2.686 8.171.058.217.074.443.048.666a2.52 2.52 0 0 1-.333.77c-1.077 1.972-.96 4.362-.803 6.61 2.815.495 5.66.803 8.516.92a4.74 4.74 0 0 0 1.912-.198 5.28 5.28 0 0 0 1.586-1.177 35.06 35.06 0 0 1 5.971-4.564 13.972 13.972 0 0 0-4.879-4.869c.647-.961 2.12-.884 2.98-1.655a2.85 2.85 0 0 0 .803-1.598c.321-1.59-.077-3.246-.474-4.808-.771-3.075-1.546-6.163-2.81-9.068a35.045 35.045 0 0 1-1.51-3.672c-1.053-3.497-.318-7.302-1.113-10.877-.257-1.144-.67-2.325-.382-3.465.442-1.756 2.41-2.8 2.843-4.56 1.554-6.268 1.832-12.764 2.715-19.162.198-1.222.304-2.458.317-3.696 0-1.294-.229-2.576-.321-3.866-.361-5.165 1.273-10.318.855-15.478a19.609 19.609 0 0 0-3.02-8.926c-2.95-4.605-.89-11.12-.582-16.598a12.307 12.307 0 0 1 1.261-5.274 8.727 8.727 0 0 0 .743-3.003 3.133 3.133 0 0 0-.225-1.894 3.18 3.18 0 0 0-1.096-.998c-.936-.617-.145-1.063-.663-2.061a8.72 8.72 0 0 1-.57-1.72 3.633 3.633 0 0 0-.803-1.595 1.507 1.507 0 0 0-1.642-.406c-.382 0-.486-.511-.518-.896-.109-1.412-.687-2.74-1.253-4.037-.217-.5-.474-1.039-.968-1.254a2.19 2.19 0 0 0-1.32 0c.123.47.326.916.597 1.319a11.537 11.537 0 0 1 1.366 3.992c-.402.122.401 0 0 0a2.86 2.86 0 0 1 .526 1.74h-11.304a.796.796 0 0 1-.402-.073.974.974 0 0 1-.325-.483 7.036 7.036 0 0 0-1.044-1.574l-3.975-4.953a1.008 1.008 0 0 0-.341-.313.914.914 0 0 0-.502 0c-1.29.19-2.241.734-3.365 1.396z"/>
        <path fill="#000" fill-rule="nonzero" d="M108.517 182a4.094 4.094 0 0 1 2.031.507c.624.355 1.008 1 1.01 1.699-.046.76-.651 1.364-1.089 2.012a5.315 5.315 0 0 0-.642 1.271.494.494 0 0 0-.034.326c.05.153.221.23.367.298 1.083.472 1.795 1.495 1.84 2.64-.038 1.57-1.627 2.84-1.54 4.426.04.33.099.658.176.982a7.26 7.26 0 0 1-.563 3.98c-.505 1.264-1.193 2.45-1.736 3.702-1.464 3.4-1.781 7.167-1.668 10.865.087 2.511-.835 4.902-1.669 7.292.471-4.815.597-9.655.375-14.487-.058-1.312-.229-2.551-.166-3.867.1-2.088 1.31-3.988 1.618-6.036.175-1.171.059-2.362.088-3.545.058-2.415.738-4.797.784-7.22.058-1.71-.104-3.472.818-4.845z" opacity=".1"/>
        <circle cx="104" cy="122" r="1" fill="#FFF" fill-rule="nonzero"/>
        <circle cx="116" cy="122" r="1" fill="#FFF" fill-rule="nonzero"/>
        <g fill="#000" fill-rule="nonzero" opacity=".1">
            <path d="M101.414 115.578a2.26 2.26 0 0 1-.828.634 6.521 6.521 0 0 1-4.705.402c-.181.226-.378.44-.587.638 1.714.69 3.631.62 5.292-.194.32-.143.604-.36.828-.634.288-.427.384-.96.265-1.463a1.517 1.517 0 0 1-.265.617zM96.841 108.764a7.036 7.036 0 0 1-.521-1.306 1.95 1.95 0 0 0-.05.465c.078.597.272 1.172.571 1.69.304.71.48 1.468.518 2.241a6.678 6.678 0 0 0-.518-3.09zM114.58 104.66c.037.192.063.387.08.583v-.186a5.244 5.244 0 0 0-.092-1.243c-.09-.444-.24-.884-.31-1.332-.02.1-.033.202-.037.305a7.94 7.94 0 0 0 .36 1.872zM111.974 116.03a2.217 2.217 0 0 1-.178-.215.89.89 0 0 0-.12.566c.052.19.155.362.298.495a8.271 8.271 0 0 0 6.695 2.701c-.07-.279-.14-.553-.207-.845a8.262 8.262 0 0 1-6.488-2.701z"/>
        </g>
        <path fill="#444176" fill-rule="nonzero" d="M283.553 207.071s-9.529 12.365-17.436 12.466c-7.907.102-12.548 5.209-8.794 8.4 3.754 3.192 44.665-1.822 44.665-1.822s.386-15.196-3.159-17.415c-3.545-2.22-15.276-1.629-15.276-1.629zM384.943 221.985s1.43 9.778-2.99 16.447c-4.422 6.668 7.988 9.24 7.988 9.24s9.016 2.52 9.673-6.417c.657-8.938.444-15.772-.403-16.5-.846-.728-1.552-5.755-1.552-5.755l-12.716 2.985z"/>
        <path fill="#A8A8A8" fill-rule="nonzero" d="M241 240.487s-.33-31.689 31.24-44.57l7.33-13.852 3.516-8.51c2.584-6.254 8.08-10.861 14.722-12.34l5.686-1.269 1.759-7.358c1.914-8.039 8.458-14.177 16.647-15.616a58.68 58.68 0 0 1 10.484-.972 9.034 9.034 0 0 1 7.665 4.457s29.909-.328 31.235 15.846c0 0 2.994 14.85 7.314 17.492 0 0 7.31-1.65 14.62 8.914l7.975 27.066s20.935 19.472 14.62 37.276c0 0-8.64 12.212-52.504 3.958 0 0-46.855 14.182-71.795-5.267-.004.025-41.54 7.946-50.514-5.255z"/>
        <path stroke="#000" d="M262 236s6.75-9.353 6.41-16.037C268.07 213.279 270 197 270 197M287 212s6.545-12.443 5.89-19.168c0 0 6.875-12.798 12.11-11.774M323 176s18.015-6.667 19-12M330 191.863s19.115-8.556 19.115-10.863h9.552s13.843 18.102 12.197 26M353 205.145s-18.767-1.308-25.473 3.924c-6.705 5.232-18.767 7.844-18.767 7.844s-7.039 14.708-9.721 17.32C296.357 236.845 292 246 292 246M352 222s1.939 6.918 4.529 10.875S363 251 363 251M383 243s4.257 10.894 8 11" opacity=".1"/>
        <path stroke="#000" d="M356 192s10.921 2.984 15.487 10.214C376.054 209.444 390 216 390 216M360 157s0 15.334 4.254 15.334S378 174 378 174M339 139s-1.146 26.213-7 33" opacity=".1"/>
        <g fill="#000" fill-rule="nonzero" opacity=".05">
            <path d="M400.986 209.867l-7.943-26.99c-7.282-10.534-14.563-8.89-14.563-8.89-4.303-2.633-7.282-17.446-7.282-17.446-1.324-16.129-31.117-15.798-31.117-15.798a8.997 8.997 0 0 0-7.651-4.444c-1.406 0-2.844.044-4.283.162.813.08 1.592.195 2.337.343l2.316 3.952s29.788-.332 31.113 15.798c0 0 2.982 14.812 7.285 17.446 0 0 7.282-1.648 14.563 8.889l7.944 26.99s20.853 19.418 14.563 37.172c0 0-4.246 6.008-21.91 6.735 23.816.869 29.191-6.735 29.191-6.735 6.29-17.766-14.563-37.184-14.563-37.184zM284.47 245.741a155.404 155.404 0 0 1-21.206 2.307c8.293.316 16.92-.577 22.478-1.337-.43-.327-.853-.642-1.271-.97zM355.969 251.01a136.657 136.657 0 0 1-31.255 4.913c15.258.55 29.71-2.614 35.668-4.133-1.439-.238-2.898-.51-4.413-.78z"/>
        </g>
        <path fill="#A8A8A8" fill-rule="nonzero" d="M91 302.148s9.14-.293 11.892-2.338c2.753-2.045 14.053-4.485 14.739-1.207.685 3.278 13.73 16.304 3.413 16.394-10.318.089-23.968-1.675-26.716-3.423-2.749-1.747-3.328-9.426-3.328-9.426z"/>
        <path fill="#000" fill-rule="nonzero" d="M121.233 313.925c-10.318.084-23.973-1.564-26.721-3.176-2.093-1.242-2.929-5.697-3.206-7.749H91s.58 7.174 3.328 8.801c2.749 1.628 16.403 3.276 26.718 3.196 2.981-.024 4.009-1.056 3.952-2.584-.412.92-1.55 1.496-3.765 1.512z" opacity=".2"/>
        <path fill="#A8A8A8" fill-rule="nonzero" d="M313 280.39s-10.7-2.116-13.55-4.938c-2.85-2.822-15.69-7.753-17.118-4.23-1.427 3.524-19.254 15.514-7.131 17.638 12.122 2.125 28.527 2.806 32.094 1.411 3.568-1.395 5.705-9.88 5.705-9.88z"/>
        <path fill="#000" fill-rule="nonzero" d="M275.198 287.444c12.128 2.176 28.529 2.89 32.097 1.45 2.713-1.107 4.602-6.42 5.348-8.894l.357.078s-2.14 8.712-5.705 10.166c-3.564 1.453-19.97.727-32.097-1.454-3.499-.627-4.5-2.105-4.123-3.972.3 1.23 1.52 2.168 4.123 2.626z" opacity=".2"/>
        <path fill="#44475B" fill-rule="nonzero" d="M210.12 46.668h-2.56c.991 0 1.794-.821 1.794-1.834 0-1.013-.803-1.834-1.794-1.834h-20.743c-.99 0-1.794.821-1.794 1.834 0 1.013.803 1.834 1.794 1.834h2.56c-.956.047-1.708.853-1.708 1.832 0 .979.752 1.785 1.708 1.832h-3.583c-.99 0-1.794.821-1.794 1.834 0 1.013.803 1.834 1.794 1.834h20.743c.99 0 1.794-.821 1.794-1.834 0-1.013-.803-1.834-1.794-1.834h3.584c.66.032 1.285-.31 1.624-.89a1.87 1.87 0 0 0 0-1.884 1.784 1.784 0 0 0-1.624-.89zM291.122 109.667h-2.558c.955-.047 1.707-.854 1.707-1.833s-.752-1.785-1.707-1.832h-20.749a1.783 1.783 0 0 0-1.623.89c-.34.58-.34 1.305 0 1.885.34.58.963.922 1.623.89h2.559c-.956.046-1.708.853-1.708 1.832 0 .98.752 1.786 1.708 1.832h-3.581c-.99 0-1.793.822-1.793 1.835s.803 1.834 1.793 1.834h20.724c.99 0 1.792-.821 1.792-1.834 0-1.013-.802-1.835-1.792-1.835h3.605c.66.032 1.284-.31 1.623-.89.34-.58.34-1.304 0-1.884a1.783 1.783 0 0 0-1.623-.89zM171.129 97.667h-2.56c.66.032 1.284-.31 1.624-.89a1.87 1.87 0 0 0 0-1.885 1.784 1.784 0 0 0-1.624-.89H147.82a1.784 1.784 0 0 0-1.624.89 1.87 1.87 0 0 0 0 1.885c.34.58.964.922 1.624.89h2.56a1.784 1.784 0 0 0-1.624.89 1.87 1.87 0 0 0 0 1.884c.34.58.964.922 1.625.89h-3.588c-.99 0-1.794.822-1.794 1.835s.803 1.834 1.794 1.834h20.743c.99 0 1.794-.821 1.794-1.834 0-1.013-.803-1.835-1.794-1.835h3.584c.66.032 1.285-.31 1.624-.89a1.87 1.87 0 0 0 0-1.884 1.784 1.784 0 0 0-1.624-.89h.008z" opacity=".1"/>
        <g fill-rule="nonzero">
            <path fill="#6C63FF" d="M121.798 139.353h21.191v3.529h-21.191zM121.798 147.294h21.191v3.529h-21.191zM93.543 104.941h4.415v4.412h-4.415zM93.543 113.765h4.415v4.412h-4.415zM93.543 122.588h4.415V127h-4.415zM93.543 130.529h4.415v4.412h-4.415zM93.543 140.235h4.415v4.412h-4.415zM93.543 149.941h4.415v4.412h-4.415zM78.532 148.176c.033.037.065.074.1.11h.708v.74c.075.074.152.147.228.22v-.958h1.069v1.543h-.433c.042.036.085.074.13.11h9.677v-1.763l-11.48-.002zm3.402 1.654h-1.07v-1.543h1.07v1.543zm1.296 0h-1.068v-1.543h1.068v1.543zm1.297 0h-1.069v-1.543h1.07v1.543zm1.297 0h-1.069v-1.543h1.069v1.543zm1.297 0h-1.069v-1.543h1.069v1.543zm1.297 0h-1.07v-1.543h1.07v1.543zm1.365 0h-1.137v-1.543h1.137v1.543zM85.596 154.353c.125.067.252.13.38.194v-.064h1.09v.577l.231.1v-.677h1.09v1.109l.232.083v-1.192h1.16v1.567l.232.068v-1.765h-4.415zM122.895 107.616s-.885 3.155.942 3.443c.172.11.379.063.512-.114 0 0-.127-.055-.01-.363.042-.109.073-.224.094-.343a.967.967 0 0 0-.04-.479s-.08-1.013-1.141-1.802c0 0-.19-.356-.256-.37l.055.612s.344-.07.563.171c0 0-.544-.19-.558-.08 0 .021.04.322.04.322s.6-.118.927.27c0 0-.628-.34-.911-.156l.084.447s.63-.163 1.015.258c0 0-.665-.324-.99-.161l.129.422s.616-.141.935.209c0 0-.8-.281-.9-.115.055.163.126.318.21.46 0 0 .445-.09.615.14 0 0-.549-.111-.568-.038 0 0 .281.436.514.562a1.378 1.378 0 0 1-.564-.499c-.014.184.013.37.08.533 0 0-.238-.14-.147-.64 0 0-.21-.35-.21-.421 0 0-.143.473-.108.808 0 0-.174-.35.072-.92l-.137-.421s-.217.614-.202.915c0 0-.135-.392.174-1.026l-.086-.437c-.114.265-.2.549-.258.843 0 0-.065-.398.236-.975l-.031-.301s-.152.377-.188.49c-.036.114-.063.11-.063.11.025-.266.106-.517.235-.727 0 0-.034-.627-.064-.627zM112.3 130.556s-.886 3.156.942 3.444c.171.11.378.063.511-.115 0 0-.127-.055-.01-.361.042-.11.074-.226.094-.345a.955.955 0 0 0-.04-.48s-.08-1.013-1.141-1.8c0 0-.19-.356-.255-.37l.054.61s.345-.068.563.173c0 0-.544-.19-.558-.081 0 .022.04.322.04.322s.6-.117.927.27c0 0-.628-.34-.911-.156l.085.448s.629-.164 1.014.259c0 0-.665-.326-.99-.163l.129.421s.616-.14.935.21c0 0-.798-.281-.9-.114.055.164.126.318.21.46 0 0 .445-.092.616.14 0 0-.55-.11-.57-.036 0 0 .282.434.515.562-.219-.1-.413-.27-.564-.498a1.18 1.18 0 0 0 .08.532s-.238-.14-.147-.638c0 0-.208-.352-.209-.422 0 0-.143.475-.109.808 0 0-.173-.349.072-.92l-.137-.421s-.217.614-.2.914c0 0-.136-.391.173-1.025l-.087-.437c-.114.265-.2.549-.257.843 0 0-.066-.399.235-.975l-.031-.303s-.152.377-.188.491c-.036.114-.063.11-.063.11.025-.266.107-.518.237-.727 0 0-.036-.63-.065-.63zM107.884 100.558s-.884 3.154.942 3.442c.173.11.38.063.513-.114 0 0-.128-.054-.01-.362.042-.11.073-.226.093-.345a.962.962 0 0 0-.038-.478s-.082-1.013-1.143-1.802c0 0-.19-.356-.256-.37l.056.612s.344-.07.562.171c0 0-.544-.19-.558-.08 0 .021.04.322.04.322s.6-.118.928.27c0 0-.628-.34-.912-.156l.084.447s.63-.164 1.016.259c0 0-.666-.326-.992-.162l.13.422s.616-.14.935.21c0 0-.799-.28-.9-.115.055.164.126.318.21.46 0 0 .445-.09.616.14 0 0-.548-.11-.568-.037 0 0 .28.435.513.562a1.385 1.385 0 0 1-.564-.499c-.015.184.013.369.08.533 0 0-.238-.14-.146-.64 0 0-.209-.35-.21-.422 0 0-.142.474-.109.809 0 0-.175-.35.072-.92l-.138-.421s-.217.614-.201.915c0 0-.135-.392.174-1.026l-.087-.438c-.114.266-.2.55-.258.844 0 0-.064-.398.236-.976l-.03-.3s-.154.376-.19.489c-.035.112-.062.11-.062.11.025-.265.107-.517.236-.726 0 0-.033-.628-.064-.628zM115.617 117.37s.903 2.328 3.046 1.518c.25-.028.446-.166.486-.342 0 0-.17.036-.223-.208a.88.88 0 0 0-.103-.252.648.648 0 0 0-.323-.261s-.685-.553-2.298-.447c0 0-.414-.107-.494-.08l.419.33s.332-.226.71-.203c0 0-.703.182-.651.252.011.014.232.168.232.168s.575-.392 1.161-.34c0 0-.878.138-1.076.399l.355.218s.583-.435 1.25-.394c0 0-.912.166-1.168.437l.39.181s.575-.416 1.135-.378c0 0-1.025.266-1.041.416.157.066.325.119.5.157 0 0 .43-.292.745-.25 0 0-.66.23-.636.283 0 0 .56.101.883.053a2.465 2.465 0 0 1-.902.01c.093.116.232.21.4.27 0 0-.34.044-.535-.298 0 0-.43-.094-.477-.136 0 0 .127.356.36.534 0 0-.394-.112-.464-.58l-.398-.175s.13.477.32.646c0 0-.376-.158-.417-.697l-.35-.21c.034.218.108.433.221.638 0 0-.303-.203-.319-.7l-.21-.162s.057.304.084.39c.027.086 0 .101 0 .101a.796.796 0 0 1-.172-.555s-.407-.349-.44-.334z" opacity=".1"/>
            <path fill="#CED7E7" d="M130.893 151.706s7.204-2.237 5.712-10.162l-9.15-2.191-2.125 6.503 5.563 5.85z"/>
            <path fill="#000" d="M125.33 145.985l5.562 6.603s7.205-2.525 5.713-11.47l-11.275 4.867z" opacity=".1"/>
            <path fill="#FED253" d="M94.438 82.651s1.177 1.74 2.787.87c1.61-.868.065-3.268.065-3.268s-3.083-.383-2.852 2.398z"/>
            <path fill="#FFA2A2" d="M132.129 141.118l5.03.42 9.362.08-7.376 9.407s-2.34.132-2.823.473c-.482.342-7.25.16-7.25.16l-1.093-4.823 4.15-5.717z"/>
            <path fill="#000" d="M132.129 141.118l5.03.42 9.362.08-7.376 9.407s-2.34.132-2.823.473c-.482.342-7.25.16-7.25.16l-1.093-4.823 4.15-5.717z" opacity=".05"/>
            <path fill="#CED7E7" d="M125.935 115.729l1.155 2.01.25 3.506s.804 2.989 1.407 3.865c.603.876.854 3.197.854 3.197s.25 2.165.551 2.628c.3.463.703 3.822.703 3.822s2.662 5.464 5.07 6.133c0 0-11.948 4.021-5.672 11.238 0 0-4.468 1.132-5.523-.155-1.055-1.287-3.815-20.36-3.815-20.36l.853-16.084 4.167.2z"/>
            <path fill="#000" d="M125.935 115.729l1.155 2.01.25 3.506s.804 2.989 1.407 3.865c.603.876.854 3.197.854 3.197s.25 2.165.551 2.628c.3.463.703 3.822.703 3.822s2.662 5.464 5.07 6.133c0 0-11.948 4.021-5.672 11.238 0 0-4.468 1.132-5.523-.155-1.055-1.287-3.815-20.36-3.815-20.36l.853-16.084 4.167.2z" opacity=".05"/>
            <path fill="#CED7E7" d="M125.898 134.911c-.179.941.045 2.66.383 4.41.014.077.03.154.045.23l.058.29c.156.752.326 1.498.491 2.175.166.677.315 1.257.441 1.735.192.715.322 1.164.322 1.164a205.144 205.144 0 0 0 .08 2.589c0 .158.01.319.014.486l.021.899c0 .1 0 .2.007.301 0 .332.013.67.019 1.008.007.463.012.927.015 1.377v1.728c-.015 1.077-.059 1.889-.152 2.123-.032.08-.061.168-.09.26-.121.43-.21.87-.264 1.314l-.238-.193c-.457-.372-.91-.752-1.369-1.121a19.888 19.888 0 0 0-2.424-1.719 7.028 7.028 0 0 0-.174-.098 11.069 11.069 0 0 0-1.511-.705c-1.623-.61-3.361-.833-5.123-.796-.702.266-1.158.456-1.158.456l-.894.266-.149.045c-.968.291-2.329.705-2.819.877-.792.277-7.671 1.692-7.671 1.692-.629.17-1.27.285-1.92.347a27.38 27.38 0 0 1-3.597.744c-2.76.348-5.564.125-8.233-.656-.08.005-.16.003-.239-.006.05 0 .097-.012.14-.02l-.17-.05-.235-.072a21.25 21.25 0 0 1-1.17-.401l-.235-.089a18.38 18.38 0 0 1-1.1-.46l-.234-.105a20.528 20.528 0 0 1-1.1-.545c-.13-.067-.257-.14-.384-.207a22.579 22.579 0 0 1-1.123-.664c-.062-.523-.095-.873-.095-.873l-.547-2.695-.029-.139-.393-1.943-.028-.139-.855-4.227-.029-.139-.393-1.943-.028-.139-.867-4.225-.028-.139-.393-1.943-.028-.138-.86-4.234-.028-.138-.393-1.937-.028-.138-.156-.764-.235-1.156s-.749-1.058-1.591-2.308l-.095-.139c-.24-.351-.487-.716-.727-1.074l-.235-.35-.34-.512-.076-.115-.015-.024c-1.21-1.851-.4-2.656-.4-2.656s.508-.68 1.164-1.58c.032-.046.066-.091.101-.139.281-.388.59-.813.894-1.238l.234-.33a25.667 25.667 0 0 0 .357-.508c.648-.924 1.181-1.73 1.291-2.017.171-.45 1.264-1.784 2.353-2.955.858-.924 1.712-1.746 2.096-1.943.87-.453 1.228-1.92 1.228-1.92s1.892-.656 2.147-1.16c.256-.506 3.837-2.777 3.837-2.777s1.448-.921 2.034-1.476c.083-.073.155-.157.215-.249.203-.36 1.534-.658 2.074-.765l.228-.043a4.53 4.53 0 0 1 .819-1.061c.22-.193.496-.858.728-1.502.251-.702.446-1.378.446-1.378.41-1.365 1.228-.96 1.228-.96-.001.186.017.372.053.554.342 1.666 2.196 2.36 3.17 3.138 1.074.858 2.761 3.083 4.091 3.537 1.102.376 2.379 1.794 2.783 2.268l.031.036c.068.078.101.122.101.122s.755-.039 1.214-.047h.167a.492.492 0 0 0 .256-.103c.456-.307 1.136-1.206 1.433-1.413.356-.254.716-4.347.716-4.347l.018-.008c1.274-.59 2.641 5.314 2.641 5.314s2.404.708 2.609 1.213c.04.1.22.278.493.493a27.074 27.074 0 0 0 3.947 2.477c.031.016.06.031.091.043a4.41 4.41 0 0 0 .447.192l.084.03c.202.065.391.162.562.286.05.037.101.074.15.114.192.158.368.332.526.522l.069.085c.107.132.202.262.28.383.13.186.248.38.353.58 0 0 2.096 3.538 2.762 3.94.666.403 1.075 4.499 1.075 4.499l-2.248 8.231s-.105 2.082-.302 4.206c-.11 1.19-.249 2.402-.414 3.274z"/>
            <path fill="#63667E" d="M108.553 104.933s-1.505.811-2.681.888a2.225 2.225 0 0 1-.46-.026c-1.232-.186-3.04-1.192-3.04-1.192l2.12-2.309 2.58 1.27.948.876.533.493z"/>
            <g fill="#000" opacity=".1">
                <path d="M98 82.565a.64.64 0 0 0-.107-.535c.037.111-.124.176-.036.269.07.074.12.166.143.266zM97.889 81.702a.594.594 0 0 0-.03.154c.027-.045.064-.093.03-.154zM121.17 84.752c-.75.716-2.076.42-3.1.252a11.013 11.013 0 0 1-2.576-.748c-.72-.31-1.583-.687-2.232-.243-.247.169-.418.439-.678.588-.26.149-.59.159-.895.161-.996 0-1.992.013-2.965-.214-1.448-.34-2.947-1.195-4.326-.633-1.078.443-1.663 1.623-1.954 2.758-.143.556-.246 1.144-.57 1.617-.322.472-.944.807-1.472.586-.78-.329-.896-1.661-1.838-1.728-.735-.053-.94.476-.89 1.064.042-.449.284-.795.89-.752.942.067 1.057 1.4 1.838 1.728.528.222 1.151-.112 1.473-.587.321-.475.426-1.06.569-1.615.291-1.135.876-2.317 1.954-2.757 1.379-.564 2.878.286 4.326.632.968.228 1.972.22 2.965.213.306 0 .629-.008.895-.16s.427-.42.678-.59c.65-.441 1.511-.064 2.232.244.826.353 1.691.605 2.577.75 1.023.166 2.35.465 3.1-.254.406-.39.529-.955.502-1.574-.023.491-.165.936-.502 1.262zM99.983 77.618a1.53 1.53 0 0 0-.009.215c.014.298.127.595.162.886.053-.357-.11-.729-.153-1.1zM97.092 87.77c.012.043.02.086.027.13a1.033 1.033 0 0 0-.027-.442 3.718 3.718 0 0 0-.307-.586 1.775 1.775 0 0 1-.187-.68c-.029.342.036.685.187.993.12.185.222.381.307.585zM98.857 93.061l-.832-.013c.04.103.03.218-.025.312.234 0 .624.009.853.015.04-.245.054-.494.041-.741a3.374 3.374 0 0 1-.037.427zM97.496 92.27c-.34-.103-.735-.104-.989-.355a.91.91 0 0 1-.236-.6c-.021.33 0 .685.236.914.254.25.649.251.989.354.224.066.41.221.516.43.144-.296-.186-.644-.516-.743z"/>
            </g>
            <path fill="#000" d="M121.798 153.47a10.314 10.314 0 0 0-1.437-.697c-1.542-.604-3.194-.823-4.868-.786-.668.262-1.102.45-1.102.45l-.85.264-.14.043-.03-.29-.031-.286c-.3-2.911-.534-5.902-.534-5.902v-2.884l-.016-7.611-.134-2.51-.062-1.11-.012-.211-.024-.434-.014-.258a2.368 2.368 0 0 1-.075-.25 11.978 11.978 0 0 1-.134-.62c-.243-1.262-.55-3.39-.568-3.823-.024-.577-.51-4.025-.51-4.025-.05-1.898-1.602-5.472-1.994-6.146-.39-.674-.828-4.723-.68-4.942.075-.116.125-.807.156-1.444 0-.072.006-.144.009-.214.02-.498.03-.914.03-.914l1.527-.31.41-.083.032-.006.013.027c.044.084.182.351.343.703.02.037.036.077.055.116.008.02.017.039.027.058.299.673.645 1.558.63 2.067-.024.9.974 3.075.974 3.075.096.5 2.21 5.471 2.21 5.471s1.727 4.873 1.63 5.673c-.098.8.826 6.097.826 6.097l.949 5.448c.46 1.074 1.068 3.547 1.068 3.547l.23 1.403.045.268.615 3.743.302 1.834a51 51 0 0 0 .373 2.354c.118.714.286 1.418.503 2.107.108.33.194.667.258 1.009z" opacity=".1"/>
            <path fill="#63667E" d="M121.798 153.47a6.607 6.607 0 0 0-.165-.097 10.304 10.304 0 0 0-1.435-.696c-1.54-.602-3.19-.821-4.862-.784-.667.261-1.1.45-1.1.45l-.848.262-.031-.289a13.8 13.8 0 0 1-.027-.263c-.298-2.898-.533-5.869-.533-5.869V143.282l-.016-7.575-.133-2.391-.027-.496-.019-.335-.024-.444-.024-.45-.017-.325v-.071c0-.007 0-.016-.01-.024a3.694 3.694 0 0 1-.089-.328l-.016-.069-.021-.1c-.25-1.168-.619-3.687-.639-4.16-.024-.575-.51-4.015-.51-4.015-.049-1.894-1.6-5.46-1.99-6.133-.39-.672-.825-4.713-.68-4.93.084-.137.133-.969.165-1.655v-.159c.018-.423.024-.753.024-.753l1.419-.287.36-.073.056-.011.133-.027s.175.331.384.787l.027.058c.306.676.667 1.597.656 2.12-.024.898.972 3.068.972 3.068.096.498 2.209 5.459 2.209 5.459s1.724 4.862 1.626 5.66c-.097.799.826 6.084.826 6.084l.947 5.436c.46 1.07 1.066 3.539 1.066 3.539l.215 1.303.044.265.484 2.947.447 2.716s.133.968.317 2.054l.053.297c.119.716.287 1.422.503 2.112.118.358.213.724.283 1.095z"/>
            <path fill="#000" d="M121.798 82.915s-.53.85-1.01.85c-.479 0-2.343-.095-3.315-.472-.972-.376-5.737-.661-5.737-.661s-6.748.03-6.976-.253c-.228-.283-4.196-1.792-4.6-1.697-.085.02-.292.065-.568.122l-.317.064a4.618 4.618 0 0 0-1.624.287c-.676.098-1.27.148-1.46.062v-.143c.146-.105.298-.197.455-.273a10.081 10.081 0 0 1 2.874-.556c1.212-.056 2.63.12 3.875.901 0 0 1.566.914 2.628.914 1.063 0 9.706.093 11.729.817.403.143.813.25 1.229.321a4.214 4.214 0 0 0 2.678-.478c.005.005.01.01.014.017.01.016.022.032.035.047l.09.13zM93.543 104.941c.141.236 4.808 6.343 6.04 6.173 1.232-.17-6.04-6.173-6.04-6.173zM111.202 110.235s1.017 1.22.868 1.697c-.149.476-.868-1.697-.868-1.697zM97.073 118.176s-1.404 5.128-.668 5.291c.736.163.668-5.29.668-5.29zM111.202 136.706c.156.561 1.448 4.21 1.738 4.406.29.195-1.738-4.406-1.738-4.406zM127.096 123.47c-.042.19-1.078 1.306-.85 1.713.227.408.85-1.712.85-1.712zM117.552 134.059c-.048.135-.53 2.94.387 3.48.917.539-.387-3.48-.387-3.48zM130.401 147.381c-.362.205-.736.404-1.118.593-.411.204-.823.398-1.243.581a30.054 30.054 0 0 1-1.25.522 44.779 44.779 0 0 1-2.827 1.013c-1.12.362-1.863.559-1.863.559a1.986 1.986 0 0 0-.517-.044h-.148a6.402 6.402 0 0 0-.693.09c-1.532.279-3.697 1.062-5.001 1.574-.686.267-1.132.458-1.132.458l-.873.268-.145.045c-.945.293-2.275.709-2.753.882-.774.279-7.492 1.701-7.492 1.701-.614.17-1.24.287-1.874.35-1.56.145-3.129.181-4.694.108-1.572.103-4.116-.248-5.596-.486l-.236-.037c-.572-.095-.935-.164-.935-.164l.192-.27 3.938-5.528.024-.033 3.67-5.15.136-.186.334-.468s.2-.279.97-.297h.299a7.92 7.92 0 0 1 1.902.395l.179.054c2.657.775 6.764.58 6.764.58s2.556-.418 4.564-.669l.15-.02a18.114 18.114 0 0 1 1.98-.174c1.223.025 3.87-.635 3.87-.635.57-.124.81-.229 1.13-.462l.138-.1c.137-.105.295-.234.498-.393a28.7 28.7 0 0 1 1.708-1.23c.071-.048.147-.096.228-.14.08-.045.184-.105.282-.155a10.585 10.585 0 0 1 2.486-.838 14.336 14.336 0 0 1 2.163-.303h.109c2.058-.111 4.16.247 5.388 1.424a3.421 3.421 0 0 1 .758 1.077 3.605 3.605 0 0 1 .273.933v.045c0 .04.008.08.01.121.11 1.67-1.594 3.18-3.753 4.41z" opacity=".1"/>
            <path fill="#FFA2A2" d="M90.01 155.396s4.445.837 6.768.685c0 0 4.27.229 6.568-.456 0 0 6.722-1.423 7.492-1.702.77-.28 3.77-1.194 3.77-1.194s5.845-2.489 7.493-2.083c0 0 12.936-3.402 12.011-7.999-.924-4.596-9.09-3.554-11.66-1.828-2.571 1.725-2.195 1.905-3.471 2.184 0 0-2.648.66-3.871.635-1.224-.025-6.694.863-6.694.863s-4.295.204-6.941-.634c-2.646-.839-3.172-.102-3.172-.102l-8.292 11.631z"/>
            <path fill="#000" d="M100.606 143.217v.017a.941.941 0 0 1-.08.3c-.536 1.314-3.578 4.86-3.578 4.86a9.707 9.707 0 0 1-.501 1.23c-.42.851-.902 1.67-1.445 2.448a33.156 33.156 0 0 1-2.628 3.33h-.007c-.12.09-.246.172-.375.247-.328.196-.82.437-1.286.466-.079.005-.158.003-.237-.007.049 0 .096-.01.14-.02l-.17-.05-.234-.072c-.39-.123-.778-.257-1.162-.403l-.233-.09a18.146 18.146 0 0 1-1.093-.461l-.233-.106a20.3 20.3 0 0 1-1.093-.549c-.129-.067-.256-.14-.381-.207a22.377 22.377 0 0 1-2.253-1.439c-.279-.517-.51-.976-.635-1.223-.229-.46-.248-1.116-.22-1.592 0-.049 0-.095.008-.14.024-.298.06-.503.06-.503a7.17 7.17 0 0 1-.558-.87 1.024 1.024 0 0 1-.157-.502.594.594 0 0 0-.02-.212c-.107-.44-.568-1.198-.996-1.674-.318-.35-.337-1.659-.307-2.587.019-.558.053-.968.053-.968a.325.325 0 0 1-.132-.171 4.145 4.145 0 0 1-.226-.946c0-.046-.013-.092-.02-.14-.09-.64-.13-1.283-.13-1.283-1.032-.752-1.524-1.926-1.753-2.972l-.029-.14a8.786 8.786 0 0 1-.159-1.953v-.14-.034s.137-3.023.52-4.204a2.01 2.01 0 0 1 .048-.14c.028-.073.065-.144.109-.21.14-.185.239-.535.32-.95.058-.287.106-.607.14-.925.033-.265.058-.529.077-.773.055-.653.071-1.162.071-1.162l-.258-1.272a11.186 11.186 0 0 1-.163-1.048c0-.046-.011-.092-.017-.14a11.786 11.786 0 0 1-.035-1.946c0-.047 0-.093.009-.14.109-1.476.495-2.92 1.139-4.254l.07-.14a11.43 11.43 0 0 1 .525-.942c.215-.347.448-.683.698-1.005a11.37 11.37 0 0 1 1.558-1.63c1.41-1.21 2.703-1.737 3.878-1.777 5.14-.182 8.021 8.903 8.488 10.495l.067.237s2.082 2.083 1.472 2.997c-.118.201-.19.426-.21.659-.168 1.229.312 3.253.312 3.253s.17.558.667 1.895l.147.39c.31.837.383 2.242.205 3.5-.172 1.206-.575 2.272-1.221 2.545-1.322.558-.966 1.117-.662 1.576.18.329.332.673.45 1.03.192.514.37 1.055.436 1.266l.03.09a2.76 2.76 0 0 1 .573-.153c.25-.035.497-.01.545.204.025.114.168.25.37.385.6.413 1.712.845 1.712.845z" opacity=".1"/>
            <path fill="#CED7E7" d="M98.84 143.492a.887.887 0 0 1-.08.301c-.532 1.29-3.578 4.775-3.578 4.775-.14.412-.307.816-.501 1.206a17.342 17.342 0 0 1-1.14 1.952 32.256 32.256 0 0 1-2.9 3.68l-.033.034s-.123.092-.318.21a3.67 3.67 0 0 1-1.138.468l-.17-.05-.233-.07c-.391-.121-.779-.253-1.163-.396l-.233-.088c-.372-.14-.737-.291-1.093-.452l-.233-.104c-.372-.17-.737-.35-1.093-.538-.128-.066-.255-.137-.381-.204a22.477 22.477 0 0 1-2.253-1.41c-.171-.12-.34-.244-.508-.371-.188-.35-.34-.646-.433-.829-.229-.45-.248-1.094-.22-1.56 0-.049 0-.094.008-.138.024-.292.06-.493.06-.493s-.113-.15-.25-.352a5.758 5.758 0 0 1-.233-.37c-.14-.242-.248-.485-.227-.623a.651.651 0 0 0-.02-.208c-.109-.432-.572-1.175-1-1.642-.317-.343-.337-1.626-.308-2.536v-.137c.02-.472.05-.812.05-.812-.159-.067-.28-.564-.358-1.095l-.021-.137c-.09-.627-.13-1.258-.13-1.258-1.033-.737-1.524-1.888-1.752-2.914a8.191 8.191 0 0 1-.181-2.189v-.034s.12-2.98.502-4.138c.016-.05.033-.094.05-.137.033-.07.074-.138.124-.2.212-.29.353-.987.445-1.701l.017-.137c.115-.958.147-1.898.147-1.898l-.26-1.247a11.17 11.17 0 0 1-.162-1.028c-.007-.045-.012-.091-.017-.136a11.334 11.334 0 0 1-.035-1.909c0-.046 0-.091.01-.136a11.36 11.36 0 0 1 2.437-6.22l.111-.136c.432-.527.912-1.015 1.434-1.457 1.535-1.29 2.931-1.788 4.187-1.743 4.948.174 7.726 8.762 8.183 10.292l.067.232s2.083 2.042 1.473 2.939a1.52 1.52 0 0 0-.21.645c-.17 1.205.312 3.19.312 3.19s.17.548.668 1.858c.044.122.093.249.14.383.31.82.383 2.198.204 3.432-.171 1.184-.573 2.227-1.221 2.496-1.32.547-.966 1.094-.66 1.544.18.323.332.66.45 1.01.242.644.464 1.33.464 1.33.091-.034.185-.064.28-.088.193-.063.399-.084.602-.062.116.009.212.09.239.2.038.164.327.368.677.56.455.243.924.46 1.405.646z"/>
            <path fill="#000" d="M81.18 130.681c.445-.022 5.209-1.813 6.19-1.201.982.611 7.056 4.579 7.056 4.579s-3.806-4.828-7.122-5.962c-3.316-1.133-6.123 2.584-6.123 2.584zM88.245 137.588s4.6 1.048 5.298 1.765l-5.298-1.765zM87.362 145.53c-.074.078-1.905 4.411-1.758 4.411.147 0 1.709-2.581 1.709-2.581l.049-1.83zM90.894 140.235s-.989.801-.874.876c.115.076.84-.533.874-.876zM90.01 146.412c.179.493.748 1.974.873 1.74.125-.236-.872-1.74-.872-1.74zM107.67 105.123l-.2.32s-1.589-1.256-2.241-1.884c-.653-.628-2.194 2.25-3.408 3.035-1.215.784-3.268.994-3.268.994s-1.587-1.78-1.538-2.3c.048-.52-.747-.68-.794-1.046-.048-.366-.327-1.413-.7-1.936-.198-.276-.226-1.14-.208-1.892l.208-.044c.2-.406.451-.777.747-1.1.42-.418 1.074-2.982 1.074-2.982.373-1.413 1.119-.995 1.119-.995 0 2.146 1.962 2.93 2.942 3.82.98.89 2.52 3.193 3.735 3.664.996.381 2.162 1.855 2.532 2.346z" opacity=".1"/>
            <path fill="#CED7E7" d="M107.67 105.122l-.2.32s-1.594-1.251-2.246-1.884c-.653-.632-2.193 2.25-3.407 3.034-1.214.785-3.265.996-3.265.996s-1.587-1.78-1.538-2.3c.048-.518-.746-.68-.794-1.047-.047-.368-.326-1.413-.7-1.936-.197-.276-.225-1.14-.207-1.891l.208-.044c.199-.405.45-.776.747-1.099.42-.42 1.073-2.982 1.073-2.982.373-1.413 1.118-.996 1.118-.996 0 2.145 1.961 2.932 2.94 3.821.98.89 2.52 3.191 3.734 3.662 1.002.387 2.167 1.854 2.537 2.346z"/>
            <path fill="#000" d="M107.67 105.163s-1.692.602-3.014.659a3.77 3.77 0 0 1-.518-.02s1.46-.715 2.814-.86l.718.22zM110.315 109.99s-1.324-.485-1.762.245c.015-.335.02-.613.02-.613l1.445-.27s.139.243.301.57c-.004.043-.004.068-.004.068z" opacity=".1"/>
            <path fill="#63667E" d="M104.138 106.23s2.088-1.4 3.09-1.282c1.053.122 3.091.209 3.091.209s-.703 1.78-.609 2.146c.094.367.117 2.147.117 2.147s-2.109-.916-2.46.785c0 0-1.15-1.91-1.923-2.487a5.65 5.65 0 0 1-1.306-1.519z"/>
            <path fill="#000" d="M118.125 107.588c-.686 0-3.116-1.397-3.644-2.31s-1.268.095-1.954.433c-.436.217-2.16-.236-3.09-.565.47-.292 1.515-1.114 1.821-1.311.369-.242.74-4.14.74-4.14 1.32-.625 2.747 5.053 2.747 5.053s2.484.674 2.694 1.155c.04.095.228.264.51.47.29.665.45 1.215.176 1.215z" opacity=".1"/>
            <path fill="#CED7E7" d="M118.12 107.588c-.714 0-3.242-1.396-3.792-2.31-.55-.914-1.32.095-2.033.433-.453.216-1.891-.203-2.859-.53.49-.29 1.221-1.147 1.54-1.346.383-.24.77-4.14.77-4.14 1.373-.625 2.857 5.055 2.857 5.055s2.584.675 2.803 1.156c.042.095.237.265.53.47.301.662.467 1.212.184 1.212z"/>
            <path fill="#00D09C" d="M126.326 151.176l22.346-17.73c.223-.18.507-.275.8-.27l8.336.209s.577.403-.27 1.284l-21.08 16.462c-.228.177-.51.278-.805.287l-9.116.288a.315.315 0 0 1-.304-.193.29.29 0 0 1 .093-.337z"/>
            <path fill="#FFA2A2" d="M138.574 149.462s4.597 6.71 9.703.47c5.107-6.241 3.63-9.52 2.082-9.693-1.549-.174-10.261 6.659-11.785 9.223z"/>
            <path fill="#000" d="M96.952 83.502a1.28 1.28 0 0 1-1.011.173c-.46-.118-.814-.477-1.005-.712a2.217 2.217 0 0 1-.157-.217c-.064-.863.2-1.377.568-1.68.505-.416 1.203-.433 1.505-.42.093 0 .147.013.147.013l.025.043c.035.067.112.218.195.418.28.658.615 1.85-.267 2.382z" opacity=".1"/>
            <path fill="#FFA2A2" d="M111.36 97.244a10.399 10.399 0 0 0 .289 5.126l-1.85 5.218s-14.092-7.73-12.893-9.601c.68-1.062.766-3.87.711-6.102-.04-1.696-.162-3.056-.162-3.056s17.294 1.675 14.993 5.565a9.098 9.098 0 0 0-1.088 2.85z"/>
            <path fill="#000" d="M112.45 94.335a8.967 8.967 0 0 0-1.083 2.82c-5.27 1.65-10.996-.569-13.684-5.302a50.818 50.818 0 0 0-.161-3.024s17.215 1.658 14.927 5.506z" opacity=".1"/>
            <path fill="#FFA2A2" d="M119.539 85.924c.003 4.933-3.237 9.311-8.034 10.857-4.797 1.545-10.068-.093-13.07-4.06a11.21 11.21 0 0 1 .387-14.06 11.657 11.657 0 0 1 3.806-2.963 11.668 11.668 0 0 1 2.502-.886 11.95 11.95 0 0 1 9.199 1.612c2.705 1.76 4.54 4.538 5.066 7.67.098.605.146 1.217.144 1.83z"/>
            <path fill="#000" d="M119.539 84.126c-.052.073-.111.14-.177.201-.719.676-1.996.396-2.976.24a10.935 10.935 0 0 1-2.479-.709c-.691-.292-1.521-.648-2.143-.23-.24.16-.404.416-.652.556-.25.14-.566.15-.86.154-.957 0-1.914.011-2.848-.203-1.393-.321-2.834-1.13-4.16-.597-1.035.416-1.597 1.531-1.878 2.603-.136.526-.238 1.081-.546 1.527-.31.446-.907.762-1.416.553-.75-.31-.86-1.57-1.766-1.633-.994-.069-.982.946-.692 1.68.43 1.081.992 2.162 1.016 3.29a11.362 11.362 0 0 1 .662-12.223 1.24 1.24 0 0 0 .493-.57.845.845 0 0 0 .025-.098c.075-.377-.137-.773-.149-1.167-.048-.964 1.008-1.635 1.976-1.757.643-.081 1.302-.019 1.948-.04.325-.006.648-.049.964-.126a4.656 4.656 0 0 0 1.503-.764 11.733 11.733 0 0 1 9.122 1.618 11.477 11.477 0 0 1 5.025 7.698l.008-.003z" opacity=".1"/>
            <path fill="#896363" d="M119.467 83.301a1.49 1.49 0 0 1-.41.706c-.72.679-1.997.396-2.977.239a10.766 10.766 0 0 1-2.48-.706c-.691-.292-1.521-.65-2.144-.23-.239.16-.403.417-.652.559-.249.14-.566.15-.86.153-.957.007-1.915.012-2.849-.202-1.393-.325-2.834-1.137-4.16-.602-1.036.418-1.598 1.54-1.878 2.616-.137.528-.238 1.086-.547 1.533-.31.447-.907.767-1.416.557-.75-.311-.861-1.577-1.766-1.64-.995-.07-.982.95-.692 1.687.508 1.286 1.2 2.565.973 3.928-.225 0-.599-.008-.82-.014.172-.292-.156-.64-.483-.738-.327-.1-.708-.098-.957-.334-.25-.237-.25-.602-.224-.929.056-.7.229-1.385.51-2.028.179-.408.41-.849.273-1.275a3.613 3.613 0 0 0-.295-.555c-.285-.543-.218-1.222.026-1.783.104-.239.179-.464.265-.679.109-.304.266-.59.466-.845.313-.387.62-.97.274-1.33-.088-.09.087-.153.031-.27a.23.23 0 0 1-.02-.065.613.613 0 0 1 .098-.407.993.993 0 0 1 .054-.091 4.328 4.328 0 0 1 1.236-1.37c.296-.213.644-.418.761-.763.137-.407-.104-.84-.124-1.27-.048-.968 1.008-1.643 1.976-1.765.968-.122 1.972.08 2.915-.169 1.34-.35 2.28-1.523 3.496-2.181a4.981 4.981 0 0 1 4.348-.155c1.42.643 2.49 1.944 3.973 2.433.525.174 1.094.243 1.567.53.547.335.88.918 1.164 1.494.433.873.52 1.75.82 2.674.238.733.568 1.692.595 2.536.016.252-.007.506-.067.751z"/>
            <path fill="#FED253" d="M120.227 82.368s-.52.663-.99.663-2.299-.074-3.252-.368c-.953-.294-5.627-.516-5.627-.516s-6.618.024-6.841-.197c-.223-.221-4.115-1.4-4.512-1.325-.083.016-.286.051-.557.096l-.31.05a43.2 43.2 0 0 1-1.593.223c-.663.077-1.246.116-1.431.049v-.565s.768-1.105.817-1.422c.049-.317.694-4.909 2.38-6.552a6.618 6.618 0 0 1 3.197-2.965c2.281-.982 4.562-1.815 4.562-1.815l.4-.057 1.286-.188a.969.969 0 0 1 .127-.106c.356-.27 1.438-.855 2.847.405l.25.393s4.336 1.006 6.344 4.514c2.007 3.508 2.108 6.944 2.256 8.514 0 0-.1.442.1.613a2.766 2.766 0 0 1 .257.254c.057.056.11.116.154.164a.433.433 0 0 0 .048.05l.088.088z"/>
            <path fill="#000" d="M120.227 82.384s-.524.647-.997.647-2.314-.073-3.274-.359-5.666-.503-5.666-.503-6.663.023-6.888-.192c-.225-.215-4.143-1.364-4.542-1.291-.084.015-.288.05-.561.093l-.071-.42-.018-.104s7.563-1.555 12.604-.74c5.042.814 8.762 1.721 8.762 1.721s-.1.43.1.598c.072.061.141.126.207.194.018.017.035.034.052.053.057.055.11.113.155.16a.444.444 0 0 0 .048.049l.089.094z" opacity=".05"/>
            <path fill="#000" d="M119.461 83.359c-.928.067-2.638-.145-3.386-.248a9.56 9.56 0 0 1-.631-.108c-.803-.164-3.271-.622-4.77-.41-1.812.255-6.923-.21-6.923-.21s-3.15-.603-4.417-1.09c-.464-.18-1.241-.237-2.014-.148a5.954 5.954 0 0 0-.586.099c-1.055.233-1.945.766-1.79 1.673a2.146 2.146 0 0 1-.164-.208c-.067-.83.208-1.324.59-1.615l.09-.034a11.656 11.656 0 0 1 1.651-.315c1.357-.171 3.318-.21 4.972.57 0 0 1.538.675 2.58.675 1.043 0 9.527.07 11.512.604a8.95 8.95 0 0 0 1.207.239c.724.087 1.46.022 2.153-.19.014.24-.01.482-.074.716z" opacity=".1"/>
            <path fill="#FED253" d="M95.038 82.694s-1.666-1.185.497-1.975c0 0 3.78-1.09 6.64.255 0 0 1.54.673 2.586.673 1.045 0 9.548.07 11.538.605.396.106.8.185 1.209.237a5.456 5.456 0 0 0 3.069-.545c.136-.07.26-.106.296-.065.124.14.026.953-1.068 1.115-.854.128-2.793-.113-3.609-.224-.211-.03-.422-.067-.63-.109-.805-.163-3.279-.621-4.788-.41-1.814.256-6.938-.209-6.938-.209s-3.156-.603-4.425-1.092c-1.27-.488-4.85-.067-4.377 1.744z"/>
            <path fill="#000" d="M109.218 69.729c-.144-.19-1.996-1.55-2.752-2.1l1.363-.185c.04-.038.086-.072.134-.103.99.953 1.255 2.388 1.255 2.388zM103.298 77.065l-.616.85 2.355-.075.053-.949zM116.787 78.256l.26.792 1.46.23-.626-.947z" opacity=".1"/>
        </g>
    </g>
</svg>
