<?xml version="1.0" encoding="UTF-8"?>
<!DOCTYPE svg PUBLIC "-//W3C//DTD SVG 1.1//EN" "http://www.w3.org/Graphics/SVG/1.1/DTD/svg11.dtd">
<!-- Creator: CorelDRAW 2019 (64-Bit) -->
<svg xmlns="http://www.w3.org/2000/svg" xml:space="preserve" width="4.06846in" height="2.17857in" version="1.1" style="shape-rendering:geometricPrecision; text-rendering:geometricPrecision; image-rendering:optimizeQuality; fill-rule:evenodd; clip-rule:evenodd"
viewBox="0 0 1812.68 970.65"
 xmlns:xlink="http://www.w3.org/1999/xlink">
 <defs>
  <style type="text/css">
   <![CDATA[
    .fil5 {fill:none}
    .fil6 {fill:none;fill-rule:nonzero}
    .fil4 {fill:#E6E6E6}
    .fil7 {fill:#032B5B;fill-rule:nonzero}
    .fil10 {fill:#1351A6;fill-rule:nonzero}
    .fil11 {fill:#163460;fill-rule:nonzero}
    .fil19 {fill:#1C4689;fill-rule:nonzero}
    .fil22 {fill:#1F2F4D;fill-rule:nonzero}
    .fil21 {fill:#4975CA;fill-rule:nonzero}
    .fil12 {fill:#5FACD9;fill-rule:nonzero}
    .fil20 {fill:#5FACD9;fill-rule:nonzero}
    .fil2 {fill:#6CBBE9;fill-rule:nonzero}
    .fil8 {fill:#6D89CF;fill-rule:nonzero}
    .fil9 {fill:#A5C6F9;fill-rule:nonzero}
    .fil1 {fill:#AED3FF;fill-rule:nonzero}
    .fil18 {fill:#C35446;fill-rule:nonzero}
    .fil0 {fill:#D8E8FD;fill-rule:nonzero}
    .fil16 {fill:#E6F0FD;fill-rule:nonzero}
    .fil17 {fill:#F2564B;fill-rule:nonzero}
    .fil3 {fill:#F2F9FF;fill-rule:nonzero}
    .fil13 {fill:#FB9390;fill-rule:nonzero}
    .fil14 {fill:#FBA56B;fill-rule:nonzero}
    .fil15 {fill:#FF8585;fill-rule:nonzero}
   ]]>
  </style>
   <clipPath id="id0" style="clip-rule:nonzero">
    <path d="M1683.01 381.57l-351.51 0 0 -237.5 351.51 0 0 237.5z"/>
   </clipPath>
    <clipPath id="id1">
     <path d="M1683.01 381.57l-351.51 0 0 -237.5 351.51 0 0 237.5z"/>
    </clipPath>
     <clipPath id="id2">
      <path d="M1683.01 381.57l-351.51 0 0 -237.5 351.51 0 0 237.5z"/>
     </clipPath>
     <clipPath id="id3">
      <path d="M1683.01 381.57l-351.51 0 0 -237.5 351.51 0 0 237.5z"/>
     </clipPath>
    <clipPath id="id4">
     <path d="M1683.01 381.57l-351.51 0 0 -237.5 351.51 0 0 237.5z"/>
    </clipPath>
 </defs>
 <g id="Layer_x0020_1">
  <metadata id="CorelCorpID_0Corel-Layer"/>
  <path class="fil0" d="M1616.96 331.6c-71.28,-60.81 -157.22,-427.5 -451.61,-236.52 -152.1,98.67 -408.57,-84.71 -620.85,-21.37 -194.95,58.17 -213.75,249.83 -194.88,312.28 38.1,126.15 -80.47,144.92 -190.47,199.12 -172.54,85.02 -45.66,383.81 117.34,385.24 163,1.43 1150.52,-2.85 1150.52,-2.85 0,0 236.8,0.6 335.27,-130.1 105.97,-140.64 38.79,-348.76 -145.33,-505.82z"/>
  <polygon class="fil1" points="1316.58,787.84 1722.4,787.84 1722.4,105.99 1316.58,105.99 "/>
  <polygon class="fil2" points="1303.86,105.99 1303.86,787.84 1709.68,787.84 1709.68,105.99 "/>
  <polygon class="fil3" points="1683.01,381.57 1331.49,381.57 1331.49,144.08 1683.01,144.08 "/>
  <g style="clip-path:url(#id0)">
   <g id="_2966957051392">
    <polygon id="1" class="fil4" points="1326.25,123.17 2017.59,123.17 2017.59,383.03 1326.25,383.03 "/>
   </g>
   <g style="clip-path:url(#id1)">
    <g>
    </g>
    <g style="clip-path:url(#id2)">
     <image x="1327.48" y="78.02" width="697.81" height="392.52" xlink:href="I4E_WHATWEDO_ICON_Images\I4E_WHATWEDO_ICON_ImgID1.png"/>
    </g>
    <g style="clip-path:url(#id3)">
    </g>
   </g>
   <g style="clip-path:url(#id4)">
    <polygon class="fil5" points="1326.25,123.17 2017.59,123.17 2017.59,383.03 1326.25,383.03 "/>
   </g>
  </g>
  <polygon class="fil6" points="1683.01,381.57 1331.49,381.57 1331.49,144.08 1683.01,144.08 "/>
  <polygon class="fil3" points="1676.95,731.25 1488.29,731.25 1488.29,604.45 1676.95,604.45 "/>
  <path class="fil3" d="M1613.59 442.32c0,-19.17 15.54,-34.71 34.71,-34.71 19.17,0 34.71,15.54 34.71,34.71 0,19.17 -15.54,34.71 -34.71,34.71 -19.17,0 -34.71,-15.54 -34.71,-34.71z"/>
  <path class="fil7" d="M1680.07 442.32c0,17.54 -14.22,31.77 -31.77,31.77 -8.28,0 -15.82,-3.17 -21.47,-8.36l21.47 -23.41 0 -31.77c17.54,0 31.77,14.22 31.77,31.77z"/>
  <path class="fil7" d="M1636.2 436.73l-11.41 0c-0.52,0 -0.96,-0.43 -0.96,-0.96 0,-0.53 0.43,-0.96 0.96,-0.96l11.41 0c0.53,0 0.96,0.43 0.96,0.96 0,0.52 -0.43,0.96 -0.96,0.96z"/>
  <path class="fil3" d="M1527.42 442.32c0,-19.17 15.54,-34.71 34.71,-34.71 19.17,0 34.71,15.54 34.71,34.71 0,19.17 -15.54,34.71 -34.71,34.71 -19.17,0 -34.71,-15.54 -34.71,-34.71z"/>
  <path class="fil7" d="M1562.13 442.32l19.52 25.06c-5.38,4.2 -12.16,6.7 -19.52,6.7 -17.55,0 -31.77,-14.22 -31.77,-31.77 0,-17.54 14.22,-31.77 31.77,-31.77 16.56,0 30.17,12.68 31.63,28.86l-31.63 2.9z"/>
  <path class="fil7" d="M1586.59 450.18l-7.94 0c-0.53,0 -0.96,-0.43 -0.96,-0.96 0,-0.53 0.43,-0.96 0.96,-0.96l7.94 0c0.53,0 0.96,0.43 0.96,0.96 0,0.53 -0.43,0.96 -0.96,0.96z"/>
  <path class="fil3" d="M1613.59 537.92c0,-19.17 15.54,-34.71 34.71,-34.71 19.17,0 34.71,15.54 34.71,34.71 0,19.17 -15.54,34.71 -34.71,34.71 -19.17,0 -34.71,-15.54 -34.71,-34.71z"/>
  <path class="fil7" d="M1680.07 537.92c0,17.54 -14.22,31.77 -31.77,31.77 -8.28,0 -15.82,-3.17 -21.47,-8.36l21.47 -23.41 0 -31.77c17.54,0 31.77,14.22 31.77,31.77z"/>
  <path class="fil7" d="M1636.2 532.32l-11.41 0c-0.52,0 -0.96,-0.43 -0.96,-0.96 0,-0.52 0.43,-0.96 0.96,-0.96l11.41 0c0.53,0 0.96,0.43 0.96,0.96 0,0.53 -0.43,0.96 -0.96,0.96z"/>
  <path class="fil3" d="M1527.42 537.92c0,-19.17 15.54,-34.71 34.71,-34.71 19.17,0 34.71,15.54 34.71,34.71 0,19.17 -15.54,34.71 -34.71,34.71 -19.17,0 -34.71,-15.54 -34.71,-34.71z"/>
  <path class="fil7" d="M1593.76 535.02c-1.47,-16.18 -15.07,-28.86 -31.63,-28.86 -17.55,0 -31.77,14.22 -31.77,31.77 0,17.54 14.22,31.77 31.77,31.77 7.36,0 14.13,-2.5 19.52,-6.7l-19.52 -25.06 31.63 -2.9z"/>
  <path class="fil7" d="M1586.59 545.77l-7.94 0c-0.53,0 -0.96,-0.43 -0.96,-0.96 0,-0.52 0.43,-0.95 0.96,-0.95l7.94 0c0.53,0 0.96,0.43 0.96,0.95 0,0.53 -0.43,0.96 -0.96,0.96z"/>
  <polygon class="fil7" points="1668.82,722.39 1495.65,722.39 1495.65,620.07 1497.8,620.07 1497.8,720.24 1668.82,720.24 "/>
  <path class="fil7" d="M1549.78 685.39c-21.2,-16.87 -43.74,0 -43.74,0l0 28.85 158.48 0 0 -74.57c-43.07,1.09 -93.54,62.6 -114.73,45.72z"/>
  <path class="fil7" d="M1507.86 627.88l73.84 0c1,0 1.81,-0.82 1.81,-1.81 0,-1 -0.82,-1.81 -1.81,-1.81l-73.84 0c-1,0 -1.81,0.82 -1.81,1.81 0,1 0.82,1.81 1.81,1.81z"/>
  <path class="fil7" d="M1507.86 636.74l73.84 0c1,0 1.81,-0.82 1.81,-1.82 0,-1 -0.82,-1.81 -1.81,-1.81l-73.84 0c-1,0 -1.81,0.82 -1.81,1.81 0,1 0.82,1.82 1.81,1.82z"/>
  <path class="fil7" d="M1507.53 645.11l48.9 0c0.82,0 1.48,-0.67 1.48,-1.48l0 -0.66c0,-0.82 -0.67,-1.48 -1.48,-1.48l-48.9 0c-0.82,0 -1.48,0.67 -1.48,1.48l0 0.66c0,0.82 0.67,1.48 1.48,1.48z"/>
  <polygon class="fil7" points="1236.71,837.41 681.44,837.41 681.44,0 1236.71,0 "/>
  <polygon class="fil3" points="1182.15,545.14 735.09,545.14 735.09,46.84 1182.15,46.84 "/>
  <path class="fil3" d="M744.59 704.35c0,-44.41 36,-80.4 80.4,-80.4 44.4,0 80.4,36 80.4,80.4 0,44.4 -36,80.4 -80.4,80.4 -44.4,0 -80.4,-36 -80.4,-80.4z"/>
  <path class="fil2" d="M892.96 704.35c0,-37.53 -30.43,-67.97 -67.96,-67.97 -37.54,0 -67.97,30.43 -67.97,67.97 0,37.53 30.43,67.96 67.97,67.96 15.5,0 29.79,-5.19 41.22,-13.93l-41.22 -54.04 63.51 24.24c2.87,-7.53 4.45,-15.7 4.45,-24.24z"/>
  <path class="fil3" d="M1018.53 704.35c0,-44.41 36,-80.4 80.4,-80.4 44.41,0 80.4,36 80.4,80.4 0,44.4 -36,80.4 -80.4,80.4 -44.41,0 -80.4,-36 -80.4,-80.4z"/>
  <path class="fil2" d="M1098.93 636.38c-37.54,0 -67.97,30.43 -67.97,67.97 0,18.58 7.45,35.4 19.53,47.67l48.44 -47.67 63.51 24.24c2.87,-7.53 4.45,-15.7 4.45,-24.24 0,-37.53 -30.43,-67.97 -67.96,-67.97z"/>
  <path class="fil7" d="M1089 669.84l-28.93 0c-1.14,0 -2.07,0.93 -2.07,2.07 0,1.14 0.93,2.07 2.07,2.07l28.93 0c1.14,0 2.07,-0.93 2.07,-2.07 0,-1.14 -0.93,-2.07 -2.07,-2.07z"/>
  <path class="fil7" d="M1089 676.39l-28.93 0c-1.14,0 -2.07,0.93 -2.07,2.07 0,1.13 0.93,2.06 2.07,2.06l28.93 0c1.14,0 2.07,-0.93 2.07,-2.06 0,-1.14 -0.93,-2.07 -2.07,-2.07z"/>
  <path class="fil7" d="M1072.02 682.93l-11.95 0c-1.14,0 -2.07,0.93 -2.07,2.07 0,1.14 0.93,2.07 2.07,2.07l11.95 0c1.14,0 2.07,-0.93 2.07,-2.07 0,-1.14 -0.93,-2.07 -2.07,-2.07z"/>
  <path class="fil7" d="M814.5 669.84l-28.93 0c-1.14,0 -2.07,0.93 -2.07,2.07 0,1.14 0.93,2.07 2.07,2.07l28.93 0c1.14,0 2.07,-0.93 2.07,-2.07 0,-1.14 -0.93,-2.07 -2.07,-2.07z"/>
  <path class="fil7" d="M814.5 676.39l-28.93 0c-1.14,0 -2.07,0.93 -2.07,2.07 0,1.13 0.93,2.06 2.07,2.06l28.93 0c1.14,0 2.07,-0.93 2.07,-2.06 0,-1.14 -0.93,-2.07 -2.07,-2.07z"/>
  <path class="fil7" d="M797.52 682.93l-11.95 0c-1.14,0 -2.07,0.93 -2.07,2.07 0,1.14 0.93,2.07 2.07,2.07l11.95 0c1.14,0 2.07,-0.93 2.07,-2.07 0,-1.14 -0.93,-2.07 -2.07,-2.07z"/>
  <polygon class="fil2" points="774.9,518.8 822.07,518.8 822.07,224.92 774.9,224.92 "/>
  <polygon class="fil2" points="852.18,518.8 899.36,518.8 899.36,143.01 852.18,143.01 "/>
  <polygon class="fil2" points="936.52,518.8 983.69,518.8 983.69,295.99 936.52,295.99 "/>
  <polygon class="fil2" points="1018.58,518.8 1065.75,518.8 1065.75,193.18 1018.58,193.18 "/>
  <polygon class="fil2" points="1101.06,339.6 1101.06,518.8 1148.24,518.8 1148.24,339.6 "/>
  <path class="fil2" d="M1063.51 150.82l-39.95 0c-2.27,0 -4.13,1.86 -4.13,4.13 0,2.27 1.86,4.13 4.13,4.13l39.95 0c2.27,0 4.13,-1.86 4.13,-4.13 0,-2.27 -1.86,-4.13 -4.13,-4.13z"/>
  <path class="fil2" d="M1032.66 165.85l-9.1 0c-2.27,0 -4.13,1.86 -4.13,4.13 0,2.27 1.86,4.13 4.13,4.13l9.1 0c2.27,0 4.13,-1.86 4.13,-4.13 0,-2.27 -1.86,-4.13 -4.13,-4.13z"/>
  <path class="fil2" d="M898.88 86.81l-39.95 0c-2.27,0 -4.13,1.86 -4.13,4.13 0,2.27 1.86,4.13 4.13,4.13l39.95 0c2.27,0 4.13,-1.86 4.13,-4.13 0,-2.27 -1.86,-4.13 -4.13,-4.13z"/>
  <path class="fil2" d="M868.03 101.85l-9.1 0c-2.27,0 -4.13,1.86 -4.13,4.13 0,2.27 1.86,4.13 4.13,4.13l9.1 0c2.27,0 4.13,-1.86 4.13,-4.13 0,-2.27 -1.86,-4.13 -4.13,-4.13z"/>
  <path class="fil2" d="M980.08 252.13l-39.95 0c-2.27,0 -4.13,1.86 -4.13,4.13 0,2.27 1.86,4.13 4.13,4.13l39.95 0c2.27,0 4.13,-1.86 4.13,-4.13 0,-2.27 -1.86,-4.13 -4.13,-4.13z"/>
  <path class="fil2" d="M949.23 267.17l-9.1 0c-2.27,0 -4.13,1.86 -4.13,4.13 0,2.27 1.86,4.13 4.13,4.13l9.1 0c2.27,0 4.13,-1.86 4.13,-4.13 0,-2.27 -1.86,-4.13 -4.13,-4.13z"/>
  <path class="fil2" d="M1144.63 295.99l-39.95 0c-2.27,0 -4.13,1.86 -4.13,4.13 0,2.27 1.86,4.13 4.13,4.13l39.95 0c2.27,0 4.13,-1.86 4.13,-4.13 0,-2.27 -1.86,-4.13 -4.13,-4.13z"/>
  <path class="fil2" d="M1113.77 311.03l-9.1 0c-2.27,0 -4.13,1.86 -4.13,4.13 0,2.27 1.86,4.13 4.13,4.13l9.1 0c2.27,0 4.13,-1.86 4.13,-4.13 0,-2.27 -1.86,-4.13 -4.13,-4.13z"/>
  <polygon class="fil1" points="200.68,317.43 200.68,545.89 606.51,545.89 606.51,317.43 "/>
  <polygon class="fil2" points="213.88,317.43 213.88,545.89 619.7,545.89 619.7,317.43 "/>
  <path class="fil3" d="M324.87 353.12c-40.53,0 -73.38,32.85 -73.38,73.38 0,40.53 32.85,73.38 73.38,73.38 40.53,0 73.38,-32.85 73.38,-73.38 0,-40.53 -32.85,-73.38 -73.38,-73.38z"/>
  <path class="fil3" d="M574.08 385.51l-121.56 0c-4.4,0 -8.01,3.6 -8.01,8.01 0,4.4 3.6,8.01 8.01,8.01l121.56 0c4.4,0 8.01,-3.6 8.01,-8.01 0,-4.41 -3.6,-8.01 -8.01,-8.01z"/>
  <path class="fil3" d="M574.08 418.49l-121.56 0c-4.4,0 -8.01,3.6 -8.01,8.01 0,4.4 3.6,8.01 8.01,8.01l121.56 0c4.4,0 8.01,-3.6 8.01,-8.01 0,-4.4 -3.6,-8.01 -8.01,-8.01z"/>
  <path class="fil3" d="M574.08 451.47l-121.56 0c-4.4,0 -8.01,3.6 -8.01,8.01 0,4.4 3.6,8.01 8.01,8.01l121.56 0c4.4,0 8.01,-3.6 8.01,-8.01 0,-4.41 -3.6,-8.01 -8.01,-8.01z"/>
  <path class="fil7" d="M257.68 425.43l67.18 0 0 -67.18c-37.1,0 -67.18,30.08 -67.18,67.18z"/>
  <path class="fil7" d="M392.05 427.6l-67.18 0 -0 0 -67.18 0c0,37.1 30.08,67.18 67.18,67.18 0,0 0,0 0,0l0 0c37.1,-0 67.18,-30.08 67.18,-67.18z"/>
  <path class="fil8" d="M313.26 390.89l-36.46 0c-2.08,0 -3.77,1.7 -3.77,3.77 0,2.07 1.7,3.77 3.77,3.77l36.46 0c2.08,0 3.77,-1.7 3.77,-3.77 0,-2.08 -1.7,-3.77 -3.77,-3.77z"/>
  <path class="fil8" d="M285.11 404.62l-8.3 0c-2.08,0 -3.77,1.7 -3.77,3.77 0,2.08 1.7,3.77 3.77,3.77l8.3 0c2.07,0 3.77,-1.7 3.77,-3.77 0,-2.07 -1.7,-3.77 -3.77,-3.77z"/>
  <path class="fil9" d="M367.39 444.02l-36.46 0c-2.08,0 -3.77,1.7 -3.77,3.77 0,2.08 1.7,3.77 3.77,3.77l36.46 0c2.08,0 3.77,-1.7 3.77,-3.77 0,-2.07 -1.7,-3.77 -3.77,-3.77z"/>
  <path class="fil9" d="M339.24 457.75l-8.3 0c-2.08,0 -3.77,1.7 -3.77,3.77 0,2.08 1.7,3.77 3.77,3.77l8.3 0c2.08,0 3.77,-1.7 3.77,-3.77 0,-2.07 -1.7,-3.77 -3.77,-3.77z"/>
  <polygon class="fil1" points="172.1,586.81 172.1,820.46 577.92,820.46 577.92,586.81 "/>
  <polygon class="fil2" points="185.29,586.81 185.29,820.46 591.12,820.46 591.12,586.81 "/>
  <path class="fil3" d="M222.9 696.42c0,-40.53 32.85,-73.38 73.38,-73.38 40.53,0 73.38,32.85 73.38,73.38 0,40.53 -32.85,73.38 -73.38,73.38 -40.53,0 -73.38,-32.85 -73.38,-73.38z"/>
  <path class="fil3" d="M423.94 671.45l121.56 0c4.4,0 8.01,-3.6 8.01,-8.01 0,-4.4 -3.6,-8.01 -8.01,-8.01l-121.56 0c-4.41,0 -8.01,3.6 -8.01,8.01 0,4.41 3.6,8.01 8.01,8.01z"/>
  <path class="fil3" d="M545.49 688.41l-121.56 0c-4.41,0 -8.01,3.6 -8.01,8.01 0,4.4 3.6,8.01 8.01,8.01l121.56 0c4.4,0 8.01,-3.6 8.01,-8.01 0,-4.41 -3.6,-8.01 -8.01,-8.01z"/>
  <path class="fil3" d="M545.49 721.39l-121.56 0c-4.41,0 -8.01,3.61 -8.01,8.01 0,4.4 3.6,8.01 8.01,8.01l121.56 0c4.4,0 8.01,-3.6 8.01,-8.01 0,-4.4 -3.6,-8.01 -8.01,-8.01z"/>
  <path class="fil7" d="M296.28 697.61l-67.18 -0.85c-0.01,0.28 -0.01,0.57 -0.01,0.85 0,37.1 30.08,67.18 67.18,67.18 13.26,0 25.63,-3.85 36.05,-10.49l-36.05 -56.7z"/>
  <path class="fil9" d="M298.75 718.77l-36.46 0c-2.08,0 -3.77,1.7 -3.77,3.77l0 0c0,2.08 1.7,3.77 3.77,3.77l36.46 0c2.07,0 3.77,-1.7 3.77,-3.77l0 0c0,-2.08 -1.7,-3.77 -3.77,-3.77z"/>
  <path class="fil9" d="M270.6 732.49l-8.3 0c-2.08,0 -3.77,1.7 -3.77,3.77 0,2.07 1.7,3.77 3.77,3.77l8.3 0c2.08,0 3.77,-1.7 3.77,-3.77 0,-2.08 -1.7,-3.77 -3.77,-3.77z"/>
  <polygon class="fil1" points="172.1,68.26 172.1,279.99 577.93,279.99 577.93,68.26 "/>
  <polygon class="fil2" points="185.29,68.26 185.29,279.99 591.12,279.99 591.12,68.26 "/>
  <path class="fil3" d="M222.9 177.23c0,-40.53 32.85,-73.38 73.38,-73.38 40.53,0 73.38,32.85 73.38,73.38 0,40.53 -32.85,73.38 -73.38,73.38 -40.53,0 -73.38,-32.85 -73.38,-73.38z"/>
  <path class="fil7" d="M296.28 110.06c-37.1,0 -67.18,30.07 -67.18,67.18 0,25.42 14.12,47.54 34.94,58.95 10.76,-19.93 32.24,-58.95 32.24,-58.95l31.81 59.18c21.06,-11.34 35.37,-33.59 35.37,-59.18 0,-37.1 -30.07,-67.18 -67.18,-67.18z"/>
  <path class="fil3" d="M545.49 136.24l-121.56 0c-4.4,0 -8.01,3.6 -8.01,8.01l0 0c0,4.4 3.6,8.01 8.01,8.01l121.56 0c4.41,0 8.01,-3.6 8.01,-8.01l0 0c0,-4.41 -3.6,-8.01 -8.01,-8.01z"/>
  <path class="fil3" d="M545.49 169.22l-121.56 0c-4.4,0 -8.01,3.6 -8.01,8.01 0,4.4 3.6,8.01 8.01,8.01l121.56 0c4.41,0 8.01,-3.6 8.01,-8.01 0,-4.41 -3.6,-8.01 -8.01,-8.01z"/>
  <path class="fil3" d="M545.49 202.2l-121.56 0c-4.4,0 -8.01,3.61 -8.01,8.01 0,4.4 3.6,8.01 8.01,8.01l121.56 0c4.41,0 8.01,-3.6 8.01,-8.01 0,-4.4 -3.6,-8.01 -8.01,-8.01z"/>
  <path class="fil2" d="M298.75 145.15l-36.46 0c-2.08,0 -3.77,1.7 -3.77,3.77 0,2.07 1.7,3.77 3.77,3.77l36.46 0c2.08,0 3.77,-1.7 3.77,-3.77 0,-2.08 -1.7,-3.77 -3.77,-3.77z"/>
  <path class="fil2" d="M270.6 158.87l-8.3 0c-2.08,0 -3.77,1.7 -3.77,3.77 0,2.08 1.7,3.77 3.77,3.77l8.3 0c2.08,0 3.77,-1.7 3.77,-3.77 0,-2.07 -1.7,-3.77 -3.77,-3.77z"/>
  <path class="fil10" d="M685.25 433.91c0,0 47.34,48.87 49.61,67.29 2.27,18.43 -22.52,47.25 -22.52,47.25l-27.09 -114.55z"/>
  <path class="fil11" d="M665.01 940.87c0,0 -1.61,25.98 -6.64,26.35 -0.67,0.05 -25.49,0.05 -25.49,0.05l-31.69 -0.18c0,0 0.21,-7.64 9.47,-9.25 9.26,-1.62 24.77,-8.13 30.38,-20.37 5.9,-12.88 23.97,3.4 23.97,3.4z"/>
  <path class="fil11" d="M735.59 940.87c0,0 -1.61,25.98 -6.64,26.35 -0.67,0.05 -25.49,0.05 -25.49,0.05l-31.78 -0.11c0,0 0.3,-7.71 9.57,-9.32 9.26,-1.62 24.77,-8.13 30.38,-20.37 5.9,-12.88 23.97,3.4 23.97,3.4z"/>
  <path class="fil2" d="M629.91 662.27c0,0 8.29,53.01 39.21,147.1 30.92,94.1 35.13,134.84 35.13,134.84 0,0 8.36,1.21 17.2,1.21 5.59,0 15.97,-2.14 15.97,-2.14 0,0 0.28,-102.84 -13.96,-150.15 -14.25,-47.32 -3.07,-170.59 -3.07,-170.59l-90.46 39.72z"/>
  <path class="fil12" d="M613.78 625.46c0,0 -1.17,79.88 12.65,177.96 13.82,98.08 9.14,139.71 9.14,139.71 0,0 11.38,2.04 15.37,2.17 4.28,0.14 17.73,-1.07 17.73,-1.07 0,0 19.78,-98.11 14.11,-147.2 -5.67,-49.09 27.09,-168.45 27.09,-168.45l-96.08 -3.11z"/>
  <path class="fil13" d="M677.85 438.53l-15.61 11.56 -22.56 -4.75c0.31,-2.06 1.8,-10.59 3.16,-18.31 0.08,-0.46 0.16,-0.91 0.24,-1.36 1.16,-6.57 2.17,-12.22 2.17,-12.22l21.07 -10.5 7.86 -3.92c-0.02,0.14 -0.61,7.29 -0.69,8.34 -1.47,18.55 4.37,31.15 4.37,31.15z"/>
  <path class="fil10" d="M641.26 432.69c0.49,-0.21 30.69,-9.12 33.97,-8.04 3.28,1.08 5.22,7.43 5.22,7.43l-49.4 11.17c0,0 3.89,-7.91 10.2,-10.56z"/>
  <path class="fil2" d="M722.58 635.32c-5.12,23.35 -90.31,26.12 -112.27,4.92 -2.5,-2.42 -2.62,-13.66 -1.68,-28.81 1.84,-29.61 7.76,-74.15 7.99,-96.91 0.11,-10.99 1.62,-22.23 3.63,-32.44 4.28,-21.75 10.81,-38.83 10.81,-38.83 0,0 41.61,-13.45 49.4,-11.16 37.51,11.02 47.24,179.88 42.12,203.23z"/>
  <path class="fil10" d="M608.63 611.43c1.84,-29.61 7.76,-74.15 7.99,-96.91 0.11,-10.99 1.62,-22.23 3.63,-32.44l25.03 -4.42c0,0 24.47,99.96 -36.65,133.77z"/>
  <path class="fil13" d="M622.18 570.15c0,0 1.71,4.08 -1.88,6.82 -3.58,2.74 -5.91,7.17 -5.09,10.42 0.82,3.24 8.68,8.53 11.41,7.68 2.72,-0.85 8.27,-5.12 7.67,-6.83 -0.6,-1.71 3.73,-15.01 -2.91,-20.12 -6.64,-5.12 -9.2,2.05 -9.2,2.05z"/>
  <path class="fil7" d="M650.17 437.26c0,0 -24.41,4.57 -43.86,33.23 -19.45,28.67 -32.25,49.98 -28.67,60.31 3.58,10.33 36.24,46.16 41.87,46.16 5.63,0 14.72,-4.09 15.23,-13.31 0,0 -22.99,-34.46 -18.46,-39.63 1.93,-2.2 29.85,-24.87 33.84,-14.63 6.59,16.94 0.05,-72.13 0.05,-72.13z"/>
  <path class="fil14" d="M671.9 407.7c-4.63,8.85 -21.87,16.51 -29.06,19.33 0.08,-0.46 0.16,-0.91 0.24,-1.36 1.16,-6.57 2.17,-12.22 2.17,-12.22l21.07 -10.5c4.66,-0.07 7.49,1.11 5.59,4.75z"/>
  <path class="fil13" d="M638.45 413.94c0,0 31.2,9.73 36.96,-9.79 5.76,-19.52 13.67,-31.41 -6.01,-38.45 -19.67,-7.04 -25.76,-0.74 -29.27,5.31 -3.51,6.05 -9.65,39.89 -1.68,42.93z"/>
  <path class="fil11" d="M641.36 369.13c0,0 1.99,22.72 6.69,21.73 4.7,-0.99 8.96,-1.72 8.27,5.13 -0.69,6.85 -7.2,14.75 7.27,15.97 14.48,1.21 35.29,-36.13 31.31,-43.19 -11.48,-20.4 -70.13,-24.51 -53.54,0.37z"/>
  <polygon class="fil13" points="79.7,896.98 89.2,936.98 103.43,936.9 103.95,896.98 "/>
  <polygon class="fil13" points="199.36,898.69 226.39,936.98 236.92,923.46 220.65,893.42 "/>
  <path class="fil7" d="M129.11 371.35c-4.91,-2.79 -10.79,-3.1 -14.91,-2.85 1.06,-1.09 3.15,-1.49 3.15,-1.49 -2.55,-0.38 -8.25,2.15 -8.25,2.15 -35.51,-13.68 -41.09,38.6 -40.34,50.75 0.74,12.14 -11.93,16.11 -30.41,25.68 -35.25,18.26 -38.34,42.71 -38.34,42.71 0.28,0.16 0.56,0.35 0.87,0.56 1.75,-2.96 5.35,-8.53 8.38,-9.37 -0.12,0.27 -3.59,7.66 -4.88,11.89 10.4,7.91 29.85,25.44 43.41,37.86 -0.06,-2.43 0.04,-5.88 0.92,-7.7l1.68 10.09c7.25,6.67 12.26,11.36 12.26,11.36 -0.9,-9.82 44.39,-61.61 68.02,-77.13 5.75,-8.47 7.8,-23.43 7.95,-24.6 -0.99,11.86 -3.02,18.51 -4.84,22.26 20.01,-18.41 8.36,-84.78 -4.66,-92.17z"/>
  <path class="fil13" d="M129.25 466.64c0.12,0.05 -11.41,6.04 -20.08,3.67 -8.15,-2.22 -13.48,-12.8 -13.37,-12.82 3.45,-0.69 4.45,-5.43 4.38,-25.83l1.56 0.31 26.25 5.2c0,0 -0.6,8.26 -0.62,16.04 -0.02,6.54 0.38,12.73 1.88,13.43z"/>
  <path class="fil2" d="M99.57 379.92c0,0 12.95,-13.79 29.21,-0.71 0,0 -9.46,-1.64 -29.21,0.71z"/>
  <path class="fil15" d="M127.99 437.17c0,0 -0.6,8.26 -0.62,16.04 -14.69,-0.41 -22.46,-13.82 -25.64,-21.24l26.25 5.2z"/>
  <path class="fil11" d="M99.03 429.11c0,0 -7.7,-12.16 -9.55,-22.56 -1.32,-7.43 2.46,-34.95 30.13,-30.99 0,0 8.03,0.79 15.59,5.89 6,4.06 14.67,12.81 4.98,36.83l-2.52 8.11 -38.63 2.71z"/>
  <path class="fil7" d="M232.63 912.96l-13.92 0.42 -15.06 0.46c0,0 -34.79,-38.74 -54.31,-100.83 -0.46,-1.44 -0.93,-2.9 -1.44,-4.38 -10.68,-31.14 -32.82,-70.24 -44.49,-105.62 -1.86,-5.64 -3.52,-10.94 -5.02,-15.96 -0.48,-1.61 -0.95,-3.19 -1.39,-4.74 -8.6,-29.88 -11.09,-49.5 -13.38,-70.45l84.26 0.67c0,0 13.6,143.12 64.76,300.44z"/>
  <path class="fil16" d="M156.08 564.11c-0.21,40.1 5.88,57.3 5.88,57.3 0,0 -36.08,18.33 -78.95,4.84 -0.51,-0.16 -35.5,-8.15 -35.5,-8.15 0.72,-1.62 7.1,-28.64 7.8,-30.13 9.05,-19.44 15.93,-27.96 17,-33.94 1.99,-11.16 2.03,-22.7 1.04,-33.59 -2.62,-28.83 -10.4,-52.75 -10.4,-52.75 11.68,-2.66 22.93,-7.2 35.09,-11.76 2.8,3.48 11.04,7 18.46,6.84 8.54,-0.19 11.21,-3.8 10.89,-7.87 9.1,5.07 16.34,9.88 16.34,9.88 7.74,13.44 23.42,26.49 24.56,47.1 0.28,5.07 -12.2,51.13 -12.21,52.25z"/>
  <path class="fil17" d="M83.61 568.58c-3.68,5.21 -10.74,36.9 -28.31,40.88 9.05,-22.58 15.93,-32.48 17,-39.43 1.99,-12.96 2.03,-26.37 1.04,-39.02 5.88,-10.31 10.27,-17.37 10.27,-17.37 0.46,-1.67 9.35,-29.14 12.19,-4.58 2.84,24.56 -8.08,53.69 -12.19,59.52z"/>
  <path class="fil13" d="M132.9 444.54c0,0 -34.76,0.57 -34.78,-21.08 -0.02,-21.65 -4.53,-36.16 17.66,-37.44 22.19,-1.28 26.51,6.97 28.28,14.2 1.77,7.23 -2.12,43.61 -11.16,44.32z"/>
  <path class="fil11" d="M143.03 388.18c-5.36,-6.5 -9.42,-5.09 -11.7,-3.13 -7.51,-11.22 -31.25,5.01 -31.25,5.01 -2.32,15.53 -13.53,24.43 -13.53,24.43 0,0 6.34,3.91 20.94,0.16 11.49,-2.96 19.84,-19.31 22.87,-26.15 2.07,1.84 6.43,6.08 7.74,10.24 1.73,5.51 2.51,16.86 5.82,16.48 0,0 7.17,-17.26 -0.89,-27.03z"/>
  <path class="fil13" d="M88.72 934.75c0,0 1.15,7.92 -1.81,16.4 0,0 -2.33,10.61 8.12,10.81 10.45,0.2 13.01,-0.79 11.83,-7.29 -1.18,-6.51 -3.43,-17.76 -3.43,-17.76l-14.7 -2.16z"/>
  <path class="fil18" d="M107.84 967.16c0,0 -0.01,0.01 -0.03,0.02l-21.62 0c-0.02,-0.02 -0.03,-0.02 -0.03,-0.02 -1.18,-5.55 0.75,-16 0.75,-16 11.83,11.31 19.24,-0.28 19.24,-0.28 1.92,4.84 1.7,16.29 1.7,16.29z"/>
  <path class="fil13" d="M262.1 956.22c0,0 -19.27,-21.88 -25.18,-32.76l-14.32 7.34 32.02 30.07 7.49 -0.99 -0.01 -3.67z"/>
  <path class="fil18" d="M273.91 967.12l-26.73 0c-2.35,-2.12 -4.6,-6.39 -7.35,-11.99 -1.57,-3.21 -5.1,-4.98 -8.72,-5.95l0 17.95 -5.53 0 -5.12 -19.08c-3.41,-6.39 -0.85,-12.26 1.55,-17.31 2.79,-0.01 10.89,2.01 25.12,18.36 4.68,5.37 9.84,7.28 14.97,7.13 0.07,0.04 0.14,0.08 0.21,0.11 8.1,3.72 10.75,8.29 11.6,10.79z"/>
  <path class="fil7" d="M272.61 480.47c0,0 -22.82,12.76 -30.97,16.43 -2.9,1.31 -8.15,3.75 -13.51,6.26 -3.24,1.51 -6.52,3.05 -9.35,4.39 -4.79,2.25 -10.49,1.02 -13.93,-3.01 -12.35,-14.43 -44.33,-45.69 -77.35,-49.61l-0.11 -0.05c0,0 0.01,0.01 0.01,0.04 -0.01,-0 -0.03,-0 -0.04,-0.01l0.18 0.36c1.86,4.62 19.96,49.84 20.52,59.38 0.59,10.05 2.36,164.41 2.36,164.41 0,0 -1.18,7.1 12.42,4.14 13.6,-2.96 17.15,-5.91 17.15,-5.91 0,0 -13.01,-95.22 -9.46,-128.34 0.7,-6.5 0.07,-13.8 -1.39,-21.34 20.11,12.18 43.82,17.6 43.82,17.6 0,0 8.84,-3.86 22.58,-12.37 5.77,-3.58 12.46,-9.29 19.04,-15.32 7.96,-7.29 21.65,-24.91 21.65,-24.91l-3.63 -12.13z"/>
  <path class="fil7" d="M218.71 913.39l-15.06 0.46c0,0 -34.79,-38.74 -54.31,-100.83 -0.46,-1.44 -0.93,-2.9 -1.44,-4.38 -10.68,-31.14 -32.82,-70.24 -44.49,-105.62 -1.86,-5.64 -3.52,-10.94 -5.02,-15.96 -0.48,-1.61 -0.95,-3.19 -1.39,-4.74l12.41 -9.42c0,0 37.25,60.33 48.79,117.1 10.02,49.31 50.14,108.65 60.53,123.4z"/>
  <path class="fil7" d="M110.7 795.27c0.21,27.61 -1.18,91.08 -4.78,117.35l-13.34 0c-7.38,0 -11.05,-0.11 -11.05,-0.11 -9.02,-45.69 -15.44,-83.49 -20.11,-116.07 -3.83,-26.73 -7.24,-49.65 -9.86,-69.38 -2.64,-19.85 -4.47,-36.48 -5.13,-50.52 -0.1,-2.21 -0.18,-4.37 -0.22,-6.45 -0.04,-2.1 -0.05,-4.14 -0.04,-6.12l72.8 -7.1c-0.92,48.37 -8.4,122.35 -8.28,138.39z"/>
  <path class="fil2" d="M92.58 912.63c-7.38,0 -11.05,-0.11 -11.05,-0.11 -9.02,-45.69 -15.44,-83.49 -20.11,-116.07 -3.83,-26.73 -7.24,-49.65 -9.86,-69.38 -2.64,-19.85 -4.47,-36.48 -5.13,-50.52l26.72 15.71c0,0 -17.05,6.01 -10.55,51.55 6.51,45.54 20.92,162.36 29.98,168.81z"/>
  <path class="fil7" d="M96.02 676.1c0,0 -5.13,18.53 -22.87,16.16 -17.74,-2.37 -42.97,-13.01 -42.97,-13.01 0,0 7.58,-23.96 17.01,-55.43 11.42,-38.1 25.54,-87.23 32.2,-118.21 1.87,-8.68 3.15,-15.93 3.62,-21.12l15.03 -28.57c0,0 21.64,49.27 22.82,61.69 1.18,12.42 -24.84,158.5 -24.84,158.5z"/>
  <path class="fil13" d="M159.38 531.47c-8.54,1.12 -11.81,5.66 -12.87,11.78 -0.57,3.3 -2.27,6.57 -3.72,8.88 -8.51,0.45 -28.76,1.56 -45.78,2.64l-1.4 22.32c13.98,-1.74 31.16,-5.29 50.93,-12.06 1.52,-0.26 3.42,-1.2 5.8,-3.15 12.25,-10.04 19.21,-26.84 19.23,-29.25 0.02,-2.41 -3.65,-2.29 -12.19,-1.16z"/>
  <path class="fil2" d="M95.23 543.63c-0.79,20.11 -5.52,59.14 -47.71,80.04 -0.11,0.05 -0.23,0.11 -0.34,0.16 11.42,-38.1 25.54,-87.23 32.2,-118.21 7.75,11.58 16.27,26.94 15.84,38.02z"/>
  <path class="fil7" d="M98.03 455.91c0,0 -36.09,2.56 -44.76,21.88 -8.67,19.32 -11.43,83.59 -0.39,102.51 0,0 15.2,4.33 42.08,-0.7 0.33,-0.06 0.66,-0.12 0.99,-0.19 0,0 8.58,-21 0.89,-25.14 0,0 -22.67,1.18 -20.3,-6.31 2.36,-7.49 21.5,-92.06 21.5,-92.06z"/>
  <path class="fil13" d="M297.08 465.31c-19.41,-2.49 -24.31,15.16 -24.31,15.16l3.63 12.13c5.98,0.83 11.22,-0.73 16.04,-7.64 4.83,-6.9 6.15,-4.25 9.22,-9.39 4.16,-6.97 -2.35,-9.57 -4.58,-10.27z"/>
  <path class="fil13" d="M241.65 496.9c-2.9,1.31 -8.15,3.75 -13.51,6.26 2.87,5.1 6.46,14.36 7.42,29.67 5.77,-3.58 13.24,-9.54 19.61,-15.8 10.23,-10.04 21.08,-24.44 21.08,-24.44l-3.63 -12.13c0,0 -22.82,12.76 -30.97,16.43z"/>
  <path class="fil13" d="M1271.53 637.57c0,0 -13.8,3.55 -22.58,0.9 -8.78,-2.64 -23.88,1.7 -26.31,4.9 -2.43,3.2 -1.54,4.47 2.8,5.58 4.34,1.1 19.72,7.66 29.82,3.87 10.11,-3.8 23.29,-3.93 23.29,-3.93l-7.02 -11.31z"/>
  <path class="fil19" d="M1390.84 517.65c0,0 -15.51,110.22 -41.19,120.1 -12.67,4.87 -68.67,15.91 -85.24,17.02 0,0 -4.06,-3.29 -3.07,-16.69 0,0 58.67,-21.54 67.01,-33.25 12.4,-17.43 -7.7,-71.22 7.86,-87.59 15.57,-16.37 41.78,-23.41 54.62,0.42z"/>
  <path class="fil7" d="M1388.86 942.35l0 -24.03 37.83 0c1.02,0 1.86,-0.83 1.86,-1.86l0 -3.85c0,-1.02 -0.83,-1.86 -1.86,-1.86l-37.83 0 0 -136.8c0,-3.84 -3.14,-6.98 -6.98,-6.98l-7.49 0c-3.84,0 -6.98,3.14 -6.98,6.98l0 136.8 -37.83 0c-1.02,0 -1.86,0.83 -1.86,1.86l0 3.85c0,1.02 0.84,1.86 1.86,1.86l37.83 0 0 24.03c-27.37,2.07 -49.31,11.92 -55.46,24.66l132.37 0c-6.15,-12.73 -28.09,-22.59 -55.46,-24.66z"/>
  <path class="fil20" d="M1385.61 749.87c-4.52,7.67 -9.75,14.87 -15.15,21.68 -16.67,21.04 -34.81,38.39 -37.97,54.79 -0.63,3.27 -1.63,6.79 -2.93,10.5 -1.32,3.76 -2.95,7.71 -4.83,11.79 -7.07,15.36 -17.65,32.58 -28.21,48.23 -18.26,27.05 -35.42,49.63 -35.42,49.63l-31.48 -1.34c1.26,-3.16 14.99,-40.51 33.36,-86.15 7.46,-18.53 15.39,-38.24 23.04,-57.25 1.02,-2.54 2.04,-5.07 3.05,-7.57 2.34,-5.82 4.64,-11.54 6.89,-17.12 17.25,-42.86 30.99,-76.99 30.99,-76.99 0,0 68.93,-26.11 76.1,-9.19 5.9,13.95 1.09,27.62 -17.42,59.01z"/>
  <path class="fil11" d="M1260.11 940.75c0,0 -1.61,25.98 -6.64,26.35 -0.67,0.05 -25.49,0.05 -25.49,0.05l-31.69 -0.18c0,0 0.21,-7.64 9.47,-9.25 9.26,-1.61 24.77,-8.12 30.38,-20.37 5.9,-12.88 23.97,3.4 23.97,3.4z"/>
  <path class="fil11" d="M1333.01 866.54c0,0 21.9,14.07 19.77,18.64 -0.28,0.61 -12.38,22.28 -12.38,22.28l-15.61 27.58c0,0 -6.57,-3.9 -3.46,-12.78 3.1,-8.87 4.98,-25.59 -2.97,-36.45 -8.37,-11.43 14.65,-19.27 14.65,-19.27z"/>
  <path class="fil20" d="M1303.38 687.65c0,0 -86.53,53.9 -96.19,90.12 -9.66,36.22 115.11,113.49 115.11,113.49 0,0 13.68,-12.07 16.1,-20.93 0,0 -56.39,-67.56 -68.63,-82.71 -7.51,-9.3 111.09,-32.2 125.57,-54.74 14.49,-22.54 9.3,-41.5 9.3,-41.5l-101.26 -3.74z"/>
  <path class="fil2" d="M1466.68 756.87l-177.09 0c-3.54,0 -6.44,2.9 -6.44,6.44l0 35.42c0,3.54 2.9,6.44 6.44,6.44l177.09 0c3.54,0 6.44,-2.9 6.44,-6.44l0 -35.42c0,-3.54 -2.9,-6.44 -6.44,-6.44z"/>
  <path class="fil13" d="M1343.39 498.76c-8.5,5.26 -13.18,11.95 -13.18,11.95 20.73,5.36 55.09,-13.85 55.09,-13.85 0,0 -13.34,-8.97 -18.28,-28.67 -0.25,-0.99 -0.48,-2.01 -0.68,-3.06 -0.65,-3.32 -1.05,-6.91 -1.12,-10.79l-9.52 8.53 -15.83 14.19c0,0 0.36,5.89 2.34,16.01 0.34,1.77 0.74,3.66 1.19,5.68z"/>
  <path class="fil7" d="M1407.16 596.55c-2.97,39.94 2.02,100.65 -1.34,111.17 -2.91,9.08 -37.12,3.7 -50.34,0.67 -4.89,-1.12 -10.82,-2.72 -16.94,-4.62 -17.08,-5.29 -35.68,-12.84 -37.68,-18.44 -0.08,-0.22 -0.14,-0.44 -0.18,-0.64 -0.18,-0.81 -0.14,-1.58 0.04,-2.35 0.66,-2.86 3.23,-5.95 3.53,-13.02 0.34,-7.9 0.29,-17.2 0.58,-27.2 0.02,-1.13 0.03,-2.35 0.15,-3.47l0.01 -0.41c0.01,-0.21 0.01,-0.42 0.02,-0.64 0.29,-11.15 0.87,-22.88 1.55,-34.51 0.43,-7.31 0.93,-14.54 1.5,-21.47 1.49,-17.89 3.5,-33.8 6.15,-43.86 4.34,-16.39 13.91,-27.09 22.62,-34.92l6.3 -5.4c7.03,1.53 15.34,0.52 22.86,-3.05 8.14,-3.87 10.95,-6.64 12.37,-5.59 18.8,14.5 32.32,58.94 28.81,107.76z"/>
  <path class="fil19" d="M1338.63 703.86c-17.07,-5.29 -35.68,-12.84 -37.68,-18.44 -0.08,-0.22 -0.14,-0.44 -0.18,-0.64 0.01,-0.78 0.02,-1.57 0.04,-2.35 0.67,-2.86 3.23,-5.95 3.53,-13.02 0.34,-7.9 0.29,-17.2 0.58,-27.2 0.02,-1.13 0.03,-2.36 0.15,-3.48l0.01 -0.41c0.01,-0.22 0.01,-0.43 0.02,-0.64l64.5 -29.25c0,0 3.72,51.98 -30.96,95.44z"/>
  <path class="fil15" d="M1339.86 477.06c0,0 0.36,5.89 2.34,16.01 15.46,-5 22.48,-18.96 24.82,-24.89 0.66,-1.67 0.95,-2.71 0.95,-2.71 0,0 -0.6,-0.13 -1.63,-0.35 -2.17,-0.46 -6.27,-1.33 -10.64,-2.26l-15.83 14.19z"/>
  <path class="fil13" d="M1333.6 476.91c0,0 33.97,3.83 36.03,-17.36 2.06,-21.19 7.83,-34.97 -13.77,-38.31 -21.6,-3.34 -26.61,4.33 -29.02,11.24 -2.41,6.91 -2.03,42.89 6.76,44.43z"/>
  <path class="fil7" d="M1369.49 461.01c0,0 -2.15,-28.13 -33.08,-31.04 -21.18,-2 -9.37,-20.22 -7.11,-23.13 0,0 16.23,2.22 32.86,4.97 34.91,5.77 10.76,44.82 7.33,49.2z"/>
  <polygon class="fil21" points="1205.05,665.2 1202.08,666.16 1176.78,588.3 1179.75,587.33 "/>
  <polygon class="fil21" points="1287.86,659.19 1201.97,661.02 1202.08,666.16 1287.97,664.33 "/>
  <path class="fil13" d="M1278.64 654.52c0,0 -13.33,5.04 -22.35,3.39 -9.01,-1.66 -23.55,4.32 -25.61,7.77 -2.06,3.45 -1.04,4.61 3.4,5.23 4.44,0.62 20.44,5.44 30.07,0.56 9.63,-4.89 22.71,-6.48 22.71,-6.48l-8.22 -10.47z"/>
  <path class="fil2" d="M1384 522.17c0,0 -3.26,111.26 -27.7,123.91 -12.06,6.24 -66.5,23.39 -82.84,26.32 0,0 -4.4,-2.82 -4.89,-16.25 0,0 55.94,-27.88 62.93,-40.44 10.41,-18.69 -15.51,-69.94 -1.84,-87.93 13.66,-17.99 38.95,-27.87 54.34,-5.6z"/>
  <path class="fil22" d="M1759.91 970.55l-1741.6 0c-0.93,0 -1.7,-0.76 -1.7,-1.7 0,-0.93 0.76,-1.7 1.7,-1.7l1741.6 0c0.93,0 1.7,0.76 1.7,1.7 0,0.93 -0.76,1.7 -1.7,1.7z"/>
 </g>
</svg>
