<?xml version="1.0" encoding="UTF-8"?>
<!DOCTYPE svg PUBLIC "-//W3C//DTD SVG 1.1//EN" "http://www.w3.org/Graphics/SVG/1.1/DTD/svg11.dtd">
<!-- Creator: CorelDRAW 2019 (64-Bit) -->
<svg xmlns="http://www.w3.org/2000/svg" xml:space="preserve" width="3.25328in" height="2.93178in" version="1.1" style="shape-rendering:geometricPrecision; text-rendering:geometricPrecision; image-rendering:optimizeQuality; fill-rule:evenodd; clip-rule:evenodd"
viewBox="0 0 1170.66 1054.97"
 xmlns:xlink="http://www.w3.org/1999/xlink">
 <defs>
  <style type="text/css">
   <![CDATA[
    .fil8 {fill:#032B5B;fill-rule:nonzero}
    .fil89 {fill:#07085B;fill-rule:nonzero}
    .fil83 {fill:#1351A6;fill-rule:nonzero}
    .fil22 {fill:#2C88BB;fill-rule:nonzero}
    .fil88 {fill:#333333;fill-rule:nonzero}
    .fil82 {fill:#340A0E;fill-rule:nonzero}
    .fil10 {fill:#5FACD9;fill-rule:nonzero}
    .fil1 {fill:#6CBBE9;fill-rule:nonzero}
    .fil2 {fill:#9C9EB3;fill-rule:nonzero}
    .fil84 {fill:#CC6756;fill-rule:nonzero}
    .fil85 {fill:#DD4D4D;fill-rule:nonzero}
    .fil87 {fill:#F99793;fill-rule:nonzero}
    .fil81 {fill:#F9A58E;fill-rule:nonzero}
    .fil45 {fill:#FBCDB6;fill-rule:nonzero}
    .fil75 {fill:#FDD65B;fill-rule:nonzero}
    .fil86 {fill:#FFF9F2;fill-rule:nonzero}
    .fil63 {fill:white;fill-rule:nonzero}
    .fil42 {fill:black;fill-rule:nonzero;fill-opacity:0.101961}
    .fil23 {fill:#2C88BB;fill-rule:nonzero;fill-opacity:0.101961}
    .fil0 {fill:black;fill-rule:nonzero;fill-opacity:0.200000}
    .fil53 {fill:#9CA7B3;fill-rule:nonzero;fill-opacity:0.501961}
    .fil47 {fill:#ACB3D8;fill-rule:nonzero;fill-opacity:0.501961}
    .fil64 {fill:#D4D4DD;fill-rule:nonzero;fill-opacity:0.501961}
    .fil44 {fill:#5FACD9;fill-rule:nonzero}
    .fil43 {fill:#6CBBE9;fill-rule:nonzero}
    .fil24 {fill:#C6BCD6;fill-rule:nonzero}
    .fil9 {fill:#D1D3D4;fill-rule:nonzero}
    .fil56 {fill:url(#id0);fill-rule:nonzero}
    .fil28 {fill:url(#id1);fill-rule:nonzero}
    .fil32 {fill:url(#id2);fill-rule:nonzero}
    .fil49 {fill:url(#id3);fill-rule:nonzero}
    .fil51 {fill:url(#id4);fill-rule:nonzero}
    .fil31 {fill:url(#id5);fill-rule:nonzero}
    .fil36 {fill:url(#id6);fill-rule:nonzero}
    .fil39 {fill:url(#id7);fill-rule:nonzero}
    .fil25 {fill:url(#id8);fill-rule:nonzero}
    .fil38 {fill:url(#id9);fill-rule:nonzero}
    .fil50 {fill:url(#id10);fill-rule:nonzero}
    .fil79 {fill:url(#id11);fill-rule:nonzero}
    .fil34 {fill:url(#id12);fill-rule:nonzero}
    .fil26 {fill:url(#id13);fill-rule:nonzero}
    .fil37 {fill:url(#id14);fill-rule:nonzero}
    .fil30 {fill:url(#id15);fill-rule:nonzero}
    .fil27 {fill:url(#id16);fill-rule:nonzero}
    .fil48 {fill:url(#id17);fill-rule:nonzero}
    .fil58 {fill:url(#id18);fill-rule:nonzero}
    .fil35 {fill:url(#id19);fill-rule:nonzero}
    .fil33 {fill:url(#id20);fill-rule:nonzero}
    .fil13 {fill:url(#id21);fill-rule:nonzero}
    .fil5 {fill:url(#id22);fill-rule:nonzero}
    .fil7 {fill:url(#id23);fill-rule:nonzero}
    .fil6 {fill:url(#id24);fill-rule:nonzero}
    .fil4 {fill:url(#id25);fill-rule:nonzero}
    .fil3 {fill:url(#id26);fill-rule:nonzero}
    .fil57 {fill:url(#id27);fill-rule:nonzero}
    .fil41 {fill:url(#id28);fill-rule:nonzero}
    .fil11 {fill:url(#id29);fill-rule:nonzero}
    .fil29 {fill:url(#id30);fill-rule:nonzero}
    .fil54 {fill:url(#id31);fill-rule:nonzero}
    .fil55 {fill:url(#id32);fill-rule:nonzero}
    .fil40 {fill:url(#id33);fill-rule:nonzero}
    .fil61 {fill:url(#id34);fill-rule:nonzero}
    .fil69 {fill:url(#id35);fill-rule:nonzero}
    .fil12 {fill:url(#id36);fill-rule:nonzero}
    .fil52 {fill:url(#id37);fill-rule:nonzero}
    .fil46 {fill:url(#id38);fill-rule:nonzero}
    .fil68 {fill:url(#id39);fill-rule:nonzero}
    .fil60 {fill:url(#id40);fill-rule:nonzero}
    .fil67 {fill:url(#id41);fill-rule:nonzero}
    .fil66 {fill:url(#id42);fill-rule:nonzero}
    .fil62 {fill:url(#id43);fill-rule:nonzero}
    .fil65 {fill:url(#id44);fill-rule:nonzero}
    .fil59 {fill:url(#id45);fill-rule:nonzero;fill-opacity:0.301961}
    .fil80 {fill:url(#id46);fill-rule:nonzero;fill-opacity:0.501961}
    .fil78 {fill:url(#id47);fill-rule:nonzero}
    .fil21 {fill:url(#id48);fill-rule:nonzero}
    .fil18 {fill:url(#id49);fill-rule:nonzero}
    .fil14 {fill:url(#id50);fill-rule:nonzero}
    .fil19 {fill:url(#id51);fill-rule:nonzero}
    .fil20 {fill:url(#id52);fill-rule:nonzero}
    .fil15 {fill:url(#id53);fill-rule:nonzero}
    .fil16 {fill:url(#id54);fill-rule:nonzero}
    .fil17 {fill:url(#id55);fill-rule:nonzero}
    .fil76 {fill:url(#id56);fill-rule:nonzero}
    .fil74 {fill:url(#id57);fill-rule:nonzero}
    .fil71 {fill:url(#id58);fill-rule:nonzero}
    .fil73 {fill:url(#id59);fill-rule:nonzero}
    .fil72 {fill:url(#id60);fill-rule:nonzero}
    .fil70 {fill:url(#id61);fill-rule:nonzero}
    .fil77 {fill:url(#id62);fill-rule:nonzero}
   ]]>
  </style>
  <linearGradient id="id0" gradientUnits="userSpaceOnUse" x1="590.44" y1="639.54" x2="721.16" y2="639.54">
   <stop offset="0" style="stop-opacity:1; stop-color:#311A60"/>
   <stop offset="0.439216" style="stop-opacity:1; stop-color:#1F0041"/>
   <stop offset="0.490196" style="stop-opacity:1; stop-color:#1F0041"/>
   <stop offset="0.509804" style="stop-opacity:1; stop-color:#1F0041"/>
   <stop offset="1" style="stop-opacity:1; stop-color:#0F001F"/>
   <stop offset="1" style="stop-opacity:1; stop-color:#0F001F"/>
  </linearGradient>
  <linearGradient id="id1" gradientUnits="userSpaceOnUse" x1="754.14" y1="196.72" x2="600.69" y2="489.17">
   <stop offset="0" style="stop-opacity:1; stop-color:#F6AA90"/>
   <stop offset="0.0313725" style="stop-opacity:1; stop-color:#F6AA90"/>
   <stop offset="0.101961" style="stop-opacity:1; stop-color:#F6AA90"/>
   <stop offset="0.639216" style="stop-opacity:1; stop-color:#FFE4A7"/>
   <stop offset="0.870588" style="stop-opacity:1; stop-color:#F6AA90"/>
   <stop offset="1" style="stop-opacity:1; stop-color:#F6AA90"/>
  </linearGradient>
  <linearGradient id="id2" gradientUnits="userSpaceOnUse" x1="541.54" y1="238.7" x2="541.55" y2="238.7">
   <stop offset="0" style="stop-opacity:1; stop-color:#440F89"/>
   <stop offset="0.0313725" style="stop-opacity:1; stop-color:#440F89"/>
   <stop offset="0.309804" style="stop-opacity:1; stop-color:#5915B3"/>
   <stop offset="0.6" style="stop-opacity:1; stop-color:#24054D"/>
   <stop offset="0.831373" style="stop-opacity:1; stop-color:#3B0C75"/>
   <stop offset="0.988235" style="stop-opacity:1; stop-color:#2F0860"/>
   <stop offset="1" style="stop-opacity:1; stop-color:#2F0860"/>
  </linearGradient>
  <linearGradient id="id3" gradientUnits="userSpaceOnUse" x1="747.14" y1="779.8" x2="684.15" y2="775.13">
   <stop offset="0" style="stop-opacity:1; stop-color:#0F054D"/>
   <stop offset="0.0901961" style="stop-opacity:1; stop-color:#0F054D"/>
   <stop offset="0.141176" style="stop-opacity:1; stop-color:#0F054D"/>
   <stop offset="0.890196" style="stop-opacity:1; stop-color:#260556"/>
   <stop offset="0.890196" style="stop-opacity:1; stop-color:#260556"/>
   <stop offset="1" style="stop-opacity:1; stop-color:#260556"/>
  </linearGradient>
  <linearGradient id="id4" gradientUnits="userSpaceOnUse" xlink:href="#id3" x1="678.95" y1="807.62" x2="619.7" y2="817.43">
  </linearGradient>
  <linearGradient id="id5" gradientUnits="userSpaceOnUse" xlink:href="#id2" x1="602.09" y1="238.7" x2="602.1" y2="238.7">
  </linearGradient>
  <linearGradient id="id6" gradientUnits="userSpaceOnUse" x1="790.89" y1="448.09" x2="794.36" y2="537.43">
   <stop offset="0" style="stop-opacity:1; stop-color:#FFA88C"/>
   <stop offset="0.0313725" style="stop-opacity:1; stop-color:#FFA88C"/>
   <stop offset="0.14902" style="stop-opacity:1; stop-color:#FFA88C"/>
   <stop offset="1" style="stop-opacity:1; stop-color:#FDEBA8"/>
  </linearGradient>
  <linearGradient id="id7" gradientUnits="userSpaceOnUse" xlink:href="#id6" x1="806.98" y1="483.33" x2="775.09" y2="446.81">
  </linearGradient>
  <linearGradient id="id8" gradientUnits="userSpaceOnUse" xlink:href="#id6" x1="790.91" y1="460.62" x2="779.57" y2="567.52">
  </linearGradient>
  <linearGradient id="id9" gradientUnits="userSpaceOnUse" xlink:href="#id6" x1="773.62" y1="456.14" x2="784.49" y2="544.89">
  </linearGradient>
  <linearGradient id="id10" gradientUnits="userSpaceOnUse" x1="645.75" y1="855.19" x2="651.76" y2="775.71">
   <stop offset="0" style="stop-opacity:1; stop-color:#440F89"/>
   <stop offset="0.509804" style="stop-opacity:1; stop-color:#440F89"/>
   <stop offset="0.988235" style="stop-opacity:1; stop-color:#3A3B9E"/>
   <stop offset="1" style="stop-opacity:1; stop-color:#3A3B9E"/>
   <stop offset="1" style="stop-opacity:1; stop-color:#3A3B9E"/>
  </linearGradient>
  <linearGradient id="id11" gradientUnits="userSpaceOnUse" x1="483.86" y1="311.66" x2="658.21" y2="-1.58">
   <stop offset="0" style="stop-opacity:1; stop-color:#FFBA77"/>
   <stop offset="0.0313725" style="stop-opacity:1; stop-color:#FFBA77"/>
   <stop offset="0.14902" style="stop-opacity:1; stop-color:#FFBA77"/>
   <stop offset="1" style="stop-opacity:1; stop-color:#FDEBA8"/>
  </linearGradient>
  <linearGradient id="id12" gradientUnits="userSpaceOnUse" xlink:href="#id6" x1="804.48" y1="440.93" x2="798.48" y2="530.14">
  </linearGradient>
  <linearGradient id="id13" gradientUnits="userSpaceOnUse" xlink:href="#id6" x1="802.83" y1="441.45" x2="773.19" y2="538.46">
  </linearGradient>
  <linearGradient id="id14" gradientUnits="userSpaceOnUse" xlink:href="#id6" x1="768.88" y1="470.36" x2="780.26" y2="563.26">
  </linearGradient>
  <linearGradient id="id15" gradientUnits="userSpaceOnUse" x1="596.15" y1="249.77" x2="549.04" y2="210.51">
   <stop offset="0" style="stop-opacity:1; stop-color:#24054D"/>
   <stop offset="1" style="stop-opacity:1; stop-color:#440F89"/>
  </linearGradient>
  <linearGradient id="id16" gradientUnits="userSpaceOnUse" xlink:href="#id6" x1="791.58" y1="434.67" x2="784.71" y2="536.77">
  </linearGradient>
  <linearGradient id="id17" gradientUnits="userSpaceOnUse" xlink:href="#id10" x1="711.03" y1="821.51" x2="719.13" y2="739.8">
  </linearGradient>
  <linearGradient id="id18" gradientUnits="userSpaceOnUse" x1="651.17" y1="660.62" x2="667.31" y2="617.34">
   <stop offset="0" style="stop-opacity:1; stop-color:#3D055E"/>
   <stop offset="0.988235" style="stop-opacity:1; stop-color:#11054D"/>
   <stop offset="1" style="stop-opacity:1; stop-color:#0F054D"/>
  </linearGradient>
  <linearGradient id="id19" gradientUnits="userSpaceOnUse" xlink:href="#id6" x1="784.59" y1="465.46" x2="788.21" y2="558.98">
  </linearGradient>
  <linearGradient id="id20" gradientUnits="userSpaceOnUse" xlink:href="#id6" x1="799.13" y1="458.85" x2="792.84" y2="552.22">
  </linearGradient>
  <linearGradient id="id21" gradientUnits="userSpaceOnUse" x1="554.07" y1="363.91" x2="157.97" y2="899.56">
   <stop offset="0" style="stop-opacity:1; stop-color:#9C9EB3"/>
   <stop offset="0.0313725" style="stop-opacity:1; stop-color:#9C9EB3"/>
   <stop offset="0.580392" style="stop-opacity:1; stop-color:#D4D1D8"/>
   <stop offset="0.588235" style="stop-opacity:1; stop-color:#D4D1D8"/>
   <stop offset="1" style="stop-opacity:1; stop-color:#EDEBF2"/>
  </linearGradient>
  <linearGradient id="id22" gradientUnits="userSpaceOnUse" xlink:href="#id21" x1="1549.27" y1="-1156.78" x2="441.73" y2="953.96">
  </linearGradient>
  <linearGradient id="id23" gradientUnits="userSpaceOnUse" xlink:href="#id21" x1="1549.27" y1="-1188.26" x2="441.73" y2="922.48">
  </linearGradient>
  <linearGradient id="id24" gradientUnits="userSpaceOnUse" xlink:href="#id21" x1="1549.27" y1="-1172.14" x2="441.73" y2="938.61">
  </linearGradient>
  <linearGradient id="id25" gradientUnits="userSpaceOnUse" xlink:href="#id21" x1="1549.27" y1="-1142.2" x2="441.73" y2="968.55">
  </linearGradient>
  <linearGradient id="id26" gradientUnits="userSpaceOnUse" xlink:href="#id21" x1="1549.27" y1="-1127.61" x2="441.73" y2="983.13">
  </linearGradient>
  <linearGradient id="id27" gradientUnits="userSpaceOnUse" x1="722.76" y1="652.47" x2="603.4" y2="629.43">
   <stop offset="0" style="stop-opacity:1; stop-color:#3D055E"/>
   <stop offset="1" style="stop-opacity:1; stop-color:#5E26BC"/>
  </linearGradient>
  <linearGradient id="id28" gradientUnits="userSpaceOnUse" xlink:href="#id6" x1="817.86" y1="491" x2="786.05" y2="452">
  </linearGradient>
  <linearGradient id="id29" gradientUnits="userSpaceOnUse" xlink:href="#id21" x1="717.85" y1="1018.73" x2="947.38" y2="601.74">
  </linearGradient>
  <linearGradient id="id30" gradientUnits="userSpaceOnUse" xlink:href="#id6" x1="1531.83" y1="1077.59" x2="809.94" y2="455.12">
  </linearGradient>
  <linearGradient id="id31" gradientUnits="userSpaceOnUse" xlink:href="#id21" x1="697.25" y1="566.11" x2="471.79" y2="528.92">
  </linearGradient>
  <linearGradient id="id32" gradientUnits="userSpaceOnUse" x1="593.32" y1="643.1" x2="736.58" y2="643.1">
   <stop offset="0" style="stop-opacity:1; stop-color:#230749"/>
   <stop offset="0.231373" style="stop-opacity:1; stop-color:#230749"/>
   <stop offset="0.458824" style="stop-opacity:1; stop-color:#311A60"/>
   <stop offset="0.490196" style="stop-opacity:1; stop-color:#311A60"/>
   <stop offset="0.541176" style="stop-opacity:1; stop-color:#574187"/>
   <stop offset="0.588235" style="stop-opacity:1; stop-color:#311A60"/>
   <stop offset="0.619608" style="stop-opacity:1; stop-color:#311A60"/>
   <stop offset="0.870588" style="stop-opacity:1; stop-color:#1F0041"/>
   <stop offset="1" style="stop-opacity:1; stop-color:#1F0041"/>
  </linearGradient>
  <linearGradient id="id33" gradientUnits="userSpaceOnUse" xlink:href="#id6" x1="848.85" y1="513.84" x2="768.11" y2="450.95">
  </linearGradient>
  <linearGradient id="id34" gradientUnits="userSpaceOnUse" xlink:href="#id21" x1="606.87" y1="577.67" x2="352.98" y2="535.79">
  </linearGradient>
  <linearGradient id="id35" gradientUnits="userSpaceOnUse" x1="722.07" y1="689.81" x2="653.95" y2="580.96">
   <stop offset="0" style="stop-opacity:1; stop-color:#1F0041"/>
   <stop offset="0.0509804" style="stop-opacity:1; stop-color:#1F0041"/>
   <stop offset="0.321569" style="stop-opacity:1; stop-color:#1F0041"/>
   <stop offset="0.458824" style="stop-opacity:1; stop-color:#311A60"/>
   <stop offset="0.490196" style="stop-opacity:1; stop-color:#311A60"/>
   <stop offset="0.529412" style="stop-opacity:1; stop-color:#8770B8"/>
   <stop offset="0.588235" style="stop-opacity:1; stop-color:#311A60"/>
   <stop offset="0.619608" style="stop-opacity:1; stop-color:#311A60"/>
   <stop offset="0.741176" style="stop-opacity:1; stop-color:#1F0041"/>
   <stop offset="0.811765" style="stop-opacity:1; stop-color:#1F0041"/>
   <stop offset="1" style="stop-opacity:1; stop-color:#1F0041"/>
   <stop offset="1" style="stop-opacity:1; stop-color:#1F0041"/>
  </linearGradient>
  <linearGradient id="id36" gradientUnits="userSpaceOnUse" xlink:href="#id6" x1="-420.5" y1="862.64" x2="1012.66" y2="541.38">
  </linearGradient>
  <linearGradient id="id37" gradientUnits="userSpaceOnUse" x1="748.94" y1="733.39" x2="89.07" y2="487.23">
   <stop offset="0" style="stop-opacity:1; stop-color:#138ABC"/>
   <stop offset="0.0313725" style="stop-opacity:1; stop-color:#138ABC"/>
   <stop offset="0.14902" style="stop-opacity:1; stop-color:#138ABC"/>
   <stop offset="1" style="stop-opacity:1; stop-color:#2AF6FF"/>
  </linearGradient>
  <linearGradient id="id38" gradientUnits="userSpaceOnUse" xlink:href="#id21" x1="868.9" y1="576.72" x2="557.13" y2="525.29">
  </linearGradient>
  <linearGradient id="id39" gradientUnits="userSpaceOnUse" xlink:href="#id0" x1="643.37" y1="596.44" x2="1190.08" y2="965.17">
  </linearGradient>
  <radialGradient id="id40" gradientUnits="userSpaceOnUse" gradientTransform="matrix(-1.68059 -0 -0 1.68054 1598 -423)" cx="596.21" cy="621.65" r="28.78" fx="596.21" fy="621.65">
   <stop offset="0" style="stop-opacity:1; stop-color:#FDDFCA"/>
   <stop offset="0.0392157" style="stop-opacity:1; stop-color:#FDDFCA"/>
   <stop offset="1" style="stop-opacity:1; stop-color:#F9B59E"/>
  </radialGradient>
  <radialGradient id="id41" gradientUnits="userSpaceOnUse" gradientTransform="matrix(-2.08238 -0 -0 2.08232 1939 -453)" cx="629.08" cy="418.94" r="16.97" fx="629.08" fy="418.94">
   <stop offset="0" style="stop-opacity:1; stop-color:#FDD65B"/>
   <stop offset="1" style="stop-opacity:1; stop-color:#FFA88C"/>
  </radialGradient>
  <radialGradient id="id42" gradientUnits="userSpaceOnUse" gradientTransform="matrix(-1.52718 -0 -0 1.52719 1577 -228)" xlink:href="#id41" cx="623.88" cy="433.31" r="33.74" fx="623.88" fy="433.31">
  </radialGradient>
  <radialGradient id="id43" gradientUnits="userSpaceOnUse" gradientTransform="matrix(-2.14953 -0 -0 2.14941 1822 -562)" xlink:href="#id40" cx="578.35" cy="488.62" r="39.66" fx="578.35" fy="488.62">
  </radialGradient>
  <radialGradient id="id44" gradientUnits="userSpaceOnUse" gradientTransform="matrix(-2.09145 -0 -0 2.09131 1824 -534)" xlink:href="#id40" cx="590.15" cy="489.39" r="41.38" fx="590.15" fy="489.39">
  </radialGradient>
  <linearGradient id="id45" gradientUnits="userSpaceOnUse" x1="680.62" y1="606.22" x2="635.94" y2="676.34">
   <stop offset="0" style="stop-opacity:1; stop-color:#9E79B8"/>
   <stop offset="0.0509804" style="stop-opacity:1; stop-color:#9E79B8"/>
   <stop offset="0.380392" style="stop-opacity:1; stop-color:#9E79B8"/>
   <stop offset="0.560784" style="stop-opacity:1; stop-color:#E6C6F9"/>
   <stop offset="0.788235" style="stop-opacity:1; stop-color:#8969C3"/>
   <stop offset="0.909804" style="stop-opacity:1; stop-color:#8969C3"/>
   <stop offset="1" style="stop-opacity:1; stop-color:#8969C3"/>
  </linearGradient>
  <radialGradient id="id46" gradientUnits="userSpaceOnUse" gradientTransform="matrix(-1.36987 -0 -0 1.36987 1373 -60)" cx="579.27" cy="163.13" r="22.41" fx="579.27" fy="163.13">
   <stop offset="0" style="stop-opacity:1; stop-color:white"/>
   <stop offset="1" style="stop-opacity:1; stop-color:black"/>
  </radialGradient>
  <linearGradient id="id47" gradientUnits="userSpaceOnUse" x1="535.38" y1="175.16" x2="588.8" y2="175.16">
   <stop offset="0" style="stop-opacity:1; stop-color:#FFBA95"/>
   <stop offset="0.219608" style="stop-opacity:1; stop-color:#FFFBC8"/>
   <stop offset="0.219608" style="stop-opacity:1; stop-color:#FFFBC8"/>
   <stop offset="0.541176" style="stop-opacity:1; stop-color:#F9B572"/>
   <stop offset="0.678431" style="stop-opacity:1; stop-color:#F9B572"/>
   <stop offset="0.85098" style="stop-opacity:1; stop-color:#FDD1A3"/>
   <stop offset="0.960784" style="stop-opacity:1; stop-color:#FFC18C"/>
   <stop offset="1" style="stop-opacity:1; stop-color:#FFC18C"/>
  </linearGradient>
  <linearGradient id="id48" gradientUnits="userSpaceOnUse" x1="474.32" y1="750.88" x2="94.84" y2="750.88">
   <stop offset="0" style="stop-opacity:1; stop-color:#231F1F"/>
   <stop offset="0.0313725" style="stop-opacity:1; stop-color:#231F1F"/>
   <stop offset="0.580392" style="stop-opacity:1; stop-color:#D4D1D8"/>
   <stop offset="0.588235" style="stop-opacity:1; stop-color:#D4D1D8"/>
   <stop offset="1" style="stop-opacity:1; stop-color:#EDEBF2"/>
  </linearGradient>
  <linearGradient id="id49" gradientUnits="userSpaceOnUse" xlink:href="#id48" x1="474.32" y1="726.55" x2="94.84" y2="726.55">
  </linearGradient>
  <linearGradient id="id50" gradientUnits="userSpaceOnUse" xlink:href="#id48" x1="474.32" y1="694.12" x2="94.84" y2="694.12">
  </linearGradient>
  <linearGradient id="id51" gradientUnits="userSpaceOnUse" xlink:href="#id48" x1="474.32" y1="734.66" x2="94.84" y2="734.66">
  </linearGradient>
  <linearGradient id="id52" gradientUnits="userSpaceOnUse" xlink:href="#id48" x1="474.32" y1="742.77" x2="94.84" y2="742.77">
  </linearGradient>
  <linearGradient id="id53" gradientUnits="userSpaceOnUse" xlink:href="#id48" x1="474.32" y1="702.23" x2="94.84" y2="702.23">
  </linearGradient>
  <linearGradient id="id54" gradientUnits="userSpaceOnUse" xlink:href="#id48" x1="474.32" y1="710.34" x2="94.84" y2="710.34">
  </linearGradient>
  <linearGradient id="id55" gradientUnits="userSpaceOnUse" xlink:href="#id48" x1="474.32" y1="718.44" x2="94.84" y2="718.44">
  </linearGradient>
  <linearGradient id="id56" gradientUnits="userSpaceOnUse" xlink:href="#id47" x1="542.91" y1="95.82" x2="618.43" y2="233.57">
  </linearGradient>
  <linearGradient id="id57" gradientUnits="userSpaceOnUse" xlink:href="#id47" x1="548.11" y1="229.59" x2="557.93" y2="141.61">
  </linearGradient>
  <linearGradient id="id58" gradientUnits="userSpaceOnUse" xlink:href="#id47" x1="530.03" y1="93.11" x2="613.3" y2="245.01">
  </linearGradient>
  <linearGradient id="id59" gradientUnits="userSpaceOnUse" xlink:href="#id11" x1="602.2" y1="202.52" x2="411.65" y2="87.67">
  </linearGradient>
  <linearGradient id="id60" gradientUnits="userSpaceOnUse" xlink:href="#id11" x1="519.68" y1="188.01" x2="771.94" y2="101.8">
  </linearGradient>
  <radialGradient id="id61" gradientUnits="userSpaceOnUse" gradientTransform="matrix(-1.47026 -0 -0 1.47025 1586 -289)" cx="641.92" cy="613.82" r="7.73" fx="641.92" fy="613.82">
   <stop offset="0" style="stop-opacity:1; stop-color:white"/>
   <stop offset="1" style="stop-opacity:1; stop-color:black"/>
  </radialGradient>
  <radialGradient id="id62" gradientUnits="userSpaceOnUse" gradientTransform="matrix(-0.858596 -0 -0 0.858596 1066 21)" xlink:href="#id61" cx="573.6" cy="149.73" r="65.97" fx="573.6" fy="149.73">
  </radialGradient>
 </defs>
 <g id="Layer_x0020_1">
  <metadata id="CorelCorpID_0Corel-Layer"/>
  <g id="_2407717927584">
   <g>
    <g>
     <path class="fil0" d="M469.74 1045.54l-453.78 -259.88c-21.6,-12.47 -21.92,-18.93 3.02,-33.32l632.29 -385.13c24.94,-14.4 30.76,-13.11 52.36,-0.65l451.62 258.16c21.6,12.47 18.9,24.38 -6.03,38.78l-623.31 380.75c-24.94,14.4 -34.57,13.76 -56.16,1.29z"/>
     <polygon class="fil1" points="48.03,781.68 234.33,672.21 1154.6,649.24 501.26,1044.63 490.57,1039.01 "/>
     <path class="fil2" d="M485.23 1031.39l-420.31 -243.78 602.69 -364.69c5.98,-3.62 13.45,-3.71 19.51,-0.23l406.34 235.65 -608.24 373.05z"/>
     <path class="fil3" d="M485.23 1026.78l-420.31 -243.78 602.69 -364.69c5.98,-3.62 13.45,-3.71 19.51,-0.24l406.34 235.65 -608.24 373.05z"/>
     <path class="fil2" d="M485.23 1016.8l-420.31 -243.78 602.69 -364.69c5.98,-3.62 13.45,-3.71 19.51,-0.24l406.34 235.65 -608.24 373.05z"/>
     <path class="fil4" d="M485.23 1012.19l-420.31 -243.78 602.69 -364.69c5.98,-3.62 13.45,-3.71 19.51,-0.23l406.34 235.65 -608.24 373.05z"/>
     <path class="fil2" d="M485.23 1002.21l-420.31 -243.78 602.69 -364.69c5.98,-3.62 13.45,-3.71 19.51,-0.23l406.34 235.65 -608.24 373.05z"/>
     <path class="fil5" d="M485.23 997.61l-420.31 -243.78 602.69 -364.69c5.98,-3.62 13.45,-3.71 19.51,-0.23l406.34 235.65 -608.24 373.05z"/>
     <path class="fil2" d="M485.23 986.86l-420.31 -243.78 602.69 -364.69c5.98,-3.62 13.45,-3.71 19.51,-0.24l406.34 235.65 -608.24 373.05z"/>
     <path class="fil6" d="M485.23 982.25l-420.31 -243.78 602.69 -364.69c5.98,-3.62 13.45,-3.71 19.51,-0.23l406.34 235.65 -608.24 373.05z"/>
     <path class="fil2" d="M485.23 970.74l-420.31 -243.78 602.69 -364.69c5.98,-3.62 13.45,-3.71 19.51,-0.23l406.34 235.65 -608.24 373.05z"/>
     <path class="fil7" d="M485.23 966.13l-420.31 -243.78 602.69 -364.69c5.98,-3.62 13.45,-3.71 19.51,-0.24l406.34 235.65 -608.24 373.05z"/>
     <path class="fil1" d="M48.03 663.43l642.06 -388.5c6.37,-3.85 14.33,-3.95 20.79,-0.25l432.88 251.04c16.63,9.53 26.9,27.23 26.9,46.41l0 60.89c0,8.96 -5.38,15.95 -12.52,19.22l-650.95 393.26 8.65 -83.78 -20.05 -38.58 -447.76 -259.7zm996.45 29.4l0 0c15.84,-9.15 28.68,-31.3 28.68,-49.47 0,-18.18 -12.84,-25.5 -28.68,-16.36 -15.84,9.15 -28.68,31.3 -28.68,49.47 0,18.17 12.84,25.5 28.68,16.35z"/>
     <path class="fil8" d="M495.79 923.14l-447.76 -259.7 642.06 -388.51c6.37,-3.85 14.33,-3.95 20.79,-0.25l432.88 251.04 -647.97 397.41z"/>
     <path class="fil9" d="M500.49 1035.86l0 -59.6c0,-18.59 -9.95,-35.75 -26.08,-44.99l-417.38 -241.98 0 -19 429.84 249.21c16.13,9.24 26.08,26.4 26.08,44.99l0 59.6c0,9.51 -6.21,16.79 -14.11,19.47 0.96,-2.37 1.65,-4.89 1.65,-7.7z"/>
     <path class="fil10" d="M490.57 1039.01c2.02,1.16 4.18,1.75 6.41,1.75 6.24,0 12.99,-4.97 12.99,-12.99l0 -60.89c0,-16.15 -8.7,-31.17 -22.72,-39.19l-439.22 -255.43 0 -8.82 443.35 257.04c16.63,9.53 26.9,27.23 26.9,46.41l0 60.89c0,16.34 -17.66,26.58 -31.84,18.46l-438.4 -254.2 0 -10.34 442.54 257.33z"/>
     <path class="fil10" d="M1044.48 618.42c19.97,-11.53 36.16,-2.3 36.16,20.62 0,22.92 -16.19,50.85 -36.16,62.38 -19.97,11.53 -36.17,2.3 -36.17,-20.62 0,-22.92 16.19,-50.85 36.17,-62.38zm0 74.41l0 0c15.84,-9.15 28.68,-31.3 28.68,-49.47 0,-18.18 -12.84,-25.5 -28.68,-16.36 -15.84,9.15 -28.68,31.3 -28.68,49.47 0,18.17 12.84,25.5 28.68,16.35z"/>
     <polygon class="fil8" points="681.2,913.65 718.91,891.85 718.91,816.41 681.2,838.21 "/>
     <polygon class="fil11" points="718.05,891.77 983.22,738.67 983.22,663.23 718.05,816.33 "/>
    </g>
    <g>
     <path class="fil0" d="M453.3 875.83l-403.01 -230.8c-19.18,-11.07 -19.47,-16.81 2.68,-29.59l561.54 -342.04c22.15,-12.79 27.32,-11.65 46.5,-0.57l401.09 229.27c19.18,11.07 16.79,21.66 -5.36,34.44l-553.57 338.15c-22.15,12.78 -30.7,12.22 -49.88,1.15z"/>
     <polygon class="fil12" points="86.74,640.75 249.9,544.88 474.31,866.12 "/>
     <path class="fil1" d="M667.26 212.86l379.12 219.86c14.57,8.34 23.56,23.85 23.56,40.64l0 37.19c0,7.85 -4.71,13.97 -10.96,16.83l-570.1 344.42 -9.98 -91.02 -392.15 -227.45 562.31 -340.25c5.58,-3.37 12.55,-3.46 18.21,-0.22z"/>
     <path class="fil10" d="M478.89 780.78l-392.15 -227.45 562.31 -340.25c5.58,-3.37 12.55,-3.46 18.21,-0.22l379.12 219.86 -567.49 348.05z"/>
     <path class="fil13" d="M493.92 817l0 36.06c0,13.88 -15,22.57 -27.04,15.67l-372.26 -215.85 0 -93.54 376.46 218.26c14.13,8.09 22.84,23.12 22.84,39.4z"/>
     <path class="fil9" d="M483.01 863.36l0 -36.06c0,-16.28 -8.72,-31.31 -22.84,-39.4l-365.54 -211.92 0 -16.64 376.46 218.25c14.12,8.09 22.84,23.12 22.84,39.4l0 36.06c0,8.33 -5.44,14.71 -12.36,17.05 0.84,-2.07 1.44,-4.28 1.44,-6.74z"/>
     <path class="fil8" d="M474.31 866.12c1.77,1.02 3.66,1.53 5.61,1.53 5.47,0 11.37,-4.35 11.37,-11.38l0 -37.19c0,-14.14 -7.62,-27.3 -19.89,-34.32l-384.67 -223.71 0 -7.73 388.28 225.11c14.57,8.34 23.56,23.85 23.56,40.64l0 37.19c0,14.31 -15.47,23.28 -27.89,16.16l-383.95 -222.63 0 -9.05 387.57 225.36z"/>
     <g>
      <polygon class="fil14" points="95.01,584.61 474.31,806.23 474.31,803.34 94.83,582.01 "/>
      <polygon class="fil15" points="95.01,592.72 474.31,814.34 474.31,811.45 94.83,590.11 "/>
      <polygon class="fil16" points="95.01,600.83 474.31,822.45 474.31,819.56 94.83,598.23 "/>
      <polygon class="fil17" points="95.01,608.94 474.31,830.56 474.31,827.67 94.83,606.33 "/>
      <polygon class="fil18" points="95.01,617.05 474.31,838.67 474.31,835.78 94.83,614.44 "/>
      <polygon class="fil19" points="95.01,625.16 474.31,846.78 474.31,843.89 94.83,622.55 "/>
      <polygon class="fil20" points="95.01,633.27 474.31,854.88 474.31,852 94.83,630.66 "/>
      <polygon class="fil21" points="95.01,641.38 474.31,863 474.31,860.11 94.83,638.77 "/>
     </g>
    </g>
    <g>
     <g>
      <path class="fil22" d="M312.24 218.51l519.16 0 0 279.67 -0.09 0c0.02,0.7 0.09,1.39 0.09,2.08 0,83.48 -116.22,151.16 -259.58,151.16 -143.36,0 -259.58,-67.68 -259.58,-151.16 0,-0.7 0.08,-1.39 0.09,-2.08l-0.09 0 0 -279.67z"/>
      <g>
       <path class="fil23" d="M831.4 473.5l0 2.09c0,-0.7 -0.07,-1.39 -0.09,-2.09l0.09 0z"/>
       <path class="fil23" d="M312.24 475.58l0 -2.09 0.09 0c-0.02,0.7 -0.09,1.39 -0.09,2.09z"/>
      </g>
      <path class="fil22" d="M831.4 219.56c0,83.48 -116.22,151.16 -259.58,151.16 -143.36,0 -259.58,-67.68 -259.58,-151.16 0,-83.48 116.22,-151.16 259.58,-151.16 143.36,0 259.58,67.68 259.58,151.16z"/>
      <g>
       <path class="fil22" d="M831.4 273.23l0 2.09c0,-0.7 -0.08,-1.39 -0.09,-2.09l0.09 0z"/>
       <path class="fil22" d="M312.24 275.31l0 -2.09 0.09 0c-0.02,0.7 -0.09,1.39 -0.09,2.09z"/>
      </g>
     </g>
     <g>
      <polygon class="fil1" points="571.26,472.61 571.26,487.3 166.68,251.33 166.68,236.64 "/>
      <polygon class="fil1" points="571.03,472.61 571.03,487.3 976.96,250.66 976.96,236.22 "/>
      <polygon class="fil10" points="976.96,236.22 571.03,472.61 166.68,236.64 573.05,0 "/>
     </g>
     <path class="fil24" d="M766.99 470.92c0,9.03 6.38,12.67 14.25,8.12 7.87,-4.54 14.25,-15.55 14.25,-24.58 0,-9.03 -6.38,-12.67 -14.25,-8.12 -7.87,4.54 -14.25,15.55 -14.25,24.58z"/>
     <path class="fil24" d="M802.14 531.7c0,0 -10.37,-75.2 -22.32,-71.48 -11.95,3.72 -22.32,97.25 -22.32,97.25 16.52,-3.79 31.59,-12.3 43.38,-24.48l1.25 -1.29z"/>
     <path class="fil25" d="M809.19 521.56c0,0 -10.37,-75.2 -22.32,-71.48 -11.95,3.72 -22.32,97.25 -22.32,97.25l0 0c16.52,-3.79 31.59,-12.3 43.38,-24.48l1.25 -1.29z"/>
     <path class="fil26" d="M786.79 450.13c-10.49,17.2 -21.26,91.26 -21.26,91.26 15.63,-3.59 32.19,-8.72 43.67,-19.86l0 0.03 -1.25 1.29c-11.79,12.18 -29.13,17.97 -45.65,21.77 0,0 12.59,-90.34 24.5,-94.49z"/>
     <path class="fil27" d="M772.81 537.54c10.82,-3.98 20.66,-10.24 28.91,-18.42 -3.43,-23.46 -9.14,-49.32 -13.75,-59.14 -5.04,11.83 -11.16,45.51 -15.15,77.56z"/>
     <path class="fil24" d="M783.13 471.36c3.9,0 7.05,-3.16 7.05,-7.05l0 -82.64c0,-18.05 -9.68,-34.91 -25.27,-44l-198.04 -115.57c-3.36,-1.96 -7.69,-0.83 -9.64,2.54 -1.96,3.36 -0.83,7.68 2.53,9.64l198.04 115.57c11.27,6.57 18.27,18.76 18.27,31.82l0 82.64c0,3.89 3.15,7.05 7.05,7.05z"/>
     <path class="fil28" d="M787.32 468.06c3.9,0 7.05,-3.16 7.05,-7.05l0 -82.64c0,-18.05 -9.68,-34.91 -25.27,-44l-198.04 -115.57c-3.36,-1.96 -7.69,-0.83 -9.64,2.54 -1.96,3.36 -0.83,7.68 2.53,9.65l198.04 115.57c11.27,6.57 18.27,18.76 18.27,31.81l0 82.64c0,3.89 3.15,7.05 7.05,7.05z"/>
     <path class="fil29" d="M789.08 462.53c1.16,0 2.12,-0.95 2.12,-2.12l0 -82.64c0,-16.3 -8.74,-31.52 -22.82,-39.74l-198.04 -115.57c-0.33,-0.19 -0.69,-0.29 -1.06,-0.29 -0.77,0 -1.45,0.39 -1.82,1.04 -0.39,0.67 -0.31,1.3 -0.23,1.61 0.08,0.32 0.32,0.9 0.98,1.28l198.04 115.57c12.78,7.46 20.72,21.28 20.72,36.08l0 82.64c0,1.17 0.95,2.12 2.11,2.12z"/>
     <path class="fil30" d="M602.1 229.49c0,9.74 -13.55,17.63 -30.28,17.63 -16.72,0 -30.28,-7.89 -30.28,-17.63 0,-9.74 13.56,-17.63 30.28,-17.63 16.72,0 30.28,7.89 30.28,17.63z"/>
     <g>
      <path class="fil31" d="M602.1 238.58l0 0.24c0,-0.08 -0.01,-0.16 -0.01,-0.24l0.01 0z"/>
      <path class="fil32" d="M541.54 238.82l0 -0.24 0.01 0c-0,0.08 -0.01,0.16 -0.01,0.24z"/>
     </g>
     <polygon class="fil33" points="790.21,464.28 802.48,534.69 792.78,536.16 "/>
     <polygon class="fil34" points="793.37,462.69 808.06,528.52 799.83,531.16 "/>
     <polygon class="fil35" points="786.33,471.03 791.09,542.34 781.29,542.78 "/>
     <polygon class="fil36" points="789.64,469.78 797.3,536.79 788.84,538.55 "/>
     <polygon class="fil37" points="779.41,475.79 778.23,547.25 768.43,546.87 "/>
     <polygon class="fil38" points="782.67,477.62 784.73,545.03 776.15,546.08 "/>
     <path class="fil39" d="M772.14 467.98c0,9.03 6.38,12.67 14.25,8.12 7.87,-4.54 14.25,-15.55 14.25,-24.58 0,-9.03 -6.38,-12.67 -14.25,-8.12 -7.87,4.54 -14.25,15.55 -14.25,24.58z"/>
     <path class="fil40" d="M782.83 446.03c-4.75,5.39 -8.05,12.84 -8.05,19.3 0,9.03 6.38,12.67 14.25,8.13 1.24,-0.72 2.42,-1.63 3.56,-2.63 -1.88,2.14 -3.97,3.99 -6.21,5.28 -7.87,4.54 -14.25,0.91 -14.25,-8.12 0,-7.61 4.55,-16.58 10.69,-21.95z"/>
     <path class="fil41" d="M780.9 459.43c0,4.82 3.41,6.77 7.61,4.34 4.2,-2.43 7.61,-8.3 7.61,-13.13 0,-4.82 -3.41,-6.77 -7.61,-4.34 -4.2,2.43 -7.61,8.31 -7.61,13.13z"/>
    </g>
    <g>
     <g>
      <path class="fil42" d="M620.91 286.21c4.22,0 8.06,-0.92 11.08,-2.67l48.87 -29.91c4.04,-2.33 6.36,-6.03 6.36,-10.13 0,-4.5 -2.79,-8.69 -7.66,-11.5l-70.58 -40.24 -70.58 -40.24c-3.82,-2.21 -8.6,-3.42 -13.46,-3.42 -4.22,0 -8.06,0.92 -11.08,2.67l-48.87 29.91c-4.04,2.33 -6.36,6.03 -6.36,10.13 0,4.5 2.79,8.69 7.66,11.5l70.58 40.24 70.59 40.24c3.82,2.21 8.6,3.42 13.46,3.42z"/>
      <path class="fil42" d="M466.08 181.84c-3.94,2.28 -5.86,5.89 -5.71,9.81 0.16,4.09 3.49,8.44 7.92,10.99l65.2 37.16 4.3 2.45 69.54 39.63c1.03,0.6 2.41,1.26 3.57,1.7 2.98,1.12 6.32,1.74 9.67,1.71 1.45,-0.01 2.85,-0.16 4.18,-0.4 2.3,-0.4 4.87,-1.36 6.66,-2.39l48.2 -29.37c3.94,-2.28 5.86,-5.89 5.71,-9.81 -0.16,-4.09 -3.49,-8.44 -7.92,-10.99l-65.2 -37.16 -4.3 -2.45 -69.54 -39.63c-1.03,-0.59 -2.41,-1.26 -3.57,-1.7 -2.98,-1.12 -6.32,-1.74 -9.67,-1.71 -1.45,0.01 -2.85,0.16 -4.17,0.4 -2.3,0.4 -4.87,1.36 -6.66,2.39l-48.19 29.37z"/>
      <path class="fil42" d="M467.17 183c-3.84,2.22 -5.36,5.74 -5.05,9.49 0.3,3.67 4.19,8.19 8.17,10.49l64.2 36.58 4.23 2.41 68.49 39.02c0.93,0.54 2.47,1.3 3.52,1.7 2.92,1.12 6.23,1.75 9.51,1.69 1.44,-0.03 2.81,-0.22 4.09,-0.46 2.07,-0.39 4.89,-1.51 6.5,-2.45l47.52 -28.83c3.84,-2.22 5.36,-5.74 5.05,-9.49 -0.3,-3.67 -4.19,-8.19 -8.17,-10.49l-64.2 -36.58 -4.23 -2.41 -68.49 -39.03c-0.93,-0.53 -2.47,-1.29 -3.52,-1.7 -2.92,-1.12 -6.23,-1.75 -9.51,-1.69 -1.43,0.03 -2.8,0.22 -4.09,0.46 -2.07,0.39 -4.89,1.51 -6.5,2.45l-47.51 28.83z"/>
      <path class="fil42" d="M468.26 184.16c-3.74,2.16 -4.87,5.56 -4.4,9.17 0.42,3.24 4.89,7.94 8.43,9.99l63.19 35.99 4.15 2.37 67.45 38.42c0.82,0.48 2.54,1.34 3.46,1.7 2.86,1.12 6.14,1.76 9.35,1.67 1.42,-0.04 2.76,-0.27 4.01,-0.53 1.83,-0.37 4.91,-1.67 6.34,-2.5l46.84 -28.29c3.74,-2.16 4.86,-5.56 4.4,-9.17 -0.42,-3.24 -4.89,-7.94 -8.43,-9.99l-63.19 -35.99 -4.15 -2.37 -67.45 -38.42c-0.82,-0.48 -2.54,-1.34 -3.46,-1.7 -2.86,-1.12 -6.14,-1.76 -9.35,-1.67 -1.41,0.04 -2.76,0.27 -4.01,0.53 -1.83,0.37 -4.91,1.67 -6.34,2.5l-46.84 28.29z"/>
      <path class="fil42" d="M469.35 185.32c-3.64,2.1 -4.98,5.52 -3.75,8.85 0,2.86 5.59,7.7 8.69,9.48l62.19 35.41 4.08 2.32 66.4 37.81c0.72,0.42 2.6,1.38 3.4,1.7 2.8,1.12 6.05,1.77 9.19,1.65 1.4,-0.06 2.71,-0.32 3.93,-0.59 1.6,-0.35 4.92,-1.83 6.18,-2.55l46.15 -27.75c3.64,-2.1 4.98,-5.53 3.75,-8.85 0,-2.86 -5.59,-7.7 -8.69,-9.48l-62.19 -35.41 -4.08 -2.32 -66.4 -37.81c-0.72,-0.42 -2.6,-1.38 -3.4,-1.7 -2.8,-1.12 -6.05,-1.77 -9.19,-1.65 -1.4,0.06 -2.71,0.32 -3.93,0.59 -1.6,0.35 -4.92,1.83 -6.18,2.55l-46.16 27.75z"/>
      <path class="fil42" d="M470.44 186.48c-3.54,2.04 -4.63,5.4 -3.1,8.53 0,2.45 6.29,7.45 8.94,8.98l61.19 34.83 4 2.28 65.36 37.21c0.62,0.36 2.66,1.42 3.35,1.7 2.74,1.12 5.95,1.78 9.03,1.63 1.38,-0.07 2.66,-0.38 3.85,-0.66 1.37,-0.32 4.94,-1.98 6.02,-2.6l45.48 -27.2c3.54,-2.04 4.63,-5.4 3.1,-8.53 0,-2.45 -6.29,-7.45 -8.94,-8.98l-61.18 -34.83 -4 -2.28 -65.36 -37.2c-0.62,-0.36 -2.66,-1.42 -3.35,-1.7 -2.74,-1.12 -5.95,-1.78 -9.03,-1.63 -1.38,0.07 -2.66,0.37 -3.85,0.66 -1.37,0.32 -4.94,1.98 -6.02,2.6l-45.48 27.2z"/>
      <path class="fil42" d="M471.54 187.64c-3.44,1.98 -4.29,5.27 -2.44,8.21 0,2.04 6.99,7.2 9.2,8.47l60.18 34.25 3.93 2.23 64.31 36.6c0.52,0.3 2.72,1.46 3.29,1.7 2.68,1.12 5.86,1.79 8.87,1.61 1.36,-0.09 2.61,-0.43 3.77,-0.72 1.13,-0.29 4.96,-2.14 5.86,-2.65l44.8 -26.66c3.44,-1.98 4.29,-5.28 2.44,-8.21 0,-2.05 -6.99,-7.2 -9.2,-8.48l-60.18 -34.25 -3.93 -2.23 -64.31 -36.6c-0.52,-0.3 -2.72,-1.46 -3.29,-1.7 -2.68,-1.12 -5.86,-1.79 -8.87,-1.61 -1.36,0.09 -2.61,0.43 -3.77,0.72 -1.13,0.29 -4.96,2.14 -5.85,2.65l-44.8 26.66z"/>
      <path class="fil42" d="M472.63 188.8c-3.34,1.93 -3.95,5.15 -1.79,7.89 0,1.64 7.69,6.95 9.46,7.97l59.18 33.66 3.85 2.19 63.27 35.99c0.41,0.24 2.78,1.51 3.24,1.71 2.63,1.12 5.77,1.81 8.71,1.6 1.34,-0.1 2.56,-0.48 3.69,-0.79 0.9,-0.25 4.98,-2.3 5.69,-2.71l44.12 -26.12c3.33,-1.93 3.94,-5.15 1.79,-7.89 0,-1.63 -7.69,-6.95 -9.46,-7.97l-59.18 -33.66 -3.85 -2.19 -63.27 -35.99c-0.41,-0.24 -2.78,-1.51 -3.24,-1.7 -2.63,-1.13 -5.77,-1.81 -8.71,-1.6 -1.34,0.1 -2.56,0.48 -3.69,0.79 -0.9,0.25 -4.98,2.29 -5.69,2.71l-44.12 26.12z"/>
      <path class="fil42" d="M473.72 189.97c-3.24,1.87 -3.6,5.02 -1.14,7.56 0,1.23 8.39,6.7 9.72,7.47l58.17 33.08 3.78 2.15 62.22 35.38c0.31,0.18 2.84,1.56 3.18,1.71 2.57,1.12 5.68,1.82 8.55,1.58 1.32,-0.11 2.5,-0.53 3.61,-0.85 0.67,-0.2 4.99,-2.45 5.53,-2.76l43.44 -25.58c3.23,-1.87 3.6,-5.03 1.14,-7.57 0,-1.23 -8.39,-6.7 -9.72,-7.47l-58.17 -33.08 -3.78 -2.15 -62.22 -35.38c-0.31,-0.18 -2.84,-1.56 -3.18,-1.71 -2.57,-1.13 -5.68,-1.82 -8.55,-1.58 -1.32,0.11 -2.51,0.53 -3.61,0.85 -0.67,0.2 -4.99,2.45 -5.53,2.76l-43.44 25.58z"/>
      <path class="fil42" d="M474.81 191.12c-3.13,1.81 -3.25,4.9 -0.48,7.24 0,0.82 9.09,6.45 9.97,6.96l57.17 32.5 3.7 2.1 61.18 34.78c0.21,0.12 2.9,1.61 3.13,1.71 2.51,1.13 5.59,1.83 8.39,1.56 1.3,-0.13 2.45,-0.58 3.53,-0.92 0.45,-0.14 5.01,-2.61 5.37,-2.81l42.76 -25.04c3.13,-1.81 3.25,-4.9 0.48,-7.24 0,-0.82 -9.09,-6.45 -9.97,-6.97l-57.17 -32.5 -3.7 -2.1 -61.18 -34.78c-0.21,-0.12 -2.9,-1.61 -3.12,-1.71 -2.51,-1.13 -5.59,-1.83 -8.4,-1.56 -1.3,0.13 -2.45,0.58 -3.52,0.92 -0.45,0.14 -5.01,2.61 -5.37,2.81l-42.76 25.04z"/>
      <path class="fil42" d="M475.91 192.29c-3.03,1.75 -2.91,4.77 0.17,6.92 0,0.41 9.79,6.21 10.23,6.46l56.16 31.91 3.62 2.06 60.13 34.17c0.1,0.06 2.96,1.66 3.07,1.71 2.46,1.13 5.49,1.84 8.23,1.54 1.28,-0.14 2.4,-0.63 3.44,-0.98 0.22,-0.08 5.03,-2.76 5.21,-2.87l42.08 -24.5c3.03,-1.75 2.91,-4.78 -0.17,-6.92 0,-0.41 -9.79,-6.21 -10.23,-6.46l-56.16 -31.92 -3.62 -2.06 -60.13 -34.17c-0.1,-0.06 -2.96,-1.66 -3.07,-1.71 -2.46,-1.13 -5.49,-1.84 -8.23,-1.54 -1.28,0.14 -2.4,0.63 -3.45,0.98 -0.22,0.07 -5.03,2.76 -5.2,2.87l-42.08 24.5z"/>
      <path class="fil42" d="M620.55 275.1l46.44 -26.87c2.93,-1.69 2.56,-4.65 -0.82,-6.6l-65.65 -37.29 -65.65 -37.29c-3.38,-1.95 -8.51,-2.17 -11.44,-0.47l-46.45 26.88c-2.93,1.69 -2.56,4.65 0.82,6.6l65.65 37.29 65.65 37.29c3.39,1.95 8.51,2.17 11.44,0.47z"/>
     </g>
     <g>
      <g>
       <polygon class="fil8" points="618.25,270.69 618.25,286.88 669.14,256.65 669.14,240.02 "/>
       <polygon class="fil8" points="618.32,270.69 618.32,286.88 454.76,191.32 454.76,174.69 "/>
       <polygon class="fil8" points="454.76,174.69 618.32,270.69 669.14,240.02 505.47,144.18 "/>
       <polygon class="fil43" points="454.76,174.69 618.32,270.69 669.14,240.02 619.11,265.5 "/>
      </g>
     </g>
     <g>
      <polygon class="fil44" points="645.42,240.18 505.56,158.26 505.05,158.57 505.05,190.16 618.23,256.59 "/>
      <polygon class="fil44" points="478.47,174.56 505.05,190.16 505.05,158.57 "/>
     </g>
    </g>
    <g>
     <path class="fil45" d="M693.38 597.72c1.61,5.51 5.28,16.07 7.34,20.43 2.07,4.36 -8.72,19.97 -14.92,9.87 -6.2,-10.1 -5.28,-18.59 -7.34,-24.79 -2.07,-6.2 14.92,-5.51 14.92,-5.51z"/>
     <path class="fil46" d="M648.5 479.22c9.2,3.77 13.69,14.23 20.02,28.07 7.98,17.42 20.3,41.68 21.34,51.05 0.78,6.98 4.82,41.21 4.82,41.21 0,0 -4.36,-1.83 -9.64,0.92 -5.28,2.75 -5.51,7.8 -5.51,7.8l-3.21 -6.89 -10.79 -38.1 -22.67 -28.02c0,0 -2.97,-59.58 5.63,-56.05z"/>
     <path class="fil47" d="M679.59 607.83c0.02,-0.18 0.07,-0.41 0.14,-0.69 0.02,-0.09 0.04,-0.17 0.07,-0.27 0.09,-0.33 0.21,-0.68 0.37,-1.08 0.03,-0.08 0.05,-0.14 0.08,-0.21 0.21,-0.48 0.47,-0.99 0.8,-1.52l0.02 -0.04c-2.03,-6.33 -5.9,-46 -5.9,-46l-18.36 -36.95 -13.84 10.34c-0.08,2.42 -0.11,3.87 -0.11,3.87l22.67 28.02 10.79 38.1 3.21 6.88c0,0 0.01,-0.11 0.03,-0.29 0.01,-0.05 0.02,-0.09 0.03,-0.15z"/>
     <g>
      <path class="fil48" d="M690.69 749.94c-2.91,4.15 -12.06,19.05 -2.89,23.84 7.03,3.67 14.97,3.9 21.28,7.01 6.32,3.11 14.53,11.36 21.1,13.02 6.57,1.66 10.24,0.71 13.42,-0.95 5.32,-2.79 4.78,-7.02 3.67,-9.98 -1.11,-2.96 -5.07,-5.58 -11.87,-7.94 -6.8,-2.36 -10.58,-7.17 -12.5,-11.33 -1.92,-4.15 -2.21,-5.66 -2.21,-5.66 0,0 -13.37,1.5 -18.14,-0.11 -4.77,-1.62 -11.86,-7.89 -11.86,-7.89z"/>
      <path class="fil49" d="M743.59 789.03c-3.21,1.68 -6.65,1.71 -13.26,0.03 -6.61,-1.67 -15.15,-9.05 -21.51,-12.19 -6.36,-3.13 -12.05,-5.56 -19.09,-9.31 -2.96,-1.57 -4.33,-5.47 -4.74,-7.57 -3.41,8.47 -1.23,11.98 2.4,13.88 7.07,3.69 15.07,3.93 21.43,7.06 6.36,3.13 14.64,11.44 21.26,13.12 6.61,1.67 10.31,0.72 13.52,-0.96 4.55,-2.38 4.83,-5.8 4.13,-8.6 -0.48,1.64 -1.66,3.25 -4.13,4.54z"/>
      <path class="fil50" d="M626.45 783.84c0,0 -6.15,10.99 -4.53,16.5 1.62,5.52 10.58,10.44 14.52,16.15 3.94,5.72 10.2,13.97 21.2,15.09 11.39,1.16 18.34,-0.4 19.27,-6.04 1.17,-7.04 -7.64,-10.67 -13.11,-17 -5.47,-6.33 -11.73,-17.68 -11.73,-17.68 0,0 -10.33,0.1 -15.7,-1.33 -5.37,-1.43 -9.92,-5.69 -9.92,-5.69z"/>
      <path class="fil51" d="M676.5 821.88c-1.75,4.73 -7.86,6.65 -18.61,5.56 -11.26,-1.15 -17.77,-8.63 -21.8,-14.48 -4.03,-5.85 -11.3,-16.6 -13.37,-20.57l-0.86 3.14c-0.4,1.8 -1.02,3.4 -0.61,4.8 1.66,5.64 10.82,10.67 14.84,16.52 4.03,5.85 10.43,14.28 21.68,15.43 11.64,1.19 18.75,-0.41 19.71,-6.17 0.22,-1.31 -0.62,-3.12 -0.99,-4.23z"/>
      <path class="fil52" d="M579.83 613.26c0,0 -15.18,36.22 7.89,60.6 25.92,27.38 55.25,31.14 55.96,37.57 0.71,6.43 -21.84,76.97 -22.55,80.54 -0.71,3.57 12.64,7.75 21.92,6.32 9.28,-1.43 13.54,-0.85 15.34,-6.48 1.69,-5.28 28.09,-76.05 27.72,-86.73 -0.61,-17.28 -39.88,-51.46 -39.88,-51.46l3.93 -0.36c0,0 8.91,12.71 31.76,20.2 22.85,7.5 21.17,7.8 21.17,7.8 0,0 -12.96,65.27 -14.03,68.13 -1.07,2.86 7.39,7.82 19,11.91 16,5.62 13.98,1.87 15.85,-2.06 3.57,-7.51 11.71,-45.38 15.95,-62.98 3.2,-13.31 7.61,-26.94 2.61,-35.87 -4.74,-8.47 -9.75,-10.18 -34.78,-28.44 -22.97,-16.76 -55.2,-30.21 -55.2,-30.21 0,0 -12.32,6.53 -25.17,9.39 -12.85,2.85 -47.48,2.14 -47.48,2.14z"/>
      <path class="fil53" d="M722.27 682.97c2.29,-16.3 -75.68,-51.86 -75.68,-51.86l0.9 22.38 2.67 -0.25c0,0 8.91,12.71 31.75,20.2 22.85,7.5 21.17,7.8 21.17,7.8 0,0 -12.96,65.27 -14.03,68.13 -0.1,0.27 -0.1,0.55 -0.03,0.86l0 0.03c0.57,2.15 5.38,5.1 12.13,7.79 4.34,-5.3 20,-67.17 21.11,-75.07z"/>
      <path class="fil53" d="M657.1 709.63c-1.43,-9.28 -54.86,-37.13 -60.57,-47.84 -5.71,-10.71 -3.13,-44.25 -3.13,-44.25l-13.91 -3.4 0 0.01c-1.59,4.39 -10.92,28.96 2.4,52.28 15.41,26.97 61.08,38.56 61.79,44.99 0.71,6.43 -21.84,76.97 -22.55,80.54 -0.42,2.07 3.91,4.34 9.42,5.61 1.17,-10.22 27.97,-78.65 26.54,-87.94z"/>
     </g>
     <path class="fil54" d="M636.23 479.45c0,0 -42.6,15.3 -53.16,21.26 -10.56,5.97 -26.62,13.89 -19.74,43.03 6.89,29.15 17.21,39.82 17.9,52.67 0.69,12.85 -2.3,28.69 -2.3,28.69 0,0 30.87,2.64 49.46,-4.25 18.59,-6.89 27.88,-18.59 27.88,-18.59 0,0 -3.64,-14.57 -3.24,-29.96 0.3,-11.74 7,-24.74 6.77,-34.37 -0.23,-9.64 -3.3,-25.05 -3.3,-35.61 0,-10.56 -2.4,-19.06 -5.66,-21.7 -6.13,-4.95 -14.62,-1.18 -14.62,-1.18z"/>
     <path class="fil47" d="M596.39 594.12c-1.15,-6.2 10.6,-15.9 11.51,-18.19 0.92,-2.3 -8.82,-3.86 -16.17,-7.76 -7.34,-3.9 -6.59,-19.49 -6.59,-19.49 -7.48,-2.32 -11.99,8.76 -13.73,20.1 4.94,11.98 9.38,19.36 9.83,27.64 0.69,12.85 -2.3,28.69 -2.3,28.69 0,0 7.88,0.67 18.08,0.45 1.28,-9.25 0.25,-26.65 -0.63,-31.43z"/>
     <g>
      <g>
       <path class="fil0" d="M641.12 684.93c2.63,0 5.02,-0.58 6.91,-1.67l73.19 -42.26c2.52,-1.45 3.97,-3.76 3.97,-6.32 0,-2.81 -1.74,-5.42 -4.78,-7.17l-41.53 -23.98c-2.38,-1.38 -5.37,-2.13 -8.39,-2.13 -2.63,0 -5.02,0.58 -6.91,1.67l-73.19 42.26c-2.52,1.45 -3.97,3.76 -3.97,6.32 0,2.81 1.74,5.42 4.77,7.17l41.54 23.98c2.38,1.38 5.36,2.13 8.39,2.13z"/>
       <path class="fil0" d="M678.69 603.86c-2.38,-1.37 -5.37,-2.11 -8.37,-2.07 -1.26,0.01 -2.46,0.18 -3.57,0.45 -1.1,0.27 -2.37,0.79 -3.26,1.3l-72.93 42.11c-2.51,1.45 -3.82,3.74 -3.67,6.23 0.04,0.66 0.2,1.29 0.41,1.93 0.62,1.82 2.43,3.75 4.52,4.96l40.96 23.65c0.47,0.27 1.11,0.59 1.63,0.81 2.01,0.85 4.32,1.33 6.65,1.34 2.58,0.01 4.94,-0.55 6.79,-1.62l73.19 -42.26c2.51,-1.45 3.82,-3.75 3.65,-6.25 -0.04,-0.56 -0.16,-1.11 -0.33,-1.66 -0.57,-1.92 -2.45,-3.97 -4.63,-5.23l-41.04 -23.7z"/>
       <path class="fil0" d="M678.51 604.17c-2.37,-1.37 -5.38,-2.08 -8.34,-2.01 -1.26,0.03 -2.44,0.23 -3.53,0.51 -0.98,0.25 -2.41,0.88 -3.21,1.34l-72.67 41.96c-2.49,1.44 -3.68,3.72 -3.37,6.15 0.08,0.63 0.29,1.23 0.52,1.84 0.61,1.62 2.69,3.66 4.57,4.75l40.38 23.31c0.43,0.25 1.13,0.61 1.6,0.81 1.98,0.85 4.25,1.35 6.55,1.36 2.53,0.02 4.86,-0.52 6.67,-1.56l73.19 -42.26c2.51,-1.45 3.68,-3.75 3.34,-6.18 -0.08,-0.54 -0.25,-1.06 -0.43,-1.59 -0.58,-1.71 -2.74,-3.89 -4.71,-5.02l-40.55 -23.41z"/>
       <path class="fil0" d="M678.32 604.49c-2.36,-1.37 -5.39,-2.06 -8.32,-1.96 -1.25,0.05 -2.42,0.27 -3.49,0.56 -0.87,0.24 -2.47,0.96 -3.17,1.37l-72.41 41.81c-2.48,1.43 -3.54,3.7 -3.07,6.07 0.12,0.6 0.38,1.17 0.63,1.76 0.6,1.42 2.94,3.58 4.61,4.54l39.8 22.98c0.38,0.22 1.16,0.63 1.58,0.81 1.95,0.85 4.19,1.36 6.46,1.39 2.48,0.03 4.78,-0.49 6.55,-1.51l73.19 -42.26c2.5,-1.44 3.54,-3.74 3.03,-6.11 -0.11,-0.52 -0.33,-1 -0.53,-1.52 -0.57,-1.5 -3.04,-3.8 -4.78,-4.81l-40.06 -23.13z"/>
       <path class="fil0" d="M678.14 604.81c-2.36,-1.36 -5.4,-2.03 -8.3,-1.89 -1.24,0.06 -2.39,0.32 -3.45,0.62 -0.76,0.22 -2.51,1.05 -3.13,1.41l-72.15 41.66c-2.47,1.43 -3.4,3.68 -2.77,5.99 0.16,0.58 0.47,1.1 0.74,1.68 0.56,1.22 3.2,3.49 4.66,4.33l39.22 22.64c0.33,0.19 1.19,0.65 1.56,0.81 1.91,0.85 4.13,1.38 6.36,1.41 2.43,0.04 4.69,-0.46 6.43,-1.46l73.19 -42.25c2.49,-1.44 3.4,-3.72 2.71,-6.04 -0.15,-0.49 -0.42,-0.95 -0.63,-1.45 -0.55,-1.29 -3.33,-3.72 -4.86,-4.6l-39.57 -22.85z"/>
       <path class="fil0" d="M677.96 605.12c-2.35,-1.36 -5.41,-2 -8.27,-1.84 -1.23,0.08 -2.36,0.37 -3.4,0.68 -0.65,0.19 -2.56,1.13 -3.09,1.44l-71.89 41.51c-2.46,1.42 -3.27,3.66 -2.47,5.9 0.19,0.55 0.56,1.03 0.84,1.6 0.52,1.03 3.45,3.4 4.71,4.13l38.64 22.31c0.28,0.17 1.22,0.67 1.53,0.81 1.88,0.85 4.06,1.39 6.26,1.44 2.38,0.05 4.61,-0.43 6.31,-1.41l73.19 -42.26c2.48,-1.44 3.27,-3.71 2.4,-5.97 -0.18,-0.47 -0.41,-0.94 -0.73,-1.38 -0.3,-1.16 -3.63,-3.63 -4.94,-4.38l-39.08 -22.56z"/>
       <path class="fil0" d="M677.77 605.44c-2.35,-1.36 -5.41,-1.98 -8.25,-1.78 -1.22,0.09 -2.34,0.41 -3.36,0.73 -0.54,0.17 -2.61,1.22 -3.05,1.48l-71.63 41.36c-2.44,1.41 -3.15,3.64 -2.17,5.82 0.23,0.52 0.54,1.03 0.95,1.51 0.28,0.92 3.71,3.32 4.75,3.92l38.06 21.97c0.24,0.14 1.25,0.69 1.51,0.81 1.85,0.85 4,1.41 6.17,1.46 2.33,0.06 4.53,-0.4 6.19,-1.36l73.19 -42.26c2.48,-1.43 3.15,-3.7 2.09,-5.9 -0.22,-0.44 -0.48,-0.89 -0.83,-1.31 -0.26,-0.97 -3.92,-3.55 -5.02,-4.17l-38.59 -22.28z"/>
       <path class="fil0" d="M677.59 605.76c-2.34,-1.35 -5.42,-1.95 -8.22,-1.71 -1.21,0.1 -2.31,0.45 -3.32,0.78 -0.43,0.14 -2.66,1.3 -3.01,1.51l-71.37 41.21c-2.43,1.4 -3.02,3.63 -1.87,5.74 0.27,0.49 0.61,0.98 1.06,1.43 0.23,0.74 3.97,3.23 4.8,3.71l37.48 21.64c0.19,0.11 1.28,0.71 1.49,0.81 1.82,0.84 3.94,1.42 6.07,1.48 2.28,0.07 4.45,-0.38 6.07,-1.31l73.19 -42.26c2.47,-1.43 3.02,-3.7 1.78,-5.83 -0.25,-0.42 -0.55,-0.84 -0.93,-1.24 -0.2,-0.78 -4.22,-3.46 -5.09,-3.97l-38.1 -22z"/>
       <path class="fil0" d="M677.41 606.08c-2.33,-1.35 -5.43,-1.93 -8.2,-1.65 -1.2,0.12 -2.28,0.5 -3.28,0.84 -0.32,0.11 -2.71,1.39 -2.97,1.54l-71.12 41.06c-2.42,1.4 -2.9,3.61 -1.58,5.66 0.3,0.46 0.68,0.92 1.17,1.35 0.17,0.55 4.22,3.14 4.85,3.5l36.89 21.3c0.14,0.08 1.31,0.73 1.46,0.81 1.79,0.84 3.87,1.43 5.98,1.5 2.23,0.08 4.36,-0.34 5.95,-1.26l73.19 -42.26c2.46,-1.42 2.9,-3.69 1.46,-5.76 -0.28,-0.4 -0.61,-0.8 -1.03,-1.17 -0.15,-0.58 -4.52,-3.37 -5.17,-3.75l-37.61 -21.71z"/>
       <path class="fil0" d="M677.23 606.39c-2.33,-1.34 -5.44,-1.9 -8.18,-1.6 -1.19,0.13 -2.26,0.54 -3.23,0.9 -0.21,0.08 -2.76,1.48 -2.93,1.58l-70.85 40.91c-2.4,1.39 -2.78,3.6 -1.28,5.57 0.34,0.44 0.76,0.87 1.27,1.27 0.11,0.37 4.48,3.06 4.89,3.3l36.32 20.97c0.1,0.06 1.34,0.76 1.44,0.81 1.75,0.84 3.81,1.45 5.88,1.53 2.18,0.09 4.28,-0.32 5.83,-1.21l73.19 -42.26c2.46,-1.42 2.79,-3.7 1.15,-5.69 -0.31,-0.38 -0.68,-0.75 -1.13,-1.1 -0.1,-0.39 -4.81,-3.29 -5.25,-3.54l-37.12 -21.43z"/>
       <path class="fil0" d="M677.04 606.71c-2.32,-1.34 -5.45,-1.87 -8.15,-1.54 -1.19,0.15 -2.23,0.59 -3.19,0.95 -0.11,0.04 -2.8,1.56 -2.89,1.61l-70.6 40.76c-2.39,1.38 -2.67,3.59 -0.98,5.49 0.37,0.41 0.83,0.82 1.38,1.18 0.06,0.18 4.73,2.97 4.94,3.09l35.74 20.63c0.05,0.03 1.36,0.78 1.42,0.8 1.72,0.84 3.75,1.46 5.78,1.55 2.13,0.1 4.2,-0.29 5.71,-1.16l73.19 -42.26c2.45,-1.41 2.67,-3.7 0.84,-5.62 -0.34,-0.36 -0.75,-0.7 -1.23,-1.03 -0.05,-0.2 -5.11,-3.2 -5.33,-3.33l-36.62 -21.15z"/>
       <path class="fil0" d="M646.02 679.77l73.19 -42.26c2.89,-1.67 2.53,-4.58 -0.81,-6.51l-41.54 -23.98c-3.34,-1.93 -8.39,-2.14 -11.28,-0.47l-73.19 42.26c-2.89,1.67 -2.53,4.58 0.81,6.51l41.54 23.98c3.34,1.93 8.39,2.14 11.28,0.47z"/>
      </g>
      <path class="fil55" d="M646.02 679.71l73.19 -42.26c1.29,-0.74 1.93,-1.73 1.95,-2.78 0,0 0,-3.59 0,-3.63 -0.02,-1.27 -0.96,0.93 -2.76,-0.11l-41.54 -23.98c-3.34,-1.93 -8.39,-2.14 -11.28,-0.47l-73.19 42.26c-0.96,0.56 -1.66,-1.81 -1.92,-1.06 -0.08,0.25 -0.03,3.57 -0.04,3.83 -0.03,1.3 0.91,2.67 2.76,3.74l41.54 23.98c3.34,1.93 8.39,2.14 11.28,0.47z"/>
      <path class="fil56" d="M646.02 676.15l73.19 -42.26c2.89,-1.67 2.53,-4.58 -0.81,-6.51l-41.54 -23.98c-3.34,-1.93 -8.39,-2.13 -11.28,-0.47l-73.19 42.25c-2.89,1.67 -2.53,4.58 0.81,6.51l41.54 23.98c3.34,1.93 8.39,2.14 11.28,0.47z"/>
      <path class="fil57" d="M641.12 675.81c1.65,0 3.13,-0.33 4.17,-0.93l73.19 -42.26c0.45,-0.26 1.22,-0.82 1.22,-1.56 0,-0.78 -0.76,-1.68 -2.03,-2.42l-41.54 -23.98c-1.54,-0.89 -3.6,-1.4 -5.65,-1.4 -1.65,0 -3.13,0.33 -4.17,0.93l-73.19 42.26c-0.46,0.26 -1.22,0.82 -1.22,1.56 0,0.78 0.76,1.68 2.03,2.42l41.54 23.98c1.54,0.89 3.6,1.4 5.65,1.4z"/>
      <path class="fil58" d="M642.38 666.12l59.43 -34.31c1.19,-0.69 1.04,-1.89 -0.33,-2.68l-22.31 -12.88c-1.38,-0.79 -3.45,-0.88 -4.64,-0.19l-59.43 34.31c-1.19,0.69 -1.04,1.89 0.33,2.68l22.31 12.88c1.38,0.79 3.45,0.88 4.64,0.19z"/>
      <path class="fil59" d="M677.87 618.75l-3.81 2.2c-0.48,0.28 -1.27,0.28 -1.75,0 -0.48,-0.28 -0.48,-0.73 0.01,-1.01l3.81 -2.2c0.48,-0.28 1.27,-0.28 1.75,-0 0.48,0.28 0.48,0.73 -0,1.01zm-6.52 3.76l0 0 -1.8 1.04c-0.49,0.28 -1.27,0.28 -1.75,0 -0.48,-0.28 -0.48,-0.73 0.01,-1.01l1.8 -1.04c0.48,-0.28 1.27,-0.28 1.75,-0 0.48,0.28 0.48,0.73 -0.01,1.01zm-4.52 2.61l0 0 -1.8 1.04c-0.48,0.28 -1.27,0.28 -1.75,0 -0.48,-0.28 -0.48,-0.73 0.01,-1.01l1.8 -1.04c0.48,-0.28 1.27,-0.28 1.75,-0 0.48,0.28 0.48,0.73 -0.01,1.01zm-4.52 2.61l0 0 -1.8 1.04c-0.48,0.28 -1.27,0.28 -1.75,0 -0.48,-0.28 -0.48,-0.73 0.01,-1.01l1.8 -1.04c0.48,-0.28 1.27,-0.28 1.75,-0 0.48,0.28 0.48,0.73 -0.01,1.01zm-4.52 2.61l0 0 -1.8 1.04c-0.48,0.28 -1.27,0.28 -1.75,0 -0.48,-0.28 -0.48,-0.73 0.01,-1.01l1.8 -1.04c0.49,-0.28 1.27,-0.28 1.75,-0 0.48,0.28 0.48,0.73 -0.01,1.01zm-4.52 2.61l0 0 -1.8 1.04c-0.48,0.28 -1.27,0.28 -1.75,0 -0.48,-0.28 -0.48,-0.73 0.01,-1.01l1.8 -1.04c0.48,-0.28 1.27,-0.28 1.75,-0 0.48,0.28 0.48,0.73 -0.01,1.01zm-4.52 2.61l0 0 -1.8 1.04c-0.48,0.28 -1.27,0.28 -1.75,0 -0.48,-0.28 -0.48,-0.73 0.01,-1.01l1.8 -1.04c0.48,-0.28 1.27,-0.28 1.75,-0 0.48,0.28 0.48,0.73 -0.01,1.01zm-4.52 2.61l0 0 -1.8 1.04c-0.48,0.28 -1.27,0.28 -1.75,0 -0.48,-0.28 -0.48,-0.73 0,-1.01l1.8 -1.04c0.48,-0.28 1.27,-0.28 1.75,-0 0.48,0.28 0.48,0.73 -0.01,1.01zm-4.51 2.61l0 0 -1.8 1.04c-0.48,0.28 -1.27,0.28 -1.75,0 -0.48,-0.28 -0.48,-0.73 0,-1.01l1.8 -1.04c0.48,-0.28 1.27,-0.28 1.75,-0 0.48,0.28 0.48,0.73 -0,1.01zm-4.52 2.61l0 0 -1.8 1.04c-0.48,0.28 -1.27,0.28 -1.75,0 -0.48,-0.28 -0.48,-0.73 0.01,-1.01l1.8 -1.04c0.48,-0.28 1.27,-0.28 1.75,-0 0.48,0.28 0.48,0.73 -0.01,1.01zm-4.52 2.61l0 0 -1.8 1.04c-0.48,0.28 -1.27,0.28 -1.75,0 -0.48,-0.28 -0.48,-0.73 0.01,-1.01l1.8 -1.04c0.48,-0.28 1.27,-0.28 1.75,-0 0.48,0.28 0.48,0.73 -0.01,1.01zm-4.52 2.61l0 0 -1.8 1.04c-0.48,0.28 -1.27,0.28 -1.75,0 -0.48,-0.28 -0.48,-0.73 0,-1.01l1.8 -1.04c0.48,-0.28 1.27,-0.28 1.75,-0 0.48,0.28 0.48,0.73 -0.01,1.01zm-4.61 2.66l0 0 -1.8 1.04c-0.49,0.28 -1.27,0.28 -1.75,0 -0.48,-0.28 -0.48,-0.73 0.01,-1.01l1.8 -1.04c0.48,-0.28 1.27,-0.28 1.75,-0 0.48,0.28 0.48,0.73 -0.01,1.01zm60.36 -30.02l0 0 -1.56 0.9c-0.55,0.32 -1.44,0.32 -1.99,0l-1.55 -0.9c-0.55,-0.32 -0.55,-0.83 0.01,-1.15l1.56 -0.9c0.55,-0.32 1.44,-0.32 1.99,-0l1.55 0.9c0.55,0.32 0.55,0.83 -0.01,1.15zm-8.07 3.51l0 0 -1.55 -0.9c-0.55,-0.32 -0.54,-0.83 0.01,-1.15l1.56 -0.9c0.55,-0.32 1.44,-0.32 1.99,-0l1.55 0.9c0.55,0.32 0.55,0.83 -0.01,1.15l-1.56 0.9c-0.55,0.32 -1.44,0.32 -1.99,0.01zm-0.96 1.7l0 0 -1.56 0.9c-0.55,0.32 -1.44,0.32 -1.99,0l-1.55 -0.9c-0.55,-0.32 -0.54,-0.83 0.01,-1.15l1.56 -0.9c0.55,-0.32 1.44,-0.32 1.99,-0l1.55 0.9c0.55,0.32 0.55,0.83 -0.01,1.15zm-4.52 2.61l0 0 -1.56 0.9c-0.55,0.32 -1.44,0.32 -1.99,0l-1.55 -0.9c-0.55,-0.31 -0.55,-0.83 0.01,-1.15l1.56 -0.9c0.55,-0.32 1.44,-0.32 1.99,-0l1.55 0.9c0.55,0.32 0.54,0.83 -0.01,1.15zm-9.61 1.47l0 0 1.56 -0.9c0.55,-0.32 1.44,-0.32 1.99,-0l1.55 0.9c0.55,0.32 0.54,0.83 -0.01,1.15l-1.56 0.9c-0.55,0.32 -1.44,0.32 -1.99,0l-1.55 -0.9c-0.55,-0.32 -0.55,-0.83 0.01,-1.15zm-4.52 2.61l0 0 1.56 -0.9c0.55,-0.32 1.44,-0.32 1.99,-0l1.55 0.9c0.55,0.32 0.55,0.83 -0.01,1.15l-1.56 0.9c-0.55,0.32 -1.44,0.32 -1.99,0l-1.55 -0.9c-0.55,-0.32 -0.54,-0.83 0.01,-1.15zm-4.52 2.61l0 0 1.56 -0.9c0.55,-0.32 1.44,-0.32 1.99,-0l1.55 0.89c0.55,0.32 0.54,0.83 -0.01,1.15l-1.56 0.9c-0.55,0.32 -1.44,0.32 -1.99,0l-1.55 -0.9c-0.55,-0.32 -0.54,-0.83 0.01,-1.15zm-4.52 2.61l0 0 1.56 -0.9c0.55,-0.32 1.44,-0.32 1.99,-0l1.55 0.9c0.55,0.32 0.54,0.83 -0.01,1.15l-1.56 0.9c-0.55,0.32 -1.44,0.32 -1.99,0l-1.55 -0.9c-0.55,-0.32 -0.55,-0.83 0.01,-1.15zm-4.52 2.61l0 0 1.56 -0.9c0.55,-0.32 1.44,-0.32 1.99,-0l1.55 0.9c0.55,0.31 0.54,0.83 -0.01,1.15l-1.56 0.9c-0.55,0.32 -1.44,0.32 -1.99,0l-1.55 -0.9c-0.55,-0.32 -0.55,-0.83 0.01,-1.15zm-4.52 2.61l0 0 1.56 -0.9c0.55,-0.32 1.44,-0.32 1.99,-0l1.55 0.9c0.55,0.32 0.55,0.83 -0.01,1.15l-1.56 0.9c-0.55,0.32 -1.44,0.32 -1.99,0l-1.55 -0.9c-0.55,-0.32 -0.55,-0.83 0.01,-1.15zm0.58 3.75l0 0 -1.56 0.9c-0.55,0.32 -1.44,0.32 -1.99,0l-1.55 -0.9c-0.55,-0.32 -0.55,-0.83 0.01,-1.15l1.56 -0.9c0.55,-0.32 1.44,-0.32 1.99,-0.01l1.55 0.9c0.55,0.32 0.55,0.83 -0.01,1.15zm-9.61 1.47l0 0 1.56 -0.9c0.55,-0.32 1.44,-0.32 1.99,-0l1.55 0.9c0.55,0.32 0.55,0.83 -0.01,1.15l-1.56 0.9c-0.55,0.32 -1.44,0.32 -1.99,0l-1.55 -0.9c-0.55,-0.32 -0.55,-0.83 0.01,-1.15zm-6.61 3.82l0 0 3.57 -2.06c0.55,-0.32 1.44,-0.32 1.99,-0l1.55 0.9c0.55,0.32 0.55,0.83 -0.01,1.15l-3.57 2.06c-0.55,0.32 -1.44,0.32 -1.99,0l-1.55 -0.9c-0.55,-0.32 -0.55,-0.83 0.01,-1.15zm65.58 -28.95l0 0 -3.57 2.06c-0.55,0.32 -1.44,0.32 -1.99,0.01l-1.55 -0.9c-0.55,-0.32 -0.54,-0.83 0.01,-1.15l3.57 -2.06c0.55,-0.32 1.44,-0.32 1.99,-0l1.55 0.9c0.55,0.32 0.54,0.83 -0.01,1.15zm-6.52 3.77l0 0 -1.56 0.9c-0.55,0.32 -1.44,0.32 -1.99,0l-1.55 -0.9c-0.55,-0.32 -0.54,-0.83 0.01,-1.15l1.56 -0.9c0.55,-0.32 1.44,-0.32 1.99,-0l1.55 0.9c0.55,0.32 0.55,0.83 -0.01,1.15zm-6.08 3.51l0 0c-0.55,0.32 -1.44,0.32 -1.99,0l-1.55 -0.9c-0.55,-0.31 -0.55,-0.83 0.01,-1.15l1.56 -0.9c0.55,-0.32 1.44,-0.32 1.99,-0l1.55 0.9c0.55,0.32 0.54,0.83 -0.01,1.15l-1.56 0.9zm-4.52 2.61l0 0c-0.55,0.32 -1.44,0.32 -1.99,0l-1.55 -0.9c-0.55,-0.32 -0.55,-0.83 0.01,-1.15l1.56 -0.9c0.55,-0.32 1.44,-0.32 1.99,-0l1.55 0.9c0.55,0.32 0.54,0.83 -0.01,1.15l-1.56 0.9zm-4.5 -0.34l0 0 1.55 0.9c0.55,0.32 0.55,0.83 -0.01,1.15l-1.56 0.9c-0.55,0.32 -1.44,0.32 -1.99,0l-1.55 -0.9c-0.55,-0.32 -0.54,-0.83 0.01,-1.15l1.56 -0.9c0.55,-0.32 1.44,-0.32 1.99,-0zm-4.61 2.55l0 0 1.74 1.01c0.49,0.28 0.49,0.75 -0.01,1.04l-1.75 1.01c-0.5,0.29 -1.3,0.29 -1.8,0l-1.74 -1.01c-0.49,-0.29 -0.49,-0.75 0.01,-1.04l1.75 -1.01c0.5,-0.29 1.3,-0.29 1.8,-0zm-4.52 2.61l0 0 1.74 1.01c0.49,0.29 0.49,0.75 -0.01,1.04l-1.75 1.01c-0.5,0.29 -1.3,0.29 -1.8,0l-1.74 -1.01c-0.49,-0.29 -0.49,-0.75 0.01,-1.04l1.75 -1.01c0.5,-0.29 1.3,-0.29 1.8,-0zm-4.52 2.61l0 0 1.74 1.01c0.5,0.29 0.49,0.75 -0.01,1.04l-1.75 1.01c-0.5,0.29 -1.3,0.29 -1.8,0l-1.74 -1.01c-0.49,-0.28 -0.49,-0.75 0.01,-1.04l1.75 -1.01c0.5,-0.29 1.3,-0.29 1.8,-0zm-4.52 2.61l0 0 1.74 1.01c0.49,0.28 0.49,0.75 -0.01,1.04l-1.75 1.01c-0.5,0.29 -1.3,0.29 -1.8,0l-1.74 -1.01c-0.5,-0.29 -0.49,-0.75 0.01,-1.04l1.76 -1.01c0.5,-0.29 1.3,-0.29 1.8,-0zm-4.51 2.61l0 0 1.74 1.01c0.49,0.29 0.49,0.75 -0.01,1.04l-1.75 1.01c-0.5,0.29 -1.3,0.29 -1.8,0l-1.74 -1.01c-0.49,-0.29 -0.49,-0.75 0.01,-1.04l1.75 -1.01c0.5,-0.29 1.3,-0.29 1.8,-0zm-6.33 5.67l0 0 -1.74 -1.01c-0.49,-0.28 -0.49,-0.75 0.01,-1.04l1.75 -1.01c0.5,-0.29 1.3,-0.29 1.8,-0l1.74 1.01c0.49,0.29 0.49,0.75 -0.01,1.04l-1.75 1.01c-0.5,0.29 -1.3,0.29 -1.8,0zm-4.51 2.61l0 0 -1.74 -1.01c-0.49,-0.29 -0.49,-0.75 0.01,-1.04l1.75 -1.01c0.5,-0.29 1.3,-0.29 1.8,-0l1.74 1.01c0.5,0.28 0.49,0.75 -0.01,1.04l-1.75 1.01c-0.5,0.29 -1.3,0.29 -1.8,0zm-6.35 0.62l0 0 1.75 -1.01c0.5,-0.29 1.3,-0.29 1.8,-0l1.74 1.01c0.49,0.28 0.49,0.75 -0.01,1.04l-1.75 1.01c-0.5,0.29 -1.3,0.29 -1.8,0l-1.74 -1.01c-0.5,-0.29 -0.49,-0.75 0.01,-1.04zm65.77 -29.06l0 0 -5.66 3.27c-0.5,0.29 -1.3,0.29 -1.8,0l-1.74 -1.01c-0.49,-0.29 -0.49,-0.75 0.01,-1.04l5.66 -3.27c0.5,-0.29 1.3,-0.29 1.8,-0l1.74 1.01c0.5,0.29 0.49,0.75 -0,1.04zm-8.43 4.86l0 0 -1.75 1.01c-0.5,0.29 -1.3,0.29 -1.8,0l-1.74 -1.01c-0.5,-0.28 -0.49,-0.75 0.01,-1.04l1.75 -1.01c0.5,-0.29 1.3,-0.29 1.8,-0l1.74 1.01c0.5,0.29 0.49,0.75 -0,1.04zm-4.52 2.61l0 0 -1.75 1.01c-0.5,0.29 -1.3,0.29 -1.8,0l-1.74 -1.01c-0.5,-0.29 -0.49,-0.75 0.01,-1.04l1.75 -1.01c0.5,-0.29 1.3,-0.29 1.8,-0l1.74 1.01c0.49,0.28 0.49,0.75 -0.01,1.04zm-4.52 2.61l0 0 -1.75 1.01c-0.5,0.29 -1.3,0.29 -1.8,0l-1.74 -1.01c-0.49,-0.29 -0.49,-0.75 0.01,-1.04l1.75 -1.01c0.5,-0.29 1.3,-0.29 1.8,-0l1.74 1.01c0.5,0.29 0.49,0.75 -0.01,1.04zm-8.07 3.62l0 0 -1.74 -1.01c-0.49,-0.29 -0.49,-0.75 0.01,-1.04l1.75 -1.01c0.5,-0.29 1.3,-0.29 1.8,-0l1.74 1.01c0.49,0.29 0.49,0.75 -0.01,1.04l-1.75 1.01c-0.5,0.29 -1.3,0.29 -1.8,0zm-4.52 2.61l0 0 -1.74 -1.01c-0.5,-0.29 -0.49,-0.75 0.01,-1.04l1.75 -1.01c0.5,-0.29 1.3,-0.29 1.8,-0l1.74 1.01c0.49,0.28 0.49,0.75 -0.01,1.04l-1.75 1.01c-0.5,0.29 -1.3,0.29 -1.8,0zm-4.52 2.61l0 0 -1.74 -1.01c-0.49,-0.29 -0.49,-0.75 0.01,-1.04l1.75 -1.01c0.5,-0.29 1.3,-0.29 1.8,-0l1.74 1.01c0.49,0.29 0.49,0.75 -0.01,1.04l-1.76 1.01c-0.5,0.29 -1.3,0.29 -1.8,0zm-4.52 2.61l0 0 -1.74 -1.01c-0.5,-0.28 -0.49,-0.75 0,-1.04l1.75 -1.01c0.5,-0.29 1.3,-0.29 1.8,-0l1.74 1.01c0.5,0.29 0.49,0.75 -0.01,1.04l-1.75 1.01c-0.5,0.29 -1.3,0.29 -1.8,0zm-4.52 2.61l0 0 -1.74 -1.01c-0.5,-0.29 -0.49,-0.75 0.01,-1.04l1.75 -1.01c0.5,-0.29 1.3,-0.29 1.8,-0l1.74 1.01c0.49,0.28 0.49,0.75 -0.01,1.04l-1.75 1.01c-0.5,0.29 -1.3,0.29 -1.8,0zm-4.52 2.61l0 0 -1.74 -1.01c-0.5,-0.29 -0.49,-0.75 0.01,-1.04l1.75 -1.01c0.5,-0.29 1.3,-0.29 1.8,-0l1.74 1.01c0.49,0.29 0.49,0.75 -0.01,1.04l-1.75 1.01c-0.5,0.29 -1.3,0.29 -1.8,0zm-0.96 1.59l0 0 -1.75 1.01c-0.5,0.29 -1.3,0.29 -1.8,0l-1.74 -1.01c-0.49,-0.28 -0.49,-0.75 0.01,-1.04l1.75 -1.01c0.5,-0.29 1.3,-0.29 1.8,-0l1.74 1.01c0.5,0.29 0.49,0.75 -0,1.04zm-12.51 3.14l0 0 4.46 -2.58c0.5,-0.29 1.3,-0.29 1.8,-0l1.74 1.01c0.5,0.29 0.49,0.75 -0.01,1.04l-4.46 2.58c-0.5,0.29 -1.3,0.29 -1.8,0l-1.74 -1.01c-0.49,-0.29 -0.49,-0.75 0.01,-1.04zm65.75 -28.93l0 0 -8.03 4.64c-0.56,0.32 -1.47,0.33 -2.03,0l-1.51 -0.87c-0.56,-0.32 -0.56,-0.85 0.01,-1.17l8.03 -4.64c0.56,-0.33 1.47,-0.33 2.03,-0l1.51 0.87c0.56,0.32 0.56,0.85 -0.01,1.17zm-11.03 6.37l0 0 -1.52 0.88c-0.56,0.33 -1.47,0.33 -2.03,0.01l-1.51 -0.87c-0.56,-0.32 -0.56,-0.85 0.01,-1.17l1.52 -0.88c0.56,-0.32 1.47,-0.33 2.03,-0l1.51 0.87c0.56,0.32 0.56,0.85 -0.01,1.17zm-4.52 2.61l0 0 -1.52 0.88c-0.56,0.32 -1.47,0.33 -2.03,0l-1.51 -0.87c-0.56,-0.32 -0.56,-0.85 0.01,-1.17l1.52 -0.88c0.56,-0.32 1.47,-0.33 2.03,-0l1.51 0.87c0.56,0.32 0.56,0.85 -0.01,1.17zm-4.52 2.61l0 0 -1.52 0.88c-0.56,0.33 -1.47,0.33 -2.03,0l-1.51 -0.87c-0.56,-0.32 -0.56,-0.85 0.01,-1.17l1.52 -0.88c0.56,-0.33 1.47,-0.33 2.03,-0l1.51 0.87c0.56,0.32 0.56,0.85 -0.01,1.17zm-4.51 2.61l0 0 -1.52 0.88c-0.56,0.32 -1.47,0.33 -2.03,0l-1.51 -0.87c-0.56,-0.32 -0.56,-0.85 0.01,-1.17l1.52 -0.88c0.56,-0.32 1.47,-0.33 2.03,-0l1.51 0.87c0.56,0.32 0.56,0.85 -0.01,1.17zm-4.52 2.61l0 0 -1.52 0.88c-0.56,0.32 -1.47,0.33 -2.03,0l-1.51 -0.87c-0.56,-0.32 -0.56,-0.85 0.01,-1.17l1.52 -0.88c0.56,-0.32 1.47,-0.33 2.03,-0l1.51 0.87c0.56,0.32 0.56,0.85 -0.01,1.17zm-4.52 2.61l0 0 -1.52 0.88c-0.56,0.32 -1.47,0.33 -2.03,0l-1.51 -0.87c-0.56,-0.32 -0.56,-0.85 0.01,-1.17l1.52 -0.88c0.56,-0.33 1.47,-0.33 2.03,-0l1.51 0.87c0.56,0.32 0.56,0.85 -0.01,1.17zm-4.52 2.61l0 0 -1.52 0.88c-0.56,0.32 -1.47,0.33 -2.03,0l-1.51 -0.87c-0.56,-0.32 -0.56,-0.85 0.01,-1.17l1.52 -0.88c0.56,-0.32 1.47,-0.33 2.03,-0l1.51 0.87c0.56,0.32 0.56,0.85 -0.01,1.17zm-4.51 2.61l0 0 -1.52 0.88c-0.56,0.32 -1.47,0.33 -2.03,0l-1.51 -0.87c-0.56,-0.32 -0.56,-0.85 0.01,-1.17l1.52 -0.88c0.56,-0.32 1.47,-0.33 2.03,-0l1.51 0.87c0.56,0.32 0.56,0.85 -0.01,1.17zm-4.52 2.61l0 0 -1.52 0.88c-0.56,0.33 -1.47,0.33 -2.03,0l-1.51 -0.87c-0.56,-0.32 -0.56,-0.85 0.01,-1.17l1.52 -0.88c0.56,-0.33 1.47,-0.33 2.03,-0.01l1.51 0.87c0.56,0.32 0.56,0.85 -0.01,1.17zm-4.52 2.61l0 0 -1.52 0.88c-0.56,0.32 -1.47,0.33 -2.03,0l-1.51 -0.87c-0.56,-0.32 -0.56,-0.85 0.01,-1.17l1.52 -0.88c0.56,-0.32 1.47,-0.33 2.03,-0l1.51 0.87c0.56,0.32 0.56,0.85 -0.01,1.17zm-9.67 1.5l0 0 1.52 -0.88c0.56,-0.32 1.47,-0.33 2.03,-0l1.51 0.87c0.56,0.32 0.56,0.85 -0.01,1.17l-1.52 0.88c-0.56,0.32 -1.47,0.33 -2.03,0l-1.51 -0.87c-0.56,-0.32 -0.56,-0.85 0.01,-1.17zm58.47 -28.93l0 0 3.52 -2.04c0.56,-0.32 1.47,-0.33 2.03,-0l1.51 0.87c0.56,0.32 0.56,0.85 -0.01,1.17l-3.52 2.03c-0.56,0.32 -1.47,0.33 -2.03,0l-1.51 -0.87c-0.56,-0.32 -0.56,-0.85 0.01,-1.17zm-4.52 2.61l0 0 1.52 -0.88c0.56,-0.32 1.47,-0.33 2.03,-0l1.51 0.87c0.56,0.32 0.56,0.85 -0.01,1.17l-1.52 0.88c-0.56,0.32 -1.47,0.33 -2.03,0l-1.51 -0.87c-0.56,-0.32 -0.56,-0.85 0.01,-1.17zm-4.52 2.61l0 0 1.52 -0.88c0.56,-0.33 1.47,-0.33 2.03,-0l1.51 0.87c0.56,0.32 0.56,0.85 -0.01,1.17l-1.52 0.88c-0.56,0.33 -1.47,0.33 -2.03,0l-1.51 -0.87c-0.56,-0.32 -0.56,-0.85 0.01,-1.17zm-31.61 18.25l0 0 28.62 -16.52c0.56,-0.32 1.47,-0.33 2.03,-0l1.51 0.87c0.56,0.32 0.56,0.85 -0.01,1.17l-28.62 16.52c-0.56,0.32 -1.47,0.33 -2.03,0l-1.51 -0.87c-0.56,-0.32 -0.56,-0.85 0.01,-1.17zm-4.51 2.61l0 0 1.52 -0.88c0.56,-0.32 1.47,-0.33 2.03,-0l1.51 0.87c0.56,0.32 0.56,0.85 -0.01,1.17l-1.52 0.88c-0.56,0.32 -1.47,0.33 -2.03,0l-1.51 -0.87c-0.56,-0.32 -0.56,-0.85 0.01,-1.17zm-4.52 2.61l0 0 1.52 -0.88c0.56,-0.33 1.47,-0.33 2.03,-0l1.51 0.87c0.56,0.32 0.56,0.85 -0.01,1.17l-1.52 0.88c-0.56,0.33 -1.47,0.33 -2.03,0l-1.51 -0.87c-0.56,-0.32 -0.56,-0.85 0.01,-1.17zm-4.61 2.66l0 0 1.52 -0.88c0.56,-0.33 1.47,-0.33 2.03,-0l1.51 0.87c0.56,0.32 0.56,0.85 -0.01,1.17l-1.52 0.88c-0.56,0.33 -1.47,0.33 -2.03,0l-1.51 -0.87c-0.56,-0.32 -0.56,-0.85 0.01,-1.17z"/>
     </g>
     <path class="fil60" d="M595.73 632.03c0,0 2.98,4.59 8.03,8.03 5.05,3.44 5.97,3.9 11.25,4.82 5.28,0.92 4.36,-1.15 8.49,0.92 4.13,2.07 4.82,2.52 5.97,2.07 1.15,-0.46 -0.46,-3.9 -4.36,-5.51 -3.9,-1.61 -7.57,-2.53 -7.57,-2.53 0,0 5.05,0 8.72,2.07 3.67,2.07 5.19,5.48 7.49,4.56 2.3,-0.92 -2.51,-6.46 -4.35,-7.83 -1.84,-1.38 -6.58,-3.84 -6.58,-3.84 0,0 12,4.89 13.31,7.57 1.79,3.67 4.62,2.44 4.13,0.69 -0.49,-1.75 -1.28,-4.38 -5.87,-7.82 -4.59,-3.44 -6.5,-4.39 -6.5,-4.39 0,0 6.4,2.11 9.38,5.55 2.98,3.44 4.52,8.22 6.2,5.51 0.8,-1.29 -0.37,-5.23 -3.1,-8.86 -1.96,-2.61 -4.85,-5.31 -8.31,-6.84 -8.26,-3.67 -12.69,-1.28 -17.75,-1.74 -5.05,-0.46 -12.16,-5.74 -12.16,-5.74l-6.43 13.31z"/>
     <path class="fil61" d="M572.89 509.01c-8.8,2.98 -12.04,10.63 -15.72,22.97 -3.47,11.65 -13.64,49.93 -14.92,60.8 -0.99,8.44 -1.74,18.01 16.98,26.85 14.34,6.77 34.2,13.08 34.2,13.08l5.02 4.27c0,0 1.21,-3.87 4.62,-7.94 2.93,-3.49 7.11,-5.97 7.11,-5.97l-8.03 -4.36c0,0 -11.7,-12.62 -19.74,-17.67 -8.03,-5.05 -12.39,-9.41 -12.39,-9.41 0,0 22.72,-54.27 22.72,-60.36 0,-10.33 -5.62,-27.08 -19.85,-22.26z"/>
     <path class="fil62" d="M595.52 497.53c4.95,-8.11 2.33,-15.89 0.75,-29.34 -1.58,-13.45 12.89,-25.51 20,-23.69 7.1,1.82 9.06,36.84 14.09,45.56 5.03,8.72 5.66,19.72 -7.65,20.36 -13.31,0.64 -27.18,-12.89 -27.18,-12.89z"/>
     <path class="fil63" d="M597.81 491.67c0,0 2,4.92 12.71,10.13 5.55,2.7 16.9,8.7 16.9,8.7 0,0 -5.98,-2.42 -8.32,3.44 -2.08,5.19 -1.18,5.53 -1.18,5.53 0,0 -7.04,-5.36 -10.88,-9.09 -3.84,-3.73 -15.31,-14.42 -15.31,-14.42l6.07 -4.29z"/>
     <path class="fil63" d="M629.55 510.07c0,0 8.24,-4.29 10.55,-0.63 2.32,3.67 0.77,5.56 0.77,5.56 0,0 2.81,-9.18 2.91,-14.16 0.15,-7.4 0.78,-15.26 0.78,-15.26l-5.22 5.52 -9.8 18.96z"/>
     <path class="fil64" d="M607 476.34c0,0 3.1,32.67 21.92,34.01 18.82,1.34 13.59,-32.99 13.59,-32.99l-35.51 -1.02z"/>
     <path class="fil65" d="M607.71 483.42c0,0 10.53,17.63 19.83,18.31 9.29,0.68 15.19,-2.68 17.14,-15.33 1.96,-12.65 3.8,-35.67 -5.7,-45.33 -9.5,-9.66 -34.37,-13.85 -40.83,4.56 -6.46,18.41 4.42,30.24 9.56,37.79z"/>
     <path class="fil66" d="M596.54 474.39c2.18,1.05 -1.86,-7.96 2.17,-9.44 3.45,-1.27 5.3,0.06 6.22,3.41 1.45,5.28 4.2,7.42 4.2,7.42 0,0 1.14,-10.49 4.17,-15.87 2.71,-4.81 6.68,-12.78 16.86,-5.5 10.19,7.28 20.83,2.98 17.99,-6.88 -1.58,-5.51 -21.91,-27.56 -42.71,-14.17 -20.8,13.39 -11.1,39.98 -8.92,41.03z"/>
     <path class="fil67" d="M648.59 450.19c-2.19,1.98 -6.06,4.04 -12.52,0.86 -8.37,-4.12 -12.96,-2.74 -15.76,0.43 0,0 0.03,0.09 0.1,0.26 2.49,-0.75 5.72,-0.22 9.77,2.68 9.21,6.58 18.75,3.69 18.41,-4.21z"/>
     <g>
      <path class="fil68" d="M645.53 676.3l70.52 -40.74c2.73,-1.58 4.94,-5.81 4.94,-9.45l0 -55.32c0,-3.64 -2.21,-5.31 -4.94,-3.74l-70.52 40.74c-2.73,1.58 -4.94,5.8 -4.94,9.45l0 55.32c0,3.64 2.21,5.31 4.94,3.74z"/>
      <path class="fil69" d="M644.13 607.06l70.52 -40.74c1.08,-0.62 2.08,-0.74 2.89,-0.42 0.1,0.04 1.48,0.77 1.58,0.83l0 0c-0.84,-0.41 -1.91,-0.33 -3.08,0.34l-70.52 40.74c-2.73,1.58 -4.94,5.8 -4.94,9.45l0 55.32c0,2.27 0.86,3.78 2.17,4.2 -0.11,0.01 -0.24,-0.04 -0.43,-0.15 -0.06,-0.04 -1.56,-0.88 -1.62,-0.92 -0.94,-0.66 -1.52,-2.01 -1.52,-3.88l0 -55.32c0,-3.64 2.21,-7.87 4.94,-9.45z"/>
      <path class="fil70" d="M645.3 607.68l70.52 -40.74c1.12,-0.65 2.15,-0.74 2.98,-0.38 -0.71,-0.11 -1.52,0.06 -2.38,0.56l-70.52 40.74c-2.73,1.58 -4.94,5.8 -4.94,9.45l0 55.32c0,2.15 0.77,3.6 1.96,4.12 -1.52,-0.24 -2.56,-1.81 -2.56,-4.3l0 -55.32c0,-3.64 2.21,-7.87 4.94,-9.45z"/>
     </g>
    </g>
    <g>
     <path class="fil71" d="M625.61 195.07c0,16.01 -5.53,27.35 -14.51,32.84 -0.27,0.17 -15.34,9.49 -15.61,9.64 -9.34,5.23 -3.37,-6.63 -17.56,-14.83 -28.56,-16.49 -51.72,-56.43 -51.72,-89.21 0,-16.21 -14.98,-16.34 -5.81,-21.75 0.26,-0.15 17.12,-9.75 17.39,-9.9 9.32,-5.05 22.06,-4.12 36.1,3.99 28.56,16.49 51.72,56.43 51.72,89.21z"/>
     <path class="fil72" d="M608.7 205.12c0,18.38 -7.28,30.61 -18.72,34.89l-66.66 -39.12c-11.05,-17.27 -18.06,-37.46 -18.06,-55.49 0,-32.78 23.16,-45.98 51.72,-29.49 28.56,16.49 51.72,56.43 51.72,89.21z"/>
     <path class="fil73" d="M595.22 197.34c0,24.23 -17.12,33.99 -38.24,21.8 -21.12,-12.19 -38.24,-41.72 -38.24,-65.96 0,-24.23 17.12,-34 38.24,-21.8 21.12,12.19 38.24,41.72 38.24,65.96z"/>
     <path class="fil74" d="M560.51 215.79c-21.12,-12.19 -38.24,-41.72 -38.24,-65.96 0,-8.67 2.22,-15.45 6.01,-20.08 -5.92,4.31 -9.54,12.32 -9.54,23.43 0,24.24 17.12,53.76 38.24,65.96 13.56,7.83 25.44,6.57 32.23,-1.73 -7.01,5.1 -17.25,4.99 -28.7,-1.62z"/>
     <g>
      <path class="fil75" d="M575.02 106.58c-0.38,-0.23 -0.75,-0.5 -1.13,-0.72 -0.35,-0.2 -0.68,-0.34 -1.03,-0.53l-17.19 9.92c0.43,0.24 0.86,0.41 1.3,0.67 0.3,0.17 0.59,0.39 0.89,0.57l17.15 -9.9z"/>
      <path class="fil75" d="M556.28 99.3l-17.32 10c1.05,0.16 2.13,0.38 3.22,0.64l17.34 -10.01c-1.1,-0.27 -2.17,-0.45 -3.24,-0.63z"/>
      <path class="fil75" d="M585.17 113.83l-17.12 9.88c0.58,0.48 1.15,1 1.72,1.5l17.12 -9.88c-0.57,-0.5 -1.14,-1.02 -1.72,-1.5z"/>
      <path class="fil75" d="M603.88 134.23l-17.06 9.85c0.42,0.59 0.83,1.19 1.24,1.78l17.06 -9.85c-0.41,-0.6 -0.82,-1.19 -1.24,-1.78z"/>
      <path class="fil75" d="M595.3 123.59l-17.09 9.86c0.5,0.54 0.98,1.1 1.46,1.65l17.08 -9.87c-0.48,-0.56 -0.97,-1.11 -1.46,-1.65z"/>
      <path class="fil75" d="M611.16 145.64l-17.04 9.83c0.36,0.63 0.69,1.27 1.03,1.9l17.04 -9.84c-0.34,-0.63 -0.68,-1.27 -1.03,-1.9z"/>
      <path class="fil75" d="M622.65 213.01l-16.78 9.68c-0.41,1.12 -0.84,2.23 -1.32,3.26l16.71 -9.65c0.51,-1.04 0.96,-2.15 1.39,-3.29z"/>
      <path class="fil75" d="M608.64 206.39c-0.02,0.88 -0.07,1.72 -0.12,2.57l16.91 -9.76c0.06,-0.84 0.09,-1.69 0.11,-2.56l-16.91 9.76z"/>
      <path class="fil75" d="M624.85 184.83c-0.1,-0.78 -0.16,-1.55 -0.29,-2.33l-16.97 9.8c0.13,0.78 0.2,1.55 0.31,2.32l16.95 -9.79z"/>
      <path class="fil75" d="M604.53 179.36c0.22,0.72 0.4,1.43 0.6,2.15l16.98 -9.8c-0.2,-0.72 -0.37,-1.44 -0.59,-2.16l-17 9.81z"/>
      <path class="fil75" d="M617.86 159.46c-0.28,-0.67 -0.53,-1.35 -0.82,-2.02l-17.01 9.82c0.29,0.67 0.54,1.35 0.82,2.02l17.01 -9.82z"/>
     </g>
     <path class="fil76" d="M573.89 105.86c-14.05,-8.11 -26.78,-9.04 -36.1,-3.99 -0.05,0.03 -0.95,0.53 -2.33,1.29 9.09,-3.86 20.95,-2.58 33.97,4.93 28.56,16.49 51.72,56.43 51.72,89.21 0,16.01 -5.53,27.35 -14.51,32.84 -0.22,0.14 4.2,-2.07 4.47,-2.23 8.98,-5.49 14.51,-16.83 14.51,-32.84 0,-32.78 -23.15,-72.71 -51.72,-89.21z"/>
     <path class="fil77" d="M559.24 114.45c-13.69,-7.91 -25.91,-8.75 -35.17,-4.12 8.62,-2.41 19.33,-0.61 30.92,6.08 28.56,16.49 51.72,56.43 51.72,89.21 0,17.06 -6.29,28.81 -16.33,33.83 12.63,-3.53 20.58,-16.32 20.58,-35.79 0,-32.78 -23.16,-72.72 -51.72,-89.21z"/>
     <path class="fil78" d="M564.73 145.28l4.63 17.96c0.38,1.49 1.42,2.95 2.59,3.65l14.1 8.47c2.65,1.59 3.75,6.09 1.63,6.71l-11.24 3.29c-0.93,0.27 -1.33,1.44 -0.99,2.92l4.08 17.85c0.77,3.36 -2.1,4.09 -4.28,1.1l-11.58 -15.93c-0.96,-1.32 -2.24,-2.06 -3.2,-1.85l-11.58 2.56c-2.18,0.48 -5.04,-3.56 -4.28,-6.03l4.08 -13.13c0.34,-1.09 -0.05,-2.71 -0.99,-4.06l-11.24 -16.27c-2.11,-3.06 -1.02,-6.29 1.63,-4.83l14.1 7.81c1.17,0.65 2.2,0.38 2.59,-0.66l4.63 -12.61c0.87,-2.37 4.41,-0.33 5.29,3.05z"/>
     <path class="fil79" d="M561.61 146.84l4.63 17.96c0.38,1.49 1.42,2.95 2.59,3.65l14.1 8.47c2.65,1.59 3.75,6.09 1.63,6.71l-11.24 3.29c-0.93,0.27 -1.33,1.44 -0.99,2.92l4.09 17.85c0.77,3.36 -2.1,4.09 -4.28,1.1l-11.58 -15.93c-0.96,-1.32 -2.24,-2.06 -3.2,-1.85l-11.58 2.56c-2.18,0.48 -5.04,-3.56 -4.28,-6.04l4.08 -13.13c0.34,-1.09 -0.06,-2.71 -0.99,-4.06l-11.24 -16.27c-2.11,-3.06 -1.02,-6.29 1.63,-4.83l14.1 7.81c1.17,0.65 2.2,0.38 2.59,-0.66l4.63 -12.61c0.87,-2.37 4.41,-0.33 5.28,3.05z"/>
     <path class="fil80" d="M561.61 146.84l4.63 17.96c0.38,1.49 1.42,2.95 2.59,3.65l14.1 8.47c2.65,1.59 3.75,6.09 1.63,6.71l-11.24 3.29c-0.93,0.27 -1.33,1.44 -0.99,2.92l4.09 17.85c0.77,3.36 -2.1,4.09 -4.28,1.1l-11.58 -15.93c-0.96,-1.32 -2.24,-2.06 -3.2,-1.85l-11.58 2.56c-2.18,0.48 -5.04,-3.56 -4.28,-6.04l4.08 -13.13c0.34,-1.09 -0.06,-2.71 -0.99,-4.06l-11.24 -16.27c-2.11,-3.06 -1.02,-6.29 1.63,-4.83l14.1 7.81c1.17,0.65 2.2,0.38 2.59,-0.66l4.63 -12.61c0.87,-2.37 4.41,-0.33 5.28,3.05z"/>
    </g>
   </g>
   <g>
    <path class="fil81" d="M584.3 829.4c0,0 -1.28,20.5 6.76,30.05 8.05,9.55 24.16,22.84 20.6,27 -3.55,4.17 -48.22,-14.12 -47.64,-19.02 0.58,-4.9 5.76,-25.22 3.39,-36.69l16.89 -1.35z"/>
    <path class="fil82" d="M565.84 857.42c-0.82,4.56 -1.62,8.27 -1.82,10.01 -0.58,4.9 44.09,23.19 47.64,19.02 2.64,-3.09 -5.54,-11.19 -13.23,-19.07 -3.75,2.8 -13.54,6.23 -32.59,-9.96z"/>
    <path class="fil81" d="M542.17 836.06c0,0 -1.28,20.49 6.76,30.05 8.05,9.56 24.16,22.84 20.6,27.01 -3.55,4.17 -48.22,-14.12 -47.64,-19.02 0.58,-4.9 5.76,-25.22 3.39,-36.69l16.89 -1.35z"/>
    <path class="fil82" d="M508.13 483.56c10.29,7.09 16.16,20.1 14.68,32.51 -1.21,10.11 -6.86,20.03 -4.46,29.92 0.9,3.71 2.88,7.05 4.26,10.61 2.37,6.12 2.93,12.92 1.59,19.34 -0.92,4.42 -2.86,8.82 -6.38,11.64 -2.41,1.93 -5.38,2.99 -8.32,3.93 -6.36,2.05 -12.95,3.73 -19.63,3.55 -6.68,-0.18 -13.53,-2.41 -18.16,-7.22 -3.12,-3.24 -5.47,-7.73 -9.79,-8.98 -1.48,-0.43 -3.04,-0.41 -4.58,-0.39 -5.97,0.08 -12.02,0.17 -17.74,1.89 -6.09,1.83 -11.67,5.47 -17.98,6.2 -9.03,1.05 -18.4,-4.83 -21.38,-13.43 -2.98,-8.59 0.74,-19.01 8.48,-23.78 6.13,-3.78 14.6,-4.6 18.34,-10.76 3.13,-5.16 1.47,-11.99 3.73,-17.59 3.94,-9.73 17.13,-11.39 24.63,-18.74 7.26,-7.12 10.06,-17.09 19.64,-22.04 10.02,-5.17 24.13,-2.85 33.1,3.33z"/>
    <path class="fil8" d="M427.23 678.16c0,0 -6.22,50.17 10.51,55.83 16.73,5.67 72.1,13.57 76.14,23.26 4.05,9.7 7.26,91.15 7.26,91.15l25.94 -1.3c0,0 4.31,-90.35 3.39,-99.27 -1.19,-11.55 -4.51,-16.35 -4.51,-16.35 0,0 4.92,4.99 7.15,15.27 1.7,7.82 9.98,90.73 9.98,90.73l25.93 -1.3c0,0 8.7,-114.62 -12.33,-128.61 -21.02,-13.99 -77.02,-32.22 -77.02,-32.22l-72.45 2.8z"/>
    <path class="fil81" d="M523.12 604.08l15.73 47.06 -18.3 5.99c0,0 -13.9,-20.09 -19.64,-39.3 -5.74,-19.21 22.21,-13.76 22.21,-13.76z"/>
    <path class="fil83" d="M478.76 557.21c0,0 21.13,3.17 31.26,14.5 10.13,11.33 17.99,36.92 17.99,36.92l-19.28 7.85c0,0 0.19,14.55 -8.67,19.14 0,0 -3.98,23.14 3.35,41.98 0,0 -47.58,18.36 -78.64,6.27l-7.64 -65.42 -18.95 -6.26c0,0 6.3,-42.74 28.48,-50.82 22.18,-8.08 39.28,-7.5 52.11,-4.15z"/>
    <path class="fil81" d="M402.69 613.68l26.09 7.96c0,0 -4.37,21.12 -1.6,31.44 4.41,16.45 28.86,31.51 40.14,29.88l0.28 10.06c0,0 -56.6,0.93 -65.39,-30.18 -8.79,-31.1 0.49,-49.17 0.49,-49.17z"/>
    <path class="fil82" d="M508.76 616.82c-0,0 -0,0 -0.01,0 -0.19,0.01 -0.35,-0.13 -0.35,-0.32 -0.39,-6.9 -7.18,-15.41 -7.24,-15.49 -0.12,-0.14 -0.09,-0.36 0.05,-0.47 0.15,-0.11 0.36,-0.09 0.47,0.05 0.28,0.35 6.99,8.76 7.39,15.87 0.01,0.18 -0.13,0.34 -0.31,0.35z"/>
    <path class="fil82" d="M460.26 628.82c-5.15,0.41 -11.59,-0.8 -18.73,-5.99 -0.15,-0.11 -0.18,-0.32 -0.07,-0.47 0.11,-0.15 0.32,-0.18 0.47,-0.07 17.36,12.6 30.37,1.23 30.5,1.11 0.14,-0.12 0.35,-0.11 0.47,0.02 0.12,0.14 0.11,0.35 -0.02,0.47 -0.08,0.07 -4.92,4.31 -12.61,4.92z"/>
    <path class="fil82" d="M432.26 622.91c-0.04,0 -0.08,0 -0.12,-0.01l-3.45 -0.94c-0.18,-0.05 -0.28,-0.23 -0.24,-0.41 0.05,-0.18 0.24,-0.28 0.41,-0.24l3.11 0.85 5.48 -24.62c0.04,-0.18 0.22,-0.3 0.4,-0.26 0.18,0.04 0.29,0.22 0.25,0.4l-5.56 24.96c-0.02,0.09 -0.08,0.17 -0.16,0.22 -0.04,0.03 -0.09,0.04 -0.15,0.05z"/>
    <path class="fil84" d="M509.92 526.9c0,0 2.94,-2.5 4.19,-0.77 3.19,4.39 -2.49,7.36 -5.5,7.48l1.31 -6.71z"/>
    <path class="fil81" d="M494.79 481.93c-12.85,-2.82 -26,4.57 -30.31,17 -1.42,4.09 -1.76,8.26 -1.2,12.23 0.94,9.77 1.77,17.66 3.86,23.83 2.11,6.26 1.94,13.06 -0.77,19.08l-1.09 2.41c-1.03,2.28 -0.31,4.97 1.71,6.45 6.24,4.57 11.24,4.92 14.31,4.42 1.97,-0.32 3.57,-1.75 4.12,-3.66l3.49 -12.12c16.39,2.68 22.72,-27.16 25.21,-35.81l-0.03 -0c0.1,-0.32 0.21,-0.64 0.3,-0.97 4.17,-14.46 -4.67,-29.6 -19.61,-32.87z"/>
    <path class="fil82" d="M485.59 507.03c-3.99,2.25 -7.68,4.98 -11.36,7.7 -3.9,2.88 -7.95,5.96 -9.92,10.39 -3.19,-4.28 -4.47,-9.67 -5.33,-14.94 -0.4,-2.44 -0.73,-4.94 -0.39,-7.39 0.49,-3.47 2.28,-6.6 4.03,-9.64 2.27,-3.92 4.68,-7.98 8.49,-10.42 2.53,-1.61 5.5,-2.39 8.46,-2.84 6.91,-1.07 14.17,-0.49 20.56,2.36 6.39,2.85 11.82,8.09 14.22,14.66 3.1,8.46 1.01,17.83 -1.11,26.58 0.17,-3.84 -1.34,-7.53 -2.81,-11.08 -0.96,-2.31 -1.95,-4.66 -3.62,-6.53 -2.84,-3.18 -3.95,-2.98 -8.84,-8.86 -3.13,4.87 -7.4,7.2 -12.39,10.01z"/>
    <path class="fil81" d="M468.92 520.43c-0.17,-0.93 -0.7,-1.76 -1.45,-2.34 -1.54,-1.2 -4.38,-2.85 -7.1,-1.35 -3.98,2.2 -0.13,12.19 7.2,9.89 0,0 2.26,-1.25 1.35,-6.2z"/>
    <path class="fil82" d="M506.94 528.12c0.47,-1.18 -0.11,-2.5 -1.28,-2.97 -1.17,-0.47 -2.5,0.11 -2.97,1.28 -0.47,1.17 0.11,2.5 1.28,2.97 1.17,0.46 2.5,-0.11 2.97,-1.28z"/>
    <path class="fil82" d="M485.62 523.14c0.46,-1.17 -0.11,-2.5 -1.28,-2.97 -1.17,-0.47 -2.5,0.11 -2.97,1.28 -0.47,1.17 0.11,2.5 1.28,2.97 1.17,0.47 2.5,-0.11 2.97,-1.28z"/>
    <path class="fil85" d="M496.31 540.43c0,0 -1.57,-1.82 -2.78,-1.77 -1.21,0.05 -2.15,1.28 -2.15,1.28 0,0 -0.36,-1.53 -1.75,-1.87 -1.38,-0.34 -5.51,-0.17 -5.51,-0.17 0,0 2.24,6.72 6.61,6.64 4.38,-0.08 5.47,-3.93 5.47,-3.93l0.1 -0.19z"/>
    <path class="fil82" d="M491.88 541.95c-4.98,-0.09 -8.79,-4.65 -8.84,-4.71 -0.11,-0.14 -0.09,-0.34 0.05,-0.45 0.14,-0.11 0.34,-0.09 0.45,0.04 0.25,0.31 6.2,7.41 12.85,3.12 0.15,-0.1 0.35,-0.05 0.45,0.1 0.1,0.15 0.05,0.35 -0.1,0.44 -1.68,1.08 -3.32,1.48 -4.85,1.45z"/>
    <path class="fil82" d="M479.37 518.78c-0.26,-0.09 -0.47,-0.29 -0.58,-0.56 -0.19,-0.49 0.06,-1.04 0.55,-1.23 0.15,-0.06 3.67,-1.33 7.62,0.24 0.49,0.19 0.73,0.75 0.54,1.23 -0.19,0.49 -0.79,0.72 -1.24,0.53 -3.3,-1.3 -6.22,-0.24 -6.25,-0.23 -0.22,0.08 -0.44,0.08 -0.65,0.01z"/>
    <path class="fil82" d="M502.3 522.76c-0.24,-0.13 -0.42,-0.37 -0.47,-0.66 -0.1,-0.52 0.25,-1.01 0.77,-1.11 0.15,-0.03 3.82,-0.67 7.46,1.61 0.45,0.28 0.58,0.86 0.3,1.31 -0.28,0.45 -0.88,0.58 -1.31,0.3 -3.01,-1.88 -6.08,-1.35 -6.11,-1.35 -0.23,0.04 -0.45,-0 -0.64,-0.11z"/>
    <path class="fil84" d="M492.8 533.07c-0.64,0.05 -1.39,-0.04 -2.28,-0.34 -0.17,-0.06 -0.27,-0.25 -0.21,-0.43 0.06,-0.18 0.25,-0.27 0.43,-0.21 3.08,1.06 4.2,-0.82 4.44,-1.32 -1.6,-3.91 -0.09,-8.17 -0.02,-8.35 0.06,-0.17 0.26,-0.26 0.43,-0.2 0.18,0.06 0.27,0.26 0.2,0.43 -0.02,0.04 -1.52,4.3 0.06,7.99 0.03,0.08 0.04,0.17 0.01,0.25 -0.01,0.02 -0.77,2 -3.06,2.18z"/>
    <path class="fil81" d="M467.6 693.02c0,0 2.55,1.37 5.65,1.25 3.1,-0.11 12.18,-1.67 13.68,-1.58 1.5,0.09 9.07,2.35 10.47,1.9 1.39,-0.45 -7.45,-4.88 -7.45,-4.88 0,0 8.08,2.71 8.98,1.42 0.91,-1.29 -7.51,-4.95 -7.51,-4.95 0,0 8.13,1.79 8.56,0.4 0.43,-1.39 -7.43,-3.2 -7.43,-3.2 0,0 7.35,0.5 7.67,-0.61 0.32,-1.11 -10.48,-4.17 -14.9,-3.55 -4.42,0.62 -18,3.73 -18,3.73l0.28 10.06z"/>
    <path class="fil82" d="M523.72 864.08c-0.82,4.56 -1.62,8.26 -1.82,10.01 -0.58,4.9 44.09,23.19 47.64,19.02 2.64,-3.09 -5.55,-11.2 -13.23,-19.07 -3.75,2.8 -13.54,6.23 -32.59,-9.96z"/>
    <g>
     <polygon class="fil1" points="592.72,639.95 507.05,639.23 479.66,701.68 565.33,702.4 "/>
     <polygon class="fil1" points="439.16,697.55 496.51,698.03 496.48,701.82 439.13,701.34 "/>
    </g>
    <g>
     <path class="fil82" d="M479.8 528.92c-1.35,-0.54 -2.51,-1.46 -3.37,-2.68 -1.19,-1.68 -1.66,-3.72 -1.32,-5.75 0.71,-4.19 4.69,-7.02 8.88,-6.31 4.19,0.71 7.02,4.69 6.31,8.88 -0.34,2.03 -1.46,3.8 -3.13,5 -1.68,1.19 -3.72,1.66 -5.75,1.32 -0.56,-0.09 -1.1,-0.25 -1.62,-0.46zm5.62 -13.85l0 0c-0.48,-0.19 -0.98,-0.34 -1.51,-0.43 -3.93,-0.66 -7.67,1.99 -8.34,5.93 -0.32,1.9 0.12,3.82 1.24,5.39 1.12,1.58 2.78,2.62 4.69,2.94 1.91,0.32 3.82,-0.12 5.4,-1.24 1.57,-1.12 2.62,-2.78 2.94,-4.69 0.58,-3.4 -1.34,-6.67 -4.42,-7.91z"/>
     <path class="fil82" d="M501.85 533.65c-1.35,-0.55 -2.51,-1.46 -3.37,-2.68 -1.19,-1.68 -1.66,-3.72 -1.32,-5.75 0.71,-4.19 4.69,-7.02 8.88,-6.31 2.03,0.34 3.8,1.46 5,3.13 1.19,1.68 1.66,3.72 1.32,5.75 -0.34,2.03 -1.46,3.8 -3.13,5 -1.68,1.19 -3.72,1.66 -5.75,1.32 -0.56,-0.1 -1.1,-0.25 -1.62,-0.46zm5.63 -13.84l0 0c-0.48,-0.2 -0.99,-0.34 -1.52,-0.43 -3.93,-0.66 -7.67,1.99 -8.34,5.92 -0.67,3.93 1.99,7.68 5.92,8.34 1.91,0.32 3.82,-0.12 5.4,-1.24 1.57,-1.12 2.62,-2.78 2.94,-4.69 0.32,-1.91 -0.12,-3.82 -1.24,-5.4 -0.81,-1.14 -1.9,-2 -3.17,-2.51z"/>
     <polygon class="fil82" points="466.43,517.38 466.56,516.92 475.54,519.51 475.41,519.97 "/>
     <path class="fil82" d="M489.92 524.21l-0.16 -0.44c5.08,-1.82 7.75,1.54 7.77,1.57l-0.37 0.29c-0.1,-0.13 -2.49,-3.12 -7.24,-1.42z"/>
    </g>
    <path class="fil86" d="M543.38 672.1c-0.59,1.94 -2.63,3.04 -4.57,2.46 -1.94,-0.59 -3.04,-2.63 -2.46,-4.57 0.59,-1.94 2.63,-3.04 4.57,-2.46 1.94,0.58 3.04,2.63 2.46,4.57z"/>
   </g>
   <path class="fil87" d="M631.57 470.76c0.39,1.25 0.74,2.47 1.13,3.66 0.4,1.15 0.88,2.38 1.58,3.07l0.13 0.11c0.05,0.04 0.07,0.06 0.16,0.13 0.16,0.13 0.33,0.22 0.46,0.38 0.28,0.29 0.53,0.65 0.65,1.06 0.26,0.82 0.02,1.69 -0.4,2.3 -0.87,1.25 -2.3,1.75 -3.59,1.78 1.17,-0.56 2.24,-1.3 2.7,-2.3 0.21,-0.49 0.3,-0.99 0.11,-1.39 -0.08,-0.2 -0.21,-0.38 -0.38,-0.54 -0.07,-0.09 -0.19,-0.14 -0.28,-0.22l-0.22 -0.17 -0.24 -0.19c-0.58,-0.56 -0.89,-1.21 -1.15,-1.84 -0.24,-0.64 -0.41,-1.29 -0.52,-1.94 -0.23,-1.3 -0.29,-2.61 -0.14,-3.91z"/>
   <path class="fil88" d="M623.5 470.85c0.24,1.07 -0.43,2.14 -1.51,2.38 -1.08,0.24 -2.14,-0.43 -2.38,-1.5 -0.24,-1.07 0.43,-2.13 1.51,-2.38 1.08,-0.24 2.14,0.43 2.38,1.5z"/>
   <path class="fil88" d="M640.46 468.16c0.24,1.07 -0.43,2.14 -1.51,2.38 -1.07,0.24 -2.14,-0.43 -2.38,-1.5 -0.24,-1.07 0.43,-2.14 1.51,-2.38 1.07,-0.24 2.14,0.43 2.38,1.5z"/>
   <path class="fil89" d="M624.73 465.86c-1.06,-0.03 -2.05,-0.01 -3,0.1 -0.95,0.11 -1.85,0.33 -2.69,0.68 -0.83,0.35 -1.65,0.78 -2.38,1.39 -0.41,0.26 -0.72,0.63 -1.12,0.94 -0.37,0.33 -0.7,0.72 -1.13,1.06 0.12,-0.51 0.28,-1.02 0.5,-1.51 0.26,-0.46 0.5,-0.96 0.88,-1.36 0.67,-0.87 1.63,-1.54 2.67,-1.96 1.04,-0.43 2.19,-0.57 3.28,-0.45 1.08,0.13 2.14,0.48 2.99,1.12z"/>
   <path class="fil89" d="M633.46 464.47c0.59,-0.9 1.47,-1.58 2.44,-2.07 0.98,-0.48 2.11,-0.73 3.24,-0.68 1.12,0.06 2.24,0.35 3.17,0.95 0.49,0.25 0.88,0.64 1.28,0.99 0.37,0.39 0.7,0.82 0.98,1.26 -0.52,-0.18 -0.95,-0.43 -1.42,-0.62 -0.48,-0.16 -0.9,-0.4 -1.37,-0.51 -0.89,-0.33 -1.81,-0.45 -2.71,-0.5 -0.91,-0.04 -1.83,0.05 -2.76,0.26 -0.93,0.22 -1.87,0.53 -2.86,0.91z"/>
   <path class="fil63" d="M639.38 484.81c-0.09,1.96 -2.35,3.71 -5.52,4.09 -3.17,0.39 -6.17,-0.71 -7.23,-2.53l12.74 -1.56z"/>
  </g>
 </g>
</svg>
