<?xml version="1.0" encoding="UTF-8"?>
<!DOCTYPE svg PUBLIC "-//W3C//DTD SVG 1.1//EN" "http://www.w3.org/Graphics/SVG/1.1/DTD/svg11.dtd">
<!-- Creator: CorelDRAW 2019 (64-Bit) -->
<svg xmlns="http://www.w3.org/2000/svg" xml:space="preserve" width="0.261862in" height="0.400008in" version="1.1" style="shape-rendering:geometricPrecision; text-rendering:geometricPrecision; image-rendering:optimizeQuality; fill-rule:evenodd; clip-rule:evenodd"
viewBox="0 0 17.78 27.16"
 xmlns:xlink="http://www.w3.org/1999/xlink">
 <defs>
  <style type="text/css">
   <![CDATA[
    .fil1 {fill:#032B5B}
    .fil0 {fill:white}
    .fil2 {fill:white;fill-rule:nonzero}
   ]]>
  </style>
 </defs>
 <g id="Layer_x0020_1">
  <metadata id="CorelCorpID_0Corel-Layer"/>
  <g id="_2967137979056">
   <path class="fil0" d="M8.19 9.4c-4.61,0.35 -8.6,4.47 -8.15,9.6 0.4,4.58 4.39,8.58 9.62,8.12 4.67,-0.41 8.52,-4.47 8.1,-9.6 -0.39,-4.64 -4.43,-8.51 -9.56,-8.12z"/>
   <path class="fil1" d="M8.5 12.38c-0.87,0.35 -0.72,0.85 -2.17,0.83 -1.14,-0.01 -1.25,0.5 -1.56,1.43 -0.31,0.92 -1.07,0.93 -1.44,1.58 -0.5,0.88 0.41,1.42 0.12,2.52 -0.26,1 -0.55,1.44 0.31,2.06 1.17,0.84 0.67,0.54 1.23,1.79 0.14,0.3 0.44,0.59 0.77,0.68 0.47,0.13 1.01,-0.01 1.45,0.12 0.68,0.21 1.17,1.16 2.17,0.74 0.99,-0.41 0.33,-0.79 2.16,-0.8 1.09,-0.01 1.22,-0.61 1.52,-1.51 0.29,-0.87 1.13,-0.85 1.45,-1.57 0.4,-0.9 -0.41,-1.42 -0.16,-2.42 0.23,-0.93 0.58,-1.44 -0.28,-2.08 -1.14,-0.86 -0.68,-0.41 -1.25,-1.77 -0.49,-1.16 -1.2,-0.58 -2.19,-0.84 -0.67,-0.18 -1.18,-1.15 -2.12,-0.78z"/>
   <path class="fil0" d="M2.89 10.18c0.11,-0.03 0.78,-0.49 0.94,-0.59 0.36,-0.22 0.81,-0.36 1.11,-0.6 0.05,-0.87 0.02,-1.83 0.04,-2.71 0.02,-1.05 0.02,-1.39 0.46,-2.22 1.45,-2.71 5.38,-2.69 6.88,-0.05 0.78,1.38 0.49,3.19 0.54,4.98l1.53 0.87c0.45,0.3 0.27,0.27 0.52,0.27 -0.04,-2.55 0.34,-5.14 -0.83,-7.18 -2.76,-4.84 -11.05,-3.67 -11.18,3.17 -0.02,1.03 -0.15,3.15 -0.01,4.07z"/>
   <path class="fil0" d="M8.2 14.55c-5.06,1.07 -3.39,8.36 1.43,7.43 3.03,-0.58 4.28,-4.54 1.54,-6.74 -0.68,-0.55 -1.86,-0.93 -2.97,-0.69z"/>
   <path class="fil1" d="M8.5 15.55c-3.61,0.53 -2.8,5.99 0.84,5.43 1.35,-0.21 2.52,-1.48 2.28,-3.14 -0.19,-1.35 -1.5,-2.53 -3.11,-2.29z"/>
   <path class="fil2" d="M7.97 16.74l2.05 0 0 0c-0.12,0.19 -0.19,0.29 -0.2,0.3l-0.55 0c0.07,0.09 0.13,0.2 0.15,0.32l0.58 0c0.01,0 0.01,0 0.01,0.01 -0.13,0.2 -0.2,0.29 -0.2,0.29l-0.38 0c-0.01,0.1 -0.06,0.22 -0.14,0.36 -0.12,0.14 -0.23,0.24 -0.33,0.28 -0.2,0.1 -0.39,0.14 -0.57,0.14l0 0c0,0.01 0.41,0.5 1.23,1.46l-0.54 0c-0.8,-0.93 -1.2,-1.4 -1.2,-1.41l0 -0.28 0 -0.01c0.07,0.01 0.15,0.02 0.25,0.02 0.45,0 0.73,-0.15 0.84,-0.44 0.02,-0.04 0.03,-0.09 0.03,-0.13l-1.22 0c-0.01,0 -0.01,-0 -0.01,-0.01 0.14,-0.2 0.2,-0.29 0.21,-0.29l0.97 0 0 -0c-0.06,-0.11 -0.16,-0.2 -0.32,-0.26 -0.11,-0.04 -0.22,-0.06 -0.31,-0.06l-0.54 0 0 -0.01c0.13,-0.19 0.2,-0.29 0.2,-0.29zm8.92 0.05l0 0 0 0 0 0z"/>
  </g>
 </g>
</svg>
