<?xml version="1.0" encoding="UTF-8"?>
<!DOCTYPE svg PUBLIC "-//W3C//DTD SVG 1.1//EN" "http://www.w3.org/Graphics/SVG/1.1/DTD/svg11.dtd">
<!-- Creator: CorelDRAW 2019 (64-Bit) -->
<svg xmlns="http://www.w3.org/2000/svg" xml:space="preserve" width="0.280724in" height="0.2in" version="1.1" style="shape-rendering:geometricPrecision; text-rendering:geometricPrecision; image-rendering:optimizeQuality; fill-rule:evenodd; clip-rule:evenodd"
viewBox="0 0 9.52 6.78"
 xmlns:xlink="http://www.w3.org/1999/xlink">
 <defs>
  <style type="text/css">
   <![CDATA[
    .fil0 {fill:#032B5B}
    .fil1 {fill:#6CBBE9}
   ]]>
  </style>
 </defs>
 <g id="Layer_x0020_1">
  <metadata id="CorelCorpID_0Corel-Layer"/>
  <g id="_2967046197264">
   <path class="fil0" d="M-0 3.02c0.07,0.11 0.67,0.37 0.83,0.46 0.19,0.1 0.73,0.41 0.87,0.4l0.03 -0.24c0.26,-0.21 1.01,-0.53 1.34,-0.64 0.55,-0.18 1.07,-0.31 1.68,-0.31 1.07,0 2.33,0.48 3.07,0.92 -0,0.15 -0.02,0.32 0.02,0.47 0.13,-0.01 0.34,-0.17 0.47,-0.25 0.12,-0.07 0.37,-0.25 0.48,-0.24l0.01 0.68c-0,0.4 -0.11,-0.16 -0.11,0.86 -0,0.34 0.12,0.1 0.07,0.79 -0.01,0.18 -0.09,0.67 -0.03,0.86 0.16,0.01 0.28,0.03 0.41,-0.02 0.03,-0.25 -0.08,-0.91 -0.07,-1.22 0,-0.2 0.09,-0.15 0.09,-0.38l0 -0.44c0,-0.25 -0.1,-0.18 -0.1,-0.41l0 -0.74c0,-0.21 0.01,-0.18 0.18,-0.28 0.08,-0.05 0.25,-0.12 0.3,-0.22 -0.05,-0.08 -0.05,-0.07 -0.13,-0.12 -0.06,-0.04 -0.09,-0.05 -0.15,-0.09 -0.94,-0.6 -2.39,-1.52 -3.31,-2.07l-1.2 -0.76c-0.12,-0.07 -0.37,0.15 -0.59,0.29l-2.97 1.91c-0.19,0.12 -1.12,0.68 -1.17,0.8z"/>
   <path class="fil1" d="M2.02 3.79l0 1.68c0.18,-0.02 1.43,-0.66 2.72,-0.66 0.68,-0 1.5,0.2 2.13,0.43 0.17,0.06 0.48,0.21 0.63,0.24l-0 -1.72c-0.75,-0.42 -1.8,-0.82 -2.76,-0.82 -0.89,0 -2.1,0.42 -2.72,0.85z"/>
  </g>
 </g>
</svg>
