<?xml version="1.0" encoding="UTF-8"?>
<!DOCTYPE svg PUBLIC "-//W3C//DTD SVG 1.1//EN" "http://www.w3.org/Graphics/SVG/1.1/DTD/svg11.dtd">
<!-- Creator: CorelDRAW 2019 (64-Bit) -->
<svg xmlns="http://www.w3.org/2000/svg" xml:space="preserve" width="2.8618in" height="2.36229in" version="1.1" style="shape-rendering:geometricPrecision; text-rendering:geometricPrecision; image-rendering:optimizeQuality; fill-rule:evenodd; clip-rule:evenodd"
viewBox="0 0 1080.45 891.87"
 xmlns:xlink="http://www.w3.org/1999/xlink">
 <defs>
  <style type="text/css">
   <![CDATA[
    .fil24 {fill:black;fill-rule:nonzero}
    .fil14 {fill:blue;fill-rule:nonzero}
    .fil2 {fill:#00ACC1;fill-rule:nonzero}
    .fil6 {fill:#1351A6;fill-rule:nonzero}
    .fil13 {fill:#15438C;fill-rule:nonzero}
    .fil21 {fill:#212121;fill-rule:nonzero}
    .fil5 {fill:#2C88BB;fill-rule:nonzero}
    .fil10 {fill:#339DD9;fill-rule:nonzero}
    .fil23 {fill:#424242;fill-rule:nonzero}
    .fil1 {fill:#4DCFE1;fill-rule:nonzero}
    .fil0 {fill:#65B6E3;fill-rule:nonzero}
    .fil25 {fill:#757575;fill-rule:nonzero}
    .fil3 {fill:#B1EBF2;fill-rule:nonzero}
    .fil15 {fill:#F9A824;fill-rule:nonzero}
    .fil16 {fill:#FBBF2D;fill-rule:nonzero}
    .fil17 {fill:#FDD834;fill-rule:nonzero}
    .fil8 {fill:#FFB300;fill-rule:nonzero}
    .fil20 {fill:#FFCA28;fill-rule:nonzero}
    .fil7 {fill:#FFD44F;fill-rule:nonzero}
    .fil4 {fill:#FFDF82;fill-rule:nonzero}
    .fil18 {fill:#FFF075;fill-rule:nonzero}
    .fil9 {fill:#FFF7E1;fill-rule:nonzero}
    .fil19 {fill:white;fill-rule:nonzero}
    .fil22 {fill:#535353;fill-rule:nonzero}
    .fil12 {fill:#E0E0E0;fill-rule:nonzero}
    .fil11 {fill:#F3F3F4;fill-rule:nonzero}
   ]]>
  </style>
 </defs>
 <g id="Layer_x0020_1">
  <metadata id="CorelCorpID_0Corel-Layer"/>
  <g id="_2315614418064">
   <path class="fil0" d="M1080.46 851.64c0,22.22 -241.87,40.23 -540.23,40.23 -298.36,0 -540.23,-18.01 -540.23,-40.23 0,-22.21 241.87,-40.22 540.23,-40.22 298.36,0 540.23,18.01 540.23,40.22z"/>
   <path class="fil1" d="M836.79 839.84l0 -104.1c0,-26.58 26.77,-69.75 49.88,-102.06l1.49 -2.07c1.09,-1.51 1.66,-3.31 1.66,-5.2 0,-1.89 -0.58,-3.68 -1.66,-5.2l-1.49 -2.07 0 -0.01c-23.11,-32.31 -49.88,-75.48 -49.88,-102.06l0 -104.1 136.04 0 0 104.1c0,26.58 -26.77,69.75 -49.88,102.06l-1.48 2.07c-1.09,1.51 -1.66,3.31 -1.66,5.2 0,1.89 0.57,3.68 1.66,5.2l1.48 2.07c23.11,32.31 49.88,75.48 49.88,102.06l0 104.1 -136.04 0z"/>
   <g>
    <path class="fil2" d="M915.05 616.6c17.16,-23.82 49.88,-72.73 49.88,-99.52l0 -96.2 -120.24 0 0 96.2c0,26.79 32.71,75.7 49.88,99.52l0 0c1.98,2.75 3.15,6.14 3.15,9.81 0,3.67 -1.17,7.06 -3.15,9.81l0 0c-17.16,23.82 -49.88,72.73 -49.88,99.52l0 96.2 120.24 0 0 -96.2c0,-26.79 -32.71,-75.7 -49.88,-99.52l0 -0c-1.98,-2.75 -3.15,-6.14 -3.15,-9.81 0,-3.67 1.17,-7.06 3.15,-9.81l0 -0z"/>
    <path class="fil3" d="M873.3 420.88c-2.63,32.07 -5.24,64.13 -7.88,96.2 0.36,16.7 6.16,32.94 12.97,48.57 -7.13,-11.02 -14.05,-22.44 -18.4,-34.89 -4.4,-12.61 -4.15,-26.66 -5.23,-39.83 -1.91,-23.35 -3.83,-46.7 -5.74,-70.05 8.09,0 16.19,0 24.28,0z"/>
    <path class="fil4" d="M904.89 728.18c-15.82,0 -60.15,59.42 -60.15,59.42l-0.05 0 0 20.47 120.24 0 0 -20.47 0.11 0c0,0 -44.34,-59.42 -60.15,-59.42z"/>
    <polygon class="fil5" points="984.02,451.72 825.57,451.72 825.57,420.88 984.02,420.88 "/>
    <polygon class="fil6" points="1016.11,433.85 793.49,433.85 793.49,408.15 1016.11,408.15 "/>
    <path class="fil7" d="M844.68 791.85l0 16.21 120.24 0 0 -20.47 0.11 0c0,0 -11.27,-15.1 -24.46,-30.07 -22.2,20.88 -56.89,34.33 -95.89,34.33z"/>
    <g>
     <path class="fil8" d="M952.26 783.87c0,1.19 -0.97,2.16 -2.16,2.16 -1.2,0 -2.16,-0.97 -2.16,-2.16 0,-1.2 0.97,-2.16 2.16,-2.16 1.2,0 2.16,0.97 2.16,2.16z"/>
     <path class="fil8" d="M944.81 795.44c0,1.19 -0.97,2.16 -2.16,2.16 -1.2,0 -2.16,-0.97 -2.16,-2.16 0,-1.19 0.97,-2.16 2.16,-2.16 1.19,0 2.16,0.97 2.16,2.16z"/>
     <path class="fil8" d="M946.33 788.83c0,0.53 -0.43,0.96 -0.96,0.96 -0.53,0 -0.96,-0.43 -0.96,-0.96 0,-0.53 0.43,-0.96 0.96,-0.96 0.53,0 0.96,0.43 0.96,0.96z"/>
     <path class="fil8" d="M952.14 793.88c0,0.95 -0.77,1.72 -1.72,1.72 -0.95,0 -1.72,-0.77 -1.72,-1.72 0,-0.95 0.77,-1.72 1.72,-1.72 0.95,0 1.72,0.77 1.72,1.72z"/>
     <path class="fil8" d="M956.62 788.83c0,0.53 -0.43,0.96 -0.96,0.96 -0.53,0 -0.96,-0.43 -0.96,-0.96 0,-0.53 0.43,-0.96 0.96,-0.96 0.53,0 0.96,0.43 0.96,0.96z"/>
     <path class="fil8" d="M944.57 772.21c0,0.53 -0.43,0.96 -0.96,0.96 -0.53,0 -0.96,-0.43 -0.96,-0.96 0,-0.53 0.43,-0.96 0.96,-0.96 0.53,0 0.96,0.43 0.96,0.96z"/>
     <path class="fil8" d="M957.83 794.84c0,0.86 -0.7,1.56 -1.56,1.56 -0.86,0 -1.56,-0.7 -1.56,-1.56 0,-0.87 0.7,-1.56 1.56,-1.56 0.87,0 1.56,0.7 1.56,1.56z"/>
     <path class="fil8" d="M949.46 778.38c0,0.86 -0.7,1.56 -1.56,1.56 -0.86,0 -1.56,-0.7 -1.56,-1.56 0,-0.86 0.7,-1.56 1.56,-1.56 0.87,0 1.56,0.7 1.56,1.56z"/>
     <path class="fil8" d="M943.93 782.94c0,1.31 -1.06,2.36 -2.36,2.36 -1.31,0 -2.36,-1.05 -2.36,-2.36 0,-1.31 1.06,-2.36 2.36,-2.36 1.31,0 2.36,1.06 2.36,2.36z"/>
    </g>
    <g>
     <path class="fil9" d="M883.33 749.05c1.15,-0.33 2.35,0.32 2.68,1.47 0.33,1.15 -0.33,2.35 -1.47,2.68 -1.15,0.33 -2.35,-0.33 -2.68,-1.47 -0.34,-1.15 0.32,-2.35 1.47,-2.68z"/>
     <path class="fil9" d="M896.53 752.96c1.15,-0.33 2.35,0.32 2.68,1.47 0.33,1.15 -0.33,2.35 -1.47,2.68 -1.15,0.34 -2.35,-0.32 -2.68,-1.47 -0.33,-1.15 0.33,-2.35 1.47,-2.68z"/>
     <path class="fil9" d="M889.76 753.35c0.51,-0.15 1.04,0.14 1.19,0.65 0.15,0.51 -0.14,1.04 -0.65,1.19 -0.51,0.15 -1.04,-0.14 -1.19,-0.65 -0.15,-0.51 0.14,-1.04 0.65,-1.19z"/>
     <path class="fil9" d="M892.98 746.36c0.91,-0.27 1.87,0.26 2.13,1.17 0.26,0.91 -0.26,1.87 -1.17,2.13 -0.91,0.27 -1.87,-0.26 -2.13,-1.17 -0.27,-0.92 0.26,-1.87 1.17,-2.13z"/>
     <path class="fil9" d="M886.88 743.47c0.51,-0.15 1.04,0.14 1.19,0.65 0.15,0.51 -0.14,1.04 -0.65,1.19 -0.51,0.15 -1.04,-0.14 -1.19,-0.65 -0.15,-0.51 0.14,-1.04 0.65,-1.19z"/>
     <path class="fil9" d="M874.29 759.69c0.51,-0.15 1.04,0.14 1.19,0.66 0.15,0.51 -0.14,1.04 -0.65,1.19 -0.51,0.15 -1.04,-0.15 -1.19,-0.65 -0.15,-0.51 0.14,-1.04 0.65,-1.19z"/>
     <path class="fil9" d="M892.31 740.63c0.83,-0.24 1.69,0.23 1.94,1.07 0.24,0.83 -0.23,1.69 -1.06,1.94 -0.83,0.24 -1.69,-0.23 -1.94,-1.06 -0.24,-0.83 0.23,-1.7 1.06,-1.94z"/>
     <path class="fil9" d="M878.85 753.27c0.83,-0.24 1.69,0.23 1.94,1.06 0.24,0.83 -0.23,1.7 -1.06,1.94 -0.83,0.24 -1.7,-0.23 -1.94,-1.06 -0.24,-0.83 0.23,-1.69 1.06,-1.94z"/>
     <path class="fil9" d="M884.78 757.3c1.26,-0.37 2.56,0.35 2.93,1.61 0.37,1.25 -0.35,2.56 -1.61,2.93 -1.25,0.37 -2.56,-0.35 -2.93,-1.61 -0.36,-1.25 0.35,-2.56 1.61,-2.93z"/>
    </g>
    <polygon class="fil5" points="984.02,801.09 825.57,801.09 825.57,831.94 984.02,831.94 "/>
    <polygon class="fil6" points="1016.11,818.96 793.49,818.96 793.49,844.67 1016.11,844.67 "/>
   </g>
   <g>
    <path class="fil10" d="M158.4 564.92c-0.01,-0.01 -0.04,-0.05 -0.04,-0.05 0,0 -27.25,20.86 -27.25,73.3 0,52.44 27.25,73.31 27.25,73.31l180.38 0 0 -146.56 -180.34 0z"/>
    <path class="fil11" d="M686.98 784.74c0,-23.53 4.42,-44.96 11.66,-61.07l-595.7 0c0,0 -27.25,17.38 -27.25,61.07 0,43.69 27.25,61.07 27.25,61.07l595.7 0c-7.24,-16.11 -11.66,-37.54 -11.66,-61.07z"/>
    <path class="fil12" d="M686.98 784.75l-611.28 0c0.01,43.68 27.25,61.05 27.25,61.05l595.7 0c-7.24,-16.1 -11.66,-37.53 -11.66,-61.05z"/>
    <path class="fil6" d="M717.97 858.02l-618.6 0 -3.01 -1.92c-1.34,-0.86 -32.89,-21.55 -32.89,-71.36 0,-49.81 31.55,-70.51 32.89,-71.36l3.01 -1.92 618.6 0 0 24.43 -610.86 0c-5.73,5.05 -19.21,19.99 -19.21,48.85 0,28.86 13.47,43.8 19.21,48.85l610.86 0 0 24.43z"/>
    <path class="fil11" d="M837.3 638.19c0,-23.53 4.42,-44.96 11.66,-61.07l-520.54 0c0,0 -27.25,17.38 -27.25,61.07 0,43.69 27.25,61.07 27.25,61.07l520.54 0c-7.24,-16.11 -11.66,-37.54 -11.66,-61.07z"/>
    <path class="fil12" d="M837.3 638.21l-536.13 0c0.01,43.68 27.25,61.05 27.25,61.05l520.54 0c-7.24,-16.1 -11.66,-37.53 -11.66,-61.05z"/>
    <g>
     <path class="fil11" d="M696.37 491.62c0,-23.53 4.42,-44.96 11.66,-61.07l-595.7 0c0,0 -27.24,17.38 -27.24,61.07 0,43.69 27.24,61.07 27.24,61.07l595.7 0c-7.24,-16.11 -11.66,-37.54 -11.66,-61.07z"/>
     <path class="fil12" d="M696.37 491.63l-611.28 0c0.01,43.68 27.24,61.05 27.24,61.05l595.7 0c-7.24,-16.1 -11.66,-37.53 -11.66,-61.05z"/>
     <path class="fil6" d="M727.37 564.9l-618.6 0 -3.01 -1.91c-1.34,-0.86 -32.89,-21.56 -32.89,-71.37 0,-49.81 31.55,-70.51 32.89,-71.36l3.01 -1.92 618.6 0 0 24.43 -610.86 0c-5.73,5.05 -19.21,19.99 -19.21,48.85 0,28.86 13.47,43.8 19.21,48.85l610.86 0 0 24.43z"/>
    </g>
    <polygon class="fil13" points="218.49,581.03 193.94,569.69 169.4,581.03 169.4,491.62 218.49,491.62 "/>
    <path class="fil5" d="M868.29 711.47l-543.44 0 -3.01 -1.92c-1.34,-0.86 -32.89,-21.56 -32.89,-71.36 0,-49.81 31.55,-70.51 32.89,-71.37l3.01 -1.92 543.44 0 0 24.43 -535.7 0c-5.73,5.05 -19.21,19.99 -19.21,48.85 0,28.86 13.47,43.8 19.21,48.85l535.7 0 0 24.43z"/>
    <path class="fil14" d="M252.53 639.02c0,-28.17 8.46,-45.74 15.04,-55.14l-27.83 0c-6.24,13.14 -11.49,31.26 -11.49,55.14 0,23.88 5.25,42 11.49,55.13l27.83 0c-6.57,-9.4 -15.04,-26.97 -15.04,-55.13z"/>
    <path class="fil14" d="M161.85 639.02c0,-15.55 2.46,-28.07 5.84,-37.96l-12.72 0c-3.12,10.38 -5.26,22.94 -5.26,37.96 0,15.02 2.14,27.58 5.26,37.96l12.76 0c-3.39,-9.91 -5.88,-22.44 -5.88,-37.96z"/>
   </g>
   <g>
    <g>
     <path class="fil7" d="M924.74 757.38c0,-3.75 -0.2,-7.45 -0.58,-11.1l-18.56 -0.82 17.65 -5.72c-0.68,-4.09 -1.61,-8.09 -2.75,-12.01l-18.37 2.5 16.34 -8.78c-1.41,-3.89 -3.05,-7.66 -4.89,-11.31l-17.59 5.73 14.45 -11.52c-2.08,-3.56 -4.34,-7 -6.8,-10.29l-16.26 8.77 12.14 -13.88c-2.67,-3.13 -5.52,-6.11 -8.53,-8.91l-14.39 11.5 9.46 -15.81c-3.18,-2.61 -6.52,-5.01 -10,-7.23l-12.09 13.86 6.48 -17.23c-3.59,-1.99 -7.3,-3.78 -11.12,-5.35l-9.43 15.8 3.3 -18.09c-3.87,-1.31 -7.84,-2.42 -11.9,-3.29l-6.44 17.22 0.01 -18.39c-4.03,-0.6 -8.14,-0.94 -12.31,-1.07l-3.26 18.06 -3.26 -18.06c-4.16,0.13 -8.27,0.47 -12.3,1.07l0.01 18.39 -6.45 -17.22c-4.06,0.86 -8.03,1.97 -11.9,3.29l3.29 18.09 -9.42 -15.8c-3.83,1.57 -7.54,3.36 -11.12,5.35l6.48 17.23 -12.09 -13.86c-3.47,2.22 -6.82,4.63 -10,7.23l9.46 15.81 -14.39 -11.5c-3.02,2.8 -5.86,5.78 -8.53,8.91l12.14 13.88 -16.26 -8.77c-2.47,3.28 -4.72,6.73 -6.8,10.29l14.45 11.52 -17.58 -5.73c-1.83,3.66 -3.48,7.42 -4.89,11.31l16.34 8.78 -18.37 -2.5c-1.14,3.92 -2.07,7.92 -2.76,12.01l17.65 5.72 -18.56 0.82c-0.38,3.65 -0.59,7.35 -0.59,11.1 0,0.4 0.03,0.8 0.03,1.2l18.41 2.48 -18.13 4.13c0.3,4.14 0.84,8.21 1.6,12.2l18.62 -0.85 -17.18 7.33c1.04,4 2.32,7.9 3.8,11.7l18.22 -4.18 -15.61 10.29c1.73,3.74 3.66,7.35 5.8,10.84l17.21 -7.38 -13.54 12.93c2.37,3.35 4.91,6.57 7.64,9.63l15.63 -10.34 -11.03 15.16c2.92,2.88 6.01,5.57 9.25,8.09l13.55 -12.98 -8.17 16.93c3.38,2.3 6.9,4.4 10.54,6.3l11.04 -15.22 -5.02 18.13c3.72,1.65 7.54,3.13 11.47,4.35l8.17 -17 -1.7 18.75c3.94,0.95 7.97,1.68 12.07,2.18l4.99 -18.14 1.67 18.75c2.03,0.11 4.07,0.19 6.13,0.19 2.06,0 4.11,-0.08 6.14,-0.19l1.67 -18.75 4.99 18.14c4.1,-0.5 8.13,-1.23 12.07,-2.18l-1.7 -18.75 8.17 17c3.93,-1.22 7.75,-2.7 11.47,-4.35l-5.02 -18.13 11.04 15.22c3.64,-1.91 7.16,-4 10.53,-6.3l-8.17 -16.93 13.55 12.98c3.23,-2.52 6.32,-5.21 9.24,-8.09l-11.04 -15.16 15.64 10.34c2.73,-3.05 5.28,-6.27 7.64,-9.63l-13.54 -12.93 17.22 7.38c2.14,-3.49 4.06,-7.1 5.8,-10.84l-15.62 -10.29 18.22 4.18c1.48,-3.8 2.76,-7.7 3.8,-11.7l-17.18 -7.33 18.62 0.85c0.77,-3.99 1.3,-8.07 1.6,-12.2l-18.13 -4.13 18.41 -2.48c0.01,-0.4 0.03,-0.8 0.03,-1.2z"/>
     <path class="fil7" d="M819.28 654.53c-56.82,0 -102.88,46.08 -102.88,102.89 0,56.84 46.06,102.89 102.88,102.89 56.82,0 102.89,-46.05 102.89,-102.89 0,-56.81 -46.07,-102.89 -102.89,-102.89z"/>
     <path class="fil15" d="M819.28 861.59c-57.44,0 -104.17,-46.73 -104.17,-104.18 0,-57.44 46.73,-104.17 104.17,-104.17 57.45,0 104.18,46.73 104.18,104.17 0,57.44 -46.73,104.18 -104.18,104.18zm0 -205.78l0 0c-56.02,0 -101.6,45.58 -101.6,101.6 0,56.02 45.58,101.6 101.6,101.6 56.03,0 101.61,-45.58 101.61,-101.6 0,-56.02 -45.58,-101.6 -101.61,-101.6z"/>
     <path class="fil15" d="M819.28 669.97c-48.29,0 -87.45,39.15 -87.45,87.45 0,48.3 39.16,87.46 87.45,87.46 48.3,0 87.45,-39.15 87.45,-87.46 0,-48.29 -39.15,-87.45 -87.45,-87.45z"/>
     <path class="fil16" d="M819.28 674.84c-48.29,0 -87.45,35.54 -87.45,83.39 0,47.86 39.16,86.65 87.45,86.65 48.3,0 87.45,-38.79 87.45,-86.65 0,-47.85 -39.15,-83.39 -87.45,-83.39z"/>
     <path class="fil17" d="M847.65 762.79c-4.07,-4.86 -11.79,-8.84 -23.07,-11.89 -0.67,-0.19 -8.75,-2.72 -10.25,-3.4 -3.06,-1.31 -5.34,-3.04 -6.84,-5.18 -0.8,-1.13 -1.37,-2.3 -1.75,-3.53 -0.01,-0.07 -0.04,-0.13 -0.05,-0.18 -0.06,-0.18 -0.11,-0.35 -0.14,-0.52 -0.28,-1.01 -0.45,-2.05 -0.45,-3.13 0,-7.1 6.29,-12.86 14.02,-12.86 7.61,0 13.78,5.56 13.99,12.49l17.79 -2.33 0 -3.29 -0.84 -0.19c-1.47,-5.42 -3.98,-9.94 -7.62,-13.43 -4.44,-4.21 -10.39,-6.76 -17.86,-7.65l0 -9.68 -10.25 0 0 9.68c-8.09,0.8 -14.58,3.82 -19.46,9.07 -4.87,5.26 -7.3,11.74 -7.3,19.46 0,7.62 2.17,14.11 6.46,19.46 4.31,5.35 11.08,9.33 20.3,11.96 1.47,0.47 9.31,2.76 10.25,3.05 4.22,1.22 7.28,2.97 9.14,5.26 1.86,2.28 2.8,4.99 2.8,8.15 0,3.53 -1.11,6.61 -3.33,9.22 -2.22,2.62 -5.09,4.24 -8.61,4.91 -3.92,0.66 -8.27,0.13 -10.25,-0.99 -2.53,-1.23 -4.84,-3.21 -6.92,-5.93 -2.07,-2.74 -3.47,-5.98 -4.23,-9.75l-16.39 1.76 -2.04 -3.06 0 3.28c1.42,9.28 4.67,16.46 9.74,21.54 5.09,5.09 11.69,8.11 19.84,9.1l0 9.26 10.25 0 0 -9.61c9.17,-1.32 16.33,-4.9 21.49,-10.73 5.15,-5.84 7.73,-13.02 7.73,-21.54 0,-7.62 -2.05,-13.87 -6.15,-18.74z"/>
     <path class="fil18" d="M824.58 747.62c-0.67,-0.19 -8.75,-2.73 -10.25,-3.4 -3.06,-1.31 -5.34,-3.04 -6.84,-5.18 -0.8,-1.14 -1.37,-2.3 -1.75,-3.55 -0.01,-0.05 -0.04,-0.12 -0.05,-0.18 -0.06,-0.17 -0.11,-0.34 -0.14,-0.51 -0.28,-1 -0.45,-2.05 -0.45,-3.13 0,-7.11 6.29,-12.86 14.02,-12.86 7.61,0 13.78,5.56 13.99,12.49l17.79 -2.33c-1.23,-7.05 -4.05,-12.69 -8.46,-16.9 -4.44,-4.21 -10.39,-6.77 -17.86,-7.67l0 -9.69 -10.25 0 0 9.69c-8.09,0.81 -14.58,3.82 -19.46,9.08 -4.87,5.24 -7.3,11.73 -7.3,19.44 0,7.63 2.17,14.1 6.46,19.46 4.31,5.34 11.08,9.33 20.3,11.97 1.47,0.47 9.31,2.75 10.25,3.04 4.22,1.22 7.28,2.97 9.14,5.24 1.86,2.29 2.8,5.02 2.8,8.17 0,3.52 -1.11,6.6 -3.33,9.21 -2.22,2.6 -5.09,4.24 -8.61,4.91 -3.92,0.66 -8.27,0.13 -10.25,-0.99 -2.53,-1.23 -4.84,-3.2 -6.92,-5.93 -2.07,-2.74 -3.47,-5.98 -4.23,-9.75l-18.43 1.99c1.42,9.27 4.67,16.44 9.74,21.53 5.09,5.07 11.69,8.11 19.84,9.1l0 9.26 10.25 0 0 -9.61c9.17,-1.31 16.33,-4.88 21.49,-10.73 5.15,-5.83 7.73,-13.02 7.73,-21.54 0,-7.62 -2.05,-13.87 -6.15,-18.74 -4.07,-4.86 -11.79,-8.84 -23.07,-11.89z"/>
    </g>
    <path class="fil19" d="M801.35 690.61c-36.52,6.72 -41.96,12.17 -48.68,48.69 -6.73,-36.52 -12.18,-41.97 -48.69,-48.69 36.51,-6.72 41.96,-12.17 48.69,-48.69 6.72,36.51 12.17,41.96 48.68,48.69z"/>
   </g>
   <g>
    <path class="fil18" d="M797 333.76c0,-7.38 -4.64,-13.66 -11.16,-16.12l0 -91.74 -12.14 0 0 91.74c-6.52,2.46 -11.16,8.74 -11.16,16.12 0,9.52 7.72,17.24 17.23,17.24 9.52,0 17.24,-7.72 17.24,-17.24z"/>
    <path class="fil20" d="M806.66 375.18c0,-13.36 -12.04,-24.18 -26.9,-24.18 -14.85,0 -26.9,10.83 -26.9,24.18l-3.85 144.66 61.5 0 -3.85 -144.66z"/>
   </g>
   <path class="fil7" d="M806.66 375.18c0,-13.36 -12.04,-24.18 -26.9,-24.18 -14.85,0 -26.9,10.83 -26.9,24.18l-3.85 144.66 61.5 0 -3.85 -144.66z"/>
   <polygon class="fil15" points="758.12,519.78 762.97,421 764.19,519.89 "/>
   <polygon class="fil15" points="796.79,519.89 798.01,421 802.86,519.78 "/>
   <polygon class="fil15" points="767.82,519.79 773.28,408.15 776.32,519.88 "/>
   <polygon class="fil15" points="783.97,519.89 785.79,448.26 790.04,519.78 "/>
   <path class="fil7" d="M779.76 350.99c9.52,0 17.24,-7.72 17.24,-17.24 0,-3.1 -0.83,-6 -2.26,-8.51 -3.93,8.6 -12.59,14.59 -22.67,14.59 -3.16,0 -6.17,-0.61 -8.95,-1.68 1.94,7.39 8.65,12.84 16.65,12.84z"/>
   <polygon class="fil15" points="773.69,225.9 773.69,253.41 785.83,249.29 785.83,225.9 "/>
   <polygon class="fil21" points="681.15,231.06 182.57,231.06 182.57,418.34 681.15,418.34 "/>
   <polygon class="fil22" points="431.86,231.06 182.57,231.06 182.57,418.34 431.86,418.34 "/>
   <polygon class="fil21" points="434.37,127.82 55.35,213.02 431.86,334.31 808.37,213.03 "/>
   <g>
    <polygon class="fil23" points="628.62,220.21 235.09,220.21 259.38,202.72 604.34,202.72 "/>
    <polygon class="fil24" points="235.09,220.21 259.38,202.72 259.38,220.21 "/>
    <polygon class="fil24" points="628.62,220.21 604.34,202.72 604.34,220.21 "/>
   </g>
   <polygon class="fil25" points="55.35,213.02 431.86,334.31 431.86,347.15 55.35,225.86 "/>
   <polygon class="fil23" points="431.86,334.31 808.37,213.03 808.37,225.86 431.86,347.15 "/>
   <g>
    <path class="fil7" d="M563.47 126.45c0,-4.5 -0.24,-8.94 -0.7,-13.32l-22.27 -0.98 21.17 -6.87c-0.82,-4.91 -1.94,-9.71 -3.3,-14.4l-22.03 3 19.6 -10.53c-1.69,-4.66 -3.66,-9.18 -5.86,-13.57l-21.1 6.87 17.34 -13.81c-2.49,-4.27 -5.2,-8.4 -8.16,-12.34l-19.5 10.51 14.56 -16.64c-3.21,-3.76 -6.62,-7.33 -10.24,-10.69l-17.26 13.79 11.35 -18.97c-3.82,-3.12 -7.82,-6.01 -12,-8.67l-14.5 16.63 7.77 -20.67c-4.3,-2.39 -8.75,-4.54 -13.34,-6.42l-11.31 18.96 3.95 -21.7c-4.64,-1.58 -9.4,-2.91 -14.28,-3.94l-7.73 20.66 0.02 -22.05c-4.84,-0.72 -9.76,-1.13 -14.76,-1.28l-3.91 21.66 -3.91 -21.66c-5,0.15 -9.92,0.56 -14.76,1.28l0.02 22.05 -7.73 -20.66c-4.88,1.04 -9.63,2.37 -14.28,3.94l3.95 21.7 -11.3 -18.96c-4.59,1.88 -9.05,4.03 -13.34,6.42l7.77 20.67 -14.51 -16.63c-4.17,2.67 -8.18,5.55 -11.99,8.67l11.34 18.97 -17.26 -13.79c-3.62,3.36 -7.03,6.94 -10.24,10.69l14.56 16.64 -19.5 -10.51c-2.96,3.94 -5.67,8.07 -8.16,12.34l17.33 13.81 -21.09 -6.87c-2.2,4.39 -4.18,8.9 -5.87,13.57l19.6 10.53 -22.03 -3c-1.37,4.7 -2.48,9.5 -3.31,14.4l21.17 6.87 -22.26 0.98c-0.46,4.38 -0.7,8.82 -0.7,13.32 0,0.48 0.03,0.96 0.04,1.43l22.09 2.98 -21.74 4.95c0.36,4.96 1,9.85 1.92,14.64l22.33 -1.02 -20.61 8.8c1.25,4.8 2.79,9.47 4.56,14.03l21.85 -5.01 -18.73 12.35c2.08,4.48 4.39,8.82 6.95,13l20.65 -8.85 -16.24 15.51c2.84,4.03 5.89,7.88 9.16,11.55l18.75 -12.41 -11.16 15.35 22.12 0 3.15 -3.01 -1.45 3.01 125.73 0 -1.46 -3.01 3.15 3.01 22.12 0 -11.17 -15.35 18.75 12.41c3.28,-3.66 6.33,-7.52 9.17,-11.55l-16.23 -15.51 20.65 8.85c2.56,-4.18 4.88,-8.52 6.95,-13l-18.73 -12.35 21.85 5.01c1.77,-4.56 3.31,-9.23 4.56,-14.03l-20.61 -8.8 22.34 1.02c0.92,-4.79 1.56,-9.67 1.92,-14.64l-21.75 -4.95 22.09 -2.98c0.01,-0.48 0.03,-0.95 0.03,-1.43z"/>
    <path class="fil7" d="M436.97 3.08c-68.16,0 -123.41,55.27 -123.41,123.41 0,34.08 13.8,64.92 36.12,87.25l174.58 0c22.32,-22.33 36.13,-53.17 36.13,-87.25 0,-68.15 -55.26,-123.41 -123.42,-123.41z"/>
    <path class="fil15" d="M347.62 213.75c-22.01,-22.54 -35.6,-53.34 -35.6,-87.25 0,-68.9 56.05,-124.95 124.95,-124.95 68.91,0 124.96,56.05 124.96,124.95 0,33.92 -13.59,64.72 -35.6,87.25l-4.37 0c22.74,-22.15 36.88,-53.08 36.88,-87.25 0,-67.2 -54.68,-121.87 -121.88,-121.87l0 0c-67.2,0 -121.87,54.67 -121.87,121.87 0,34.17 14.14,65.1 36.88,87.25l-4.36 0z"/>
    <path class="fil15" d="M436.97 21.61c-57.92,0 -104.9,46.97 -104.9,104.89 0,36.39 18.52,68.44 46.65,87.25l116.51 0c28.12,-18.82 46.64,-50.87 46.64,-87.25 0,-57.92 -46.96,-104.89 -104.9,-104.89z"/>
    <path class="fil16" d="M436.97 28.38c-57.92,0 -104.9,42.44 -104.9,99.56 0,35.72 18.36,67.21 46.28,85.8l117.26 0c27.91,-18.59 46.27,-50.08 46.27,-85.8 0,-57.13 -46.96,-99.56 -104.9,-99.56z"/>
    <path class="fil17" d="M471 132.95c-4.89,-5.83 -14.14,-10.6 -27.67,-14.26 -0.81,-0.23 -10.5,-3.27 -12.29,-4.07 -3.67,-1.58 -6.4,-3.65 -8.21,-6.22 -0.95,-1.36 -1.65,-2.76 -2.1,-4.24 -0.01,-0.08 -0.04,-0.16 -0.06,-0.22 -0.07,-0.21 -0.13,-0.41 -0.17,-0.62 -0.33,-1.22 -0.53,-2.46 -0.53,-3.76 0,-8.52 7.55,-15.43 16.82,-15.43 9.12,0 16.52,6.67 16.78,14.98l21.34 -2.79 0 -3.95 -1.01 -0.23c-1.77,-6.51 -4.77,-11.93 -9.14,-16.11 -5.32,-5.05 -12.46,-8.11 -21.43,-9.18l0 -11.61 -12.29 0 0 11.61c-9.7,0.95 -17.49,4.58 -23.34,10.88 -5.84,6.3 -8.76,14.08 -8.76,23.34 0,9.14 2.6,16.92 7.75,23.34 5.18,6.42 13.29,11.19 24.35,14.34 1.77,0.56 11.16,3.31 12.29,3.66 5.06,1.46 8.73,3.56 10.96,6.31 2.23,2.73 3.35,5.98 3.35,9.77 0,4.24 -1.33,7.92 -3.99,11.06 -2.66,3.14 -6.1,5.09 -10.32,5.89 -4.7,0.8 -9.92,0.16 -12.29,-1.19 -3.03,-1.47 -5.81,-3.85 -8.3,-7.12 -2.49,-3.28 -4.16,-7.17 -5.08,-11.7l-19.66 2.11 -2.44 -3.67 0 3.93c1.71,11.14 5.6,19.74 11.69,25.84 6.1,6.1 14.02,9.73 23.8,10.92l0 11.1 12.29 0 0 -11.52c11,-1.58 19.59,-5.87 25.78,-12.87 6.17,-7 9.27,-15.62 9.27,-25.84 0,-9.14 -2.45,-16.64 -7.37,-22.48z"/>
    <path class="fil18" d="M443.33 114.74c-0.81,-0.23 -10.5,-3.27 -12.29,-4.08 -3.67,-1.58 -6.4,-3.64 -8.21,-6.22 -0.95,-1.36 -1.65,-2.76 -2.1,-4.25 -0.01,-0.06 -0.04,-0.14 -0.06,-0.22 -0.07,-0.2 -0.13,-0.41 -0.17,-0.61 -0.33,-1.2 -0.53,-2.46 -0.53,-3.76 0,-8.53 7.55,-15.43 16.82,-15.43 9.12,0 16.52,6.66 16.78,14.98l21.34 -2.79c-1.48,-8.46 -4.86,-15.23 -10.15,-20.27 -5.32,-5.05 -12.46,-8.13 -21.43,-9.2l0 -11.63 -12.29 0 0 11.63c-9.7,0.97 -17.49,4.58 -23.34,10.89 -5.84,6.29 -8.76,14.07 -8.76,23.32 0,9.15 2.6,16.92 7.75,23.34 5.18,6.4 13.29,11.19 24.35,14.36 1.77,0.56 11.16,3.3 12.29,3.65 5.06,1.46 8.73,3.56 10.96,6.29 2.23,2.75 3.35,6.02 3.35,9.8 0,4.22 -1.33,7.91 -3.99,11.05 -2.66,3.12 -6.1,5.09 -10.32,5.88 -4.7,0.79 -9.92,0.16 -12.29,-1.19 -3.03,-1.47 -5.81,-3.84 -8.3,-7.11 -2.49,-3.28 -4.16,-7.17 -5.08,-11.7l-22.11 2.38c1.71,11.12 5.6,19.73 11.69,25.83 6.1,6.09 14.02,9.73 23.8,10.92l0 11.1 12.29 0 0 -11.52c11,-1.58 19.59,-5.86 25.78,-12.88 6.17,-6.99 9.27,-15.61 9.27,-25.84 0,-9.14 -2.45,-16.64 -7.37,-22.49 -4.89,-5.83 -14.14,-10.6 -27.67,-14.26z"/>
   </g>
   <g>
    <polygon class="fil23" points="628.43,220.12 235.07,220.12 243.67,213.93 275.37,214.58 610.54,207.24 "/>
    <polygon class="fil24" points="235.07,220.12 243.67,213.93 259.34,214.25 259.34,220.12 "/>
    <polygon class="fil24" points="628.43,220.12 610.54,207.24 604.16,207.38 604.16,220.12 "/>
   </g>
  </g>
 </g>
</svg>
