<?xml version="1.0" encoding="UTF-8"?>
<!DOCTYPE svg PUBLIC "-//W3C//DTD SVG 1.1//EN" "http://www.w3.org/Graphics/SVG/1.1/DTD/svg11.dtd">
<!-- Creator: CorelDRAW 2019 (64-Bit) -->
<svg xmlns="http://www.w3.org/2000/svg" xml:space="preserve" width="0.268862in" height="0.275398in" version="1.1" style="shape-rendering:geometricPrecision; text-rendering:geometricPrecision; image-rendering:optimizeQuality; fill-rule:evenodd; clip-rule:evenodd"
viewBox="0 0 25.86 26.49"
 xmlns:xlink="http://www.w3.org/1999/xlink">
 <defs>
  <style type="text/css">
   <![CDATA[
    .fil0 {fill:#032B5B}
   ]]>
  </style>
 </defs>
 <g id="Layer_x0020_1">
  <metadata id="CorelCorpID_0Corel-Layer"/>
  <g id="_2966957048864">
   <path class="fil0" d="M21.53 26.29c0.07,0.11 0.03,0.1 0.42,0.04 0.44,-0.07 0.5,-0.13 0.69,-0.15 0.38,-0.04 0.72,-0.18 1.04,-0.29 0.21,-0.07 0.82,-0.33 1.01,-0.47 0.26,-0.19 0.52,-0.31 0.73,-0.59l0.14 -0.19c0.09,-0.1 0.18,-0.27 0.21,-0.42 0.02,-0.13 0,-0.09 0.05,-0.21 0.1,-0.27 0.02,-0.24 0.04,-0.7 0.02,-0.36 0,-0.75 0,-1.11 0,-0.54 0.05,-7.09 -0.03,-7.46 -0.14,-0.57 -0.75,-1.16 -1.31,-1.46 -0.24,-0.13 -0.5,-0.25 -0.73,-0.34 -2.27,-0.92 -6.71,-0.88 -8.83,0.64 -1.13,0.81 -0.87,1.79 -0.87,3.41l0 6.38c-0,0.74 0.1,1.13 0.56,1.58 1.29,1.26 4.14,1.61 6.01,1.5 0.17,-0.01 0.3,-0.03 0.48,-0.04 0.36,-0.02 0.2,-0.06 0.4,-0.14zm3.26 -2.68l0 -1.08c-0.17,0.06 -0.58,0.32 -1,0.47 -2.43,0.85 -5.79,0.91 -8.14,-0.21 -0.15,-0.07 -0.36,-0.21 -0.51,-0.25 0,0.3 0,0.6 0,0.9 -0,0.37 -0.03,0.49 0.18,0.72 0.28,0.3 0.69,0.53 1.11,0.7 2.07,0.82 5.64,0.83 7.55,-0.22 0.4,-0.22 0.81,-0.48 0.81,-1.01zm-9.08 -3.66c-0.17,-0.08 -0.41,-0.25 -0.57,-0.29 -0,0.69 -0.11,1.35 0.25,1.69 1.74,1.66 7.55,1.58 9.14,0.02 0.23,-0.22 0.27,-0.33 0.26,-0.71 -0,-0.33 -0,-0.67 0,-1 -0.21,0.07 -0.65,0.38 -1.45,0.64 -2.2,0.7 -5.62,0.62 -7.64,-0.34zm8.65 -1.3c0.22,-0.17 0.43,-0.34 0.44,-0.72 0,-0.36 0.02,-0.84 -0.01,-1.18 -0.39,0.18 -0.43,0.27 -1,0.48 -0.81,0.3 -2.19,0.6 -3.03,0.6 -1.45,-0 -1.78,0.1 -3.4,-0.25 -0.56,-0.12 -1.19,-0.32 -1.69,-0.56 -0.18,-0.09 -0.36,-0.21 -0.51,-0.27 -0.02,0.19 -0.03,1.24 0,1.39 0.52,2.19 7.5,1.82 9.2,0.51zm-5.02 -5.21c-0.23,0.03 -0.53,0.01 -0.78,0.05 -0.67,0.09 -1.33,0.22 -1.96,0.46 -4.53,1.74 2.78,3.86 6.75,2.33 0.58,-0.23 1.97,-0.83 1.24,-1.61 -0.97,-1.03 -4.03,-1.4 -5.24,-1.22z"/>
   <path class="fil0" d="M13.71 3.7l-8.52 0c-0.33,0 -0.88,-0.09 -1.12,0.09 -0.29,0.22 -0.21,0.61 -0.21,0.97 0,0.64 -0.04,4.39 0.01,4.68 0.07,0.36 0.39,0.41 0.73,0.41l11.73 -0c0.36,0 0.71,0.06 0.88,-0.29 0.11,-0.23 0.05,-4.06 0.05,-4.65 0,-1.21 0.04,-1.21 -1.19,-1.21 -0.79,0 -1.57,-0 -2.36,-0zm-8.81 1.28c0,1.05 -0.03,2.93 0.01,3.81l11.29 0.01c0.03,-0.43 0.04,-3.27 0,-4.06l-10.75 -0.01c-0.61,0 -0.54,-0.06 -0.54,0.24z"/>
   <path class="fil0" d="M0.03 20.62c0,1.23 -0.16,2.46 0.31,3.45 0.03,0.05 0.04,0.07 0.07,0.12l0.24 0.35c0.17,0.25 0.53,0.6 0.78,0.77 0.8,0.54 1.41,0.54 2.47,0.54l7.6 0c0.47,0 1.07,0.1 1.3,-0.23 0.17,-0.25 0.17,-0.83 -0.56,-0.83l-7.6 0c-1.44,0 -2.18,0.18 -3.07,-0.73 -0.24,-0.25 -0.42,-0.67 -0.47,-1.04 -0.04,-0.27 -0.03,-7.89 -0.02,-9.15 0.04,-3.22 0.07,-7.39 0.01,-10.86 0.02,-0.65 0.41,-1.27 0.87,-1.58 0.68,-0.46 1.18,-0.37 2.11,-0.37l12.25 0c0.72,0 1.74,-0.09 2.35,0.13 0.52,0.19 1.03,0.67 1.22,1.21 0.23,0.65 0.14,1.57 0.14,2.33 0,1.64 0,3.27 0,4.91 -0,0.38 -0.07,0.83 0.19,1.04 0.26,0.21 0.64,0.14 0.8,-0.15 0.17,-0.32 0.08,-1.88 0.08,-2.37 0,-1.65 0.01,-3.29 0,-4.94 -0,-1.39 -0.78,-2.46 -1.94,-2.96 -0.7,-0.3 -1.35,-0.25 -2.18,-0.25l-12.32 0c-1.5,0 -2.74,-0.19 -3.85,1.05 -1.04,1.16 -0.79,2.4 -0.79,4.11l0 7.38c0,2.69 0,5.39 0,8.08z"/>
   <path class="fil0" d="M4.3 16.33c-0.6,0.14 -0.7,1.04 0.26,1.03 0.54,-0 1.67,0.06 2.14,-0.01 0.3,-0.05 0.5,-0.32 0.41,-0.66 -0.08,-0.32 -0.33,-0.38 -0.7,-0.38 -0.46,0 -1.77,-0.05 -2.11,0.02z"/>
   <path class="fil0" d="M4.71 19.84l-0.22 0c-0.85,0 -0.78,0.96 -0.18,1.04 0.49,0.07 1.55,0 2.1,0.01 1.03,0.01 0.81,-0.87 0.38,-1.02 -0.22,-0.08 -1.7,-0.03 -2.08,-0.03z"/>
   <path class="fil0" d="M9.72 17.36l2.03 0c0.26,0 0.45,-0.06 0.57,-0.26 0.12,-0.2 0.08,-0.46 -0.07,-0.62 -0.27,-0.28 -1,-0.17 -1.45,-0.17 -0.41,0 -1.22,-0.1 -1.5,0.12 -0.25,0.21 -0.34,0.93 0.43,0.93z"/>
   <path class="fil0" d="M12.26 13.67c0.18,-0.37 0.16,-0.27 0.05,-0.66 -0.29,-0.22 -0.27,-0.22 -0.74,-0.22l-1.92 0c-0.32,0.02 -0.52,0.19 -0.53,0.5 -0.02,0.7 0.8,0.55 1.38,0.55 0.32,0 0.64,-0 0.96,0 0.41,0 0.48,0.06 0.8,-0.17z"/>
   <path class="fil0" d="M9.69 20.89l2.14 0c0.73,0 0.81,-1.05 -0.07,-1.05l-2.03 0c-0.82,0 -0.81,1.05 -0.04,1.05z"/>
   <path class="fil0" d="M4.49 13.83l2.03 0c0.35,0 0.61,-0.15 0.61,-0.51 0.01,-0.37 -0.24,-0.54 -0.61,-0.54l-2.03 0c-0.85,0 -0.86,1.05 0,1.05z"/>
  </g>
 </g>
</svg>
