<?xml version="1.0" encoding="UTF-8"?>
<!DOCTYPE svg PUBLIC "-//W3C//DTD SVG 1.1//EN" "http://www.w3.org/Graphics/SVG/1.1/DTD/svg11.dtd">
<!-- Creator: CorelDRAW 2019 (64-Bit) -->
<svg xmlns="http://www.w3.org/2000/svg" xml:space="preserve" width="0.512122in" height="0.400004in" version="1.1" style="shape-rendering:geometricPrecision; text-rendering:geometricPrecision; image-rendering:optimizeQuality; fill-rule:evenodd; clip-rule:evenodd"
viewBox="0 0 71.58 55.91"
 xmlns:xlink="http://www.w3.org/1999/xlink">
 <defs>
  <style type="text/css">
   <![CDATA[
    .fil1 {fill:white}
    .fil0 {fill:white;fill-rule:nonzero}
   ]]>
  </style>
 </defs>
 <g id="Layer_x0020_1">
  <metadata id="CorelCorpID_0Corel-Layer"/>
  <g id="_2967045619424">
   <path class="fil0" d="M23.99 30.01l10.94 0 0 0.02c-0.64,0.99 -1.01,1.52 -1.09,1.59l-2.92 0c0.4,0.47 0.68,1.04 0.82,1.72l3.11 0c0.04,0.01 0.06,0.02 0.06,0.05 -0.7,1.05 -1.05,1.57 -1.07,1.57l-2.03 0c-0.04,0.54 -0.3,1.19 -0.77,1.94 -0.62,0.77 -1.22,1.27 -1.79,1.49 -1.06,0.51 -2.08,0.76 -3.05,0.76l0 0.02c0,0.08 2.19,2.68 6.58,7.81l-2.9 0c-4.27,-4.98 -6.41,-7.48 -6.41,-7.51l0 -1.51 0.02 -0.06c0.38,0.05 0.82,0.08 1.33,0.08 2.4,0 3.89,-0.78 4.47,-2.33 0.09,-0.23 0.14,-0.46 0.14,-0.71l-6.51 0c-0.03,0 -0.05,-0.02 -0.05,-0.04 0.72,-1.05 1.09,-1.57 1.11,-1.57l5.16 0 0 -0.02c-0.29,-0.6 -0.87,-1.06 -1.72,-1.4 -0.61,-0.2 -1.15,-0.29 -1.64,-0.29l-2.89 0 0 -0.06c0.7,-1.04 1.06,-1.56 1.08,-1.56zm47.59 0.27l0 0 0 0 0 0z"/>
   <path class="fil1" d="M57 13.76l-9.07 5.26c-2.35,1.33 -1.89,1.37 -3.14,0.67 -3.44,-1.94 -6.75,-2.99 -10.64,-3.7 -5.59,-1.01 -12.32,0.07 -17.44,2.35 -3.71,1.65 -1.73,1.72 -5.65,0.25 -2.76,-1.03 -5.46,-1.55 -7.65,-2.97 0.02,-0.85 5.41,-3.54 6.47,-4.2 2.23,-1.36 4.38,-2.67 6.63,-4.08 2.32,-1.45 4.41,-2.73 6.58,-4.12 0.43,-0.28 1.27,-0.72 1.47,-1.17 0.62,-1.36 -0.92,-2.17 -1.92,-1.51 -3.54,2.28 -7.2,4.42 -10.75,6.71 -3.36,2.17 -6.96,4.24 -10.32,6.4 -0.55,0.35 -1.1,0.62 -1.39,1.24 -0.34,0.72 -0.13,1.5 0.25,1.97 0.4,0.48 1.09,0.68 1.65,0.9 1.36,0.54 10.65,4.02 11.15,4.38 0.05,1.15 -0.03,2.31 0,3.46 0.04,1.53 0.06,0.74 -0.87,2.55 -0.81,1.57 -1.41,3.34 -1.75,5.19 -2.03,11.31 6.37,22.47 18.46,22.56 8.39,0.06 14.43,-4.73 17.34,-10.41 1.81,-3.52 2.42,-7.21 1.86,-11.57 -0.36,-2.8 -1.45,-5.27 -2.87,-7.53 -0.31,-0.5 -0.15,-2.73 -0.15,-3.48 1.11,0.1 1.54,-0.42 2.34,-0.85 0.76,-0.41 1.69,-0.9 2.34,-1.38l0.8 -0.44c0.01,-0.01 0.03,-0.02 0.05,-0.03l0.48 -0.25c0.75,-0.32 1.13,-0.74 2.13,-1.18l1.48 -0.9c0.34,-0.23 0.79,-0.35 1.17,-0.64l1.45 -0.87c0.36,-0.19 0.19,-0.19 0.46,-0.35 0.76,-0.45 1.32,-0.66 1.92,-1.37 0.38,-0.44 0.37,-0.52 0.4,-1.18 0.01,-0.32 -0.18,-0.54 -0.33,-0.82 -0.11,-0.21 0,-0.07 -0.14,-0.26 -0.37,-0.51 -3.59,-1.84 -4.33,-2.18 -1.62,-0.75 -3,-1.39 -4.48,-2.11l-15.65 -7.33c-0.57,-0.27 -1.74,-0.98 -2.43,-0.73 -0.8,0.29 -1.12,1.38 -0.46,2.05 0.29,0.3 18.21,8.63 20.09,9.48 0.37,0.17 4.14,1.81 4.45,2.18zm-11.01 23.13c0,-3.42 -0.88,-6.2 -2.53,-8.89 -0.28,-0.45 -0.34,-0.66 -0.86,-0.95 -7.19,-3.91 -16.35,-4.69 -24.03,-1.56 -0.62,0.26 -1.53,0.58 -2.06,0.9 -0.5,0.31 -0.99,1.23 -1.28,1.69 -4.61,7.3 -2.41,16.66 3.47,21.46 4.8,3.91 11.55,5.35 18.13,2.12 4.88,-2.4 9.13,-7.84 9.15,-14.78zm-30.29 -14.74l-0 1.82 2.99 -1.16c3.4,-1.17 6.91,-1.74 10.71,-1.71 2.43,0.02 5.14,0.38 7.25,0.96 1.55,0.43 3.16,0.93 4.61,1.57 0.37,0.16 1.13,0.58 1.46,0.65l0.03 -2.53c-4,-2.19 -8.17,-3.73 -13.68,-3.63 -2.63,0.05 -5.22,0.46 -7.45,1.18 -1.96,0.63 -3.52,1.31 -5.27,2.31 -0.29,0.16 -0.52,0.23 -0.64,0.53z"/>
  </g>
 </g>
</svg>
