<?xml version="1.0" encoding="UTF-8"?>
<!DOCTYPE svg PUBLIC "-//W3C//DTD SVG 1.1//EN" "http://www.w3.org/Graphics/SVG/1.1/DTD/svg11.dtd">
<!-- Creator: CorelDRAW 2019 (64-Bit) -->
<svg xmlns="http://www.w3.org/2000/svg" xml:space="preserve" width="0.147307in" height="0.2in" version="1.1" style="shape-rendering:geometricPrecision; text-rendering:geometricPrecision; image-rendering:optimizeQuality; fill-rule:evenodd; clip-rule:evenodd"
viewBox="0 0 2.58 3.5"
 xmlns:xlink="http://www.w3.org/1999/xlink">
 <defs>
  <style type="text/css">
   <![CDATA[
    .fil0 {fill:#032B5B}
    .fil1 {fill:#6CBBE9}
   ]]>
  </style>
 </defs>
 <g id="Layer_x0020_1">
  <metadata id="CorelCorpID_0Corel-Layer"/>
  <g id="_2967046211184">
   <path class="fil0" d="M0.18 1.92c0.04,0.07 0.09,0.13 0.13,0.19 0.08,0.12 0.17,0.25 0.26,0.38l0.65 0.95c0.08,0.12 0.13,0.03 0.17,-0.04l0.19 -0.29c0.02,-0.03 0.04,-0.06 0.06,-0.1 0.08,-0.12 0.18,-0.26 0.26,-0.38l0.25 -0.38c0.01,-0.01 0.17,-0.25 0.2,-0.3 0.22,-0.34 0.28,-0.79 0.12,-1.16 -0.04,-0.08 -0.04,-0.1 -0.09,-0.18 -0.15,-0.26 -0.43,-0.48 -0.74,-0.57 -0.52,-0.15 -1,0.03 -1.3,0.33 -0.24,0.25 -0.37,0.57 -0.36,0.93 0,0.15 0.1,0.46 0.18,0.6zm0.77 0.88c0.04,0.05 0.33,0.5 0.35,0.51l0.51 -0.76c0.2,-0.29 0.16,-0.22 0.44,-0.66 0.18,-0.28 0.25,-0.65 0.13,-0.98 -0.04,-0.1 -0.07,-0.18 -0.14,-0.27 -0.38,-0.56 -1.18,-0.67 -1.71,-0.22 -0.32,0.27 -0.47,0.72 -0.37,1.12 0.11,0.46 0.51,0.86 0.78,1.27z"/>
   <path class="fil0" d="M1.24 0.48c-0.24,0.02 -0.44,0.11 -0.59,0.27 -0.52,0.57 -0.11,1.47 0.69,1.44 0.2,-0.01 0.39,-0.09 0.54,-0.22l0.05 -0.05c0.42,-0.46 0.23,-1.17 -0.32,-1.38 -0.1,-0.04 -0.24,-0.07 -0.37,-0.06zm-0.2 0.17c-0.49,0.17 -0.67,0.79 -0.28,1.19 0.05,0.05 0.1,0.08 0.16,0.12 0.28,0.16 0.6,0.11 0.83,-0.07 0.01,-0.01 0.01,-0.01 0.02,-0.02 0.06,-0.06 0.09,-0.08 0.15,-0.17 0.21,-0.36 0.08,-0.79 -0.26,-0.99 -0.2,-0.12 -0.4,-0.13 -0.62,-0.06z"/>
   <path class="fil1" d="M1.68 1.27l-0.77 0c-0.06,0 -0.08,0.05 -0.07,0.09 0.02,0.05 0.07,0.04 0.12,0.04l0.67 0c0.06,0 0.1,0.01 0.12,-0.04 0.01,-0.02 0,-0.05 -0.01,-0.07 -0.01,-0.02 -0.03,-0.03 -0.06,-0.03z"/>
   <path class="fil1" d="M0.91 1.73c0.12,-0 0.27,-0 0.38,0 0.04,0 0.07,0 0.12,0 0.06,-0 0.11,-0 0.17,-0 0.05,0 0.12,0.01 0.15,-0.02 0.04,-0.04 0.02,-0.09 -0.02,-0.11 -0.03,-0.01 -0.66,-0.01 -0.8,-0.01 -0.05,0 -0.08,0.02 -0.08,0.07 -0,0.05 0.03,0.07 0.08,0.07z"/>
   <path class="fil1" d="M0.91 1.07l0.74 -0c0.05,0 0.09,-0.01 0.1,-0.05 0.01,-0.07 -0.05,-0.08 -0.1,-0.08l-0.74 0c-0.05,0 -0.08,0.02 -0.08,0.07 0,0.05 0.04,0.07 0.09,0.07z"/>
  </g>
 </g>
</svg>
