<?xml version="1.0" encoding="UTF-8"?>
<!DOCTYPE svg PUBLIC "-//W3C//DTD SVG 1.1//EN" "http://www.w3.org/Graphics/SVG/1.1/DTD/svg11.dtd">
<!-- Creator: CorelDRAW 2019 (64-Bit) -->
<svg xmlns="http://www.w3.org/2000/svg" xml:space="preserve" width="0.20535in" height="0.200008in" version="1.1" style="shape-rendering:geometricPrecision; text-rendering:geometricPrecision; image-rendering:optimizeQuality; fill-rule:evenodd; clip-rule:evenodd"
viewBox="0 0 5.05 4.92"
 xmlns:xlink="http://www.w3.org/1999/xlink">
 <defs>
  <style type="text/css">
   <![CDATA[
    .fil0 {fill:#012362}
    .fil2 {fill:#6CBBE9}
    .fil1 {fill:#F9F9F9}
   ]]>
  </style>
 </defs>
 <g id="Layer_x0020_1">
  <metadata id="CorelCorpID_0Corel-Layer"/>
  <g id="_2967046647120">
   <g>
    <path class="fil0" d="M0 0.56c-0,1.32 -0,2.63 -0,3.95 0,0.11 -0.01,0.25 0.04,0.32 0.07,0.09 0.14,0.09 0.28,0.09l4.34 -0c0.13,0 0.23,0.02 0.31,-0.05 0.09,-0.08 0.08,-0.15 0.08,-0.28l-0 -3.26c0,-0.24 0.01,-0.49 -0,-0.73 0,-0.18 0.02,-0.24 -0.58,-0.21 -0.09,0 -0.17,0 -0.26,0 -0.08,0 -0.19,-0.02 -0.23,0.04 -0.05,0.07 0.01,0.15 0.09,0.15l0.52 -0c0.08,0 0.16,-0 0.24,-0 0.02,0.03 0.03,0.01 0.03,0.08l0 0.75 -4.66 -0 0 -0.81c0.01,-0.03 0.03,-0.03 0.07,-0.03l0.55 0c0.1,0 0.27,0.03 0.27,-0.09 0.01,-0.13 -0.17,-0.1 -0.27,-0.1 -0.21,0 -0.42,0 -0.64,0 -0.05,0.01 -0.17,0.12 -0.17,0.18z"/>
    <path class="fil1" d="M0.18 4.61l-0.03 -0.02c-0.02,0.06 0,0.03 0.01,0.07l0 0.01c0,0 -0,0 0,0.01 0,0.02 -0.01,-0.01 0,0.02 0.01,0.02 0.02,0.02 0.03,0.02 0.05,0.02 0.22,0 0.31,0l4.23 0c0.13,0 0.12,-0 0.12,-0.14l0 -1.99c0,-0.33 0.01,-0.68 -0,-1.01 -0.16,0.01 -0.93,0 -1.16,0 -0.39,0 -0.78,0 -1.17,0l-1.75 0c-0.18,0 -0.42,0.01 -0.58,-0 -0,1.08 -0.01,1.71 -0.02,3.02z"/>
    <path class="fil0" d="M2.46 0.58l0.76 0c0.07,0 0.13,0.01 0.16,-0.05 0.03,-0.05 0,-0.12 -0.04,-0.14 -0.08,-0.03 -1.29,-0.01 -1.52,-0.01 -0.08,-0 -0.14,0.01 -0.15,0.09 -0.01,0.14 0.19,0.11 0.34,0.11 0.15,0 0.3,0 0.45,0z"/>
    <path class="fil0" d="M1.33 0.01c-0.03,0.02 -0.05,0.05 -0.05,0.09 -0.01,0.18 0,0.51 0,0.71 -0,0.05 -0,0.09 0.03,0.12 0.03,0.02 0.07,0.04 0.11,0.02 0.07,-0.04 0.05,-0.14 0.05,-0.23l0 -0.57c0,-0.05 0.01,-0.09 -0.03,-0.12 -0.02,-0.02 -0.07,-0.04 -0.11,-0.02z"/>
    <path class="fil0" d="M3.63 0.01c-0.07,0.04 -0.05,0.15 -0.05,0.24l-0 0.57c-0,0.05 -0,0.09 0.03,0.12 0.03,0.02 0.07,0.04 0.11,0.02 0.07,-0.04 0.05,-0.14 0.05,-0.23l0 -0.57c0,-0.05 0,-0.09 -0.03,-0.12 -0.02,-0.02 -0.07,-0.04 -0.11,-0.02z"/>
   </g>
   <g>
    <rect class="fil2" x="0.28" y="1.96" width="0.36" height="0.36"/>
    <rect class="fil2" x="0.87" y="1.96" width="0.36" height="0.36"/>
    <rect class="fil2" x="1.46" y="1.96" width="0.36" height="0.36"/>
    <rect class="fil2" x="2.05" y="1.96" width="0.36" height="0.36"/>
    <rect class="fil2" x="2.64" y="1.96" width="0.36" height="0.36"/>
    <rect class="fil2" x="3.23" y="1.96" width="0.36" height="0.36"/>
    <rect class="fil2" x="3.82" y="1.96" width="0.36" height="0.36"/>
    <rect class="fil2" x="4.41" y="1.96" width="0.36" height="0.36"/>
   </g>
   <g>
    <rect class="fil2" x="0.28" y="2.63" width="0.36" height="0.36"/>
    <rect class="fil2" x="0.87" y="2.63" width="0.36" height="0.36"/>
    <rect class="fil2" x="1.46" y="2.63" width="0.36" height="0.36"/>
    <rect class="fil2" x="2.05" y="2.63" width="0.36" height="0.36"/>
    <rect class="fil2" x="2.64" y="2.63" width="0.36" height="0.36"/>
    <rect class="fil2" x="3.23" y="2.63" width="0.36" height="0.36"/>
    <rect class="fil2" x="3.82" y="2.63" width="0.36" height="0.36"/>
    <rect class="fil2" x="4.41" y="2.63" width="0.36" height="0.36"/>
   </g>
   <g>
    <rect class="fil2" x="0.28" y="3.29" width="0.36" height="0.36"/>
    <rect class="fil2" x="0.87" y="3.29" width="0.36" height="0.36"/>
    <rect class="fil2" x="1.46" y="3.29" width="0.36" height="0.36"/>
    <rect class="fil2" x="2.05" y="3.29" width="0.36" height="0.36"/>
    <rect class="fil2" x="2.64" y="3.29" width="0.36" height="0.36"/>
    <rect class="fil2" x="3.23" y="3.29" width="0.36" height="0.36"/>
    <rect class="fil2" x="3.82" y="3.29" width="0.36" height="0.36"/>
    <rect class="fil2" x="4.41" y="3.29" width="0.36" height="0.36"/>
   </g>
   <g>
    <rect class="fil2" x="0.28" y="3.96" width="0.36" height="0.36"/>
    <rect class="fil2" x="0.87" y="3.96" width="0.36" height="0.36"/>
    <rect class="fil2" x="1.46" y="3.96" width="0.36" height="0.36"/>
    <rect class="fil2" x="2.05" y="3.96" width="0.36" height="0.36"/>
    <rect class="fil2" x="2.64" y="3.96" width="0.36" height="0.36"/>
    <rect class="fil2" x="3.23" y="3.96" width="0.36" height="0.36"/>
    <rect class="fil2" x="3.82" y="3.96" width="0.36" height="0.36"/>
    <rect class="fil2" x="4.41" y="3.96" width="0.36" height="0.36"/>
   </g>
  </g>
 </g>
</svg>
