<?xml version="1.0" encoding="UTF-8"?>
<!DOCTYPE svg PUBLIC "-//W3C//DTD SVG 1.1//EN" "http://www.w3.org/Graphics/SVG/1.1/DTD/svg11.dtd">
<!-- Creator: CorelDRAW 2019 (64-Bit) -->
<svg xmlns="http://www.w3.org/2000/svg" xml:space="preserve" width="0.319768in" height="0.400004in" version="1.1" style="shape-rendering:geometricPrecision; text-rendering:geometricPrecision; image-rendering:optimizeQuality; fill-rule:evenodd; clip-rule:evenodd"
viewBox="0 0 35.25 44.1"
 xmlns:xlink="http://www.w3.org/1999/xlink">
 <defs>
  <style type="text/css">
   <![CDATA[
    .fil0 {fill:white}
    .fil1 {fill:white;fill-rule:nonzero}
   ]]>
  </style>
 </defs>
 <g id="Layer_x0020_1">
  <metadata id="CorelCorpID_0Corel-Layer"/>
  <g id="_2315643076816">
   <path class="fil0" d="M14.93 16c-0.15,-0.25 -0.3,-0.74 -0.46,-1.06 -0.72,-1.48 0.02,-1.49 -0.05,-4.14 -0.04,-1.68 -0.47,-3.83 -1.14,-5.19 -0.75,-1.52 -1.71,-2.31 -3.25,-3.12 -0.63,-0.33 -4.07,-1.73 -4.75,-1.52 -0.34,0.23 -0.28,0.77 -0.32,1.19l-0.38 4.14c-0.13,1.81 -0.05,3.7 0.53,5.33 0.83,2.32 3.03,3.34 5.39,3.64 1.21,0.15 1.84,-0.02 2.94,-0.03 0.12,0.4 0.27,0.71 0.37,1.15 0.1,0.41 0.15,0.85 0.2,1.29 0.14,1.17 -0.17,1.77 -0.25,2.84 0.9,-0.17 1.09,-0.15 1.98,-0.01 0.16,-2.27 0.61,-4.36 1.64,-6.04 0.56,-0.91 1.56,-1.81 2.15,-2.57 0.13,-0.16 0.34,-0.45 0.45,-0.56l5.06 -4.52c0.92,-0.73 3.53,-2.69 4.5,-3.16l-1.48 1.38c-0.15,0.12 -0.25,0.18 -0.39,0.33l-3.42 3.16c-1.53,1.35 -4.19,4.64 -5.45,6.21 -0.22,0.28 -0.5,0.58 -0.63,0.86 0.52,0.35 3.34,0.2 4.12,0.18 4.13,-0.08 6.47,-1.34 8.79,-4.36 1.96,-2.56 3.29,-5.9 3.9,-9.27 0.38,-2.13 0.66,-2.29 -1.66,-2.1 -3.84,0.32 -10.76,1.69 -13.72,3.88 -1.52,1.12 -3.18,2.77 -3.19,5.64 -0.01,3.46 1.07,2.17 0.06,3.53 -0.75,1 -1,1.62 -1.55,2.88z"/>
   <path class="fil0" d="M12.88 23.12c-0.69,0.03 -1.43,-0.03 -1.99,0.29 -0.47,0.27 -0.84,0.84 -0.71,1.62 0.08,0.51 0.53,1.11 0.78,1.5 0.25,0.39 0.79,1.12 0.92,1.47 -0.42,0.19 -1.88,1.31 -2.13,1.58 -0.08,0.09 -0.11,0.15 -0.2,0.23 -0.1,0.1 -0.16,0.12 -0.27,0.23 -0.36,0.37 -0.87,1.13 -1.17,1.62 -2.42,3.99 0.3,7.22 -0.86,9.3 -0.19,0.34 -0.58,0.8 -0.64,1.21 -0.29,1.93 2.95,1.07 4.1,1.27 1.06,0.18 1.94,0.56 3.08,0.64 1.17,0.08 2.29,-0.13 3.41,-0.33 1.23,-0.22 2.01,-0.33 3.32,-0.39 3.43,-0.15 1.08,-1.06 0.85,-2.87 -0.08,-0.62 -0.04,-1.22 0.05,-1.84 0.37,-2.81 0.86,-3.63 -0.3,-6.34 -0.43,-1 -0.84,-1.48 -1.48,-2.24 -0.27,-0.32 -0.6,-0.62 -0.94,-0.92 -0.36,-0.3 -0.68,-0.49 -1.09,-0.78 0.19,-1.01 0.99,-2.66 1.36,-3.62 0.27,-0.71 -0,-1.51 -0.42,-1.83 -0.73,-0.56 -1.25,-0.3 -2.12,-0.15 -0.22,-0.55 -0.95,-1.08 -1.91,-0.97 -0.81,0.09 -1.41,0.69 -1.64,1.3zm-0.98 8.84l6.27 0 0 0.01c-0.37,0.57 -0.58,0.87 -0.63,0.91l-1.68 0c0.23,0.27 0.39,0.6 0.47,0.98l1.78 0c0.02,0 0.03,0.01 0.03,0.03 -0.4,0.6 -0.6,0.9 -0.61,0.9l-1.16 0c-0.02,0.31 -0.17,0.68 -0.44,1.11 -0.36,0.44 -0.7,0.72 -1.02,0.85 -0.61,0.29 -1.19,0.44 -1.75,0.44l0 0.01c0,0.04 1.26,1.54 3.77,4.48l-1.66 0c-2.45,-2.85 -3.68,-4.29 -3.68,-4.3l0 -0.87 0.01 -0.03c0.22,0.03 0.47,0.05 0.76,0.05 1.37,0 2.23,-0.45 2.56,-1.34 0.05,-0.13 0.08,-0.27 0.08,-0.41l-3.73 0c-0.02,0 -0.03,-0.01 -0.03,-0.02 0.41,-0.6 0.63,-0.9 0.63,-0.9l2.96 0 0 -0.01c-0.17,-0.34 -0.5,-0.61 -0.99,-0.8 -0.35,-0.11 -0.66,-0.17 -0.94,-0.17l-1.66 0 0 -0.03c0.4,-0.59 0.61,-0.89 0.62,-0.89z"/>
   <g>
    <path class="fil1" d="M4.45 32.02c0.3,-0 0.61,-0.01 0.91,-0.01 0.3,-0 0.61,-0.01 0.91,-0.01 0,0 0,0 0,0 -0.11,0.12 -0.17,0.18 -0.18,0.19 -0.16,0 -0.33,0 -0.49,0 0.07,0.05 0.11,0.12 0.14,0.2 0.09,-0 0.17,-0 0.26,-0 0.09,-0 0.17,-0 0.26,-0 0.01,0 0.01,0 0.01,0.01 -0.11,0.12 -0.17,0.19 -0.17,0.19 -0.12,0 -0.23,0 -0.34,0 -0.01,0.06 -0.05,0.14 -0.13,0.23 -0.11,0.09 -0.21,0.15 -0.31,0.18 -0.09,0.03 -0.18,0.06 -0.27,0.07 -0.09,0.02 -0.18,0.02 -0.26,0.03 0,0 0,0 0,0 0,0 0.09,0.08 0.28,0.23 0.19,0.15 0.49,0.38 0.89,0.67 -0.17,0 -0.35,0.01 -0.52,0.01 -0.38,-0.29 -0.67,-0.51 -0.85,-0.65 -0.18,-0.15 -0.27,-0.22 -0.27,-0.22 0,-0.06 0.01,-0.12 0.01,-0.18 0,-0 0,-0 0,-0.01 0.06,0.01 0.14,0.01 0.23,0.01 0.21,-0 0.38,-0.03 0.51,-0.08 0.13,-0.05 0.22,-0.12 0.27,-0.21 0.02,-0.03 0.02,-0.05 0.02,-0.08 -0.18,0 -0.37,0.01 -0.55,0.01 -0.18,0 -0.37,0 -0.55,0 -0,0 -0.01,-0 -0.01,-0 0.13,-0.13 0.19,-0.19 0.2,-0.19 0.14,-0 0.29,-0 0.43,-0 0.14,-0 0.29,-0 0.43,-0 0,-0 0,-0 0,-0 -0.05,-0.07 -0.15,-0.13 -0.29,-0.16 -0.1,-0.02 -0.19,-0.03 -0.27,-0.03 -0.16,0 -0.32,0 -0.48,0 0,-0 0,-0 0,-0.01 0.12,-0.12 0.18,-0.19 0.18,-0.19z"/>
    <path class="fil0" d="M6.59 42.93c0.06,0.1 0.03,0.09 0.37,0.03 0.39,-0.06 0.44,-0.12 0.6,-0.13 0.33,-0.03 0.63,-0.16 0.91,-0.26 0.19,-0.06 0.72,-0.29 0.89,-0.41 0.23,-0.17 0.46,-0.27 0.64,-0.52l0.13 -0.16c0.08,-0.09 0.16,-0.24 0.18,-0.37 0.02,-0.11 0,-0.08 0.04,-0.19 0.09,-0.24 0.01,-0.22 0.03,-0.62 0.02,-0.31 0,-0.66 0,-0.97 0,-0.48 0.05,-6.25 -0.03,-6.57 -0.12,-0.51 -0.66,-1.02 -1.15,-1.28 -0.21,-0.11 -0.44,-0.22 -0.64,-0.3 -2,-0.81 -5.91,-0.78 -7.78,0.56 -1,0.72 -0.77,1.58 -0.77,3l0 5.62c-0,0.66 0.09,1 0.5,1.39 1.14,1.11 3.65,1.41 5.29,1.32 0.15,-0.01 0.26,-0.03 0.42,-0.04 0.32,-0.02 0.18,-0.05 0.36,-0.12zm2.87 -2.36l0 -0.96c-0.15,0.05 -0.51,0.28 -0.88,0.41 -2.14,0.75 -5.1,0.8 -7.17,-0.19 -0.13,-0.06 -0.31,-0.19 -0.45,-0.22 0,0.26 0,0.53 0,0.79 -0,0.33 -0.02,0.43 0.16,0.63 0.24,0.26 0.61,0.47 0.97,0.61 1.82,0.72 4.97,0.73 6.65,-0.2 0.35,-0.19 0.72,-0.42 0.72,-0.89zm-8 -3.22c-0.15,-0.07 -0.36,-0.22 -0.5,-0.26 -0,0.61 -0.1,1.19 0.22,1.49 1.53,1.46 6.65,1.4 8.06,0.02 0.2,-0.2 0.23,-0.29 0.23,-0.62 -0,-0.29 -0,-0.59 0,-0.88 -0.18,0.06 -0.57,0.34 -1.27,0.56 -1.94,0.62 -4.95,0.55 -6.73,-0.3zm7.62 -1.15c0.2,-0.15 0.38,-0.3 0.38,-0.64 0,-0.32 0.02,-0.74 -0.01,-1.04 -0.35,0.16 -0.38,0.24 -0.88,0.43 -0.71,0.26 -1.93,0.53 -2.67,0.53 -1.28,-0 -1.57,0.08 -3,-0.22 -0.49,-0.11 -1.05,-0.28 -1.49,-0.49 -0.16,-0.08 -0.32,-0.18 -0.44,-0.23 -0.02,0.17 -0.03,1.09 0,1.23 0.46,1.93 6.61,1.61 8.11,0.45zm-4.42 -4.59c-0.21,0.03 -0.47,0.01 -0.69,0.04 -0.59,0.08 -1.18,0.19 -1.73,0.4 -3.99,1.53 2.45,3.4 5.95,2.05 0.51,-0.2 1.74,-0.73 1.09,-1.42 -0.86,-0.91 -3.55,-1.23 -4.62,-1.08z"/>
   </g>
  </g>
 </g>
</svg>
