<?xml version="1.0" encoding="UTF-8"?>
<!DOCTYPE svg PUBLIC "-//W3C//DTD SVG 1.1//EN" "http://www.w3.org/Graphics/SVG/1.1/DTD/svg11.dtd">
<!-- Creator: CorelDRAW 2019 (64-Bit) -->
<svg xmlns="http://www.w3.org/2000/svg" xml:space="preserve" width="0.481213in" height="0.4in" version="1.1" style="shape-rendering:geometricPrecision; text-rendering:geometricPrecision; image-rendering:optimizeQuality; fill-rule:evenodd; clip-rule:evenodd"
viewBox="0 0 86.17 71.63"
 xmlns:xlink="http://www.w3.org/1999/xlink">
 <defs>
  <style type="text/css">
   <![CDATA[
    .fil0 {fill:white;fill-rule:nonzero}
   ]]>
  </style>
 </defs>
 <g id="Layer_x0020_1">
  <metadata id="CorelCorpID_0Corel-Layer"/>
  <g id="_2315523261648">
   <g>
    <path class="fil0" d="M39.78 66.71c-1.64,-5.3 -3.16,-10.29 -4.77,-15.24 -0.15,-0.44 -0.93,-0.97 -1.42,-0.97 -7.25,-0.06 -14.51,-0.05 -21.76,0 -0.45,0 -1.18,0.46 -1.3,0.85 -1.62,5.02 -3.16,10.06 -4.79,15.35 4.49,0 8.74,0 12.98,0 2.3,-0 4.61,-0 6.91,-0.01 1.67,-0 2.82,0.71 2.81,2.48 -0,1.65 -1.1,2.41 -2.67,2.42 -7.73,0.02 -15.46,0.04 -23.19,-0.02 -2.05,-0.02 -3.01,-1.46 -2.4,-3.48 2.06,-6.81 4.18,-13.59 6.25,-20.4 0.47,-1.54 1.45,-2.15 3.02,-2.14 8.88,0.02 17.76,0.01 26.64,-0 1.57,-0 2.53,0.67 2.99,2.2 2.07,6.8 4.2,13.59 6.26,20.4 0.61,2.01 -0.37,3.39 -2.45,3.45 -2.85,0.08 -5.69,0.02 -8.54,0.01 -1.62,-0.01 -2.62,-0.83 -2.61,-2.45 0.01,-1.64 1.09,-2.4 2.67,-2.42 1.69,-0.03 3.38,-0.01 5.38,-0.01z"/>
    <path class="fil0" d="M80.46 66.71c-1.64,-5.33 -3.18,-10.37 -4.79,-15.38 -0.13,-0.39 -0.85,-0.84 -1.3,-0.84 -7.58,-0.05 -15.16,-0.04 -22.9,-0.04 -0.59,1.86 -1.17,3.64 -1.72,5.43 -0.49,1.58 -1.48,2.53 -3.17,2.01 -1.66,-0.51 -2.02,-1.81 -1.51,-3.42 0.71,-2.26 1.39,-4.53 2.07,-6.8 0.45,-1.53 1.46,-2.14 3.03,-2.13 8.81,0.03 17.62,0.03 26.42,0.01 1.75,-0.01 2.73,0.71 3.24,2.41 1.99,6.61 4.07,13.2 6.09,19.8 0.76,2.47 -0.2,3.85 -2.75,3.86 -10.77,0.02 -21.55,0 -32.32,0.01 -1.68,0 -2.83,-0.7 -2.84,-2.45 -0.01,-1.76 1.17,-2.45 2.83,-2.45 9.08,-0 18.16,-0 27.24,-0.01 0.67,0 1.34,0 2.38,0z"/>
    <path class="fil0" d="M63.52 40.44c-0.58,0.5 -1.27,1.49 -2.19,1.8 -1.35,0.45 -2.35,-0.45 -2.77,-1.75 -0.98,-3.02 -2,-6.04 -2.78,-9.12 -0.43,-1.71 -1.24,-2.14 -2.93,-2.12 -6.63,0.11 -13.27,0.11 -19.91,0.01 -1.53,-0.02 -2.1,0.52 -2.48,1.9 -0.83,3 -1.85,5.94 -2.73,8.93 -0.47,1.59 -1.35,2.53 -3.09,2.15 -1.51,-0.33 -2.13,-1.75 -1.58,-3.56 1.21,-4.02 2.48,-8.01 3.68,-12.03 0.48,-1.61 1.48,-2.26 3.14,-2.26 8.8,0.03 17.61,0.03 26.41,0 1.46,-0 2.56,0.46 3.01,1.88 1.36,4.32 2.67,8.66 4,13 0.06,0.19 0.08,0.4 0.22,1.17z"/>
    <path class="fil0" d="M45.54 6.54c0,1.35 0.07,2.71 -0.02,4.06 -0.09,1.5 -0.96,2.42 -2.48,2.4 -1.53,-0.02 -2.35,-0.97 -2.38,-2.48 -0.04,-2.64 -0.05,-5.28 -0,-7.92 0.03,-1.58 0.85,-2.63 2.48,-2.6 1.63,0.03 2.39,1.08 2.39,2.68 0,1.29 0,2.57 0,3.86z"/>
    <path class="fil0" d="M27.76 19.77c-0.86,-0.48 -1.59,-0.72 -2.1,-1.2 -1.81,-1.72 -3.55,-3.52 -5.31,-5.3 -1.16,-1.17 -1.49,-2.52 -0.24,-3.74 1.25,-1.22 2.58,-0.85 3.74,0.32 1.81,1.82 3.73,3.56 5.38,5.51 0.52,0.62 0.64,1.9 0.41,2.73 -0.18,0.66 -1.18,1.09 -1.88,1.68z"/>
    <path class="fil0" d="M67.14 11.11c-0.51,0.87 -0.77,1.58 -1.26,2.09 -1.72,1.81 -3.51,3.56 -5.29,5.32 -1.19,1.18 -2.51,1.41 -3.73,0.14 -1.15,-1.2 -0.86,-2.48 0.24,-3.59 1.8,-1.83 3.55,-3.73 5.49,-5.4 0.64,-0.55 1.91,-0.79 2.73,-0.56 0.71,0.2 1.18,1.25 1.81,2z"/>
   </g>
  </g>
 </g>
</svg>
