<?xml version="1.0" encoding="UTF-8"?>
<!DOCTYPE svg PUBLIC "-//W3C//DTD SVG 1.1//EN" "http://www.w3.org/Graphics/SVG/1.1/DTD/svg11.dtd">
<!-- Creator: CorelDRAW 2019 (64-Bit) -->
<svg xmlns="http://www.w3.org/2000/svg" xml:space="preserve" width="3.11177in" height="3.31199in" version="1.1" style="shape-rendering:geometricPrecision; text-rendering:geometricPrecision; image-rendering:optimizeQuality; fill-rule:evenodd; clip-rule:evenodd"
viewBox="0 0 1071.77 1140.73"
 xmlns:xlink="http://www.w3.org/1999/xlink">
 <defs>
  <style type="text/css">
   <![CDATA[
    .fil19 {fill:black}
    .fil0 {fill:#1177B2}
    .fil9 {fill:#141C23}
    .fil2 {fill:#1D4462}
    .fil5 {fill:#323132}
    .fil16 {fill:#8C101A}
    .fil12 {fill:#B3B3B3}
    .fil6 {fill:#B6B6B6}
    .fil11 {fill:#CCCCCC}
    .fil3 {fill:#CCCCCC}
    .fil17 {fill:#CF3334}
    .fil7 {fill:#E3A6B3}
    .fil10 {fill:#E6E6E6}
    .fil18 {fill:#F23C3B}
    .fil8 {fill:#F4B0CB}
    .fil1 {fill:#F4FDFD}
    .fil4 {fill:#FCFCFA}
    .fil13 {fill:url(#id6)}
    .fil21 {fill:url(#id7)}
    .fil14 {fill:url(#id8)}
    .fil15 {fill:url(#id9)}
    .fil20 {fill:url(#id10)}
    .fil22 {fill:url(#id11)}
   ]]>
  </style>
     <mask id="id0">
  <linearGradient id="id1" gradientUnits="userSpaceOnUse" x1="696.43" y1="247.57" x2="703.17" y2="957.15">
   <stop offset="0" style="stop-opacity:1; stop-color:white"/>
   <stop offset="0.670588" style="stop-opacity:21.5804; stop-color:white"/>
   <stop offset="1" style="stop-opacity:0; stop-color:white"/>
  </linearGradient>
      <rect style="fill:url(#id1)" x="803.3" y="820.36" width="269.67" height="155.03"/>
     </mask>
     <mask id="id2">
  <linearGradient id="id3" gradientUnits="userSpaceOnUse" x1="696.43" y1="247.57" x2="703.17" y2="957.15">
   <stop offset="0" style="stop-opacity:1; stop-color:white"/>
   <stop offset="0.670588" style="stop-opacity:0.501961; stop-color:white"/>
   <stop offset="1" style="stop-opacity:0; stop-color:white"/>
  </linearGradient>
      <rect style="fill:url(#id3)" x="590.75" y="820.32" width="242.65" height="155.07"/>
     </mask>
     <mask id="id4">
  <linearGradient id="id5" gradientUnits="userSpaceOnUse" x1="696.43" y1="247.57" x2="703.17" y2="957.15">
   <stop offset="0" style="stop-opacity:1; stop-color:white"/>
   <stop offset="0.670588" style="stop-opacity:1.50196; stop-color:white"/>
   <stop offset="1" style="stop-opacity:0; stop-color:white"/>
  </linearGradient>
      <rect style="fill:url(#id5)" x="350.79" y="820.14" width="270.42" height="155.25"/>
     </mask>
  <linearGradient id="id6" gradientUnits="userSpaceOnUse" x1="842.35" y1="800.6" x2="990.29" y2="447.03">
   <stop offset="0" style="stop-opacity:1; stop-color:#1351A6"/>
   <stop offset="1" style="stop-opacity:1; stop-color:#2FC2E3"/>
  </linearGradient>
  <linearGradient id="id7" gradientUnits="userSpaceOnUse" xlink:href="#id6" x1="615.81" y1="866.06" x2="808.34" y2="1198.73">
  </linearGradient>
  <linearGradient id="id8" gradientUnits="userSpaceOnUse" xlink:href="#id6" x1="615.81" y1="776.6" x2="808.34" y2="443.94">
  </linearGradient>
  <linearGradient id="id9" gradientUnits="userSpaceOnUse" xlink:href="#id6" x1="432.26" y1="799.51" x2="585.4" y2="438.99">
  </linearGradient>
  <linearGradient id="id10" gradientUnits="userSpaceOnUse" xlink:href="#id6" x1="842.35" y1="842.06" x2="990.29" y2="1195.64">
  </linearGradient>
  <linearGradient id="id11" gradientUnits="userSpaceOnUse" xlink:href="#id6" x1="432.26" y1="843.16" x2="585.4" y2="1203.68">
  </linearGradient>
 </defs>
 <g id="Layer_x0020_1">
  <metadata id="CorelCorpID_0Corel-Layer"/>
  <g id="_2967039097168">
   <path class="fil0" d="M615.64 691.24c-7.5,0.16 -13.92,0.37 -19.08,0.63 -69.48,3.48 -188.84,13.86 -195.07,82.53 -8.63,95.12 397.21,187.61 477.94,210.62 -27.93,13.27 -316.06,0.25 -377.6,5.2 0.11,0.17 -73.57,-4.56 -83.74,3.7 30.59,9.4 63.18,20.64 80.88,42.11 28.11,34.09 -17.31,61.49 -41.28,69.41l79.85 1.61c27.87,-0.76 55.85,-0.83 83.75,-1.43 116.3,-2.48 373.57,8.16 430.98,-67.85 32.9,-43.56 4.78,-85.81 -29.46,-106.86 -35.16,-21.62 -75.41,-34.19 -119.92,-47.71 -100.14,-30.4 -220.06,-55.74 -328.46,-87.09 -15.53,-4.67 -12.68,-5.12 -17.34,-12.05 53.52,-6.02 109.59,-8.52 166.64,-9.71l-108.09 -83.1z"/>
   <path class="fil1" d="M232.01 452.7c-3.89,11.09 -11.34,10.67 -24.74,16.05 -16.42,6.58 -93.79,53.74 -109.18,69.87 -2.98,20.48 6.37,20.05 14.59,34.09 7.83,2.5 26.68,24.67 29.43,31l18.05 15.47c3.16,3.6 4.73,5.63 6.69,8.02 5.02,3.43 4.26,1.03 6.2,7.19 9.35,-0.57 12,-1.72 18.44,-4.87 3.2,-7.72 1.22,-0.8 1.88,-11.44 -8.12,-6.15 -5.08,-3.64 -10,-11.84l-9.59 -11.38c-7.41,-7.44 -27.93,-31.08 -33.55,-40.74 8.31,-7.25 46.99,-24.43 56.67,-25.07l0.26 11.85 2.15 23.62 3.48 18.46 0.51 10.16c5.07,12.13 1.01,18.11 4.15,32.75l-7.52 1.64c0.79,5.66 -0.88,3.41 1.5,6.61 8.31,11.18 -9.96,-6.07 3.95,2.93 0.26,0.17 1.25,0.42 1.8,0.75l-2.9 14.98 1.25 3.41 2.72 2.65c30.97,5.46 62.05,2.12 93.19,1.03 3.78,-5.49 3.61,-20.75 -2.56,-18 -14.11,7.25 -10.81,0.52 -13.04,-4.05l18.91 -13.34 6.13 -61.09 -0.65 -18.11c0.14,-5.07 -0.73,-3.09 0.61,-9.77 1.16,-5.75 1.8,-4.84 3.57,-8.01 3.16,0.23 44.4,18.94 48.27,21.61 3.67,2.53 3.27,2.86 5.38,5l-11.05 14.84c-8.71,7.68 -15.33,17.48 -22.9,26.63 -8.21,9.93 -10.63,15.38 -21.19,23.58 4.86,11.34 -1.98,1.32 7.02,10.29 10.99,10.94 -0.82,4.77 12.12,6.23 6.57,-7.17 9.47,-10.09 16.38,-16.49 4.06,-3.76 4.31,-4.42 7.71,-7.66 5.85,-5.59 3.14,-3.49 9.8,-7.34l10.45 -11.05c16.92,-37.94 64.65,-35.43 7.69,-74.62 -10.43,-7.18 -20.11,-13.23 -30.52,-20.44 -11.77,-7.5 -22.51,-15.97 -34.53,-23.05 -15.35,-9.05 -26.89,-7.87 -35.22,-22.06l-10.41 -1.74 -31.17 -1.84 -10.23 3.31z"/>
   <path class="fil2" d="M207.48 681.2c1.53,27.32 6.98,154.93 0.84,172.17l6.85 176.76 -0.73 7.62 22.8 0.08 5.39 -64.4c-0.69,-11.33 -0.43,-29.71 4.69,-36.96 -3.64,-23.84 4.1,-82.16 8.16,-106.45 6.05,16.8 14.66,112.71 11.36,130.25 5.43,0 3.15,9.23 3.09,14.33l3.87 67.18c8.26,-4.04 14.72,-4.61 25.61,-1.31l-0.24 -64.18 3.05 -316.99 -0.79 0.59c-31.14,1.09 -62.22,4.43 -93.19,-1.03l-0.77 22.35z"/>
   <path class="fil3" d="M128.2 984.87c-35.88,8.45 -72.84,16.74 -99.42,34.19 -39.38,25.86 -37.59,52.7 0.67,77.26 52.42,33.65 147.92,43.07 223.21,44.4l-3.9 -11.9c-6.62,-6.73 -42.7,-63.51 -46.44,-77.06l-5.93 -8.94 17.84 -4.98 0.73 -7.62 -3.37 -55.39 -83.39 10.03z"/>
   <path class="fil3" d="M299.42 1040.46l14.29 0.03 44.5 29.08c13.71,9.03 28.14,17.29 39.96,24.2 8.6,5.03 10.89,7.18 18.72,12.09 12.2,7.66 10.17,8.13 24.88,5.37l15.92 -5.8c23.97,-7.92 69.39,-35.33 41.28,-69.41 -17.7,-21.46 -50.29,-32.71 -80.88,-42.11 -35.37,-8.15 -79.2,-19.29 -118.92,-17.64l0.24 64.18z"/>
   <path class="fil4" d="M237.24 1037.83l1.84 21.35c18.06,9.44 33.4,26.61 46.23,37.06 8.97,3.66 15.03,10.73 22.48,16.55 8.52,6.67 16.52,12.24 19.97,18.49l20.05 0.56c-6.31,-7.12 -10.51,-11.39 -14.94,-18.22 -7.6,-4.86 -20.6,-19.08 -28.29,-25.7 -10.78,-9.27 -23.45,-15.36 -28.4,-29.48l-3.98 -1.75 1.63 -14.93 -3.87 -67.18 -27.31 -1.16 -5.39 64.4z"/>
   <path class="fil5" d="M260.79 365.95c-23.29,-6.28 -40.12,2.89 -42.83,24.05 -3.44,26.91 15.94,30.41 17.92,52.41l6.62 2.14c19.41,-2.26 18.11,-14.43 18.17,-33.05 3.15,-1.12 0.8,-1.31 5.65,-0.77 0.78,0.09 6.33,1.48 8.08,1.83l-1.59 -23.15 10.61 -3.99 1.54 -1.19c4.45,-11.8 5.68,-8.36 4.41,-22.5l-28.59 4.22z"/>
   <path class="fil6" d="M285.31 1096.23c-12.84,-10.45 -28.17,-27.62 -46.23,-37.06 -20.65,-2.7 -17.78,0.7 -36.55,-7.51 3.74,13.55 39.81,70.33 46.44,77.06l3.89 11.9 -0.31 -0.26c32.57,-1.14 63.67,-3.31 95.93,-4.49 11.97,-3.88 29.8,-5.66 43.38,-8.4 16.57,-3.34 32.48,-8.2 48.59,-12.37l1.33 -3.86c-14.7,2.76 -12.68,2.28 -24.88,-5.37 -7.83,-4.91 -10.12,-7.07 -18.72,-12.09 -11.82,-6.91 -26.25,-15.17 -39.96,-24.2l-44.5 -29.08 0.46 9.03c-18.44,7.7 -14.65,9.32 -38.02,8.91 4.95,14.11 17.62,20.2 28.4,29.48 7.69,6.61 20.69,20.84 28.29,25.7 4.43,6.83 8.63,11.1 14.94,18.22l-20.05 -0.56c-3.44,-6.25 -11.45,-11.83 -19.97,-18.49 -7.44,-5.82 -13.51,-12.89 -22.48,-16.55z"/>
   <path class="fil7" d="M242.5 444.56l-0.26 4.83 31.17 1.84 -0.99 -10.02c5.49,-1.36 3.63,0.07 9.56,-3.11l8.88 -6.13c-1.61,-9.02 -0.42,-14 -0.86,-23.54 -0.21,-4.55 -0.19,-6.69 -1.25,-11.03l-5.32 -11.98 -10.61 3.99 1.59 23.15c-1.75,-0.35 -7.3,-1.74 -8.08,-1.83 -4.85,-0.54 -2.5,-0.35 -5.65,0.77 -0.07,18.62 1.23,30.79 -18.17,33.05z"/>
   <path class="fil8" d="M304.75 624.49l-18.91 13.34c2.24,4.57 -1.06,11.3 13.04,4.05 6.17,-2.75 6.35,12.52 2.56,18l0.79 -0.59c6.85,-5.66 7.84,-6.02 15.12,-7.35 10.78,-4.23 9.99,-5.4 15.22,-13.34l-0.51 -2.92c-12.95,-1.46 -1.13,4.71 -12.12,-6.23 -9,-8.97 -2.17,1.05 -7.02,-10.29 -5.12,9.04 1.01,3.2 -8.17,5.32z"/>
   <path class="fil7" d="M193.35 618.07c-0.66,10.64 1.32,3.73 -1.88,11.44 -6.44,3.15 -9.08,4.3 -18.44,4.87 0.8,0.6 1.94,0.47 2.39,1.83 0.45,1.35 1.77,1.38 2.36,1.84 0.58,0.46 1.69,1.31 2.33,1.81l4.54 3.59c5.89,5.78 3.34,4.4 5.68,8.39 4.18,0.9 9.7,2.58 15.2,4.36l-1.25 -3.41 2.9 -14.98c-0.56,-0.33 -1.54,-0.58 -1.8,-0.75 -13.91,-9.01 4.36,8.25 -3.95,-2.93 -2.38,-3.2 -0.71,-0.95 -1.5,-6.61l7.52 -1.64c-3.14,-14.64 0.92,-20.62 -4.15,-32.75l-4.46 26.51 -5.48 -1.57z"/>
   <path class="fil9" d="M202.53 1051.66c18.77,8.21 15.9,4.81 36.55,7.51l-1.84 -21.35 -22.8 -0.08 -17.84 4.98 5.93 8.94z"/>
   <path class="fil9" d="M273.82 1041.77l-1.63 14.93 3.98 1.75c23.37,0.41 19.58,-1.21 38.02,-8.91l-0.46 -9.03 -14.29 -0.03c-10.89,-3.31 -17.35,-2.74 -25.61,1.31z"/>
   <g>
    <path class="fil10" d="M712.31 159.06c-15.76,87.83 -31.52,175.67 -47.28,263.51 -15.05,3.62 -30.1,7.23 -45.15,10.85 -3.36,1.36 -6.72,2.71 -10.08,4.07 -30.14,19.14 -58.41,41.38 -85.45,65.68 62.65,-114.7 125.3,-229.41 187.95,-344.11z"/>
    <path class="fil11" d="M665.43 417.42c13.74,-7.14 28.04,-12.75 42.82,-17.05 4.11,-1.42 7.45,-0.65 10.27,1.55 14.39,6.81 28.73,14.18 42.35,24.61 -16.15,-89.32 -32.4,-178.45 -48.54,-267.77 -15.63,86.22 -31.26,172.44 -46.89,258.66z"/>
    <path class="fil12" d="M760.87 426.53c7.75,4.65 15.5,9.3 23.25,13.95 9.91,-0.76 21.35,5.14 33.33,13.17 19.08,8.67 40.21,14.59 63.94,17.05 -56.38,-103.98 -112.76,-207.96 -169.14,-311.95 16.21,89.26 32.42,178.51 48.63,267.77z"/>
    <path class="fil13" d="M1071.77 821.06c-79.31,0.26 -160.25,-0.55 -239.56,-0.29 -24.8,-131.75 -46.54,-262.48 -71.34,-394.24 7.94,4.65 14.88,9.04 22.82,13.69 7.59,-0.68 14.8,-0.11 19.81,5.16 24.73,12.37 49.82,22.17 77.91,24.98 63.45,116.9 126.91,233.8 190.36,350.7z"/>
    <path class="fil14" d="M832.2 820.76c-80.09,0.13 -160.17,0.26 -240.26,0.39 24.7,-134.53 48.8,-269.33 73.51,-403.86 12.99,-7.38 26.91,-13.07 40.93,-16.57 4.92,-2.22 9.19,-1.52 11.73,0.89 14.01,6.33 28.74,13.94 42.76,24.91 24.06,131.3 47.28,262.94 71.34,394.24z"/>
    <path class="fil15" d="M351.99 820.95c55.48,-101.72 110.96,-203.44 166.44,-305.16 7.89,-16.52 20.2,-28.76 35.84,-37.78 17.17,-16.61 46.47,-36.46 58.6,-41.76 3.98,-3.62 9.38,-5.06 15.42,-5.33 13.82,-3.54 26.94,-7.63 37.39,-13.76 -24.48,134.72 -48.95,269.45 -73.43,404.17 -80.09,-0.13 -160.17,-0.25 -240.26,-0.38z"/>
    <polygon class="fil16" points="837.2,101.53 791.47,124.78 792.64,97.27 "/>
    <polygon class="fil17" points="837.77,32.55 899.98,32.16 867.04,82.54 898.82,124 791.86,124.39 837.2,101.53 "/>
    <polygon class="fil18" points="837.98,6.98 837.2,101.53 712.81,101.91 712.81,6.59 "/>
    <rect class="fil19" x="707" y="0" width="10.07" height="169.73"/>
   </g>
   <g>
    <path class="fil20" style="mask:url(#id0)" d="M1071.77 821.61c-79.31,-0.26 -160.25,0.55 -239.56,0.29 -9.58,50.88 -18.7,101.6 -27.71,152.29l184.45 0 82.82 -152.59z"/>
    <path class="fil21" style="mask:url(#id2)" d="M832.2 821.9c-80.09,-0.13 -160.17,-0.26 -240.26,-0.39 9.34,50.86 18.59,101.77 27.83,152.68l184.82 0c9.14,-50.79 18.31,-101.57 27.61,-152.29z"/>
    <path class="fil22" style="mask:url(#id4)" d="M351.99 821.72l83.16 152.48 184.87 0 -27.77 -152.86c-80.09,0.13 -160.17,0.26 -240.26,0.39z"/>
   </g>
  </g>
 </g>
</svg>
