<?xml version="1.0" encoding="UTF-8"?>
<!DOCTYPE svg PUBLIC "-//W3C//DTD SVG 1.1//EN" "http://www.w3.org/Graphics/SVG/1.1/DTD/svg11.dtd">
<!-- Creator: CorelDRAW 2019 (64-Bit) -->
<svg xmlns="http://www.w3.org/2000/svg" xml:space="preserve" width="0.20026in" height="0.200004in" version="1.1" style="shape-rendering:geometricPrecision; text-rendering:geometricPrecision; image-rendering:optimizeQuality; fill-rule:evenodd; clip-rule:evenodd"
viewBox="0 0 4.8 4.79"
 xmlns:xlink="http://www.w3.org/1999/xlink">
 <defs>
  <style type="text/css">
   <![CDATA[
    .fil2 {fill:#023467}
    .fil0 {fill:#032B5B}
    .fil1 {fill:#6CBBE9}
   ]]>
  </style>
 </defs>
 <g id="Layer_x0020_1">
  <metadata id="CorelCorpID_0Corel-Layer"/>
  <g id="_2967046658448">
   <path class="fil0" d="M0.57 4.71c0.25,0.11 0.47,0.09 0.75,0.09l2.22 0c0.37,0 0.64,0.03 0.94,-0.24l0.07 -0.07c0.16,-0.17 0.25,-0.41 0.26,-0.65 0.01,-0.73 0,-1.49 0,-2.22 0,-0.19 0,-0.37 0,-0.56 0,-0.18 -0.12,-0.59 -0.23,-0.73 -0.05,-0.05 -0.11,-0.11 -0.16,-0.15 -0.2,-0.15 -0.39,-0.18 -0.64,-0.18 -0.94,0 -1.7,0 -2.47,0 -0.14,0 -0.28,-0.01 -0.42,0 -0.23,0.01 -0.44,0.13 -0.58,0.26 -0.14,0.14 -0.25,0.31 -0.29,0.55 -0.02,0.12 -0.01,0.29 -0.01,0.41l-0 2.09c0,0.38 -0.05,0.71 0.14,1.01 0.02,0.04 0.05,0.07 0.08,0.11 0.07,0.11 0.22,0.21 0.34,0.27zm0.43 -4.41c-0.1,0.01 -0.12,0.01 -0.22,0.05 -0.18,0.07 -0.33,0.21 -0.41,0.38 -0.07,0.15 -0.08,0.26 -0.08,0.45l0 2.37c0,0.08 -0,0.18 0,0.26 0.02,0.19 0.08,0.3 0.17,0.43l0.09 0.09c0.19,0.16 0.35,0.18 0.61,0.18 0.18,0 0.35,-0 0.53,0 0.35,0 0.7,0 1.05,0 0.18,0 0.35,0 0.53,0 0.17,0 0.36,0.01 0.53,-0 0.26,-0.01 0.51,-0.19 0.62,-0.42 0.03,-0.06 0.05,-0.13 0.07,-0.19 0.01,-0.04 0.01,-0.08 0.01,-0.12 0,-0.03 0,-0.04 0,-0.06 0,-0.02 -0,-0.04 -0,-0.07 0.01,-0.16 -0,-0.35 -0,-0.52l0 -1.84c-0,-0.21 0.02,-0.37 -0.09,-0.57l-0.05 -0.08c-0.07,-0.1 -0.18,-0.19 -0.28,-0.24 -0.15,-0.07 -0.26,-0.08 -0.45,-0.08l-2.38 -0c-0.08,0 -0.19,-0.01 -0.26,0z"/>
   <path class="fil1" d="M1.49 1.59c0.01,-0.04 0.01,-0.08 -0,-0.12 -0.01,-0.04 -0.04,-0.06 -0.05,-0.1 0.1,0 0.2,-0.02 0.3,-0.01 0.1,0.01 0.07,0.2 0.07,0.22l1.85 0c-0,-0.04 -0.02,-0.14 -0.02,-0.24 -0,-0.03 0,-0.12 0,-0.13 0.01,-0.03 0.02,-0.09 0.02,-0.12 -0.13,-0.01 -0.29,-0 -0.42,-0l-1.93 0c-0.07,0 -0.14,-0.01 -0.18,0.04 -0.03,0.04 -0.02,0.14 -0.02,0.2 0,0.22 -0.02,0.26 0.16,0.26 0.06,0 0.16,0.01 0.21,-0z"/>
   <path class="fil1" d="M1.71 2.31l0.14 -0.02c0.04,-0 0.11,-0 0.15,0 0.06,0.01 0.06,0.03 0.08,0.08 0.02,0.06 0.01,0.09 0,0.15l1.85 -0c-0.02,-0.28 -0.03,-0.2 0,-0.5 -0.76,-0.01 -1.53,-0 -2.3,-0 -0.27,0 -0.24,-0.02 -0.24,0.22 0,0.05 -0.01,0.19 0.01,0.22 0.03,0.07 0.09,0.05 0.18,0.05 0.17,0 0.18,0.02 0.19,-0.04 0.01,-0.08 -0.03,-0.12 -0.06,-0.17z"/>
   <path class="fil1" d="M1.23 3.44c-0,-0.1 -0.06,-0.13 -0.06,-0.16 0.09,-0.01 0.18,-0.01 0.27,-0.01 0.06,0 0.09,0.01 0.11,0.1 0,0.02 0,0.05 0.01,0.06 0.01,0.01 1.77,0.01 1.94,0 0,-0.02 -0.01,-0.08 -0.01,-0.11 -0.01,-0.13 -0.01,-0.13 0,-0.26 0,-0.04 0.01,-0.08 0.01,-0.12 -0.13,-0.01 -0.28,-0 -0.41,-0l-1.86 0c-0.05,0 -0.16,-0.01 -0.21,0 -0.07,0.01 -0.07,0.07 -0.07,0.14 0,0.07 0,0.14 0,0.21 -0,0.18 0.08,0.13 0.28,0.14z"/>
   <path class="fil0" d="M1.19 2.11l0 0.3c0,0.16 0.13,0.28 0.29,0.28l0.23 0c0.01,-0.06 0.01,-0.08 0.03,-0.13 -0.17,-0.02 -0.28,0.04 -0.36,-0.05 -0.02,-0.03 -0.04,-0.06 -0.04,-0.1l0 -0.3c0,-0.08 0.06,-0.13 0.14,-0.13l2.41 0c0.04,0 0.1,0.01 0.13,-0.02 0.03,-0.03 0.03,-0.08 0,-0.1 -0.03,-0.03 -0.08,-0.02 -0.13,-0.02 -0.05,0 -0.1,0 -0.15,0l-1.95 0 0.02 0.06c-0.04,-0 -0.09,-0.02 -0.12,-0.04 -0.02,-0.01 -0.02,-0.02 -0.05,-0.02l-0.06 0c-0.03,0 0.02,-0.01 -0.01,0 -0.03,0.01 -0.02,0.06 -0.03,0.1 -0.02,-0 -0.03,-0.03 -0.04,-0.05 -0.01,-0.02 -0.03,-0.04 -0.04,-0.06 -0.16,0.01 -0.28,0.11 -0.28,0.27z"/>
   <path class="fil0" d="M1.81 2.87c-0.02,-0.01 -0.03,-0.04 -0.05,-0.05 -0.01,-0.01 -0.01,-0.02 -0.02,-0.03 -0.01,-0.02 -0.01,-0.02 -0.04,-0.02l-0.59 0c-0.11,0 -0.18,-0 -0.26,0.05 -0.08,0.06 -0.1,0.13 -0.1,0.24l0 0.28c0,0.09 0.04,0.17 0.1,0.22 0.1,0.08 0.19,0.07 0.33,0.07 0,-0.03 0.01,-0.06 0.02,-0.09 0.01,-0.02 0.02,-0.03 0.02,-0.05 -0.02,0 -0.2,0 -0.22,-0.01 -0.06,-0.02 -0.1,-0.07 -0.1,-0.15l0 -0.3c0,-0.09 0.06,-0.13 0.14,-0.13l2.48 0c0.11,0 0.12,-0.14 -0.01,-0.14l-1.45 0c0.01,0.02 0.02,0.04 0.02,0.05 -0.03,-0.01 -0.06,-0.01 -0.08,-0.02 -0.08,-0.03 -0.02,-0.03 -0.15,-0.03 -0.03,0 -0.03,0 -0.04,0.04 -0,0.02 -0.01,0.04 -0.01,0.06z"/>
   <path class="fil0" d="M1.45 1.79c0,-0.03 0,-0.05 0.01,-0.08 0.01,-0.02 0.01,-0.05 0.02,-0.07 -0.06,0 -0.26,0.01 -0.31,-0.01 -0.04,-0.01 -0.07,-0.04 -0.08,-0.08 -0.02,-0.04 -0.01,-0.1 -0.01,-0.15 0,-0.15 -0.04,-0.33 0.12,-0.35 0.05,-0.01 0.11,-0 0.16,-0l2.23 0c0.04,0 0.13,0.01 0.15,-0 0.04,-0.02 0.06,-0.08 0.02,-0.11 -0.03,-0.03 -0.09,-0.02 -0.14,-0.02 -0.58,-0 -1.03,0 -1.51,0l-0.74 0c-0.12,0 -0.23,-0.01 -0.33,0.04 -0.08,0.05 -0.13,0.12 -0.13,0.24 0,0.08 -0.01,0.31 0.01,0.36 0.02,0.08 0.09,0.16 0.17,0.2 0.09,0.04 0.24,0.02 0.34,0.02z"/>
   <path class="fil2" d="M1.5 3.64c0.16,-0.01 0.33,-0 0.49,-0l1.48 0c0.04,0 0.08,0.01 0.11,-0.02 0.02,-0.02 0.03,-0.06 0.01,-0.09 -0.03,-0.05 -0.15,-0.04 -0.21,-0.04 -0.6,0 -1.21,0 -1.81,0l-0.03 -0c-0.01,0.03 -0.04,0.11 -0.04,0.15z"/>
   <path class="fil2" d="M1.78 1.78c0.05,0.01 1.62,0 1.8,0 0.07,0 0.2,0.02 0.21,-0.06 0.01,-0.11 -0.11,-0.08 -0.18,-0.08l-1.54 0c-0.08,0 -0.18,-0.01 -0.26,0 -0.03,0.03 -0.03,0.09 -0.03,0.14z"/>
   <path class="fil2" d="M2.04 2.69c0.05,0.01 1.62,0 1.8,0 0.07,0 0.19,0.02 0.21,-0.05 0.02,-0.1 -0.1,-0.08 -0.17,-0.08l-1.29 -0c-0.17,0 -0.35,0 -0.52,-0 -0.01,0.05 -0.03,0.07 -0.02,0.13z"/>
   <path class="fil0" d="M1.5 1.41c0.04,0.09 0.06,0.1 0.01,0.22 -0.03,0.09 -0.05,0.14 0.01,0.23 0.01,-0.01 0.01,-0.02 0.02,-0.03 0.01,-0.03 0.04,-0.07 0.07,-0.09 0.01,0.01 0.04,0.04 0.07,0.07 0.02,0.02 0.05,0.03 0.09,0.05 -0.01,-0.07 -0.04,-0.08 -0.01,-0.17 0.02,-0.06 0.04,-0.1 0.04,-0.17 -0,-0.03 -0.01,-0.06 -0.02,-0.08 -0.01,-0.03 -0.02,-0.03 -0.07,-0.03 -0.05,-0 -0.15,0 -0.19,0.01z"/>
   <path class="fil0" d="M1.77 2.34c0.01,0.04 0.07,0.07 0.01,0.23 -0.01,0.04 -0.03,0.08 -0.03,0.12 -0,0.03 0.01,0.1 0.04,0.11 0.02,-0.05 0.03,-0.09 0.08,-0.12 0.03,0.01 0.07,0.09 0.16,0.11 -0.02,-0.07 -0.03,-0.09 -0.01,-0.17 0.03,-0.09 0.06,-0.15 0.02,-0.25 -0.01,-0.03 -0.03,-0.03 -0.07,-0.03 -0.05,-0 -0.15,0 -0.2,0.01z"/>
   <path class="fil0" d="M1.23 3.32c0,0.02 0.03,0.06 0.03,0.1 0.01,0.07 -0.04,0.16 -0.04,0.18l-0.01 0.06c-0,0.04 0.01,0.1 0.04,0.11 0.02,-0.03 0.03,-0.09 0.08,-0.12 0.02,0.01 0.07,0.1 0.15,0.11 -0.01,-0.08 -0.03,-0.09 -0.01,-0.17 0.03,-0.09 0.06,-0.15 0.01,-0.24 -0.02,-0.03 -0.03,-0.03 -0.07,-0.03 -0.06,-0 -0.13,0 -0.19,0.01z"/>
  </g>
 </g>
</svg>
