<?xml version="1.0" encoding="UTF-8"?>
<!DOCTYPE svg PUBLIC "-//W3C//DTD SVG 1.0//EN" "http://www.w3.org/TR/2001/REC-SVG-20010904/DTD/svg10.dtd">
<!-- Creator: CorelDRAW 2019 (64-Bit) -->
<svg xmlns="http://www.w3.org/2000/svg" xml:space="preserve" width="0.157055in" height="0.16in" version="1.0" style="shape-rendering:geometricPrecision; text-rendering:geometricPrecision; image-rendering:optimizeQuality; fill-rule:evenodd; clip-rule:evenodd"
viewBox="0 0 400 408"
 xmlns:xlink="http://www.w3.org/1999/xlink">
 <defs>
  <style type="text/css">
   <![CDATA[
    .fil0 {fill:#082B4F;fill-rule:nonzero}
   ]]>
  </style>
 </defs>
 <g id="Layer_x0020_1">
  <metadata id="CorelCorpID_0Corel-Layer"/>
  <g id="_2584110232928">
   <polygon class="fil0" points="312,0 312,25 357,25 252,130 146,24 4,166 21,184 146,60 252,166 375,43 375,88 400,88 400,0 "/>
   <polygon class="fil0" points="0,408 81,408 81,263 0,263 "/>
   <polygon class="fil0" points="106,408 187,408 187,134 106,134 "/>
   <polygon class="fil0" points="212,408 293,408 293,211 212,211 "/>
   <polygon class="fil0" points="319,408 400,408 400,134 319,134 "/>
  </g>
 </g>
</svg>
