<?xml version="1.0" encoding="UTF-8"?>
<!DOCTYPE svg PUBLIC "-//W3C//DTD SVG 1.0//EN" "http://www.w3.org/TR/2001/REC-SVG-20010904/DTD/svg10.dtd">
<!-- Creator: CorelDRAW 2019 (64-Bit) -->
<svg xmlns="http://www.w3.org/2000/svg" xml:space="preserve" width="0.188429in" height="0.16in" version="1.0" style="shape-rendering:geometricPrecision; text-rendering:geometricPrecision; image-rendering:optimizeQuality; fill-rule:evenodd; clip-rule:evenodd"
viewBox="0 0 577 490"
 xmlns:xlink="http://www.w3.org/1999/xlink">
 <defs>
  <style type="text/css">
   <![CDATA[
    .fil0 {fill:white}
   ]]>
  </style>
 </defs>
 <g id="Layer_x0020_1">
  <metadata id="CorelCorpID_0Corel-Layer"/>
  <g id="_2583931353728">
   <path class="fil0" d="M17 312c2,1 4,7 5,9 2,3 4,6 5,9 12,22 32,43 52,57 2,1 7,6 11,5 2,-1 6,-5 -1,-9 -3,-2 -6,-4 -9,-7 -67,-52 -90,-147 -51,-226 3,-5 9,-17 12,-20l147 104c0,6 -6,28 -7,35l-19 88c-1,5 -5,14 0,16 7,2 7,-7 8,-12 1,-6 3,-12 4,-18 3,-12 6,-24 8,-36 5,-24 11,-47 16,-71 7,-1 16,1 23,1 8,0 16,1 23,1 8,0 16,1 23,1 4,0 8,0 12,1 5,1 22,1 30,1l67 3c3,11 -11,53 -18,68 -4,7 -7,12 -10,18 -2,3 -1,8 3,8 4,0 6,-5 7,-7 16,-27 25,-55 28,-87 0,-5 0,-8 -5,-9 -4,0 -10,0 -14,-1 -18,-1 -37,-2 -54,-3 -18,-1 -37,-2 -55,-3 -18,-1 -37,-2 -56,-3 0,-4 35,-70 38,-75 2,-5 37,-73 38,-74 1,-2 1,-2 1,-4 0,0 1,-1 1,-2 1,-1 0,-1 1,-1 1,-9 12,-8 -14,-18 -50,-21 -109,-19 -158,5 -16,8 -35,20 -46,31 -28,28 -46,54 -57,95 -6,22 -8,45 -5,69 1,11 3,22 6,32l10 28zm181 -100l74 -146c-5,-4 -29,-12 -38,-14 -13,-3 -32,-6 -46,-4 0,10 3,68 4,82l3 62c0,3 0,18 2,20zm-151 -91l123 87c4,3 15,11 18,12l-9 -172c-10,-1 -33,5 -42,8 -20,6 -83,43 -90,65z"/>
   <path class="fil0" d="M467 31c-9,1 -27,-5 -36,-8 -27,-8 -42,-15 -64,11 -7,7 -15,14 -20,25 -3,8 -4,31 -3,42 2,26 41,31 46,1 4,-23 -2,-21 13,-32 2,-2 12,-7 7,-12 -4,-4 -11,4 -14,6 -13,10 -12,10 -14,30 -1,7 -1,12 -5,17 -6,7 -23,7 -23,-14 1,-31 -2,-31 16,-51 6,-6 13,-17 26,-19 18,-2 46,16 74,14 2,3 4,7 5,11 1,2 2,4 2,6l22 51c3,6 8,17 10,23 -14,6 -14,22 -31,30 -9,5 -35,16 -41,21l0 5c6,4 8,1 22,-6 15,-7 31,-13 39,-25 4,-5 10,-15 15,-17 6,5 8,3 15,0 8,-3 44,-18 46,-20 4,-3 2,-11 -8,-7 -8,3 -43,19 -47,19 -3,-5 -8,-18 -11,-25l-32 -77 46 -20c11,-5 5,-11 1,-11 -2,0 -40,16 -47,20 -7,3 -10,3 -10,12z"/>
   <path class="fil0" d="M300 73c-1,5 -5,8 -5,13 -1,4 -1,3 -3,5 -2,2 -1,3 -4,5 0,4 -53,105 -54,107 -6,12 5,10 26,11 13,1 26,1 39,2 26,1 51,2 77,4 13,1 26,1 38,2 17,1 18,4 16,-24 -1,-15 -6,-44 -12,-58 -2,-5 -10,-25 -14,-27 -2,-2 -6,-1 -7,2 -2,4 3,11 5,14 12,25 19,54 18,84l-176 -9c1,-3 17,-34 20,-39l60 -117c6,1 10,9 15,3 1,-5 0,-6 -3,-7 -2,-1 -5,-3 -7,-4 -9,-5 -9,-4 -13,4 -3,5 -13,28 -15,30z"/>
   <path class="fil0" d="M442 386l0 37c1,5 5,5 8,5l1 -58 19 0c0,36 0,72 0,108 0,5 0,9 3,10 5,2 7,-2 7,-6 1,-19 0,-47 0,-67 0,-18 0,-8 -2,-12 1,-3 2,0 2,-4 0,-3 -1,-2 0,-6l0 -26c0,-5 -1,-7 -7,-7l-25 0c-9,0 -7,8 -7,26z"/>
   <path class="fil0" d="M283 412l0 70c0,9 9,9 10,1 1,-19 -2,-49 0,-68l19 0 0 66c0,12 8,7 9,5 1,-3 1,-49 1,-54 0,-6 0,-12 0,-18 0,-8 0,-9 -9,-9 -6,0 -12,0 -18,0 -7,0 -12,-1 -12,7z"/>
   <path class="fil0" d="M399 441c7,-1 13,0 20,-1 0,11 0,23 0,34 0,5 -1,12 3,14 6,3 7,-4 7,-9 0,-56 5,-49 -18,-49 -22,0 -21,-2 -21,13 0,11 0,23 0,34 0,5 0,12 6,10 5,-1 4,-8 4,-14 0,-11 0,-23 0,-34z"/>
   <path class="fil0" d="M240 448l19 0c1,9 0,21 0,30 0,5 -1,10 4,11 6,1 6,-4 6,-9 0,-10 0,-20 0,-30 0,-13 0,-11 -19,-11 -19,0 -19,-2 -19,11 0,10 0,20 0,30 0,5 0,10 5,10 6,0 5,-7 5,-11 0,-9 -1,-22 0,-30z"/>
   <path class="fil0" d="M346 458l19 0c2,15 -4,33 6,31 4,-1 4,-5 4,-9 0,-8 0,-18 0,-25 0,-8 -6,-6 -20,-6 -23,0 -19,-4 -19,31 0,14 9,10 10,3 0,-7 -1,-19 0,-25z"/>
   <path class="fil0" d="M124 466l0 17c0,8 7,8 9,4 1,-3 0,-14 1,-18l19 0c0,4 0,15 1,18 2,4 9,5 9,-4 0,-28 5,-24 -32,-24 -5,0 -6,2 -6,7z"/>
   <path class="fil0" d="M419 84c-9,5 9,26 27,29 21,4 40,-10 31,-15 -6,-4 -10,9 -29,5 -10,-2 -16,-7 -21,-16 -1,-2 -3,-7 -7,-4z"/>
   <path class="fil0" d="M452 430c-7,2 -4,0 -10,-2l0 49c0,5 -1,12 4,13 6,1 5,-5 5,-11l0 -49z"/>
   <path class="fil0" d="M187 482c13,-1 7,-1 19,0 0,4 1,8 7,7 4,-1 3,-6 3,-10 0,-9 -6,-7 -20,-7 -4,0 -9,0 -13,0 -5,0 -5,3 -5,8 0,5 0,9 4,9 5,1 5,-3 6,-7z"/>
   <path class="fil0" d="M538 101c-10,3 -5,18 5,15 10,-3 5,-19 -5,-15z"/>
   <path class="fil0" d="M482 252c-2,1 -22,4 -24,5 -4,1 -9,2 -14,3 -20,3 0,14 10,25 -1,3 -22,22 -24,24 -5,5 -72,68 -74,71 -4,0 -6,-2 -11,-1 -14,2 5,10 -31,-5 -7,-3 -15,-6 -22,-9 -23,-9 -9,-4 -17,-14 -8,-10 -27,-5 -27,10 0,9 3,4 -3,11 -5,6 -10,12 -15,18 -10,12 -19,23 -29,35 -3,0 -7,-1 -10,0 -3,1 -5,3 -7,4 -4,-1 -19,-8 -21,-10 -1,-1 -1,-17 -17,-15 -5,0 -8,3 -10,6 -4,5 -3,8 -3,14l-51 36c-2,2 -7,4 -5,8 2,4 6,3 10,0 11,-8 23,-16 34,-24l17 -12c3,-1 6,2 12,2 5,-1 7,-3 10,-5l21 9c1,10 7,18 18,16 5,-1 8,-4 10,-7 4,-6 2,-9 0,-15 1,-2 4,-5 6,-7l30 -36c3,-4 8,-11 12,-14 10,3 12,1 19,-5 2,0 53,21 57,24 1,20 21,20 28,9 3,-6 2,-8 1,-14l98 -94c2,-2 6,-4 6,-9 -1,-5 -12,-11 -14,-16l30 -5c-1,10 -3,20 -4,30 0,4 -2,12 0,14 1,1 7,5 9,-6 1,-10 3,-20 4,-29 4,-27 1,-18 -8,-20zm-221 102c-6,3 -3,13 4,10 6,-2 3,-13 -4,-10zm-67 78c-7,3 -3,12 4,10 6,-2 3,-13 -4,-10zm-48 -20c-7,3 -2,12 4,10 6,-2 2,-13 -4,-10zm200 -24c-7,3 -2,12 4,10 6,-2 2,-13 -4,-10z"/>
  </g>
 </g>
</svg>
