<?xml version="1.0" encoding="UTF-8"?>
<!DOCTYPE svg PUBLIC "-//W3C//DTD SVG 1.0//EN" "http://www.w3.org/TR/2001/REC-SVG-20010904/DTD/svg10.dtd">
<!-- Creator: CorelDRAW 2019 (64-Bit) -->
<svg xmlns="http://www.w3.org/2000/svg" xml:space="preserve" width="0.079685in" height="0.160008in" version="1.0" style="shape-rendering:geometricPrecision; text-rendering:geometricPrecision; image-rendering:optimizeQuality; fill-rule:evenodd; clip-rule:evenodd"
viewBox="0 0 105 211"
 xmlns:xlink="http://www.w3.org/1999/xlink">
 <defs>
  <style type="text/css">
   <![CDATA[
    .fil0 {fill:#082B4F;fill-rule:nonzero}
   ]]>
  </style>
 </defs>
 <g id="Layer_x0020_1">
  <metadata id="CorelCorpID_0Corel-Layer"/>
  <path class="fil0" d="M59 100l0 -13c2,0 5,1 9,1 2,0 3,0 5,0 7,0 12,-1 15,-3 4,-2 8,-8 12,-16 3,-6 4,-11 4,-11l2 -7 -7 -1c0,0 -6,-1 -12,-1 -9,-1 -16,0 -20,3 -3,2 -5,5 -8,9l0 -20c2,0 5,1 9,1 2,0 3,0 5,0 7,0 12,-1 15,-3 4,-2 8,-8 12,-16 3,-6 4,-11 4,-11l2 -7 -7 -1c0,0 -6,-1 -12,-1 -9,-1 -16,0 -20,3 -4,2 -8,8 -12,16 -1,2 -2,4 -2,6 -1,-2 -1,-4 -2,-6 -4,-9 -8,-14 -12,-16 -4,-2 -11,-3 -20,-3 -6,0 -12,1 -12,1l-7 1 2 7c0,0 2,5 4,11 4,9 8,14 12,16 3,2 8,3 15,3 2,0 3,0 5,0 3,0 6,-1 9,-1l0 20c-3,-4 -5,-7 -8,-9 -4,-2 -11,-3 -20,-3 -6,0 -12,1 -12,1l-7 1 2 7c0,0 2,5 4,11 4,9 8,14 12,16 3,2 8,3 15,3 2,0 3,0 5,0 3,0 6,-1 9,-1l0 13 -46 0 13 111 80 0 13 -111 -46 0zm-7 50l2 0c8,0 14,6 14,14 0,6 -4,12 -9,14l0 8 -12 0 0 -8c-5,-2 -9,-7 -9,-14l12 0c0,1 1,2 2,2l2 0c1,0 2,-1 2,-2 0,-1 -1,-2 -2,-2l-2 0c-8,0 -14,-6 -14,-14 0,-6 4,-12 9,-14l0 -8 12 0 0 8c5,2 9,7 9,14l-12 0c0,-1 -1,-2 -2,-2l-2 0c-1,0 -2,1 -2,2 0,1 1,2 2,2z"/>
 </g>
</svg>
