<?xml version="1.0" encoding="UTF-8"?>
<!DOCTYPE svg PUBLIC "-//W3C//DTD SVG 1.0//EN" "http://www.w3.org/TR/2001/REC-SVG-20010904/DTD/svg10.dtd">
<!-- Creator: CorelDRAW 2019 (64-Bit) -->
<svg xmlns="http://www.w3.org/2000/svg" xml:space="preserve" width="0.132307in" height="0.160004in" version="1.0" style="shape-rendering:geometricPrecision; text-rendering:geometricPrecision; image-rendering:optimizeQuality; fill-rule:evenodd; clip-rule:evenodd"
viewBox="0 0 285 345"
 xmlns:xlink="http://www.w3.org/1999/xlink">
 <defs>
  <style type="text/css">
   <![CDATA[
    .fil0 {fill:#082B4F}
   ]]>
  </style>
 </defs>
 <g id="Layer_x0020_1">
  <metadata id="CorelCorpID_0Corel-Layer"/>
  <g id="_2584204388592">
   <path class="fil0" d="M51 265c0,7 3,26 4,34 2,19 1,36 15,43 5,3 10,2 17,2l116 0c12,0 20,-6 23,-15 1,-5 7,-51 8,-60 1,-6 0,-4 5,-4 6,-1 5,-8 5,-15 0,-7 0,-12 -8,-12l-155 0c-6,0 -35,-1 -38,1 -5,3 -3,10 -3,16 0,8 2,10 10,10zm-3 -7c3,1 152,0 167,0 6,0 19,1 24,0l0 -13 -191 0 0 13zm181 7l-171 0c0,5 5,46 6,53 1,7 1,11 5,15 4,4 8,5 15,5l119 0c15,0 18,-6 20,-19 1,-10 6,-47 6,-54z"/>
   <path class="fil0" d="M212 151l-32 33c-1,1 -4,3 -3,6 1,3 4,3 6,1 10,-10 20,-20 30,-30 1,-1 1,-2 3,-2 1,3 3,9 3,12l-10 10c-5,5 -31,30 -31,32 -1,3 2,5 5,3l34 -34c1,-2 2,-2 3,-3 1,2 0,11 0,13 0,2 0,2 -1,3 -3,3 -6,6 -9,9 -7,8 -16,16 -23,23 -2,2 -1,5 2,6 3,0 8,-6 10,-8 2,-2 17,-18 19,-18 0,4 -6,14 -8,18 -1,2 -5,6 -2,8 4,2 6,-3 7,-5 7,-10 12,-25 13,-40 3,-65 -64,-104 -117,-80 -24,11 -41,31 -47,58 -5,22 0,45 12,63 1,1 2,3 3,4 2,1 4,0 5,-1 1,-3 -2,-6 -4,-9 -16,-26 -15,-57 2,-82 13,-19 39,-38 71,-34 21,2 40,12 52,28 3,3 9,12 10,16z"/>
   <path class="fil0" d="M133 218c2,4 -2,10 6,10 15,0 13,0 13,-11 6,-3 9,-5 12,-10 6,-11 2,-24 -9,-31 -6,-3 -15,-5 -15,-9 3,-3 10,0 13,2 6,4 8,0 10,-5 1,-4 5,-9 1,-12 -2,-2 -6,-3 -9,-4 -2,-1 -2,0 -2,-2 0,-3 0,-5 -1,-7 -2,-2 -4,-1 -7,-1 -7,0 -11,-1 -11,6 0,8 1,3 -7,9 -10,9 -10,25 3,34 4,2 7,4 11,5 2,1 4,2 5,4 1,3 -2,4 -5,4 -13,0 -15,-14 -21,3 -3,7 -5,10 6,14 2,1 5,1 6,2zm-6 -17l-2 6c2,2 7,3 10,4 8,1 3,5 5,10l5 1c4,0 1,-4 2,-8 1,-2 3,-2 5,-3 13,-6 14,-22 1,-30 -6,-3 -19,-6 -18,-14 0,-4 4,-7 9,-7 3,0 5,0 7,1 2,1 4,2 6,2l2 -7c-3,-2 -6,-2 -9,-3 -5,-1 -3,-5 -3,-10l-6 0c0,2 0,6 0,8 -1,4 -10,2 -13,12 -4,11 3,17 11,21 5,2 20,7 14,17 -3,6 -12,6 -19,4 -2,-1 -4,-2 -6,-3z"/>
   <path class="fil0" d="M137 112c-3,0 -5,0 -8,1 -3,1 -5,1 -8,2 -13,4 -25,13 -34,24 -19,24 -21,60 -1,86 2,3 7,11 11,7 2,-3 -2,-6 -6,-12 -12,-16 -15,-39 -7,-61 17,-46 83,-57 113,-13 1,1 3,5 4,6 2,2 6,1 5,-3 -1,-4 -10,-15 -12,-17 -6,-6 -14,-12 -23,-15 -9,-3 -22,-7 -33,-5z"/>
   <path class="fil0" d="M100 272c-14,4 -10,18 -10,33 0,6 -1,16 2,20 7,12 24,7 25,-5 1,-6 0,-15 0,-22 0,-6 1,-16 -2,-20 -2,-4 -8,-8 -14,-6zm1 7c-4,2 -5,5 -5,11l0 30c0,4 4,7 9,6 4,-1 5,-5 5,-11 0,-6 0,-26 0,-30 0,-4 -4,-8 -9,-6z"/>
   <path class="fil0" d="M140 272c-14,4 -10,18 -10,33 0,6 -1,15 2,20 6,11 23,8 25,-5 1,-6 0,-15 0,-22 0,-6 1,-15 -2,-20 -2,-4 -8,-8 -15,-6zm1 7c-5,2 -4,5 -4,11 0,5 0,28 0,30 1,4 5,7 9,5 5,-2 4,-6 4,-11l0 -30c0,-4 -4,-7 -9,-6z"/>
   <path class="fil0" d="M180 272c-6,2 -10,5 -10,12 0,7 0,15 0,22 0,6 -1,15 2,20 7,11 24,7 25,-5 0,-7 0,-15 0,-22 0,-6 1,-15 -2,-20 -2,-4 -8,-8 -15,-6zm-4 46c0,10 14,11 14,-1l0 -29c0,-5 -1,-9 -6,-10 -5,-1 -8,3 -8,8 0,11 0,21 0,32z"/>
   <path class="fil0" d="M279 80c-3,1 -7,4 -11,6l-21 12c-2,1 -4,2 -4,4 0,3 2,4 5,3 3,-1 8,-4 11,-6l21 -12c2,-1 4,-2 4,-4 0,-3 -2,-4 -5,-3z"/>
   <path class="fil0" d="M139 24l0 16c0,3 0,6 3,6 4,0 3,-3 3,-7l0 -29c0,-4 1,-10 -3,-10 -4,0 -3,6 -3,10 0,5 0,9 0,14z"/>
   <path class="fil0" d="M4 80c-3,1 -2,4 -1,5l32 18c2,1 4,3 6,2 2,-1 2,-4 1,-6l-32 -18c-2,-1 -4,-3 -6,-2z"/>
   <path class="fil0" d="M261 160c-2,1 -3,3 -2,5 1,2 4,1 7,1 3,0 14,0 16,0 2,-1 3,-3 1,-5 -1,-2 -5,-1 -7,-1 -3,0 -14,0 -16,0z"/>
   <path class="fil0" d="M22 159l-18 0c-2,0 -3,0 -4,2 -3,6 10,5 13,5 3,0 10,0 12,0 3,-1 2,-6 -3,-6z"/>
   <path class="fil0" d="M71 39c-3,3 1,7 4,13 3,5 5,12 9,10 4,-2 -2,-10 -4,-13 -1,-2 -2,-4 -4,-6 -1,-2 -3,-6 -6,-3z"/>
   <path class="fil0" d="M211 39c-1,1 -11,17 -11,18 -1,4 2,6 5,4 1,-1 6,-10 7,-12 1,-1 3,-5 4,-6 1,-3 -2,-6 -5,-4z"/>
  </g>
 </g>
</svg>
