<?xml version="1.0" encoding="UTF-8"?>
<!DOCTYPE svg PUBLIC "-//W3C//DTD SVG 1.0//EN" "http://www.w3.org/TR/2001/REC-SVG-20010904/DTD/svg10.dtd">
<!-- Creator: CorelDRAW 2019 (64-Bit) -->
<svg xmlns="http://www.w3.org/2000/svg" xml:space="preserve" width="0.134898in" height="0.16in" version="1.0" style="shape-rendering:geometricPrecision; text-rendering:geometricPrecision; image-rendering:optimizeQuality; fill-rule:evenodd; clip-rule:evenodd"
viewBox="0 0 299 355"
 xmlns:xlink="http://www.w3.org/1999/xlink">
 <defs>
  <style type="text/css">
   <![CDATA[
    .fil0 {fill:#73BEE9;fill-rule:nonzero}
    .fil10 {fill:#A5A5A5;fill-rule:nonzero}
    .fil2 {fill:#DDDDDD;fill-rule:nonzero}
    .fil4 {fill:#EBEBEB;fill-rule:nonzero}
    .fil3 {fill:#F6F6F6;fill-rule:nonzero}
    .fil1 {fill:white;fill-rule:nonzero}
    .fil8 {fill:#A5A5A5;fill-rule:nonzero;fill-opacity:0.321569}
    .fil5 {fill:#0072D6;fill-rule:nonzero;fill-opacity:0.501961}
    .fil6 {fill:#1D80D6;fill-rule:nonzero;fill-opacity:0.501961}
    .fil7 {fill:#52AEFF;fill-rule:nonzero;fill-opacity:0.501961}
    .fil9 {fill:#A5A5A5;fill-rule:nonzero;fill-opacity:0.678431}
   ]]>
  </style>
 </defs>
 <g id="Layer_x0020_1">
  <metadata id="CorelCorpID_0Corel-Layer"/>
  <g id="_2584006123344">
   <g>
    <g>
     <path class="fil0" d="M299 29c0,-6 -4,-11 -11,-11l-12 -1 -70 -4 -178 -10c-6,0 -11,4 -12,10l-17 317c0,6 4,11 11,11l237 13c6,0 11,-4 12,-10l10 -188 18 -9c4,-2 6,-5 6,-9l6 -109z"/>
     <path class="fil1" d="M292 25c0,-6 -4,-11 -10,-11l-11 -1 -68 -4 -174 -9c-6,0 -11,4 -11,10l-17 317c0,6 4,11 10,11l231 12c6,0 11,-4 11,-10l10 -188 17 -9c3,-2 6,-5 6,-9l6 -109z"/>
     <polygon class="fil2" points="248,339 19,315 52,8 281,33 "/>
     <polygon class="fil3" points="266,327 36,342 16,35 246,19 "/>
     <polygon class="fil4" points="260,327 30,327 30,19 260,19 "/>
     <g>
      <g>
       <path class="fil5" d="M213 306c-15,0 -27,-12 -27,-27 0,-15 12,-27 27,-27 15,0 27,12 27,27 0,15 -12,27 -27,27zm0 -52l0 0c-14,0 -25,11 -25,25 0,14 11,25 25,25 14,0 25,-11 25,-25 0,-14 -11,-25 -25,-25z"/>
      </g>
      <g>
       <path class="fil6" d="M213 301c-12,0 -23,-10 -23,-23 0,-12 10,-23 23,-23 12,0 23,10 23,23 0,12 -10,23 -23,23zm0 -44l0 0c-12,0 -22,10 -22,22 0,12 10,22 22,22 12,0 22,-10 22,-22 0,-12 -10,-22 -22,-22z"/>
      </g>
      <g>
       <path class="fil7" d="M213 295c-7,0 -13,-5 -16,-11 0,-1 0,-1 1,-1 1,0 1,0 1,1 2,6 8,10 14,10 6,0 12,-4 14,-10 0,-1 1,-1 1,-1 1,0 1,1 1,1 -2,7 -9,11 -16,11z"/>
      </g>
      <g>
       <path class="fil7" d="M228 274c0,0 -1,0 -1,-1 -2,-6 -8,-9 -14,-9 -6,0 -11,3 -13,9 0,1 -1,1 -1,1 -1,0 -1,-1 -1,-1 3,-6 9,-10 15,-10 7,0 13,4 15,11 0,1 0,1 -1,1 0,0 0,0 0,0z"/>
      </g>
      <g>
       <path class="fil6" d="M213 291c-5,0 -9,-3 -11,-7 0,0 0,-1 0,-1 0,0 1,0 1,0 2,4 6,7 10,7 5,0 9,-3 10,-7 0,0 0,0 1,0 0,0 0,0 0,1 -2,5 -6,8 -11,8z"/>
      </g>
      <g>
       <path class="fil6" d="M223 274c0,0 0,0 0,0 -2,-4 -6,-6 -10,-6 -4,0 -8,2 -10,6 0,0 0,0 -1,0 0,0 0,0 0,-1 2,-4 6,-7 11,-7 5,0 9,3 11,7 0,0 0,1 0,1 0,0 0,0 0,0z"/>
      </g>
     </g>
     <g>
      <g>
       <path class="fil8" d="M198 71l-137 0c-1,0 -2,-1 -2,-2l0 -1c0,-1 1,-2 2,-2l137 0c1,0 2,1 2,2l0 1c0,1 -1,2 -2,2z"/>
       <path class="fil8" d="M229 83l-167 0c-1,0 -2,-1 -2,-2l0 -1c0,-1 1,-2 2,-2l167 0c1,0 2,1 2,2l0 1c0,1 -1,2 -2,2z"/>
       <path class="fil9" d="M229 59l-167 0c-1,0 -2,-1 -2,-2l0 -1c0,-1 1,-2 2,-2l167 0c1,0 2,1 2,2l0 1c0,1 -1,2 -2,2z"/>
       <path class="fil8" d="M149 97l-88 0c-1,0 -2,-1 -2,-2l0 -1c0,-1 1,-2 2,-2l88 0c1,0 2,1 2,2l0 1c0,1 -1,2 -2,2z"/>
      </g>
      <g>
       <path class="fil8" d="M198 144l-137 0c-1,0 -2,-1 -2,-2l0 -1c0,-1 1,-2 2,-2l137 0c1,0 2,1 2,2l0 1c0,1 -1,2 -2,2z"/>
       <path class="fil8" d="M229 156l-167 0c-1,0 -2,-1 -2,-2l0 -1c0,-1 1,-2 2,-2l167 0c1,0 2,1 2,2l0 1c0,1 -1,2 -2,2z"/>
       <path class="fil9" d="M229 131l-167 0c-1,0 -2,-1 -2,-2l0 -1c0,-1 1,-2 2,-2l167 0c1,0 2,1 2,2l0 1c0,1 -1,2 -2,2z"/>
       <path class="fil8" d="M149 169l-88 0c-1,0 -2,-1 -2,-2l0 -1c0,-1 1,-2 2,-2l88 0c1,0 2,1 2,2l0 1c0,1 -1,2 -2,2z"/>
      </g>
      <g>
       <path class="fil8" d="M198 216l-137 0c-1,0 -2,-1 -2,-2l0 -1c0,-1 1,-2 2,-2l137 0c1,0 2,1 2,2l0 1c0,1 -1,2 -2,2z"/>
       <path class="fil8" d="M229 228l-167 0c-1,0 -2,-1 -2,-2l0 -1c0,-1 1,-2 2,-2l167 0c1,0 2,1 2,2l0 1c0,1 -1,2 -2,2z"/>
       <path class="fil9" d="M229 204l-167 0c-1,0 -2,-1 -2,-2l0 -1c0,-1 1,-2 2,-2l167 0c1,0 2,1 2,2l0 1c0,1 -1,2 -2,2z"/>
       <path class="fil8" d="M149 242l-88 0c-1,0 -2,-1 -2,-2l0 -1c0,-1 1,-2 2,-2l88 0c1,0 2,1 2,2l0 1c0,1 -1,2 -2,2z"/>
      </g>
     </g>
     <path class="fil10" d="M118 289c-2,0 -3,0 -4,-1 -1,0 -3,-1 -4,-2 -1,-1 -1,-1 -2,-2 0,0 0,0 0,0 0,0 0,-1 0,-1 0,-1 0,-1 0,-2 0,-1 -1,-1 -1,-2 -1,0 -1,-1 -2,-1l-1 0 0 1c0,2 1,3 2,4 0,0 0,0 0,0 0,1 -1,1 -2,2 0,0 -1,0 -1,0 0,0 -1,0 -1,0 -1,0 -2,-1 -3,-1 0,0 -1,-1 -1,-1 0,0 0,0 0,0 0,0 0,-1 0,-1 0,-1 0,-1 0,-2 0,-1 0,-1 0,-2 0,-1 -1,-2 -2,-3l-2 -1 0 2c0,1 0,1 0,2 0,1 0,1 0,2 0,1 0,1 1,2 0,0 0,1 1,1 0,0 0,0 0,0 0,0 0,0 -1,0 0,0 -1,0 -1,0 0,0 -1,0 -1,0 0,0 -1,0 -1,0 0,0 -1,0 -1,-1 0,0 -1,-1 -1,-1 -1,-1 -1,-3 -2,-5l-1 -3 -1 2c-1,3 -3,5 -5,8l0 0 0 -1c0,-1 0,-2 -1,-3 0,-1 0,-2 -1,-3 0,-1 0,-2 -1,-3 0,-2 -1,-3 -2,-5 0,0 0,-1 0,-1 0,-1 0,-2 0,-4l0 0 0 0c-1,0 -1,0 -2,0l-1 0 0 1 1 2 1 3c0,2 1,3 1,5 0,2 1,3 1,5 0,1 0,2 1,3l0 1 0 1c0,0 0,1 0,1 -1,1 -1,2 -2,3 -1,2 -2,3 -2,5 -1,2 -1,3 -1,5l0 1 0 1 0 0 0 0 0 1c0,1 0,2 1,3 0,0 0,1 0,1 0,0 0,1 1,1 0,0 1,1 1,1 0,0 1,1 1,1 0,0 1,0 2,0 1,0 1,0 1,-1 0,0 1,-1 1,-1 0,0 0,-1 0,-1 0,-1 0,-2 0,-3 0,-1 0,-2 0,-3 0,-2 0,-4 0,-5 0,-3 -1,-6 -1,-9 0,0 0,0 0,0 1,-1 2,-3 3,-4 1,-1 1,-2 2,-2 0,1 1,2 1,3 0,0 1,1 1,1 0,0 1,1 1,1 0,0 1,1 1,1 1,0 1,0 2,0 1,0 1,0 2,0 1,0 1,0 2,-1 0,0 0,0 0,0 0,0 0,0 0,0 0,0 1,1 1,1 1,1 2,1 3,1 1,0 1,0 2,0 1,0 1,0 2,-1 1,0 2,-1 2,-2 1,1 1,1 2,2 1,1 3,1 4,2l1 0 1 0 1 0 1 0 0 0zm-43 -22l0 0c0,0 1,0 1,0 0,1 0,2 0,2 0,0 0,0 0,-1l-1 -2zm5 30l0 0c0,2 0,3 1,5 0,1 0,2 0,3 0,1 0,2 0,2 0,0 0,1 0,1 0,0 0,1 -1,1 0,0 -1,0 -1,1 0,0 -1,0 -1,0 -1,0 -1,-1 -2,-1 0,0 0,-1 -1,-1 0,0 0,-1 0,-1 0,-1 0,-2 -1,-2l0 -1 0 0 0 0 0 -1 0 -1c0,0 0,-1 0,-1 0,0 0,0 0,-1 0,0 0,0 0,-1 0,0 0,-1 0,-1 0,0 0,0 0,-1l0 -1c1,-2 2,-4 3,-6 0,2 1,5 1,7z"/>
    </g>
   </g>
  </g>
 </g>
</svg>
