<?xml version="1.0" encoding="UTF-8"?>
<!DOCTYPE svg PUBLIC "-//W3C//DTD SVG 1.0//EN" "http://www.w3.org/TR/2001/REC-SVG-20010904/DTD/svg10.dtd">
<!-- Creator: CorelDRAW 2019 (64-Bit) -->
<svg xmlns="http://www.w3.org/2000/svg" xml:space="preserve" width="0.178484in" height="0.16in" version="1.0" style="shape-rendering:geometricPrecision; text-rendering:geometricPrecision; image-rendering:optimizeQuality; fill-rule:evenodd; clip-rule:evenodd"
viewBox="0 0 518 465"
 xmlns:xlink="http://www.w3.org/1999/xlink">
 <defs>
  <style type="text/css">
   <![CDATA[
    .fil1 {fill:#73BEE9}
    .fil0 {fill:white}
   ]]>
  </style>
 </defs>
 <g id="Layer_x0020_1">
  <metadata id="CorelCorpID_0Corel-Layer"/>
  <g id="_2585385074912">
   <path class="fil0" d="M342 311l39 0c4,-10 8,-22 12,-32l28 -81c2,-6 4,-11 6,-17l34 -97c11,-33 -10,-32 -43,-39l-220 -44c-35,-7 -31,2 -45,38 -15,41 -32,90 -47,128l-24 65c-4,10 -11,23 -2,33 8,9 22,7 28,-2 3,-5 4,-10 6,-16 2,-6 4,-11 6,-16l35 -96c4,-11 8,-22 12,-33 2,-6 4,-10 6,-16l18 -49c8,0 104,20 115,22 11,2 107,22 115,22 -1,15 -70,204 -80,228z"/>
   <path class="fil0" d="M311 444c2,-3 2,-55 0,-59 -2,7 -18,28 -28,34 -14,8 -35,10 -50,1 -13,-7 -20,-24 -22,-40 -1,-6 -1,-9 -2,-14 0,-8 1,-9 -3,-13 -4,-4 -16,-8 -22,-10 -9,-4 -170,-70 -180,-72 -6,12 -5,45 -1,59 9,35 38,51 68,64l137 61c10,4 22,8 35,9l16 0c1,0 3,0 4,-1 19,-3 37,-9 47,-20z"/>
   <path class="fil0" d="M311 386c2,3 2,56 0,59 3,14 7,19 17,20l41 0 76 0c1,0 2,0 3,0 15,-3 15,-14 15,-24 0,-20 2,-111 -1,-117 -6,6 -29,47 -34,59 -10,21 -19,57 -46,45 -9,-4 -16,-16 -23,-24 -6,-7 -20,-22 -19,-28 1,-7 15,-26 41,3 2,2 4,4 6,6 3,4 2,4 6,7l33 -60c4,-6 9,-13 12,-19l-58 1 -39 0c-20,-3 -30,4 -31,20 -1,16 0,37 0,54z"/>
   <path class="fil1" d="M440 311c-3,6 -8,13 -12,19l-33 60c-4,-3 -3,-3 -6,-7 -2,-2 -4,-3 -6,-6 -26,-29 -41,-10 -41,-3 -1,6 13,21 19,28 7,8 14,20 23,24 27,12 36,-23 46,-45 5,-12 28,-53 34,-59 11,-17 28,-38 42,-52 5,-5 12,-11 14,-19 -10,0 -22,2 -30,4 -5,2 -7,3 -11,6 -10,8 -31,37 -38,48z"/>
   <path class="fil0" d="M312 251c14,0 20,-7 20,-20 0,-16 -26,-20 -43,-26 -9,-3 -47,-16 -53,-16 -11,0 -20,13 -17,23 4,11 16,14 27,17 11,4 58,21 67,21z"/>
   <path class="fil0" d="M188 281c0,13 8,13 17,17l52 18c4,1 24,9 26,9 13,0 34,-26 5,-37 -17,-6 -72,-25 -84,-25 -9,0 -16,9 -16,18z"/>
   <path class="fil0" d="M249 133c0,19 18,20 41,26 13,4 44,13 56,13 20,0 21,-25 9,-33 -6,-4 -41,-13 -49,-15 -11,-3 -22,-7 -33,-9 -11,-3 -23,4 -23,17z"/>
   <path class="fil0" d="M137 260c0,11 8,18 17,19 26,3 27,-36 5,-36 -10,0 -22,2 -22,17z"/>
   <path class="fil0" d="M166 189c0,28 38,27 38,3 0,-25 -38,-23 -38,-3z"/>
   <path class="fil0" d="M233 118c0,-11 -8,-18 -21,-18 -17,0 -24,20 -12,31 11,10 32,4 32,-13z"/>
  </g>
 </g>
</svg>
