<?xml version="1.0" encoding="UTF-8"?>
<!DOCTYPE svg PUBLIC "-//W3C//DTD SVG 1.0//EN" "http://www.w3.org/TR/2001/REC-SVG-20010904/DTD/svg10.dtd">
<!-- Creator: CorelDRAW 2019 (64-Bit) -->
<svg xmlns="http://www.w3.org/2000/svg" xml:space="preserve" width="0.136008in" height="0.160004in" version="1.0" style="shape-rendering:geometricPrecision; text-rendering:geometricPrecision; image-rendering:optimizeQuality; fill-rule:evenodd; clip-rule:evenodd"
viewBox="0 0 304 357"
 xmlns:xlink="http://www.w3.org/1999/xlink">
 <defs>
  <style type="text/css">
   <![CDATA[
    .fil0 {fill:white}
   ]]>
  </style>
 </defs>
 <g id="Layer_x0020_1">
  <metadata id="CorelCorpID_0Corel-Layer"/>
  <g id="_2738418983264">
   <path class="fil0" d="M58 298c0,6 0,13 0,19 0,16 8,12 26,12 7,0 13,0 20,0 25,0 52,1 77,0 -2,-7 -3,-8 -4,-17l-101 0c-1,-3 0,-194 0,-211 0,-10 -1,-21 0,-30l164 0c1,11 -1,30 0,40 0,2 0,2 0,4 0,2 0,3 0,5l0 71c0,13 0,27 0,40 6,0 11,-1 17,0 1,-7 0,-46 0,-57 0,-19 0,-38 0,-57 0,-8 1,-53 -1,-57 -2,-3 -5,-5 -9,-5 -5,0 -10,0 -14,0 -10,0 -20,0 -29,0 -1,-11 -3,-22 -5,-33 -1,-4 -1,-13 -3,-16 -3,-5 -8,-4 -14,-3 -45,6 -90,14 -134,20 -11,1 -22,3 -34,5 -15,2 -14,5 -11,24 10,67 19,135 29,202 2,11 3,22 5,33 0,2 0,6 1,8 1,4 1,5 4,7 4,3 12,0 17,0zm-39 -256c0,1 0,0 0,2l5 34c5,30 9,60 13,90 0,3 1,6 1,9 4,28 9,59 13,91 0,2 1,3 1,5 0,3 1,2 2,5 2,0 1,0 3,0l1 1c1,-20 0,-122 0,-166l0 -47c0,-6 0,-9 4,-12 3,-2 9,-2 14,-2l47 0c21,0 42,1 63,0l-5 -35c-5,0 -27,4 -35,5 -43,6 -79,11 -126,18z"/>
   <path class="fil0" d="M243 250c-39,5 -59,48 -40,80 3,6 8,11 12,15 42,33 94,-3 88,-48 -2,-15 -9,-26 -19,-35 -9,-8 -24,-14 -41,-12zm0 18c-6,2 -8,2 -12,6 -9,9 -7,25 3,31l9 4c4,1 14,4 16,7 1,2 2,5 0,7 -3,6 -14,6 -19,1 -2,-3 -3,-4 -3,-6l-12 5c0,3 4,9 6,11 4,4 6,3 11,5l0 9 13 0 0 -9c3,-2 7,-1 12,-6 3,-3 5,-7 6,-12 1,-6 -1,-10 -4,-14 -1,-2 -2,-3 -5,-4 -2,-2 -9,-5 -13,-5 -2,0 -5,-2 -7,-3 -4,-2 -9,-4 -7,-10 2,-6 15,-8 20,0l2 3c1,0 2,-1 3,-1l9 -4c0,-2 0,-1 -1,-3 -1,-3 -2,-5 -5,-7 -4,-3 -6,-4 -11,-5l0 -9 -13 0 0 9z"/>
   <path class="fil0" d="M120 147c1,2 0,41 0,43 -3,0 -7,-1 -8,2 -2,3 1,6 4,6l83 0c3,0 7,-1 5,-5 -1,-3 -5,-3 -9,-3 0,-2 0,-41 0,-43 3,0 10,1 7,-4l-38 -33c-8,-8 -5,-7 -20,5 -4,4 -8,7 -13,11 -2,2 -4,3 -6,6 -2,2 -4,4 -6,6 -1,1 -11,8 -5,9 1,0 5,0 6,0zm25 40l27 0 0 -32 -27 0c-1,2 0,28 0,32zm0 -35l27 0c1,-8 -6,-14 -13,-14 -7,0 -14,6 -14,14zm3 -3l21 0c0,-4 -5,-8 -10,-8 -5,0 -10,4 -11,8z"/>
   <path class="fil0" d="M104 222c-4,2 -5,7 -1,9 3,1 11,1 15,1 14,0 91,0 93,0 4,-2 4,-7 0,-9 -2,-1 -42,-1 -46,-1 -7,0 -60,0 -62,0z"/>
   <path class="fil0" d="M113 245c-5,0 -10,-1 -11,3 -2,4 1,8 6,8l101 0c4,0 7,-2 6,-7 -1,-4 -5,-4 -9,-4 -18,0 -73,0 -92,0z"/>
   <path class="fil0" d="M107 278l37 0c4,0 11,1 13,-2 1,-2 1,-5 0,-6 -1,-2 -3,-2 -6,-2l-40 0c-4,0 -8,0 -9,4 -1,4 2,6 6,6z"/>
   <path class="fil0" d="M159 162l0 19c1,1 7,3 9,3l0 -25c-2,0 -8,2 -9,3z"/>
   <path class="fil0" d="M147 184c1,0 8,-3 9,-3l0 -19 -9 -3 0 25z"/>
  </g>
 </g>
</svg>
