<?xml version="1.0" encoding="UTF-8"?>
<!DOCTYPE svg PUBLIC "-//W3C//DTD SVG 1.0//EN" "http://www.w3.org/TR/2001/REC-SVG-20010904/DTD/svg10.dtd">
<!-- Creator: CorelDRAW 2019 (64-Bit) -->
<svg xmlns="http://www.w3.org/2000/svg" xml:space="preserve" width="1.62031in" height="1.39897in" version="1.0" style="shape-rendering:geometricPrecision; text-rendering:geometricPrecision; image-rendering:optimizeQuality; fill-rule:evenodd; clip-rule:evenodd"
viewBox="0 0 58275 50314"
 xmlns:xlink="http://www.w3.org/1999/xlink">
 <defs>
  <style type="text/css">
   <![CDATA[
    .fil1 {fill:#6CBBE9}
    .fil0 {fill:whitesmoke}
    .fil17 {fill:#D72E7F;fill-rule:nonzero}
    .fil23 {fill:#9C325D;fill-rule:nonzero}
    .fil37 {fill:#374366;fill-rule:nonzero}
    .fil36 {fill:#2E374F;fill-rule:nonzero}
    .fil18 {fill:#0E2D3D;fill-rule:nonzero}
    .fil19 {fill:#163342;fill-rule:nonzero}
    .fil20 {fill:#1C3B54;fill-rule:nonzero}
    .fil10 {fill:#282B46;fill-rule:nonzero}
    .fil15 {fill:#313656;fill-rule:nonzero}
    .fil5 {fill:#385269;fill-rule:nonzero}
    .fil13 {fill:#3A3F46;fill-rule:nonzero}
    .fil7 {fill:#424242;fill-rule:nonzero}
    .fil12 {fill:#424672;fill-rule:nonzero}
    .fil9 {fill:#4497E6;fill-rule:nonzero}
    .fil26 {fill:#606060;fill-rule:nonzero}
    .fil3 {fill:#95BFE6;fill-rule:nonzero}
    .fil8 {fill:#A77760;fill-rule:nonzero}
    .fil27 {fill:#DFCDC6;fill-rule:nonzero}
    .fil14 {fill:#E2D1CA;fill-rule:nonzero}
    .fil6 {fill:#EDA885;fill-rule:nonzero}
    .fil29 {fill:#EDA887;fill-rule:nonzero}
    .fil22 {fill:#FFBF54;fill-rule:nonzero}
    .fil11 {fill:white;fill-rule:nonzero}
    .fil2 {fill:#CCECFB;fill-rule:nonzero;fill-opacity:0.949020}
    .fil4 {fill:whitesmoke;fill-rule:nonzero;fill-opacity:0.949020}
    .fil21 {fill:url(#id0);fill-rule:nonzero}
    .fil25 {fill:url(#id1);fill-rule:nonzero}
    .fil34 {fill:url(#id2);fill-rule:nonzero}
    .fil33 {fill:url(#id3);fill-rule:nonzero}
    .fil35 {fill:url(#id4);fill-rule:nonzero}
    .fil30 {fill:url(#id5);fill-rule:nonzero}
    .fil24 {fill:url(#id6);fill-rule:nonzero}
    .fil28 {fill:url(#id7);fill-rule:nonzero}
    .fil32 {fill:url(#id8);fill-rule:nonzero}
    .fil16 {fill:url(#id9);fill-rule:nonzero}
    .fil31 {fill:url(#id10);fill-rule:nonzero}
   ]]>
  </style>
  <linearGradient id="id0" gradientUnits="userSpaceOnUse" x1="24963" y1="56975" x2="23858" y2="-23404">
   <stop offset="0" style="stop-opacity:1; stop-color:#E0298F"/>
   <stop offset="1" style="stop-opacity:1; stop-color:#77458D"/>
  </linearGradient>
  <linearGradient id="id1" gradientUnits="userSpaceOnUse" xlink:href="#id0" x1="17864" y1="107786" x2="17323" y2="-82641">
  </linearGradient>
  <linearGradient id="id2" gradientUnits="userSpaceOnUse" x1="11554" y1="39044" x2="5564" y2="41549">
   <stop offset="0" style="stop-opacity:1; stop-color:#90C96C"/>
   <stop offset="0.290196" style="stop-opacity:1; stop-color:#90C96C"/>
   <stop offset="0.690196" style="stop-opacity:1; stop-color:#6C3D94"/>
   <stop offset="0.788235" style="stop-opacity:1; stop-color:#6C3D94"/>
   <stop offset="1" style="stop-opacity:1; stop-color:#6C3D94"/>
  </linearGradient>
  <linearGradient id="id3" gradientUnits="userSpaceOnUse" xlink:href="#id2" x1="597" y1="33615" x2="6187" y2="42348">
  </linearGradient>
  <linearGradient id="id4" gradientUnits="userSpaceOnUse" xlink:href="#id2" x1="2631" y1="38055" x2="5649" y2="41923">
  </linearGradient>
  <linearGradient id="id5" gradientUnits="userSpaceOnUse" xlink:href="#id2" x1="12408" y1="34931" x2="5255" y2="41976">
  </linearGradient>
  <linearGradient id="id6" gradientUnits="userSpaceOnUse" xlink:href="#id0" x1="22343" y1="102964" x2="21974" y2="-76693">
  </linearGradient>
  <linearGradient id="id7" gradientUnits="userSpaceOnUse" xlink:href="#id0" x1="17402" y1="69573" x2="16832" y2="-38005">
  </linearGradient>
  <linearGradient id="id8" gradientUnits="userSpaceOnUse" xlink:href="#id2" x1="7549" y1="32456" x2="5565" y2="40748">
  </linearGradient>
  <linearGradient id="id9" gradientUnits="userSpaceOnUse" x1="28079" y1="31503" x2="51067" y2="6171">
   <stop offset="0" style="stop-opacity:1; stop-color:#EC268F"/>
   <stop offset="1" style="stop-opacity:1; stop-color:#FFCC5E"/>
  </linearGradient>
  <linearGradient id="id10" gradientUnits="userSpaceOnUse" xlink:href="#id2" x1="11712" y1="30748" x2="4717" y2="42691">
  </linearGradient>
 </defs>
 <g id="Layer_x0020_1">
  <metadata id="CorelCorpID_0Corel-Layer"/>
  <g id="_2238308003584">
   <path class="fil0" d="M56926 44632c875,-2772 1349,-5723 1349,-8784 0,-16092 -13045,-29137 -29137,-29137 -16092,0 -29137,13045 -29137,29137 0,3061 473,6012 1349,8784l55577 0z"/>
   <g>
    <path class="fil1" d="M2242 44495l45696 0c583,0 1063,220 1063,489 0,269 -480,490 -1063,490l-11003 0c-433,73 -744,264 -744,489 0,225 310,416 744,489l7050 0 1617 0c583,0 1063,220 1063,489 0,269 -480,490 -1063,490l-1617 0 -7061 0c-406,78 -692,264 -692,480 0,201 248,375 610,462l2186 0c585,0 1063,220 1063,489 0,269 -478,489 -1063,489l-6825 0c482,59 838,249 838,471 0,269 -520,489 -1155,489l-5389 0c-634,0 -1154,-220 -1154,-489 0,-222 355,-411 835,-471l-11099 0c-585,0 -1065,-220 -1065,-489 0,-269 480,-489 1065,-489l2090 0c362,-87 607,-261 607,-462 0,-216 -286,-402 -692,-480l-1512 0 -1615 0c-585,0 -1063,-221 -1063,-490 0,-269 478,-489 1063,-489l1615 0 6820 0c433,-73 741,-264 741,-489 0,-225 -308,-416 -741,-489l-20151 0c-585,0 -1063,-221 -1063,-490 0,-269 478,-489 1063,-489zm49241 0l0 0 4964 0c585,0 1063,220 1063,489 0,269 -478,490 -1063,490l-4964 0c-585,0 -1063,-221 -1063,-490 0,-269 478,-489 1063,-489zm-8689 3880l0 0 4962 0c585,0 1066,220 1066,489 0,269 -480,489 -1066,489l-4962 0c-585,0 -1063,-220 -1063,-489 0,-269 478,-489 1063,-489zm-36949 -1922l0 0 4962 0c585,0 1063,220 1063,489 0,269 -478,490 -1063,490l-4962 0c-585,0 -1065,-221 -1065,-490 0,-269 480,-489 1065,-489z"/>
   </g>
   <g>
    <path class="fil2" d="M35741 16430l-12210 0c-965,0 -1747,-782 -1747,-1747l0 -12210c0,-965 782,-1747 1747,-1747l12210 0c965,0 1747,782 1747,1747l0 12210c0,965 -782,1747 -1747,1747z"/>
    <polygon class="fil3" points="33271,13214 26001,13214 26001,12855 33271,12855 "/>
    <polygon class="fil3" points="32241,14346 27030,14346 27030,13986 32241,13986 "/>
    <polygon class="fil4" points="34928,1314 34928,10395 24343,10395 24343,1314 "/>
    <g>
     <path class="fil5" d="M33678 6842c-349,-922 -1186,-1346 -1581,-1478 -141,-47 -392,-129 -657,-215 -477,-154 -999,-322 -999,-322l-1647 0c0,0 -570,191 -1177,404 0,1 -1,1 -1,1 -558,196 -1147,409 -1345,509 -414,207 -1111,1685 -1252,1854 -73,87 -396,663 -714,1306l1775 0c188,-322 332,-572 332,-572 0,0 112,246 248,572l5685 0c90,-378 146,-855 146,-855 0,0 304,414 637,855l1639 0c-398,-669 -893,-1539 -1089,-2059z"/>
     <g>
      <path class="fil6" d="M29814 301c0,0 1288,203 1092,2218 -196,2015 -1333,1850 -1409,1848 -76,-2 -1141,37 -1224,-2424 0,0 -36,-1819 1541,-1643z"/>
     </g>
     <g>
      <path class="fil6" d="M30925 1950c0,0 141,-151 193,2 52,152 -192,833 -201,865 0,0 -26,59 -59,27 -34,-33 68,-893 68,-893z"/>
     </g>
     <g>
      <path class="fil6" d="M28307 1925c0,0 -138,-153 -193,-2 -55,151 174,836 184,868 0,0 25,60 59,28 35,-32 -51,-894 -51,-894z"/>
     </g>
     <g>
      <path class="fil7" d="M30925 2259l-184 247c0,0 5,-540 -24,-625 -30,-85 -75,-344 -100,-405 -25,-61 -1106,-364 -2061,88 0,0 42,389 -50,423 -92,35 -47,633 -47,633l-152 -171c0,0 -232,-1550 -175,-1712 57,-162 240,-1133 2200,-556 0,0 611,-129 734,292 123,422 -141,1786 -141,1786z"/>
     </g>
     <path class="fil6" d="M30601 4792c-1,-2 -165,-81 -165,-81 -80,-179 -21,-937 -21,-937 0,0 -1641,-418 -1594,-98 47,319 -141,1061 -141,1061l-842 418c0,0 897,2408 1927,2097 1031,-311 1420,-2184 1420,-2184l-585 -276z"/>
     <path class="fil8" d="M28845 4030c0,0 264,341 723,341 302,0 518,-85 819,-378 0,0 -130,557 -817,608 0,0 -498,63 -725,-572z"/>
    </g>
    <g>
     <polygon class="fil9" points="30247,11326 29025,11326 29025,11100 30247,11100 "/>
    </g>
    <g>
     <path class="fil9" d="M33298 2358l0 221 1303 0 0 1223 221 0 0 -1445 -1525 0zm-8850 1445l0 0 221 0 0 -1223 1303 0 0 -221 -1525 0 0 1445zm10153 6311l0 0 0 1224 -1303 0 0 221 1525 0 0 -1445 -221 0zm-9932 0l0 0 -221 0 0 1445 1525 0 0 -221 -1303 0 0 -1224z"/>
    </g>
   </g>
   <g>
    <g>
     <polygon class="fil10" points="32847,21754 29799,23430 26738,18613 30440,17327 "/>
    </g>
    <g>
     <polygon class="fil11" points="32654,21610 29803,23177 26940,18672 30403,17469 "/>
    </g>
    <g>
     <path class="fil6" d="M33698 20767c0,0 -531,-254 -763,-386 -233,-133 -832,-315 -880,-358 -48,-43 -1776,-150 -1881,-240 -105,-90 -207,212 241,310 448,98 1071,338 1105,513 34,175 -460,216 -510,361 -50,144 14,112 85,143 71,31 587,-255 815,-174 227,81 575,-31 749,28 174,60 1021,345 1021,345l19 -540z"/>
    </g>
    <g>
     <path class="fil6" d="M29650 22826c0,0 -446,-401 -661,-569 -216,-168 -620,-661 -680,-690 -60,-29 -833,-1615 -959,-1679 -126,-64 119,-277 386,106 267,384 735,877 913,841 178,-36 25,-518 141,-621 116,-103 111,-30 168,24 57,55 -12,653 153,836 165,183 194,554 318,695 124,141 722,828 722,828l-502 229z"/>
    </g>
    <g>
     <path class="fil12" d="M39249 44267c0,0 96,669 108,770 12,101 1073,-59 1073,-59l86 -797c0,0 -1134,-8 -1267,86z"/>
    </g>
    <g>
     <path class="fil10" d="M39346 44952c0,0 -336,403 -661,579 -325,176 -836,246 -1028,427 -139,131 -505,697 844,685 1350,-11 2001,80 2145,-137 145,-217 -209,-1600 -209,-1600 0,0 -320,115 -1092,45z"/>
    </g>
    <g>
     <path class="fil12" d="M31651 44267c0,0 96,669 108,770 12,101 1073,-59 1073,-59l86 -797c0,0 -1134,-8 -1267,86z"/>
    </g>
    <g>
     <path class="fil10" d="M31748 44952c0,0 -336,403 -661,579 -325,176 -1521,320 -1713,502 -139,131 -369,660 1530,611 1349,-35 2001,80 2145,-137 145,-217 -209,-1600 -209,-1600 0,0 -301,123 -1092,45z"/>
    </g>
    <g>
     <path class="fil10" d="M38371 27071c0,0 996,1583 922,3014 -74,1431 361,2994 511,4489 167,1667 850,5612 875,6504 25,891 -106,3738 -106,3738l-1367 31c0,0 -1148,-6898 -1446,-7602 -297,-704 -1772,-5722 -1821,-6285 -50,-563 2432,-3890 2432,-3890z"/>
    </g>
    <g>
     <path class="fil10" d="M33125 27286c0,0 -751,3922 -850,4798 -99,876 -165,4239 -215,4786 -50,547 -330,7164 -595,7977l1748 0c0,0 1342,-4810 1342,-7086 0,-2276 1037,-4947 1706,-6449 669,-1501 2201,-1537 2612,-4323 0,0 -5190,-588 -5747,296z"/>
    </g>
    <g>
     <path class="fil6" d="M36708 13760c0,0 -1338,-500 -1954,519 -617,1018 -557,3056 117,3307 674,251 1687,120 2032,-518 345,-637 657,-1558 642,-2174 -15,-616 -486,-957 -837,-1134z"/>
    </g>
    <g>
     <path class="fil6" d="M35016 17633c0,0 56,361 -36,539 -92,178 1733,183 1733,183 0,0 148,-968 429,-1785 281,-818 -2125,1064 -2125,1064z"/>
    </g>
    <g>
     <path class="fil13" d="M37141 16569c0,0 -126,208 -640,127 -514,-81 -1141,-765 -1356,-840 -215,-75 -217,-201 -217,-201l-134 196 -228 14c0,0 208,-612 -106,-861 -314,-249 326,-1980 1974,-1404 0,0 1266,349 1220,1069 -46,720 -230,1541 -514,1899z"/>
    </g>
    <g>
     <path class="fil14" d="M34871 18150c0,0 6,-340 160,-373 154,-33 1701,-181 1890,-107l0 396c0,0 -364,224 -2049,84z"/>
    </g>
    <g>
     <path class="fil6" d="M34963 15393c29,-121 336,-466 454,-96 118,370 -178,867 -343,824 -165,-43 -184,-422 -111,-728z"/>
    </g>
    <g>
     <path class="fil15" d="M28734 22166c1,0 1,0 2,0 -10,5 -12,5 -2,0z"/>
    </g>
    <path class="fil16" d="M39495 30843c0,0 -820,241 -2219,396 -1399,154 -4894,-56 -4916,-221 -22,-165 752,-6153 708,-6462 -44,-308 -68,-1407 -68,-1407 -17,301 -324,1531 -694,2201 -134,242 -583,1001 -799,829 -1047,-836 -2668,-3986 -2771,-4013 86,-38 768,-352 864,-383 84,-28 839,772 1297,1268 204,221 349,382 349,382 132,-297 614,-2171 763,-2819 337,-1462 286,-1523 286,-1523 1023,-310 2576,-940 2576,-940l2049 -83c0,0 1881,414 2622,749l3 3 0 0 3 5c94,154 820,2698 342,4239 -53,173 -296,319 -454,382 -101,41 -214,54 -328,33l-80 -15 0 0 0 0c-104,819 -225,1850 -265,2466 -34,524 732,4914 732,4914z"/>
    <g>
     <path class="fil17" d="M39437 23445l0 0c-101,41 -214,54 -328,33l-80 -15 0 0 138 -1809 270 1790z"/>
    </g>
    <g>
     <path class="fil17" d="M31246 23432l-172 727c0,0 -186,-729 -177,-1109 204,221 349,382 349,382z"/>
    </g>
    <g>
     <path class="fil13" d="M37089 13881c0,0 1753,-219 30,2708l-30 -2708z"/>
    </g>
    <g>
     <polygon class="fil10" points="28147,18354 27969,18048 29372,17564 29550,17868 "/>
    </g>
   </g>
   <g>
    <g>
     <g>
      <g>
       <g>
        <g>
         <path class="fil18" d="M20913 14644c0,0 1049,513 789,1909 -259,1396 -374,1584 -84,2129 290,545 632,2872 371,3312 -261,441 -3231,-1937 -3643,-3933 -412,-1995 261,-2883 499,-3214 238,-331 1142,-673 2067,-203z"/>
        </g>
       </g>
      </g>
     </g>
    </g>
    <g>
     <path class="fil19" d="M20517 47032l238 0 0 -1121c0,0 466,311 759,741 293,430 695,393 1307,366 612,-27 585,-274 530,-622 -55,-347 -676,-457 -878,-512 -201,-55 -658,-841 -804,-1033 -200,-261 -306,-512 -306,-512 0,0 -114,-466 -681,0 -567,466 -402,1362 -338,1444 64,82 174,1249 174,1249z"/>
    </g>
    <g>
     <path class="fil6" d="M21715 45884c210,137 759,0 759,0 -155,-201 -1111,-1545 -1111,-1545 -581,-338 -810,127 -810,127 237,72 952,1281 1162,1418z"/>
    </g>
    <g>
     <g>
      <g>
       <g>
        <path class="fil6" d="M27827 25204c0,0 380,73 510,-106 111,-152 363,-269 441,-305 104,-48 368,-315 430,-185 62,131 -414,461 -500,550 -86,89 467,129 562,216 95,87 -22,999 -398,928 -376,-71 -731,-395 -800,-395 -69,1 -276,-41 -276,-41l30 -663z"/>
       </g>
      </g>
     </g>
    </g>
    <g>
     <g>
      <g>
       <g>
        <path class="fil6" d="M29187 25337c0,0 1138,294 1197,377 59,83 40,144 -68,121 -108,-23 -1108,-252 -1108,-252 0,0 1288,574 1352,632 37,34 6,153 -52,146 -59,-7 -1368,-503 -1368,-503 0,0 1202,538 1241,602 34,56 -22,159 -114,125 -92,-34 -1236,-470 -1236,-470 0,0 850,447 851,520 1,45 -21,150 -237,27 -216,-122 -755,-357 -755,-357l296 -968z"/>
       </g>
      </g>
     </g>
    </g>
    <g>
     <path class="fil19" d="M17437 47109l146 0 0 -823c0,0 260,268 379,661 119,393 544,510 1193,491 649,-18 658,-275 603,-658 -55,-384 -603,-585 -603,-585 -247,-219 -859,-1129 -859,-1129 0,0 -393,-105 -702,144 -308,249 -213,811 -203,958 9,146 46,942 46,942z"/>
    </g>
    <g>
     <path class="fil20" d="M17885 27509c0,0 -773,1006 -983,2199 -210,1193 124,5197 115,5787 -9,590 -558,2057 -448,3168 110,1111 543,6639 543,6639l1185 -235c0,0 -69,-5636 0,-6102 69,-466 206,-2166 234,-2358 27,-192 1741,-5233 1741,-6093 0,-860 -521,-4407 -2386,-3004z"/>
    </g>
    <g>
     <path class="fil20" d="M21770 27902c0,0 1271,4850 1422,5522 151,672 369,1226 369,1511 0,662 -246,1725 -246,1725l-1613 7717 -1537 0c0,0 856,-4630 879,-5535 23,-907 722,-2196 585,-2580 -137,-384 -2208,-4813 -2208,-4813 0,0 -1568,-4955 2349,-3547z"/>
    </g>
    <g>
     <path class="fil6" d="M19156 46194l-859 -1129 -702 144c0,0 189,505 530,885 404,450 1031,100 1031,100z"/>
    </g>
    <g>
     <g>
      <path class="fil21" d="M21246 19661c0,0 524,49 920,473 396,424 767,1100 871,1327 104,226 1557,2323 1632,2370 75,47 806,291 1290,454 747,251 2244,795 2244,795l-297 941c0,0 -2815,-921 -3521,-1095 -862,-212 -2847,-2759 -2847,-2759 0,0 -1480,-1734 -292,-2507z"/>
     </g>
    </g>
    <g>
     <g>
      <path class="fil22" d="M20332 19293c0,0 679,320 914,368 236,47 1150,1235 1310,1668 160,433 0,1084 -330,1847 -330,763 -19,1018 -170,1781 -151,763 -102,3619 -74,4044 28,424 -4412,1067 -5288,294 0,0 593,-2574 1296,-3309 152,-159 136,-1218 32,-1482 -104,-264 -1273,-2234 -1273,-2234 0,0 -86,-1998 424,-2394 443,-344 1650,-467 1867,-542 217,-75 847,-108 1290,-42z"/>
     </g>
    </g>
    <g>
     <g>
      <path class="fil6" d="M20656 18510c0,0 -20,187 -44,439 -9,100 -19,210 -28,323 -27,339 -49,702 -36,888 0,0 -705,707 -1507,-825 0,0 337,-632 83,-1491 -254,-860 1531,666 1531,666z"/>
     </g>
    </g>
    <g>
     <path class="fil23" d="M22629 23458c0,0 170,-1129 -11,-1816 0,0 0,590 -324,1429l334 387z"/>
    </g>
    <g>
     <path class="fil6" d="M18499 19444c0,0 485,1433 1817,1327 1332,-105 631,-1210 631,-1210 0,0 -332,-190 -425,-208 -93,-18 -1472,-35 -1472,-35l-551 126z"/>
    </g>
    <g>
     <path class="fil24" d="M20948 19562c0,0 697,1930 697,3896 0,1967 56,5170 300,6182 244,1012 937,4140 937,4140l543 -281c0,0 -1306,-4993 -1405,-5353 -99,-360 75,-4164 168,-4482 94,-318 492,-1736 430,-2129 -78,-496 -542,-1229 -1291,-1860l-379 -112z"/>
    </g>
    <g>
     <path class="fil25" d="M18763 19384c0,0 434,1388 653,3166 220,1778 -674,10031 -1274,11904l-2323 -375c0,0 500,-5833 1179,-6895 679,-1062 895,-2001 162,-4216 -733,-2216 321,-3313 321,-3313 0,0 1078,-248 1282,-271z"/>
    </g>
    <g>
     <polygon class="fil26" points="21269,25271 18452,30149 15321,28341 18015,23392 "/>
    </g>
    <g>
     <polygon class="fil27" points="20929,25439 18428,29771 15647,28166 18040,23770 "/>
    </g>
    <g>
     <polygon class="fil26" points="20006,25049 20182,24745 19058,24096 18838,24375 "/>
    </g>
    <g>
     <g>
      <g>
       <g>
        <g>
         <g>
          <path class="fil6" d="M19872 28511c0,0 -128,1 -184,-27 0,0 -98,-57 -171,-93 -23,-11 -43,-21 -57,-26 -57,-20 -189,-46 -314,-133 -124,-86 -566,-597 -566,-597l208 -317 153 -324c0,0 926,60 1051,127 12,7 24,14 35,21 101,67 147,159 196,200 18,15 185,179 179,248 -8,97 -53,160 -111,192 0,0 -24,188 -117,276 0,0 -17,174 -163,251 0,0 -37,175 -139,201z"/>
         </g>
        </g>
       </g>
      </g>
     </g>
    </g>
    <g>
     <g>
      <path class="fil28" d="M17963 19661c0,0 -855,-245 -1345,697 -490,942 -488,1345 -553,1805 -62,435 -341,1621 -369,1743 -28,122 -661,1584 -371,2094 291,513 3252,2024 3233,2137 -19,113 513,-1142 513,-1142 0,0 -1198,-668 -1394,-873 -319,-334 -991,-694 -853,-1108 162,-487 650,-2128 763,-2369 113,-240 1098,-2679 377,-2985z"/>
     </g>
    </g>
    <g>
     <g>
      <g>
       <g>
        <g>
         <path class="fil29" d="M20761 14799c0,0 1523,478 696,3106 -827,2628 -2906,-304 -2689,-1906 217,-1601 1993,-1201 1993,-1201z"/>
        </g>
       </g>
      </g>
     </g>
    </g>
    <g>
     <g>
      <g>
       <g>
        <g>
         <path class="fil18" d="M21613 16332c0,0 -757,742 -2023,835 0,0 -487,571 -524,795 0,0 -1130,-1926 259,-3080 1389,-1154 2798,975 2288,1450z"/>
        </g>
       </g>
      </g>
     </g>
    </g>
    <g>
     <g>
      <g>
       <g>
        <g>
         <path class="fil29" d="M19605 17220c-10,-191 -128,-626 -412,-505 -284,122 17,1008 206,954 0,0 229,4 206,-449z"/>
        </g>
       </g>
      </g>
     </g>
    </g>
    <g>
     <path class="fil8" d="M20612 18949c-9,100 -19,210 -28,323 0,0 -672,-40 -1121,-1040 29,44 522,767 1149,717z"/>
    </g>
   </g>
   <g>
    <g>
     <path class="fil30" d="M6363 41632c28,-3141 4621,-4757 5003,-6035 -484,-240 -1101,-70 -1533,184 -1480,867 -3228,3269 -3733,4967 -58,192 -162,521 -94,729 51,159 343,429 363,97l-6 58z"/>
     <path class="fil31" d="M10378 32488c-707,2643 -3437,3031 -4133,8256 -68,342 9,707 -253,955 -253,241 -393,144 -463,-52 471,-4262 2294,-8309 4849,-9159z"/>
     <path class="fil32" d="M7533 31631c442,2660 -2216,3692 -1336,10107 -156,1 -319,134 -403,-67 -876,-7048 201,-8845 1739,-10041z"/>
     <path class="fil33" d="M5361 41685c722,-4403 -3513,-4638 -4346,-6948 2719,-1049 5486,3422 4890,6985l-544 -37z"/>
     <path class="fil34" d="M6237 41696c1166,-2572 3463,-1114 4709,-2012 -1054,-1563 -4069,-256 -5006,1828l297 184z"/>
     <path class="fil35" d="M5240 41664c153,-2112 -1857,-2031 -2349,-3083 1239,-619 2736,1366 2607,3076l-258 7z"/>
    </g>
    <g>
     <g>
      <path class="fil36" d="M4518 42071c0,0 287,2112 517,2272 116,81 1543,181 1732,-7 190,-187 652,-2401 652,-2401l-2901 136z"/>
     </g>
     <g>
      <path class="fil37" d="M4427 41469c0,0 -225,381 -13,604 213,225 3072,300 3124,-1 17,-103 84,-557 -269,-618 -354,-59 -2768,-145 -2843,16z"/>
     </g>
    </g>
   </g>
  </g>
 </g>
</svg>
