<?xml version="1.0" encoding="UTF-8"?>
<!DOCTYPE svg PUBLIC "-//W3C//DTD SVG 1.0//EN" "http://www.w3.org/TR/2001/REC-SVG-20010904/DTD/svg10.dtd">
<!-- Creator: CorelDRAW 2019 (64-Bit) -->
<svg xmlns="http://www.w3.org/2000/svg" xml:space="preserve" width="2.1231in" height="1.39896in" version="1.0" style="shape-rendering:geometricPrecision; text-rendering:geometricPrecision; image-rendering:optimizeQuality; fill-rule:evenodd; clip-rule:evenodd"
viewBox="0 0 98817 65113"
 xmlns:xlink="http://www.w3.org/1999/xlink">
 <defs>
  <style type="text/css">
   <![CDATA[
    .fil7 {fill:#FEFEFE}
    .fil26 {fill:#FEF0C5}
    .fil11 {fill:#EEEFEF}
    .fil5 {fill:#DBCFE6}
    .fil12 {fill:#CDCDCD}
    .fil8 {fill:#BCE3F6}
    .fil6 {fill:#5CB7D4}
    .fil9 {fill:#5154A1}
    .fil38 {fill:#374968}
    .fil27 {fill:#2C3342}
    .fil4 {fill:#303B53}
    .fil3 {fill:#2D3147}
    .fil40 {fill:#032B5B}
    .fil32 {fill:#2776D6}
    .fil31 {fill:#6CBBE9}
    .fil0 {fill:whitesmoke}
    .fil10 {fill:#FEFEFE;fill-rule:nonzero}
    .fil29 {fill:#374968;fill-rule:nonzero}
    .fil23 {fill:#374366;fill-rule:nonzero}
    .fil28 {fill:#303B53;fill-rule:nonzero}
    .fil34 {fill:#2D3147;fill-rule:nonzero}
    .fil22 {fill:#2E374F;fill-rule:nonzero}
    .fil2 {fill:#6CBBE9;fill-rule:nonzero}
    .fil36 {fill:#05499C;fill-opacity:0.800000}
    .fil33 {fill:#6CBBE9;fill-opacity:0.800000}
    .fil24 {fill:url(#id2)}
    .fil30 {fill:url(#id3)}
    .fil37 {fill:url(#id4);fill-rule:nonzero}
    .fil15 {fill:url(#id5);fill-rule:nonzero}
    .fil14 {fill:url(#id6);fill-rule:nonzero}
    .fil20 {fill:url(#id7);fill-rule:nonzero}
    .fil21 {fill:url(#id8);fill-rule:nonzero}
    .fil16 {fill:url(#id9);fill-rule:nonzero}
    .fil18 {fill:url(#id10);fill-rule:nonzero}
    .fil19 {fill:url(#id11);fill-rule:nonzero}
    .fil35 {fill:url(#id12);fill-rule:nonzero}
    .fil17 {fill:url(#id13);fill-rule:nonzero}
    .fil13 {fill:url(#id14);fill-rule:nonzero}
    .fil25 {fill:url(#id15);fill-rule:nonzero;fill-opacity:0.101961}
    .fil39 {fill:url(#id16)}
    .fil1 {fill:url(#id17);fill-rule:nonzero}
   ]]>
  </style>
    <mask id="id0">
      <pattern id="id1" patternUnits="userSpaceOnUse" x="0" y="47565" width="98888" height="11413" viewBox="-24895 86711 98888 11413">
       <g>
        <path id="1" class="fil1" d="M73993 92417c0,3152 -22136,5707 -49443,5707 -27307,0 -49444,-2555 -49444,-5707 0,-3151 22137,-5706 49444,-5706 27307,0 49443,2555 49443,5706z"/>
       </g>
      </pattern>
     <rect style="fill:url(#id1)" x="-70" y="50701" width="71252" height="8347"/>
    </mask>
  <linearGradient id="id2" gradientUnits="userSpaceOnUse" x1="54664" y1="26993" x2="54311" y2="40601">
   <stop offset="0" style="stop-opacity:1; stop-color:#E0298F"/>
   <stop offset="1" style="stop-opacity:1; stop-color:#77458D"/>
  </linearGradient>
  <linearGradient id="id3" gradientUnits="userSpaceOnUse" x1="31731" y1="47740" x2="37932" y2="2588">
   <stop offset="0" style="stop-opacity:1; stop-color:#EC268F"/>
   <stop offset="1" style="stop-opacity:1; stop-color:#FFCC5E"/>
  </linearGradient>
  <linearGradient id="id4" gradientUnits="userSpaceOnUse" x1="57245" y1="23053" x2="76344" y2="11666">
   <stop offset="0" style="stop-opacity:1; stop-color:#032B5B"/>
   <stop offset="1" style="stop-opacity:1; stop-color:#6CBBE9"/>
  </linearGradient>
  <linearGradient id="id5" gradientUnits="userSpaceOnUse" x1="84858" y1="31847" x2="61503" y2="31847">
   <stop offset="0" style="stop-opacity:1; stop-color:#EC268F"/>
   <stop offset="1" style="stop-opacity:1; stop-color:#FBB24B"/>
  </linearGradient>
  <linearGradient id="id6" gradientUnits="userSpaceOnUse" x1="86862" y1="39981" x2="57949" y2="39981">
   <stop offset="0" style="stop-opacity:1; stop-color:#6C3D94"/>
   <stop offset="1" style="stop-opacity:1; stop-color:#317ABE"/>
  </linearGradient>
  <linearGradient id="id7" gradientUnits="userSpaceOnUse" x1="65100" y1="28706" x2="60932" y2="30449">
   <stop offset="0" style="stop-opacity:1; stop-color:#90C96C"/>
   <stop offset="0.290196" style="stop-opacity:1; stop-color:#90C96C"/>
   <stop offset="0.690196" style="stop-opacity:1; stop-color:#6C3D94"/>
   <stop offset="0.788235" style="stop-opacity:1; stop-color:#6C3D94"/>
   <stop offset="1" style="stop-opacity:1; stop-color:#6C3D94"/>
  </linearGradient>
  <linearGradient id="id8" gradientUnits="userSpaceOnUse" xlink:href="#id7" x1="58891" y1="28019" x2="60991" y2="30709">
  </linearGradient>
  <linearGradient id="id9" gradientUnits="userSpaceOnUse" xlink:href="#id7" x1="65694" y1="25845" x2="60717" y2="30746">
  </linearGradient>
  <linearGradient id="id10" gradientUnits="userSpaceOnUse" xlink:href="#id7" x1="62313" y1="24123" x2="60933" y2="29892">
  </linearGradient>
  <linearGradient id="id11" gradientUnits="userSpaceOnUse" xlink:href="#id7" x1="57477" y1="24930" x2="61365" y2="31005">
  </linearGradient>
  <linearGradient id="id12" gradientUnits="userSpaceOnUse" x1="64848" y1="30912" x2="33760" y2="29612">
   <stop offset="0" style="stop-opacity:1; stop-color:#FFCC5E"/>
   <stop offset="1" style="stop-opacity:1; stop-color:#EC268F"/>
  </linearGradient>
  <linearGradient id="id13" gradientUnits="userSpaceOnUse" xlink:href="#id7" x1="65209" y1="22935" x2="60343" y2="31244">
  </linearGradient>
  <linearGradient id="id14" gradientUnits="userSpaceOnUse" xlink:href="#id5" x1="96872" y1="49610" x2="25566" y2="49764">
  </linearGradient>
  <linearGradient id="id15" gradientUnits="userSpaceOnUse" xlink:href="#id3" x1="54515" y1="420969" x2="37074" y2="-35633">
  </linearGradient>
  <linearGradient id="id16" gradientUnits="userSpaceOnUse" x1="95653" y1="31426" x2="77878" y2="16228">
   <stop offset="0" style="stop-opacity:1; stop-color:#382146"/>
   <stop offset="0.121569" style="stop-opacity:1; stop-color:#382146"/>
   <stop offset="0.14902" style="stop-opacity:1; stop-color:#382146"/>
   <stop offset="0.819608" style="stop-opacity:1; stop-color:#FEFEFE"/>
   <stop offset="1" style="stop-opacity:1; stop-color:#FEFEFE"/>
  </linearGradient>
  <radialGradient id="id17" gradientUnits="objectBoundingBox" cx="50.0001%" cy="50%" r="50.0001%" fx="50.0001%" fy="50%">
   <stop offset="0" style="stop-opacity:1; stop-color:white"/>
   <stop offset="0.168627" style="stop-opacity:1; stop-color:white"/>
   <stop offset="0.690196" style="stop-opacity:1; stop-color:#949595"/>
   <stop offset="1" style="stop-opacity:1; stop-color:black"/>
  </radialGradient>
 </defs>
 <g id="Layer_x0020_1">
  <metadata id="CorelCorpID_0Corel-Layer"/>
  <g id="_2241971597120">
   <path class="fil0" d="M91732 56132c1296,-4103 1996,-8471 1996,-13002 0,-23820 -19310,-43129 -43130,-43129 -23820,0 -43130,19309 -43130,43129 0,4532 701,8899 1996,13002l82266 0z"/>
   <path id="1" class="fil2" style="mask:url(#id0)" d="M71112 54875c0,2267 -15919,4104 -35556,4104 -19638,0 -35557,-1837 -35557,-4104 0,-2266 15919,-4104 35557,-4104 19637,0 35556,1837 35556,4104z"/>
   <g id="_2241971633440">
    <polygon class="fil3" points="46428,31975 47515,31975 47515,29606 46428,29606 "/>
    <g>
     <path class="fil4" d="M46972 31684c1736,0 3155,248 3257,562l-6515 0c103,-314 1522,-562 3258,-562z"/>
    </g>
    <g>
     <path class="fil4" d="M40222 20653l13498 0c343,0 625,290 625,644l0 7988 -14747 0 0 -7988c0,-354 281,-644 624,-644z"/>
    </g>
    <path class="fil5" d="M54345 29284l0 281c0,354 -281,644 -625,644l-13498 0c-343,0 -624,-290 -624,-644l0 -281 14747 0z"/>
    <path class="fil6" d="M40222 20985l13498 0c166,0 302,140 302,311l0 7656 -14102 0 0 -7656c0,-171 136,-311 302,-311z"/>
    <path class="fil7" d="M46972 29970c122,0 222,-103 222,-229 0,-125 -100,-227 -222,-227 -122,0 -222,103 -222,227 0,126 100,229 222,229z"/>
   </g>
   <g id="_2241971632832">
    <path class="fil8" d="M43051 21843l9659 0c263,0 477,214 477,477 0,262 -214,478 -477,478l-9659 0c-262,0 -477,-215 -477,-478 0,-263 215,-477 477,-477z"/>
    <path class="fil9" d="M41234 21843l352 0c262,0 477,214 477,477 0,262 -215,478 -477,478l-352 0c-263,0 -478,-215 -478,-478 0,-263 215,-477 478,-477z"/>
    <path class="fil10" d="M41094 22036c41,-42 95,-62 149,-62 54,0 108,20 149,62 41,40 61,95 61,149 0,40 -11,80 -34,115l277 277c17,16 17,43 0,60 -16,16 -43,16 -60,0l-277 -278c-35,23 -75,34 -116,34 -54,0 -107,-20 -149,-62 -41,-40 -61,-94 -61,-148 0,-54 20,-109 61,-149zm149 12l0 0c-35,0 -69,13 -97,40 -26,26 -40,61 -40,97 0,35 14,69 40,96 27,27 62,40 97,40 35,0 70,-13 97,-40 27,-26 40,-61 40,-96 0,-36 -13,-70 -40,-97 -26,-27 -62,-40 -97,-40z"/>
   </g>
   <g id="_2241971631328">
    <path class="fil8" d="M41313 23328l11317 0c214,0 390,176 390,390l0 4293c0,214 -176,391 -390,391l-11317 0c-215,0 -390,-176 -390,-391l0 -4293c0,-214 175,-390 390,-390z"/>
   </g>
   <g id="_2241971628768">
    <path class="fil11" d="M84294 44829l-26765 0c2474,3223 2218,6445 0,9668l26765 0c2657,0 4833,-2173 4833,-4834 0,-2659 -2176,-4834 -4833,-4834z"/>
    <g>
     <path class="fil12" d="M72594 46072c6293,0 11596,104 13181,253l-26365 0c1585,-149 6889,-253 13184,-253zm2146 3785l0 0c6295,0 11597,-106 13182,-249l-26366 0c1589,143 6888,249 13184,249zm-1084 1648l0 0c6295,0 11595,-107 13182,-249l-26366 0c1588,142 6888,249 13184,249zm-1084 1647l0 0c6296,0 11596,-106 13182,-251l-26366 0c1589,145 6889,251 13184,251zm1106 -5434l0 0c6294,0 11596,106 13182,253l-26365 0c1584,-147 6887,-253 13183,-253z"/>
    </g>
    <path class="fil13" d="M84294 44330c-9522,0 -19045,0 -28567,0 -673,49 -664,983 0,997l28567 0c1191,0 2274,488 3062,1272 784,786 1273,1871 1273,3063 0,1192 -489,2277 -1273,3061 -787,786 -1871,1276 -3062,1276 -9522,0 -19045,0 -28567,0 -725,48 -718,985 0,996l28567 0c1465,0 2800,-600 3764,-1568 967,-966 1568,-2300 1568,-3765 0,-1466 -601,-2802 -1568,-3766 -963,-966 -2299,-1567 -3764,-1567z"/>
   </g>
   <g id="_2241971626400">
    <path class="fil11" d="M82387 35922l-22471 0c2077,2706 1862,5411 0,8117l22471 0c2231,0 4058,-1825 4058,-4058 0,-2232 -1827,-4059 -4058,-4059z"/>
    <g>
     <path class="fil12" d="M72564 36966c5283,0 9735,88 11066,213l-22135 0c1331,-125 5783,-213 11069,-213zm1801 3178l0 0c5285,0 9736,-89 11067,-209l-22135 0c1334,120 5783,209 11068,209zm-910 1383l0 0c5285,0 9735,-90 11066,-209l-22135 0c1333,120 5783,209 11069,209zm-910 1383l0 0c5286,0 9735,-89 11067,-211l-22135 0c1334,122 5783,211 11068,211zm928 -4562l0 0c5284,0 9736,89 11067,212l-22134 0c1330,-123 5782,-212 11067,-212z"/>
    </g>
    <path class="fil14" d="M82387 35504c-7994,0 -15989,0 -23983,0 -565,41 -557,825 0,838l23983 0c999,0 1909,409 2570,1068 659,660 1069,1571 1069,2572 0,1001 -410,1911 -1069,2570 -661,660 -1571,1071 -2570,1071 -7994,0 -15989,0 -23983,0 -609,41 -603,827 0,836l23983 0c1230,0 2351,-504 3160,-1316 812,-811 1316,-1930 1316,-3161 0,-1231 -505,-2352 -1316,-3161 -809,-811 -1930,-1316 -3160,-1316z"/>
   </g>
   <g id="_2241971625952">
    <path class="fil11" d="M81242 28569l-18151 0c1677,2186 1504,4371 0,6556l18151 0c1802,0 3277,-1474 3277,-3278 0,-1803 -1475,-3278 -3277,-3278z"/>
    <g>
     <path class="fil12" d="M73308 29412c4268,0 7864,71 8939,172l-17879 0c1075,-101 4671,-172 8941,-172zm1455 2567l0 0c4269,0 7864,-72 8939,-169l-17879 0c1077,97 4671,169 8941,169zm-735 1117l0 0c4269,0 7864,-72 8939,-169l-17880 0c1077,97 4671,169 8941,169zm-736 1118l0 0c4270,0 7864,-72 8940,-170l-17880 0c1077,98 4672,170 8940,170zm750 -3685l0 0c4268,0 7864,72 8939,171l-17879 0c1074,-99 4671,-171 8940,-171z"/>
    </g>
    <path class="fil15" d="M81242 28231c-6457,0 -12915,0 -19372,0 -456,33 -450,666 0,676l19372 0c807,0 1542,331 2076,863 532,533 863,1269 863,2077 0,808 -331,1544 -863,2076 -534,533 -1269,865 -2076,865 -6457,0 -12915,0 -19372,0 -491,33 -487,668 0,675l19372 0c993,0 1899,-407 2552,-1063 656,-655 1063,-1559 1063,-2553 0,-995 -408,-1900 -1063,-2553 -653,-656 -1559,-1063 -2552,-1063z"/>
   </g>
   <g id="_2241971618304">
    <g>
     <path class="fil16" d="M61488 30507c19,-2185 3215,-3310 3481,-4198 -336,-167 -766,-49 -1066,128 -1030,603 -2246,2274 -2597,3455 -40,133 -113,362 -66,508 36,111 239,298 253,67l-4 40z"/>
     <path class="fil17" d="M64281 24146c-492,1838 -2391,2109 -2875,5743 -47,238 7,492 -176,664 -176,167 -273,100 -322,-36 328,-2965 1596,-5781 3373,-6372z"/>
     <path class="fil18" d="M62302 23550c308,1850 -1542,2568 -930,7032 -108,1 -222,93 -280,-46 -610,-4903 140,-6153 1210,-6985z"/>
     <path class="fil19" d="M60791 30544c503,-3063 -2444,-3227 -3023,-4834 1892,-729 3816,2381 3402,4859l-378 -26z"/>
     <path class="fil20" d="M61400 30551c811,-1789 2409,-775 3276,-1399 -733,-1087 -2830,-178 -3483,1271l207 128z"/>
     <path class="fil21" d="M60707 30529c106,-1469 -1292,-1413 -1634,-2145 862,-430 1904,951 1814,2140l-180 5z"/>
    </g>
    <g>
     <g>
      <path class="fil22" d="M60204 30813c0,0 200,1469 360,1580 81,56 1073,126 1205,-5 132,-130 453,-1670 453,-1670l-2018 94z"/>
     </g>
     <g>
      <path class="fil23" d="M60141 30393c0,0 -156,265 -9,420 148,157 2137,209 2173,-1 12,-72 59,-388 -187,-430 -246,-41 -1926,-101 -1978,11z"/>
     </g>
    </g>
   </g>
   <g id="_2241971619552">
    <path class="fil24" d="M53389 29434l1566 0c148,0 268,107 290,245 238,0 430,84 572,222 89,92 156,199 193,329 30,122 37,253 7,390 -67,306 -297,627 -764,857l0 490c0,169 -134,306 -297,306l-1566 0c-164,0 -297,-137 -297,-306l0 -2227c0,-169 134,-306 297,-306zm1863 627l0 0 0 981c245,-153 364,-329 401,-498 15,-76 15,-146 0,-206 -23,-62 -52,-115 -97,-161 -67,-69 -178,-115 -304,-115z"/>
   </g>
   <polygon class="fil25" points="60908,12953 6554,55034 61605,54875 72914,18158 "/>
   <g id="_2241971602112">
    <path class="fil26" d="M32438 21643c356,0 661,-419 661,-944 0,-524 -305,-943 -661,-943 -355,0 -635,419 -635,943 0,525 279,944 635,944z"/>
    <path class="fil26" d="M34319 19677c533,0 965,445 965,996l0 4428c0,551 -432,995 -965,995 -534,0 -966,-445 -966,-995l0 -4428c0,-551 432,-996 966,-996z"/>
    <path class="fil26" d="M32845 18498c636,-367 2998,-524 3329,-26 533,759 610,5973 -1778,5527 -2109,105 -2185,-5135 -1550,-5502z"/>
    <g>
     <path class="fil4" d="M33861 23529c1550,-394 1372,-2463 2033,-3249 76,-105 279,-210 304,53 76,550 25,-707 0,-786 -25,-577 280,-681 153,-1022 -406,-1258 -3074,-1703 -3836,-367 -1474,1336 152,5398 1346,5371z"/>
    </g>
    <path class="fil26" d="M35690 21799c356,0 661,-419 661,-943 0,-524 -305,-943 -661,-943 -356,0 -635,419 -635,943 0,525 280,943 635,943z"/>
    <polygon class="fil3" points="22910,33014 23901,33171 20573,54996 19557,54970 "/>
    <g>
     <path class="fil27" d="M35741 53031c0,0 -381,786 -305,1257 76,472 940,708 2058,524 1143,-209 2058,26 2312,-314 254,-315 -330,-1022 -2566,-1415 -1220,236 -1499,-53 -1499,-53z"/>
    </g>
    <g>
     <path class="fil27" d="M39908 53581c0,0 -381,785 -279,1257 76,497 915,734 2058,524 1143,-183 2058,26 2312,-288 254,-340 -330,-1021 -2566,-1414 -1219,210 -1524,-78 -1524,-78z"/>
    </g>
    <path class="fil26" d="M42347 31128c0,0 1143,-655 1880,-394 762,262 1905,1153 1550,1442 -331,288 -2287,-78 -2770,52 -457,132 -661,-1099 -661,-1099z"/>
    <g>
     <path class="fil28" d="M33429 38961c-508,1310 4116,1022 6072,3642 1652,2201 -1118,7782 -2185,10637 -305,498 -1068,472 -1804,105 0,0 1194,-3852 1804,-6707 483,-2331 -102,-2489 -2693,-2881 -6682,-1049 -4395,-6237 -4370,-6237l3176 1441z"/>
    </g>
    <g>
     <path class="fil29" d="M37418 38384c-534,1441 4471,1100 6580,3956 1779,2385 -1169,8358 -2337,11476 -305,341 -940,550 -1982,210 0,-26 1295,-4218 1956,-7284 534,-2542 -128,-2698 -2922,-3144 -10087,-1519 -7445,-7310 -7445,-7336l6149 2122z"/>
    </g>
    <polygon class="fil3" points="30635,54105 31930,54105 31930,44175 30635,44175 "/>
    <path class="fil3" d="M22046 32149l43676 0c356,0 635,288 635,628 0,368 -279,656 -635,656l-43676 0c-355,0 -635,-288 -635,-656 0,-340 280,-628 635,-628z"/>
    <g>
     <path class="fil4" d="M22046 32149l24316 0c330,0 610,288 610,628 0,368 -280,656 -610,656l-24316 0c-355,0 -635,-288 -635,-656 0,-340 280,-628 635,-628z"/>
    </g>
    <path class="fil30" d="M37571 38935l788 -10061c152,-2174 -914,-3930 -2515,-3983l-2261 -53c-1601,-52 -3303,1861 -3456,4035l-686 10087 8130 -26z"/>
    <path class="fil31" d="M23469 39302l-483 -4743c-254,-2673 1119,-4873 3075,-4873l3379 0c1957,0 3760,2201 4040,4873l483 4821c25,366 -229,577 -890,603l-8384 0c-686,26 -1143,-131 -1220,-681z"/>
    <path class="fil32" d="M25502 42184l11561 0c584,0 1092,497 1092,1126 0,603 -508,1127 -1092,1127l-11561 0c-584,0 -1093,-523 -1093,-1127 0,-629 509,-1126 1093,-1126z"/>
    <path class="fil33" d="M25502 42184l7622 0c610,0 1093,497 1093,1126 0,603 -483,1127 -1093,1127l-7622 0c-584,0 -1093,-523 -1093,-1127 0,-629 509,-1126 1093,-1126z"/>
    <path class="fil34" d="M27585 42655c-356,-785 -711,-1912 -788,-3458 -152,-1677 1753,-1624 1906,0 152,2595 1067,3458 1067,3458 -25,787 -1753,996 -2185,0z"/>
    <path class="fil3" d="M30660 53529c2769,0 5056,628 5462,1467l-10900 0c407,-839 2693,-1467 5438,-1467z"/>
    <path class="fil35" d="M37800 26961c0,26 482,5004 1448,5136 1549,183 3201,-1075 3201,-1075l788 1205c0,0 -1982,2228 -4421,1913 -3024,-393 -3532,-6917 -3532,-6943 -152,-2516 2389,-1887 2516,-237z"/>
    <path class="fil36" d="M32667 39800c0,0 51,-4193 -559,-6106 -661,-2384 -2084,-2489 -1677,-3065 482,-419 1220,104 1753,943 940,1416 1118,2883 1270,4533 152,1650 305,3354 305,3405 0,79 -152,341 -1093,289z"/>
    <polygon class="fil3" points="65341,33014 64350,33171 67679,54996 68695,54970 "/>
    <polygon class="fil3" points="49969,33014 50960,33171 47632,54996 46616,54970 "/>
   </g>
   <g id="_2241971596256">
    <g>
     <path class="fil4" d="M73989 12441c418,0 760,-353 760,-784 0,-437 -342,-789 -760,-789 -418,0 -760,352 -760,789 0,431 342,784 760,784z"/>
    </g>
    <path class="fil37" d="M74587 17659l1812 -2091c2047,-2362 1843,-6022 -455,-8141 -2297,-2119 -5847,-1920 -7888,441l-1818 2091c-3487,1136 -6973,2270 -10459,3406 5562,5129 11130,10264 16692,15394l2116 -11100z"/>
    <g>
     <path class="fil38" d="M72812 10419c644,-665 1694,-665 2338,0l11613 11975c638,658 638,1741 0,2405 -644,658 -1694,658 -2338,0l-11613 -11976c-638,-664 -638,-1746 0,-2404z"/>
    </g>
    <path class="fil39" d="M86763 22394l-7667 -7906c-528,1000 -1264,1933 -2015,2737l7344 7574c644,658 1694,658 2338,0 638,-664 638,-1746 0,-2405z"/>
    <g>
     <g>
      <path class="fil38" d="M85974 21903c865,131 1462,969 1334,1861l-4200 28695c-128,892 -940,1508 -1804,1375 -865,-137 -1462,-974 -1334,-1866l4200 -28690c128,-891 940,-1513 1804,-1376z"/>
     </g>
     <g>
      <path class="fil4" d="M85754 24338c423,0 766,-353 766,-789 0,-431 -342,-784 -766,-784 -418,0 -760,353 -760,784 0,436 342,789 760,789z"/>
     </g>
    </g>
    <g>
     <g>
      <path class="fil40" d="M78322 51957l6717 0c476,0 882,358 963,831l-8643 0c81,-472 481,-831 963,-831z"/>
     </g>
     <path class="fil40" d="M72151 52638l19062 0c1282,0 2337,1047 2401,2358l-23865 0c64,-1310 1120,-2358 2402,-2358z"/>
    </g>
   </g>
   <g id="_2241971595680">
    <path class="fil31" d="M3490 55077l78817 0c1005,0 1834,380 1834,844 0,465 -828,845 -1834,845l-18978 0c-747,126 -1283,456 -1283,844 0,388 535,718 1283,843l12160 0 2789 0c1005,0 1833,379 1833,844 0,465 -828,846 -1833,846l-2789 0 -12180 0c-701,135 -1194,456 -1194,828 0,347 428,647 1052,798l3771 0c1010,0 1834,379 1834,844 0,464 -824,844 -1834,844l-11771 0c832,102 1444,429 1444,812 0,465 -898,844 -1992,844l-9295 0c-1094,0 -1991,-379 -1991,-844 0,-383 613,-709 1441,-812l-19144 0c-1009,0 -1837,-380 -1837,-844 0,-465 828,-844 1837,-844l3605 0c624,-151 1048,-450 1048,-798 0,-372 -493,-693 -1194,-828l-2608 0 -2785 0c-1009,0 -1834,-381 -1834,-846 0,-464 824,-844 1834,-844l2785 0 11763 0c748,-126 1279,-455 1279,-843 0,-389 -531,-718 -1279,-844l-34755 0c-1009,0 -1834,-381 -1834,-845 0,-464 824,-844 1834,-844zm84930 0l0 0 8563 0c1009,0 1834,380 1834,844 0,465 -824,845 -1834,845l-8563 0c-1009,0 -1833,-381 -1833,-845 0,-464 824,-844 1833,-844zm-14987 6693l0 0 8559 0c1009,0 1838,379 1838,844 0,464 -828,844 -1838,844l-8559 0c-1009,0 -1834,-380 -1834,-844 0,-465 824,-844 1834,-844zm-63729 -3315l0 0 8559 0c1009,0 1833,379 1833,844 0,465 -824,846 -1833,846l-8559 0c-1009,0 -1838,-381 -1838,-846 0,-464 828,-844 1838,-844z"/>
   </g>
  </g>
 </g>
</svg>
