<?xml version="1.0" encoding="UTF-8"?>
<!DOCTYPE svg PUBLIC "-//W3C//DTD SVG 1.0//EN" "http://www.w3.org/TR/2001/REC-SVG-20010904/DTD/svg10.dtd">
<!-- Creator: CorelDRAW 2019 (64-Bit) -->
<svg xmlns="http://www.w3.org/2000/svg" xml:space="preserve" width="1.26557in" height="1.14766in" version="1.0" style="shape-rendering:geometricPrecision; text-rendering:geometricPrecision; image-rendering:optimizeQuality; fill-rule:evenodd; clip-rule:evenodd"
viewBox="0 0 28373 25729"
 xmlns:xlink="http://www.w3.org/1999/xlink">
 <defs>
  <style type="text/css">
   <![CDATA[
    .fil0 {fill:#00287B;fill-rule:nonzero}
    .fil2 {fill:#CA0831;fill-rule:nonzero}
    .fil1 {fill:#FFFFF4;fill-rule:nonzero}
   ]]>
  </style>
 </defs>
 <g id="Layer_x0020_1">
  <metadata id="CorelCorpID_0Corel-Layer"/>
  <g id="_1935031415520">
   <path class="fil0" d="M20775 79c0,0 58,880 81,1018 23,139 58,58 174,150 116,93 46,197 58,255 12,58 150,255 185,266 35,12 0,208 0,243 0,35 127,312 116,440 -12,127 -114,208 1,382 115,174 265,174 265,174l69 93c0,0 139,35 208,-81 69,-116 208,-93 208,-93 0,0 -69,149 0,178 69,30 116,134 162,146 46,11 127,0 139,116 12,116 -174,243 0,208 174,-35 231,-162 243,-69 12,93 46,266 0,370 -46,104 -46,208 -46,208 0,0 81,255 70,440 -12,185 104,498 150,498 46,0 93,-116 162,0 69,116 0,197 0,266 0,69 266,11 208,243 -58,232 40,567 8,613 -31,46 15,312 108,382 93,69 208,197 278,243 69,46 127,-46 255,58 127,104 104,220 104,220 0,0 127,-127 220,0 93,127 35,58 93,127 58,69 243,231 417,174 174,-58 116,23 255,139 139,116 278,232 197,266 -81,35 -266,-174 -220,0 46,174 46,312 127,324 81,12 174,-12 243,0 69,12 104,150 104,220 0,69 -139,46 0,162 139,116 127,255 127,289 0,35 12,174 0,220 -12,46 -94,174 5,243 99,69 249,0 249,0 0,0 -116,-255 0,-208 116,46 312,212 336,239 23,27 58,154 231,50 174,-104 197,-23 150,208 -46,231 -5,393 21,532 26,139 188,347 384,382 197,35 278,81 359,255 81,174 127,255 185,359 58,104 162,289 220,382 58,93 35,174 81,232 46,58 116,-23 150,0 35,23 108,-104 108,-104 0,0 -85,93 -39,463 46,370 77,887 123,1042 46,154 270,131 262,293 -8,162 -139,131 -100,262 39,131 116,100 101,208 -16,108 -54,107 -54,107 0,0 -39,55 -39,117 0,62 31,100 31,100 0,0 -54,100 -77,363 -23,262 77,285 -8,363 -85,77 -208,116 -208,116 0,0 216,270 69,486 -147,216 -85,340 -39,478 46,139 -100,278 -123,293 -23,15 46,-201 -62,0 -108,201 -285,725 -625,1088 -340,363 -424,177 -432,432 -8,255 8,270 -62,401 -69,131 -93,15 -147,170 -54,154 -131,332 -108,486 23,154 15,255 -100,262 -116,8 -177,54 -177,108 0,54 39,147 -31,185 -69,39 -123,62 -147,93 -23,31 -208,671 -154,818 54,147 239,339 131,447 -108,108 -185,0 -177,139 8,139 93,131 8,139 -85,8 -108,-8 -139,0 -31,8 -100,147 -100,147 0,0 39,8 -46,0 -85,-8 -116,-77 -185,-69 -69,8 -139,-62 -332,23 -193,85 -170,61 -278,50 -108,-11 -147,-4 -224,12 -77,16 -185,77 -247,139 -62,62 -170,69 -208,123 -39,54 -100,170 -154,193 -54,23 -77,-54 -193,0 -116,54 -108,15 -247,54 -139,39 -262,-8 -270,39 -8,46 293,139 347,147 54,8 116,193 -77,232 -193,39 -285,147 -370,0 -85,-147 -62,-185 -208,-255 -147,-69 -170,-93 -170,-116 0,-23 39,-124 39,-162 0,-38 0,-154 -100,-123 -100,31 -170,108 -177,131 -8,23 -15,123 -62,23 -46,-100 -100,-100 -23,-147 77,-46 85,-62 0,-216 -85,-154 -131,-286 -208,-139 -77,147 -93,123 -170,216 -77,93 -100,-147 -224,139 -123,285 -162,378 -216,409 -54,31 39,39 -54,31 -93,-8 -54,-8 -270,-69 -216,-62 -177,-31 -216,-62 -39,-31 -139,-232 -216,-262 -77,-31 -301,-54 -301,-54 0,0 73,85 -274,120 -347,35 -637,-35 -671,-127 -35,-93 35,-208 -255,-139 -289,70 -220,-231 -301,-312 -81,-81 -139,-162 -139,-162 0,0 -162,-46 -162,-93 0,-46 -12,-162 0,-312 12,-150 -220,-208 -150,-440 69,-232 -35,-451 -69,-463 -35,-11 12,-93 -139,-266 -150,-174 -220,-104 -220,-104 0,0 12,35 -139,150 -150,116 -220,127 -220,127l-243 0c0,0 -162,-81 0,-116 162,-35 289,-185 301,-266 12,-81 35,-162 12,-324 -23,-162 -220,-370 -220,-370 0,0 -63,-197 -165,0 -102,197 -21,382 -148,498 -127,116 -150,162 -231,185 -81,23 -208,35 -266,35 -58,0 -359,-81 -359,-81 0,0 448,-162 517,-224 69,-62 15,-170 15,-278 0,-108 -46,-85 62,-224 108,-139 46,-224 162,-286 116,-62 147,-54 193,-146 46,-93 123,-787 8,-826 -116,-39 54,340 -177,486 -231,147 -170,-154 -309,193 -139,347 -201,355 -270,401 -69,46 -62,23 -108,54 -46,31 -123,31 -162,85 -39,54 -100,224 -100,224 0,0 -201,37 -247,210 -46,174 46,278 0,376 -46,98 -447,-255 -471,-432 -23,-177 77,-363 0,-486 -77,-124 0,-178 -154,-239 -154,-62 -185,-62 -185,-62 0,0 15,-193 -93,-255 -108,-62 -359,-89 -405,-89 -46,0 35,81 0,-150 -35,-232 -104,-509 -174,-509 -69,0 -150,46 -231,46 -81,0 -127,-23 -185,-104 -58,-81 -127,-150 -231,-127 -104,23 -613,162 -764,-12 -150,-174 -35,-162 -417,-255 -382,-93 -486,-23 -532,-11 -46,11 -197,93 -197,93 0,0 -69,-174 -243,-127 -174,46 -347,0 -405,93 -58,93 -81,23 -231,93 -150,69 -301,162 -359,208 -58,46 -370,150 -498,116 -127,-35 35,-417 -197,-104 -232,312 -544,116 -544,116 0,0 232,-174 -150,-46 -382,127 -382,127 -382,127 0,0 -486,393 -833,312 -347,-81 -451,162 -451,162 0,0 -35,255 0,336 35,81 -58,231 -208,301 -150,69 -104,301 -139,289 -35,-12 -243,-174 -278,-174 -35,0 -197,-46 -278,-35 -81,12 -671,69 -694,12 -23,-58 -231,-382 -370,-185 -139,197 -278,104 -278,104 0,0 -93,-139 -185,-81 -93,58 -116,70 -150,81 -35,12 -266,46 -266,46 0,0 -185,-46 -150,-46 35,0 -104,255 -93,324 12,69 -104,174 -255,185 -150,12 -104,-139 -255,-11 -150,127 -208,208 -208,208 0,0 -370,69 -393,104 -23,35 -278,220 -278,220l-81 -23c0,0 12,-69 -382,-139 -393,-69 -162,-127 -393,-69 -231,58 -324,-185 -359,-255 -35,-69 -312,-127 -312,-127 0,0 -344,-35 -270,-220 73,-185 108,-370 108,-417 0,-46 127,-69 174,-58 46,12 116,-58 174,-150 58,-93 -46,-58 12,-312 58,-255 69,-463 58,-498 -12,-35 -35,-185 -58,-255 -23,-69 -46,-324 -139,-440 -93,-116 -338,-752 -338,-752 0,0 -26,-208 0,-359 26,-151 171,-232 -11,-370 -183,-139 -171,-81 -183,-139 -12,-58 -243,-312 -243,-312 0,0 81,-86 0,-240 -81,-154 -139,-188 -174,-304 -35,-116 -69,-243 -69,-382 0,-139 -139,-347 -139,-347 0,0 -255,-347 -289,-347 -35,0 -220,69 -208,-23 12,-93 -127,-393 -127,-393 0,0 -12,-220 81,-220 93,0 116,-12 116,69 0,81 81,301 127,312 46,12 243,197 289,197 46,0 -127,-347 -185,-393 -58,-46 -185,-139 -116,-208 69,-69 116,-116 150,-93 35,23 139,197 162,278 23,81 150,243 185,243 35,0 104,-116 23,-289 -81,-174 69,-12 -104,-231 -174,-220 -174,-220 -174,-220 0,0 -139,-544 -162,-671 -23,-127 -185,-116 -197,-278 -12,-162 -93,-150 23,-278 116,-127 162,-208 232,-208 69,0 150,-301 69,-393 -81,-93 -197,-81 -150,-266 46,-185 93,-208 104,-313 12,-104 81,-382 139,-393 58,-12 255,-231 255,-231 0,0 -46,162 -93,405 -46,243 -139,440 -35,451 104,12 185,-12 197,-197 12,-185 -35,-301 0,-312 35,-12 220,-35 220,-35 0,0 69,-220 232,-243 162,-23 81,-23 162,-23 81,0 363,-293 409,-401 46,-108 201,-139 201,-139 0,0 123,15 139,-85 15,-100 0,-131 23,-131 23,0 177,0 177,0l131 -100c0,0 85,-131 108,62 23,193 185,201 208,201 23,0 286,-54 286,-54l31 -201c0,0 85,-54 100,-23 15,31 123,201 193,123 69,-77 108,-170 108,-170l185 -15c0,0 154,-15 154,-46 0,-31 15,-62 0,-123 -15,-62 -93,-85 -23,-123 69,-39 309,-93 309,-93l293 139 286 -85c0,0 455,-77 432,-158 -23,-81 226,-87 243,-87 17,0 162,-162 162,-197 0,-35 -6,-46 17,-75 23,-29 162,-81 162,-81 0,0 185,-318 174,-394 -12,-75 87,-162 220,-243 133,-81 214,-185 185,-208 -29,-23 122,-110 0,-197 -121,-87 -174,-81 -174,-168 0,-87 46,-185 46,-185 0,0 179,-168 191,-197 11,-29 40,-168 40,-168 0,0 168,41 203,-64 35,-104 -17,-289 64,-255 81,35 58,40 87,156 29,116 93,179 127,232 35,52 23,98 0,162 -23,64 -41,208 0,226 41,17 75,-52 104,17 29,69 110,168 162,-29 52,-197 -23,-208 52,-197 75,12 272,81 272,64 0,-17 98,-162 -12,-237 -110,-75 -75,-52 -162,-93 -87,-40 -231,-121 -202,-202 29,-81 6,-353 6,-353 0,0 249,11 278,52 29,41 0,110 41,145 41,35 87,69 139,150 52,81 75,64 122,23 46,-41 64,-41 104,-29 41,12 12,-231 -35,-295 -46,-64 -185,-29 -64,-133 122,-104 116,-58 156,-127 41,-70 87,-203 58,-260 -29,-58 -69,-116 -35,-127 35,-12 150,6 174,6 23,0 174,-75 139,-133 -35,-58 -145,-64 -35,-122 110,-58 127,-69 145,-75 17,-6 150,-35 150,-69 0,-35 46,-174 46,-174 0,0 110,-46 168,-12 58,35 116,174 116,174 0,0 139,-127 139,-162 0,-35 -46,-110 -29,-139 17,-29 104,-133 122,-133 17,0 185,75 231,52 46,-23 145,-162 145,-162 0,0 226,-145 336,-92 110,52 116,87 214,156 98,69 145,40 191,220 46,179 127,139 156,197 29,58 -6,110 -23,197 -17,87 168,347 185,284 17,-64 98,-185 156,-272 58,-87 307,-434 388,-243 81,191 12,75 110,197 98,121 -12,249 116,278 127,29 145,64 202,-29 58,-93 69,-168 69,-214 0,-46 139,75 -29,-139 -168,-214 -237,-180 -174,-341 64,-162 104,-237 122,-243 17,-6 108,-33 131,-87 23,-54 -58,-116 39,-166 96,-50 123,-143 177,-131 54,12 135,35 135,-96 0,-131 -27,-93 -42,-201 -15,-108 93,-239 123,-278 31,-39 66,-154 112,-185 46,-31 162,-4 162,-4 0,0 108,-12 123,-124 15,-112 154,-146 189,-112 35,35 239,143 297,93 58,-50 89,-100 96,-112 8,-11 112,-23 127,31 15,54 54,124 93,89 39,-35 85,-123 73,-127 -12,-4 81,-77 197,-38 116,38 135,-93 131,-108 -4,-15 -39,-89 -112,-216 -73,-127 -27,-143 -127,-104 -100,39 -201,166 -247,42 -46,-123 27,-177 -58,-177 -85,0 -116,-54 -112,-73 4,-19 -4,-73 116,-73 120,0 239,-38 266,-19 27,19 15,96 89,112 73,15 143,19 170,96 27,77 -50,197 162,216 212,19 324,-39 374,23 50,62 382,73 382,120 0,46 -64,199 87,187 150,-12 185,-64 226,-93 41,-29 145,12 162,17 17,6 81,-98 145,0 64,98 110,255 133,226 23,-29 6,-174 122,-133 116,41 214,69 174,-11 -41,-81 -127,-99 -35,-139 93,-40 133,-150 214,-98 81,52 156,150 168,179 12,29 -29,12 -35,139 -6,127 -69,156 6,168 75,11 139,29 150,11 12,-17 110,-58 81,-116 -29,-58 -127,-133 -69,-203 58,-69 98,-127 116,-127 17,0 243,-12 243,-12 0,0 -75,249 -69,266 6,17 122,46 122,46 0,0 12,12 35,41 23,29 23,64 -23,127 -46,64 -64,185 -58,260 6,75 -93,104 -98,156 -6,52 -243,168 -243,168 0,0 -41,-116 -127,-6 -87,110 -145,116 -110,168 35,52 197,133 214,150 17,17 0,81 -69,127 -69,46 -104,-12 -104,87 0,98 52,168 -6,226 -58,58 -133,127 -133,127 0,0 -104,347 -29,480 75,133 168,197 231,179 64,-17 127,-58 145,41 17,98 0,150 0,150 0,0 81,-64 104,6 23,69 29,93 12,116 -17,23 -17,139 41,145 58,6 145,29 179,29 35,0 -64,-69 139,-12 203,58 243,46 243,46 0,0 208,64 393,214 185,150 98,405 318,417 220,11 93,-301 353,-40 260,260 324,341 359,399 35,58 98,121 127,150 29,29 226,58 278,81 52,23 64,81 214,46 150,-35 116,197 365,-168 249,-365 336,-440 330,-573 -6,-133 41,-312 93,-388 52,-75 145,-116 145,-231 0,-116 -41,-127 -46,-260 -6,-133 29,-243 87,-370 58,-127 150,-301 150,-301l29 -185 -98 -23c0,0 -226,-87 -162,-191 64,-104 64,-104 64,-104l-41 -122c0,0 23,-81 52,-116 29,-35 75,-139 98,-122 23,17 87,-46 64,-87 -23,-41 -69,-197 -81,-214 -12,-17 -35,-11 -41,-46 -6,-35 0,-127 52,-150 52,-23 98,-52 104,-69 6,-17 -11,-156 -58,-139 -46,17 -122,35 -122,35l-35 -185c0,0 52,-52 191,-220 139,-168 133,-289 145,-313 12,-23 69,-312 208,-457 139,-145 64,-405 110,-451 46,-46 208,-200 220,-29z"/>
   <path class="fil0" d="M22152 23179c35,12 382,428 671,359 289,-69 174,-409 393,-175 220,233 509,430 579,314 69,-116 428,-232 428,-232 0,0 35,11 69,0 35,-11 232,-243 289,-150 58,93 336,93 313,278 -23,185 -232,428 -289,717 -58,289 -81,417 -174,451 -93,35 -162,35 -220,150 -58,116 -69,197 -104,243 -35,46 -150,232 -197,255 -46,23 -35,-58 -139,58 -104,116 -127,463 -359,162 -231,-301 -46,-266 -324,-347 -278,-81 -498,-35 -486,-220 12,-185 -116,-428 -23,-451 93,-23 370,12 313,-35 -58,-46 -150,12 -382,-278 -232,-289 -162,-232 -266,-359 -104,-127 -405,-116 -278,-428 127,-313 185,-313 185,-313z"/>
   <path class="fil0" d="M24706 22851c0,0 -2,-8 -6,-21 -18,-68 -75,-272 -114,-295 -46,-27 -154,-38 -181,-15 -27,23 -208,8 -135,81 73,73 104,127 162,162 58,35 81,39 89,89 8,50 -19,62 12,127 31,66 73,170 116,174 42,4 177,-31 177,-31 0,0 77,-77 46,-100 -31,-23 -104,-58 -104,-58l-69 -58 8 -54z"/>
   <path class="fil0" d="M17492 19669c-23,-15 -332,-100 -463,-231 -131,-131 -285,-154 -332,-77 -46,77 -108,139 -154,185 -46,46 -177,62 -201,123 -23,62 23,178 108,178 85,0 162,62 301,0 139,-62 324,-139 386,-100 62,38 355,-77 355,-77z"/>
   <path class="fil0" d="M28062 11660c31,0 208,0 193,-178 -15,-177 25,-293 1,-332 -24,-39 -117,-232 -132,-255 -15,-23 -62,-154 -108,-46 -46,108 -123,239 -77,270 46,31 85,8 46,170 -39,162 -44,123 -61,262 -17,139 -102,339 -71,316 31,-23 208,-208 208,-208z"/>
   <path class="fil0" d="M18425 4855c-8,-31 -77,-193 0,-224 77,-31 123,-77 162,-85 39,-8 62,-147 85,-154 23,-8 77,69 77,154 0,85 -8,193 -93,239 -85,46 -231,69 -231,69z"/>
   <path class="fil0" d="M16543 2556c-54,-8 -278,69 -224,147 54,77 23,270 23,270 0,0 170,162 201,147 31,-15 62,-162 39,-232 -23,-69 -39,-332 -39,-332z"/>
   <path class="fil0" d="M16450 820c0,0 293,-232 232,-309 -62,-77 -8,-347 -147,-200 -139,146 -162,270 -162,270l-62 162 139 77z"/>
   <path class="fil0" d="M12785 727c0,0 -147,-177 -193,-116 -46,62 -85,85 -131,116 -46,31 -31,0 -185,0 -154,0 -177,43 -201,14 -23,-29 -154,63 -139,79 15,15 162,193 185,208 23,15 77,123 116,131 39,8 301,-100 301,-100 0,0 93,124 139,101 46,-24 85,-101 108,-170 23,-70 0,-262 0,-262z"/>
   <path class="fil0" d="M12075 1051l-293 -171c0,0 0,109 -39,171 -39,62 -39,138 93,111 131,-27 239,-111 239,-111z"/>
   <path class="fil1" d="M13666 12457l-8682 -5171c-65,14 -115,23 -115,23l-286 85 -293 -139c0,0 -239,54 -309,93 -69,38 8,62 23,123 15,62 0,93 0,123 0,31 -154,46 -154,46l-185 15c0,0 -39,93 -108,170 -69,77 -177,-93 -193,-123 -15,-31 -100,23 -100,23l-31 201c0,0 -194,40 -263,51l8663 5160 2032 0 0 -680zm-11076 -4707l167 100c-8,-20 -14,-43 -17,-70 -23,-193 -108,-62 -108,-62l-42 32z"/>
   <path class="fil1" d="M4 12025l186 -111c5,11 7,26 7,50 0,81 81,301 127,312 46,12 243,197 289,197 46,0 -127,-347 -185,-393 -58,-46 -185,-139 -116,-208 69,-69 116,-116 150,-93 35,23 139,197 162,278 23,81 150,243 185,243 35,0 104,-116 23,-289 -81,-174 69,-12 -104,-231l-100 -127 11427 -6806 1609 0 0 931 -12355 7359 -561 0c-36,-124 -124,-258 -124,-258 0,0 -255,-347 -289,-347 -35,0 -220,69 -208,-23 12,-93 -127,-393 -127,-393 0,0 0,-8 0,-20l0 -3c0,-17 1,-41 4,-66z"/>
   <path class="fil2" d="M4218 7706l-212 -126c-1,5 -1,10 -1,14 0,31 -154,46 -154,46l-185 15c0,0 -8,20 -25,50l577 0zm-917 0l66 0 -2 -4c-9,-17 -39,-8 -64,4z"/>
   <polygon class="fil2" points="9462,10260 8270,10260 13099,13137 13666,13137 13666,12764 "/>
   <path class="fil2" d="M5055 10260l-738 0 -3695 2201c0,8 -2,12 -8,12 -3,0 -6,-1 -10,-2l-202 121c87,99 224,287 224,287 0,0 73,110 113,223l4316 -2571 0 -271z"/>
   <polygon class="fil2" points="8983,7706 13666,4916 13666,4846 12590,4846 7790,7706 "/>
   <path class="fil1" d="M5084 13137l0 -5875c114,-30 229,-70 217,-112 -23,-81 226,-87 243,-87 17,0 162,-162 162,-197 0,-35 -6,-46 17,-75 23,-29 162,-81 162,-81 0,0 185,-318 174,-394 -12,-75 87,-162 220,-243 133,-81 214,-185 185,-208 -29,-23 122,-110 0,-197 -121,-87 -174,-81 -174,-168 0,-87 46,-185 46,-185 0,0 179,-168 191,-197 12,-29 40,-168 40,-168 0,0 168,41 203,-64 4,-13 7,-27 9,-41l160 0c32,81 80,132 109,174 35,52 23,98 0,162 -23,64 -41,208 0,226 41,17 75,-52 104,17 29,69 110,168 162,-29 52,-197 -23,-208 52,-197 75,12 272,81 272,64 0,-17 98,-162 -12,-237 -110,-75 -75,-52 -162,-93 -44,-20 -103,-51 -146,-88l563 0 0 8291 -2798 0z"/>
   <path class="fil1" d="M2622 7725l107 0c4,14 8,32 10,54 23,193 185,201 208,201 23,0 286,-54 286,-54l31 -201 1 0 113 0c35,55 121,166 180,101 30,-34 55,-70 73,-101l10036 0 0 2798 -13484 0c-23,-76 -50,-92 39,-190 116,-127 162,-208 232,-208 69,0 150,-301 69,-393 -81,-93 -197,-81 -150,-266 46,-185 93,-208 104,-313 12,-104 81,-382 139,-393 58,-12 255,-231 255,-231 0,0 -46,162 -93,405 -46,243 -139,440 -35,451 104,12 185,-12 197,-197 12,-185 -35,-301 0,-312 35,-12 220,-35 220,-35 0,0 69,-220 232,-243 162,-23 81,-23 162,-23 81,0 363,-293 409,-401 46,-108 201,-139 201,-139 0,0 123,15 139,-85 15,-100 0,-131 23,-131 23,0 177,0 177,0l122 -93z"/>
   <path class="fil2" d="M5562 13137l0 -6085c43,-38 144,-156 144,-185 0,-35 -6,-46 17,-75 23,-29 162,-81 162,-81 0,0 185,-318 174,-394 -12,-75 87,-162 220,-243 133,-81 214,-185 185,-208 -29,-23 122,-110 0,-197 -121,-87 -174,-81 -174,-168 0,-87 46,-185 46,-185 0,0 179,-168 191,-197 12,-29 40,-168 40,-168 0,0 168,41 203,-64 4,-13 7,-27 9,-41l160 0c32,81 80,132 109,174 35,52 23,98 0,162 -23,64 -41,208 0,226 41,17 75,-52 104,17 29,69 110,168 162,-29 52,-197 -23,-208 52,-197 10,2 23,4 37,8l0 7929 -1842 0zm1757 -8291l85 0 0 57c-30,-16 -60,-36 -85,-57z"/>
   <path class="fil2" d="M1944 8203l11721 0 0 1842 -13148 0c39,-96 58,-252 3,-314 -81,-93 -197,-81 -150,-266 46,-185 93,-208 104,-313 12,-104 81,-382 139,-393 58,-12 255,-231 255,-231 0,0 -46,162 -93,405 -46,243 -139,440 -35,451 104,12 185,-12 197,-197 12,-185 -35,-301 0,-312 35,-12 220,-35 220,-35 0,0 69,-220 232,-243 162,-23 81,-23 162,-23 74,0 318,-247 393,-371z"/>
   <polygon class="fil1" points="19953,7183 20213,7723 19670,7468 19472,8034 19269,7470 18728,7729 18983,7187 18418,6988 18982,6785 18722,6244 19265,6500 19463,5934 19666,6498 20207,6238 19952,6781 20517,6979 "/>
   <polygon class="fil1" points="19953,18043 20213,18583 19670,18328 19472,18894 19269,18330 18728,18589 18983,18047 18418,17848 18982,17645 18722,17105 19265,17360 19463,16794 19666,17358 20207,17099 19952,17641 20517,17840 "/>
   <path class="fil1" d="M7005 16168l553 1151 -1156 -544 -401 1143c-19,-18 -40,-34 -61,-46l-394 -1093 -1151 553 544 -1156 -1205 -423 1202 -433 -553 -1151 1156 544 423 -1205 433 1202 1151 -553 -544 1156 1205 423 -1202 433z"/>
   <polygon class="fil1" points="23821,10470 24080,11010 23538,10755 23339,11321 23136,10757 22596,11016 22851,10474 22285,10275 22849,10072 22589,9532 23132,9787 23331,9221 23534,9785 24074,9526 23819,10068 24385,10267 "/>
   <polygon class="fil1" points="15813,11709 16073,12250 15530,11995 15332,12560 15129,11996 14588,12256 14843,11713 14278,11515 14842,11312 14582,10771 15125,11026 15323,10461 15526,11025 16067,10765 15812,11308 16377,11506 "/>
   <polygon class="fil1" points="21560,13250 21232,13423 21295,13057 21029,12799 21396,12745 21560,12413 21724,12745 22091,12799 21826,13057 21888,13423 "/>
  </g>
 </g>
</svg>
