<?xml version="1.0" encoding="UTF-8"?>
<!DOCTYPE svg PUBLIC "-//W3C//DTD SVG 1.0//EN" "http://www.w3.org/TR/2001/REC-SVG-20010904/DTD/svg10.dtd">
<!-- Creator: CorelDRAW 2019 (64-Bit) -->
<svg xmlns="http://www.w3.org/2000/svg" xml:space="preserve" width="0.113626in" height="0.0720236in" version="1.0" style="shape-rendering:geometricPrecision; text-rendering:geometricPrecision; image-rendering:optimizeQuality; fill-rule:evenodd; clip-rule:evenodd"
viewBox="0 0 908 576"
 xmlns:xlink="http://www.w3.org/1999/xlink">
 <defs>
  <style type="text/css">
   <![CDATA[
    .str0 {stroke:#032B5B;stroke-width:27;stroke-miterlimit:2.61313}
    .fil0 {fill:none;fill-rule:nonzero}
   ]]>
  </style>
 </defs>
 <g id="Layer_x0020_1">
  <metadata id="CorelCorpID_0Corel-Layer"/>
  <g>
   <path class="fil0 str0" d="M337 78c-39,-21 -91,-20 -137,23 -11,11 -16,25 -17,43m9 109c5,58 4,124 -37,186m262 48c-10,2 -19,4 -29,6 -8,2 -16,5 -24,7 -4,1 -7,3 -11,4 -9,3 -18,7 -26,11 -33,-5 -53,-13 -53,-21l0 -54 0 -29 0 -123 -36 -15 -46 -20 -116 -49 0 -14 107 -46 154 -66 148 -63 410 174 0 14 -197 84 0 123 0 29 0 54c0,11 -40,21 -101,27 -2,-1 -3,-2 -5,-3 -5,-3 -9,-6 -14,-8 -25,-14 -54,-22 -86,-25 -25,-2 -50,-1 -76,3zm-343 17c-13,7 -29,13 -42,18l-9 -13c0,0 57,-14 99,-46 0,-1 -1,-2 -1,-3 -2,-11 5,-23 17,-25 5,-1 10,0 15,3 1,0 2,1 2,2 4,3 7,7 8,13 2,11 -5,23 -17,25 -1,0 -2,0 -3,0 -14,26 -44,73 -84,84l-21 -30c26,-14 36,-27 36,-27z"/>
  </g>
 </g>
</svg>
