<?xml version="1.0" encoding="UTF-8"?>
<!DOCTYPE svg PUBLIC "-//W3C//DTD SVG 1.0//EN" "http://www.w3.org/TR/2001/REC-SVG-20010904/DTD/svg10.dtd">
<!-- Creator: CorelDRAW 2019 (64-Bit) -->
<svg xmlns="http://www.w3.org/2000/svg" xml:space="preserve" width="0.878173in" height="0.334217in" version="1.0" style="shape-rendering:geometricPrecision; text-rendering:geometricPrecision; image-rendering:optimizeQuality; fill-rule:evenodd; clip-rule:evenodd"
viewBox="0 0 119576 45508"
 xmlns:xlink="http://www.w3.org/1999/xlink">
 <defs>
  <style type="text/css">
   <![CDATA[
    .fil8 {fill:none;fill-rule:nonzero}
    .fil9 {fill:black;fill-rule:nonzero}
    .fil2 {fill:#1F3B75;fill-rule:nonzero}
    .fil13 {fill:#3160AC;fill-rule:nonzero}
    .fil15 {fill:#C6B199;fill-rule:nonzero}
    .fil5 {fill:#DB7C2A;fill-rule:nonzero}
    .fil14 {fill:#DFCDB8;fill-rule:nonzero}
    .fil26 {fill:#F6A51D;fill-rule:nonzero}
    .fil27 {fill:#F6B51D;fill-rule:nonzero}
    .fil6 {fill:#FDB528;fill-rule:nonzero}
    .fil25 {fill:#FDDB46;fill-rule:nonzero}
    .fil10 {fill:#FFF7D8;fill-rule:nonzero}
    .fil1 {fill:white;fill-rule:nonzero}
    .fil28 {fill:#D2D3D5;fill-rule:nonzero;fill-opacity:0.301961}
    .fil19 {fill:#052633;fill-rule:nonzero;fill-opacity:0.400000}
    .fil18 {fill:#052633;fill-rule:nonzero;fill-opacity:0.501961}
    .fil17 {fill:#C63831;fill-rule:nonzero;fill-opacity:0.501961}
    .fil20 {fill:gray;fill-rule:nonzero;fill-opacity:0.600000}
    .fil21 {fill:#DB7C2A;fill-rule:nonzero;fill-opacity:0.600000}
    .fil7 {fill:white;fill-rule:nonzero;fill-opacity:0.600000}
    .fil16 {fill:#1F3B75;fill-rule:nonzero;fill-opacity:0.701961}
    .fil0 {fill:#C63831;fill-rule:nonzero;fill-opacity:0.800000}
    .fil4 {fill:white;fill-rule:nonzero;fill-opacity:0.800000}
    .fil3 {fill:url(#id0);fill-rule:nonzero}
    .fil22 {fill:url(#id1);fill-rule:nonzero}
    .fil11 {fill:url(#id2);fill-rule:nonzero}
    .fil23 {fill:url(#id3);fill-rule:nonzero}
    .fil24 {fill:url(#id4);fill-rule:nonzero}
    .fil12 {fill:url(#id5);fill-rule:nonzero}
   ]]>
  </style>
  <linearGradient id="id0" gradientUnits="userSpaceOnUse" x1="68958" y1="3479" x2="69006" y2="-29">
   <stop offset="0" style="stop-opacity:1; stop-color:#FBDB16"/>
   <stop offset="1" style="stop-opacity:1; stop-color:#F9CA0A"/>
  </linearGradient>
  <linearGradient id="id1" gradientUnits="userSpaceOnUse" xlink:href="#id0" x1="57977" y1="17880" x2="58032" y2="13865">
  </linearGradient>
  <linearGradient id="id2" gradientUnits="userSpaceOnUse" xlink:href="#id0" x1="66881" y1="4712" x2="65537" y2="3330">
  </linearGradient>
  <linearGradient id="id3" gradientUnits="userSpaceOnUse" xlink:href="#id0" x1="55599" y1="19291" x2="54060" y2="17710">
  </linearGradient>
  <linearGradient id="id4" gradientUnits="userSpaceOnUse" xlink:href="#id0" x1="60416" y1="19270" x2="61998" y2="17731">
  </linearGradient>
  <linearGradient id="id5" gradientUnits="userSpaceOnUse" xlink:href="#id0" x1="71089" y1="4693" x2="72470" y2="3349">
  </linearGradient>
 </defs>
 <g id="Layer_x0020_1">
  <metadata id="CorelCorpID_0Corel-Layer"/>
  <path class="fil0" d="M73600 0c-1,1 -1,1 -2,2 1,-1 1,-2 1,-2l1 0z"/>
  <path class="fil0" d="M73832 250l-580 0c8,-2 16,-4 24,-6l467 0c14,0 28,1 42,1 16,1 32,3 47,5z"/>
  <path class="fil0" d="M71594 8830c-1,1 -1,1 -1,2 1,-1 1,-1 1,-2l1 0z"/>
  <path class="fil0" d="M71778 9029l-460 0c7,-1 13,-3 19,-5l371 0c11,0 22,1 33,1 12,1 25,2 36,4z"/>
  <g id="_1935031477952">
   <path class="fil1" d="M67347 31932c-479,479 -959,479 -1437,0 479,479 479,959 0,1437 479,-479 958,-479 1437,0 -479,-479 -479,-958 0,-1437z"/>
   <path class="fil1" d="M69432 33102c-479,479 -958,479 -1437,0 479,479 479,958 0,1437 479,-479 958,-479 1437,0 -479,-479 -479,-958 0,-1437z"/>
   <path class="fil1" d="M70422 30224c-809,809 -1618,809 -2427,0 809,809 809,1618 0,2427 809,-809 1618,-809 2427,0 -809,-809 -809,-1618 0,-2427z"/>
  </g>
  <g id="_1935031479392">
   <g>
    <g>
     <g>
      <polygon class="fil2" points="68803,18407 68888,3302 69075,3302 69161,18407 "/>
      <g>
       <path class="fil3" d="M67275 1765c0,-943 764,-1707 1707,-1707 943,0 1707,764 1707,1707 0,943 -764,1707 -1707,1707 -943,0 -1707,-764 -1707,-1707z"/>
       <path class="fil4" d="M67635 2814c-17,-21 -34,-42 -49,-64 -16,-22 -32,-43 -47,-66l-22 -34c-7,-11 -14,-23 -21,-34 -6,-12 -14,-23 -20,-35l-19 -36c-51,-95 -93,-195 -124,-298 -63,-207 -87,-426 -68,-642 18,-216 78,-429 176,-623 98,-195 234,-369 396,-514 164,-144 354,-257 559,-330 205,-73 424,-106 640,-98 217,8 432,58 629,146 197,90 377,215 525,370l-60 -54 -62 -51 -64 -48c-21,-16 -44,-31 -66,-46 -90,-59 -184,-109 -283,-150 -197,-83 -409,-127 -621,-131 -212,-4 -425,28 -624,102 -199,72 -384,183 -543,324 -159,140 -291,310 -388,499 -98,188 -158,395 -180,606 -2,27 -5,53 -6,79l-3 80c1,27 0,53 2,80 2,26 2,53 5,79 9,106 28,211 56,314 55,206 154,400 281,573z"/>
       <path class="fil5" d="M70189 558c168,161 301,359 390,574 88,217 131,452 126,686 -4,235 -60,469 -158,682 -99,213 -244,406 -420,562 -177,155 -385,275 -609,347 -224,71 -463,98 -696,73 -117,-12 -232,-35 -344,-70 -112,-35 -220,-83 -322,-139 -203,-116 -383,-272 -522,-458l57 66c19,21 40,42 60,63 41,41 84,80 129,117 89,73 185,138 287,192 102,54 209,99 320,131 110,33 224,54 338,63 229,19 462,-6 679,-79 218,-71 420,-188 592,-340 86,-76 165,-160 233,-251 69,-91 128,-190 177,-294 49,-103 88,-212 115,-323 27,-112 43,-226 48,-341 20,-460 -158,-925 -481,-1259z"/>
       <path class="fil6" d="M67635 1765c0,-744 603,-1347 1347,-1347 744,0 1347,603 1347,1347 0,744 -603,1347 -1347,1347 -744,0 -1347,-603 -1347,-1347z"/>
       <path class="fil5" d="M67870 2527c-99,-136 -171,-292 -212,-457 -20,-83 -33,-167 -38,-252 -4,-85 -1,-170 11,-255 23,-169 80,-333 165,-482 85,-148 198,-280 332,-387 134,-107 288,-188 451,-237 164,-49 337,-67 507,-52 85,8 169,22 251,46 82,24 161,55 237,93 76,39 147,85 214,136 34,26 65,54 96,82 15,15 30,29 45,45l42 46 -45 -44c-16,-14 -32,-28 -47,-42 -32,-27 -65,-53 -99,-77 -69,-49 -141,-91 -217,-125 -76,-35 -154,-64 -235,-84 -80,-20 -163,-33 -246,-39 -166,-10 -333,8 -491,57 -158,49 -307,129 -435,232 -259,205 -438,510 -489,838 -26,164 -22,333 12,496 17,81 42,161 73,239 17,39 34,77 54,114 19,38 41,73 63,109z"/>
       <path class="fil7" d="M69972 852c129,132 228,293 293,467 63,175 90,363 77,550 -12,187 -64,370 -151,537 -87,166 -210,313 -356,430 -147,117 -317,203 -499,251 -91,24 -184,38 -277,43 -94,5 -188,-1 -280,-16l-34 -5c-12,-2 -23,-4 -34,-7l-69 -16 -67 -20c-11,-3 -22,-8 -33,-11l-33 -12c-87,-34 -170,-76 -248,-127 -78,-50 -150,-110 -216,-175l-25 -24 -23 -26c-15,-18 -31,-34 -45,-53 -14,-19 -29,-36 -42,-55l-40 -57c110,148 246,277 403,370 78,47 161,87 247,117l32 11c11,4 21,8 33,10l66 19 66 14c11,3 23,4 34,6l34 5c11,2 23,4 34,5l34 3c23,2 46,5 68,4 23,1 46,2 68,2 23,-1 46,-1 68,-3 91,-5 181,-20 268,-44 175,-48 340,-131 481,-244 142,-113 261,-255 346,-415 86,-160 138,-337 154,-518 15,-181 -5,-366 -63,-540 -28,-87 -66,-171 -112,-250 -6,-10 -12,-20 -18,-30l-18 -29c-12,-20 -26,-38 -39,-57 -6,-10 -13,-19 -20,-28l-21 -27c-14,-18 -29,-35 -44,-54z"/>
       <g>
        <g>
         <g>
          <polygon class="fil5" points="68946,2700 68895,2649 68896,2448 68947,2499 "/>
         </g>
         <g>
          <path class="fil8" d="M69239 1917l50 51c32,32 48,72 48,120 -1,63 -24,114 -70,153l-50 -50c46,-39 70,-91 70,-153 0,-48 -16,-87 -48,-120z"/>
         </g>
         <g>
          <path class="fil8" d="M68755 2217l-51 -50c49,49 114,76 194,83l51 51c-81,-6 -145,-34 -194,-83z"/>
         </g>
         <g>
          <path class="fil5" d="M69289 1968l-50 -51c32,32 48,72 48,120 -1,63 -24,114 -70,153 -12,10 -25,19 -38,26 -13,7 -26,13 -40,18 -13,4 -26,8 -40,10 -15,3 -31,4 -47,5 -2,0 -4,0 -6,0l50 51c2,0 4,0 6,0 17,-1 32,-2 47,-5 14,-3 27,-6 40,-10 14,-5 27,-11 40,-18 13,-8 26,-17 38,-27 47,-39 70,-90 70,-153 1,-48 -16,-87 -48,-120z"/>
          <path class="fil5" d="M68898 2249c-8,-1 -15,-1 -22,-2 -24,-3 -47,-9 -68,-16 -41,-14 -75,-36 -105,-65l51 50c29,29 64,51 104,65 21,8 43,13 68,16 8,1 14,2 23,3l3 -429 -51 -50 -3 429z"/>
         </g>
         <g>
          <path class="fil8" d="M69410 1712l51 51c-24,-24 -48,-41 -75,-53 -49,-21 -145,-53 -286,-93l-50 -51c142,41 237,72 286,94 26,11 51,29 75,53z"/>
         </g>
         <path class="fil5" d="M68568 2342l-50 -51c-61,-61 -106,-138 -135,-233l51 50c29,95 74,173 135,234z"/>
        </g>
        <g>
         <path class="fil5" d="M68568 2342l-50 -51c-61,-61 -106,-138 -135,-233l51 50c29,95 74,173 135,234z"/>
        </g>
        <g>
         <g>
          <polygon class="fil5" points="68433,2108 68382,2057 68617,2003 68667,2054 "/>
         </g>
         <path class="fil9" d="M68953 1603l-50 -51c0,0 1,0 1,0l51 51c-1,0 -1,0 -1,0z"/>
         <g>
          <path class="fil5" d="M69410 1712c-23,-24 -48,-41 -75,-53 -18,-8 -41,-17 -71,-27 -53,-18 -124,-40 -214,-66l50 51c90,26 162,48 214,66 30,10 54,19 72,27 26,12 51,29 75,53l-51 -51z"/>
          <path class="fil5" d="M69309 1418c-17,-50 -40,-90 -69,-119l-51 -51c29,29 53,69 69,120l51 50z"/>
          <path class="fil5" d="M68811 1531c-36,-12 -64,-29 -85,-50l50 51c21,21 49,38 85,50 27,9 57,16 92,21l-50 -51c-35,-5 -65,-12 -92,-21z"/>
          <polygon class="fil5" points="68903,1552 68954,1603 68957,1238 68906,1187 "/>
         </g>
         <g>
          <path class="fil5" d="M69367 1125l50 51c-75,-75 -179,-121 -312,-138l-50 -51c133,17 237,63 312,138z"/>
         </g>
         <g>
          <polygon class="fil5" points="69105,1038 69055,987 69055,987 69055,987 69055,987 69055,987 69056,987 69056,987 69056,987 69056,987 69057,987 69057,987 69057,987 69057,987 69058,987 69058,987 69058,987 69058,987 69109,1038 69108,1038 69108,1038 69108,1038 69108,1038 69107,1038 69107,1038 69107,1038 69107,1038 69106,1038 69106,1038 69105,1038 69105,1038 69105,1038 "/>
          <polygon class="fil5" points="69367,1125 69364,1123 69363,1122 69362,1121 69360,1119 69360,1118 69357,1117 69356,1115 69355,1115 69353,1112 69352,1111 69350,1110 69348,1108 69348,1108 69346,1106 69345,1105 69343,1104 69341,1102 69341,1102 69339,1100 69337,1098 69334,1096 69333,1095 69332,1094 69330,1092 69329,1092 69327,1090 69325,1089 69324,1088 69322,1086 69322,1086 69319,1084 69317,1083 69314,1081 69313,1080 69309,1078 69309,1077 69306,1075 69305,1074 69304,1073 69301,1072 69301,1072 69298,1070 69296,1069 69296,1068 69293,1066 69292,1066 69290,1065 69288,1064 69287,1063 69285,1061 69283,1061 69282,1060 69279,1058 69279,1058 69276,1057 69275,1056 69273,1055 69271,1053 69270,1053 69268,1052 69266,1051 69265,1050 69262,1049 69261,1048 69257,1046 69256,1046 69256,1046 69253,1044 69252,1044 69248,1042 69247,1041 69238,1037 69237,1037 69233,1035 69232,1034 69229,1033 69228,1032 69226,1031 69223,1030 69223,1030 69213,1027 69213,1026 69211,1026 69207,1024 69202,1022 69201,1022 69198,1021 69197,1020 69194,1019 69192,1019 69191,1018 69189,1017 69182,1015 69181,1015 69179,1014 69176,1013 69176,1013 69174,1013 69171,1012 69171,1012 69170,1011 69168,1011 69166,1010 69166,1010 69164,1009 69162,1009 69160,1008 69160,1008 69158,1008 69156,1007 69154,1007 69154,1007 69152,1006 69150,1006 69149,1005 69148,1005 69146,1005 69144,1004 69144,1004 69142,1004 69140,1003 69138,1002 69138,1002 69135,1002 69133,1001 69132,1001 69132,1001 69130,1000 69127,1000 69126,1000 69125,999 69123,999 69121,999 69120,999 69119,998 69117,998 69115,997 69115,997 69112,997 69110,997 69109,996 69109,996 69107,995 69104,995 69103,995 69102,994 69100,994 69098,994 69097,994 69096,993 69091,993 69091,993 69089,992 69087,992 69085,992 69085,992 69082,991 69080,991 69079,991 69078,991 69074,990 69073,990 69069,989 69067,989 69067,989 69065,989 69063,988 69060,988 69060,988 69058,987 69109,1038 69111,1038 69111,1038 69113,1039 69115,1039 69117,1039 69118,1039 69120,1040 69124,1041 69124,1041 69129,1041 69130,1042 69131,1042 69133,1042 69135,1042 69135,1042 69138,1043 69140,1043 69142,1043 69142,1043 69146,1044 69148,1044 69148,1045 69150,1045 69153,1045 69154,1045 69155,1046 69157,1046 69159,1046 69160,1047 69161,1047 69163,1047 69166,1048 69166,1048 69168,1049 69170,1049 69171,1049 69171,1049 69174,1050 69176,1050 69178,1051 69180,1051 69182,1052 69183,1052 69184,1052 69186,1053 69188,1053 69189,1053 69190,1054 69192,1054 69194,1054 69194,1055 69197,1056 69198,1056 69199,1056 69200,1057 69202,1057 69205,1058 69205,1058 69206,1058 69208,1059 69211,1059 69211,1059 69212,1060 69214,1060 69216,1061 69216,1061 69218,1061 69220,1062 69221,1063 69222,1063 69224,1063 69226,1064 69227,1064 69228,1065 69230,1065 69232,1066 69232,1066 69234,1066 69236,1067 69237,1067 69238,1067 69239,1068 69242,1069 69243,1069 69245,1070 69248,1071 69248,1071 69251,1072 69253,1073 69254,1074 69258,1075 69258,1075 69261,1076 69263,1077 69264,1078 69267,1079 69268,1079 69271,1080 69273,1081 69273,1081 69276,1082 69278,1083 69280,1084 69283,1085 69283,1085 69286,1087 69288,1087 69289,1088 69292,1089 69293,1090 69295,1091 69297,1092 69298,1092 69301,1094 69302,1094 69304,1095 69306,1096 69307,1097 69310,1098 69311,1099 69312,1099 69316,1101 69318,1103 69321,1104 69321,1104 69324,1106 69325,1106 69327,1108 69330,1109 69330,1109 69332,1111 69334,1112 69335,1112 69338,1114 69339,1114 69341,1116 69343,1117 69343,1117 69346,1119 69347,1120 69349,1121 69352,1123 69352,1123 69354,1124 69356,1125 69357,1126 69360,1128 69360,1128 69362,1130 69364,1131 69364,1132 69367,1133 69368,1134 69370,1135 69372,1137 69372,1137 69375,1139 69376,1140 69377,1141 69380,1143 69380,1143 69382,1145 69384,1146 69385,1147 69387,1149 69388,1149 69390,1151 69392,1153 69392,1153 69394,1155 69395,1156 69397,1157 69399,1159 69399,1159 69401,1161 69403,1162 69404,1163 69406,1165 69406,1165 69408,1168 69410,1169 69410,1170 69413,1172 69414,1172 69415,1174 69417,1176 "/>
         </g>
         <polygon class="fil5" points="69056,831 68909,831 68908,987 68959,1038 68960,881 69106,881 "/>
         <g>
          <path class="fil10" d="M69519 1838c39,63 58,137 57,221 -1,120 -42,220 -125,300 -83,80 -202,127 -358,140l-2 201 -146 0 2 -201c-270,-23 -441,-153 -514,-391l234 -54c41,153 135,235 282,247l3 -429c-192,-44 -316,-100 -374,-168 -57,-68 -86,-148 -85,-243 2,-244 157,-385 465,-422l1 -157 146 0 -1 157c225,29 367,140 425,333l-221 47c-37,-112 -105,-172 -205,-180l-3 379c142,41 237,72 286,93 49,22 93,64 132,128zm-252 403l0 0c47,-39 70,-90 70,-153 1,-106 -79,-174 -239,-203l-3 416c68,-1 125,-21 172,-60zm-313 -637l0 0 3 -365c-63,1 -116,17 -159,47 -42,31 -64,76 -64,136 -1,102 72,162 220,182z"/>
         </g>
         <path class="fil5" d="M68493 1460c0,-9 1,-17 1,-26 0,-3 0,-5 1,-8 1,-6 1,-12 2,-18 0,-3 1,-5 1,-8 1,-6 2,-13 3,-19 0,-2 1,-4 1,-6 2,-8 3,-16 5,-24 1,-2 1,-3 2,-5 2,-6 3,-12 5,-18 1,-3 2,-5 2,-8 2,-5 4,-10 5,-16 1,-2 2,-4 3,-6 3,-6 5,-13 9,-19 0,-1 0,-1 1,-2 3,-6 6,-13 10,-20 1,-2 2,-4 3,-6 3,-4 5,-9 9,-13 1,-2 3,-4 4,-6 3,-5 6,-10 10,-14 2,-2 3,-3 4,-4 4,-6 9,-12 14,-17 1,-2 2,-3 3,-4 4,-4 9,-9 13,-13 2,-2 3,-3 5,-5 4,-3 8,-7 12,-11 2,-2 4,-3 5,-5 5,-4 11,-9 17,-13 1,-1 1,-1 2,-2 6,-4 13,-9 19,-13 2,-1 4,-3 6,-4 5,-3 10,-6 16,-9 2,-2 5,-3 8,-4 4,-2 8,-4 12,-6 3,-2 6,-3 9,-4 4,-2 9,-4 13,-6 3,-2 6,-3 9,-4 5,-2 10,-4 14,-6 3,-1 5,-2 8,-3 6,-3 13,-5 20,-8 1,-1 2,-1 3,-1 9,-3 17,-6 26,-9 3,-1 6,-2 9,-2 6,-2 12,-4 19,-5 4,-1 7,-2 10,-3 6,-1 13,-3 19,-4 3,-1 6,-2 10,-2 7,-2 14,-3 22,-4 3,-1 5,-1 8,-2 6,-1 12,-2 19,-3 3,-1 6,-1 10,-2 10,-1 19,-3 29,-4l-51 -51c-10,1 -20,3 -29,4 -3,1 -6,1 -9,1 -6,1 -13,2 -19,3 -1,1 -1,1 -2,1 -2,1 -4,1 -6,1 -8,2 -14,3 -22,4 -3,1 -6,2 -10,2 -6,2 -13,3 -19,5 -3,1 -7,2 -10,2 -6,2 -13,4 -19,5 -3,1 -5,2 -8,3 -9,3 -18,5 -26,8 0,0 0,0 0,0 -1,1 -2,1 -3,2 -6,2 -13,4 -20,7 -3,1 -5,2 -8,3 -5,2 -10,4 -14,6 -3,1 -6,2 -9,4 -4,2 -9,4 -13,6 -3,2 -6,3 -9,4 -4,2 -8,4 -12,6 -2,1 -3,2 -4,2 -1,1 -2,2 -4,2 -5,3 -10,6 -15,9 -2,2 -4,3 -6,4 -7,5 -13,9 -20,14 -1,0 -1,1 -2,1 -6,4 -11,9 -17,13 -2,1 -4,3 -5,4 -4,4 -8,8 -12,11 -2,2 -4,3 -5,5 -4,4 -8,9 -12,13 -1,1 -2,2 -3,3 -5,5 -10,11 -14,17 -1,2 -2,3 -3,4 -3,5 -6,9 -10,14 -2,2 -3,4 -4,6 -3,5 -5,9 -8,14 -1,2 -2,4 -3,6 -4,6 -8,13 -11,20 0,0 0,1 -1,1 -3,6 -5,13 -8,19 -1,2 -2,5 -3,7 -2,5 -4,10 -5,16 -1,2 -2,5 -2,7 -2,6 -4,12 -5,18 -1,2 -1,3 -2,5 -2,8 -3,16 -5,23 -1,2 -1,4 -1,6 -1,6 -2,12 -3,19 0,3 -1,5 -1,9 -1,6 -1,12 -2,18 0,3 0,5 -1,8 0,9 -1,17 -1,26 -1,94 27,175 85,243 3,4 8,9 12,12l50 51c-4,-4 -8,-9 -12,-13 -57,-68 -86,-148 -85,-243z"/>
        </g>
       </g>
      </g>
      <polygon class="fil2" points="68952,6531 66694,4554 66754,4486 69012,6463 "/>
      <polygon class="fil2" points="69036,6531 68977,6463 71235,4486 71294,4554 "/>
      <g>
       <path class="fil11" d="M65561 4700c-366,-366 -366,-960 0,-1327 367,-366 961,-366 1327,0 366,367 366,961 0,1327 -367,367 -961,367 -1327,0z"/>
       <path class="fil4" d="M66109 4968c-14,-2 -29,-3 -44,-6 -14,-2 -29,-4 -43,-8l-22 -4c-7,-2 -14,-4 -21,-5 -7,-2 -14,-4 -21,-6l-21 -6c-56,-17 -112,-40 -164,-68 -105,-56 -199,-131 -276,-223 -77,-91 -136,-197 -174,-310 -38,-114 -53,-234 -46,-354 8,-119 38,-237 88,-345 51,-108 123,-206 211,-287 87,-81 190,-145 301,-187 111,-42 230,-63 348,-60l-44 2 -44 4 -43 6c-14,3 -29,5 -43,8 -57,12 -114,29 -168,51 -109,44 -208,110 -293,191 -84,80 -154,176 -203,282 -49,106 -78,220 -85,337 -8,116 8,234 43,345 35,111 92,215 166,306 9,11 18,22 28,33l30 32c10,10 20,21 31,31 11,10 21,20 33,29 44,38 93,71 144,100 102,58 216,96 332,114z"/>
       <path class="fil5" d="M66225 3099c128,-3 256,22 375,71 118,49 227,124 316,218 90,93 159,205 204,326 44,122 63,252 55,381 -8,129 -42,257 -101,372 -60,115 -142,218 -242,299 -50,41 -104,77 -161,107 -57,30 -117,53 -179,71 -124,34 -255,43 -381,25l48 3c16,1 32,1 48,2 32,-1 64,-1 95,-4 63,-6 126,-19 187,-38 61,-18 120,-42 175,-73 55,-31 108,-66 156,-107 96,-81 176,-182 233,-295 57,-113 91,-236 98,-362 4,-63 2,-126 -7,-188 -9,-62 -25,-124 -46,-183 -21,-59 -48,-116 -81,-170 -33,-54 -71,-104 -114,-151 -171,-187 -421,-298 -677,-302z"/>
       <path class="fil6" d="M65701 4560c-289,-289 -289,-757 0,-1047 289,-289 757,-289 1046,0 289,289 289,758 0,1047 -289,289 -757,289 -1046,0z"/>
       <path class="fil5" d="M66088 4764c-91,-14 -180,-47 -260,-95 -40,-24 -77,-52 -112,-83 -35,-32 -67,-66 -95,-103 -57,-75 -99,-161 -123,-251 -25,-91 -32,-186 -21,-279 10,-93 39,-185 83,-268 44,-83 105,-157 176,-217 36,-30 75,-57 115,-80 41,-23 84,-42 129,-56 44,-14 90,-24 136,-30 23,-3 47,-5 70,-5 11,0 23,-1 35,-1l34 2 -34 1c-12,1 -23,2 -35,2 -23,2 -46,4 -69,8 -45,8 -90,20 -133,36 -43,16 -85,35 -124,58 -39,23 -76,50 -110,80 -69,60 -127,132 -168,213 -42,80 -70,169 -79,259 -21,181 28,368 136,516 54,74 121,138 197,188 39,25 79,46 122,64 21,9 43,17 65,23 22,7 44,13 66,18z"/>
       <path class="fil7" d="M66255 3297c101,2 203,25 296,68 92,43 176,106 243,183 68,77 119,169 150,268 31,98 40,203 28,306 -11,102 -44,202 -96,291 -26,44 -57,86 -91,124 -34,39 -73,72 -115,103l-16 11c-5,4 -11,8 -16,11l-33 20 -34 19c-6,3 -12,5 -18,8l-17 8c-47,21 -96,37 -146,48 -50,11 -101,16 -152,16l-19 0 -19 -1c-13,-1 -26,-1 -38,-3 -13,-2 -25,-3 -38,-5l-38 -7c100,15 203,12 301,-12 49,-12 96,-29 142,-50l17 -9c6,-3 11,-5 17,-9l33 -18 32 -20c5,-3 10,-7 16,-11l15 -11c5,-4 10,-8 15,-11l14 -12c10,-8 19,-16 28,-25 9,-9 18,-17 27,-26 9,-9 17,-18 25,-27 33,-38 63,-78 87,-121 49,-87 81,-183 92,-283 11,-99 3,-200 -27,-295 -28,-95 -77,-185 -142,-262 -64,-76 -144,-140 -234,-185 -44,-23 -92,-41 -140,-54 -6,-2 -12,-3 -18,-5l-19 -4c-12,-3 -25,-5 -37,-7 -6,-1 -12,-2 -19,-3l-19 -2c-13,-2 -25,-3 -38,-4z"/>
       <g>
        <g>
         <g>
          <polygon class="fil5" points="66574,4414 66534,4414 66457,4335 66496,4335 "/>
         </g>
         <g>
          <path class="fil8" d="M66384 3995l39 0c25,0 47,10 65,28 24,25 35,54 32,87l-39 -1c3,-33 -8,-62 -32,-87 -18,-18 -40,-28 -65,-28z"/>
         </g>
         <g>
          <path class="fil8" d="M66312 4300l-39 0c38,0 73,-14 107,-43l40 1c-34,28 -70,43 -108,43z"/>
         </g>
         <g>
          <path class="fil5" d="M66423 3995l-39 0c25,0 47,10 65,28 24,25 35,54 32,87 -1,9 -2,17 -4,25 -3,8 -5,16 -9,23 -3,7 -7,13 -11,20 -5,7 -10,14 -17,20 -1,1 -2,2 -2,2l39 0c1,-1 2,-2 2,-2 6,-6 12,-13 17,-20 5,-6 9,-13 12,-19 4,-8 6,-15 9,-23 2,-8 4,-17 4,-25 3,-33 -8,-62 -32,-87 -18,-19 -40,-28 -65,-28z"/>
          <path class="fil5" d="M66380 4257c-3,3 -6,5 -9,8 -11,8 -21,14 -33,20 -21,10 -43,16 -65,16l39 0c23,0 44,-5 66,-16 11,-5 21,-12 32,-20 3,-3 6,-5 10,-8l-166 -168 -39 0 165 168z"/>
         </g>
         <g>
          <path class="fil8" d="M66371 3849l39 0c-18,0 -35,3 -49,9 -28,11 -77,36 -147,75l-40 0c71,-39 120,-64 147,-75 15,-5 32,-9 50,-9z"/>
         </g>
         <path class="fil5" d="M66288 4422l-40 0c-47,-1 -95,-13 -143,-39l40 0c48,26 96,39 143,39z"/>
        </g>
        <g>
         <path class="fil5" d="M66288 4422l-40 0c-47,-1 -95,-13 -143,-39l40 0c48,26 96,39 143,39z"/>
        </g>
        <g>
         <g>
          <polygon class="fil5" points="66145,4383 66105,4383 66175,4271 66214,4271 "/>
         </g>
         <path class="fil5" d="M66151 3984l-40 0c0,0 0,0 1,0l39 0c0,0 0,0 0,0z"/>
         <g>
          <path class="fil5" d="M66371 3849c-18,0 -35,3 -50,9 -10,4 -23,10 -38,17 -28,13 -64,33 -109,58l40 0c45,-25 81,-44 109,-58 16,-8 28,-13 39,-17 14,-5 31,-9 49,-9l-39 0z"/>
          <path class="fil5" d="M66217 3775c-26,-13 -50,-19 -73,-19l-39 -1c23,0 47,7 73,20l39 0z"/>
          <path class="fil5" d="M66068 4012c-19,9 -36,13 -53,13l39 0c16,1 34,-4 53,-13 14,-7 28,-16 44,-28l-40 0c-15,12 -30,21 -43,28z"/>
          <polygon class="fil5" points="66111,3984 66151,3984 66010,3841 65970,3841 "/>
         </g>
         <g>
          <path class="fil5" d="M66125 3638l39 0c-58,0 -116,23 -175,68l-39 0c58,-45 117,-68 175,-68z"/>
         </g>
         <g>
          <polygon class="fil5" points="65990,3706 65951,3706 65951,3705 65951,3705 65952,3705 65952,3705 65991,3705 65991,3705 65990,3705 65990,3705 "/>
          <polygon class="fil5" points="66125,3638 66124,3638 66123,3638 66122,3638 66120,3638 66120,3638 66118,3638 66117,3638 66117,3638 66115,3638 66115,3638 66114,3638 66112,3638 66111,3638 66110,3639 66109,3639 66108,3639 66107,3639 66106,3639 66105,3639 66103,3639 66103,3639 66101,3639 66101,3639 66100,3639 66098,3640 66098,3640 66096,3640 66095,3640 66094,3641 66093,3641 66093,3641 66091,3641 66090,3641 66089,3641 66088,3642 66087,3642 66086,3642 66085,3642 66084,3642 66083,3642 66082,3643 66081,3643 66079,3643 66079,3643 66077,3643 66076,3644 66076,3644 66074,3644 66073,3644 66072,3644 66071,3645 66071,3645 66069,3645 66068,3645 66067,3646 66065,3646 66065,3646 66064,3646 66063,3647 66062,3647 66060,3647 66060,3647 66058,3648 66057,3649 66057,3649 66055,3649 66055,3649 66054,3650 66052,3650 66051,3650 66050,3651 66049,3651 66047,3652 66046,3652 66045,3652 66043,3653 66043,3653 66041,3654 66041,3654 66040,3654 66038,3655 66038,3655 66036,3656 66035,3656 66034,3657 66033,3657 66033,3657 66031,3658 66030,3658 66029,3659 66027,3659 66027,3660 66026,3660 66025,3661 66024,3661 66022,3661 66021,3662 66021,3662 66019,3663 66019,3663 66017,3664 66016,3665 66016,3665 66014,3665 66013,3666 66013,3666 66012,3666 66012,3667 66011,3667 66011,3667 66010,3668 66009,3668 66008,3669 66007,3669 66006,3669 66005,3670 66005,3670 66005,3671 66004,3671 66003,3672 66003,3672 66002,3672 66000,3673 65999,3673 65999,3674 65998,3674 65997,3675 65997,3675 65996,3675 65995,3676 65994,3676 65994,3676 65992,3677 65992,3678 65991,3678 65990,3679 65989,3680 65989,3680 65988,3680 65987,3681 65986,3681 65985,3681 65985,3682 65984,3682 65983,3683 65983,3683 65982,3684 65981,3684 65981,3684 65980,3685 65979,3686 65978,3686 65978,3686 65977,3687 65976,3688 65975,3688 65975,3688 65974,3689 65973,3690 65972,3690 65972,3690 65971,3691 65970,3691 65969,3692 65969,3693 65968,3693 65967,3694 65967,3694 65966,3695 65965,3695 65964,3696 65964,3696 65963,3696 65962,3697 65961,3698 65961,3698 65960,3698 65959,3699 65959,3699 65958,3700 65957,3701 65956,3702 65956,3702 65955,3702 65954,3703 65953,3704 65953,3704 65952,3705 65991,3705 65992,3704 65992,3704 65994,3703 65995,3702 65995,3702 65995,3702 65996,3701 65997,3700 65998,3699 65998,3699 66000,3698 66000,3698 66000,3698 66001,3697 66002,3697 66003,3696 66004,3696 66004,3695 66005,3695 66006,3694 66006,3694 66008,3693 66009,3692 66009,3691 66010,3691 66011,3690 66012,3690 66012,3690 66013,3689 66014,3688 66014,3688 66015,3688 66016,3687 66017,3687 66017,3687 66018,3686 66019,3685 66020,3684 66020,3684 66021,3684 66022,3683 66022,3683 66023,3682 66024,3682 66025,3681 66026,3681 66026,3681 66027,3680 66028,3680 66029,3679 66030,3679 66031,3678 66031,3678 66032,3677 66033,3676 66034,3676 66034,3676 66035,3675 66036,3675 66036,3675 66037,3674 66038,3674 66039,3673 66039,3673 66040,3673 66041,3672 66042,3672 66042,3672 66043,3671 66044,3671 66044,3670 66045,3670 66046,3669 66047,3669 66047,3669 66048,3668 66049,3668 66050,3667 66050,3667 66051,3667 66052,3666 66053,3666 66053,3666 66054,3666 66055,3665 66056,3665 66057,3664 66058,3664 66058,3664 66060,3662 66061,3662 66062,3662 66064,3661 66064,3661 66065,3660 66066,3660 66067,3659 66069,3659 66069,3658 66070,3658 66072,3657 66072,3657 66074,3657 66074,3656 66076,3656 66077,3655 66078,3655 66079,3654 66080,3654 66081,3654 66083,3653 66083,3653 66084,3653 66086,3652 66086,3652 66087,3651 66088,3651 66089,3651 66091,3650 66091,3650 66093,3650 66094,3650 66094,3649 66096,3649 66096,3649 66098,3648 66099,3647 66100,3647 66101,3647 66102,3647 66103,3647 66104,3646 66105,3646 66107,3646 66108,3645 66108,3645 66110,3645 66110,3645 66111,3644 66113,3644 66113,3644 66115,3644 66116,3644 66117,3643 66118,3643 66118,3643 66120,3643 66121,3643 66122,3642 66124,3642 66124,3642 66125,3642 66126,3642 66127,3642 66129,3641 66129,3641 66131,3641 66132,3641 66132,3641 66137,3640 66138,3640 66139,3640 66140,3639 66141,3639 66143,3639 66143,3639 66144,3639 66146,3639 66146,3639 66148,3639 66148,3639 66150,3639 66151,3639 66151,3639 66153,3638 66154,3638 66154,3638 66156,3638 66156,3638 66158,3638 66159,3638 66160,3638 66161,3638 66162,3638 66163,3638 66165,3638 "/>
         </g>
         <polygon class="fil5" points="65890,3645 65833,3702 65893,3763 65933,3763 65872,3702 65929,3645 "/>
         <g>
          <path class="fil10" d="M66462 3856c40,9 76,31 108,64 47,47 69,102 68,165 -1,63 -29,127 -85,193l78 79 -57 57 -78 -78c-114,96 -231,112 -352,48l70 -112c75,43 144,39 205,-13l-166 -168c-92,57 -162,84 -210,80 -49,-4 -91,-24 -128,-61 -94,-96 -88,-211 17,-345l-61 -61 57 -57 61 61c99,-76 197,-88 295,-35l-68 104c-57,-29 -107,-26 -150,10l146 148c71,-39 120,-64 147,-75 27,-11 61,-11 101,-2zm58 255l0 0c3,-33 -8,-62 -32,-87 -41,-42 -98,-37 -172,13l160 163c26,-27 41,-57 43,-90zm-369 -127l0 0 -140 -143c-25,25 -39,51 -43,80 -5,29 5,55 28,78 39,40 91,35 156,-15z"/>
         </g>
         <path class="fil5" d="M65916 4108c-3,-4 -6,-7 -10,-11 -1,-1 -2,-2 -3,-3 -2,-3 -4,-5 -6,-8 -1,-1 -2,-3 -3,-4 -2,-3 -4,-5 -6,-8 -1,-1 -2,-2 -2,-3 -3,-4 -5,-8 -7,-11 -1,-1 -1,-2 -2,-3 -2,-3 -4,-5 -5,-9 -1,-1 -2,-2 -2,-4 -2,-3 -3,-5 -4,-8 -1,-1 -1,-2 -2,-3 -2,-4 -3,-8 -4,-11 -1,0 -1,-1 -1,-1 -2,-4 -3,-8 -4,-12 -1,-1 -1,-2 -1,-3 -1,-3 -1,-6 -2,-9 0,-2 -1,-3 -1,-4 -1,-3 -1,-6 -2,-9 0,-1 0,-2 -1,-3 -1,-4 -1,-8 -1,-12 0,-1 0,-2 0,-3 0,-3 0,-6 0,-10 0,-1 0,-3 0,-4 0,-3 0,-6 1,-9 0,-1 0,-3 0,-4 1,-4 1,-8 2,-12 0,0 0,-1 0,-1 1,-4 2,-9 2,-13 1,-1 1,-3 1,-4 1,-3 2,-6 2,-10 1,-2 1,-3 2,-5 1,-2 2,-4 2,-7 1,-2 1,-3 2,-5 1,-3 2,-5 3,-8 1,-2 1,-3 2,-5 1,-3 2,-5 3,-8 1,-2 2,-3 2,-4 2,-4 3,-7 5,-11 1,-1 1,-1 1,-2 2,-4 4,-9 6,-13 1,-2 2,-3 3,-4 2,-3 3,-6 5,-9 1,-2 2,-3 3,-5 2,-3 4,-6 6,-9 1,-2 2,-3 3,-5 3,-4 5,-7 7,-11 1,-1 2,-2 3,-4 2,-3 4,-5 6,-9 1,-1 2,-3 3,-4 3,-4 6,-9 10,-13l-40 0c-3,4 -6,9 -10,13 -1,2 -2,3 -3,4 -2,3 -4,6 -6,9 -1,1 -1,1 -1,1 -1,1 -1,2 -2,3 -3,4 -5,7 -7,10 -1,2 -2,3 -3,5 -2,3 -4,6 -5,9 -1,2 -2,3 -3,5 -2,3 -4,6 -5,9 -1,2 -2,3 -2,4 -3,4 -5,9 -7,13 0,0 0,0 0,0 -1,1 -1,1 -1,2 -2,4 -4,7 -5,11 -1,2 -1,3 -2,4 -1,3 -2,5 -3,8 -1,2 -1,3 -2,5 -1,3 -2,5 -2,8 -1,2 -2,3 -2,5 -1,3 -1,5 -2,7 0,1 -1,2 -1,3 0,1 -1,2 -1,2 -1,3 -2,6 -2,10 -1,1 -1,2 -1,4 -1,4 -2,9 -2,13 -1,1 -1,1 -1,1 -1,4 -1,8 -1,12 0,1 -1,3 -1,4 0,3 0,6 -1,9 0,1 0,3 0,4 0,4 0,7 1,10 0,1 0,2 0,3 0,4 1,8 1,12 0,1 0,2 1,3 0,3 1,6 1,9 1,2 1,3 1,4 1,3 1,6 2,9 0,2 1,3 1,4 1,4 2,8 4,12 0,0 0,1 0,1 2,4 3,8 4,11 1,2 1,3 2,4 1,3 3,5 4,8 1,1 2,3 2,4 2,3 3,6 5,9 1,1 1,2 2,3 2,4 5,8 8,11 1,1 1,2 2,3 2,3 4,5 6,8 1,1 2,3 3,4 2,3 4,5 6,8 1,1 2,2 3,3 3,4 6,7 10,11 36,36 79,57 127,61 3,0 6,1 10,1l40 0c-4,0 -6,0 -10,-1 -49,-4 -91,-24 -128,-61z"/>
        </g>
       </g>
      </g>
      <g>
       <path class="fil12" d="M71100 3373c367,-366 961,-366 1327,0 366,367 366,961 0,1327 -367,367 -961,367 -1327,0 -366,-366 -366,-960 0,-1327z"/>
       <path class="fil4" d="M70833 3921c2,-14 3,-29 5,-44 3,-14 5,-29 8,-44l4 -21c2,-7 4,-14 5,-21 2,-7 4,-14 5,-21l6 -21c17,-57 40,-112 68,-164 56,-105 132,-199 223,-276 91,-77 197,-136 311,-174 114,-38 234,-53 353,-46 120,8 237,38 346,89 108,51 206,123 286,211 81,87 145,190 188,301 42,111 63,230 60,348l-2 -44 -4 -44 -6 -43c-3,-14 -5,-29 -8,-43 -12,-58 -29,-114 -52,-168 -44,-108 -109,-208 -190,-292 -80,-84 -176,-154 -283,-203 -106,-49 -220,-78 -336,-85 -116,-8 -234,8 -345,43 -111,35 -215,93 -306,166 -11,10 -23,19 -33,28l-32 30c-10,11 -21,21 -31,32 -10,11 -20,21 -29,33 -38,45 -71,93 -100,144 -59,101 -96,215 -114,332z"/>
       <path class="fil5" d="M72702 4037c3,128 -22,256 -71,375 -50,118 -124,227 -218,316 -93,90 -205,159 -326,203 -122,44 -252,63 -382,55 -129,-8 -256,-43 -372,-102 -115,-59 -218,-142 -299,-242 -41,-50 -76,-104 -106,-161 -30,-57 -54,-117 -71,-179 -34,-124 -43,-254 -25,-381l-4 48c-1,16 -1,32 -1,48 0,32 1,64 4,95 6,63 19,126 38,187 18,61 42,120 73,175 30,56 66,108 107,156 81,96 182,177 295,233 112,57 236,90 362,98 63,4 126,2 189,-7 62,-9 124,-24 183,-45 60,-21 117,-48 170,-81 54,-33 105,-71 151,-114 187,-170 298,-421 302,-676z"/>
       <path class="fil6" d="M71241 3513c289,-289 757,-289 1046,0 289,289 289,758 0,1047 -289,289 -757,289 -1046,0 -289,-289 -289,-757 0,-1047z"/>
       <path class="fil5" d="M71036 3901c14,-91 47,-180 95,-260 24,-40 52,-78 83,-113 32,-34 66,-66 103,-94 75,-57 160,-99 251,-124 91,-25 186,-32 280,-21 93,11 185,39 268,83 83,44 157,105 217,177 30,36 57,75 80,115 23,41 41,84 56,128 14,44 25,90 31,136 3,23 5,46 5,69 0,12 1,24 0,35l-1 35 -1 -35c-1,-11 -2,-23 -2,-34 -2,-23 -4,-46 -9,-69 -8,-46 -19,-90 -35,-133 -16,-43 -35,-85 -58,-124 -24,-40 -50,-77 -80,-111 -61,-68 -132,-127 -213,-168 -80,-42 -169,-69 -259,-79 -181,-21 -368,28 -516,135 -74,54 -138,121 -188,198 -25,39 -47,79 -64,122 -9,21 -17,43 -23,65 -8,22 -13,44 -18,67z"/>
       <path class="fil7" d="M72504 4067c-2,101 -25,203 -68,295 -43,93 -106,176 -183,244 -77,68 -169,119 -268,150 -98,31 -203,40 -306,29 -102,-12 -202,-44 -292,-96 -44,-26 -86,-56 -124,-91 -39,-34 -72,-73 -103,-114l-11 -16c-4,-5 -8,-10 -11,-16l-20 -33 -18 -34c-3,-5 -6,-11 -9,-17l-8 -17c-21,-47 -37,-96 -48,-146 -11,-50 -16,-101 -16,-152l0 -19 1 -19c1,-12 1,-25 3,-38 2,-12 3,-25 5,-38l6 -38c-15,100 -12,203 13,301 12,49 29,96 50,142l8 17c3,5 5,11 9,17l18 33 20 32c3,5 7,10 11,15l11 15c4,5 8,10 11,15l12 14c8,10 16,19 25,28 9,9 17,18 26,27 9,8 18,17 28,25 37,33 78,62 121,87 86,50 183,81 282,92 99,11 200,2 296,-27 95,-28 185,-77 261,-142 77,-65 140,-144 185,-234 23,-45 41,-92 54,-140 2,-6 3,-12 5,-19l4 -18c3,-12 5,-25 7,-37 1,-6 2,-13 3,-19l3 -19c2,-12 2,-25 4,-38z"/>
       <g>
        <g>
         <g>
          <polygon class="fil5" points="71386,4386 71386,4347 71465,4269 71465,4308 "/>
         </g>
         <g>
          <path class="fil8" d="M71805 4195l-1 40c0,25 -9,47 -28,65 -25,24 -54,35 -87,32l0 -39c33,3 62,-8 87,-33 19,-18 28,-40 28,-65z"/>
         </g>
         <g>
          <path class="fil8" d="M71500 4124l0 -39c0,38 14,73 43,107l0 40c-29,-34 -43,-70 -43,-108z"/>
         </g>
         <g>
          <path class="fil5" d="M71805 4235l1 -40c-1,25 -10,47 -28,65 -25,25 -54,35 -87,33 -9,-1 -17,-3 -25,-5 -8,-2 -16,-5 -23,-9 -6,-3 -13,-7 -19,-12 -7,-4 -14,-10 -20,-16 -1,-1 -2,-2 -2,-2l0 39c1,1 1,2 2,2 6,6 13,12 20,17 6,4 13,8 20,12 8,3 15,6 23,9 8,2 16,4 25,4 33,3 62,-8 87,-32 19,-18 28,-40 28,-65z"/>
          <path class="fil5" d="M71543 4192c-3,-3 -5,-6 -8,-10 -8,-10 -15,-21 -20,-32 -10,-21 -15,-43 -15,-65l0 39c0,23 5,44 15,66 5,11 12,21 20,32 2,3 5,6 8,10l168 -166 0 -40 -168 166z"/>
         </g>
         <g>
          <path class="fil8" d="M71951 4182l0 40c0,-18 -3,-35 -9,-49 -10,-28 -35,-77 -75,-148l0 -39c39,71 64,120 75,147 5,15 8,31 8,49z"/>
         </g>
         <path class="fil5" d="M71379 4099l0 -39c0,-47 13,-95 39,-143l0 39c-26,49 -39,96 -39,143z"/>
        </g>
        <g>
         <path class="fil5" d="M71379 4099l0 -39c0,-47 13,-95 39,-143l0 39c-26,49 -39,96 -39,143z"/>
        </g>
        <g>
         <g>
          <polygon class="fil5" points="71418,3956 71418,3917 71530,3987 71530,4026 "/>
         </g>
         <path class="fil5" d="M71816 3962l0 -39c1,0 1,0 1,0l0 40c0,0 -1,-1 -1,-1z"/>
         <g>
          <path class="fil5" d="M71951 4182c0,-18 -3,-34 -8,-49 -4,-10 -10,-23 -17,-39 -14,-27 -33,-64 -58,-109l0 39c25,46 44,81 57,109 8,16 13,28 17,39 6,14 9,31 9,49l0 -40z"/>
          <path class="fil5" d="M72026 4029c13,-26 19,-50 19,-73l0 -40c0,23 -6,47 -19,73l0 40z"/>
          <path class="fil5" d="M71789 3879c-9,-19 -14,-36 -14,-53l0 40c0,16 5,34 14,53 6,14 16,28 27,43l0 -39c-11,-16 -20,-30 -27,-44z"/>
          <polygon class="fil5" points="71816,3923 71816,3963 71959,3822 71960,3783 "/>
         </g>
         <g>
          <path class="fil5" d="M72162 3938l0 39c0,-58 -23,-116 -68,-175l0 -40c45,58 68,117 68,175z"/>
         </g>
         <g>
          <polygon class="fil5" points="72095,3802 72095,3762 72095,3763 72095,3763 72096,3763 72096,3764 72096,3803 72096,3803 72095,3802 72095,3802 "/>
          <polygon class="fil5" points="72162,3938 72162,3936 72162,3935 72162,3934 72162,3932 72162,3932 72162,3931 72162,3929 72162,3929 72162,3927 72162,3926 72162,3925 72162,3924 72162,3924 72162,3922 72162,3921 72162,3920 72162,3919 72162,3918 72161,3917 72161,3916 72161,3915 72161,3913 72161,3913 72161,3912 72161,3910 72161,3910 72161,3908 72160,3907 72160,3906 72160,3905 72160,3905 72160,3903 72160,3902 72160,3902 72159,3899 72159,3899 72159,3898 72158,3896 72158,3896 72158,3895 72158,3894 72158,3893 72157,3891 72157,3891 72157,3889 72157,3888 72157,3888 72156,3886 72156,3886 72156,3884 72156,3883 72156,3882 72155,3881 72155,3880 72155,3879 72154,3877 72154,3877 72154,3876 72154,3875 72153,3874 72153,3872 72153,3870 72152,3869 72152,3869 72151,3867 72151,3865 72150,3864 72150,3864 72150,3862 72149,3861 72149,3860 72148,3858 72148,3858 72148,3857 72147,3855 72147,3855 72147,3853 72146,3852 72146,3850 72146,3850 72145,3848 72145,3847 72144,3846 72143,3845 72143,3845 72142,3843 72142,3842 72142,3841 72141,3839 72141,3839 72140,3838 72140,3836 72140,3836 72139,3835 72139,3834 72138,3832 72137,3831 72137,3831 72136,3829 72136,3828 72135,3828 72135,3827 72134,3825 72134,3825 72134,3824 72134,3823 72133,3823 72133,3822 72133,3822 72132,3821 72132,3820 72132,3820 72131,3818 72131,3817 72131,3817 72130,3816 72129,3816 72129,3815 72129,3814 72128,3814 72128,3813 72127,3812 72127,3812 72127,3810 72126,3809 72126,3809 72126,3809 72125,3808 72125,3807 72124,3806 72124,3806 72123,3805 72123,3803 72123,3803 72122,3802 72121,3802 72121,3801 72121,3801 72120,3800 72120,3799 72119,3798 72119,3798 72119,3797 72118,3796 72118,3795 72117,3795 72117,3794 72116,3793 72116,3793 72116,3792 72115,3791 72114,3790 72114,3790 72113,3789 72113,3788 72112,3787 72112,3787 72111,3786 72111,3785 72111,3784 72110,3784 72110,3783 72109,3782 72109,3782 72108,3781 72108,3780 72107,3779 72107,3779 72106,3778 72105,3777 72105,3776 72105,3776 72104,3775 72103,3774 72103,3773 72103,3773 72102,3772 72101,3771 72101,3771 72101,3770 72099,3769 72099,3768 72099,3768 72098,3767 72097,3766 72097,3765 72097,3765 72096,3764 72096,3803 72096,3805 72097,3805 72097,3805 72098,3806 72099,3807 72099,3807 72099,3808 72100,3809 72101,3810 72101,3810 72102,3812 72103,3812 72103,3813 72103,3813 72104,3814 72104,3815 72105,3815 72105,3816 72106,3817 72106,3818 72106,3818 72108,3819 72108,3820 72109,3821 72109,3821 72110,3822 72110,3823 72110,3824 72111,3824 72111,3825 72112,3826 72112,3827 72113,3827 72113,3828 72114,3829 72114,3829 72114,3830 72116,3831 72116,3832 72116,3832 72117,3833 72117,3834 72118,3835 72118,3835 72118,3836 72119,3837 72119,3837 72120,3838 72120,3839 72121,3840 72121,3841 72122,3842 72123,3843 72123,3843 72123,3844 72124,3845 72124,3846 72125,3846 72125,3847 72126,3848 72126,3849 72126,3849 72127,3850 72127,3851 72127,3851 72128,3852 72128,3853 72129,3854 72129,3854 72129,3855 72130,3856 72130,3857 72131,3857 72131,3858 72132,3859 72132,3859 72132,3860 72133,3861 72133,3862 72133,3862 72134,3863 72134,3864 72134,3865 72134,3865 72135,3866 72135,3867 72136,3867 72136,3868 72137,3870 72137,3870 72138,3872 72139,3873 72139,3874 72140,3875 72140,3876 72140,3877 72141,3879 72141,3879 72142,3881 72142,3881 72142,3882 72143,3884 72143,3884 72144,3886 72144,3887 72145,3888 72145,3889 72146,3889 72146,3891 72146,3892 72147,3892 72147,3895 72147,3895 72148,3896 72148,3898 72148,3898 72149,3899 72149,3901 72149,3901 72150,3903 72150,3903 72151,3905 72151,3906 72151,3906 72152,3908 72152,3909 72152,3910 72153,3911 72153,3912 72153,3913 72154,3914 72154,3915 72154,3917 72154,3917 72155,3918 72155,3919 72155,3920 72156,3922 72156,3922 72156,3924 72156,3925 72156,3925 72157,3927 72157,3928 72157,3929 72157,3931 72157,3931 72158,3932 72158,3933 72158,3934 72158,3935 72158,3936 72159,3938 72159,3939 72159,3939 72160,3941 72160,3941 72160,3942 72160,3944 72160,3944 72160,3946 72160,3947 72160,3948 72161,3949 72161,3949 72161,3951 72161,3952 72161,3953 72161,3955 72161,3955 72161,3956 72161,3958 72161,3958 72162,3959 72162,3961 72162,3961 72162,3963 72162,3963 72162,3965 72162,3966 72162,3966 72162,3968 72162,3969 72162,3970 72162,3971 72162,3972 72162,3973 72162,3974 72162,3975 72162,3977 "/>
         </g>
         <polygon class="fil5" points="72156,3702 72099,3645 72038,3705 72037,3745 72099,3684 72156,3741 "/>
         <g>
          <path class="fil10" d="M71945 4273c-9,40 -31,76 -64,109 -47,46 -102,69 -165,68 -63,-2 -128,-29 -194,-85l-78 78 -57 -57 79 -77c-96,-114 -112,-231 -48,-352l112 70c-43,75 -39,144 13,205l168 -166c-57,-92 -84,-162 -80,-211 4,-48 24,-91 61,-127 95,-94 211,-89 345,16l62 -60 57 57 -61 61c76,99 88,197 35,294l-104 -68c29,-58 26,-108 -10,-150l-148 146c39,71 64,120 75,148 11,27 12,61 2,100zm-255 59l0 0c33,3 62,-8 87,-32 41,-41 37,-98 -13,-172l-163 160c26,26 56,41 90,43zm127 -369l0 0 143 -141c-25,-24 -51,-39 -80,-43 -28,-5 -55,4 -78,28 -40,39 -35,91 15,156z"/>
         </g>
         <path class="fil5" d="M71693 3728c3,-4 7,-7 11,-10 1,-1 2,-2 3,-3 2,-2 5,-4 8,-6 1,-1 2,-2 4,-3 3,-2 5,-4 8,-6 1,-1 2,-1 3,-2 4,-3 8,-5 11,-8 1,-1 2,-1 3,-2 3,-2 6,-3 9,-5 1,-1 2,-1 4,-2 2,-2 5,-3 8,-4 1,-1 2,-1 3,-2 4,-2 8,-3 11,-4 0,0 0,0 1,0 4,-2 8,-3 12,-4 1,-1 2,-1 3,-1 3,-1 6,-2 9,-2 2,0 3,-1 4,-1 3,-1 6,-1 9,-2 1,0 2,-1 3,-1 4,-1 8,-1 12,-1 1,0 2,0 3,0 3,-1 6,-1 10,-1 2,0 3,0 4,1 3,0 6,0 9,0 2,1 3,1 4,1 4,1 8,1 11,1 1,1 1,1 2,1 4,1 9,1 13,2 1,1 3,1 4,1 3,1 6,2 10,2 1,1 3,1 4,2 3,1 5,1 7,2 2,1 4,1 5,2 2,1 5,2 8,3 2,1 3,1 5,2 3,1 5,2 8,3 1,1 3,1 4,2 3,1 7,3 10,5 1,0 2,1 2,1 4,2 9,5 13,7 1,1 3,2 4,2 3,2 6,4 10,5 2,1 3,2 5,3 3,2 6,4 9,5 2,1 3,2 5,3 4,2 7,5 10,7 2,1 3,2 4,3 3,2 6,4 9,6 2,1 3,2 4,3 4,3 9,6 13,10l1 -39c-5,-3 -9,-7 -13,-10 -1,-1 -3,-2 -4,-3 -3,-2 -5,-4 -9,-6 0,0 -1,0 -1,-1 -1,-1 -2,-1 -3,-2 -4,-3 -7,-5 -11,-7 -2,-1 -3,-2 -5,-3 -3,-2 -6,-4 -9,-6 -2,-1 -3,-2 -5,-3 -3,-2 -6,-4 -9,-5 -2,-1 -3,-2 -4,-2 -4,-3 -9,-5 -13,-7 0,0 0,0 0,0 -1,-1 -1,-1 -2,-1 -4,-2 -8,-3 -11,-5 -2,-1 -3,-1 -4,-2 -3,-1 -5,-2 -8,-3 -2,-1 -3,-2 -5,-2 -3,-1 -5,-2 -8,-3 -2,-1 -3,-1 -5,-2 -3,-1 -5,-2 -8,-2 -1,0 -2,-1 -2,-1 -1,-1 -2,-1 -2,-1 -3,-1 -6,-2 -10,-3 -1,0 -3,-1 -4,-1 -4,-1 -9,-2 -13,-3 -1,0 -1,0 -2,0 -4,-1 -8,-1 -11,-2 -1,0 -3,0 -4,0 -3,0 -6,-1 -9,-1 -1,0 -3,0 -4,0 -3,0 -6,0 -10,0 -1,0 -2,0 -3,0 -4,1 -8,1 -12,2 -1,0 -2,0 -3,0 -3,1 -6,1 -9,2 -2,1 -3,1 -4,1 -3,1 -5,1 -9,2 -1,0 -2,1 -3,1 -4,1 -8,3 -12,4 -1,0 -1,1 -1,1 -4,1 -8,3 -11,4 -1,1 -2,1 -3,2 -3,1 -5,3 -8,4 -2,1 -3,2 -4,2 -3,2 -6,3 -9,5 -1,1 -2,1 -2,2 -4,2 -8,5 -11,7 -1,1 -2,2 -3,2 -3,2 -5,4 -8,6 -2,1 -3,2 -4,3 -3,2 -5,4 -8,6 -1,1 -2,2 -3,3 -4,3 -7,6 -11,10 -37,36 -57,79 -61,128 -1,3 -1,6 -1,10l0 39c0,-3 0,-6 1,-10 4,-48 24,-91 61,-127z"/>
        </g>
       </g>
      </g>
      <g>
       <path class="fil13" d="M72996 6705l-3945 2195c-81,-117 -390,-2718 3945,-2195z"/>
       <path class="fil2" d="M69051 8900l3945 -2195c-1841,3959 -3889,2326 -3945,2195z"/>
      </g>
      <g>
       <path class="fil13" d="M64896 8258l3945 2194c81,-117 390,-2718 -3945,-2194z"/>
       <path class="fil2" d="M68841 10452l-3945 -2194c1841,3959 3889,2325 3945,2194z"/>
      </g>
     </g>
     <path class="fil14" d="M67021 18925c61,39 1127,-404 1802,-950 126,-102 301,-116 441,-35l421 288c239,138 464,180 464,180 315,66 723,521 723,521l-3851 -3z"/>
     <path class="fil15" d="M69038 17888c-14,32 -352,764 -960,1037l-1023 0c199,-34 1148,-449 1767,-950 63,-51 139,-80 216,-86zm-1983 1037l-35 0z"/>
    </g>
    <g>
     <g>
      <g>
       <path class="fil2" d="M77601 35550c0,2598 -2498,4245 -5676,4947 0,0 0,0 0,0 -2596,574 -5645,516 -8157,-169 -2861,-780 -5023,-2374 -5023,-4778 0,-3167 1602,-8527 3971,-12440 1689,-2790 3769,-4846 5936,-4846 1579,0 3023,1075 4269,2730 2863,3801 4679,10658 4679,14556z"/>
       <g>
        <path class="fil2" d="M74212 12822c-850,1609 -1942,2734 -3071,4483l-5331 0 -2270 -4198c-103,-300 -256,-954 47,-1099 250,-120 2067,-399 4442,-399 727,0 1529,656 2256,656 983,0 1674,-51 2157,-111 675,-84 943,-187 1032,-198 7,-1 12,-1 16,-1 13,1 25,1 38,2 26,2 51,4 76,8 25,4 50,9 74,14 25,5 49,12 72,19 12,4 24,8 35,12 23,8 46,17 68,26 11,5 23,10 33,16 21,11 42,21 63,34 10,6 20,12 30,18 20,13 39,26 57,40 18,14 35,28 52,44 9,8 16,15 24,24 159,161 221,380 100,609z"/>
        <path class="fil2" d="M77601 35550c0,487 -88,941 -251,1362 -14,35 -28,70 -43,104 -125,294 -287,571 -482,831 -24,31 -47,61 -71,91 -12,15 -24,30 -36,45 -24,30 -49,60 -75,89 -25,29 -51,59 -77,88 -27,29 -53,58 -80,86 -41,43 -82,85 -124,127 -606,596 -1403,1086 -2325,1469 -198,83 -402,160 -611,232 -477,166 -979,307 -1500,422 0,0 0,0 0,0 -148,33 -297,63 -448,92 -137,26 -277,51 -417,73 -26,5 -53,9 -80,13 -118,19 -236,36 -356,51 -41,6 -81,11 -122,17 -118,15 -237,29 -356,42 -34,4 -69,8 -103,11 -120,12 -240,24 -361,33 -493,40 -992,60 -1491,60 -66,0 -133,-1 -199,-1 -67,-1 -133,-2 -200,-4 -57,-1 -113,-2 -170,-4 -1,1 -2,1 -2,0 -39,-1 -77,-2 -115,-4 -36,-1 -73,-3 -110,-4 -1258,-54 -2497,-235 -3627,-544 -2859,-780 -5022,-2374 -5022,-4778 0,-3167 1601,-8526 3971,-12440 1479,-2444 3258,-4323 5133,-4753l1 0c53,-12 107,-23 160,-33 13,-3 26,-5 40,-7 12,-3 24,-5 36,-6 54,-9 108,-16 161,-23 34,-4 68,-8 101,-10 101,-9 203,-13 304,-13 864,0 1687,322 2460,883 176,129 351,270 522,422 85,77 170,155 255,237 358,348 703,747 1034,1186 23,29 45,60 67,90 44,60 89,121 133,182 66,93 131,187 196,282 43,64 86,128 129,193 43,65 85,131 127,197 42,66 84,133 125,201 42,68 83,136 124,204 41,69 82,138 122,208 40,70 81,140 121,211 60,106 119,214 177,323 156,290 308,588 455,893 1,1 1,1 1,1 36,76 72,152 108,229 54,115 108,232 160,349 4,9 9,18 12,27 31,69 62,139 93,209 138,315 272,636 400,961 48,122 95,244 142,367 16,41 31,81 47,123 31,82 61,164 91,247 60,165 119,330 177,496 29,83 57,166 85,249 70,208 139,417 205,626 26,83 53,167 78,251 836,2717 1304,5460 1304,7439z"/>
        <path class="fil16" d="M77601 35550c0,487 -88,941 -251,1362 -14,35 -28,70 -43,104 -125,294 -287,571 -482,831 -23,31 -47,61 -71,91 -12,15 -24,30 -36,45 -24,30 -49,60 -75,89 -25,29 -51,59 -77,88 -26,29 -53,58 -80,86 -40,43 -82,85 -124,127 -606,596 -1403,1086 -2325,1469 -198,83 -402,160 -611,232 -477,166 -979,307 -1500,422 0,0 0,0 0,0 -148,33 -297,63 -448,92 -137,26 -277,51 -417,73 -26,5 -53,9 -80,13 -118,19 -236,36 -356,51 -41,6 -81,11 -122,17 -118,15 -237,29 -356,42 -34,4 -69,8 -103,11 -120,12 -240,24 -361,33 -493,40 -992,60 -1491,60 -66,0 -133,-1 -199,-1 -67,-1 -133,-2 -200,-4 -57,-1 -113,-2 -170,-4 -1,1 -2,1 -2,0 -39,-1 -77,-2 -115,-4 -36,-1 -73,-3 -110,-4 1003,-43 1994,-168 2926,-374 0,0 0,0 0,0 1154,-255 2218,-634 3105,-1139 214,-122 419,-250 611,-387 1206,-854 1960,-1994 1960,-3422 0,-2457 -722,-6092 -1973,-9395 -164,-432 -336,-857 -517,-1274 -631,-1453 -1366,-2796 -2188,-3887 -1032,-1370 -2200,-2343 -3467,-2637 53,-12 107,-23 160,-33 13,-3 26,-5 40,-7 12,-3 24,-5 36,-6 54,-9 107,-17 161,-23 34,-4 68,-8 101,-10 101,-10 202,-14 304,-14 864,0 1687,322 2460,884 176,128 351,269 522,422 85,76 170,155 255,237 358,348 703,747 1034,1186 23,29 45,60 67,90 44,60 89,121 133,182 66,93 131,187 196,282 43,64 86,128 129,193 43,65 85,131 127,197 42,66 84,133 125,201 42,68 83,136 124,204 41,69 82,138 122,208 41,70 81,140 121,211 60,106 120,214 177,323 157,290 308,588 455,893 1,1 1,1 1,1 36,76 72,152 108,229 54,115 108,232 160,349 4,9 9,18 12,27 31,69 62,139 93,209 138,315 272,636 400,961 48,122 95,244 142,367 16,41 31,81 47,123 31,82 61,164 91,247 60,165 120,330 177,496 29,83 57,166 85,249 70,208 139,417 205,626 26,83 53,167 78,251 836,2717 1304,5460 1304,7439z"/>
        <path class="fil16" d="M74212 12822c-850,1609 -1942,2734 -3071,4483l-1606 0c1130,-1749 2221,-2874 3072,-4483 136,-258 40,-504 -165,-667 675,-84 943,-187 1032,-198 7,-1 12,-1 16,-1 13,1 25,1 38,2 26,2 51,4 76,8 25,4 50,9 74,14 25,5 49,12 72,19 12,4 24,8 35,12 23,8 46,17 68,26 11,5 23,10 33,16 21,11 42,21 63,34 10,6 20,12 30,18 20,12 39,26 57,40 18,14 35,28 52,44 9,8 17,16 24,24 159,161 221,380 100,609z"/>
        <path class="fil5" d="M71677 17716l0 420c0,93 -27,178 -73,247 -49,73 -119,128 -200,151 -5,1 -10,2 -14,4 -25,6 -51,9 -77,9l-5658 0c-26,0 -52,-3 -77,-9 -5,-2 -10,-3 -14,-4 -81,-24 -151,-78 -200,-151 -46,-69 -73,-154 -73,-247l0 -420c0,-227 163,-411 364,-411l5658 0c201,0 364,184 364,411z"/>
        <path class="fil5" d="M72105 18941l0 415c0,225 -185,407 -413,407l-6416 0c-228,0 -413,-182 -413,-407l0 -415c0,-206 156,-377 358,-403 18,-3 36,-4 55,-4l6416 0c19,0 37,1 55,4 203,26 359,197 359,403z"/>
        <path class="fil0" d="M71746 18538l-358 0c5,-1 10,-3 15,-4l288 0c9,0 17,1 26,1 10,1 19,2 28,3z"/>
        <path class="fil17" d="M70411 18547l-484 0c32,0 62,-4 91,-13l288 0c36,0 71,4 105,13z"/>
        <g>
         <polygon class="fil18" points="66583,17305 65796,14509 67531,17305 "/>
        </g>
        <g>
         <polygon class="fil19" points="70743,17305 71530,14509 69794,17305 "/>
        </g>
        <g>
         <polygon class="fil18" points="68369,17305 68939,15907 68939,17305 "/>
        </g>
        <g>
         <polygon class="fil18" points="66507,19763 64639,21993 67079,19763 "/>
        </g>
        <g>
         <polygon class="fil18" points="68456,19763 68456,21399 68998,19763 "/>
        </g>
        <g>
         <polygon class="fil18" points="70383,19763 72268,22501 71013,19763 "/>
        </g>
       </g>
       <g>
        <path class="fil20" d="M65367 19762l85 0c-25,0 -50,-3 -76,-9 -2,2 -6,5 -10,9z"/>
       </g>
       <g>
        <path class="fil1" d="M69166 32498c0,-714 -496,-931 -1013,-1127 -834,-321 -1618,-683 -1956,-1490 -99,-238 -149,-528 -149,-848 0,-952 477,-1531 1122,-1831 239,-114 496,-176 794,-207l0 -1087 775 476 0 621c1132,166 1827,1004 1827,2349l-1400 0c0,-703 -278,-1200 -883,-1200 -546,0 -834,321 -834,880 0,465 228,683 526,859 377,217 953,434 1340,641 685,362 1251,900 1251,1956 0,1273 -834,1893 -1926,2028l0 1004 -775 -476 0 -528c-953,-93 -1599,-569 -1916,-1356 -119,-289 -169,-631 -169,-1035l1400 0c0,776 337,1242 1063,1242 546,0 923,-300 923,-869z"/>
       </g>
      </g>
     </g>
     <path class="fil21" d="M72105 18940l0 416c0,224 -185,406 -413,406l-1385 0c228,0 413,-182 413,-406l0 -416c0,-189 -131,-348 -308,-393l-484 0c8,0 16,-1 24,-1 18,-1 36,-4 53,-8l-4782 0c18,-3 36,-4 55,-4l288 0c-81,-24 -151,-78 -200,-151l4855 0c46,-69 73,-154 73,-247l0 -420c0,-227 -163,-411 -364,-411l1385 0c200,0 364,184 364,411l0 420c0,93 -27,178 -73,247l-1 0c0,1 0,1 -1,2 -1,1 -1,1 -1,2 -6,8 -12,16 -18,24 -5,6 -10,12 -16,18 -31,35 -68,63 -108,84 -18,9 -37,17 -57,23 -5,1 -10,3 -15,4l358 0c203,26 359,196 359,403z"/>
    </g>
    <path class="fil0" d="M74261 769c-1,1 -1,2 -2,3 1,-1 1,-2 1,-3l1 0z"/>
    <path class="fil0" d="M74515 1043l-635 0c9,-2 17,-4 26,-6l512 0c16,0 30,1 46,2 17,1 34,2 51,5z"/>
    <g>
     <path class="fil1" d="M71011 13698c-269,269 -538,269 -806,0 269,269 269,537 0,806 269,-269 537,-269 806,0 -269,-269 -269,-537 0,-806z"/>
     <path class="fil1" d="M72180 14354c-269,269 -537,269 -806,0 269,269 269,537 0,806 269,-269 537,-269 806,0 -269,-269 -269,-537 0,-806z"/>
     <path class="fil1" d="M72735 12740c-454,454 -908,454 -1361,0 454,454 454,908 0,1361 454,-454 908,-454 1361,0 -454,-454 -454,-907 0,-1361z"/>
    </g>
   </g>
   <g>
    <g>
     <g>
      <polygon class="fil2" points="57798,34969 57897,17677 58110,17677 58209,34969 "/>
      <g>
       <path class="fil22" d="M56049 15919c0,-1079 875,-1954 1954,-1954 1079,0 1954,875 1954,1954 0,1079 -875,1954 -1954,1954 -1079,0 -1954,-875 -1954,-1954z"/>
       <path class="fil4" d="M56461 17120c-19,-24 -38,-48 -56,-73 -18,-25 -36,-49 -53,-76l-25 -39c-8,-13 -16,-26 -24,-40 -8,-13 -16,-26 -24,-40l-22 -41c-58,-108 -106,-223 -143,-341 -72,-236 -100,-487 -78,-735 20,-248 90,-491 202,-714 112,-222 267,-422 453,-588 187,-165 405,-294 640,-378 234,-84 485,-122 733,-112 248,9 494,66 720,168 225,102 431,246 601,424l-68 -62 -71 -59 -73 -56c-25,-18 -50,-35 -76,-52 -102,-67 -211,-125 -324,-171 -225,-94 -467,-145 -710,-150 -243,-5 -487,33 -715,117 -228,83 -440,210 -621,370 -182,160 -333,355 -444,571 -112,216 -180,452 -205,694 -3,31 -6,61 -8,91l-3 91c1,31 1,61 2,91 2,31 2,61 5,91 10,122 32,242 65,360 63,236 176,458 321,656z"/>
       <path class="fil5" d="M59385 14537c192,184 344,410 447,657 101,248 150,517 144,785 -5,269 -68,536 -182,781 -113,244 -279,464 -480,643 -202,178 -441,315 -697,397 -256,83 -530,113 -797,84 -133,-14 -265,-41 -393,-80 -128,-40 -251,-94 -368,-160 -232,-133 -437,-311 -597,-525l65 76c22,25 46,48 69,72 47,47 95,92 147,134 102,84 212,158 329,220 116,62 239,114 365,150 127,37 257,61 388,72 262,22 529,-8 778,-91 249,-82 481,-216 677,-390 99,-86 188,-183 267,-288 79,-105 147,-218 203,-336 56,-118 101,-243 132,-370 31,-128 49,-258 54,-390 24,-527 -180,-1059 -550,-1442z"/>
       <path class="fil6" d="M56461 15919c0,-851 690,-1542 1542,-1542 851,0 1542,690 1542,1542 0,851 -690,1542 -1542,1542 -851,0 -1542,-690 -1542,-1542z"/>
       <path class="fil5" d="M56732 16791c-114,-155 -196,-335 -243,-523 -23,-94 -38,-191 -43,-288 -4,-98 -1,-195 13,-292 26,-194 91,-382 188,-552 97,-170 227,-321 380,-443 153,-122 329,-215 517,-272 188,-57 385,-77 580,-60 98,9 194,25 287,52 94,27 185,63 271,107 86,44 169,96 245,155 39,29 75,61 110,94 17,17 34,33 51,51l49 53 -52 -50c-18,-16 -36,-32 -54,-48 -37,-31 -74,-61 -114,-89 -78,-55 -161,-103 -248,-143 -86,-41 -177,-73 -269,-96 -92,-24 -187,-38 -281,-44 -190,-12 -382,9 -562,66 -181,56 -351,146 -498,265 -298,235 -501,584 -561,960 -29,188 -25,381 14,568 19,93 48,185 84,273 19,44 39,88 62,130 21,43 47,84 72,125z"/>
       <path class="fil7" d="M59137 14874c147,152 261,336 336,535 72,200 102,416 88,629 -13,214 -73,424 -173,614 -100,190 -240,359 -407,493 -168,133 -363,232 -571,287 -104,27 -211,44 -317,49 -107,5 -214,-2 -320,-18l-40 -7c-13,-2 -26,-4 -39,-8l-78 -18 -77 -23c-13,-3 -25,-8 -38,-13l-38 -14c-99,-39 -195,-87 -285,-145 -89,-57 -172,-126 -247,-200l-28 -28 -26 -29c-18,-20 -36,-39 -52,-60 -16,-21 -33,-41 -48,-63l-45 -65c125,170 281,316 460,424 90,54 185,99 283,134l37 12c12,4 25,9 37,12l76 21 76 17c13,3 26,5 39,6l39 6c13,2 26,4 39,5l39 3c26,2 51,5 78,5 26,1 52,2 78,2 26,-1 51,-1 78,-3 103,-6 207,-24 307,-51 200,-54 389,-150 551,-280 162,-129 299,-291 396,-474 99,-183 158,-387 176,-593 18,-207 -6,-419 -71,-618 -33,-99 -76,-196 -128,-287 -6,-11 -13,-23 -20,-34l-21 -33c-14,-23 -29,-44 -44,-65 -8,-11 -15,-21 -23,-32l-24 -31c-16,-21 -34,-41 -50,-61z"/>
       <g>
        <g>
         <g>
          <polygon class="fil5" points="57962,16989 57904,16931 57906,16701 57964,16759 "/>
         </g>
         <g>
          <path class="fil8" d="M58134 16531l-58 -58c78,-1 144,-24 196,-68l58 58c-53,44 -118,68 -196,68z"/>
         </g>
         <g>
          <path class="fil8" d="M58298 16093l58 58c36,36 55,82 54,137 -1,72 -27,130 -80,175l-58 -58c53,-45 80,-103 80,-176 1,-54 -18,-100 -54,-137z"/>
         </g>
         <g>
          <path class="fil8" d="M57744 16437l-58 -58c56,56 130,88 222,95l58 58c-92,-7 -166,-39 -222,-94z"/>
         </g>
         <g>
          <path class="fil5" d="M58356 16151l-58 -58c36,37 55,83 54,137 -1,72 -27,131 -80,176 -13,11 -28,21 -43,30 -14,8 -30,15 -46,21 -14,5 -30,9 -46,12 -17,3 -35,5 -54,5 -2,0 -5,0 -7,0l58 58c2,0 5,0 7,0 19,-1 36,-2 54,-5 16,-3 32,-7 46,-12 16,-5 32,-12 46,-21 16,-9 30,-19 43,-30 53,-45 80,-103 80,-175 1,-55 -18,-100 -54,-137z"/>
          <path class="fil5" d="M57908 16473c-9,-1 -17,-2 -26,-3 -27,-4 -53,-10 -77,-18 -46,-16 -86,-41 -119,-75l58 58c33,33 73,58 119,74 24,8 50,14 77,18 9,2 17,2 26,3l4 -491 -58 -58 -4 491z"/>
         </g>
         <g>
          <path class="fil8" d="M58494 15858l58 58c-27,-27 -55,-47 -85,-60 -56,-25 -165,-61 -328,-107l-58 -58c162,47 271,82 328,107 30,13 58,34 85,61z"/>
         </g>
         <path class="fil5" d="M57529 16579l-58 -58c-69,-69 -121,-159 -154,-268l58 58c33,109 85,198 154,268z"/>
        </g>
        <g>
         <path class="fil5" d="M57529 16579l-58 -58c-69,-69 -121,-159 -154,-268l58 58c33,109 85,198 154,268z"/>
        </g>
        <g>
         <g>
          <polygon class="fil5" points="57376,16311 57318,16253 57585,16191 57643,16249 "/>
         </g>
         <path class="fil9" d="M57971 15733l-58 -58c0,1 1,1 1,1l58 58c0,0 -1,0 -1,0z"/>
         <g>
          <path class="fil5" d="M58494 15858c-27,-27 -55,-47 -85,-61 -20,-9 -48,-19 -82,-31 -60,-21 -142,-46 -246,-76l58 58c103,30 185,55 246,76 34,12 62,23 82,32 30,13 58,33 85,60l-58 -58z"/>
          <path class="fil5" d="M58377 15522c-19,-57 -45,-103 -78,-137l-58 -58c33,34 60,79 78,136l58 58z"/>
          <path class="fil5" d="M57808 15651c-41,-14 -74,-33 -98,-57l58 58c24,24 56,43 98,57 31,10 65,18 105,24l-58 -58c-40,-5 -75,-13 -105,-24z"/>
          <polygon class="fil5" points="57914,15675 57972,15733 57975,15315 57917,15257 "/>
         </g>
         <g>
          <path class="fil5" d="M58444 15186l58 58c-85,-86 -204,-139 -357,-158l-58 -58c153,20 272,72 357,158z"/>
         </g>
         <g>
          <polygon class="fil5" points="58145,15086 58087,15028 58087,15028 58087,15028 58087,15028 58087,15028 58087,15028 58087,15028 58087,15028 58088,15028 58088,15028 58088,15028 58088,15028 58088,15028 58088,15028 58088,15028 58088,15028 58089,15028 58089,15028 58089,15028 58090,15028 58090,15028 58090,15028 58090,15028 58090,15028 58090,15028 58090,15028 58090,15028 58090,15028 58091,15028 58091,15028 58091,15028 58091,15028 58149,15087 58147,15086 58147,15086 58147,15086 58147,15086 58146,15086 58146,15086 58146,15086 58146,15086 58146,15086 58146,15086 58146,15086 58146,15086 58145,15086 58145,15086 58145,15086 58145,15086 58145,15086 58145,15086 58145,15086 "/>
          <path class="fil5" d="M58444 15186l-3 -2 -1 -2 -1 -1 -3 -3 -1 0 -2 -2 -2 -2 -1 -1 -3 -2 -1 -1 -2 -2 -1 -1 -4 -3 -1 -1 -1 -1 -2 -1 -3 -2 0 -1 -3 -2 0 0 -3 -2 -3 -2 -1 -1 -2 -2 -3 -2 -1 0 -3 -3 -3 -2 -3 -2 0 0 -1 -1 -3 -3 -1 0 -1 -1 -3 -2 -1 -1 -2 -2 -2 -2 -1 0 -3 -2 0 0 -3 -2 -3 -2 0 0 -1 -1 -4 -3 0 0 -1 -1 -3 -2 -1 -1 -3 -2 -3 -1 -1 -1 -3 -2 -1 -1 -4 -3 -1 -1 0 0 -3 -2 -2 -1 -2 -1 -3 -2 -1 -1 -3 -1 -2 -2 -1 -1 -3 -2 -1 -1 -2 -1 -3 -2 -1 0 -3 -2 -2 -1 -2 -1 -3 -2 -1 0 -3 -2 -2 -1 -1 -1 -4 -2 -1 -1 -2 -1 -3 -1 -1 -1 -3 -2 -2 -1 -2 -1 -4 -2 0 0 -3 -2 -3 -1 -1 -1 -4 -1 -1 -1 -3 -1 -3 -1 -1 -1 -4 -1 -2 -1 -2 -1 -4 -1 0 0 -4 -2 -2 -1 -2 -1 -2 -1 -2 -1 0 0 -2 -1 -2 -1 -2 -1 0 0 -2 -1 -3 -1 -1 -1 -1 0 -2 -1 -2 -1 -1 0 -1 -1 -2 -1 -3 -1 0 -1 -2 -1 -2 -1 -2 -1 0 0 -3 -1 -2 -1 -2 0 -1 -1 -4 -1 -1 0 -1 -1 -2 0 -2 -1 -3 -1 0 -1 -2 -1 -2 -1 -2 -1 -1 0 -6 -2 -1 0 -5 -1 -1 0 -6 -2 -1 0 -4 -1 -2 -1 0 0 -5 -1 -2 -1 -1 0 -3 -1 -2 -1 -1 0 -2 0 -2 -1 -3 -1 -1 0 -2 -1 -5 -1 0 0 -2 0 -3 -1 -2 -1 -1 0 -5 -1 -2 0 -1 0 -2 -1 -3 -1 -1 0 -2 -1 -3 0 -2 -1 -1 0 -2 -1 -3 0 -2 -1 -1 0 -3 -1 58 58 3 0 1 1 2 0 3 1 2 0 1 0 2 1 3 1 2 0 1 1 3 0 2 1 1 0 2 1 5 1 1 0 2 1 3 1 2 1 0 0 5 1 2 1 1 0 3 1 2 1 2 0 1 1 2 1 3 1 1 0 2 1 5 1 0 0 2 1 4 1 1 0 6 2 1 0 5 1 1 1 2 1 2 1 2 1 1 0 2 1 2 1 2 1 0 0 3 1 4 1 1 0 3 1 2 1 1 0 2 1 2 1 3 1 0 0 2 1 2 1 2 1 0 0 3 1 2 1 1 1 1 1 2 1 2 1 1 1 1 1 2 1 3 1 0 0 2 1 2 1 2 1 1 0 2 1 2 1 2 1 2 1 4 1 0 0 4 2 2 1 2 1 4 2 1 0 3 1 3 1 1 1 4 2 1 1 3 1 3 2 0 0 4 2 2 1 2 1 3 2 1 0 3 2 2 1 1 1 4 2 1 0 2 2 3 1 1 1 3 2 2 1 2 1 3 2 1 0 3 2 2 1 1 1 3 2 1 1 2 1 3 2 1 0 3 2 2 1 2 1 3 2 0 0c3,2 6,4 10,5l1 1 3 2 3 2 1 0 3 2 1 1 4 3 1 1 0 1 3 2 2 1 1 1 3 2 1 1 2 2 2 2 1 1 3 2 1 1 2 2 3 2 0 1 3 2 3 2 3 2 1 0 3 2 2 2 1 1 3 3 3 2 0 0 3 2 0 0 3 2 3 3 0 0 5 5 2 2 1 1 3 3 3 2 2 2 1 1 3 3 1 1 1 2 2 2 -57 -57z"/>
         </g>
         <polygon class="fil5" points="58088,14849 57920,14849 57919,15028 57977,15086 57978,14907 58146,14907 "/>
         <g>
          <path class="fil10" d="M58618 16001c44,72 66,157 66,254 -1,137 -49,251 -143,343 -94,91 -231,144 -409,160l-2 230 -168 0 2 -230c-308,-26 -504,-175 -589,-448l268 -62c47,175 154,269 323,282l4 -491c-219,-50 -362,-115 -428,-192 -65,-78 -98,-170 -97,-278 2,-279 180,-441 532,-484l1 -179 168 0 -1 179c257,33 419,160 486,382l-253 54c-42,-128 -120,-197 -235,-206l-3 434c162,47 271,82 328,107 56,25 107,73 151,145zm-288 462l0 0c53,-45 80,-103 80,-175 1,-121 -90,-199 -273,-233l-4 476c78,-1 144,-24 196,-68zm-358 -730l0 0 3 -418c-72,1 -132,19 -181,54 -49,35 -73,87 -74,156 -1,116 83,185 252,207z"/>
         </g>
         <path class="fil5" d="M57445 15570c0,-10 0,-20 1,-30 1,-3 1,-6 1,-9 1,-7 1,-14 2,-21 1,-3 1,-6 1,-10 1,-7 2,-14 3,-21 1,-3 1,-5 1,-7 2,-9 3,-18 5,-27 1,-2 1,-4 2,-6 2,-7 4,-13 6,-20 1,-3 2,-5 2,-8 2,-6 4,-12 6,-18 1,-3 2,-5 3,-8 3,-8 6,-15 10,-23 1,-1 1,-1 1,-2 4,-8 8,-15 12,-23 2,-2 3,-4 4,-7 3,-5 6,-10 10,-16 2,-2 3,-4 5,-7 4,-5 8,-10 11,-16 1,-2 3,-3 4,-5 5,-6 11,-13 16,-19 2,-2 3,-3 4,-4 5,-5 10,-10 14,-14 2,-2 4,-4 6,-6 5,-4 9,-9 14,-12 2,-2 4,-4 6,-6 6,-5 12,-10 19,-14 1,-1 2,-1 2,-2 7,-5 15,-11 23,-16 2,-2 5,-3 7,-4 5,-4 11,-8 17,-11 3,-2 6,-3 9,-5 4,-3 9,-5 13,-8 3,-2 6,-3 10,-5 5,-3 10,-5 15,-7 3,-2 6,-3 10,-4 5,-3 11,-5 17,-7 3,-2 6,-3 9,-4 8,-3 15,-6 23,-9 1,-1 3,-1 4,-2 10,-3 20,-6 30,-9 3,-1 6,-2 9,-3 8,-2 14,-4 22,-6 4,-1 8,-2 12,-3 7,-2 14,-4 21,-5 4,-1 8,-2 12,-2 8,-2 17,-4 25,-5 3,-1 6,-1 9,-2 7,-1 14,-2 22,-3 3,-1 7,-2 11,-2 11,-2 22,-3 34,-4l-58 -58c-12,2 -23,3 -34,5 -4,1 -8,1 -11,2 -8,1 -15,2 -22,4 -1,0 -2,0 -2,0 -2,1 -5,1 -7,2 -9,2 -17,3 -25,5 -4,1 -8,2 -12,3 -8,2 -14,3 -21,5 -4,1 -8,2 -12,3 -8,2 -14,4 -22,6 -3,1 -6,2 -9,3 -10,3 -20,6 -30,10 0,0 0,0 0,0 -2,1 -3,1 -4,2 -8,3 -16,5 -23,8 -3,2 -6,3 -9,4 -5,2 -11,5 -17,7 -3,2 -6,3 -10,5 -5,2 -10,4 -15,6 -3,2 -6,4 -10,5 -5,2 -9,5 -13,7 -2,1 -3,2 -5,3 -2,1 -3,2 -4,3 -6,3 -12,6 -17,10 -2,2 -5,3 -7,4 -8,5 -15,10 -23,16 -1,1 -2,1 -2,2 -6,5 -13,10 -19,15 -2,2 -4,4 -6,5 -5,4 -9,9 -14,12 -2,2 -4,4 -6,6 -5,5 -10,10 -14,15 -1,2 -2,3 -4,4 -5,6 -11,13 -16,20 -1,2 -3,4 -4,5 -4,5 -8,10 -11,16 -2,2 -3,5 -5,7 -3,5 -6,10 -10,16 -1,2 -2,4 -4,6 -4,8 -8,15 -12,23 0,1 0,1 -1,1 -3,8 -6,15 -10,23 -1,3 -2,5 -3,8 -2,6 -4,12 -6,18 -1,3 -2,6 -2,9 -2,6 -4,13 -6,20 -1,2 -1,4 -2,6 -2,9 -4,18 -5,27 -1,2 -1,4 -1,6 -1,7 -2,14 -3,21 -1,3 -1,6 -1,10 -1,6 -1,13 -2,20 -1,3 -1,6 -1,9 -1,10 -1,20 -1,30 -1,108 32,200 97,278 4,5 9,10 14,15l58 58c-5,-5 -10,-10 -14,-14 -65,-78 -98,-170 -97,-278z"/>
        </g>
       </g>
      </g>
      <polygon class="fil2" points="57969,21375 55385,19111 55453,19033 58038,21296 "/>
      <polygon class="fil2" points="58066,21375 57998,21296 60582,19033 60651,19111 "/>
      <g>
       <path class="fil23" d="M54088 19278c-419,-420 -419,-1099 0,-1519 420,-419 1099,-419 1519,0 419,420 419,1099 0,1519 -420,419 -1099,419 -1519,0z"/>
       <path class="fil4" d="M54715 19585c-17,-2 -34,-4 -50,-6 -17,-3 -33,-5 -50,-9l-25 -5c-9,-2 -17,-4 -25,-6 -9,-2 -17,-4 -25,-6l-25 -7c-65,-20 -128,-46 -188,-78 -120,-64 -228,-151 -316,-255 -88,-104 -156,-226 -199,-355 -43,-130 -61,-268 -52,-405 9,-137 43,-272 101,-396 58,-123 141,-235 242,-328 100,-93 218,-166 345,-214 127,-48 263,-72 398,-69l-50 2 -50 5 -50 6c-17,3 -33,6 -49,9 -66,14 -131,34 -192,60 -124,51 -238,125 -335,218 -96,93 -176,202 -232,323 -56,121 -90,252 -98,385 -9,133 9,268 49,395 41,127 106,246 190,350 11,12 21,26 33,38l34 36c12,12 24,24 36,35 12,11 25,23 38,33 51,43 107,81 165,115 116,67 247,109 380,130z"/>
       <path class="fil5" d="M54847 17445c146,-3 293,25 429,81 136,57 259,143 361,249 102,106 182,235 233,374 51,139 72,289 63,436 -10,148 -49,294 -116,426 -68,132 -162,249 -278,342 -57,47 -118,88 -184,122 -65,34 -135,61 -205,81 -142,39 -291,49 -436,28l55 4c18,1 36,1 55,2 36,-1 73,-2 109,-5 73,-7 144,-21 214,-42 69,-21 137,-49 200,-84 63,-35 123,-76 179,-123 110,-93 202,-209 266,-337 65,-129 103,-271 112,-415 5,-72 2,-144 -8,-216 -10,-72 -28,-142 -52,-210 -24,-68 -55,-133 -93,-195 -38,-62 -81,-120 -130,-173 -196,-214 -481,-341 -774,-346z"/>
       <path class="fil6" d="M54248 19118c-331,-331 -331,-867 0,-1199 331,-331 867,-331 1199,0 331,331 331,867 0,1199 -331,331 -867,331 -1199,0z"/>
       <path class="fil5" d="M54692 19352c-105,-16 -206,-54 -298,-109 -46,-27 -88,-60 -129,-95 -39,-36 -76,-75 -108,-118 -65,-86 -113,-184 -141,-288 -28,-103 -36,-213 -25,-320 12,-107 44,-211 95,-306 51,-95 120,-180 203,-249 41,-34 85,-65 132,-91 47,-26 96,-48 147,-64 50,-16 103,-28 155,-34 26,-4 53,-5 79,-6 13,0 27,-1 40,0l40 2 -40 1c-13,1 -26,2 -39,2 -26,2 -53,5 -79,10 -52,9 -103,23 -152,41 -49,18 -96,40 -142,67 -45,27 -87,57 -127,92 -78,69 -145,151 -193,244 -48,92 -79,194 -91,296 -24,207 32,422 155,591 62,85 138,158 226,216 44,29 91,53 139,73 25,10 49,19 75,27 25,8 51,14 77,20z"/>
       <path class="fil7" d="M54882 17672c116,2 232,29 339,77 106,50 202,122 279,211 78,88 136,194 172,306 35,113 46,233 33,350 -13,117 -51,232 -110,333 -30,51 -65,99 -105,142 -39,44 -84,83 -131,118l-18 13c-6,4 -12,8 -18,12l-38 24 -39 21c-6,4 -13,6 -20,10l-20 9c-54,24 -109,42 -167,54 -57,12 -115,18 -174,18l-22 0 -21 -1c-15,-1 -29,-1 -44,-3 -14,-2 -29,-3 -43,-6l-43 -8c115,17 232,14 344,-14 56,-14 110,-33 162,-58l19 -9c6,-3 13,-6 19,-10l38 -21 36 -24c6,-4 12,-8 18,-12l17 -13c6,-4 12,-8 17,-13l16 -14c11,-9 23,-18 32,-28 10,-10 21,-20 31,-30 10,-11 20,-21 29,-32 38,-42 71,-89 100,-139 57,-99 93,-210 105,-323 13,-114 3,-229 -31,-339 -33,-109 -88,-211 -162,-299 -74,-87 -165,-160 -268,-212 -51,-26 -106,-47 -161,-62 -7,-2 -14,-4 -21,-5l-21 -5c-14,-3 -28,-5 -43,-8 -7,-2 -14,-3 -21,-3l-21 -3c-14,-2 -29,-3 -43,-4z"/>
       <g>
        <g>
         <g>
          <polygon class="fil5" points="55247,18951 55202,18950 55113,18860 55158,18861 "/>
         </g>
         <g>
          <path class="fil8" d="M55030 18472l45 1c28,0 53,11 74,32 28,28 40,62 37,100l-45 0c3,-38 -9,-71 -37,-100 -21,-21 -46,-32 -74,-32z"/>
         </g>
         <g>
          <path class="fil8" d="M54948 18821l-45 -1c43,1 84,-16 123,-49l45 0c-39,33 -80,50 -123,50z"/>
         </g>
         <g>
          <path class="fil5" d="M55075 18472l-45 -1c28,1 53,11 74,32 28,28 40,62 37,100 -1,10 -3,19 -5,28 -3,9 -6,18 -10,26 -4,8 -8,16 -13,23 -5,8 -12,16 -19,23 -1,1 -2,2 -3,3l45 1c1,-1 2,-2 3,-3 7,-8 13,-16 19,-23 5,-8 10,-15 13,-23 4,-9 8,-17 10,-26 2,-9 4,-19 5,-28 3,-38 -9,-71 -37,-100 -21,-21 -46,-32 -74,-32z"/>
          <path class="fil5" d="M55026 18771c-4,3 -8,6 -11,9 -12,9 -24,17 -37,23 -24,12 -49,17 -75,17l45 1c26,0 51,-6 75,-18 13,-6 25,-14 37,-23 4,-3 8,-6 11,-9l-190 -192 -45 0 190 192z"/>
         </g>
         <g>
          <path class="fil8" d="M55015 18304l45 0c-21,0 -40,3 -56,10 -32,12 -88,41 -169,86l-46 0c81,-45 138,-73 169,-86 17,-6 36,-10 57,-10z"/>
         </g>
         <path class="fil5" d="M54920 18960l-45 0c-54,-1 -109,-15 -164,-44l45 0c55,29 110,44 164,44z"/>
        </g>
        <g>
         <path class="fil5" d="M54920 18960l-45 0c-54,-1 -109,-15 -164,-44l45 0c55,29 110,44 164,44z"/>
        </g>
        <g>
         <g>
          <polygon class="fil5" points="54756,18916 54711,18916 54791,18787 54836,18787 "/>
         </g>
         <path class="fil5" d="M54763 18459l-46 -1c1,0 1,0 1,0l45 0c0,0 0,0 0,1z"/>
         <g>
          <path class="fil5" d="M55015 18304c-21,0 -40,3 -57,10 -11,4 -26,11 -44,20 -31,15 -73,38 -125,66l46 0c51,-28 93,-50 125,-66 18,-9 32,-15 44,-20 17,-6 35,-10 56,-10l-45 0z"/>
          <path class="fil5" d="M54838 18219c-29,-15 -57,-23 -84,-23l-45 0c26,0 54,8 84,23l45 0z"/>
          <path class="fil5" d="M54667 18490c-21,11 -41,16 -60,16l45 0c19,0 39,-5 60,-16 16,-8 33,-18 50,-31l-46 -1c-17,13 -34,24 -50,32z"/>
          <polygon class="fil5" points="54718,18459 54763,18459 54602,18295 54557,18295 "/>
         </g>
         <g>
          <path class="fil5" d="M54734 18063l45 1c-66,-1 -133,26 -200,77l-45 0c67,-52 133,-78 200,-78z"/>
         </g>
         <g>
          <polygon class="fil5" points="54579,18140 54534,18140 54534,18140 54534,18140 54534,18140 54534,18140 54534,18140 54534,18140 54534,18140 54534,18139 54535,18139 54535,18139 54535,18139 54535,18139 54535,18139 54535,18139 54535,18139 54535,18139 54580,18139 54580,18139 54580,18139 54580,18139 54580,18139 54580,18139 54580,18139 54580,18139 54579,18140 54579,18140 54579,18140 54579,18140 54579,18140 54579,18140 54579,18140 54579,18140 "/>
          <path class="fil5" d="M54725 18063l-1 0 -2 0 -1 0 -1 0 -2 0 0 0 -2 1 -1 0 -1 0 -5 1 0 0 -1 0 -2 0 -1 0 -2 1 -2 0 0 0 -2 0 -1 1 -3 0 -1 0 -2 1 -1 0 -1 1 -2 0 -1 0 -2 1 -2 0 -1 0 -2 1 -1 0 -1 1 -2 1 0 0 -2 0 -2 1 -1 0 -2 1 0 0 -2 1 -2 0 -1 1 -2 1 -1 0 -1 0 -2 1 0 0 -2 1 -1 1 -1 0 -2 1 -1 1 -2 1 -1 0 -1 1 -2 1 -1 0 -2 1 -2 1 0 0 -2 1 -1 1 -1 1 -2 1 -1 0 -2 1 -2 1 -1 0 -2 1 -1 0 -2 1 -2 1 -1 1 -2 1 -1 1 -1 0 -2 1 0 0 -2 1 -2 1 -1 1 -2 1 -1 0 -1 1 -2 1 -1 0 -2 1 -1 1 -1 1 -2 1 0 0 -2 1 -1 1 -1 0 -1 1 -2 1 0 1 -1 0 -1 1 -1 0 0 1 -1 1 -1 1 -1 0 -1 1 -1 1 -2 1 0 1 -1 0 -1 1 -1 1 0 0 -1 1 -1 1 -1 1 -1 1 0 0 -1 1 -1 1 -1 1 -1 1 -1 1 -1 1 -1 0 -1 1 -1 1 -1 0 -1 1 -1 1 -1 1 -1 1 -1 1 -1 1 -1 1 -1 0 -1 1 -1 1 -1 1 -1 0 -1 1 -2 1 0 0 -1 1 -1 1 -1 1 0 0 -1 1 -1 1 -1 1 0 0 -1 1 -1 1 -1 1 -1 1 -1 1 -1 1 0 1 -1 1 -1 1 -1 1 0 0 -1 1 -1 1 -1 1 -1 0 -1 1 -1 1 -1 1 -1 1 -1 1 -1 1 -1 1 -1 1 -3 2 0 0 -1 1 -1 1 -1 1 0 1 -1 1 45 0 1 -1 1 -1 1 -1 1 -1 1 -1 1 0 1 -1 1 -1 1 -1 1 -1 1 -1 1 -1 1 -1 1 0 1 -1 2 -1 0 -1 1 -1 1 -1 1 -1 0 0 1 -1 1 -1 1 -1 0 0 1 -1 2 -1 1 -1 1 -1 1 -1 1 -1 0 0 1 -1 1 -1 1 -1 0 0 1 -1 1 -1 1 -1 1 -1 1 -1 1 -1 1 0 1 -1 1 -1 1 -1 1 -1 1 -1 1 -1 2 -1 0 0 1 -1 1 -1 1 -1 0 0 1 -1 1 -1 1 0 1 -1 1 -1 2 -1 0 -1 1 0 1 -1 1 -1 1 -1 1 -1 1 -1 0 0 1 -1 1 -1 1 0 1 -1 1 -1 1 -1 1 0 1 -1 1 -1 1 -1 0 0 1 -1 1 -1 1 -1 1 0 1 -1 1 -1 1 -1 1 -1 2 -1 0 0 2 -1 1 -1 1 0 2 -1 1 0 2 -1 2 -1 0 0 2 -1 1 0 2 -1 2 -1 0 0 2 -1 1 -1 1 -1 2 -1 0 0 2 -1 2 -1 1 0 2 -1 1 -1 1 -1 2 -1 3 -1 1 -1 1 -1 2 -1 0 0 2 -1 1 -1 1 0 2 -1 1 -1 2 0 2 -1 0 0 2 -1 1 -1 2 0 2 -1 0 0 2 -1 1 -1 1 0 2 -1 1 0 2 -1 2 -1 1 0 2 -1 1 0 1 -1 2 0 1 0 0 -1 5 -1 1 0 0 -1 2 0 2 -1 1 0 2 0 1 -1 1 0 2 0 0 0 2 -1 1 0 1 0 2 -1 0 0 2 0 2 -1 3 0 1 0 2 -1 0 0 2 0 1 0 1 0 2 -1 0 0 1 0 5 0 1 0 2 0 2 0 0 0 2 0 1 0 1 0 2 0 -45 -1c-3,0 -6,1 -9,1z"/>
         </g>
         <polygon class="fil5" points="54465,18070 54399,18136 54468,18205 54513,18206 54444,18136 54510,18070 "/>
         <g>
          <path class="fil10" d="M55119 18312c45,11 87,35 124,73 53,54 79,117 78,189 -1,72 -33,146 -96,221l89 90 -65 65 -89 -90c-130,109 -264,128 -403,55l80 -129c86,50 165,45 235,-16l-190 -192c-105,66 -185,96 -241,92 -56,-4 -105,-28 -146,-70 -108,-109 -101,-241 19,-395l-69 -70 65 -65 69 70c113,-87 225,-101 337,-40l-78 119c-66,-33 -123,-30 -172,11l168 170c81,-45 137,-73 169,-86 31,-12 70,-13 115,-2zm67 292l0 0c3,-38 -9,-71 -37,-100 -47,-47 -112,-42 -196,16l183 187c30,-31 47,-65 50,-103zm-423 -145l0 0 -161 -164c-28,28 -44,59 -50,92 -5,32 5,62 32,89 44,46 105,40 179,-17z"/>
         </g>
         <path class="fil5" d="M54495 18600c-4,-4 -8,-8 -11,-12 -1,-1 -2,-3 -3,-4 -3,-3 -5,-6 -8,-9 -1,-2 -2,-3 -3,-4 -2,-3 -5,-6 -7,-10 -1,-1 -2,-2 -2,-3 -3,-4 -6,-9 -9,-13 -1,-1 -1,-2 -2,-3 -2,-4 -4,-7 -5,-10 -1,-2 -2,-3 -3,-4 -1,-3 -3,-6 -4,-9 -1,-2 -1,-3 -2,-4 -2,-4 -4,-8 -5,-12 0,-1 0,-1 0,-1 -2,-4 -3,-9 -4,-13 -1,-2 -1,-3 -1,-4 -1,-3 -2,-6 -3,-10 0,-2 -1,-3 -1,-5 -1,-3 -2,-7 -2,-10 -1,-1 -1,-3 -1,-4 -1,-4 -1,-9 -2,-14 0,-1 0,-2 0,-3 0,-4 0,-8 0,-11 0,-2 0,-3 0,-5 0,-3 0,-7 1,-10 0,-2 0,-3 0,-5 1,-4 1,-9 2,-13 0,-1 0,-1 1,-2 1,-5 2,-10 3,-14 0,-2 1,-3 1,-5 1,-3 2,-7 3,-11 1,-2 1,-3 2,-5 1,-3 2,-5 3,-8 1,-2 1,-4 2,-6 1,-3 2,-5 3,-8 1,-2 2,-4 2,-6 1,-3 3,-6 4,-9 1,-2 1,-3 2,-5 2,-4 4,-8 5,-12 1,-1 1,-1 1,-2 3,-5 5,-10 8,-15 1,-2 2,-3 3,-5 2,-4 4,-7 6,-11 1,-2 2,-4 3,-6 2,-3 4,-7 6,-10 2,-2 3,-4 4,-5 3,-4 5,-8 8,-12 1,-2 2,-3 3,-4 2,-3 5,-6 7,-10 2,-2 3,-3 4,-5 4,-5 8,-10 11,-14l-45 -1c-4,5 -8,10 -11,15 -1,2 -3,3 -4,5 -2,3 -5,7 -7,10 0,0 -1,1 -1,1 -1,1 -2,2 -2,4 -3,4 -5,8 -8,11 -1,2 -2,4 -4,6 -2,3 -4,7 -6,10 -1,2 -2,4 -3,6 -2,3 -4,7 -6,11 -1,2 -2,3 -3,5 -3,5 -5,10 -8,15 0,0 0,0 0,0 -1,1 -1,2 -1,2 -2,4 -4,8 -5,12 -1,2 -2,3 -2,5 -2,3 -3,6 -4,9 -1,2 -2,4 -2,5 -1,3 -2,6 -3,9 -1,2 -1,4 -2,6 -1,3 -2,5 -3,8 0,1 -1,2 -1,3 -1,1 -1,2 -1,3 -1,4 -2,8 -3,11 0,2 -1,3 -1,4 -1,5 -2,10 -3,15 0,1 0,1 0,2 -1,4 -1,9 -2,13 0,2 0,3 0,5 -1,3 -1,6 -1,10 0,2 -1,3 -1,4 0,4 1,8 1,11 0,1 0,2 0,3 1,5 1,9 1,14 1,1 1,2 1,4 1,3 1,7 2,10 0,2 1,3 1,5 1,3 2,6 3,10 0,1 1,3 1,4 1,5 3,9 4,13 0,1 0,1 0,1 2,4 3,8 5,12 1,2 1,3 2,4 2,3 3,6 4,9 1,2 2,3 3,4 2,3 3,6 5,10 1,1 1,2 2,3 3,4 5,9 9,12 1,1 1,2 2,3 2,3 4,6 7,10 1,1 2,3 3,4 2,3 5,6 8,9 1,1 2,2 3,4 4,4 7,8 11,12 41,42 90,65 146,70 4,0 7,1 11,1l45 0c-4,0 -7,0 -11,-1 -56,-4 -105,-28 -146,-70z"/>
        </g>
       </g>
      </g>
      <g>
       <path class="fil24" d="M60428 17759c420,-419 1099,-419 1519,0 419,420 419,1099 0,1519 -420,419 -1099,419 -1519,0 -419,-420 -419,-1099 0,-1519z"/>
       <path class="fil4" d="M60122 18386c2,-17 4,-34 6,-50 3,-17 5,-33 9,-50l5 -25c2,-9 4,-17 6,-25 2,-9 4,-17 6,-25l8 -25c19,-65 45,-128 77,-188 64,-120 151,-228 255,-316 105,-88 226,-156 356,-199 130,-43 268,-61 405,-53 136,9 271,43 395,102 124,58 236,141 328,242 93,100 166,218 214,345 48,127 72,263 69,398l-3 -50 -4 -50 -7 -50c-3,-17 -6,-33 -9,-49 -13,-66 -34,-131 -60,-192 -51,-124 -125,-238 -218,-335 -92,-96 -202,-177 -323,-232 -121,-56 -252,-90 -385,-98 -133,-9 -268,9 -394,49 -127,41 -246,106 -350,190 -12,11 -26,21 -38,32l-36 34c-11,12 -24,24 -35,36 -11,12 -23,25 -33,38 -43,51 -81,106 -115,165 -67,116 -109,247 -130,380z"/>
       <path class="fil5" d="M62262 18519c3,146 -26,293 -82,429 -57,136 -143,259 -249,362 -106,102 -235,182 -374,233 -139,51 -289,72 -436,63 -148,-9 -294,-49 -426,-116 -131,-68 -249,-162 -342,-277 -47,-57 -88,-119 -122,-184 -34,-65 -61,-135 -81,-205 -39,-142 -49,-291 -28,-436l-4 55c-1,18 -1,36 -1,55 0,36 1,73 5,109 7,73 21,144 42,214 21,69 49,137 84,200 35,64 76,124 123,179 93,110 209,203 338,267 129,65 271,103 414,112 72,4 144,2 216,-8 72,-10 142,-28 210,-52 68,-24 133,-55 195,-93 62,-38 120,-81 173,-130 214,-196 341,-481 346,-774z"/>
       <path class="fil6" d="M60589 17920c331,-331 867,-331 1198,0 331,331 331,867 0,1199 -331,331 -867,331 -1198,0 -331,-331 -331,-867 0,-1199z"/>
       <path class="fil5" d="M60355 18363c17,-105 54,-206 109,-298 28,-46 60,-88 95,-129 36,-39 76,-76 118,-108 85,-65 184,-113 287,-141 104,-28 213,-36 320,-25 107,12 212,44 307,95 94,51 180,120 248,203 34,41 65,85 92,132 26,47 47,96 64,146 17,51 28,103 35,156 3,26 5,53 6,79 0,13 1,27 1,40l-2 40 0 -40c-1,-13 -2,-26 -3,-40 -2,-26 -5,-53 -10,-78 -9,-52 -22,-103 -40,-152 -18,-49 -41,-97 -67,-142 -27,-44 -58,-87 -92,-127 -69,-78 -152,-145 -244,-192 -92,-48 -193,-79 -296,-91 -207,-24 -422,32 -591,155 -85,61 -158,138 -215,226 -29,44 -54,91 -74,139 -10,24 -19,49 -27,75 -8,25 -14,51 -20,77z"/>
       <path class="fil7" d="M62035 18553c-2,116 -28,232 -77,338 -50,106 -122,202 -211,279 -88,78 -193,136 -306,172 -113,35 -233,46 -350,33 -117,-13 -232,-51 -333,-110 -51,-30 -99,-65 -142,-105 -44,-39 -83,-84 -117,-131l-13 -18c-4,-6 -9,-12 -12,-18l-24 -38 -21 -39c-3,-6 -6,-13 -10,-20l-9 -20c-24,-54 -42,-109 -54,-167 -12,-57 -18,-116 -18,-174l0 -22 1 -22c1,-14 1,-29 3,-43 2,-14 3,-29 6,-43l8 -43c-17,115 -13,232 14,344 14,56 33,110 58,162l10 19c3,6 6,13 10,19l21 38 24 36c4,6 8,12 12,18l13 17c4,5 8,11 13,17l14 16c9,11 18,22 28,32 10,10 19,21 29,31 11,10 21,20 32,29 43,38 90,71 139,100 99,57 210,93 323,105 113,13 229,3 338,-31 109,-33 211,-88 299,-162 87,-73 160,-165 212,-268 26,-51 47,-106 62,-161 2,-7 4,-14 5,-21l5 -21c3,-14 5,-28 8,-43 2,-7 3,-14 3,-21l3 -21c2,-14 3,-29 4,-43z"/>
       <g>
        <g>
         <g>
          <polygon class="fil5" points="60757,18919 60757,18874 60847,18785 60847,18830 "/>
         </g>
         <g>
          <path class="fil8" d="M61235 18701l0 45c0,28 -11,53 -32,74 -28,28 -61,40 -99,37l0 -45c38,3 71,-9 99,-37 21,-21 32,-46 32,-74z"/>
         </g>
         <g>
          <path class="fil8" d="M60886 18619l0 -45c0,43 16,84 49,123l0 46c-33,-39 -49,-80 -49,-123z"/>
         </g>
         <g>
          <path class="fil5" d="M61235 18746l0 -45c0,28 -11,53 -32,74 -28,28 -61,40 -99,37 -10,-1 -19,-3 -29,-5 -9,-2 -17,-5 -26,-10 -8,-4 -16,-8 -23,-13 -8,-5 -16,-12 -23,-19 -1,-1 -2,-2 -3,-3l0 45c1,1 2,2 3,3 8,7 15,13 23,19 7,5 14,10 23,13 8,4 17,8 26,10 10,3 19,5 29,5 38,3 71,-9 99,-37 21,-21 32,-46 32,-74z"/>
          <path class="fil5" d="M60936 18697c-3,-3 -6,-7 -9,-11 -9,-12 -17,-25 -23,-37 -12,-24 -18,-49 -18,-75l0 45c0,26 5,51 17,75 6,13 14,25 23,37 3,4 6,8 9,11l192 -190 0 -45 -192 189z"/>
         </g>
         <g>
          <path class="fil8" d="M61403 18686l0 45c0,-21 -3,-40 -10,-57 -12,-31 -41,-87 -86,-169l0 -45c45,81 73,138 86,169 6,17 10,36 10,57z"/>
         </g>
         <path class="fil5" d="M60747 18591l1 -45c0,-54 14,-109 44,-164l0 45c-29,55 -44,110 -44,164z"/>
        </g>
        <g>
         <path class="fil5" d="M60747 18591l1 -45c0,-54 14,-109 44,-164l0 45c-29,55 -44,110 -44,164z"/>
        </g>
        <g>
         <g>
          <polygon class="fil5" points="60792,18427 60792,18382 60920,18462 60920,18507 "/>
         </g>
         <path class="fil5" d="M61248 18434l0 -45c0,1 0,1 0,1l0 45c0,0 0,0 0,-1z"/>
         <g>
          <path class="fil5" d="M61403 18686c0,-21 -3,-40 -10,-57 -4,-11 -11,-26 -20,-44 -15,-32 -37,-73 -66,-125l0 45c29,52 51,94 66,125 9,18 16,33 20,44 6,17 10,36 10,57l0 -45z"/>
          <path class="fil5" d="M61488 18510c14,-29 22,-57 23,-84l0 -45c0,26 -8,54 -23,84l0 45z"/>
          <path class="fil5" d="M61217 18339c-11,-21 -16,-42 -16,-60l-1 45c0,19 5,39 16,60 8,16 18,33 32,50l0 -45c-13,-17 -24,-34 -32,-50z"/>
          <polygon class="fil5" points="61248,18389 61248,18434 61412,18273 61412,18228 "/>
         </g>
         <g>
          <path class="fil5" d="M61644 18405l0 45c0,-66 -26,-133 -78,-200l0 -46c52,67 78,134 78,200z"/>
         </g>
         <g>
          <polygon class="fil5" points="61567,18250 61567,18205 61567,18205 61567,18205 61567,18205 61567,18205 61567,18206 61567,18206 61568,18206 61568,18206 61568,18206 61568,18206 61568,18206 61568,18206 61568,18206 61568,18206 61568,18207 61568,18207 61568,18252 61568,18252 61568,18252 61568,18251 61568,18251 61568,18251 61568,18251 61568,18251 61568,18251 61567,18251 61567,18251 61567,18251 61567,18250 61567,18250 61567,18250 61567,18250 "/>
          <polygon class="fil5" points="61644,18405 61644,18404 61644,18402 61644,18401 61644,18399 61644,18399 61644,18398 61644,18396 61644,18396 61644,18390 61644,18390 61644,18390 61644,18388 61644,18386 61643,18386 61643,18384 61643,18383 61643,18382 61643,18381 61643,18377 61643,18376 61642,18374 61642,18374 61642,18372 61642,18371 61642,18370 61642,18368 61642,18368 61641,18366 61641,18364 61641,18364 61641,18362 61641,18360 61640,18359 61640,18358 61639,18356 61639,18355 61639,18353 61639,18352 61639,18352 61638,18351 61638,18349 61638,18348 61637,18346 61637,18345 61637,18343 61637,18342 61636,18340 61636,18340 61636,18339 61635,18337 61635,18337 61635,18334 61634,18333 61634,18333 61634,18331 61634,18330 61633,18329 61633,18327 61633,18327 61632,18325 61631,18324 61631,18323 61630,18321 61630,18321 61630,18319 61629,18318 61629,18317 61628,18315 61628,18315 61628,18313 61627,18311 61627,18311 61626,18309 61626,18308 61626,18307 61625,18306 61625,18305 61624,18303 61624,18302 61623,18301 61622,18299 61622,18299 61622,18297 61621,18296 61621,18295 61620,18293 61620,18293 61619,18292 61619,18289 61618,18289 61618,18287 61617,18287 61616,18286 61615,18284 61615,18284 61615,18281 61614,18280 61614,18280 61613,18278 61613,18277 61613,18277 61612,18276 61612,18275 61611,18274 61611,18274 61611,18273 61609,18272 61609,18271 61609,18271 61608,18269 61608,18268 61608,18268 61607,18267 61607,18266 61606,18265 61606,18265 61606,18264 61605,18263 61604,18262 61604,18262 61604,18260 61603,18259 61603,18258 61603,18258 61601,18257 61601,18256 61601,18255 61600,18255 61600,18254 61599,18252 61599,18252 61598,18251 61598,18250 61597,18249 61597,18249 61596,18248 61596,18247 61595,18246 61595,18245 61594,18244 61593,18243 61593,18243 61593,18242 61592,18241 61591,18240 61591,18240 61591,18238 61590,18237 61589,18236 61589,18236 61589,18235 61587,18234 61587,18233 61587,18233 61586,18232 61583,18227 61583,18227 61582,18226 61582,18225 61581,18224 61581,18224 61580,18223 61579,18221 61578,18220 61577,18219 61577,18218 61576,18218 61576,18217 61575,18216 61574,18215 61574,18214 61574,18214 61572,18212 61571,18211 61571,18211 61571,18210 61570,18209 61569,18208 61569,18208 61568,18207 61568,18252 61569,18253 61569,18253 61570,18254 61571,18255 61571,18256 61571,18256 61572,18258 61573,18259 61574,18259 61574,18260 61575,18261 61576,18262 61576,18263 61577,18263 61577,18264 61578,18265 61579,18267 61580,18268 61581,18269 61581,18269 61582,18270 61582,18271 61583,18272 61583,18272 61584,18273 61584,18274 61585,18275 61585,18276 61586,18277 61587,18278 61587,18278 61587,18279 61589,18280 61589,18281 61589,18281 61590,18282 61591,18284 61591,18285 61591,18285 61592,18286 61593,18287 61593,18288 61593,18288 61594,18289 61595,18290 61595,18291 61596,18292 61596,18293 61597,18294 61597,18294 61598,18295 61598,18296 61599,18297 61599,18297 61600,18299 61600,18300 61601,18300 61601,18301 61601,18302 61602,18303 61603,18303 61603,18304 61604,18306 61604,18307 61604,18307 61605,18308 61605,18309 61606,18310 61606,18310 61607,18311 61607,18312 61608,18313 61608,18313 61608,18315 61609,18316 61609,18316 61609,18317 61610,18318 61611,18319 61611,18319 61612,18320 61612,18321 61613,18322 61613,18322 61613,18323 61614,18325 61614,18325 61614,18326 61615,18329 61615,18329 61616,18331 61617,18332 61618,18332 61618,18334 61619,18335 61619,18337 61620,18338 61620,18338 61621,18340 61621,18341 61622,18342 61622,18344 61622,18344 61623,18346 61623,18347 61624,18348 61625,18350 61625,18351 61626,18352 61626,18354 61627,18356 61627,18356 61628,18358 61628,18360 61628,18360 61629,18362 61629,18363 61630,18364 61630,18366 61630,18366 61631,18368 61631,18369 61631,18370 61632,18372 61633,18373 61633,18374 61633,18375 61634,18376 61634,18378 61634,18378 61635,18379 61635,18382 61635,18382 61636,18384 61636,18385 61636,18385 61636,18388 61637,18388 61637,18390 61637,18391 61637,18391 61638,18393 61638,18394 61638,18396 61639,18397 61639,18397 61639,18399 61639,18400 61639,18401 61640,18403 61640,18404 61640,18405 61641,18407 61641,18407 61641,18409 61641,18410 61641,18411 61642,18413 61642,18413 61642,18415 61642,18416 61642,18417 61642,18419 61642,18419 61643,18421 61643,18422 61643,18423 61643,18425 61643,18426 61643,18427 61643,18429 61643,18429 61643,18431 61644,18433 61644,18435 61644,18435 61644,18437 61644,18438 61644,18438 61644,18441 61644,18441 61644,18443 61644,18444 61644,18444 61644,18446 61644,18447 61644,18449 61644,18450 "/>
         </g>
         <polygon class="fil5" points="61637,18136 61572,18071 61502,18140 61502,18185 61571,18116 61637,18181 "/>
         <g>
          <path class="fil10" d="M61395 18790c-11,45 -35,86 -73,124 -54,53 -117,79 -189,78 -72,-1 -146,-33 -221,-96l-90 88 -65 -65 90 -89c-110,-130 -128,-264 -55,-403l128 80c-50,86 -44,165 16,235l192 -190c-66,-105 -96,-185 -92,-241 5,-56 28,-105 70,-146 109,-108 241,-102 395,19l70 -69 65 65 -70 69c87,113 101,225 41,337l-119 -78c33,-66 29,-123 -11,-172l-170 167c45,81 73,138 86,169 12,32 13,70 2,116zm-291 67l0 0c38,3 71,-9 99,-37 47,-47 42,-112 -16,-196l-187 183c31,30 65,47 103,50zm144 -423l0 0 164 -161c-28,-28 -58,-44 -91,-50 -33,-5 -63,5 -90,32 -46,44 -40,104 17,179z"/>
         </g>
         <path class="fil5" d="M61107 18166c4,-4 8,-8 12,-11 2,-1 3,-2 4,-3 3,-3 6,-5 9,-8 1,-1 3,-2 4,-3 3,-3 6,-5 10,-7 1,-1 2,-2 3,-2 4,-3 8,-6 12,-9 1,-1 2,-1 3,-2 3,-2 6,-4 10,-6 2,-1 3,-1 4,-2 3,-2 6,-3 9,-4 2,-1 3,-1 4,-2 4,-2 9,-4 12,-5 1,0 1,0 1,0 4,-2 9,-3 13,-4 1,-1 3,-1 4,-1 3,-1 6,-2 10,-3 1,0 3,-1 4,-1 3,-1 7,-2 10,-2 2,0 3,0 4,-1 5,-1 9,-1 14,-1 1,0 2,0 3,0 4,0 8,-1 11,-1 2,0 3,1 4,1 4,0 7,0 10,1 2,0 3,0 5,0 4,1 9,1 13,2 1,0 1,0 2,0 5,1 10,2 15,3 1,1 3,1 4,1 4,1 7,2 11,3 2,1 4,1 5,2 3,1 5,2 8,3 2,1 4,1 6,2 3,1 5,2 9,3 2,1 4,1 5,2 3,1 6,2 9,4 2,1 3,1 5,2 4,2 8,4 12,5 1,1 2,1 2,1 5,3 10,5 15,8 2,1 3,2 5,3 4,2 8,4 11,6 2,1 4,2 6,3 3,2 7,4 10,6 2,2 4,3 6,4 4,3 8,5 12,8 1,1 3,2 4,3 3,2 7,5 10,7 2,1 3,3 5,4 5,4 10,8 15,11l0 -45c-5,-4 -10,-8 -15,-11 -2,-2 -3,-3 -5,-4 -3,-2 -6,-5 -10,-7 -1,0 -1,-1 -1,-1 -1,-1 -2,-2 -3,-2 -4,-3 -8,-5 -12,-8 -2,-1 -4,-3 -6,-4 -3,-2 -7,-4 -10,-6 -2,-1 -4,-2 -5,-3 -4,-2 -8,-4 -11,-6 -2,-1 -3,-2 -4,-2 -5,-3 -11,-5 -16,-8 0,0 0,0 0,0 -1,-1 -2,-1 -2,-1 -4,-2 -8,-4 -12,-5 -2,-1 -3,-2 -5,-2 -3,-2 -6,-3 -9,-4 -2,-1 -4,-2 -5,-2 -3,-1 -6,-2 -9,-3 -2,-1 -4,-1 -6,-2 -3,-1 -5,-2 -8,-3 -1,0 -2,-1 -3,-1 -1,0 -2,0 -3,-1 -4,-1 -7,-2 -11,-3 -2,0 -3,-1 -4,-1 -5,-1 -10,-2 -15,-3 -1,0 -1,0 -1,0 -5,-1 -9,-1 -13,-2 -2,0 -3,0 -4,-1 -4,0 -7,0 -10,0 -2,-1 -3,-1 -5,-1 -4,0 -8,0 -11,1 -1,0 -2,0 -3,0 -5,0 -9,1 -14,1 -1,1 -2,1 -3,1 -4,1 -7,1 -11,2 -2,0 -3,1 -4,1 -3,1 -6,2 -10,3 -1,0 -3,1 -4,1 -4,1 -9,3 -13,4 -1,0 -1,0 -1,0 -4,2 -8,3 -12,5 -1,1 -3,2 -4,2 -3,2 -6,3 -10,4 -1,1 -3,2 -4,2 -3,2 -6,4 -10,6 -1,1 -2,1 -3,2 -4,3 -8,5 -12,9 -1,1 -2,1 -3,2 -3,2 -6,4 -10,7 -1,1 -3,2 -4,3 -3,2 -6,5 -9,8 -1,1 -2,2 -3,3 -4,3 -8,7 -12,11 -42,41 -65,90 -70,146 0,3 -1,7 -1,11l0 45c0,-4 1,-7 1,-11 5,-56 28,-105 70,-146z"/>
        </g>
       </g>
      </g>
      <g>
       <path class="fil13" d="M63251 29183l-5151 2865c-106,-152 -509,-3549 5151,-2865z"/>
       <path class="fil2" d="M58100 32048l5151 -2865c-2404,5170 -5078,3036 -5151,2865z"/>
      </g>
      <g>
       <path class="fil13" d="M52675 27799l5151 2865c106,-153 510,-3549 -5151,-2865z"/>
       <path class="fil2" d="M57826 30664l-5151 -2865c2404,5170 5077,3036 5151,2865z"/>
      </g>
      <g>
       <path class="fil13" d="M62599 21574l-4515 2512c-93,-134 -447,-3112 4515,-2512z"/>
       <path class="fil2" d="M58083 24086l4515 -2512c-2108,4532 -4451,2662 -4515,2512z"/>
      </g>
      <g>
       <path class="fil13" d="M53327 23351l4516 2512c93,-133 447,-3111 -4516,-2512z"/>
       <path class="fil2" d="M57843 25863l-4516 -2512c2108,4533 4451,2662 4516,2512z"/>
      </g>
     </g>
     <path class="fil14" d="M55759 35561c70,44 1291,-462 2063,-1088 144,-117 344,-133 505,-40l482 329c273,158 531,206 531,206 361,76 1729,596 1729,596l-5310 -3z"/>
     <path class="fil15" d="M58070 34374c13,35 324,875 -372,1187l-1899 0c228,-40 1314,-514 2023,-1088 72,-59 159,-92 248,-99zm-2271 1187l-40 0z"/>
    </g>
    <g>
     <g>
      <g>
       <path class="fil25" d="M52843 16067c0,2790 -2261,5051 -5051,5051 -310,0 -615,-28 -910,-82 -410,-75 -803,-199 -1172,-366 -127,-58 -251,-120 -373,-188 -228,-127 -444,-270 -648,-430 -99,-77 -196,-158 -289,-242 -504,-458 -916,-1016 -1203,-1643 -292,-639 -456,-1350 -456,-2100 0,-2790 2262,-5051 5051,-5051 750,0 1461,164 2100,456 627,288 1185,699 1643,1203 84,93 165,190 242,289 160,204 304,420 430,648 68,121 131,246 189,373 167,369 291,762 366,1172 54,295 81,599 81,909z"/>
       <path class="fil26" d="M43926 16067c0,-2136 1731,-3867 3867,-3867 2136,0 3867,1731 3867,3867 0,2136 -1731,3867 -3867,3867 -2136,0 -3867,-1731 -3867,-3867z"/>
       <g>
        <path class="fil5" d="M50658 13470c-686,-622 -1598,-1001 -2597,-1001 -2136,0 -3867,1732 -3867,3867 0,1000 380,1911 1002,2597 -780,-708 -1270,-1729 -1270,-2865 0,-2136 1731,-3867 3867,-3867 1136,0 2158,489 2865,1269z"/>
       </g>
       <g>
        <path class="fil10" d="M47679 13800l0 4534 295 0 0 -4534 -295 0zm975 2288l0 0c-91,-72 -200,-138 -332,-200 -102,-49 -219,-94 -348,-139 -13,-5 -26,-9 -40,-13 -95,-32 -180,-63 -255,-93 -390,-158 -502,-299 -502,-560 0,-282 162,-487 502,-517 31,-3 64,-4 97,-4 74,1 139,7 198,20 332,70 442,317 467,583l470 0c-16,-481 -288,-897 -938,-965 -63,-8 -128,-11 -197,-11 -34,0 -66,1 -98,3 -583,36 -987,396 -987,951 0,542 324,784 987,1007 9,3 18,6 27,9 95,31 180,62 254,93l-281 281 0 939c-38,-4 -73,-12 -108,-20 -72,-19 -136,-48 -192,-86 -102,-69 -180,-167 -231,-301 -28,-72 -49,-155 -61,-248l-500 0c16,242 86,444 203,606 73,102 166,188 277,254 139,86 309,142 504,166 35,4 71,8 108,10 41,2 83,3 126,3 57,0 113,-3 167,-6l3 0c13,-1 26,-2 39,-4 637,-64 985,-432 985,-1004l0 -19c-4,-316 -110,-546 -344,-733zm-680 168l0 0c143,60 249,120 326,185 147,125 191,270 191,471 0,308 -159,501 -479,553 -13,3 -26,4 -39,5l0 -1214z"/>
       </g>
      </g>
     </g>
     <g>
      <g>
       <g>
        <polygon class="fil25" points="52606,40820 43344,40820 43344,38968 52606,38968 "/>
        <polygon class="fil26" points="51509,40820 50764,40820 50764,38968 51509,38968 "/>
        <polygon class="fil5" points="52606,40820 51701,40820 51701,38968 52606,38968 "/>
        <polygon class="fil26" points="50438,40820 49749,40820 49749,38968 50438,38968 "/>
        <polygon class="fil26" points="45073,40820 44415,40820 44415,38968 45073,38968 "/>
        <polygon class="fil27" points="44003,40820 43344,40820 43344,38968 44003,38968 "/>
       </g>
       <polygon class="fil26" points="52606,38968 43344,38968 43344,38830 52606,38830 "/>
      </g>
      <g>
       <g>
        <polygon class="fil25" points="52241,38830 42979,38830 42979,36978 52241,36978 "/>
        <polygon class="fil26" points="51143,38830 50399,38830 50399,36978 51143,36978 "/>
        <polygon class="fil5" points="52241,38830 51336,38830 51336,36978 52241,36978 "/>
        <polygon class="fil26" points="50073,38830 49384,38830 49384,36978 50073,36978 "/>
        <polygon class="fil26" points="44708,38830 44049,38830 44049,36978 44708,36978 "/>
        <polygon class="fil27" points="43637,38830 42979,38830 42979,36978 43637,36978 "/>
       </g>
       <polygon class="fil26" points="52241,36978 42979,36978 42979,36840 52241,36840 "/>
      </g>
      <g>
       <g>
        <polygon class="fil25" points="52606,36840 43344,36840 43344,34988 52606,34988 "/>
        <polygon class="fil26" points="51509,36840 50764,36840 50764,34988 51509,34988 "/>
        <polygon class="fil5" points="52606,36840 51701,36840 51701,34988 52606,34988 "/>
        <polygon class="fil26" points="50438,36840 49749,36840 49749,34988 50438,34988 "/>
        <polygon class="fil26" points="45073,36840 44415,36840 44415,34988 45073,34988 "/>
        <polygon class="fil27" points="44003,36840 43344,36840 43344,34988 44003,34988 "/>
       </g>
       <polygon class="fil26" points="52606,34988 43344,34988 43344,34851 52606,34851 "/>
      </g>
      <g>
       <g>
        <polygon class="fil25" points="52241,34851 42979,34851 42979,32998 52241,32998 "/>
        <polygon class="fil26" points="51143,34851 50399,34851 50399,32998 51143,32998 "/>
        <polygon class="fil5" points="52241,34851 51336,34851 51336,32998 52241,32998 "/>
        <polygon class="fil26" points="50073,34851 49384,34851 49384,32998 50073,32998 "/>
        <polygon class="fil26" points="44708,34851 44049,34851 44049,32998 44708,32998 "/>
        <polygon class="fil27" points="43637,34851 42979,34851 42979,32998 43637,32998 "/>
       </g>
       <polygon class="fil26" points="52241,32998 42979,32998 42979,32861 52241,32861 "/>
      </g>
      <g>
       <g>
        <polygon class="fil25" points="52606,32861 43344,32861 43344,31009 52606,31009 "/>
        <polygon class="fil26" points="51509,32861 50764,32861 50764,31009 51509,31009 "/>
        <polygon class="fil5" points="52606,32861 51701,32861 51701,31009 52606,31009 "/>
        <polygon class="fil26" points="50438,32861 49749,32861 49749,31009 50438,31009 "/>
        <polygon class="fil26" points="45073,32861 44415,32861 44415,31009 45073,31009 "/>
        <polygon class="fil27" points="44003,32861 43344,32861 43344,31009 44003,31009 "/>
       </g>
       <polygon class="fil26" points="52606,31009 43344,31009 43344,30872 52606,30872 "/>
      </g>
      <g>
       <g>
        <polygon class="fil25" points="52241,30872 42979,30872 42979,29019 52241,29019 "/>
        <polygon class="fil26" points="51143,30872 50399,30872 50399,29019 51143,29019 "/>
        <polygon class="fil5" points="52241,30872 51336,30872 51336,29019 52241,29019 "/>
        <polygon class="fil26" points="50073,30872 49384,30872 49384,29019 50073,29019 "/>
        <polygon class="fil26" points="44708,30872 44049,30872 44049,29019 44708,29019 "/>
        <polygon class="fil27" points="43637,30872 42979,30872 42979,29019 43637,29019 "/>
       </g>
       <polygon class="fil26" points="52241,29019 42979,29019 42979,28882 52241,28882 "/>
      </g>
      <g>
       <g>
        <polygon class="fil25" points="52606,28882 43344,28882 43344,27030 52606,27030 "/>
        <polygon class="fil26" points="51509,28882 50764,28882 50764,27030 51509,27030 "/>
        <polygon class="fil5" points="52606,28882 51701,28882 51701,27030 52606,27030 "/>
        <polygon class="fil26" points="50438,28882 49749,28882 49749,27030 50438,27030 "/>
        <polygon class="fil26" points="45073,28882 44415,28882 44415,27030 45073,27030 "/>
        <polygon class="fil27" points="44003,28882 43344,28882 43344,27030 44003,27030 "/>
       </g>
       <polygon class="fil26" points="52606,27030 43344,27030 43344,26892 52606,26892 "/>
      </g>
      <g>
       <g>
        <polygon class="fil25" points="52241,26892 42979,26892 42979,25040 52241,25040 "/>
        <polygon class="fil26" points="51143,26892 50399,26892 50399,25040 51143,25040 "/>
        <polygon class="fil5" points="52241,26892 51336,26892 51336,25040 52241,25040 "/>
        <polygon class="fil26" points="50073,26892 49384,26892 49384,25040 50073,25040 "/>
        <polygon class="fil26" points="44708,26892 44049,26892 44049,25040 44708,25040 "/>
        <polygon class="fil27" points="43637,26892 42979,26892 42979,25040 43637,25040 "/>
       </g>
       <polygon class="fil26" points="52241,25040 42979,25040 42979,24903 52241,24903 "/>
      </g>
      <g>
       <g>
        <polygon class="fil25" points="52606,24903 43344,24903 43344,23050 52606,23050 "/>
        <polygon class="fil26" points="51509,24903 50764,24903 50764,23050 51509,23050 "/>
        <polygon class="fil5" points="52606,24903 51701,24903 51701,23050 52606,23050 "/>
        <polygon class="fil26" points="50438,24903 49749,24903 49749,23050 50438,23050 "/>
        <polygon class="fil26" points="45073,24903 44415,24903 44415,23050 45073,23050 "/>
        <polygon class="fil27" points="44003,24903 43344,24903 43344,23050 44003,23050 "/>
       </g>
       <polygon class="fil26" points="52606,23050 43344,23050 43344,22913 52606,22913 "/>
      </g>
      <g>
       <g>
        <polygon class="fil25" points="52241,22913 42979,22913 42979,21061 52241,21061 "/>
        <polygon class="fil26" points="51143,22913 50399,22913 50399,21061 51143,21061 "/>
        <polygon class="fil5" points="52241,22913 51336,22913 51336,21061 52241,21061 "/>
        <polygon class="fil26" points="50073,22913 49384,22913 49384,21061 50073,21061 "/>
        <polygon class="fil26" points="44708,22913 44049,22913 44049,21061 44708,21061 "/>
        <polygon class="fil27" points="43637,22913 42979,22913 42979,21061 43637,21061 "/>
       </g>
       <polygon class="fil26" points="52241,21061 42979,21061 42979,20924 52241,20924 "/>
      </g>
     </g>
     <g>
      <g>
       <g>
        <polygon class="fil25" points="62231,40888 52969,40888 52969,39036 62231,39036 "/>
        <polygon class="fil26" points="61133,40888 60389,40888 60389,39036 61133,39036 "/>
        <polygon class="fil5" points="62231,40888 61325,40888 61325,39036 62231,39036 "/>
        <polygon class="fil26" points="60063,40888 59373,40888 59373,39036 60063,39036 "/>
        <polygon class="fil26" points="54698,40888 54039,40888 54039,39036 54698,39036 "/>
        <polygon class="fil27" points="53627,40888 52969,40888 52969,39036 53627,39036 "/>
       </g>
       <polygon class="fil26" points="62231,39036 52969,39036 52969,38899 62231,38899 "/>
      </g>
      <g>
       <g>
        <polygon class="fil25" points="62596,38899 53334,38899 53334,37046 62596,37046 "/>
        <polygon class="fil26" points="61499,38899 60754,38899 60754,37046 61499,37046 "/>
        <polygon class="fil5" points="62596,38899 61690,38899 61690,37046 62596,37046 "/>
        <polygon class="fil26" points="60428,38899 59739,38899 59739,37046 60428,37046 "/>
        <polygon class="fil26" points="55063,38899 54405,38899 54405,37046 55063,37046 "/>
        <polygon class="fil27" points="53993,38899 53334,38899 53334,37046 53993,37046 "/>
       </g>
       <polygon class="fil26" points="62596,37046 53334,37046 53334,36909 62596,36909 "/>
      </g>
      <g>
       <g>
        <polygon class="fil25" points="62231,36909 52969,36909 52969,35057 62231,35057 "/>
        <polygon class="fil26" points="61133,36909 60389,36909 60389,35057 61133,35057 "/>
        <polygon class="fil5" points="62231,36909 61325,36909 61325,35057 62231,35057 "/>
        <polygon class="fil26" points="60063,36909 59373,36909 59373,35057 60063,35057 "/>
        <polygon class="fil26" points="54698,36909 54039,36909 54039,35057 54698,35057 "/>
        <polygon class="fil27" points="53627,36909 52969,36909 52969,35057 53627,35057 "/>
       </g>
       <polygon class="fil26" points="62231,35057 52969,35057 52969,34920 62231,34920 "/>
      </g>
      <g>
       <g>
        <polygon class="fil25" points="62596,34920 53334,34920 53334,33067 62596,33067 "/>
        <polygon class="fil26" points="61499,34920 60754,34920 60754,33067 61499,33067 "/>
        <polygon class="fil5" points="62596,34920 61690,34920 61690,33067 62596,33067 "/>
        <polygon class="fil26" points="60428,34920 59739,34920 59739,33067 60428,33067 "/>
        <polygon class="fil26" points="55063,34920 54405,34920 54405,33067 55063,33067 "/>
        <polygon class="fil27" points="53993,34920 53334,34920 53334,33067 53993,33067 "/>
       </g>
       <polygon class="fil26" points="62596,33067 53334,33067 53334,32930 62596,32930 "/>
      </g>
      <g>
       <g>
        <polygon class="fil25" points="62231,32930 52969,32930 52969,31078 62231,31078 "/>
        <polygon class="fil26" points="61133,32930 60389,32930 60389,31078 61133,31078 "/>
        <polygon class="fil5" points="62231,32930 61325,32930 61325,31078 62231,31078 "/>
        <polygon class="fil26" points="60063,32930 59373,32930 59373,31078 60063,31078 "/>
        <polygon class="fil26" points="54698,32930 54039,32930 54039,31078 54698,31078 "/>
        <polygon class="fil27" points="53627,32930 52969,32930 52969,31078 53627,31078 "/>
       </g>
       <polygon class="fil26" points="62231,31078 52969,31078 52969,30940 62231,30940 "/>
      </g>
      <g>
       <g>
        <polygon class="fil25" points="62596,30940 53334,30940 53334,29088 62596,29088 "/>
        <polygon class="fil26" points="61499,30940 60754,30940 60754,29088 61499,29088 "/>
        <polygon class="fil5" points="62596,30940 61690,30940 61690,29088 62596,29088 "/>
        <polygon class="fil26" points="60428,30940 59739,30940 59739,29088 60428,29088 "/>
        <polygon class="fil26" points="55063,30940 54405,30940 54405,29088 55063,29088 "/>
        <polygon class="fil27" points="53993,30940 53334,30940 53334,29088 53993,29088 "/>
       </g>
       <polygon class="fil26" points="62596,29088 53334,29088 53334,28951 62596,28951 "/>
      </g>
      <g>
       <g>
        <polygon class="fil25" points="62231,28951 52969,28951 52969,27098 62231,27098 "/>
        <polygon class="fil26" points="61133,28951 60389,28951 60389,27098 61133,27098 "/>
        <polygon class="fil5" points="62231,28951 61325,28951 61325,27098 62231,27098 "/>
        <polygon class="fil26" points="60063,28951 59373,28951 59373,27098 60063,27098 "/>
        <polygon class="fil26" points="54698,28951 54039,28951 54039,27098 54698,27098 "/>
        <polygon class="fil27" points="53627,28951 52969,28951 52969,27098 53627,27098 "/>
       </g>
       <polygon class="fil26" points="62231,27098 52969,27098 52969,26961 62231,26961 "/>
      </g>
     </g>
    </g>
   </g>
  </g>
  <path class="fil28" d="M119575 42638c0,1585 -26768,2871 -59787,2871 -33020,0 -59788,-1286 -59788,-2871 0,-1586 26768,-2871 59788,-2871 33020,0 59787,1286 59787,2871z"/>
 </g>
</svg>
