<?xml version="1.0" encoding="UTF-8"?>
<!DOCTYPE svg PUBLIC "-//W3C//DTD SVG 1.0//EN" "http://www.w3.org/TR/2001/REC-SVG-20010904/DTD/svg10.dtd">
<!-- Creator: CorelDRAW 2019 (64-Bit) -->
<svg xmlns="http://www.w3.org/2000/svg" xml:space="preserve" width="0.40139in" height="0.388181in" version="1.0" style="shape-rendering:geometricPrecision; text-rendering:geometricPrecision; image-rendering:optimizeQuality; fill-rule:evenodd; clip-rule:evenodd"
viewBox="0 0 21062 20369"
 xmlns:xlink="http://www.w3.org/1999/xlink">
 <defs>
  <style type="text/css">
   <![CDATA[
    .fil4 {fill:#083F6B;fill-rule:nonzero}
    .fil1 {fill:#9ECDFF;fill-rule:nonzero}
    .fil3 {fill:#D4EBFF;fill-rule:nonzero}
    .fil2 {fill:#E8D456;fill-rule:nonzero}
    .fil0 {fill:white;fill-rule:nonzero}
   ]]>
  </style>
    <clipPath id="id0">
     <path d="M8093 6482l3838 -2 1856 2393 -4827 2 -867 -2394z"/>
    </clipPath>
 </defs>
 <g id="Layer_x0020_1">
  <metadata id="CorelCorpID_0Corel-Layer"/>
  <g id="_1936987376656">
   <path class="fil0" d="M5211 9077l-3269 -3851c-25,-29 -62,-47 -101,-47l-268 0c-88,0 -151,84 -127,169l1238 4311 2527 -582z"/>
   <path class="fil1" d="M4612 9206l-2240 -2981c-63,-84 -162,-133 -266,-133l-28 0c-70,0 -120,67 -99,134l1094 3601 1539 -621z"/>
   <path class="fil0" d="M5212 11303l-3266 3854c-25,30 -62,47 -101,47l-268 0c-88,0 -151,-84 -127,-169l1235 -4312 2527 580z"/>
   <path class="fil1" d="M4612 11174l-2238 2982c-63,84 -162,133 -266,133l-28 0c-70,0 -119,-67 -99,-134l1092 -3601 1539 620z"/>
   <path class="fil0" d="M9329 3606l0 -486c0,-181 147,-329 328,-329l1502 -1c179,0 180,1143 0,1143l-1502 0c-181,0 -329,-147 -329,-328z"/>
   <path class="fil0" d="M8957 3801l0 -875 1401 0c137,0 137,875 0,875l-1401 0z"/>
   <path class="fil1" d="M9278 3363c0,131 115,231 245,214l1123 -154c70,-10 70,-111 0,-120l-1123 -153c-130,-18 -245,83 -245,214z"/>
   <path class="fil0" d="M12181 7294l0 -485c0,-182 147,-329 328,-329l1502 0c179,0 180,1143 1,1143l-1502 1c-182,0 -329,-147 -329,-329z"/>
   <path class="fil0" d="M11810 7488l0 -874 1401 -1c137,0 138,875 0,875l-1401 0z"/>
   <path class="fil1" d="M12131 7051c0,131 115,231 245,214l1123 -155c70,-9 70,-110 0,-120l-1123 -153c-130,-18 -245,83 -245,214z"/>
   <polygon class="fil1" points="13786,8873 6909,0 5744,0 8960,8875 "/>
   <path class="fil2" d="M13220 8874l-6042 -8235c-62,-85 -179,-108 -269,-52 -89,55 -121,169 -75,262l4016 8026 2370 -1z"/>
   <g style="clip-path:url(#id0)">
    <image x="8093" y="6480" width="5694" height="2396" xlink:href="Eduabacus Page_V1_Images\Eduabacus Page_V1_ImgID1.png"/>
   </g>
   <path class="fil0" d="M5007 136c0,-75 61,-135 135,-135l1808 -1c75,0 136,60 136,135 0,75 -61,136 -135,136l-1808 1c-75,0 -135,-60 -136,-135z"/>
   <path class="fil0" d="M9334 16760l0 486c0,181 147,328 329,328l1502 0c179,0 178,-1143 0,-1143l-1502 1c-181,0 -328,147 -328,329z"/>
   <path class="fil0" d="M8962 16565l0 875 1401 0c137,0 137,-875 0,-875l-1401 0z"/>
   <path class="fil1" d="M9283 17003c0,-131 115,-232 245,-214l1123 153c70,10 70,110 0,120l-1123 154c-130,18 -245,-83 -245,-214z"/>
   <path class="fil0" d="M12184 13070l0 486c0,181 147,328 329,328l1502 0c179,0 179,-1143 0,-1143l-1502 0c-182,0 -329,147 -328,329z"/>
   <path class="fil0" d="M11812 12876l0 875 1401 -1c137,0 137,-875 0,-875l-1401 1z"/>
   <path class="fil1" d="M12133 13313c0,-131 115,-232 245,-214l1123 153c70,10 70,111 0,120l-1123 154c-130,18 -245,-83 -245,-214z"/>
   <polygon class="fil1" points="13787,11489 6917,20368 5752,20368 8961,11491 "/>
   <path class="fil2" d="M13221 11489l-6036 8240c-62,85 -179,108 -269,52 -89,-55 -121,-168 -75,-262l4010 -8030 2370 -1z"/>
   <path class="fil0" d="M5015 20233c0,75 61,136 135,136l1808 -1c75,0 135,-61 135,-135 0,-75 -61,-136 -135,-136l-1808 1c-75,0 -135,61 -135,135z"/>
   <path class="fil0" d="M20808 9856l-1090 -326c-1461,-436 -2987,-658 -4523,-657l-7829 3c-934,0 -1864,104 -2771,310l-3262 741c-293,66 -293,451 0,518l3263 738c907,206 1838,309 2772,308l7829 -3c1535,-1 3061,-224 4522,-661l1090 -326c339,-101 338,-544 0,-645z"/>
   <path class="fil3" d="M20574 9786l-18651 7 2673 -607c907,-206 1837,-310 2771,-310l7829 -3c1535,0 3061,221 4523,657l856 256z"/>
   <path class="fil4" d="M19050 10598c84,-102 139,-226 151,-361l-385 0c-7,81 -29,157 -63,227l296 133z"/>
   <path class="fil4" d="M19039 9748l-296 133c40,76 66,159 73,247l385 0c-12,-143 -70,-275 -162,-380z"/>
   <path class="fil4" d="M18480 9606c79,48 149,109 203,180l271 -122c-127,-104 -292,-169 -474,-173l0 115z"/>
   <path class="fil4" d="M18480 10759l0 107c188,-5 359,-74 487,-185l-270 -121c-56,79 -131,147 -217,199z"/>
   <path class="fil4" d="M16112 9289l0 130c0,35 31,64 69,64l30 0c38,0 69,-29 69,-64l0 -130c0,-35 -31,-64 -69,-64l-29 0c-38,0 -69,29 -69,64z"/>
   <path class="fil4" d="M15515 9289l0 130c0,35 31,64 69,64l30 0c38,0 69,-29 69,-64l0 -130c0,-35 -31,-64 -69,-64l-29 0c-38,0 -69,29 -69,64z"/>
   <path class="fil4" d="M14918 9289l0 130c0,36 31,64 69,64l30 0c38,0 69,-28 69,-64l0 -130c0,-35 -31,-64 -69,-64l-30 0c-38,0 -69,29 -69,64z"/>
   <path class="fil4" d="M14321 9289l0 130c0,35 31,64 69,64l30 0c38,0 69,-29 69,-64l0 -130c0,-35 -31,-64 -69,-64l-30 0c-38,0 -69,29 -69,64z"/>
   <path class="fil4" d="M13724 9290l0 130c0,35 31,64 69,64l29 0c38,0 69,-29 69,-64l0 -130c0,-35 -31,-64 -69,-64l-30 0c-38,0 -69,28 -69,64z"/>
   <path class="fil4" d="M13127 9290l0 130c0,35 31,64 69,64l30 0c38,0 69,-29 69,-64l0 -130c0,-35 -31,-64 -69,-64l-30 0c-38,0 -69,29 -69,64z"/>
   <path class="fil4" d="M12531 9290l0 130c0,35 31,64 69,64l30 0c38,0 69,-29 69,-64l0 -130c0,-35 -31,-64 -69,-64l-29 0c-38,0 -69,29 -69,64z"/>
   <path class="fil4" d="M11934 9290l0 130c0,35 31,64 69,64l30 0c38,0 69,-28 69,-64l0 -130c0,-35 -31,-64 -69,-64l-29 0c-38,0 -69,29 -69,64z"/>
   <path class="fil4" d="M11337 9291l0 130c0,35 31,64 69,64l29 0c38,0 69,-29 69,-64l0 -131c0,-35 -31,-64 -69,-64l-30 0c-38,0 -69,29 -69,64z"/>
   <path class="fil4" d="M10740 9291l0 130c0,35 31,64 69,64l29 0c38,0 69,-29 69,-64l0 -130c0,-36 -31,-64 -69,-64l-30 0c-38,0 -69,29 -69,64z"/>
   <path class="fil4" d="M10143 9291l0 130c0,35 31,64 69,64l29 0c38,0 69,-29 69,-64l0 -130c0,-36 -31,-64 -69,-64l-30 0c-38,0 -69,29 -69,64z"/>
   <path class="fil4" d="M9546 9291l0 130c0,35 31,64 69,64l30 0c38,0 69,-29 69,-64l0 -130c0,-35 -31,-64 -69,-64l-30 0c-38,0 -69,29 -69,64z"/>
   <path class="fil4" d="M8949 9291l0 130c0,35 31,64 69,64l30 0c38,0 69,-28 69,-64l0 -130c0,-35 -31,-64 -69,-64l-29 0c-38,0 -69,29 -69,64z"/>
   <path class="fil4" d="M8353 9292l0 130c0,35 31,63 69,63l30 0c38,0 69,-28 69,-64l0 -130c0,-35 -31,-64 -69,-64l-30 0c-38,0 -69,29 -69,64z"/>
   <path class="fil4" d="M7756 9292l0 131c0,35 31,64 69,64l29 0c38,0 69,-29 69,-64l0 -131c0,-35 -31,-64 -69,-64l-30 0c-38,0 -69,29 -69,64z"/>
   <path class="fil4" d="M7159 9292l0 130c0,35 31,64 69,64l29 0c38,0 69,-29 69,-64l0 -130c0,-35 -31,-64 -69,-64l-30 0c-38,0 -69,29 -69,64z"/>
   <path class="fil4" d="M16112 10932l0 130c0,35 31,64 69,64l29 0c38,0 69,-29 69,-64l0 -130c0,-35 -31,-64 -69,-64l-30 0c-38,0 -69,29 -69,64z"/>
   <path class="fil4" d="M15516 10932l0 130c0,35 31,64 69,64l30 0c38,0 69,-29 69,-64l0 -130c0,-35 -31,-64 -69,-64l-29 0c-38,0 -69,29 -69,64z"/>
   <path class="fil4" d="M14919 10932l0 130c0,35 31,64 69,64l30 0c38,0 69,-28 69,-64l0 -130c0,-35 -31,-64 -69,-64l-30 0c-38,0 -69,29 -69,64z"/>
   <path class="fil4" d="M14322 10932l0 131c0,35 31,64 69,64l30 0c38,0 69,-29 69,-64l0 -131c0,-35 -31,-64 -69,-64l-30 0c-38,0 -69,29 -69,64z"/>
   <path class="fil4" d="M13725 10933l0 130c0,35 31,64 69,64l29 0c38,0 69,-29 69,-64l0 -131c0,-35 -31,-63 -69,-63l-30 0c-38,0 -69,28 -69,64z"/>
   <path class="fil4" d="M13128 10933l0 130c0,35 31,64 69,64l30 0c38,0 69,-29 69,-64l0 -130c0,-35 -31,-64 -69,-64l-30 0c-38,0 -69,29 -69,64z"/>
   <path class="fil4" d="M12531 10933l0 130c0,35 31,64 69,64l29 0c38,0 69,-29 69,-64l0 -130c0,-35 -31,-64 -69,-64l-30 0c-38,0 -69,29 -69,64z"/>
   <path class="fil4" d="M11934 10933l0 130c0,36 31,64 69,64l30 0c38,0 69,-29 69,-64l0 -130c0,-35 -31,-64 -69,-64l-29 0c-38,0 -69,29 -69,64z"/>
   <path class="fil4" d="M11338 10933l0 131c0,35 31,64 69,64l30 0c38,0 69,-29 69,-64l0 -130c0,-35 -31,-64 -69,-64l-30 0c-38,0 -69,29 -69,64z"/>
   <path class="fil4" d="M10741 10933l0 131c0,35 31,64 69,64l30 0c38,0 69,-29 69,-64l0 -130c0,-35 -31,-63 -69,-63l-30 0c-38,0 -69,28 -69,63z"/>
   <path class="fil4" d="M10144 10934l0 130c0,35 31,64 69,64l29 0c38,0 69,-29 69,-64l0 -130c0,-35 -31,-64 -69,-64l-30 0c-38,0 -69,29 -69,64z"/>
   <path class="fil4" d="M9547 10934l0 130c0,35 31,64 69,64l30 0c38,0 69,-29 69,-64l0 -130c0,-35 -31,-64 -69,-64l-30 0c-38,0 -69,29 -69,64z"/>
   <path class="fil4" d="M8950 10934l0 130c0,35 31,64 69,64l30 0c38,0 69,-29 69,-64l0 -130c0,-35 -31,-64 -69,-64l-29 0c-38,0 -69,29 -69,64z"/>
   <path class="fil4" d="M8353 10935l0 130c0,36 31,64 69,64l30 0c38,0 69,-28 69,-64l0 -130c0,-35 -31,-64 -69,-64l-29 0c-38,0 -69,29 -69,64z"/>
   <path class="fil4" d="M7756 10935l0 130c0,35 31,64 69,64l30 0c38,0 69,-29 69,-64l0 -130c0,-35 -31,-64 -69,-63l-29 0c-38,0 -69,28 -69,63z"/>
   <path class="fil4" d="M7160 10935l0 130c0,35 31,64 69,64l29 0c38,0 69,-29 69,-64l0 -130c0,-36 -31,-64 -69,-64l-30 0c-38,0 -69,29 -69,64z"/>
   <path class="fil2" d="M0 10187c0,-106 86,-192 192,-192l5205 -2c142,0 284,17 422,50l355 85c60,15 60,100 0,114l-355 85c-138,33 -280,50 -422,50l-5205 2c-106,0 -192,-86 -192,-192z"/>
  </g>
 </g>
</svg>
