<?xml version="1.0" encoding="UTF-8"?>
<!DOCTYPE svg PUBLIC "-//W3C//DTD SVG 1.0//EN" "http://www.w3.org/TR/2001/REC-SVG-20010904/DTD/svg10.dtd">
<!-- Creator: CorelDRAW 2019 (64-Bit) -->
<svg xmlns="http://www.w3.org/2000/svg" xml:space="preserve" width="0.106661in" height="0.0893937in" version="1.0" style="shape-rendering:geometricPrecision; text-rendering:geometricPrecision; image-rendering:optimizeQuality; fill-rule:evenodd; clip-rule:evenodd"
viewBox="0 0 189 159"
 xmlns:xlink="http://www.w3.org/1999/xlink">
 <defs>
  <style type="text/css">
   <![CDATA[
    .fil0 {fill:#19171A}
   ]]>
  </style>
 </defs>
 <g id="Layer_x0020_1">
  <metadata id="CorelCorpID_0Corel-Layer"/>
  <g id="_2931602535696">
   <path class="fil0" d="M92 26c-28,3 -51,27 -48,58 2,27 27,51 58,48 28,-3 51,-27 48,-58 -2,-27 -27,-51 -58,-48zm-4 6c-42,8 -54,61 -21,86 34,26 84,-2 77,-47 -4,-24 -28,-45 -56,-39z"/>
   <path class="fil0" d="M161 81l3 0c2,-4 1,-40 1,-47 0,-14 8,-28 19,-29 1,18 0,38 0,56l0 85c0,4 -1,9 -6,7 -4,-2 -3,-8 -3,-12 0,-9 1,-51 -1,-56 -6,-2 -4,6 -4,17l0 46c0,6 6,12 13,9 6,-3 5,-10 5,-17 0,-16 1,-134 0,-137 -2,-6 -13,-1 -16,1 -9,7 -13,17 -13,32 0,8 -2,41 1,45z"/>
   <path class="fil0" d="M0 4l0 41c0,14 9,14 9,19l0 83c0,7 2,12 9,12 7,0 9,-6 9,-13l0 -71c0,-6 -4,-6 -5,-2l0 62c0,6 3,21 -5,20 -6,0 -4,-14 -4,-20 0,-8 0,-73 0,-75 -4,-4 -6,-3 -8,-9 -2,-4 -1,-29 -1,-35 0,-10 2,-15 -4,-14 -1,1 -1,2 -1,3z"/>
   <path class="fil0" d="M33 118c0,8 -1,10 9,18 30,27 71,29 103,5 6,-4 10,-9 14,-14 5,-7 8,-10 7,-21 -4,6 -3,7 -10,17 -25,35 -78,41 -111,9 -6,-6 -11,-14 -12,-15z"/>
   <path class="fil0" d="M42 28c3,-2 8,-9 24,-17 10,-5 22,-7 35,-6 18,1 31,8 43,18 5,4 6,6 10,10 1,-4 1,-7 -1,-9 -28,-28 -70,-32 -102,-10 -2,2 -4,3 -6,5 -4,3 -3,3 -3,9z"/>
   <path class="fil0" d="M24 62c4,2 13,-6 13,-18 0,-11 1,-34 0,-43 -6,-2 -4,3 -4,14 0,7 1,32 -2,37 -4,7 -10,6 -7,10z"/>
   <path class="fil0" d="M22 42l3 1c2,-4 2,-39 0,-42l-3 0c-1,3 -2,38 0,41z"/>
   <path class="fil0" d="M11 42c6,1 4,-2 4,-7 0,-6 1,-33 -1,-34 -5,-3 -4,12 -4,19 0,5 -1,19 1,23z"/>
  </g>
 </g>
</svg>
