<?xml version="1.0" encoding="UTF-8"?>
<!DOCTYPE svg PUBLIC "-//W3C//DTD SVG 1.0//EN" "http://www.w3.org/TR/2001/REC-SVG-20010904/DTD/svg10.dtd">
<!-- Creator: CorelDRAW 2019 (64-Bit) -->
<svg xmlns="http://www.w3.org/2000/svg" xml:space="preserve" width="0.373126in" height="0.423732in" version="1.0" style="shape-rendering:geometricPrecision; text-rendering:geometricPrecision; image-rendering:optimizeQuality; fill-rule:evenodd; clip-rule:evenodd"
viewBox="0 0 6534 7420"
 xmlns:xlink="http://www.w3.org/1999/xlink">
 <defs>
  <style type="text/css">
   <![CDATA[
    .fil0 {fill:white}
   ]]>
  </style>
 </defs>
 <g id="Layer_x0020_1">
  <metadata id="CorelCorpID_0Corel-Layer"/>
  <path class="fil0" d="M2116 994c-496,124 -399,576 -399,1005l0 4220c0,233 -2,467 0,700 2,200 114,359 264,438 172,89 429,59 640,59 936,0 1873,0 2809,0 161,0 571,18 698,-11 490,-113 399,-595 399,-1002l0 -4220c0,-232 4,-468 0,-700 -2,-111 -33,-198 -80,-271 -10,-15 -20,-32 -34,-49 -34,-40 -153,-129 -203,-144 -18,-6 -20,-4 -39,-11 -97,-35 -83,-24 -198,-24l-3159 0c-147,0 -590,-17 -699,10zm109 148c-211,0 -350,148 -350,359l0 4865c0,125 -16,537 8,629 47,187 194,262 380,262l3739 0c214,0 368,-136 368,-357l0 -2958c0,-222 12,-2440 -7,-2529 -32,-149 -184,-271 -278,-273 -58,-1 -125,2 -184,2 -1458,1 -2450,3 -3675,0z"/>
  <path class="fil0" d="M3966 2273c-358,61 -634,187 -864,464 -207,250 -361,616 -307,1016 161,1185 1611,1578 2346,702 478,-569 397,-1416 -161,-1878 -224,-186 -617,-372 -1014,-304zm-656 2163c38,76 302,240 397,259 -15,-36 -72,-113 -96,-158 -32,-60 -50,-115 -78,-176 -44,1 -191,59 -223,75zm385 -119c14,139 213,417 347,437l2 -474c-109,-4 -250,17 -349,37zm508 438c185,-41 353,-384 347,-438 -110,-26 -230,-37 -347,-39l0 477zm331 -63c48,-1 183,-81 218,-103 34,-21 64,-42 97,-68 27,-21 71,-54 84,-81 -32,-27 -175,-77 -220,-79 -32,49 -99,252 -180,331zm234 -483c81,18 223,88 287,96 100,-91 252,-448 238,-628l-456 -2c-12,94 -11,177 -24,271 -9,61 -47,217 -44,262zm-165 -43c35,-66 79,-398 70,-488l-470 -1c-3,53 -8,424 6,438 12,12 172,16 202,20 65,8 135,19 192,32zm107 -1336c51,-3 125,-32 176,-51 11,-4 16,-6 26,-11l18 -11c1,-1 4,-3 6,-4 -36,-62 -285,-229 -391,-250 15,42 62,103 90,155 29,55 52,112 76,172zm-507 87c131,-4 227,-26 348,-41 -15,-116 -183,-397 -347,-439l-1 480zm-508 -40c85,13 261,50 349,37l1 -477c-127,2 -338,314 -350,440zm-384 -124l24 15c14,7 10,5 25,11 45,17 131,49 177,52 20,-60 47,-120 75,-174 32,-60 59,-95 93,-152 -81,1 -356,183 -394,248zm1456 231c-3,47 34,190 43,253 15,101 17,176 25,280l453 2c13,-189 -120,-520 -234,-634l-287 100zm-563 91l0 444 470 0c2,-112 -32,-411 -72,-489 -121,6 -260,43 -398,46zm-633 441l473 2 1 -438 -407 -49c-35,142 -71,325 -66,485zm-619 2l458 0c8,-100 12,-185 23,-276 9,-74 47,-198 46,-257 -98,-30 -192,-70 -286,-102 -105,94 -247,443 -241,635zm2 158c-18,167 140,550 240,632 92,-24 187,-78 286,-100 2,-52 -36,-185 -45,-250 -13,-93 -15,-184 -26,-278 -175,-5 -273,-3 -454,-5zm1083 437c20,-28 11,-370 7,-433l-471 -4c-12,110 31,343 54,442 16,72 19,40 176,20 44,-6 212,-10 235,-24z"/>
  <path class="fil0" d="M157 1385c70,-258 163,-250 340,-302l763 -196c771,-188 1556,-400 2329,-590 125,-31 255,-64 383,-97 151,-38 251,-82 396,4 159,95 168,285 227,501 19,69 23,153 123,123 75,-22 41,-115 27,-172 -53,-211 -74,-385 -209,-520 -213,-215 -466,-129 -754,-52 -524,141 -1039,255 -1550,393l-1161 295c-127,33 -693,168 -767,199 -121,50 -198,121 -256,235 -120,238 4,486 74,794 142,624 318,1292 481,1898 123,458 243,968 363,1432 18,70 34,133 50,198 7,29 16,74 26,105 35,105 96,379 130,514 35,139 72,275 104,412 15,66 35,134 52,205 16,67 38,155 130,111 71,-33 26,-136 13,-187l-156 -620c-34,-125 -84,-295 -105,-413l-104 -408c-73,-273 -139,-546 -207,-818 -212,-828 -420,-1657 -630,-2486 -28,-109 -136,-468 -116,-556z"/>
  <path class="fil0" d="M5136 5506l-2376 0c-77,0 -132,52 -90,120 32,52 127,37 201,37 859,0 1755,9 2607,0 72,-1 139,-42 100,-118 -31,-60 -135,-40 -202,-40 -80,0 -160,0 -239,0z"/>
  <path class="fil0" d="M2980 6087c-79,37 -73,151 73,151 347,0 2168,10 2212,-9 49,-22 99,-150 -75,-149 -341,1 -2177,-9 -2211,7z"/>
 </g>
</svg>
