<?xml version="1.0" encoding="UTF-8"?>
<!DOCTYPE svg PUBLIC "-//W3C//DTD SVG 1.0//EN" "http://www.w3.org/TR/2001/REC-SVG-20010904/DTD/svg10.dtd">
<!-- Creator: CorelDRAW 2019 (64-Bit) -->
<svg xmlns="http://www.w3.org/2000/svg" xml:space="preserve" width="0.63761in" height="0.565339in" version="1.0" style="shape-rendering:geometricPrecision; text-rendering:geometricPrecision; image-rendering:optimizeQuality; fill-rule:evenodd; clip-rule:evenodd"
viewBox="0 0 16735 14838"
 xmlns:xlink="http://www.w3.org/1999/xlink">
 <defs>
  <style type="text/css">
   <![CDATA[
    .fil25 {fill:none;fill-rule:nonzero}
    .fil24 {fill:#FEFEFE;fill-rule:nonzero}
    .fil94 {fill:#151F2B;fill-rule:nonzero}
    .fil98 {fill:#2A6EB1;fill-rule:nonzero}
    .fil97 {fill:#384152;fill-rule:nonzero}
    .fil99 {fill:#42A1F6;fill-rule:nonzero}
    .fil95 {fill:#677282;fill-rule:nonzero}
    .fil12 {fill:#8999A3;fill-rule:nonzero}
    .fil27 {fill:#90A0AA;fill-rule:nonzero}
    .fil13 {fill:#90A1AA;fill-rule:nonzero}
    .fil28 {fill:#99A8B1;fill-rule:nonzero}
    .fil14 {fill:#9AA8B1;fill-rule:nonzero}
    .fil15 {fill:#A1AFB8;fill-rule:nonzero}
    .fil29 {fill:#A8B6BF;fill-rule:nonzero}
    .fil16 {fill:#AAB6BF;fill-rule:nonzero}
    .fil30 {fill:#B1BDC6;fill-rule:nonzero}
    .fil17 {fill:#B1BFC6;fill-rule:nonzero}
    .fil0 {fill:#B6CCDB;fill-rule:nonzero}
    .fil31 {fill:#B8C6CD;fill-rule:nonzero}
    .fil18 {fill:#BAC6CF;fill-rule:nonzero}
    .fil1 {fill:#BACFDD;fill-rule:nonzero}
    .fil2 {fill:#BED2DF;fill-rule:nonzero}
    .fil32 {fill:#C1CDD4;fill-rule:nonzero}
    .fil3 {fill:#C2D5E1;fill-rule:nonzero}
    .fil19 {fill:#C3CDD6;fill-rule:nonzero}
    .fil4 {fill:#C6D7E3;fill-rule:nonzero}
    .fil33 {fill:#CAD4DB;fill-rule:nonzero}
    .fil20 {fill:#CAD4DD;fill-rule:nonzero}
    .fil5 {fill:#CADAE5;fill-rule:nonzero}
    .fil6 {fill:#CEDDE7;fill-rule:nonzero}
    .fil34 {fill:#D1DBE2;fill-rule:nonzero}
    .fil7 {fill:#D2E0E9;fill-rule:nonzero}
    .fil21 {fill:#D3DDE4;fill-rule:nonzero}
    .fil8 {fill:#D6E2EB;fill-rule:nonzero}
    .fil35 {fill:#DAE2E9;fill-rule:nonzero}
    .fil9 {fill:#DAE5ED;fill-rule:nonzero}
    .fil22 {fill:#DBE4EB;fill-rule:nonzero}
    .fil100 {fill:#DD6B4D;fill-rule:nonzero}
    .fil10 {fill:#DEE8EF;fill-rule:nonzero}
    .fil11 {fill:#E2EBF1;fill-rule:nonzero}
    .fil23 {fill:#E4EBF2;fill-rule:nonzero}
    .fil96 {fill:#ED805E;fill-rule:nonzero}
    .fil36 {fill:#B6CCDB;fill-rule:nonzero;fill-opacity:0.501961}
    .fil37 {fill:#B7CDDB;fill-rule:nonzero;fill-opacity:0.501961}
    .fil38 {fill:#B7CDDC;fill-rule:nonzero;fill-opacity:0.501961}
    .fil39 {fill:#B8CEDC;fill-rule:nonzero;fill-opacity:0.501961}
    .fil40 {fill:#B9CEDC;fill-rule:nonzero;fill-opacity:0.501961}
    .fil41 {fill:#BACFDD;fill-rule:nonzero;fill-opacity:0.501961}
    .fil42 {fill:#BBD0DE;fill-rule:nonzero;fill-opacity:0.501961}
    .fil43 {fill:#BCD0DE;fill-rule:nonzero;fill-opacity:0.501961}
    .fil44 {fill:#BDD1DE;fill-rule:nonzero;fill-opacity:0.501961}
    .fil45 {fill:#BDD1DF;fill-rule:nonzero;fill-opacity:0.501961}
    .fil46 {fill:#BED2DF;fill-rule:nonzero;fill-opacity:0.501961}
    .fil47 {fill:#BFD2DF;fill-rule:nonzero;fill-opacity:0.501961}
    .fil48 {fill:#BFD3E0;fill-rule:nonzero;fill-opacity:0.501961}
    .fil49 {fill:#C0D3E0;fill-rule:nonzero;fill-opacity:0.501961}
    .fil50 {fill:#C1D4E0;fill-rule:nonzero;fill-opacity:0.501961}
    .fil51 {fill:#C2D4E1;fill-rule:nonzero;fill-opacity:0.501961}
    .fil52 {fill:#C2D5E1;fill-rule:nonzero;fill-opacity:0.501961}
    .fil53 {fill:#C3D5E1;fill-rule:nonzero;fill-opacity:0.501961}
    .fil54 {fill:#C4D6E2;fill-rule:nonzero;fill-opacity:0.501961}
    .fil55 {fill:#C5D6E2;fill-rule:nonzero;fill-opacity:0.501961}
    .fil56 {fill:#C5D7E3;fill-rule:nonzero;fill-opacity:0.501961}
    .fil57 {fill:#C6D7E3;fill-rule:nonzero;fill-opacity:0.501961}
    .fil58 {fill:#C7D8E3;fill-rule:nonzero;fill-opacity:0.501961}
    .fil59 {fill:#C8D8E4;fill-rule:nonzero;fill-opacity:0.501961}
    .fil60 {fill:#C8D9E4;fill-rule:nonzero;fill-opacity:0.501961}
    .fil61 {fill:#C9D9E4;fill-rule:nonzero;fill-opacity:0.501961}
    .fil62 {fill:#CADAE5;fill-rule:nonzero;fill-opacity:0.501961}
    .fil63 {fill:#CBDBE5;fill-rule:nonzero;fill-opacity:0.501961}
    .fil64 {fill:#CCDBE6;fill-rule:nonzero;fill-opacity:0.501961}
    .fil65 {fill:#CDDCE6;fill-rule:nonzero;fill-opacity:0.501961}
    .fil66 {fill:#CDDCE7;fill-rule:nonzero;fill-opacity:0.501961}
    .fil67 {fill:#CEDDE7;fill-rule:nonzero;fill-opacity:0.501961}
    .fil68 {fill:#CFDDE7;fill-rule:nonzero;fill-opacity:0.501961}
    .fil69 {fill:#D0DEE8;fill-rule:nonzero;fill-opacity:0.501961}
    .fil70 {fill:#D1DFE8;fill-rule:nonzero;fill-opacity:0.501961}
    .fil71 {fill:#D2DFE9;fill-rule:nonzero;fill-opacity:0.501961}
    .fil72 {fill:#D2E0E9;fill-rule:nonzero;fill-opacity:0.501961}
    .fil73 {fill:#D3E0E9;fill-rule:nonzero;fill-opacity:0.501961}
    .fil74 {fill:#D4E1EA;fill-rule:nonzero;fill-opacity:0.501961}
    .fil75 {fill:#D5E1EA;fill-rule:nonzero;fill-opacity:0.501961}
    .fil76 {fill:#D5E2EA;fill-rule:nonzero;fill-opacity:0.501961}
    .fil77 {fill:#D6E2EB;fill-rule:nonzero;fill-opacity:0.501961}
    .fil78 {fill:#D7E3EB;fill-rule:nonzero;fill-opacity:0.501961}
    .fil79 {fill:#D8E3EC;fill-rule:nonzero;fill-opacity:0.501961}
    .fil80 {fill:#D8E4EC;fill-rule:nonzero;fill-opacity:0.501961}
    .fil81 {fill:#D9E4EC;fill-rule:nonzero;fill-opacity:0.501961}
    .fil82 {fill:#DAE5ED;fill-rule:nonzero;fill-opacity:0.501961}
    .fil83 {fill:#DBE6ED;fill-rule:nonzero;fill-opacity:0.501961}
    .fil84 {fill:#DCE7EE;fill-rule:nonzero;fill-opacity:0.501961}
    .fil85 {fill:#DDE7EE;fill-rule:nonzero;fill-opacity:0.501961}
    .fil86 {fill:#DDE8EE;fill-rule:nonzero;fill-opacity:0.501961}
    .fil87 {fill:#DEE8EF;fill-rule:nonzero;fill-opacity:0.501961}
    .fil88 {fill:#DFE9EF;fill-rule:nonzero;fill-opacity:0.501961}
    .fil89 {fill:#E0E9F0;fill-rule:nonzero;fill-opacity:0.501961}
    .fil90 {fill:#E0EAF0;fill-rule:nonzero;fill-opacity:0.501961}
    .fil91 {fill:#E1EAF0;fill-rule:nonzero;fill-opacity:0.501961}
    .fil92 {fill:#E2EBF1;fill-rule:nonzero;fill-opacity:0.501961}
    .fil26 {fill:#E2EBF1;fill-rule:nonzero}
    .fil93 {fill:url(#id3);fill-rule:nonzero;fill-opacity:0.349020}
   ]]>
  </style>
   <clipPath id="id0" style="clip-rule:nonzero">
    <path d="M10944 11363c-690,-4 -1362,-293 -1892,-815 -520,-511 -828,-1191 -847,-1865 -29,-1282 -41,-2585 -34,-3871 6,-671 303,-1355 813,-1876 521,-531 1189,-832 1882,-848 392,-7 795,-11 1195,-11l58 0c689,4 1362,293 1892,815 520,511 828,1191 847,1865 29,1282 41,2585 34,3871 -6,671 -303,1355 -813,1876 -521,531 -1189,832 -1882,848 -393,7 -794,11 -1190,11l-63 0z"/>
   </clipPath>
    <clipPath id="id1">
     <path d="M10944 11363c-690,-4 -1362,-293 -1892,-815 -520,-511 -828,-1191 -847,-1865 -29,-1282 -41,-2585 -34,-3871 6,-639 275,-1290 741,-1799l5215 0c449,495 713,1122 730,1744 29,1282 41,2585 34,3871 -6,671 -303,1355 -813,1876 -521,531 -1189,832 -1882,848 -393,7 -794,11 -1190,11l-63 0z"/>
    </clipPath>
    <clipPath id="id2">
     <path d="M10944 11363c-690,-4 -1362,-293 -1892,-815 -520,-511 -828,-1191 -847,-1865 -29,-1282 -41,-2585 -34,-3871 6,-671 303,-1355 813,-1876 521,-531 1189,-832 1882,-848 392,-7 795,-11 1195,-11l58 0c689,4 1362,293 1892,815 520,511 828,1191 847,1865 29,1282 41,2585 34,3871 -6,671 -303,1355 -813,1876 -521,531 -1189,832 -1882,848 -393,7 -794,11 -1190,11l-63 0z"/>
    </clipPath>
  <linearGradient id="id3" gradientUnits="userSpaceOnUse" x1="11517" y1="1866" x2="11517" y2="2551">
   <stop offset="0" style="stop-opacity:1; stop-color:white"/>
   <stop offset="0.4" style="stop-opacity:1; stop-color:#9F9F9F"/>
   <stop offset="1" style="stop-opacity:1; stop-color:#3F3F3F"/>
  </linearGradient>
 </defs>
 <g id="Layer_x0020_1">
  <metadata id="CorelCorpID_0Corel-Layer"/>
  <g id="_1934963945680">
   <path class="fil0" d="M11531 13440c-235,0 -470,-1 -705,-4 -2388,-35 -4441,-2109 -4484,-4529 -20,-1452 -20,-2923 0,-4373 43,-2422 2096,-4495 4482,-4531 237,-2 472,-4 707,-4 235,0 470,1 705,4 2388,35 4441,2109 4484,4529 20,1452 20,2923 0,4373 -43,2422 -2096,4496 -4482,4531 -237,2 -472,4 -707,4z"/>
   <path class="fil1" d="M12233 35c2294,26 4276,1956 4447,4249 7,88 11,176 12,265 24,1447 25,2911 3,4356 -36,2400 -2078,4467 -4449,4499 -236,3 -471,4 -705,4 -237,0 -474,0 -711,-3 -2294,-26 -4276,-1956 -4446,-4249 -7,-88 -11,-176 -12,-265 -21,-1447 -25,-2911 -3,-4356 35,-2359 2008,-4391 4327,-4495 44,-2 89,-3 133,-4 236,-3 470,-4 704,-4 234,0 468,0 701,3z"/>
   <path class="fil2" d="M12230 67c2287,25 4262,1952 4422,4234 6,88 10,175 12,264 21,1442 27,2899 6,4339 -34,2379 -2060,4434 -4417,4467 -235,3 -469,4 -703,5 -239,0 -478,0 -717,-2 -2287,-24 -4262,-1952 -4422,-4234 -6,-87 -10,-175 -11,-264 -21,-1442 -27,-2899 -6,-4339 33,-2341 1997,-4364 4307,-4463 44,-2 88,-3 133,-4 234,-3 467,-4 700,-4 232,0 465,0 697,2z"/>
   <path class="fil3" d="M12227 98c2280,23 4249,1949 4397,4220 6,87 9,175 11,263 22,1437 29,2887 9,4322 -32,2357 -2042,4400 -4385,4435 -235,3 -468,5 -701,5 -241,1 -482,1 -723,-2 -2280,-22 -4249,-1949 -4397,-4220 -6,-87 -9,-175 -11,-263 -22,-1437 -29,-2887 -9,-4322 31,-2324 1987,-4338 4287,-4432 44,-2 88,-3 132,-4 233,-3 464,-4 696,-5 231,-1 462,0 693,2z"/>
   <path class="fil4" d="M12223 130c2274,21 4235,1945 4372,4205 5,87 9,174 10,262 23,1432 31,2875 12,4305 -30,2335 -2024,4367 -4352,4403 -234,4 -466,5 -698,6 -243,1 -486,1 -729,-1 -2274,-20 -4235,-1945 -4372,-4205 -5,-87 -9,-174 -10,-262 -23,-1432 -31,-2875 -12,-4305 29,-2306 1976,-4312 4267,-4400 44,-2 87,-3 131,-4 231,-3 462,-5 692,-5 230,-1 460,-1 690,1z"/>
   <path class="fil5" d="M12220 162c2267,19 4222,1942 4348,4191 5,87 8,173 10,261 24,1426 33,2863 15,4288 -28,2314 -2006,4333 -4320,4371 -233,4 -464,5 -696,6 -245,1 -490,2 -735,0 -2267,-18 -4221,-1942 -4348,-4191 -5,-87 -8,-173 -10,-261 -24,-1426 -33,-2863 -16,-4288 27,-2289 1965,-4285 4247,-4368 43,-1 87,-3 130,-3 230,-3 459,-5 688,-6 229,-1 457,-1 686,1z"/>
   <path class="fil6" d="M12217 193c2260,17 4208,1939 4323,4177 4,86 7,173 9,260 25,1421 34,2851 18,4271 -26,2292 -1989,4300 -4288,4339 -232,4 -463,6 -694,7 -247,1 -494,2 -740,0 -2260,-17 -4208,-1939 -4323,-4176 -4,-86 -7,-173 -9,-260 -25,-1421 -34,-2851 -19,-4271 25,-2271 1954,-4259 4227,-4337 43,-1 86,-2 130,-3 229,-3 456,-5 684,-6 227,-1 454,-1 682,0z"/>
   <path class="fil7" d="M12214 225c2254,15 4194,1935 4298,4162 4,86 7,172 8,259 26,1416 36,2839 22,4254 -24,2270 -1971,4266 -4255,4307 -231,4 -461,6 -692,7 -249,2 -497,2 -746,1 -2254,-15 -4194,-1935 -4298,-4162 -4,-86 -7,-172 -8,-259 -26,-1416 -36,-2839 -22,-4254 23,-2254 1943,-4232 4206,-4305 43,-1 86,-2 129,-3 227,-3 454,-5 680,-7 226,-1 452,-2 678,0z"/>
   <path class="fil8" d="M12210 256c2247,13 4181,1932 4274,4148 3,86 6,172 8,258 27,1411 38,2827 25,4237 -22,2249 -1953,4232 -4223,4275 -230,4 -460,7 -689,8 -251,2 -501,3 -752,1 -2247,-13 -4181,-1932 -4274,-4148 -3,-86 -6,-172 -8,-258 -27,-1411 -38,-2827 -25,-4237 21,-2236 1932,-4206 4186,-4273 43,-1 85,-2 128,-3 226,-3 451,-6 676,-7 225,-1 449,-2 674,-1z"/>
   <path class="fil9" d="M12207 288c2240,11 4167,1928 4249,4133 3,85 5,171 7,257 28,1406 40,2815 28,4220 -20,2227 -1935,4199 -4191,4243 -229,4 -458,7 -687,9 -253,2 -505,3 -758,2 -2240,-11 -4167,-1928 -4249,-4133 -3,-85 -5,-171 -7,-257 -28,-1406 -40,-2815 -28,-4220 19,-2219 1921,-4179 4166,-4242 42,-1 85,-2 128,-3 224,-4 448,-6 672,-7 223,-1 447,-2 670,-1z"/>
   <path class="fil10" d="M12204 320c2233,9 4158,1925 4224,4119 2,85 4,170 6,256 29,1400 42,2803 31,4203 -18,2205 -1917,4165 -4158,4211 -228,5 -457,7 -685,9 -255,2 -509,4 -764,3 -2234,-9 -4158,-1925 -4224,-4119 -3,-85 -4,-170 -6,-256 -29,-1400 -42,-2803 -31,-4203 17,-2201 1910,-4153 4146,-4210 42,-1 85,-2 127,-2 223,-4 445,-6 668,-8 222,-2 444,-3 666,-2z"/>
   <path class="fil11" d="M10748 364c484,-9 968,-13 1452,-13 2227,12 4140,1922 4200,4104 34,1480 47,2961 39,4441 -20,2184 -1899,4126 -4126,4179 -484,9 -968,13 -1452,13 -2227,-12 -4140,-1922 -4200,-4104 -34,-1480 -47,-2961 -40,-4441 20,-2184 1899,-4126 4126,-4179z"/>
  </g>
  <path class="fil0" d="M10858 12657c-954,-5 -1879,-400 -2602,-1111 -709,-697 -1130,-1631 -1155,-2562 -33,-1475 -47,-2973 -40,-4451 9,-929 413,-1871 1109,-2580 710,-724 1628,-1135 2584,-1157 455,-9 921,-13 1383,-13l66 0c954,5 1879,400 2602,1111 709,697 1130,1631 1155,2562 33,1475 47,2974 40,4451 -9,929 -413,1871 -1109,2580 -710,724 -1628,1135 -2584,1157 -455,9 -919,13 -1377,13l-72 0z"/>
  <g id="_1934963951536">
   <path class="fil12" d="M10918 11848c-795,-4 -1567,-335 -2173,-931 -594,-584 -947,-1365 -968,-2141 -30,-1341 -43,-2703 -36,-4048 7,-774 346,-1560 930,-2155 595,-607 1362,-951 2159,-970 411,-8 834,-12 1254,-12l60 0c794,4 1567,335 2173,931 594,584 947,1365 968,2141 30,1342 42,2704 36,4048 -7,774 -346,1560 -930,2154 -595,607 -1362,951 -2159,970 -413,8 -834,12 -1248,12l-66 0z"/>
   <path class="fil13" d="M10920 11804c-785,-4 -1548,-331 -2147,-921 -587,-578 -938,-1349 -957,-2116 -33,-1335 -45,-2692 -36,-4032 5,-764 342,-1541 919,-2129 588,-600 1346,-942 2134,-959 410,-9 830,-12 1249,-12l60 0c785,4 1548,331 2147,921 587,578 938,1349 957,2116 33,1337 45,2694 36,4032 -5,764 -342,1541 -919,2129 -588,600 -1346,942 -2134,959 -412,9 -830,12 -1242,12l-66 0z"/>
   <path class="fil14" d="M10923 11759c-776,-4 -1530,-328 -2122,-910 -581,-571 -927,-1333 -946,-2091 -33,-1330 -45,-2681 -36,-4016 5,-755 338,-1522 908,-2104 582,-593 1331,-931 2109,-948 408,-9 827,-12 1243,-12l60 0c775,4 1529,328 2122,910 581,571 927,1333 946,2091 33,1331 45,2683 36,4016 -5,755 -338,1522 -909,2104 -582,593 -1331,931 -2109,948 -410,9 -826,12 -1237,12l-66 0z"/>
   <path class="fil15" d="M10925 11715c-766,-4 -1511,-324 -2096,-900 -574,-565 -916,-1317 -935,-2066 -33,-1325 -45,-2671 -36,-4000 5,-746 334,-1504 898,-2078 575,-586 1315,-920 2084,-937 406,-9 823,-12 1238,-12l59 0c766,4 1511,324 2096,900 574,565 916,1317 935,2065 33,1326 45,2672 36,4000 -5,746 -334,1504 -898,2078 -575,586 -1315,921 -2084,937 -408,9 -823,12 -1232,12l-65 0z"/>
   <path class="fil16" d="M10927 11671c-756,-4 -1492,-320 -2071,-889 -567,-558 -905,-1302 -924,-2041 -33,-1319 -45,-2660 -35,-3984 5,-736 330,-1485 887,-2053 568,-579 1299,-910 2058,-926 404,-9 819,-12 1233,-12l59 0c756,4 1492,320 2071,889 567,558 905,1302 924,2040 33,1320 45,2661 35,3984 -5,737 -330,1485 -887,2053 -568,579 -1299,910 -2058,926 -406,9 -819,12 -1227,12l-65 0z"/>
   <path class="fil17" d="M10930 11627c-747,-4 -1474,-316 -2045,-878 -560,-551 -895,-1286 -913,-2016 -33,-1314 -45,-2649 -35,-3968 5,-727 326,-1467 877,-2028 561,-572 1283,-899 2033,-915 402,-8 816,-11 1227,-11l59 0c747,4 1473,316 2045,878 560,551 895,1286 913,2016 33,1315 45,2650 35,3968 -5,727 -326,1467 -877,2028 -561,572 -1283,899 -2033,915 -404,8 -816,11 -1221,11l-65 0z"/>
   <path class="fil18" d="M10932 11583c-737,-4 -1455,-312 -2020,-868 -553,-544 -884,-1270 -902,-1991 -33,-1309 -44,-2638 -35,-3951 5,-718 322,-1448 866,-2003 555,-565 1268,-888 2008,-903 401,-8 812,-11 1222,-11l59 0c737,4 1455,312 2019,868 553,545 884,1270 902,1990 33,1309 45,2639 35,3952 -5,718 -322,1448 -866,2003 -555,565 -1268,888 -2008,904 -402,8 -812,11 -1216,11l-64 0z"/>
   <path class="fil19" d="M10934 11539c-728,-4 -1436,-309 -1994,-857 -547,-538 -873,-1254 -891,-1965 -32,-1303 -44,-2628 -35,-3935 5,-708 318,-1430 856,-1977 548,-558 1252,-877 1983,-892 399,-8 809,-11 1217,-11l58 0c727,4 1436,308 1994,857 547,538 873,1254 891,1965 33,1304 44,2628 35,3936 -5,709 -318,1430 -856,1977 -548,559 -1252,877 -1983,893 -400,8 -808,11 -1211,11l-64 0z"/>
   <path class="fil20" d="M10937 11495c-718,-4 -1418,-305 -1969,-846 -540,-531 -862,-1238 -880,-1941 -32,-1298 -44,-2617 -35,-3919 5,-699 315,-1411 845,-1952 541,-551 1236,-866 1958,-881 397,-8 805,-11 1211,-11l58 0c718,4 1417,305 1968,847 540,531 862,1238 880,1940 32,1298 44,2617 35,3919 -5,699 -315,1411 -845,1952 -541,552 -1236,866 -1957,881 -399,8 -805,11 -1205,11l-64 0z"/>
   <path class="fil21" d="M10939 11451c-709,-4 -1399,-301 -1943,-836 -533,-525 -851,-1223 -869,-1915 -32,-1293 -44,-2606 -35,-3903 5,-690 311,-1393 834,-1927 534,-545 1220,-855 1932,-870 395,-8 802,-11 1206,-11l58 0c708,4 1399,301 1943,836 533,525 851,1223 869,1915 32,1293 44,2606 35,3903 -5,690 -311,1392 -834,1927 -534,545 -1220,855 -1932,870 -397,8 -801,11 -1200,11l-64 0z"/>
   <path class="fil22" d="M10941 11407c-699,-4 -1381,-297 -1918,-825 -526,-518 -841,-1207 -858,-1890 -32,-1287 -44,-2596 -35,-3887 5,-681 307,-1374 824,-1901 527,-538 1205,-844 1907,-859 394,-8 798,-11 1201,-11l58 0c699,4 1380,297 1917,825 526,518 841,1207 858,1890 32,1287 44,2595 35,3887 -5,681 -307,1374 -824,1901 -528,538 -1205,844 -1907,859 -395,8 -797,11 -1195,11l-64 0z"/>
   <path class="fil23" d="M10944 11363c-690,-4 -1362,-293 -1892,-815 -520,-511 -828,-1191 -847,-1865 -29,-1282 -41,-2585 -34,-3871 6,-671 303,-1355 813,-1876 521,-531 1189,-832 1882,-848 392,-7 795,-11 1195,-11l58 0c689,4 1362,293 1892,815 520,511 828,1191 847,1865 29,1282 41,2585 34,3871 -6,671 -303,1355 -813,1876 -521,531 -1189,832 -1882,848 -393,7 -794,11 -1190,11l-63 0z"/>
  </g>
  <path class="fil24" d="M10944 11363c-690,-4 -1362,-293 -1892,-815 -520,-511 -828,-1191 -847,-1865 -29,-1282 -41,-2585 -34,-3871 6,-671 303,-1355 813,-1876 521,-531 1189,-832 1882,-848 392,-7 795,-11 1195,-11l58 0c689,4 1362,293 1892,815 520,511 828,1191 847,1865 29,1282 41,2585 34,3871 -6,671 -303,1355 -813,1876 -521,531 -1189,832 -1882,848 -393,7 -794,11 -1190,11l-63 0z"/>
  <g style="clip-path:url(#id0)">
   <g id="_1934963957904">
   </g>
   <g style="clip-path:url(#id1)">
    <image x="7243" y="3012" width="17280" height="8640" xlink:href="internationalstudent_Images\internationalstudent_ImgID1.png"/>
   </g>
   <g style="clip-path:url(#id2)">
   </g>
  </g>
  <path class="fil25" d="M10944 11363c-690,-4 -1362,-293 -1892,-815 -520,-511 -828,-1191 -847,-1865 -29,-1282 -41,-2585 -34,-3871 6,-671 303,-1355 813,-1876 521,-531 1189,-832 1882,-848 392,-7 795,-11 1195,-11l58 0c689,4 1362,293 1892,815 520,511 828,1191 847,1865 29,1282 41,2585 34,3871 -6,671 -303,1355 -813,1876 -521,531 -1189,832 -1882,848 -393,7 -794,11 -1190,11l-63 0z"/>
  <path class="fil26" d="M11531 3344c-1316,0 -2606,-167 -3832,-303l107 -209c1218,135 2417,189 3726,189 1297,0 2485,-58 3696,-191l108 214c-1219,134 -2499,300 -3804,300z"/>
  <g id="_1934963959344">
   <path class="fil11" d="M11531 3078c1307,0 2561,-71 3723,-201 -168,-296 -379,-573 -629,-819 -673,-662 -1531,-1030 -2413,-1034l-67 0c-467,0 -936,4 -1393,13 -885,21 -1737,403 -2398,1077 -226,231 -418,487 -574,760 1170,132 2433,204 3751,204z"/>
  </g>
  <g id="_1934963961712">
   <path class="fil12" d="M8250 2225l2 -2c6,-7 13,-14 19,-21 7,-7 13,-14 19,-21l7 -8c8,-9 17,-18 25,-26l2 -3c10,-10 19,-20 29,-30 661,-674 1513,-1057 2398,-1077 457,-9 926,-13 1393,-13l67 0c882,5 1740,372 2413,1034 10,10 20,20 30,29l2 2c9,9 19,19 28,28l3 4c9,9 17,18 26,27l3 3c8,9 17,18 25,27l6 6c7,8 15,16 22,24l9 10c6,7 12,13 18,20 4,5 8,9 13,14 5,6 11,12 16,18 5,6 10,12 16,18l8 9c154,181 289,375 404,577 -1162,130 -2416,201 -3723,201 -1318,0 -2581,-72 -3751,-204 131,-230 289,-448 470,-649z"/>
   <path class="fil27" d="M7797 2876c155,-270 346,-524 571,-752 657,-670 1504,-1052 2384,-1071 458,-10 928,-13 1395,-13l67 0c877,5 1729,370 2398,1028 247,244 457,518 624,811 -1157,129 -2404,199 -3705,199 -1311,0 -2569,-71 -3734,-202z"/>
   <path class="fil28" d="M7816 2878c154,-267 344,-518 566,-745 654,-666 1495,-1046 2369,-1065 459,-10 929,-13 1398,-13l67 0c871,5 1718,368 2384,1023 245,241 453,513 619,803 -1152,127 -2393,197 -3686,197 -1304,0 -2555,-71 -3716,-200z"/>
   <path class="fil15" d="M7834 2880c152,-264 341,-513 560,-737 650,-662 1486,-1040 2355,-1059 459,-10 931,-13 1401,-13l67 0c865,5 1707,366 2369,1017 243,239 449,508 613,795 -1147,126 -2381,195 -3668,195 -1297,0 -2542,-70 -3697,-198z"/>
   <path class="fil29" d="M7853 2882c151,-262 338,-508 555,-730 646,-658 1477,-1034 2340,-1052 460,-10 933,-13 1403,-13l67 0c860,5 1696,364 2354,1011 241,237 445,503 608,788 -1142,125 -2370,193 -3649,193 -1291,0 -2529,-69 -3679,-196z"/>
   <path class="fil30" d="M7871 2884c150,-259 335,-502 550,-722 642,-655 1468,-1028 2326,-1046 461,-10 935,-13 1406,-13l68 0c854,5 1685,362 2339,1005 238,235 441,498 603,780 -1136,123 -2358,191 -3631,191 -1284,0 -2515,-68 -3660,-194z"/>
   <path class="fil31" d="M7890 2886c149,-256 332,-497 545,-714 638,-651 1459,-1022 2311,-1040 462,-10 936,-13 1409,-13l68 0c848,5 1674,359 2324,999 236,232 437,493 597,772 -1131,122 -2346,189 -3612,189 -1277,0 -2502,-68 -3642,-192z"/>
   <path class="fil32" d="M7908 2888c148,-253 329,-492 540,-707 634,-647 1450,-1016 2296,-1034 463,-10 938,-13 1411,-13l68 0c842,5 1663,357 2309,993 234,230 433,488 592,764 -1126,121 -2335,187 -3593,187 -1270,0 -2489,-67 -3623,-190z"/>
   <path class="fil33" d="M7927 2890c146,-250 326,-486 535,-699 631,-643 1441,-1010 2282,-1027 464,-10 940,-13 1414,-13l68 0c837,5 1652,355 2294,987 232,228 429,484 587,756 -1120,120 -2323,185 -3575,185 -1263,0 -2476,-66 -3604,-188z"/>
   <path class="fil34" d="M7945 2892c145,-247 323,-481 530,-692 627,-639 1432,-1003 2267,-1021 464,-10 942,-13 1417,-13l68 0c831,5 1641,353 2279,981 229,226 425,478 581,748 -1115,118 -2311,183 -3556,183 -1256,0 -2462,-65 -3586,-186z"/>
   <path class="fil35" d="M7964 2894c144,-245 320,-475 525,-684 623,-635 1423,-997 2252,-1015 465,-10 943,-13 1419,-13l68 0c825,5 1630,351 2265,975 227,223 420,473 576,740 -1110,117 -2300,181 -3538,181 -1249,0 -2449,-65 -3567,-184z"/>
   <path class="fil11" d="M7983 2896c142,-242 317,-470 519,-676 619,-631 1414,-989 2238,-1009 466,-9 945,-13 1422,-13l69 0c820,5 1619,349 2250,969 225,221 416,469 570,733 -1104,116 -2288,179 -3519,179 -1242,0 -2435,-64 -3548,-182z"/>
  </g>
  <g id="_1934963969872">
   <path class="fil36" d="M11531 3078c1307,0 2561,-71 3723,-201 -168,-296 -379,-573 -629,-819 -673,-662 -1531,-1030 -2413,-1034l-67 0c-467,0 -936,4 -1393,13 -885,21 -1737,403 -2398,1077 -226,231 -418,487 -574,760 1170,132 2433,204 3751,204z"/>
   <path class="fil37" d="M11531 3077c1307,0 2560,-71 3722,-201 -60,-106 -126,-209 -197,-310l0 -1 -2 -3c-126,-179 -270,-348 -429,-504 -673,-661 -1531,-1028 -2413,-1033l-67 0c-467,0 -936,3 -1393,13 -885,19 -1737,403 -2398,1076 -139,142 -265,293 -378,452 -71,100 -136,202 -196,307 1170,132 2433,204 3751,204z"/>
   <path class="fil37" d="M11531 3076c1307,0 2560,-71 3722,-200 -60,-105 -125,-208 -195,-308l-2 -3 -1 -1c-127,-179 -271,-349 -430,-506 -673,-661 -1530,-1027 -2413,-1032l-67 0c-467,0 -936,3 -1393,13 -885,19 -1737,402 -2398,1075 -140,142 -267,295 -380,455 -70,98 -134,200 -194,303 1170,132 2433,203 3750,203z"/>
   <path class="fil38" d="M11531 3075c1307,0 2560,-71 3721,-200 -59,-105 -124,-207 -194,-306l-3 -4 -1 -1c-127,-179 -271,-349 -431,-506 -673,-660 -1530,-1026 -2412,-1031l-67 0c-467,0 -936,3 -1392,13 -885,19 -1737,402 -2398,1074 -140,142 -266,294 -380,453 -70,99 -135,200 -194,304 1170,131 2432,203 3750,203z"/>
   <path class="fil38" d="M11531 3074c1306,0 2559,-71 3721,-200 -59,-104 -124,-206 -193,-305l-3 -5 0 0c-127,-179 -271,-349 -431,-505 -673,-659 -1530,-1025 -2412,-1030l-67 0c-467,0 -935,3 -1392,13 -885,19 -1737,402 -2397,1073 -140,142 -266,293 -379,453 -70,99 -135,200 -194,304 1170,131 2432,203 3749,203z"/>
   <path class="fil38" d="M11531 3073c1306,0 2559,-70 3721,-200 -59,-104 -124,-206 -193,-305 -128,-181 -273,-352 -435,-510 -673,-659 -1530,-1024 -2412,-1029l-67 0c-466,0 -935,3 -1392,13 -885,19 -1736,401 -2397,1072 -140,141 -266,293 -379,452 -70,99 -135,200 -194,304 1169,131 2432,203 3749,203z"/>
   <path class="fil39" d="M11531 3072c1306,0 2559,-70 3720,-199 -59,-104 -123,-206 -193,-304 -128,-181 -273,-351 -435,-509 -673,-658 -1530,-1023 -2412,-1028l-67 0c-466,0 -935,3 -1392,13 -885,19 -1736,401 -2397,1071 -140,141 -266,293 -379,451 -70,99 -135,200 -194,304 1169,131 2432,203 3748,203z"/>
   <path class="fil39" d="M11531 3071c1306,0 2558,-70 3720,-199 -59,-104 -123,-206 -193,-304 -128,-180 -273,-351 -434,-509 -673,-657 -1530,-1022 -2412,-1027l-67 0c-466,0 -935,3 -1392,13 -885,19 -1736,400 -2397,1069 -139,141 -266,292 -379,451 -70,99 -135,200 -194,304 1169,131 2431,202 3748,202z"/>
   <path class="fil40" d="M11531 3070c1306,0 2558,-70 3719,-199 -59,-104 -123,-205 -193,-303 -128,-180 -273,-351 -435,-509 -673,-657 -1530,-1021 -2411,-1026l-67 0c-466,0 -935,3 -1392,13 -885,19 -1736,400 -2397,1068 -139,141 -266,292 -379,450 -70,98 -135,200 -194,303 1169,131 2431,202 3747,202z"/>
   <path class="fil40" d="M11531 3069c1306,0 2558,-70 3719,-199 -59,-104 -123,-205 -193,-303 -128,-180 -273,-351 -435,-508 -673,-656 -1529,-1020 -2411,-1025l-67 0c-466,0 -935,3 -1392,13 -885,18 -1736,399 -2396,1067 -140,141 -266,292 -379,450 -70,98 -134,199 -194,303 1169,131 2431,202 3747,202z"/>
   <path class="fil40" d="M11531 3068c1306,0 2557,-70 3718,-199 -59,-104 -123,-205 -193,-303 -128,-180 -273,-350 -434,-507 -673,-655 -1529,-1019 -2411,-1024l-67 0c-466,0 -935,3 -1391,13 -885,18 -1736,399 -2396,1066 -139,141 -266,291 -379,449 -70,98 -134,199 -194,303 1169,130 2430,202 3747,202z"/>
   <path class="fil41" d="M11531 3067c1305,0 2557,-70 3718,-198 -59,-104 -123,-205 -193,-303 -128,-179 -273,-349 -434,-506 -673,-654 -1529,-1018 -2411,-1022l-67 0c-466,0 -935,3 -1391,13 -885,18 -1735,399 -2396,1065 -139,141 -266,291 -379,449 -70,98 -134,199 -194,302 1169,130 2430,201 3746,201z"/>
   <path class="fil41" d="M11531 3066c1305,0 2557,-70 3717,-198 -60,-104 -125,-206 -195,-306 -127,-178 -272,-347 -432,-503 -672,-654 -1529,-1017 -2410,-1021l-67 0c-466,0 -935,3 -1391,13 -884,18 -1735,398 -2396,1064 -139,140 -266,291 -379,448 -70,98 -134,199 -194,302 1168,130 2430,201 3746,201z"/>
   <path class="fil41" d="M11531 3065c1305,0 2557,-70 3717,-198 -59,-104 -124,-205 -194,-304 -127,-179 -272,-348 -433,-504 -672,-653 -1529,-1015 -2410,-1020l-67 0c-466,0 -935,3 -1391,13 -884,18 -1735,398 -2395,1062 -139,140 -265,289 -377,446 -70,98 -135,200 -195,304 1168,130 2430,201 3745,201z"/>
   <path class="fil41" d="M11531 3064c1305,0 2556,-70 3716,-198 -59,-104 -124,-206 -194,-305 -127,-178 -272,-346 -432,-502 -672,-652 -1529,-1014 -2410,-1019l-67 0c-466,0 -935,3 -1391,13 -884,18 -1735,397 -2395,1061 -139,139 -264,288 -377,445 -70,99 -135,200 -195,304 1168,130 2429,201 3745,201z"/>
   <path class="fil41" d="M11531 3063c1305,0 2556,-70 3716,-197 -60,-104 -124,-206 -195,-305 -127,-178 -271,-346 -432,-501 -672,-652 -1529,-1013 -2410,-1018l-67 0c-466,0 -935,3 -1391,13 -884,18 -1735,397 -2395,1060 -139,139 -264,288 -377,444 -70,99 -135,200 -195,304 1168,130 2429,200 3744,200z"/>
   <path class="fil42" d="M11531 3062c1304,0 2555,-70 3716,-197 -59,-104 -124,-206 -194,-305 -127,-177 -271,-345 -432,-501 -672,-651 -1528,-1012 -2409,-1017l-67 0c-466,0 -934,3 -1391,13 -884,18 -1734,396 -2395,1059 -139,139 -265,288 -377,444 -70,98 -135,199 -195,303 1168,130 2429,200 3744,200z"/>
   <path class="fil42" d="M11531 3061c1304,0 2555,-70 3715,-197 -59,-104 -124,-205 -194,-304 -127,-178 -272,-345 -432,-501 -672,-650 -1528,-1011 -2409,-1016l-67 0c-466,0 -934,3 -1390,13 -884,18 -1734,396 -2394,1058 -139,139 -264,287 -377,443 -70,98 -135,200 -195,303 1168,129 2428,200 3743,200z"/>
   <path class="fil43" d="M11531 3060c1304,0 2555,-70 3715,-197 -59,-104 -124,-205 -194,-304 -127,-177 -271,-345 -432,-500 -672,-650 -1528,-1010 -2409,-1015l-67 0c-466,0 -934,3 -1390,13 -884,18 -1734,396 -2394,1057 -138,139 -264,287 -376,443 -70,98 -135,200 -195,303 1168,129 2428,200 3743,200z"/>
   <path class="fil43" d="M11531 3059c1304,0 2555,-69 3714,-197 -59,-104 -124,-205 -194,-303 -127,-177 -272,-345 -432,-499 -672,-649 -1528,-1009 -2409,-1014l-67 0c-466,0 -934,3 -1390,13 -884,18 -1734,395 -2394,1056 -138,138 -264,286 -376,442 -70,98 -135,200 -195,303 1167,129 2428,200 3742,200z"/>
   <path class="fil43" d="M11531 3057c1304,0 2554,-69 3714,-196 -59,-104 -124,-205 -194,-303 -127,-177 -271,-344 -431,-498 -672,-648 -1528,-1008 -2409,-1013l-67 0c-466,0 -934,3 -1390,13 -884,18 -1734,395 -2394,1055 -138,138 -264,286 -376,441 -70,98 -135,200 -195,303 1167,129 2427,199 3742,199z"/>
   <path class="fil44" d="M11531 3056c1304,0 2554,-69 3713,-196 -59,-104 -124,-205 -194,-303 -127,-176 -271,-343 -431,-498 -672,-647 -1528,-1007 -2408,-1012l-67 0c-466,0 -934,3 -1390,13 -884,18 -1734,394 -2394,1053 -138,138 -264,286 -376,441 -70,98 -135,199 -195,303 1167,129 2427,199 3741,199z"/>
   <path class="fil44" d="M11531 3055c1304,0 2554,-69 3713,-196 -59,-104 -124,-205 -194,-303 -127,-176 -271,-343 -431,-497 -672,-647 -1528,-1006 -2408,-1011l-67 0c-466,0 -934,3 -1390,13 -884,18 -1734,394 -2393,1052 -138,138 -264,286 -376,440 -70,98 -135,199 -195,302 1167,129 2427,199 3741,199z"/>
   <path class="fil45" d="M11531 3054c1303,0 2553,-69 3712,-196 -59,-103 -124,-204 -193,-302 -127,-176 -271,-343 -432,-497 -672,-646 -1527,-1005 -2408,-1009l-67 0c-466,0 -934,3 -1390,13 -883,18 -1733,394 -2393,1051 -138,138 -264,285 -376,440 -70,98 -135,199 -195,302 1167,129 2427,199 3741,199z"/>
   <path class="fil45" d="M11531 3053c1303,0 2553,-69 3712,-196 -59,-103 -124,-204 -194,-302 -127,-176 -271,-342 -431,-496 -672,-645 -1527,-1004 -2408,-1008l-67 0c-466,0 -934,3 -1390,13 -883,18 -1733,393 -2393,1050 -138,138 -264,285 -376,439 -70,98 -135,199 -195,302 1167,128 2426,198 3740,198z"/>
   <path class="fil45" d="M11531 3052c1303,0 2553,-69 3711,-195 -59,-103 -124,-204 -193,-302 -127,-176 -271,-342 -431,-496 -672,-645 -1527,-1002 -2407,-1007l-67 0c-466,0 -934,3 -1389,13 -883,18 -1733,393 -2393,1049 -138,137 -263,284 -376,438 -70,98 -135,199 -195,302 1167,128 2426,198 3739,198z"/>
   <path class="fil46" d="M11531 3051c1303,0 2552,-69 3711,-195 -59,-103 -124,-204 -193,-302 -127,-175 -271,-342 -431,-495 -671,-644 -1527,-1001 -2407,-1006l-67 0c-466,0 -934,3 -1389,13 -883,18 -1733,392 -2392,1048 -138,137 -263,284 -376,438 -70,98 -135,199 -195,301 1167,128 2426,198 3739,198z"/>
   <path class="fil46" d="M11531 3050c1303,0 2552,-69 3711,-195 -59,-103 -124,-204 -193,-301 -127,-175 -271,-341 -431,-495 -671,-643 -1527,-1000 -2407,-1005l-67 0c-466,0 -933,3 -1389,13 -883,18 -1733,392 -2392,1047 -138,137 -263,284 -375,437 -70,98 -135,198 -195,301 1166,128 2425,198 3739,198z"/>
   <path class="fil46" d="M11531 3049c1303,0 2552,-69 3710,-195 -59,-103 -124,-203 -193,-301 -127,-175 -271,-341 -431,-494 -671,-643 -1527,-999 -2407,-1004l-67 0c-466,0 -933,3 -1389,13 -883,18 -1732,391 -2392,1046 -138,137 -263,283 -375,437 -70,98 -135,198 -195,301 1166,128 2425,197 3738,197z"/>
   <path class="fil47" d="M11531 3048c1302,0 2551,-69 3710,-194 -59,-103 -123,-203 -193,-301 -127,-175 -271,-340 -431,-494 -671,-642 -1526,-998 -2406,-1003l-67 0c-465,0 -933,3 -1389,13 -883,18 -1732,391 -2392,1044 -138,137 -263,283 -375,436 -70,98 -135,198 -195,301 1166,128 2425,197 3738,197z"/>
   <path class="fil47" d="M11531 3047c1302,0 2551,-69 3709,-194 -59,-103 -123,-203 -193,-300 -127,-175 -271,-340 -431,-493 -671,-641 -1526,-997 -2406,-1002l-66 0c-465,0 -933,3 -1389,13 -883,18 -1732,391 -2391,1043 -138,137 -263,282 -375,436 -70,98 -135,198 -195,301 1166,128 2425,197 3737,197z"/>
   <path class="fil48" d="M11531 3046c1302,0 2551,-69 3709,-194 -59,-103 -124,-203 -193,-300 -127,-174 -271,-339 -431,-492 -671,-641 -1526,-996 -2406,-1001l-67 0c-465,0 -933,3 -1389,13 -883,18 -1732,390 -2391,1042 -138,136 -263,282 -375,435 -70,98 -135,198 -195,301 1166,127 2424,197 3737,197z"/>
   <path class="fil48" d="M11531 3045c1302,0 2551,-68 3708,-194 -59,-103 -124,-203 -193,-300 -127,-174 -271,-339 -430,-491 -671,-640 -1526,-995 -2406,-1000l-67 0c-465,0 -933,3 -1388,13 -883,18 -1732,390 -2391,1041 -138,136 -263,281 -375,434 -70,97 -135,198 -195,300 1166,127 2424,197 3736,197z"/>
   <path class="fil48" d="M11531 3044c1302,0 2550,-68 3708,-193 -59,-103 -124,-203 -193,-300 -127,-174 -271,-338 -430,-490 -671,-639 -1526,-994 -2406,-999l-66 0c-465,0 -933,3 -1388,13 -883,18 -1732,389 -2391,1040 -138,136 -262,281 -374,433 -70,98 -135,198 -195,301 1165,127 2424,196 3736,196z"/>
   <path class="fil49" d="M11531 3043c1302,0 2550,-68 3707,-193 -59,-103 -124,-203 -193,-300 -127,-173 -270,-338 -430,-490 -671,-639 -1526,-993 -2405,-998l-67 0c-465,0 -933,3 -1388,13 -882,18 -1731,389 -2390,1039 -137,136 -262,281 -374,433 -70,98 -135,198 -195,300 1165,127 2423,196 3735,196z"/>
   <path class="fil49" d="M11531 3042c1302,0 2550,-68 3707,-193 -59,-103 -124,-203 -193,-300 -127,-173 -270,-337 -430,-489 -671,-638 -1526,-992 -2405,-996l-66 0c-465,0 -933,3 -1388,13 -882,18 -1731,388 -2390,1038 -137,135 -262,280 -374,432 -70,97 -135,198 -195,300 1165,127 2423,196 3735,196z"/>
   <path class="fil50" d="M11531 3041c1301,0 2549,-68 3706,-193 -59,-103 -124,-203 -193,-300 -126,-173 -270,-337 -430,-488 -671,-637 -1525,-991 -2405,-995l-67 0c-465,0 -933,3 -1388,13 -882,18 -1731,388 -2390,1036 -137,135 -262,280 -374,432 -70,97 -135,198 -195,300 1165,127 2423,196 3734,196z"/>
   <path class="fil50" d="M11531 3040c1301,0 2549,-68 3706,-193 -59,-103 -124,-203 -193,-300 -126,-173 -270,-336 -429,-487 -671,-636 -1525,-990 -2404,-994l-66 0c-465,0 -933,3 -1388,13 -882,18 -1731,388 -2390,1035 -137,135 -262,280 -374,431 -70,97 -135,197 -195,300 1165,126 2422,196 3734,196z"/>
   <path class="fil50" d="M11531 3039c1301,0 2549,-68 3705,-192 -59,-102 -124,-202 -193,-300 -126,-173 -270,-336 -429,-487 -671,-636 -1525,-988 -2404,-993l-66 0c-465,0 -932,3 -1388,13 -882,18 -1731,387 -2390,1034 -137,135 -262,279 -374,430 -70,97 -135,197 -195,300 1165,126 2422,195 3733,195z"/>
   <path class="fil51" d="M11531 3038c1301,0 2548,-68 3705,-192 -59,-102 -124,-202 -193,-299 -126,-172 -270,-335 -429,-486 -671,-635 -1525,-987 -2404,-992l-67 0c-465,0 -932,3 -1387,13 -882,18 -1731,387 -2389,1033 -137,135 -262,279 -373,430 -70,97 -135,197 -195,299 1165,126 2422,195 3733,195z"/>
   <path class="fil51" d="M11531 3037c1301,0 2548,-68 3705,-192 -59,-102 -124,-202 -193,-299 -126,-172 -270,-335 -429,-486 -671,-634 -1525,-986 -2404,-991l-66 0c-465,0 -932,3 -1387,13 -882,18 -1730,386 -2389,1032 -137,135 -262,278 -373,429 -70,97 -135,197 -195,299 1164,126 2422,195 3733,195z"/>
   <path class="fil52" d="M11531 3036c1300,0 2548,-68 3704,-192 -59,-102 -124,-202 -193,-299 -126,-172 -270,-335 -429,-485 -670,-634 -1525,-985 -2404,-990l-66 0c-465,0 -932,3 -1387,13 -882,18 -1730,386 -2389,1031 -137,134 -262,278 -373,429 -70,97 -135,197 -195,299 1164,126 2421,195 3732,195z"/>
   <path class="fil52" d="M11531 3035c1300,0 2547,-68 3704,-191 -59,-102 -124,-202 -193,-299 -126,-172 -270,-334 -429,-484 -670,-633 -1524,-984 -2403,-989l-66 0c-465,0 -932,3 -1387,13 -882,18 -1730,386 -2389,1030 -137,134 -262,278 -373,428 -70,97 -135,197 -194,299 1164,126 2421,194 3732,194z"/>
   <path class="fil52" d="M11531 3034c1300,0 2547,-68 3703,-191 -59,-102 -124,-202 -193,-298 -126,-171 -270,-334 -429,-484 -670,-632 -1524,-983 -2403,-988l-66 0c-465,0 -932,3 -1387,12 -882,18 -1730,385 -2388,1029 -137,134 -262,277 -373,428 -70,97 -135,196 -194,298 1164,126 2421,194 3731,194z"/>
   <path class="fil53" d="M11531 3033c1300,0 2547,-67 3703,-191 -59,-102 -123,-201 -193,-298 -126,-171 -270,-333 -429,-483 -670,-632 -1524,-982 -2403,-987l-66 0c-465,0 -932,3 -1387,12 -882,18 -1730,385 -2388,1027 -137,134 -262,277 -373,427 -70,97 -135,196 -194,298 1164,125 2420,194 3731,194z"/>
   <path class="fil53" d="M11531 3032c1300,0 2546,-67 3702,-191 -59,-102 -123,-201 -193,-298 -126,-171 -270,-333 -429,-483 -670,-631 -1524,-981 -2403,-986l-66 0c-465,0 -932,3 -1387,12 -882,18 -1730,384 -2388,1026 -137,134 -262,276 -373,426 -70,97 -135,196 -194,298 1164,125 2420,194 3730,194z"/>
   <path class="fil54" d="M11531 3031c1300,0 2546,-67 3702,-191 -59,-102 -123,-201 -193,-298 -126,-171 -270,-333 -429,-482 -670,-630 -1524,-980 -2402,-984l-66 0c-465,0 -932,3 -1387,12 -882,18 -1729,384 -2388,1025 -137,134 -261,276 -373,426 -70,97 -135,196 -194,298 1164,125 2420,193 3730,193z"/>
   <path class="fil54" d="M11531 3030c1300,0 2546,-67 3701,-190 -59,-102 -123,-201 -193,-298 -126,-171 -269,-332 -428,-481 -670,-629 -1524,-979 -2402,-983l-66 0c-465,0 -932,3 -1386,12 -881,18 -1729,383 -2387,1024 -137,133 -261,276 -373,425 -70,97 -135,196 -194,298 1163,125 2419,193 3729,193z"/>
   <path class="fil54" d="M11531 3029c1299,0 2545,-67 3701,-190 -59,-102 -123,-201 -193,-297 -126,-170 -269,-332 -428,-481 -670,-629 -1524,-978 -2402,-982l-66 0c-465,0 -931,3 -1386,12 -881,18 -1729,383 -2387,1023 -137,133 -261,276 -373,425 -70,96 -134,196 -194,297 1163,125 2419,193 3729,193z"/>
   <path class="fil55" d="M11531 3028c1299,0 2545,-67 3700,-190 -59,-102 -123,-201 -193,-297 -126,-170 -269,-331 -428,-480 -670,-628 -1524,-977 -2402,-981l-66 0c-464,0 -931,3 -1386,12 -881,18 -1729,383 -2387,1022 -137,133 -261,275 -373,424 -70,96 -134,196 -194,297 1163,125 2419,193 3728,193z"/>
   <path class="fil55" d="M11531 3027c1299,0 2545,-67 3700,-190 -59,-101 -123,-200 -192,-297 -126,-170 -269,-331 -428,-480 -670,-627 -1523,-975 -2401,-980l-66 0c-464,0 -931,3 -1386,12 -881,18 -1729,382 -2387,1021 -137,133 -261,275 -373,424 -70,96 -134,195 -194,297 1163,125 2418,193 3728,193z"/>
   <path class="fil55" d="M11531 3026c1299,0 2544,-67 3699,-190 -59,-101 -123,-200 -193,-296 -126,-170 -269,-330 -428,-479 -670,-627 -1523,-974 -2401,-979l-66 0c-464,0 -931,3 -1386,12 -881,18 -1729,382 -2387,1020 -137,133 -261,274 -372,423 -70,96 -134,195 -194,297 1163,124 2418,192 3727,192z"/>
   <path class="fil56" d="M11531 3025c1299,0 2544,-67 3699,-189 -59,-101 -123,-200 -192,-296 -126,-169 -269,-330 -428,-478 -670,-626 -1523,-973 -2401,-978l-66 0c-464,0 -931,3 -1386,12 -881,18 -1728,381 -2386,1018 -137,132 -261,274 -372,422 -70,96 -134,195 -194,297 1163,124 2418,192 3727,192z"/>
   <path class="fil56" d="M11531 3024c1299,0 2544,-67 3699,-189 -59,-101 -123,-200 -193,-296 -126,-169 -269,-329 -428,-478 -670,-625 -1523,-972 -2401,-977l-66 0c-464,0 -931,3 -1386,12 -881,18 -1728,381 -2386,1017 -137,132 -261,274 -372,422 -70,96 -134,195 -194,296 1163,124 2418,192 3726,192z"/>
   <path class="fil57" d="M11531 3023c1298,0 2543,-67 3698,-189 -59,-101 -123,-200 -192,-296 -126,-169 -269,-329 -428,-477 -670,-625 -1523,-971 -2400,-976l-66 0c-464,0 -931,3 -1386,12 -881,18 -1728,380 -2386,1016 -137,132 -261,273 -372,421 -70,96 -134,195 -194,296 1162,124 2417,192 3726,192z"/>
   <path class="fil57" d="M11531 3022c1298,0 2543,-67 3698,-189 -59,-101 -123,-200 -192,-296 -126,-169 -269,-328 -427,-476 -670,-624 -1523,-970 -2400,-975l-66 0c-464,0 -931,3 -1385,12 -881,18 -1728,380 -2386,1015 -136,132 -261,273 -372,420 -70,96 -134,195 -194,296 1162,124 2417,191 3726,191z"/>
   <path class="fil57" d="M11531 3021c1298,0 2543,-66 3697,-188 -59,-101 -123,-200 -192,-296 -126,-168 -269,-328 -427,-476 -670,-623 -1522,-969 -2400,-974l-66 0c-464,0 -931,3 -1385,12 -881,18 -1728,380 -2385,1014 -136,132 -261,272 -372,420 -70,96 -134,195 -194,296 1162,124 2417,191 3725,191z"/>
   <path class="fil58" d="M11531 3020c1298,0 2542,-67 3697,-188 -59,-101 -123,-200 -192,-296 -126,-168 -269,-328 -427,-475 -670,-622 -1522,-968 -2400,-972l-66 0c-464,0 -931,3 -1385,12 -881,18 -1728,379 -2385,1013 -136,131 -260,272 -371,419 -70,96 -134,195 -194,296 1162,124 2416,191 3725,191z"/>
   <path class="fil58" d="M11531 3019c1298,0 2542,-66 3696,-188 -59,-101 -123,-199 -192,-295 -126,-168 -269,-327 -427,-474 -669,-622 -1522,-967 -2400,-971l-66 0c-464,0 -931,3 -1385,12 -881,18 -1727,379 -2385,1012 -136,131 -260,272 -371,419 -70,96 -134,194 -194,295 1162,123 2416,191 3724,191z"/>
   <path class="fil59" d="M11531 3018c1297,0 2542,-66 3696,-188 -59,-101 -123,-199 -192,-295 -126,-168 -268,-327 -427,-473 -669,-621 -1522,-966 -2399,-970l-66 0c-464,0 -931,3 -1385,12 -880,18 -1727,378 -2385,1010 -136,131 -260,271 -371,418 -70,96 -134,194 -194,295 1162,123 2416,191 3724,191z"/>
   <path class="fil59" d="M11531 3017c1297,0 2541,-66 3695,-187 -59,-101 -123,-199 -192,-295 -126,-168 -268,-326 -427,-473 -669,-620 -1522,-965 -2399,-969l-66 0c-464,0 -930,3 -1385,12 -880,17 -1727,378 -2384,1009 -136,131 -260,271 -371,418 -70,96 -134,194 -194,295 1162,123 2415,190 3723,190z"/>
   <path class="fil59" d="M11531 3016c1297,0 2541,-66 3695,-187 -59,-101 -123,-199 -192,-295 -126,-167 -268,-326 -426,-472 -669,-620 -1522,-964 -2399,-968l-66 0c-464,0 -930,3 -1384,12 -880,17 -1727,377 -2384,1008 -136,131 -260,271 -371,417 -69,96 -134,194 -194,295 1161,123 2415,190 3723,190z"/>
   <path class="fil60" d="M11531 3015c1297,0 2541,-66 3694,-187 -59,-101 -123,-199 -192,-295 -126,-167 -268,-325 -426,-472 -669,-619 -1522,-962 -2399,-967l-66 0c-464,0 -930,3 -1384,12 -880,17 -1727,377 -2384,1007 -136,131 -260,270 -371,416 -70,96 -134,194 -194,295 1161,123 2415,190 3722,190z"/>
   <path class="fil60" d="M11531 3014c1297,0 2540,-66 3694,-187 -59,-101 -123,-199 -192,-294 -126,-167 -268,-325 -426,-471 -669,-618 -1521,-961 -2398,-966l-66 0c-464,0 -930,3 -1384,12 -880,17 -1727,377 -2384,1006 -136,130 -260,270 -371,416 -69,95 -134,194 -194,294 1161,123 2415,190 3722,190z"/>
   <path class="fil61" d="M11531 3013c1297,0 2540,-66 3693,-187 -59,-101 -123,-199 -192,-294 -126,-167 -268,-324 -426,-470 -669,-618 -1521,-960 -2398,-965l-66 0c-464,0 -930,3 -1384,12 -880,17 -1726,376 -2384,1005 -136,130 -260,269 -371,415 -69,95 -134,194 -194,294 1161,123 2414,189 3721,189z"/>
   <path class="fil61" d="M11531 3011c1296,0 2540,-66 3693,-186 -59,-100 -123,-199 -192,-294 -126,-166 -268,-324 -426,-470 -669,-617 -1521,-959 -2398,-964l-66 0c-464,0 -930,3 -1384,12 -880,17 -1726,376 -2383,1004 -136,130 -260,269 -371,415 -69,95 -134,193 -193,294 1161,122 2414,189 3721,189z"/>
   <path class="fil61" d="M11531 3011c1296,0 2539,-66 3692,-186 -59,-100 -123,-198 -192,-294 -126,-166 -268,-324 -426,-469 -669,-616 -1521,-958 -2398,-963l-66 0c-464,0 -930,3 -1384,12 -880,17 -1726,375 -2383,1003 -136,130 -260,269 -370,414 -69,95 -134,193 -193,294 1161,122 2414,189 3720,189z"/>
   <path class="fil62" d="M11531 3010c1296,0 2539,-66 3692,-186 -59,-100 -123,-198 -192,-293 -126,-166 -268,-323 -426,-468 -669,-616 -1521,-957 -2397,-962l-66 0c-464,0 -930,3 -1384,12 -880,17 -1726,375 -2383,1001 -136,130 -260,268 -370,414 -69,95 -134,193 -193,293 1161,122 2413,189 3720,189z"/>
   <path class="fil62" d="M11531 3008c1296,0 2539,-66 3692,-186 -59,-100 -123,-198 -192,-293 -126,-166 -268,-323 -426,-468 -669,-615 -1521,-956 -2397,-960l-66 0c-464,0 -930,3 -1384,12 -880,17 -1726,374 -2383,1000 -136,130 -260,268 -370,413 -69,95 -134,193 -193,293 1160,122 2413,189 3719,189z"/>
   <path class="fil62" d="M11531 3007c1296,0 2539,-66 3691,-185 -59,-100 -123,-198 -192,-293 -126,-166 -268,-322 -426,-467 -669,-614 -1520,-955 -2397,-959l-66 0c-464,0 -930,3 -1383,12 -880,17 -1726,374 -2382,999 -136,129 -259,268 -370,413 -69,95 -134,193 -193,293 1160,122 2413,188 3719,188z"/>
   <path class="fil62" d="M11531 3006c1296,0 2538,-65 3691,-185 -59,-100 -123,-198 -192,-293 -125,-165 -268,-322 -426,-467 -669,-613 -1520,-954 -2397,-958l-66 0c-464,0 -929,3 -1383,12 -879,17 -1725,374 -2382,998 -136,129 -259,267 -370,412 -69,95 -134,193 -193,293 1160,122 2412,188 3718,188z"/>
   <path class="fil62" d="M11531 3005c1296,0 2538,-65 3690,-185 -59,-100 -123,-197 -192,-292 -125,-165 -268,-321 -425,-466 -669,-613 -1520,-953 -2397,-957l-66 0c-463,0 -929,3 -1383,12 -879,17 -1725,373 -2382,997 -136,129 -259,267 -370,411 -69,95 -134,193 -193,293 1160,122 2412,188 3718,188z"/>
   <path class="fil63" d="M11531 3004c1295,0 2537,-65 3690,-185 -59,-100 -123,-197 -192,-292 -125,-165 -268,-321 -425,-465 -668,-612 -1520,-952 -2396,-956l-66 0c-464,0 -929,3 -1383,12 -879,17 -1725,373 -2382,996 -136,129 -259,267 -370,411 -69,95 -134,192 -193,292 1160,121 2412,188 3717,188z"/>
   <path class="fil63" d="M11531 3003c1295,0 2537,-65 3689,-185 -59,-100 -123,-197 -191,-292 -125,-165 -268,-321 -425,-465 -668,-611 -1520,-951 -2396,-955l-66 0c-463,0 -929,3 -1383,12 -879,17 -1725,372 -2381,995 -136,129 -259,266 -370,410 -69,95 -134,192 -193,292 1160,121 2412,187 3717,187z"/>
   <path class="fil64" d="M11531 3002c1295,0 2537,-65 3689,-184 -59,-100 -123,-197 -191,-292 -125,-164 -268,-320 -425,-464 -668,-611 -1520,-949 -2396,-954l-66 0c-463,0 -929,3 -1383,12 -879,17 -1725,372 -2381,993 -136,128 -259,266 -369,410 -69,95 -134,192 -193,292 1160,121 2411,187 3717,187z"/>
   <path class="fil64" d="M11531 3001c1295,0 2537,-65 3688,-184 -59,-100 -123,-197 -191,-292 -125,-164 -267,-320 -425,-463 -668,-610 -1520,-948 -2396,-953l-66 0c-463,0 -929,3 -1383,12 -879,17 -1725,371 -2381,992 -136,128 -259,265 -369,409 -69,95 -134,192 -193,292 1159,121 2411,187 3716,187z"/>
   <path class="fil64" d="M11531 3000c1295,0 2536,-65 3688,-184 -59,-100 -123,-197 -191,-291 -125,-164 -267,-319 -425,-463 -668,-609 -1520,-947 -2395,-952l-66 0c-463,0 -929,3 -1383,12 -879,17 -1724,371 -2381,991 -136,128 -259,265 -369,408 -69,95 -134,192 -193,292 1159,121 2411,187 3716,187z"/>
   <path class="fil65" d="M11531 2999c1294,0 2536,-65 3687,-184 -59,-100 -123,-197 -191,-291 -125,-164 -267,-319 -425,-462 -668,-609 -1519,-946 -2395,-951l-66 0c-463,0 -929,3 -1382,12 -879,17 -1724,371 -2380,990 -135,128 -259,265 -369,408 -69,95 -134,192 -193,291 1159,121 2410,187 3715,187z"/>
   <path class="fil65" d="M11531 2998c1294,0 2536,-65 3687,-184 -59,-99 -123,-197 -191,-291 -125,-163 -267,-318 -424,-461 -668,-608 -1519,-945 -2395,-950l-66 0c-463,0 -929,3 -1382,12 -879,17 -1724,370 -2380,989 -135,128 -259,264 -369,407 -69,94 -133,192 -193,291 1159,120 2410,186 3715,186z"/>
   <path class="fil65" d="M11531 2997c1294,0 2535,-65 3686,-183 -59,-100 -123,-197 -191,-291 -125,-163 -267,-318 -424,-461 -668,-607 -1519,-944 -2395,-949l-66 0c-463,0 -929,3 -1382,12 -879,17 -1724,370 -2380,988 -135,128 -259,264 -369,407 -69,94 -134,192 -193,291 1159,120 2410,186 3714,186z"/>
   <path class="fil66" d="M11531 2996c1294,0 2535,-65 3686,-183 -59,-99 -123,-196 -191,-291 -125,-163 -267,-317 -424,-460 -668,-606 -1519,-943 -2394,-947l-66 0c-463,0 -929,3 -1382,12 -879,17 -1724,369 -2380,987 -135,127 -258,263 -369,406 -69,94 -133,191 -193,291 1159,120 2409,186 3714,186z"/>
   <path class="fil66" d="M11531 2995c1294,0 2535,-65 3685,-183 -59,-99 -123,-196 -191,-290 -125,-163 -267,-317 -424,-459 -668,-606 -1519,-942 -2394,-946l-66 0c-463,0 -929,3 -1382,12 -878,17 -1724,369 -2379,986 -135,127 -258,263 -369,405 -69,94 -133,191 -193,291 1159,120 2409,186 3713,186z"/>
   <path class="fil67" d="M11531 2994c1294,0 2534,-64 3685,-183 -59,-99 -123,-196 -191,-290 -125,-163 -267,-316 -424,-459 -668,-605 -1519,-941 -2394,-945l-66 0c-463,0 -928,3 -1382,12 -878,17 -1723,369 -2379,984 -135,127 -258,263 -368,405 -69,94 -133,191 -193,290 1158,120 2409,185 3713,185z"/>
   <path class="fil67" d="M11531 2993c1293,0 2534,-64 3684,-182 -59,-99 -123,-196 -191,-290 -125,-162 -267,-316 -424,-458 -668,-604 -1519,-940 -2394,-944l-66 0c-463,0 -928,3 -1381,12 -878,17 -1723,368 -2379,983 -135,127 -258,262 -368,405 -69,94 -133,191 -193,290 1158,120 2408,185 3712,185z"/>
   <path class="fil67" d="M11531 2992c1293,0 2534,-64 3684,-182 -59,-99 -123,-196 -191,-290 -125,-162 -267,-315 -424,-457 -668,-604 -1518,-939 -2394,-943l-66 0c-463,0 -928,3 -1381,12 -878,17 -1723,368 -2379,982 -135,127 -258,262 -368,404 -69,94 -133,191 -193,290 1158,120 2408,185 3712,185z"/>
   <path class="fil68" d="M11531 2991c1293,0 2533,-64 3683,-182 -59,-99 -123,-196 -191,-290 -125,-162 -267,-315 -423,-457 -668,-603 -1518,-938 -2393,-942l-66 0c-463,0 -928,3 -1381,12 -878,17 -1723,367 -2379,981 -135,126 -258,262 -368,403 -69,94 -133,191 -193,290 1158,120 2408,185 3711,185z"/>
   <path class="fil68" d="M11531 2990c1293,0 2533,-64 3683,-182 -59,-99 -123,-196 -191,-289 -125,-162 -267,-315 -423,-456 -668,-602 -1518,-937 -2393,-941l-66 0c-463,0 -928,3 -1381,12 -878,17 -1723,367 -2378,980 -135,126 -258,261 -368,403 -69,94 -133,191 -193,289 1158,119 2407,184 3711,184z"/>
   <path class="fil69" d="M11531 2989c1293,0 2533,-64 3683,-181 -59,-99 -123,-196 -191,-289 -125,-161 -266,-314 -423,-455 -667,-602 -1518,-935 -2393,-940l-66 0c-463,0 -928,3 -1381,12 -878,17 -1722,366 -2378,979 -135,126 -258,261 -368,402 -69,94 -133,190 -192,289 1158,119 2407,184 3710,184z"/>
   <path class="fil69" d="M11531 2988c1293,0 2532,-64 3682,-181 -59,-99 -123,-195 -191,-289 -125,-161 -266,-314 -423,-455 -667,-601 -1518,-934 -2393,-939l-66 0c-463,0 -928,3 -1381,12 -878,17 -1722,366 -2378,978 -135,126 -258,261 -368,402 -69,94 -133,190 -192,289 1158,119 2407,184 3710,184z"/>
   <path class="fil69" d="M11531 2987c1292,0 2532,-64 3682,-181 -59,-99 -123,-195 -191,-289 -125,-161 -266,-313 -423,-454 -667,-600 -1518,-933 -2392,-938l-66 0c-463,0 -928,3 -1381,12 -878,17 -1722,366 -2378,977 -135,126 -258,260 -368,401 -69,94 -133,190 -192,289 1157,119 2407,184 3709,184z"/>
   <path class="fil69" d="M11531 2986c1292,0 2532,-64 3681,-181 -59,-99 -123,-195 -191,-289 -125,-161 -266,-313 -423,-454 -667,-599 -1517,-932 -2392,-937l-66 0c-463,0 -928,3 -1381,12 -878,17 -1722,365 -2378,975 -135,126 -258,260 -368,401 -69,94 -133,190 -192,288 1157,119 2406,184 3709,184z"/>
   <path class="fil69" d="M11531 2985c1292,0 2531,-64 3681,-181 -59,-99 -122,-195 -191,-288 -125,-160 -266,-312 -423,-453 -667,-599 -1517,-931 -2392,-935l-66 0c-463,0 -928,3 -1381,12 -878,17 -1722,365 -2377,974 -135,125 -258,259 -367,400 -69,94 -133,190 -192,288 1157,119 2406,183 3708,183z"/>
   <path class="fil70" d="M11531 2984c1292,0 2531,-64 3680,-180 -59,-98 -122,-195 -191,-288 -125,-160 -266,-312 -423,-452 -667,-598 -1517,-930 -2392,-934l-66 0c-463,0 -928,3 -1380,12 -878,17 -1722,364 -2377,973 -135,125 -257,259 -367,399 -69,93 -133,190 -192,288 1157,119 2406,183 3708,183z"/>
   <path class="fil70" d="M11531 2983c1292,0 2531,-64 3680,-180 -59,-98 -122,-194 -191,-288 -125,-160 -266,-312 -423,-452 -667,-597 -1517,-929 -2391,-933l-66 0c-463,0 -927,3 -1380,12 -878,17 -1722,364 -2377,972 -135,125 -257,259 -367,399 -69,93 -133,190 -192,288 1157,118 2405,183 3707,183z"/>
   <path class="fil70" d="M11531 2982c1292,0 2530,-64 3679,-180 -59,-98 -122,-194 -191,-288 -125,-160 -266,-311 -422,-451 -667,-597 -1517,-928 -2391,-932l-66 0c-463,0 -927,3 -1380,12 -877,17 -1721,363 -2376,971 -135,125 -257,258 -367,398 -69,93 -133,189 -192,288 1157,118 2405,183 3707,183z"/>
   <path class="fil71" d="M11531 2981c1291,0 2530,-63 3679,-180 -59,-98 -122,-194 -191,-287 -125,-160 -266,-311 -422,-451 -667,-596 -1517,-927 -2391,-931l-66 0c-462,0 -927,3 -1380,12 -877,17 -1721,363 -2376,970 -135,125 -257,258 -367,398 -69,93 -133,189 -192,287 1157,118 2405,182 3707,182z"/>
   <path class="fil71" d="M11531 2980c1291,0 2530,-63 3678,-179 -59,-98 -122,-194 -191,-287 -125,-159 -266,-310 -422,-450 -667,-595 -1517,-926 -2391,-930l-66 0c-462,0 -927,3 -1380,12 -877,17 -1721,363 -2376,969 -135,125 -257,258 -367,397 -69,93 -133,189 -192,287 1156,118 2404,182 3706,182z"/>
   <path class="fil72" d="M11531 2979c1291,0 2529,-63 3678,-179 -59,-98 -122,-194 -190,-287 -125,-159 -266,-310 -422,-449 -667,-595 -1516,-925 -2390,-929l-66 0c-462,0 -927,3 -1380,12 -877,17 -1721,362 -2376,967 -134,124 -257,257 -367,396 -69,93 -133,189 -192,287 1156,118 2404,182 3706,182z"/>
   <path class="fil72" d="M11531 2978c1291,0 2529,-63 3677,-179 -59,-98 -122,-194 -191,-287 -125,-159 -266,-309 -422,-449 -667,-594 -1516,-924 -2390,-928l-66 0c-462,0 -927,3 -1380,12 -877,17 -1721,362 -2376,966 -134,124 -257,257 -366,396 -69,93 -133,189 -192,287 1156,118 2404,182 3705,182z"/>
   <path class="fil72" d="M11531 2977c1291,0 2529,-63 3677,-179 -59,-98 -122,-194 -190,-287 -125,-159 -266,-309 -422,-448 -667,-593 -1516,-922 -2390,-927l-66 0c-462,0 -927,3 -1379,12 -877,17 -1721,361 -2375,965 -134,124 -257,256 -366,395 -69,93 -133,189 -192,287 1156,117 2403,182 3705,182z"/>
   <path class="fil73" d="M11531 2976c1291,0 2528,-63 3676,-179 -59,-98 -122,-194 -191,-287 -124,-158 -265,-308 -422,-447 -667,-593 -1516,-921 -2390,-926l-66 0c-462,0 -927,3 -1379,12 -877,17 -1720,361 -2375,964 -134,124 -257,256 -366,395 -69,93 -133,189 -192,287 1156,117 2403,181 3704,181z"/>
   <path class="fil73" d="M11531 2975c1290,0 2528,-63 3676,-178 -59,-98 -122,-193 -190,-286 -124,-158 -265,-308 -422,-447 -667,-592 -1516,-920 -2390,-925l-66 0c-462,0 -927,3 -1379,12 -877,17 -1720,360 -2375,963 -134,124 -256,256 -366,394 -69,93 -133,188 -192,286 1156,117 2403,181 3704,181z"/>
   <path class="fil73" d="M11531 2974c1290,0 2528,-63 3675,-178 -59,-98 -122,-193 -190,-286 -124,-158 -265,-308 -421,-446 -667,-591 -1516,-919 -2389,-924l-66 0c-462,0 -927,3 -1379,12 -877,17 -1720,360 -2375,962 -134,123 -256,255 -366,393 -69,93 -132,188 -192,286 1155,117 2403,181 3703,181z"/>
   <path class="fil74" d="M11531 2973c1290,0 2527,-63 3675,-178 -59,-98 -122,-193 -190,-286 -124,-158 -265,-307 -421,-445 -666,-590 -1516,-918 -2389,-922l-66 0c-462,0 -927,3 -1379,12 -877,17 -1720,360 -2374,961 -134,123 -256,255 -366,393 -69,93 -132,188 -192,286 1155,117 2402,181 3703,181z"/>
   <path class="fil74" d="M11531 2972c1290,0 2527,-63 3674,-178 -59,-98 -122,-193 -190,-286 -124,-157 -265,-307 -421,-445 -666,-590 -1515,-917 -2389,-921l-66 0c-462,0 -926,3 -1379,12 -877,17 -1720,359 -2374,959 -134,123 -256,255 -366,392 -69,93 -132,188 -192,286 1155,117 2402,180 3702,180z"/>
   <path class="fil75" d="M11531 2971c1290,0 2527,-63 3674,-178 -59,-98 -122,-193 -190,-285 -124,-157 -265,-306 -421,-444 -666,-589 -1515,-916 -2389,-920l-66 0c-462,0 -926,3 -1379,12 -876,17 -1719,359 -2374,958 -134,123 -256,254 -366,392 -69,93 -132,188 -191,285 1155,117 2402,180 3702,180z"/>
   <path class="fil75" d="M11531 2970c1290,0 2526,-63 3674,-177 -59,-98 -122,-193 -190,-285 -124,-157 -265,-306 -421,-443 -666,-588 -1515,-915 -2388,-919l-66 0c-462,0 -926,3 -1378,12 -876,17 -1719,358 -2374,957 -134,123 -256,254 -366,391 -68,92 -132,188 -191,285 1155,116 2401,180 3701,180z"/>
   <path class="fil75" d="M11531 2969c1289,0 2526,-63 3673,-177 -59,-97 -122,-193 -190,-285 -124,-157 -265,-305 -421,-443 -666,-588 -1515,-914 -2388,-918l-66 0c-462,0 -926,3 -1378,12 -876,17 -1719,358 -2373,956 -134,123 -256,253 -365,391 -68,92 -132,188 -191,285 1155,116 2401,180 3701,180z"/>
   <path class="fil76" d="M11531 2968c1289,0 2526,-62 3673,-177 -59,-97 -122,-192 -190,-285 -124,-157 -265,-305 -421,-442 -666,-587 -1515,-913 -2388,-917l-66 0c-462,0 -926,3 -1378,12 -876,17 -1719,358 -2373,955 -134,122 -256,253 -365,390 -68,92 -132,187 -191,285 1155,116 2401,179 3700,179z"/>
   <path class="fil76" d="M11531 2967c1289,0 2525,-62 3672,-177 -59,-97 -122,-192 -190,-285 -124,-156 -265,-304 -420,-442 -666,-586 -1515,-912 -2388,-916l-66 0c-462,0 -926,4 -1378,12 -876,18 -1719,357 -2373,954 -134,122 -256,253 -365,390 -68,92 -132,187 -191,284 1155,116 2400,179 3700,179z"/>
   <path class="fil77" d="M11531 2966c1289,0 2525,-62 3672,-176 -59,-97 -122,-192 -190,-284 -124,-156 -265,-304 -420,-441 -666,-586 -1514,-910 -2387,-915l-66 0c-462,0 -926,4 -1378,12 -876,18 -1719,357 -2373,953 -134,122 -256,252 -365,389 -68,92 -132,187 -191,284 1154,116 2400,179 3699,179z"/>
   <path class="fil77" d="M11531 2965c1289,0 2525,-62 3671,-176 -59,-97 -122,-192 -190,-284 -124,-156 -265,-304 -420,-440 -666,-585 -1514,-909 -2387,-914l-66 0c-462,0 -926,4 -1378,12 -876,18 -1718,356 -2373,952 -134,122 -256,252 -365,389 -68,92 -132,187 -191,284 1154,116 2400,179 3699,179z"/>
   <path class="fil77" d="M11531 2964c1289,0 2524,-62 3671,-176 -59,-97 -122,-192 -190,-284 -124,-156 -264,-303 -420,-440 -666,-584 -1514,-908 -2387,-913l-66 0c-462,0 -926,4 -1378,12 -876,18 -1718,356 -2372,950 -134,122 -256,252 -365,388 -68,92 -132,187 -191,284 1154,116 2399,179 3698,179z"/>
   <path class="fil78" d="M11531 2963c1288,0 2524,-62 3670,-176 -59,-97 -122,-192 -190,-284 -124,-156 -264,-303 -420,-439 -666,-583 -1514,-907 -2387,-912l-66 0c-462,0 -926,4 -1378,11 -876,18 -1718,355 -2372,949 -134,122 -255,251 -365,387 -68,92 -132,187 -191,284 1154,115 2399,178 3698,178z"/>
   <path class="fil78" d="M11531 2961c1288,0 2524,-62 3670,-175 -58,-97 -122,-192 -190,-284 -124,-155 -264,-302 -420,-438 -666,-583 -1514,-906 -2386,-911l-66 0c-462,0 -925,4 -1377,11 -876,18 -1718,355 -2372,948 -134,121 -255,251 -365,387 -68,92 -132,187 -191,284 1154,115 2399,178 3697,178z"/>
   <path class="fil79" d="M11531 2960c1288,0 2523,-62 3669,-175 -59,-97 -122,-191 -190,-283 -124,-155 -264,-302 -420,-438 -666,-582 -1514,-905 -2386,-909l-66 0c-462,0 -925,4 -1377,11 -876,18 -1718,355 -2372,947 -134,121 -255,250 -364,386 -68,92 -132,186 -191,283 1154,115 2398,178 3697,178z"/>
   <path class="fil79" d="M11531 2959c1288,0 2523,-62 3669,-175 -58,-97 -122,-191 -190,-283 -124,-155 -264,-301 -420,-437 -666,-581 -1514,-904 -2386,-908l-66 0c-461,0 -925,4 -1377,11 -875,18 -1718,354 -2371,946 -134,121 -255,250 -364,386 -68,92 -132,186 -191,283 1154,115 2398,178 3696,178z"/>
   <path class="fil79" d="M11531 2958c1288,0 2523,-62 3668,-175 -58,-97 -122,-191 -189,-283 -124,-155 -264,-301 -420,-437 -665,-581 -1513,-903 -2386,-907l-66 0c-461,0 -925,4 -1377,11 -875,18 -1717,354 -2371,945 -134,121 -255,250 -364,385 -68,92 -132,186 -191,283 1153,115 2398,177 3696,177z"/>
   <path class="fil80" d="M11531 2957c1288,0 2522,-62 3668,-175 -58,-97 -122,-191 -190,-283 -124,-154 -264,-301 -419,-436 -665,-580 -1513,-902 -2385,-906l-66 0c-461,0 -925,4 -1377,11 -875,18 -1717,353 -2371,944 -133,121 -255,249 -364,384 -68,92 -132,186 -191,283 1153,115 2397,177 3695,177z"/>
   <path class="fil80" d="M11531 2956c1287,0 2522,-62 3667,-174 -58,-97 -122,-191 -189,-282 -124,-154 -264,-300 -419,-435 -665,-579 -1513,-901 -2385,-905l-66 0c-461,0 -925,4 -1377,11 -875,18 -1717,353 -2371,943 -133,120 -255,249 -364,384 -68,92 -132,186 -191,282 1153,115 2397,177 3695,177z"/>
   <path class="fil81" d="M11531 2955c1287,0 2522,-62 3667,-174 -58,-96 -122,-191 -189,-282 -124,-154 -264,-300 -419,-435 -665,-579 -1513,-900 -2385,-904l-66 0c-461,0 -925,4 -1377,11 -875,18 -1717,352 -2370,941 -133,120 -255,249 -364,383 -68,92 -132,186 -191,282 1153,114 2397,177 3694,177z"/>
   <path class="fil81" d="M11531 2954c1287,0 2521,-61 3666,-174 -58,-96 -122,-190 -189,-282 -124,-154 -264,-299 -419,-434 -665,-578 -1513,-899 -2385,-903l-66 0c-461,0 -925,4 -1376,11 -875,18 -1717,352 -2370,940 -133,120 -255,248 -364,383 -68,92 -132,186 -191,282 1153,114 2397,177 3694,177z"/>
   <path class="fil81" d="M11531 2953c1287,0 2521,-61 3666,-174 -58,-96 -122,-190 -189,-282 -124,-153 -264,-299 -419,-433 -665,-577 -1513,-898 -2385,-902l-66 0c-461,0 -925,4 -1376,11 -875,18 -1717,352 -2370,939 -133,120 -255,248 -364,382 -68,91 -132,185 -191,282 1152,114 2396,176 3693,176z"/>
   <path class="fil82" d="M11531 2952c1287,0 2521,-61 3665,-173 -58,-96 -122,-190 -189,-281 -124,-153 -264,-298 -419,-433 -665,-577 -1513,-896 -2384,-901l-66 0c-461,0 -925,4 -1376,11 -875,18 -1716,351 -2370,938 -133,120 -255,248 -363,382 -68,91 -132,185 -191,282 1152,114 2396,176 3693,176z"/>
   <path class="fil82" d="M11531 2951c1287,0 2520,-61 3665,-173 -58,-96 -122,-190 -189,-281 -124,-153 -264,-298 -419,-432 -665,-576 -1512,-895 -2384,-900l-66 0c-461,0 -925,4 -1376,11 -875,18 -1716,351 -2370,937 -133,120 -254,247 -363,381 -68,91 -132,185 -190,281 1152,114 2396,176 3692,176z"/>
   <path class="fil82" d="M11531 2950c1286,0 2520,-61 3664,-173 -58,-96 -122,-190 -189,-281 -124,-153 -264,-297 -418,-431 -665,-575 -1512,-894 -2384,-899l-66 0c-461,0 -925,4 -1376,11 -875,18 -1716,350 -2369,936 -133,119 -254,247 -363,380 -68,91 -132,185 -190,281 1152,114 2395,176 3692,176z"/>
   <path class="fil82" d="M11531 2949c1286,0 2520,-61 3664,-173 -58,-96 -122,-190 -189,-281 -124,-153 -263,-297 -418,-431 -665,-574 -1512,-893 -2384,-898l-66 0c-461,0 -924,4 -1376,11 -875,18 -1716,350 -2369,935 -133,119 -254,246 -363,380 -68,91 -131,185 -190,281 1152,114 2395,175 3691,175z"/>
   <path class="fil82" d="M11531 2948c1286,0 2519,-61 3663,-173 -58,-96 -122,-190 -189,-281 -124,-152 -263,-297 -418,-430 -665,-574 -1512,-892 -2383,-896l-66 0c-461,0 -924,4 -1376,11 -875,18 -1716,349 -2369,933 -133,119 -254,246 -363,379 -68,91 -131,185 -190,281 1152,113 2395,175 3691,175z"/>
   <path class="fil83" d="M11531 2947c1286,0 2519,-61 3663,-172 -58,-96 -122,-189 -189,-280 -124,-152 -263,-296 -418,-429 -665,-573 -1512,-891 -2383,-895l-66 0c-461,0 -924,4 -1375,11 -874,18 -1716,349 -2369,932 -133,119 -254,246 -363,379 -68,91 -131,185 -190,280 1152,113 2394,175 3690,175z"/>
   <path class="fil83" d="M11531 2946c1286,0 2519,-61 3662,-172 -58,-96 -121,-189 -189,-280 -123,-152 -263,-296 -418,-429 -665,-572 -1512,-890 -2383,-894l-66 0c-461,0 -924,4 -1375,11 -874,18 -1715,349 -2368,931 -133,119 -254,245 -363,378 -68,91 -131,184 -190,280 1151,113 2394,175 3690,175z"/>
   <path class="fil83" d="M11531 2945c1285,0 2518,-61 3662,-172 -58,-96 -121,-189 -189,-280 -123,-152 -263,-295 -418,-428 -665,-572 -1511,-889 -2383,-893l-66 0c-461,0 -924,4 -1375,11 -874,18 -1715,348 -2368,930 -133,119 -254,245 -363,378 -68,91 -131,184 -190,280 1151,113 2394,175 3689,175z"/>
   <path class="fil84" d="M11531 2944c1285,0 2518,-61 3661,-172 -58,-96 -121,-189 -189,-280 -123,-151 -263,-295 -418,-428 -665,-571 -1511,-888 -2383,-892l-66 0c-461,0 -924,4 -1375,11 -874,18 -1715,348 -2368,929 -133,118 -254,245 -363,377 -68,91 -131,184 -190,280 1151,113 2393,174 3689,174z"/>
   <path class="fil84" d="M11531 2943c1285,0 2518,-61 3661,-172 -58,-95 -121,-189 -189,-280 -123,-151 -263,-294 -417,-427 -665,-570 -1511,-887 -2382,-891l-66 0c-461,0 -924,4 -1375,11 -874,18 -1715,347 -2368,928 -133,118 -254,244 -362,377 -68,91 -131,184 -190,279 1151,113 2393,174 3688,174z"/>
   <path class="fil85" d="M11531 2942c1285,0 2517,-60 3660,-171 -58,-95 -121,-189 -189,-279 -123,-151 -263,-294 -417,-426 -665,-570 -1511,-886 -2382,-890l-66 0c-461,0 -924,4 -1375,11 -874,18 -1715,347 -2367,927 -133,118 -254,244 -362,376 -68,91 -131,184 -190,279 1151,113 2393,174 3688,174z"/>
   <path class="fil85" d="M11531 2941c1285,0 2517,-60 3660,-171 -58,-95 -121,-189 -189,-279 -123,-151 -263,-294 -417,-426 -664,-569 -1511,-884 -2382,-889l-66 0c-461,0 -924,4 -1375,11 -874,18 -1715,346 -2367,925 -133,118 -254,244 -362,375 -68,91 -131,184 -190,279 1151,112 2393,174 3687,174z"/>
   <path class="fil85" d="M11531 2940c1285,0 2517,-60 3659,-171 -58,-95 -121,-188 -188,-279 -123,-151 -263,-293 -417,-425 -664,-568 -1511,-883 -2382,-888l-66 0c-461,0 -924,4 -1375,11 -874,18 -1714,346 -2367,924 -133,118 -253,243 -362,375 -68,90 -131,184 -190,279 1151,112 2392,173 3687,173z"/>
   <path class="fil86" d="M11531 2939c1284,0 2516,-60 3659,-171 -58,-95 -121,-188 -188,-279 -123,-150 -263,-293 -417,-425 -664,-567 -1511,-882 -2381,-887l-66 0c-461,0 -924,4 -1374,11 -874,18 -1714,346 -2367,923 -133,117 -253,243 -362,374 -68,90 -131,183 -190,278 1150,112 2392,173 3686,173z"/>
   <path class="fil86" d="M11531 2938c1284,0 2516,-60 3658,-170 -58,-95 -121,-188 -188,-278 -123,-150 -263,-292 -417,-424 -664,-567 -1510,-881 -2381,-885l-66 0c-461,0 -924,4 -1374,11 -874,18 -1714,345 -2366,922 -133,117 -253,242 -362,374 -68,90 -131,183 -190,278 1150,112 2391,173 3686,173z"/>
   <path class="fil87" d="M11531 2937c1284,0 2515,-60 3658,-170 -58,-95 -121,-188 -188,-278 -123,-150 -262,-292 -417,-423 -664,-566 -1510,-880 -2381,-884l-66 0c-461,0 -923,4 -1374,11 -874,18 -1714,345 -2366,921 -132,117 -253,242 -362,373 -68,90 -131,183 -190,278 1150,112 2391,173 3686,173z"/>
   <path class="fil87" d="M11531 2936c1284,0 2515,-60 3658,-170 -58,-95 -121,-188 -188,-278 -123,-150 -262,-291 -417,-423 -664,-565 -1510,-879 -2381,-883l-66 0c-460,0 -923,4 -1374,11 -873,18 -1714,344 -2366,920 -132,117 -253,242 -361,373 -68,90 -131,183 -190,278 1150,112 2391,173 3685,173z"/>
   <path class="fil87" d="M11531 2935c1284,0 2515,-60 3657,-170 -58,-95 -121,-188 -188,-278 -123,-149 -262,-291 -417,-422 -664,-565 -1510,-878 -2380,-882l-66 0c-460,0 -923,4 -1374,11 -873,18 -1713,344 -2366,919 -132,117 -253,241 -361,372 -68,90 -131,183 -190,278 1150,111 2391,172 3685,172z"/>
   <path class="fil88" d="M11531 2934c1284,0 2514,-60 3656,-169 -58,-95 -121,-187 -188,-278 -123,-149 -262,-290 -416,-421 -664,-564 -1510,-877 -2380,-881l-66 0c-460,0 -923,4 -1374,11 -873,18 -1713,343 -2366,918 -132,117 -253,241 -361,371 -68,90 -131,183 -189,277 1150,111 2390,172 3684,172z"/>
   <path class="fil88" d="M11531 2933c1283,0 2514,-60 3656,-169 -58,-95 -121,-187 -188,-277 -123,-149 -262,-290 -416,-421 -664,-563 -1510,-876 -2380,-880l-66 0c-460,0 -923,4 -1374,11 -873,18 -1713,343 -2365,916 -132,116 -253,241 -361,371 -68,90 -131,182 -189,277 1150,111 2390,172 3684,172z"/>
   <path class="fil89" d="M11531 2932c1283,0 2514,-60 3655,-169 -58,-95 -121,-187 -188,-277 -123,-149 -262,-290 -416,-420 -664,-563 -1510,-875 -2380,-879l-66 0c-460,0 -923,4 -1373,11 -873,18 -1713,343 -2365,915 -132,116 -253,240 -361,370 -67,90 -131,182 -189,277 1149,111 2390,172 3683,172z"/>
   <path class="fil89" d="M11531 2931c1283,0 2513,-60 3655,-169 -58,-95 -121,-187 -188,-277 -123,-149 -262,-289 -416,-420 -664,-562 -1509,-874 -2379,-878l-66 0c-460,0 -923,4 -1373,11 -873,18 -1713,342 -2365,914 -132,116 -253,240 -361,370 -67,90 -131,182 -189,277 1149,111 2389,171 3683,171z"/>
   <path class="fil89" d="M11531 2930c1283,0 2513,-60 3655,-169 -58,-95 -121,-187 -188,-277 -123,-148 -262,-289 -416,-419 -664,-561 -1509,-873 -2379,-877l-66 0c-460,0 -923,4 -1373,11 -873,17 -1713,342 -2365,913 -132,116 -253,240 -361,369 -67,90 -131,182 -189,277 1149,111 2389,171 3682,171z"/>
   <path class="fil90" d="M11531 2929c1283,0 2513,-60 3654,-168 -58,-94 -121,-187 -188,-276 -123,-148 -262,-288 -416,-418 -664,-560 -1509,-872 -2379,-876l-66 0c-460,0 -923,4 -1373,11 -873,18 -1713,341 -2364,912 -132,116 -253,239 -361,369 -67,90 -130,182 -189,276 1149,111 2389,171 3682,171z"/>
   <path class="fil90" d="M11531 2928c1282,0 2512,-59 3654,-168 -58,-94 -121,-187 -188,-276 -123,-148 -262,-288 -416,-418 -664,-560 -1509,-870 -2379,-875l-66 0c-460,0 -923,4 -1373,11 -873,18 -1712,341 -2364,911 -132,116 -253,239 -361,368 -67,89 -130,182 -189,276 1149,110 2388,171 3681,171z"/>
   <path class="fil91" d="M11531 2927c1282,0 2512,-59 3653,-168 -58,-94 -121,-186 -188,-276 -123,-148 -262,-287 -416,-417 -664,-559 -1509,-869 -2379,-873l-66 0c-460,0 -922,4 -1373,11 -873,17 -1712,341 -2364,910 -132,115 -252,238 -361,368 -67,89 -130,182 -189,276 1149,110 2388,171 3681,171z"/>
   <path class="fil91" d="M11531 2926c1282,0 2512,-59 3653,-168 -58,-94 -121,-186 -188,-276 -123,-147 -262,-287 -415,-416 -663,-558 -1509,-868 -2378,-872l-66 0c-460,0 -922,4 -1373,11 -873,17 -1712,340 -2364,909 -132,115 -252,238 -360,367 -67,89 -130,181 -189,275 1148,110 2388,170 3680,170z"/>
   <path class="fil91" d="M11531 2925c1282,0 2511,-59 3652,-168 -58,-94 -121,-186 -188,-275 -123,-147 -262,-287 -415,-416 -663,-558 -1508,-867 -2378,-871l-66 0c-460,0 -922,4 -1372,11 -873,17 -1712,340 -2364,907 -132,115 -252,238 -360,367 -67,89 -130,181 -189,275 1148,110 2387,170 3680,170z"/>
   <path class="fil92" d="M11531 2924c1282,0 2511,-59 3652,-167 -58,-94 -121,-186 -188,-275 -123,-147 -262,-286 -415,-415 -663,-557 -1508,-866 -2378,-870l-66 0c-460,0 -922,4 -1372,11 -872,17 -1712,339 -2363,906 -132,115 -252,237 -360,366 -67,89 -130,181 -189,275 1148,110 2387,170 3679,170z"/>
   <path class="fil92" d="M11531 2923c1282,0 2511,-59 3651,-167 -58,-94 -121,-186 -188,-275 -123,-147 -261,-286 -415,-415 -663,-556 -1508,-865 -2378,-869l-66 0c-460,0 -922,4 -1372,11 -872,17 -1712,339 -2363,905 -132,115 -252,237 -360,365 -67,89 -130,181 -189,275 1148,110 2387,170 3679,170z"/>
   <path class="fil92" d="M11531 2922c1281,0 2510,-59 3651,-167 -58,-94 -121,-186 -187,-275 -123,-147 -261,-285 -415,-414 -663,-556 -1508,-864 -2377,-868l-66 0c-460,0 -922,4 -1372,11 -872,17 -1711,338 -2363,904 -132,114 -252,237 -360,365 -67,89 -130,181 -188,274 1148,110 2386,169 3678,169z"/>
  </g>
  <path class="fil26" d="M7871 2723c1174,124 2405,187 3660,187 1245,0 2466,-62 3632,-184 31,50 62,100 91,151 -1162,130 -2416,201 -3723,201 -1318,0 -2581,-72 -3751,-204 29,-51 60,-101 91,-151z"/>
  <path class="fil0" d="M11531 3106c-1290,0 -2553,-69 -3754,-204l6 -55c1199,135 2460,204 3748,204 1276,0 2528,-67 3720,-201l6 55c-1194,133 -2447,201 -3726,201z"/>
  <path class="fil93" d="M11512 1908c-403,0 -793,14 -1164,41 -145,11 -206,190 -97,286 8,7 16,13 24,20 269,225 612,351 965,352l27 0c187,0 374,-1 557,-4 354,-7 695,-137 959,-367 1,-1 2,-2 3,-2 109,-95 45,-273 -99,-284 -374,-27 -767,-42 -1174,-42z"/>
  <g id="_1935037307040">
   <polygon class="fil94" points="107,14719 7,14719 7,11540 107,11540 "/>
   <path class="fil94" d="M0 11313c16,-19 35,-30 57,-30 51,0 93,66 93,146 0,81 -42,146 -93,146 -21,0 -41,-11 -57,-30l0 -232z"/>
   <polygon class="fil94" points="145,14751 0,14751 0,14676 145,14676 "/>
   <polygon class="fil94" points="133,11575 0,11575 0,11514 133,11514 "/>
   <path class="fil95" d="M4880 12407c-573,0 -1187,-22 -1842,-74 -1679,-132 -2845,-399 -2856,-401l17 -184c11,3 1172,268 2847,400 1544,121 3854,151 6087,-400l18 184c-950,234 -2386,475 -4271,475z"/>
   <path class="fil94" d="M34 11799c-2,-28 -13,-51 -27,-63l-7 -5 0 23c2,2 5,5 7,8 7,10 13,24 14,40 2,18 -1,35 -8,50l0 0c-2,4 -4,7 -6,11 -2,3 -4,5 -7,7l0 23 7 -5c6,-6 12,-14 17,-24 9,-19 13,-42 10,-65z"/>
   <polygon class="fil94" points="9399,14719 9298,14719 9298,11540 9399,11540 "/>
   <path class="fil94" d="M9255 11429c0,-81 42,-146 93,-146 27,0 51,18 68,46l0 201c-17,28 -41,46 -68,46 -51,0 -93,-66 -93,-146z"/>
   <polygon class="fil94" points="9416,14751 9255,14751 9255,14676 9416,14676 "/>
   <polygon class="fil94" points="9416,11575 9273,11575 9273,11514 9416,11514 "/>
   <polygon class="fil94" points="403,11775 379,11994 166,11939 193,11726 "/>
   <path class="fil94" d="M289 11795c-8,-17 -19,-28 -31,-33 -1,0 -1,-1 -2,-1 0,0 0,0 0,0l0 0c-1,0 -2,-1 -4,-1l-62 -15 -37 -9c-14,-3 -27,1 -39,13 -1,1 -2,2 -3,4 -12,14 -20,34 -22,57 -4,36 7,70 25,88 6,7 13,11 21,13l32 8 14 3 52 13c3,1 6,1 9,1 27,0 51,-31 55,-75 2,-23 -1,-47 -10,-66zm-3 62l0 0c-4,37 -26,62 -49,57l-52 -13 -13 -4 -33 -8c-9,-3 -17,-9 -23,-19 -10,-14 -15,-36 -13,-58 2,-14 6,-28 13,-38 1,-2 3,-5 5,-7 9,-11 21,-15 32,-12l36 9 0 0 10 2 53 13c11,3 21,12 28,27 7,15 10,32 8,50z"/>
   <polygon class="fil94" points="9033,11977 9014,11757 9228,11710 9243,11926 "/>
   <path class="fil94" d="M9325 11799c-2,-28 -13,-51 -27,-63 -11,-10 -23,-14 -36,-11l-32 8 -67 15c-3,1 -6,2 -8,3 -7,4 -14,10 -20,17 -14,19 -22,49 -19,80 2,23 10,44 22,58 4,4 7,8 12,10l0 0c9,6 20,9 30,6l62 -15 37 -8c7,-2 14,-5 20,-11 7,-6 12,-14 17,-24 9,-19 13,-42 10,-65zm-21 53l0 0c-2,4 -4,7 -6,11 -6,9 -14,14 -22,16l-36 8 -63 15c-11,2 -22,-2 -31,-12 0,0 -1,-1 -1,-1 -10,-11 -15,-26 -17,-44 -2,-19 2,-37 8,-51l0 0c7,-13 16,-23 28,-25l66 -16 33 -8c13,-3 26,4 35,17 7,10 13,24 14,40 2,18 -1,35 -8,50z"/>
   <path class="fil94" d="M9416 11738c-5,2 -10,6 -15,10 -1,1 -2,2 -3,4 -12,14 -20,34 -22,57 -4,36 7,70 25,88 4,5 9,8 15,11l0 -22c-6,-4 -10,-9 -15,-15 -10,-14 -14,-36 -12,-58 2,-14 6,-28 12,-38 2,-2 3,-5 5,-7 3,-4 7,-6 10,-9l0 -22z"/>
   <polygon class="fil94" points="9416,14838 0,14838 0,14751 9416,14751 "/>
   <path class="fil96" d="M6843 8388c0,0 77,175 225,210 180,43 259,270 259,322 0,52 -231,-117 -322,-120 -91,-3 -140,43 -202,-78 -62,-121 -140,-238 -140,-238l179 -96z"/>
   <g>
    <path class="fil96" d="M3706 8784c0,0 36,42 56,67 21,25 46,121 33,138 -13,16 -98,40 -101,-10 -3,-50 12,-194 12,-194z"/>
    <path class="fil97" d="M4532 8460c82,0 154,-16 217,-48 780,-388 56,-3050 56,-3050 0,0 -32,-132 -179,-184 -54,-19 -174,-17 -318,-27 -467,-34 -490,239 -506,334 -18,97 -389,2969 730,2975z"/>
    <path class="fil94" d="M4749 8412c780,-388 56,-3050 56,-3050 0,0 -37,-120 -179,-184 -301,79 -364,222 -381,307 -15,90 -334,2556 503,2927z"/>
    <path class="fil94" d="M5324 14360c0,0 -43,347 35,386 78,39 1011,26 1011,26 0,0 0,-117 -160,-143 -161,-26 -442,-121 -490,-334 -48,-213 -395,65 -395,65z"/>
    <path class="fil97" d="M6168 9061c0,0 -53,658 -115,1448 -84,1074 -185,2393 -196,2642 -17,434 -87,1128 -87,1128 0,0 -165,165 -495,95 0,0 -294,-991 -378,-2039 -1,-17 -3,-35 -4,-52 -78,-1067 -200,-3314 -200,-3314l1473 91z"/>
    <path class="fil94" d="M6168 9061c0,0 -53,658 -115,1448l-1154 1827c-1,-17 -3,-35 -4,-52 -78,-1067 -200,-3314 -200,-3314l1473 91z"/>
    <path class="fil97" d="M5927 9139c0,0 -950,2381 -1575,3500 -625,1119 -820,1431 -820,1431 0,0 -358,-143 -390,-241 0,0 239,-2160 657,-2687 236,-298 514,-1191 527,-1503 13,-312 85,-930 85,-930l1516 429z"/>
    <path class="fil96" d="M5691 5656c-371,117 -1013,-199 -1013,-199 0,0 240,-180 308,-552 0,0 0,0 0,0 13,-72 20,-152 17,-238l347 280 135 109c0,0 0,37 -6,104 -6,68 -16,168 -38,293 159,88 251,204 251,204z"/>
    <path class="fil98" d="M6841 8602c83,-68 99,-120 99,-120 0,0 -671,-920 -728,-1009 -57,-90 -480,-1529 -480,-1529l-1070 -217c0,0 893,1842 1041,2067 244,371 1012,877 1012,877 0,0 64,-18 125,-68z"/>
    <path class="fil99" d="M4339 8820c-1,22 23,46 52,66 23,16 50,29 67,37 82,37 162,70 241,98 190,71 377,119 580,138 217,22 459,0 643,-18 104,-12 188,-22 240,-22l7 0c15,0 29,-6 39,-15 8,-5 15,-330 11,-767 0,-61 -1,-124 -1,-190 0,-21 0,-44 -3,-64l0 -7c-1,-205 -8,-422 -18,-636l0 -4c-20,-476 -57,-935 -121,-1190 -58,-235 -291,-500 -463,-673 -78,-79 -175,-137 -281,-170 -184,-57 -468,-134 -527,-83 -45,35 -86,80 -123,134 -3,1 -3,1 -3,3 -1,0 -1,0 -1,0 -30,44 -59,93 -85,147 -42,86 -78,185 -109,296 -83,299 -124,675 -123,1078 0,102 3,206 10,311 1,30 3,59 4,87 12,261 11,502 4,714l0 7c-7,214 -19,396 -29,531 -5,82 -10,147 -11,192z"/>
    <path class="fil98" d="M4350 8628c19,-284 53,-774 20,-1338 -6,-105 -9,-209 -10,-312 127,-308 231,-532 231,-532l320 0c0,0 235,1603 -562,2182z"/>
    <path class="fil100" d="M5483 5055c0,0 0,37 -6,104 -276,-32 -485,-247 -493,-254 0,0 0,0 0,0l0 0 364 42 135 109z"/>
    <path class="fil96" d="M5597 5046c0,0 -613,102 -671,-281 -57,-383 -175,-627 214,-709 389,-81 487,53 538,176 50,123 78,777 -80,813z"/>
    <path class="fil94" d="M4926 4728c0,0 63,-10 53,-97 -10,-87 -10,-200 60,-179 70,21 74,78 103,45 29,-33 29,-172 239,-181 210,-10 295,63 392,20 97,-43 103,-190 103,-190 0,0 -28,53 -70,69 0,0 163,-223 -26,-375 -188,-153 -380,-53 -489,-46 -240,14 -395,29 -474,187 -78,158 -46,596 108,748z"/>
    <path class="fil94" d="M1683 14434c51,116 -4,250 -124,300 -119,50 -257,-4 -309,-120 -51,-116 4,-250 124,-300 119,-50 258,4 309,120z"/>
    <path class="fil94" d="M3369 14433c51,116 -4,250 -124,300 -119,50 -257,-4 -309,-120 -51,-116 4,-250 124,-300 119,-50 257,4 309,120z"/>
    <path class="fil98" d="M1197 14405l334 117c34,12 69,18 105,17l1897 -19 207 -333 -2543 218z"/>
    <path class="fil98" d="M2274 10722l530 -1279 1 -2c3,-12 86,-286 563,-348l2 0 393 -72c51,-13 197,-35 264,20 30,24 42,63 37,117 -10,107 -362,937 -597,1468l75 31c60,-137 589,-1338 603,-1493 7,-81 -15,-143 -66,-185 -110,-90 -315,-42 -336,-37l-387 71c-514,66 -619,368 -630,403l-528 1275 76 30z"/>
    <path class="fil98" d="M3291 10343l1024 199c0,0 298,118 239,626 -52,447 -281,2955 -281,2955 0,0 -48,522 -1195,371l213 -4151z"/>
    <path class="fil99" d="M3858 11033l-275 2809c-11,114 -53,218 -116,306 -118,162 -312,268 -530,269l-949 6 -23 0 -594 4c-60,0 -118,-7 -172,-21 -13,-3 -25,-7 -38,-11 -206,-66 -364,-229 -423,-429 -25,-85 -32,-177 -17,-271l431 -2688c46,-287 286,-507 583,-534l168 -16 40 -4 0 0 34 -3 560 -52 69 -7 541 -50c85,-8 167,0 243,22 5,1 10,3 15,4l31 10c267,96 452,358 423,656z"/>
    <path class="fil98" d="M1975 10450c-4,2 -444,263 -502,492 -60,235 -457,2978 -461,3006 0,2 -11,267 215,465l-30 -7c-13,-3 -25,-7 -38,-11 -213,-205 -184,-441 -183,-451 16,-113 402,-2772 462,-3009 52,-208 363,-415 463,-477l40 -4 0 0 34 -3z"/>
    <path class="fil98" d="M2605 10391c-63,42 -305,220 -357,550 -60,386 -297,3193 -299,3222l0 2 -1 2c-1,2 -34,153 63,256l-24 0 -23 0c-93,-110 -56,-246 -51,-265 7,-87 239,-2839 299,-3222 45,-284 224,-461 323,-538l69 -7z"/>
    <path class="fil98" d="M3435 10378c-2,1 -93,51 -172,138 -79,87 -164,221 -194,409 -61,386 -248,3184 -250,3212l0 2 -1 2c0,1 -9,173 89,275l-60 0c-74,-94 -70,-264 -64,-284 6,-89 190,-2830 250,-3213 56,-360 303,-526 355,-557 5,1 10,3 15,4l31 10z"/>
    <path class="fil96" d="M3853 8392l-134 327c-16,40 -17,83 -5,122 26,85 44,251 -153,368 0,0 -120,60 -138,-33 -19,-93 2,-59 -27,-189 -26,-114 33,-184 72,-263 19,-38 25,-78 29,-109l27 -206 329 -16z"/>
    <path class="fil99" d="M3566 8756c115,22 240,13 240,13 0,0 342,-1057 386,-1154 44,-97 1016,-1170 1016,-1170l-616 -842c0,0 -841,1516 -948,1762 -176,408 -238,1322 -238,1322 0,0 68,50 158,67z"/>
    <path class="fil94" d="M4379 8090l0 7c175,-41 323,-121 452,-228 239,-195 401,-480 504,-779 158,-465 171,-965 90,-1210 -11,-31 -23,-60 -37,-82 -33,-55 -70,-101 -112,-139 -134,-127 -304,-176 -430,-194 -37,-5 -70,-7 -97,-8 -38,-1 -63,0 -70,0 -1,0 -1,0 -1,0 -79,22 -140,78 -85,147 24,-3 48,-3 70,-3 97,-3 180,9 250,34 120,38 205,110 263,194 169,237 132,577 132,577 -14,179 -41,338 -76,479 -81,322 -207,551 -338,712 -244,303 -511,369 -511,369 0,0 -7,23 -9,64 -2,37 5,60 5,60z"/>
    <path class="fil96" d="M6810 8743c0,0 49,76 103,97 54,21 139,91 147,72 8,-19 -5,-51 -37,-74 -32,-23 -41,-51 -33,-68 8,-17 -180,-27 -180,-27z"/>
   </g>
  </g>
 </g>
</svg>
