<?xml version="1.0" encoding="UTF-8"?>
<!DOCTYPE svg PUBLIC "-//W3C//DTD SVG 1.0//EN" "http://www.w3.org/TR/2001/REC-SVG-20010904/DTD/svg10.dtd">
<!-- Creator: CorelDRAW 2019 (64-Bit) -->
<svg xmlns="http://www.w3.org/2000/svg" xml:space="preserve" width="0.109173in" height="0.103543in" version="1.0" style="shape-rendering:geometricPrecision; text-rendering:geometricPrecision; image-rendering:optimizeQuality; fill-rule:evenodd; clip-rule:evenodd"
viewBox="0 0 246 234"
 xmlns:xlink="http://www.w3.org/1999/xlink">
 <defs>
  <style type="text/css">
   <![CDATA[
    .fil0 {fill:black;fill-rule:nonzero}
   ]]>
  </style>
 </defs>
 <g id="Layer_x0020_1">
  <metadata id="CorelCorpID_0Corel-Layer"/>
  <g id="_2931602515024">
   <g>
    <g>
     <g>
      <path class="fil0" d="M3 46c-2,0 -3,-1 -3,-3 0,-2 1,-3 3,-3l0 6zm37 0l-37 0 0 -6 37 0 0 6zm0 -6c2,0 3,1 3,3 0,2 -1,3 -3,3l0 -6z"/>
     </g>
     <g>
      <path class="fil0" d="M40 46c-2,0 -3,-1 -3,-3 0,-2 1,-3 3,-3l0 6zm5 -2l-5 2 0 0 0 0 0 0 0 0 0 0 0 0 0 0 0 0 0 0 0 0 0 0 0 0 0 0 0 0 0 0 0 0 0 0 0 0 0 0 0 0 0 0 0 0 0 0 0 0 0 0 0 0 0 0 0 0 0 0 0 0 0 0 0 0 0 -6 0 0 0 0 0 0 0 0 0 0 0 0 0 0 0 0 0 0 0 0 0 0 0 0 0 0 0 0 0 0 0 0 0 0 0 0 0 0 0 0 0 0 0 0 0 0 0 0 0 0 0 0 0 0 0 0 0 0 0 0 0 0 0 0zm0 0c1,1 0,3 -2,4 -1,1 -3,0 -4,-2l5 -2z"/>
     </g>
     <g>
      <path class="fil0" d="M40 46c-1,-1 0,-3 2,-4 1,-1 3,0 4,2l-5 2zm22 59l-22 -59 5 -2 22 59 -5 2zm5 -2c1,1 0,3 -2,4 -1,1 -3,0 -4,-2l5 -2z"/>
     </g>
     <g>
      <path class="fil0" d="M53 76c-2,0 -3,-1 -3,-3 0,-2 1,-3 3,-3l0 6zm187 0l-187 0 0 -6 187 0 0 6zm0 -6c2,0 3,1 3,3 0,2 -1,3 -3,3l0 -6z"/>
     </g>
     <g>
      <path class="fil0" d="M239 76c-2,0 -3,-1 -3,-3 0,-2 1,-3 3,-3l0 6zm7 2l-6 -1 0 0 0 0 0 0 0 0 0 0 0 0 0 0 0 0 0 0 0 0 0 0 0 0 0 0 0 0 0 0 0 0 0 0 0 0 0 0 0 0 0 0 0 0 0 0 0 0 0 0 0 0 0 0 0 0 0 0 0 0 0 0 0 0 0 -6 0 0 0 0 0 0 0 0 0 0 0 0 0 0 0 0 0 0 0 0 0 0 0 0 0 0 0 0 0 0 0 0 0 0 0 0 0 0 0 0 0 0 0 0 0 0 0 0 0 0 0 0 0 0 0 0 0 0 0 0 0 0 0 0zm0 0c0,2 -2,3 -3,2 -2,0 -3,-2 -2,-3l6 1z"/>
     </g>
     <g>
      <path class="fil0" d="M241 78c0,-2 2,-3 3,-2 2,0 3,2 2,3l-6 -1zm-20 96l20 -96 6 1 -20 96 -6 -1zm6 1c0,2 -2,3 -3,2 -2,0 -3,-2 -2,-3l6 1z"/>
     </g>
     <g>
      <path class="fil0" d="M221 174c0,-2 2,-3 3,-2 2,0 3,2 2,3l-6 -1zm-1 7l0 -6 0 0 0 0 0 0 0 0 0 0 0 0 0 0 0 0 0 0 0 0 0 0 0 0 0 0 0 0 0 0 0 0 0 0 0 0 0 0 0 0 0 0 0 0 0 0 0 0 0 0 0 0 0 0 0 0 0 0 0 0 0 0 0 0 6 1 0 0 0 0 0 0 0 0 0 0 0 0 0 0 0 0 0 0 0 0 0 0 0 0 0 0 0 0 0 0 0 0 0 0 0 0 0 0 0 0 0 0 0 0 0 0 0 0 0 0 0 0 0 0 0 0 0 0 0 0 0 0 0 0zm0 0c-2,0 -3,-1 -3,-3 0,-2 1,-3 3,-3l0 6z"/>
     </g>
     <g>
      <path class="fil0" d="M220 175c2,0 3,1 3,3 0,2 -1,3 -3,3l0 -6zm-129 0l129 0 0 6 -129 0 0 -6zm0 6c-2,0 -3,-1 -3,-3 0,-2 1,-3 3,-3l0 6z"/>
     </g>
     <g>
      <path class="fil0" d="M91 175c2,0 3,1 3,3 0,2 -1,3 -3,3l0 -6zm-6 1l5 -2 0 0 0 0 0 0 0 0 0 0 0 0 0 0 0 0 0 0 0 0 0 0 0 0 0 0 0 0 0 0 0 0 0 0 0 0 0 0 0 0 0 0 0 0 0 0 0 0 0 0 0 0 0 0 0 0 0 0 0 0 0 0 0 0 0 6 0 0 0 0 0 0 0 0 0 0 0 0 0 0 0 0 0 0 0 0 0 0 0 0 0 0 0 0 0 0 0 0 0 0 0 0 0 0 0 0 0 0 0 0 0 0 0 0 0 0 0 0 0 0 0 0 0 0 0 0 0 0 0 0zm0 0c-1,-1 0,-3 2,-4 1,-1 3,0 4,2l-5 2z"/>
     </g>
     <g>
      <path class="fil0" d="M90 174c1,1 0,3 -2,4 -1,1 -3,0 -4,-2l5 -2zm-7 -17l7 17 -5 2 -7 -17 5 -2zm-5 2c-1,-1 0,-3 2,-4 1,-1 3,0 4,2l-5 2z"/>
     </g>
     <g>
      <path class="fil0" d="M146 74c0,2 -1,3 -3,3 -2,0 -3,-1 -3,-3l6 0zm0 -42l0 42 -6 0 0 -42 6 0zm-6 0c0,-2 1,-3 3,-3 2,0 3,1 3,3l-6 0z"/>
     </g>
     <g>
      <path class="fil0" d="M146 32c0,2 -1,3 -3,3 -2,0 -3,-1 -3,-3l6 0zm-7 -1l0 -6 0 0 0 0 0 0 0 0 0 0 0 0 0 0 0 0 0 0 0 0 0 0 0 0 0 0 0 0 0 0 0 0 0 0 0 0 0 0 0 0 0 0 0 0 0 0 0 0 0 0 0 0 0 0 0 0 0 0 0 0 0 0 0 0 -6 0 0 0 0 0 0 0 0 0 0 0 0 0 0 0 0 0 0 0 0 0 0 0 0 0 0 0 0 0 0 0 0 0 0 0 0 0 0 0 0 0 0 0 0 0 0 0 0 0 0 0 0 0 0 0 0 0 0 0 0 0 0 0 0 0zm0 0c-2,0 -3,-1 -3,-3 0,-2 1,-3 3,-3l0 6z"/>
     </g>
     <g>
      <path class="fil0" d="M139 25c2,0 3,1 3,3 0,2 -1,3 -3,3l0 -6zm-44 0l44 0 0 6 -44 0 0 -6zm0 6c-2,0 -3,-1 -3,-3 0,-2 1,-3 3,-3l0 6z"/>
     </g>
     <g>
      <path class="fil0" d="M96 25c2,0 3,1 3,3 0,2 -1,3 -3,3l0 -6zm-1 7l-6 0 0 0 0 0 0 0 0 0 0 0 0 0 0 0 0 0 0 0 0 0 0 0 0 0 0 0 0 0 0 0 0 0 0 0 0 0 0 0 0 0 0 0 0 0 0 0 0 0 0 0 0 0 0 0 0 0 0 0 0 0 0 0 0 0 0 6 0 0 0 0 0 0 0 0 0 0 0 0 0 0 0 0 0 0 0 0 0 0 0 0 0 0 0 0 0 0 0 0 0 0 0 0 0 0 0 0 0 0 0 0 0 0 0 0 0 0 0 0 0 0 0 0 0 0 0 0 0 0 0 0zm0 0c0,2 -1,3 -3,3 -2,0 -3,-1 -3,-3l6 0z"/>
     </g>
     <g>
      <path class="fil0" d="M89 32c0,-2 1,-3 3,-3 2,0 3,1 3,3l-6 0zm0 42l0 -42 6 0 0 42 -6 1 0 -1zm0 1l0 0 0 0 0 1zm36 104l-36 -104 5 -2 36 104 -5 2zm5 -2c1,1 0,3 -2,4 -1,1 -3,0 -4,-2l5 -2z"/>
     </g>
     <g>
      <path class="fil0" d="M125 28c0,2 -1,3 -3,3 -2,0 -3,-1 -3,-3l6 0zm0 -21l0 21 -6 0 0 -21 6 0zm-6 0c0,-2 1,-3 3,-3 2,0 3,1 3,3l-6 0z"/>
     </g>
     <g>
      <path class="fil0" d="M125 7c0,2 -1,3 -3,3 -2,0 -3,-1 -3,-3l6 0zm1 -7l0 6 0 0 0 0 0 0 0 0 0 0 0 0 0 0 0 0 0 0 0 0 0 0 0 0 0 0 0 0 0 0 0 0 0 0 0 0 0 0 0 0 0 0 0 0 0 0 0 0 0 0 0 0 0 0 0 0 0 0 0 0 0 0 0 0 -6 0 0 0 0 0 0 0 0 0 0 0 0 0 0 0 0 0 0 0 0 0 0 0 0 0 0 0 0 0 0 0 0 0 0 0 0 0 0 0 0 0 0 0 0 0 0 0 0 0 0 0 0 0 0 0 0 0 0 0 0 0 0 0 0 0zm0 0c2,0 3,1 3,3 0,2 -1,3 -3,3l0 -6z"/>
     </g>
     <g>
      <path class="fil0" d="M126 6c-2,0 -3,-1 -3,-3 0,-2 1,-3 3,-3l0 6zm57 0l-57 0 0 -6 57 0 0 6zm0 -6c2,0 3,1 3,3 0,2 -1,3 -3,3l0 -6z"/>
     </g>
     <g>
      <path class="fil0" d="M183 6c-2,0 -3,-1 -3,-3 0,-2 1,-3 3,-3l0 6zm7 1l-6 0 0 0 0 0 0 0 0 0 0 0 0 0 0 0 0 0 0 0 0 0 0 0 0 0 0 0 0 0 0 0 0 0 0 0 0 0 0 0 0 0 0 0 0 0 0 0 0 0 0 0 0 0 0 0 0 0 0 0 0 0 0 0 0 0 0 -6 0 0 0 0 0 0 0 0 0 0 0 0 0 0 0 0 0 0 0 0 0 0 0 0 0 0 0 0 0 0 0 0 0 0 0 0 0 0 0 0 0 0 0 0 0 0 0 0 0 0 0 0 0 0 0 0 0 0 0 0 0 0 0 0zm0 0c0,2 -1,3 -3,3 -2,0 -3,-1 -3,-3l6 0z"/>
     </g>
     <g>
      <path class="fil0" d="M184 7c0,-2 1,-3 3,-3 2,0 3,1 3,3l-6 0zm0 37l0 -37 6 0 0 37 -6 0zm6 0c0,2 -1,3 -3,3 -2,0 -3,-1 -3,-3l6 0z"/>
     </g>
     <g>
      <path class="fil0" d="M143 46c-2,0 -3,-1 -3,-3 0,-2 1,-3 3,-3l0 6zm65 0l-65 0 0 -6 65 0 0 6zm0 -6c2,0 3,1 3,3 0,2 -1,3 -3,3l0 -6z"/>
     </g>
     <g>
      <path class="fil0" d="M208 46c-2,0 -3,-1 -3,-3 0,-2 1,-3 3,-3l0 6zm7 1l-6 0 0 0 0 0 0 0 0 0 0 0 0 0 0 0 0 0 0 0 0 0 0 0 0 0 0 0 0 0 0 0 0 0 0 0 0 0 0 0 0 0 0 0 0 0 0 0 0 0 0 0 0 0 0 0 0 0 0 0 0 0 0 0 0 0 0 -6 0 0 0 0 0 0 0 0 0 0 0 0 0 0 0 0 0 0 0 0 0 0 0 0 0 0 0 0 0 0 0 0 0 0 0 0 0 0 0 0 0 0 0 0 0 0 0 0 0 0 0 0 0 0 0 0 0 0 0 0 0 0 0 0zm0 0c0,2 -1,3 -3,3 -2,0 -3,-1 -3,-3l6 0z"/>
     </g>
     <g>
      <path class="fil0" d="M209 47c0,-2 1,-3 3,-3 2,0 3,1 3,3l-6 0zm0 26l0 -26 6 0 0 26 -6 0zm6 0c0,2 -1,3 -3,3 -2,0 -3,-1 -3,-3l6 0z"/>
     </g>
     <g>
      <path class="fil0" d="M180 177c1,1 0,3 -2,4 -1,1 -3,0 -4,-2l5 -2zm-38 -104l38 104 -5 2 -38 -104 5 -2zm-5 2c-1,-1 0,-3 2,-4 1,-1 3,0 4,2l-5 2z"/>
     </g>
     <g>
      <path class="fil0" d="M181 75c-1,-1 0,-3 2,-4 1,-1 3,0 4,2l-5 2zm40 100l-40 -100 5 -2 40 100 -5 2zm5 -2c1,1 0,3 -2,4 -1,1 -3,0 -4,-2l5 -2z"/>
     </g>
     <g>
      <path class="fil0" d="M105 214l0 -6 0 0 1 0 1 0 1 0 1 0 1 0 1 0 1 0 1 0 0 0 0 0 0 0 0 0 0 0 0 0 0 0 0 0 0 0 0 0 0 0 0 0 0 0 0 0 0 0 0 0 0 -1 0 -1 0 -1 0 -1 0 -1 0 -1 0 -1 0 -1 6 0 0 1 0 1 0 1 0 1 0 1 0 1 0 1 0 1 0 1 0 1 0 1 0 1 0 1 -1 1 -1 1 -1 1 -1 1 -1 1 -1 1 -1 0 -1 0 -1 0 -1 0 -1 0 -1 0 -1 0 -1 0 -1 0 -1 0 -1 0 -1 0 -1 0 0 0zm-17 -17l6 0 0 0 0 1 0 1 0 1 0 1 0 1 0 1 0 1 0 1 0 0 0 0 0 0 0 0 0 0 0 0 0 0 0 0 0 0 0 0 0 0 0 0 0 0 0 0 0 0 1 0 0 0 1 0 1 0 1 0 1 0 1 0 1 0 1 0 0 6 -1 0 -1 0 -1 0 -1 0 -1 0 -1 0 -1 0 -1 0 -1 0 -1 0 -1 0 -1 0 -1 0 -1 -1 -1 -1 -1 -1 -1 -1 -1 -1 -1 -1 0 -1 0 -1 0 -1 0 -1 0 -1 0 -1 0 -1 0 -1 0 -1 0 -1 0 -1 0 -1 0 -1 0 0zm17 -17l0 6 0 0 -1 0 -1 0 -1 0 -1 0 -1 0 -1 0 -1 0 -1 0 0 0 0 0 0 0 0 0 0 0 0 0 0 0 0 0 0 0 0 0 0 0 0 0 0 0 0 0 0 0 0 0 0 1 0 1 0 1 0 1 0 1 0 1 0 1 0 1 -6 0 0 -1 0 -1 0 -1 0 -1 0 -1 0 -1 0 -1 0 -1 0 -1 0 -1 0 -1 0 -1 0 -1 1 -1 1 -1 1 -1 1 -1 1 -1 1 -1 1 0 1 0 1 0 1 0 1 0 1 0 1 0 1 0 1 0 1 0 1 0 1 0 1 0 0 0zm17 17l-6 0 0 0 0 -1 0 -1 0 -1 0 -1 0 -1 0 -1 0 -1 0 0 0 -1 0 0 0 0 0 0 0 0 0 0 0 0 0 0 0 0 0 0 0 0 0 0 0 0 0 0 0 0 0 0 -1 0 -1 0 -1 0 -1 0 -1 0 -1 0 -1 0 -1 0 0 -6 1 0 1 0 1 0 1 0 1 0 1 0 1 0 1 0 1 0 1 0 1 0 1 0 1 0 1 1 1 1 1 1 1 1 1 1 1 1 0 1 0 1 0 1 0 1 0 1 0 1 0 1 0 1 0 1 0 1 0 1 0 1 0 1 0 0z"/>
     </g>
     <g>
      <path class="fil0" d="M210 214l0 -6 0 0 1 0 1 0 1 0 1 0 1 0 1 0 1 0 0 0 1 0 0 0 0 0 0 0 0 0 0 0 0 0 0 0 0 0 0 0 0 0 0 0 0 0 0 0 0 0 0 0 0 -1 0 -1 0 -1 0 -1 0 -1 0 -1 0 -1 0 -1 6 0 0 1 0 1 0 1 0 1 0 1 0 1 0 1 0 1 0 1 0 1 0 1 0 1 0 1 -1 1 -1 1 -1 1 -1 1 -1 1 -1 1 -1 0 -1 0 -1 0 -1 0 -1 0 -1 0 -1 0 -1 0 -1 0 -1 0 -1 0 -1 0 -1 0 0 0zm-17 -17l6 0 0 0 0 1 0 1 0 1 0 1 0 1 0 1 0 1 0 1 0 0 0 0 0 0 0 0 0 0 0 0 0 0 0 0 0 0 0 0 0 0 0 0 0 0 0 0 0 0 0 0 1 0 1 0 1 0 1 0 1 0 1 0 1 0 1 0 0 6 -1 0 -1 0 -1 0 -1 0 -1 0 -1 0 -1 0 -1 0 -1 0 -1 0 -1 0 -1 0 -1 0 -1 -1 -1 -1 -1 -1 -1 -1 -1 -1 -1 -1 0 -1 0 -1 0 -1 0 -1 0 -1 0 -1 0 -1 0 -1 0 -1 0 -1 0 -1 0 -1 0 -1 0 0zm17 -17l0 6 0 0 -1 0 -1 0 -1 0 -1 0 -1 0 -1 0 -1 0 -1 0 0 0 0 0 0 0 0 0 0 0 0 0 0 0 0 0 0 0 0 0 0 0 0 0 0 0 0 0 0 0 0 1 0 0 0 1 0 1 0 1 0 1 0 1 0 1 0 1 -6 0 0 -1 0 -1 0 -1 0 -1 0 -1 0 -1 0 -1 0 -1 0 -1 0 -1 0 -1 0 -1 0 -1 1 -1 1 -1 1 -1 1 -1 1 -1 1 -1 1 0 1 0 1 0 1 0 1 0 1 0 1 0 1 0 1 0 1 0 1 0 1 0 1 0 0 0zm17 17l-6 0 0 0 0 -1 0 -1 0 -1 0 -1 0 -1 0 -1 0 -1 0 -1 0 0 0 0 0 0 0 0 0 0 0 0 0 0 0 0 0 0 0 0 0 0 0 0 0 0 0 0 0 0 0 0 -1 0 -1 0 -1 0 -1 0 -1 0 -1 0 -1 0 -1 0 0 -6 1 0 1 0 1 0 1 0 1 0 1 0 1 0 1 0 1 0 1 0 1 0 1 0 1 0 1 1 1 1 1 1 1 1 1 1 1 1 0 1 0 1 0 1 0 1 0 1 0 1 0 1 0 1 0 1 0 1 0 1 0 1 0 1 0 0z"/>
     </g>
    </g>
   </g>
   <g>
    <path class="fil0" d="M28 234c-2,0 -3,-1 -3,-3 0,-2 1,-3 3,-3l0 6zm154 0l-154 0 0 -6 154 0 0 6zm0 -6c2,0 3,1 3,3 0,2 -1,3 -3,3l0 -6z"/>
   </g>
  </g>
 </g>
</svg>
