<?xml version="1.0" encoding="UTF-8"?>
<!DOCTYPE svg PUBLIC "-//W3C//DTD SVG 1.0//EN" "http://www.w3.org/TR/2001/REC-SVG-20010904/DTD/svg10.dtd">
<!-- Creator: CorelDRAW 2019 (64-Bit) -->
<svg xmlns="http://www.w3.org/2000/svg" xml:space="preserve" width="0.106665in" height="0.0964252in" version="1.0" style="shape-rendering:geometricPrecision; text-rendering:geometricPrecision; image-rendering:optimizeQuality; fill-rule:evenodd; clip-rule:evenodd"
viewBox="0 0 235 213"
 xmlns:xlink="http://www.w3.org/1999/xlink">
 <defs>
  <style type="text/css">
   <![CDATA[
    .fil0 {fill:#373435;fill-rule:nonzero}
   ]]>
  </style>
 </defs>
 <g id="Layer_x0020_1">
  <metadata id="CorelCorpID_0Corel-Layer"/>
  <g id="_2931654984768">
   <g>
    <path class="fil0" d="M230 80c-5,-1 -18,5 -18,5l-1 1c0,0 -3,-2 -12,-5 -9,-3 -13,-3 -15,0 -1,1 17,9 17,9l-14 7c0,0 -6,-1 -8,-2 -2,-1 -6,0 -6,2 -1,2 16,8 16,8 1,0 18,-6 18,-6 0,0 -1,4 -3,13 -3,9 -1,10 -1,10 5,4 14,-28 14,-28 0,0 7,-3 14,-7 7,-3 3,-5 -2,-7z"/>
    <path class="fil0" d="M158 112c-2,1 -4,2 -6,3l0 -48c0,-12 -10,-22 -22,-22l-4 0 0 -27c0,-7 -5,-13 -12,-14 0,-2 -2,-3 -4,-3l-30 0c-2,0 -3,1 -4,3 -7,1 -12,7 -12,14l0 27 -7 0c-12,0 -22,10 -22,22l0 72c-1,1 -3,2 -5,3 -1,1 -2,1 -4,2 -1,1 -1,1 -2,2 -1,1 -1,1 -2,3 0,0 0,1 -1,1 0,0 0,1 0,1 0,0 0,1 0,1l0 0 0 0 0 0c0,1 0,0 0,1l0 0c0,0 0,1 1,1 0,1 1,1 1,1 2,1 3,1 4,1 2,0 4,0 7,0 0,0 0,0 0,0 2,0 5,-1 7,-1 6,-1 13,-3 20,-5 10,-3 20,-6 31,-10 5,-2 10,-4 15,-6 5,-2 10,-4 15,-6 5,-2 9,-4 13,-6 3,-1 6,-3 8,-4 1,-1 2,-1 4,-2 1,-1 2,-1 4,-2 2,-1 4,-2 6,-3 3,-1 5,-3 8,-4 4,-2 7,-4 7,-4 0,0 -2,1 -7,3 -2,1 -5,2 -8,4zm-87 -94l0 0c0,-3 2,-6 5,-7 0,2 2,3 3,3l30 0c2,0 3,-1 3,-3 3,1 5,4 5,7l0 27 -47 0 0 -27zm64 104l0 0c-4,2 -9,4 -14,6 -5,2 -10,3 -15,5 -5,2 -10,4 -15,5 -10,3 -21,6 -31,8 -7,1 -13,3 -19,4l0 -82c0,-8 7,-15 15,-15l74 0c8,0 15,7 15,15l0 51c-3,1 -6,3 -9,4z"/>
    <path class="fil0" d="M145 126c-1,0 -2,1 -3,1 -16,8 -39,19 -61,28 -11,5 -23,9 -34,12 -2,1 -4,1 -5,1 -2,1 -5,1 -7,2 -6,1 -12,2 -17,2 -4,0 -7,-1 -8,-2 -1,-1 -1,-2 -1,-4 0,-2 0,-3 1,-5 0,-1 0,-2 0,-2 0,0 -21,15 -1,23 0,0 1,0 1,0 3,1 5,1 8,1 5,0 11,-1 16,-2 0,0 1,0 1,0l0 9c0,12 10,22 22,22l74 0c12,0 22,-10 22,-22l0 -67c11,-7 17,-11 17,-11 0,0 -7,4 -17,9 -2,1 -5,2 -7,4zm0 64l0 0c0,8 -7,15 -15,15l-74 0c-8,0 -15,-7 -15,-15l0 -11c3,-1 5,-2 8,-3 11,-4 22,-9 34,-15 22,-11 44,-23 60,-33 1,0 1,-1 2,-1l0 62z"/>
   </g>
  </g>
 </g>
</svg>
