<?xml version="1.0" encoding="UTF-8"?>
<!DOCTYPE svg PUBLIC "-//W3C//DTD SVG 1.0//EN" "http://www.w3.org/TR/2001/REC-SVG-20010904/DTD/svg10.dtd">
<!-- Creator: CorelDRAW 2019 (64-Bit) -->
<svg xmlns="http://www.w3.org/2000/svg" xml:space="preserve" width="0.0809055in" height="0.075378in" version="1.0" style="shape-rendering:geometricPrecision; text-rendering:geometricPrecision; image-rendering:optimizeQuality; fill-rule:evenodd; clip-rule:evenodd"
viewBox="0 0 201 188"
 xmlns:xlink="http://www.w3.org/1999/xlink">
 <defs>
  <style type="text/css">
   <![CDATA[
    .fil0 {fill:#032B5B;fill-rule:nonzero}
    .fil1 {fill:#73BEE9;fill-rule:nonzero}
   ]]>
  </style>
 </defs>
 <g id="Layer_x0020_1">
  <metadata id="CorelCorpID_0Corel-Layer"/>
  <g id="_1935007718816">
   <path class="fil0" d="M180 18l0 -9c0,-5 -4,-10 -10,-10 -5,0 -10,4 -10,10l0 9 -119 0 0 -9c0,-5 -4,-10 -10,-10 -5,0 -10,4 -10,10l0 9 -22 0 0 169 201 0 0 -169 -22 0zm0 149l0 0 -158 0 0 -115 158 0 0 115z"/>
   <polygon class="fil1" points="152,87 48,87 48,129 152,129 "/>
  </g>
 </g>
</svg>
