<?xml version="1.0" encoding="UTF-8"?>
<!DOCTYPE svg PUBLIC "-//W3C//DTD SVG 1.1//EN" "http://www.w3.org/Graphics/SVG/1.1/DTD/svg11.dtd">
<!-- Creator: CorelDRAW 2019 (64-Bit) -->
<svg xmlns="http://www.w3.org/2000/svg" xml:space="preserve" width="0.386665in" height="0.386669in" version="1.1" style="shape-rendering:geometricPrecision; text-rendering:geometricPrecision; image-rendering:optimizeQuality; fill-rule:evenodd; clip-rule:evenodd"
viewBox="0 0 386.67 386.67"
 xmlns:xlink="http://www.w3.org/1999/xlink">
 <defs>
  <style type="text/css">
   <![CDATA[
    .fil19 {fill:#115C87;fill-rule:nonzero}
    .fil20 {fill:#383D49;fill-rule:nonzero}
    .fil0 {fill:#4777BC;fill-rule:nonzero}
    .fil10 {fill:#6CBBE9;fill-rule:nonzero}
    .fil14 {fill:#98D3F5;fill-rule:nonzero}
    .fil15 {fill:#EDEBA0;fill-rule:nonzero}
    .fil11 {fill:#EFEDB3;fill-rule:nonzero}
    .fil16 {fill:#F9DD75;fill-rule:nonzero}
    .fil17 {fill:#FBAA1D;fill-rule:nonzero}
    .fil9 {fill:#FFE28A;fill-rule:nonzero}
    .fil12 {fill:white;fill-rule:nonzero}
    .fil18 {fill:#F7CF44;fill-rule:nonzero;fill-opacity:0.400000}
    .fil21 {fill:#F9DD75;fill-rule:nonzero;fill-opacity:0.400000}
    .fil22 {fill:#FBAA1D;fill-rule:nonzero;fill-opacity:0.400000}
    .fil23 {fill:white;fill-rule:nonzero;fill-opacity:0.400000}
    .fil13 {fill:#CCCCCC;fill-rule:nonzero}
    .fil1 {fill:#E6E6E6;fill-rule:nonzero}
    .fil8 {fill:url(#id0);fill-rule:nonzero}
    .fil7 {fill:url(#id1);fill-rule:nonzero}
    .fil4 {fill:url(#id2);fill-rule:nonzero}
    .fil3 {fill:url(#id3);fill-rule:nonzero}
    .fil2 {fill:url(#id4);fill-rule:nonzero}
    .fil5 {fill:url(#id5);fill-rule:nonzero}
    .fil6 {fill:url(#id6);fill-rule:nonzero}
   ]]>
  </style>
  <linearGradient id="id0" gradientUnits="userSpaceOnUse" x1="240.77" y1="166.78" x2="305.22" y2="197.16">
   <stop offset="0" style="stop-opacity:1; stop-color:#98D3F5"/>
   <stop offset="1" style="stop-opacity:1; stop-color:#4497C7"/>
  </linearGradient>
  <linearGradient id="id1" gradientUnits="userSpaceOnUse" xlink:href="#id0" x1="216.06" y1="175.88" x2="276.96" y2="208.86">
  </linearGradient>
  <linearGradient id="id2" gradientUnits="userSpaceOnUse" xlink:href="#id0" x1="139.34" y1="185.9" x2="194.79" y2="221.85">
  </linearGradient>
  <linearGradient id="id3" gradientUnits="userSpaceOnUse" xlink:href="#id0" x1="113.62" y1="188.16" x2="167.56" y2="224.75">
  </linearGradient>
  <linearGradient id="id4" gradientUnits="userSpaceOnUse" xlink:href="#id0" x1="90.2" y1="195.99" x2="138" y2="234.47">
  </linearGradient>
  <linearGradient id="id5" gradientUnits="userSpaceOnUse" xlink:href="#id0" x1="163.92" y1="179.29" x2="223.18" y2="213.28">
  </linearGradient>
  <linearGradient id="id6" gradientUnits="userSpaceOnUse" xlink:href="#id0" x1="191.48" y1="183.23" x2="248.58" y2="218.41">
  </linearGradient>
 </defs>
 <g id="Layer_x0020_1">
  <metadata id="CorelCorpID_0Corel-Layer"/>
  <g id="_2031634175536">
   <path class="fil0" d="M321.39 386.67l-256.1 0c-36.06,0 -65.28,-29.23 -65.28,-65.29l0 -256.1c0,-36.06 29.23,-65.29 65.28,-65.29l256.1 0c36.06,0 65.28,29.23 65.28,65.29l0 256.1c0,36.06 -29.23,65.29 -65.28,65.29z"/>
   <g>
    <path class="fil1" d="M353.61 303.15c0,11.73 -71.76,21.24 -160.27,21.24 -88.52,0 -160.28,-9.51 -160.28,-21.24 0,-11.74 71.76,-21.25 160.28,-21.25 88.52,0 160.27,9.51 160.27,21.25z"/>
    <g>
     <g>
      <g>
       <g>
        <polygon class="fil2" points="125.02,168.22 103.19,168.22 103.19,229.62 103.19,262.24 125.02,262.24 125.02,214.92 "/>
        <polygon class="fil3" points="129.67,229.62 129.67,262.24 151.5,262.24 151.5,229.62 151.5,224.33 151.5,150.67 129.67,150.67 "/>
        <polygon class="fil4" points="177.98,145.51 156.15,145.51 156.15,229.62 156.15,262.24 177.98,262.24 177.98,166.37 177.98,166.37 "/>
        <polygon class="fil5" points="204.46,130.32 182.63,130.32 182.63,229.62 182.63,262.24 204.46,262.24 204.46,175.78 204.46,175.78 "/>
        <polygon class="fil6" points="230.94,139.4 209.12,139.4 209.12,229.62 209.12,262.24 230.94,262.24 230.94,159.32 "/>
        <polygon class="fil7" points="257.42,122.5 235.59,122.5 235.59,229.62 235.59,229.62 235.59,262.24 257.42,262.24 257.42,223.74 "/>
        <polygon class="fil8" points="283.9,101.69 262.08,101.69 262.08,229.62 262.08,262.24 283.9,262.24 283.9,173.43 "/>
       </g>
      </g>
      <g>
       <polygon class="fil9" points="283.67,62.28 283.67,69.36 293.62,69.36 214.33,111.8 190.61,97.67 74.04,154.73 77.15,161.09 190.28,105.72 214.14,119.93 297.58,75.28 293.08,83.63 299.32,86.99 312.63,62.28 "/>
      </g>
     </g>
     <g>
      <g>
       <g>
        <polygon class="fil10" points="304.47,258.3 215.45,258.3 215.45,246.05 304.47,246.05 "/>
        <polygon class="fil11" points="271.61,258.3 248.31,258.3 248.31,246.05 271.61,246.05 "/>
        <polygon class="fil12" points="251.68,258.3 250.17,258.3 250.17,246.05 251.68,246.05 "/>
        <polygon class="fil12" points="269.75,258.3 268.24,258.3 268.24,246.05 269.75,246.05 "/>
        <polygon class="fil13" points="304.47,258.3 215.45,258.3 215.45,256.03 304.47,256.03 "/>
       </g>
       <g>
        <polygon class="fil14" points="304.47,246.05 215.45,246.05 220.22,241.39 300.04,241.39 "/>
        <polygon class="fil15" points="271.61,246.05 248.31,246.05 250.17,241.39 269.75,241.39 "/>
        <polygon class="fil12" points="251.68,246.05 250.17,246.05 252.03,241.39 253.53,241.39 "/>
        <polygon class="fil12" points="269.75,246.05 268.24,246.05 266.38,241.39 267.88,241.39 "/>
       </g>
       <g>
        <polygon class="fil10" points="306.33,270.56 217.31,270.56 217.31,258.3 306.33,258.3 "/>
        <polygon class="fil11" points="273.47,270.56 250.17,270.56 250.17,258.3 273.47,258.3 "/>
        <polygon class="fil12" points="253.53,270.56 252.03,270.56 252.03,258.3 253.53,258.3 "/>
        <polygon class="fil12" points="271.61,270.56 270.1,270.56 270.1,258.3 271.61,258.3 "/>
        <polygon class="fil13" points="306.33,270.56 217.31,270.56 217.31,268.29 306.33,268.29 "/>
       </g>
       <g>
        <polygon class="fil10" points="304.47,282.81 215.45,282.81 215.45,270.56 304.47,270.56 "/>
        <polygon class="fil11" points="271.61,282.81 248.31,282.81 248.31,270.56 271.61,270.56 "/>
        <polygon class="fil12" points="251.68,282.81 250.17,282.81 250.17,270.56 251.68,270.56 "/>
        <polygon class="fil12" points="269.75,282.81 268.24,282.81 268.24,270.56 269.75,270.56 "/>
        <polygon class="fil13" points="304.47,282.81 215.45,282.81 215.45,280.55 304.47,280.55 "/>
       </g>
       <g>
        <polygon class="fil10" points="305.4,295.07 216.38,295.07 216.38,282.81 305.4,282.81 "/>
        <polygon class="fil11" points="272.54,295.07 249.23,295.07 249.23,282.81 272.54,282.81 "/>
        <polygon class="fil12" points="252.6,295.07 251.1,295.07 251.1,282.81 252.6,282.81 "/>
        <polygon class="fil12" points="270.68,295.07 269.17,295.07 269.17,282.81 270.68,282.81 "/>
        <polygon class="fil13" points="305.4,295.07 216.38,295.07 216.38,292.81 305.4,292.81 "/>
       </g>
      </g>
      <g>
       <g>
        <polygon class="fil10" points="177.4,240.01 88.38,240.01 88.38,227.76 177.4,227.76 "/>
        <polygon class="fil11" points="144.54,240.01 121.24,240.01 121.24,227.76 144.54,227.76 "/>
        <polygon class="fil12" points="124.61,240.01 123.1,240.01 123.1,227.76 124.61,227.76 "/>
        <polygon class="fil12" points="142.68,240.01 141.17,240.01 141.17,227.76 142.68,227.76 "/>
        <polygon class="fil13" points="177.4,240.01 88.38,240.01 88.38,237.75 177.4,237.75 "/>
       </g>
       <g>
        <polygon class="fil14" points="177.4,227.76 88.38,227.76 93.15,223.1 172.97,223.1 "/>
        <polygon class="fil15" points="144.54,227.76 121.24,227.76 123.1,223.1 142.68,223.1 "/>
        <polygon class="fil12" points="124.61,227.76 123.1,227.76 124.96,223.1 126.47,223.1 "/>
        <polygon class="fil12" points="142.68,227.76 141.17,227.76 139.31,223.1 140.82,223.1 "/>
       </g>
       <g>
        <polygon class="fil10" points="179.26,252.27 90.24,252.27 90.24,240.01 179.26,240.01 "/>
        <polygon class="fil11" points="146.4,252.27 123.1,252.27 123.1,240.01 146.4,240.01 "/>
        <polygon class="fil12" points="126.47,252.27 124.96,252.27 124.96,240.01 126.47,240.01 "/>
        <polygon class="fil12" points="144.54,252.27 143.04,252.27 143.04,240.01 144.54,240.01 "/>
        <polygon class="fil13" points="179.26,252.27 90.24,252.27 90.24,250.01 179.26,250.01 "/>
       </g>
       <g>
        <polygon class="fil10" points="177.4,264.53 88.38,264.53 88.38,252.27 177.4,252.27 "/>
        <polygon class="fil11" points="144.54,264.53 121.24,264.53 121.24,252.27 144.54,252.27 "/>
        <polygon class="fil12" points="124.61,264.53 123.1,264.53 123.1,252.27 124.61,252.27 "/>
        <polygon class="fil12" points="142.68,264.53 141.17,264.53 141.17,252.27 142.68,252.27 "/>
        <polygon class="fil13" points="177.4,264.53 88.38,264.53 88.38,262.26 177.4,262.26 "/>
       </g>
       <g>
        <polygon class="fil10" points="178.33,276.78 89.31,276.78 89.31,264.53 178.33,264.53 "/>
        <polygon class="fil11" points="145.47,276.78 122.17,276.78 122.17,264.53 145.47,264.53 "/>
        <polygon class="fil12" points="125.54,276.78 124.03,276.78 124.03,264.53 125.54,264.53 "/>
        <polygon class="fil12" points="143.61,276.78 142.1,276.78 142.1,264.53 143.61,264.53 "/>
        <polygon class="fil13" points="178.33,276.78 89.31,276.78 89.31,274.52 178.33,274.52 "/>
       </g>
       <g>
        <polygon class="fil10" points="175.54,289.04 86.52,289.04 86.52,276.78 175.54,276.78 "/>
        <polygon class="fil11" points="142.68,289.04 119.38,289.04 119.38,276.78 142.68,276.78 "/>
        <polygon class="fil12" points="122.75,289.04 121.24,289.04 121.24,276.78 122.75,276.78 "/>
        <polygon class="fil12" points="140.82,289.04 139.31,289.04 139.31,276.78 140.82,276.78 "/>
        <polygon class="fil13" points="175.54,289.04 86.52,289.04 86.52,286.77 175.54,286.77 "/>
       </g>
       <g>
        <polygon class="fil10" points="179.26,301.3 90.24,301.3 90.24,289.04 179.26,289.04 "/>
        <polygon class="fil11" points="146.4,301.3 123.1,301.3 123.1,289.04 146.4,289.04 "/>
        <polygon class="fil12" points="126.47,301.3 124.96,301.3 124.96,289.04 126.47,289.04 "/>
        <polygon class="fil12" points="144.54,301.3 143.04,301.3 143.04,289.04 144.54,289.04 "/>
        <polygon class="fil13" points="179.26,301.3 90.24,301.3 90.24,299.03 179.26,299.03 "/>
       </g>
      </g>
      <g>
       <g>
        <g>
         <g>
          <g>
           <path class="fil16" d="M139.31 211.86c-4.3,0 -7.79,1.06 -7.79,2.36l0 9.42c0,0.43 0.38,0.83 1.04,1.18 1.35,0.7 3.86,1.18 6.75,1.18 2.88,0 5.4,-0.47 6.74,-1.18 0.67,-0.35 1.04,-0.75 1.04,-1.18l0 -9.42c0,-1.3 -3.49,-2.36 -7.79,-2.36z"/>
          </g>
         </g>
         <g>
          <g>
           <path class="fil17" d="M139.31 217.02c-2.88,0 -5.48,-0.46 -6.95,-1.23 -1.06,-0.56 -1.28,-1.16 -1.28,-1.57 0,-1.84 4.14,-2.81 8.23,-2.81 4.09,0 8.23,0.96 8.23,2.81 0,0.41 -0.22,1.02 -1.28,1.57 -1.47,0.77 -4.07,1.23 -6.95,1.23zm0 -4.72l0 0c-4.48,0 -7.34,1.14 -7.34,1.92 0,0.23 0.3,0.52 0.8,0.79 1.33,0.7 3.83,1.13 6.54,1.13 2.7,0 5.21,-0.43 6.54,-1.13 0.5,-0.26 0.8,-0.56 0.8,-0.79 0,-0.78 -2.86,-1.92 -7.34,-1.92z"/>
           <path class="fil17" d="M139.31 224.1c-4.09,0 -8.23,-0.96 -8.23,-2.81l0 -2.36 0.89 0c0,0.23 0.29,0.52 0.8,0.79 1.33,0.7 3.83,1.13 6.54,1.13 2.7,0 5.21,-0.43 6.54,-1.13 0.51,-0.27 0.8,-0.56 0.8,-0.79l0.89 0 0 2.36c0,1.84 -4.14,2.81 -8.23,2.81zm-7.34 -3.82l0 0 0 1.02c0,0.78 2.86,1.92 7.34,1.92 4.48,0 7.34,-1.14 7.34,-1.92l0 -1.02c-0.12,0.08 -0.25,0.15 -0.39,0.23 -1.47,0.77 -4.07,1.23 -6.95,1.23 -2.88,0 -5.48,-0.46 -6.95,-1.23 -0.14,-0.07 -0.27,-0.15 -0.39,-0.23z"/>
           <path class="fil17" d="M139.31 226.46c-4.09,0 -8.23,-0.96 -8.23,-2.81l0 -2.36 0.89 0c0,0.23 0.29,0.52 0.8,0.78 1.33,0.7 3.83,1.13 6.54,1.13 2.7,0 5.21,-0.43 6.54,-1.13 0.51,-0.26 0.8,-0.55 0.8,-0.78l0.89 0 0 2.36c0,1.84 -4.14,2.81 -8.23,2.81zm-7.34 -3.82l0 0 0 1.01c0,0.78 2.86,1.92 7.34,1.92 4.48,0 7.34,-1.13 7.34,-1.92l0 -1.02c-0.12,0.08 -0.25,0.16 -0.39,0.23 -1.47,0.77 -4.07,1.23 -6.95,1.23 -2.88,0 -5.48,-0.46 -6.95,-1.23 -0.14,-0.07 -0.27,-0.15 -0.39,-0.23z"/>
           <path class="fil17" d="M139.31 221.74c-2.88,0 -5.48,-0.46 -6.95,-1.23 -0.85,-0.44 -1.28,-0.97 -1.28,-1.57l0 -2.36 0.89 0c0,0.23 0.29,0.52 0.8,0.79 1.33,0.69 3.83,1.13 6.54,1.13 2.7,0 5.21,-0.43 6.54,-1.13 0.51,-0.27 0.8,-0.56 0.8,-0.79l0.89 0 0 2.36c0,0.6 -0.43,1.13 -1.28,1.57 -1.47,0.77 -4.07,1.23 -6.95,1.23zm-7.34 -3.81l0 0 0 1.01c0,0.23 0.29,0.52 0.8,0.79 1.33,0.7 3.83,1.13 6.54,1.13 2.7,0 5.21,-0.43 6.54,-1.13 0.51,-0.27 0.8,-0.56 0.8,-0.79l0 -1.01c-0.12,0.08 -0.25,0.15 -0.39,0.23 -1.47,0.77 -4.07,1.23 -6.95,1.23 -2.88,0 -5.48,-0.46 -6.95,-1.23 -0.14,-0.07 -0.27,-0.15 -0.39,-0.23z"/>
           <path class="fil17" d="M139.31 219.38c-2.88,0 -5.48,-0.46 -6.95,-1.23 -0.85,-0.44 -1.28,-0.97 -1.28,-1.57l0 -2.36 0.89 0c0,0.23 0.3,0.52 0.8,0.79 1.33,0.7 3.83,1.13 6.54,1.13 2.7,0 5.21,-0.43 6.54,-1.13 0.5,-0.26 0.8,-0.56 0.8,-0.79l0.89 0 0 2.36c0,0.6 -0.43,1.13 -1.28,1.57 -1.47,0.77 -4.07,1.23 -6.95,1.23zm-7.34 -3.82l0 0 0 1.02c0,0.23 0.29,0.52 0.8,0.79 1.33,0.69 3.83,1.13 6.54,1.13 2.7,0 5.21,-0.43 6.54,-1.13 0.51,-0.27 0.8,-0.56 0.8,-0.79l0 -1.02c-0.11,0.08 -0.24,0.16 -0.39,0.23 -1.47,0.77 -4.07,1.23 -6.95,1.23 -2.88,0 -5.48,-0.46 -6.95,-1.23 -0.15,-0.07 -0.28,-0.15 -0.39,-0.23z"/>
          </g>
         </g>
         <g>
          <path class="fil12" d="M139.88 213.87c-0,0 -0.01,0 -0.01,0 -0.06,-0.01 -0.15,-0.03 -0.26,-0.06 -0.68,-0.14 -1.02,-0.26 -1.02,-0.36 0,-0.06 0.06,-0.1 0.18,-0.13 0.12,-0.04 0.28,-0.06 0.48,-0.06 0.27,0 0.47,0.03 0.6,0.07 0.13,0.05 0.19,0.13 0.19,0.24l0 0.04 1.41 0 0 -0.05c0,-0.23 -0.18,-0.4 -0.52,-0.51 -0.23,-0.07 -0.54,-0.12 -0.91,-0.15l0 -0.29 -1.38 0 0 0.29c-0.38,0.02 -0.69,0.07 -0.93,0.13 -0.38,0.1 -0.57,0.25 -0.57,0.44 0,0.15 0.11,0.27 0.33,0.37 0.22,0.1 0.76,0.24 1.59,0.42 0.04,0.01 0.1,0.02 0.17,0.04 0.54,0.11 0.8,0.21 0.8,0.29 0,0.07 -0.06,0.12 -0.19,0.16 -0.13,0.04 -0.3,0.06 -0.52,0.06 -0.29,0 -0.49,-0.02 -0.61,-0.08 -0.11,-0.06 -0.17,-0.15 -0.17,-0.29l0 -0.04 -1.43 0c0,0.01 -0,0.03 -0.01,0.04 0,0.02 -0,0.04 -0,0.04 0,0.24 0.18,0.42 0.54,0.53 0.24,0.07 0.57,0.13 1,0.15l0 0.29 1.38 0 0 -0.29c0.39,-0.02 0.71,-0.07 0.96,-0.14 0.39,-0.11 0.58,-0.26 0.58,-0.45 0,-0.24 -0.55,-0.48 -1.66,-0.72z"/>
         </g>
         <g>
          <path class="fil18" d="M140.26 226.45l0 -9.44c2.5,-0.09 4.7,-0.53 6.01,-1.21 1.06,-0.56 1.28,-1.16 1.28,-1.57 0,-0.46 0,-0.46 0,0l0 9.43c0,1.7 -3.53,2.65 -7.29,2.79z"/>
         </g>
        </g>
       </g>
       <g>
        <g>
         <g>
          <path class="fil16" d="M152.51 218.2c-4.17,0 -7.55,1.02 -7.55,2.29l0 4.53c0,0.42 0.37,0.81 1.01,1.15 1.3,0.68 3.74,1.14 6.54,1.14 2.8,0 5.23,-0.46 6.54,-1.14 0.64,-0.34 1.01,-0.72 1.01,-1.15l0 -4.53c0,-1.26 -3.38,-2.29 -7.54,-2.29z"/>
         </g>
        </g>
        <g>
         <g>
          <path class="fil17" d="M152.51 223.2c-2.79,0 -5.31,-0.44 -6.74,-1.19 -1.03,-0.54 -1.24,-1.13 -1.24,-1.53 0,-1.78 4.01,-2.72 7.98,-2.72 3.96,0 7.98,0.94 7.98,2.72 0,0.4 -0.22,0.99 -1.24,1.53 -1.43,0.74 -3.94,1.19 -6.74,1.19zm0 -4.57l0 0c-4.34,0 -7.11,1.1 -7.11,1.86 0,0.22 0.29,0.51 0.78,0.76 1.29,0.67 3.72,1.09 6.34,1.09 2.62,0 5.05,-0.42 6.33,-1.09 0.49,-0.25 0.78,-0.54 0.78,-0.76 0,-0.76 -2.77,-1.86 -7.11,-1.86z"/>
          <path class="fil17" d="M152.51 227.77c-2.79,0 -5.31,-0.44 -6.74,-1.19 -0.82,-0.43 -1.24,-0.94 -1.24,-1.52l0 -2.28 0.86 0c0,0.22 0.28,0.5 0.78,0.76 1.29,0.67 3.72,1.09 6.34,1.09 2.62,0 5.05,-0.42 6.33,-1.09 0.5,-0.26 0.78,-0.54 0.78,-0.76l0.86 0 0 2.28c0,0.58 -0.42,1.09 -1.24,1.52 -1.43,0.75 -3.94,1.19 -6.74,1.19zm-7.11 -3.7l0 0 0 0.98c0,0.22 0.28,0.5 0.78,0.76 1.29,0.68 3.72,1.09 6.34,1.09 2.62,0 5.05,-0.42 6.33,-1.09 0.5,-0.26 0.78,-0.54 0.78,-0.76l0 -0.98c-0.11,0.08 -0.24,0.15 -0.38,0.22 -1.43,0.74 -3.94,1.19 -6.74,1.19 -2.79,0 -5.31,-0.45 -6.74,-1.19 -0.14,-0.07 -0.26,-0.15 -0.38,-0.22z"/>
          <path class="fil17" d="M152.51 225.49c-2.79,0 -5.31,-0.45 -6.74,-1.19 -0.82,-0.43 -1.24,-0.94 -1.24,-1.52l0 -2.29 0.86 0c0,0.22 0.29,0.51 0.78,0.76 1.29,0.67 3.72,1.09 6.34,1.09 2.62,0 5.05,-0.42 6.33,-1.09 0.49,-0.25 0.78,-0.54 0.78,-0.76l0.86 0 0 2.29c0,0.58 -0.42,1.09 -1.24,1.52 -1.43,0.74 -3.94,1.19 -6.74,1.19zm-7.11 -3.7l0 0 0 0.98c0,0.22 0.28,0.5 0.78,0.76 1.29,0.67 3.72,1.09 6.34,1.09 2.62,0 5.05,-0.42 6.33,-1.09 0.5,-0.26 0.78,-0.54 0.78,-0.76l0 -0.98c-0.11,0.07 -0.24,0.15 -0.38,0.22 -1.43,0.74 -3.94,1.19 -6.74,1.19 -2.79,0 -5.31,-0.44 -6.74,-1.19 -0.14,-0.07 -0.27,-0.15 -0.38,-0.22z"/>
         </g>
        </g>
        <g>
         <path class="fil12" d="M153.05 220.32c-0,-0 -0.01,-0 -0.01,-0 -0.06,-0.01 -0.15,-0.03 -0.26,-0.06 -0.66,-0.14 -0.98,-0.25 -0.98,-0.34 0,-0.06 0.06,-0.1 0.17,-0.13 0.11,-0.03 0.27,-0.05 0.46,-0.05 0.26,0 0.46,0.02 0.58,0.07 0.12,0.05 0.18,0.12 0.18,0.23l0 0.04 1.36 0 0 -0.04c0,-0.22 -0.17,-0.39 -0.51,-0.5 -0.22,-0.07 -0.52,-0.12 -0.89,-0.15l0 -0.28 -1.33 0 0 0.28c-0.37,0.02 -0.67,0.06 -0.9,0.13 -0.37,0.1 -0.55,0.24 -0.55,0.43 0,0.14 0.11,0.26 0.32,0.36 0.22,0.1 0.73,0.24 1.54,0.41 0.04,0.01 0.09,0.02 0.17,0.04 0.52,0.11 0.78,0.2 0.78,0.28 0,0.06 -0.06,0.11 -0.19,0.15 -0.13,0.04 -0.29,0.06 -0.5,0.06 -0.28,0 -0.48,-0.03 -0.59,-0.08 -0.11,-0.05 -0.17,-0.15 -0.17,-0.28l0 -0.04 -1.39 0c0,0.01 -0,0.02 -0.01,0.04 -0,0.02 -0,0.03 -0,0.04 0,0.23 0.17,0.41 0.52,0.52 0.23,0.07 0.56,0.12 0.96,0.15l0 0.28 1.33 0 0 -0.28c0.38,-0.02 0.69,-0.07 0.94,-0.13 0.38,-0.11 0.57,-0.25 0.57,-0.44 0,-0.24 -0.54,-0.47 -1.61,-0.69z"/>
        </g>
        <g>
         <path class="fil18" d="M153.42 227.74l0 -4.55c2.42,-0.09 4.55,-0.51 5.82,-1.17 1.02,-0.54 1.24,-1.13 1.24,-1.53 0,-0.44 0,-0.44 0,0l0 4.54c0,1.65 -3.42,2.57 -7.06,2.7z"/>
        </g>
       </g>
      </g>
      <g>
       <g>
        <g>
         <g>
          <g>
           <path class="fil16" d="M272.29 229.89c-4.3,0 -7.79,1.06 -7.79,2.36l0 9.42c0,0.43 0.38,0.83 1.04,1.18 1.35,0.7 3.86,1.18 6.75,1.18 2.88,0 5.4,-0.48 6.74,-1.18 0.67,-0.35 1.04,-0.74 1.04,-1.18l0 -9.42c0,-1.3 -3.49,-2.36 -7.79,-2.36z"/>
          </g>
         </g>
         <g>
          <g>
           <path class="fil17" d="M272.29 235.05c-2.88,0 -5.48,-0.46 -6.95,-1.23 -1.06,-0.56 -1.28,-1.16 -1.28,-1.57 0,-1.84 4.14,-2.81 8.23,-2.81 4.09,0 8.23,0.96 8.23,2.81 0,0.41 -0.22,1.02 -1.28,1.57 -1.47,0.77 -4.07,1.23 -6.95,1.23zm0 -4.72l0 0c-4.48,0 -7.34,1.13 -7.34,1.92 0,0.23 0.3,0.52 0.8,0.78 1.33,0.7 3.83,1.13 6.54,1.13 2.7,0 5.21,-0.43 6.54,-1.13 0.5,-0.26 0.8,-0.56 0.8,-0.78 0,-0.78 -2.86,-1.92 -7.34,-1.92z"/>
           <path class="fil17" d="M272.29 242.13c-4.09,0 -8.23,-0.96 -8.23,-2.81l0 -2.36 0.89 0c0,0.23 0.29,0.52 0.8,0.78 1.33,0.7 3.83,1.13 6.54,1.13 2.7,0 5.21,-0.43 6.54,-1.13 0.51,-0.27 0.8,-0.55 0.8,-0.78l0.89 0 0 2.36c0,1.84 -4.14,2.81 -8.23,2.81zm-7.34 -3.82l0 0 0 1.02c0,0.78 2.86,1.92 7.34,1.92 4.48,0 7.34,-1.13 7.34,-1.92l0 -1.02c-0.12,0.08 -0.25,0.16 -0.39,0.23 -1.47,0.77 -4.07,1.23 -6.95,1.23 -2.88,0 -5.48,-0.46 -6.95,-1.23 -0.14,-0.07 -0.27,-0.15 -0.39,-0.23z"/>
           <path class="fil17" d="M272.29 244.49c-4.09,0 -8.23,-0.96 -8.23,-2.81l0 -2.36 0.89 0c0,0.23 0.29,0.52 0.8,0.78 1.33,0.7 3.83,1.13 6.54,1.13 2.7,0 5.21,-0.43 6.54,-1.13 0.51,-0.27 0.8,-0.56 0.8,-0.78l0.89 0 0 2.36c0,1.84 -4.14,2.81 -8.23,2.81zm-7.34 -3.82l0 0 0 1.02c0,0.78 2.86,1.92 7.34,1.92 4.48,0 7.34,-1.14 7.34,-1.92l0 -1.02c-0.12,0.08 -0.25,0.15 -0.39,0.23 -1.47,0.77 -4.07,1.23 -6.95,1.23 -2.88,0 -5.48,-0.46 -6.95,-1.23 -0.14,-0.07 -0.27,-0.15 -0.39,-0.23z"/>
           <path class="fil17" d="M272.29 239.77c-2.88,0 -5.48,-0.46 -6.95,-1.23 -0.85,-0.44 -1.28,-0.98 -1.28,-1.57l0 -2.36 0.89 0c0,0.23 0.29,0.52 0.8,0.78 1.33,0.7 3.83,1.13 6.54,1.13 2.7,0 5.21,-0.43 6.54,-1.13 0.51,-0.26 0.8,-0.55 0.8,-0.78l0.89 0 0 2.36c0,0.6 -0.43,1.13 -1.28,1.57 -1.47,0.77 -4.07,1.23 -6.95,1.23zm-7.34 -3.82l0 0 0 1.02c0,0.23 0.29,0.52 0.8,0.78 1.33,0.7 3.83,1.13 6.54,1.13 2.7,0 5.21,-0.43 6.54,-1.13 0.51,-0.27 0.8,-0.55 0.8,-0.78l0 -1.02c-0.12,0.08 -0.25,0.16 -0.39,0.23 -1.47,0.77 -4.07,1.23 -6.95,1.23 -2.88,0 -5.48,-0.46 -6.95,-1.23 -0.14,-0.07 -0.27,-0.15 -0.39,-0.23z"/>
           <path class="fil17" d="M272.29 237.41c-2.88,0 -5.48,-0.46 -6.95,-1.23 -0.85,-0.44 -1.28,-0.98 -1.28,-1.57l0 -2.36 0.89 0c0,0.23 0.3,0.52 0.8,0.78 1.33,0.7 3.83,1.13 6.54,1.13 2.7,0 5.21,-0.43 6.54,-1.13 0.5,-0.26 0.8,-0.56 0.8,-0.78l0.89 0 0 2.36c0,0.6 -0.43,1.13 -1.28,1.57 -1.47,0.77 -4.07,1.23 -6.95,1.23zm-7.34 -3.82l0 0 0 1.02c0,0.23 0.29,0.52 0.8,0.78 1.33,0.7 3.83,1.13 6.54,1.13 2.7,0 5.21,-0.43 6.54,-1.13 0.51,-0.26 0.8,-0.55 0.8,-0.78l0 -1.02c-0.11,0.08 -0.24,0.15 -0.39,0.23 -1.47,0.77 -4.07,1.23 -6.95,1.23 -2.88,0 -5.48,-0.46 -6.95,-1.23 -0.15,-0.08 -0.28,-0.15 -0.39,-0.23z"/>
          </g>
         </g>
         <g>
          <path class="fil12" d="M272.86 231.9c-0,0 -0.01,0 -0.01,-0 -0.06,-0.01 -0.15,-0.03 -0.26,-0.06 -0.68,-0.14 -1.02,-0.26 -1.02,-0.35 0,-0.06 0.06,-0.1 0.18,-0.14 0.12,-0.03 0.28,-0.05 0.48,-0.05 0.27,0 0.47,0.02 0.6,0.07 0.13,0.05 0.19,0.13 0.19,0.24l0 0.04 1.41 0 0 -0.04c0,-0.23 -0.18,-0.4 -0.52,-0.51 -0.23,-0.07 -0.54,-0.13 -0.91,-0.15l0 -0.3 -1.38 0 0 0.3c-0.38,0.02 -0.69,0.07 -0.93,0.13 -0.38,0.1 -0.57,0.25 -0.57,0.44 0,0.15 0.11,0.27 0.34,0.37 0.22,0.1 0.75,0.24 1.58,0.41 0.05,0.01 0.1,0.02 0.17,0.04 0.54,0.11 0.8,0.2 0.8,0.29 0,0.07 -0.06,0.12 -0.19,0.16 -0.13,0.04 -0.3,0.06 -0.52,0.06 -0.29,0 -0.49,-0.03 -0.61,-0.08 -0.11,-0.06 -0.17,-0.15 -0.17,-0.29l0 -0.04 -1.43 0c0,0.01 -0,0.02 -0.01,0.04 0,0.02 -0,0.03 -0,0.04 0,0.24 0.18,0.42 0.54,0.53 0.24,0.08 0.57,0.13 1,0.15l0 0.29 1.38 0 0 -0.29c0.39,-0.03 0.71,-0.07 0.96,-0.14 0.39,-0.1 0.59,-0.26 0.59,-0.45 0,-0.24 -0.56,-0.48 -1.67,-0.72z"/>
         </g>
         <g>
          <path class="fil18" d="M273.24 244.48l0 -9.44c2.5,-0.09 4.7,-0.52 6.01,-1.21 1.06,-0.56 1.28,-1.16 1.28,-1.57 0,-0.46 0,-0.46 0,0l0 9.44c0,1.7 -3.53,2.65 -7.29,2.79z"/>
         </g>
        </g>
       </g>
       <g>
        <g>
         <g>
          <path class="fil16" d="M258.14 236.1c-4.17,0 -7.55,1.02 -7.55,2.29l0 4.53c0,0.42 0.37,0.81 1.01,1.14 1.3,0.68 3.74,1.15 6.54,1.15 2.79,0 5.23,-0.46 6.54,-1.15 0.64,-0.33 1.01,-0.72 1.01,-1.14l0 -4.53c0,-1.26 -3.38,-2.29 -7.54,-2.29z"/>
         </g>
        </g>
        <g>
         <g>
          <path class="fil17" d="M258.14 241.1c-2.8,0 -5.31,-0.44 -6.74,-1.19 -1.03,-0.54 -1.24,-1.12 -1.24,-1.52 0,-1.78 4.01,-2.72 7.98,-2.72 3.96,0 7.98,0.94 7.98,2.72 0,0.4 -0.22,0.99 -1.24,1.52 -1.43,0.75 -3.94,1.19 -6.74,1.19zm0 -4.57l0 0c-4.34,0 -7.11,1.1 -7.11,1.86 0,0.22 0.29,0.51 0.78,0.76 1.29,0.68 3.72,1.09 6.34,1.09 2.62,0 5.05,-0.42 6.33,-1.09 0.49,-0.25 0.78,-0.54 0.78,-0.76 0,-0.76 -2.77,-1.86 -7.11,-1.86z"/>
          <path class="fil17" d="M258.14 245.68c-2.8,0 -5.31,-0.44 -6.74,-1.19 -0.82,-0.43 -1.24,-0.94 -1.24,-1.52l0 -2.29 0.86 0c0,0.23 0.28,0.5 0.78,0.76 1.29,0.67 3.72,1.09 6.34,1.09 2.62,0 5.05,-0.42 6.33,-1.09 0.5,-0.26 0.78,-0.54 0.78,-0.76l0.86 0 0 2.29c0,0.58 -0.42,1.09 -1.24,1.52 -1.43,0.75 -3.94,1.19 -6.74,1.19zm-7.11 -3.7l0 0 0 0.98c0,0.22 0.28,0.5 0.78,0.76 1.29,0.67 3.72,1.09 6.34,1.09 2.62,0 5.05,-0.42 6.33,-1.09 0.5,-0.26 0.78,-0.54 0.78,-0.76l0 -0.98c-0.12,0.08 -0.24,0.15 -0.38,0.22 -1.43,0.74 -3.94,1.19 -6.74,1.19 -2.8,0 -5.31,-0.44 -6.74,-1.19 -0.14,-0.07 -0.26,-0.15 -0.38,-0.22z"/>
          <path class="fil17" d="M258.14 243.39c-2.8,0 -5.31,-0.44 -6.74,-1.19 -0.82,-0.43 -1.24,-0.94 -1.24,-1.53l0 -2.28 0.86 0c0,0.22 0.29,0.51 0.78,0.76 1.29,0.68 3.72,1.09 6.34,1.09 2.62,0 5.05,-0.42 6.33,-1.09 0.49,-0.25 0.78,-0.54 0.78,-0.76l0.86 0 0 2.28c0,0.58 -0.42,1.09 -1.24,1.53 -1.43,0.74 -3.94,1.19 -6.74,1.19zm-7.11 -3.7l0 0 0 0.98c0,0.23 0.28,0.5 0.78,0.76 1.29,0.67 3.72,1.09 6.34,1.09 2.62,0 5.05,-0.42 6.33,-1.09 0.5,-0.26 0.78,-0.54 0.78,-0.76l0 -0.98c-0.11,0.07 -0.24,0.15 -0.38,0.22 -1.43,0.75 -3.94,1.19 -6.74,1.19 -2.8,0 -5.31,-0.44 -6.74,-1.19 -0.14,-0.07 -0.27,-0.15 -0.38,-0.22z"/>
         </g>
        </g>
        <g>
         <path class="fil12" d="M258.69 238.22c-0,0 -0.01,0 -0.01,-0 -0.06,-0.01 -0.15,-0.03 -0.26,-0.05 -0.66,-0.14 -0.98,-0.25 -0.98,-0.34 0,-0.06 0.06,-0.1 0.17,-0.13 0.11,-0.04 0.27,-0.05 0.46,-0.05 0.26,0 0.46,0.02 0.58,0.07 0.13,0.05 0.19,0.13 0.19,0.23l0 0.04 1.36 0 0 -0.04c0,-0.22 -0.17,-0.39 -0.51,-0.5 -0.22,-0.07 -0.52,-0.12 -0.89,-0.15l0 -0.28 -1.33 0 0 0.28c-0.37,0.02 -0.67,0.07 -0.9,0.13 -0.37,0.1 -0.55,0.24 -0.55,0.43 0,0.14 0.11,0.26 0.33,0.36 0.22,0.1 0.73,0.24 1.53,0.4 0.04,0.01 0.1,0.02 0.17,0.04 0.52,0.11 0.78,0.2 0.78,0.28 0,0.06 -0.06,0.11 -0.19,0.15 -0.13,0.04 -0.3,0.06 -0.5,0.06 -0.28,0 -0.48,-0.03 -0.59,-0.08 -0.11,-0.05 -0.17,-0.15 -0.17,-0.28l0 -0.04 -1.39 0c0,0.01 0,0.02 -0,0.04 -0,0.02 -0,0.03 -0,0.04 0,0.23 0.17,0.41 0.52,0.51 0.23,0.07 0.56,0.13 0.96,0.15l0 0.28 1.33 0 0 -0.28c0.38,-0.02 0.69,-0.07 0.94,-0.13 0.38,-0.1 0.57,-0.25 0.57,-0.43 0,-0.24 -0.54,-0.47 -1.61,-0.7z"/>
        </g>
        <g>
         <path class="fil18" d="M259.06 245.64l0 -4.55c2.42,-0.09 4.56,-0.51 5.82,-1.17 1.02,-0.54 1.24,-1.13 1.24,-1.53 0,-0.44 0,-0.44 0,0l0 4.55c0,1.65 -3.42,2.57 -7.06,2.7z"/>
        </g>
       </g>
       <g>
        <g>
         <g>
          <path class="fil16" d="M285.4 236.67c-4.17,0 -7.54,1.02 -7.54,2.29l0 4.53c0,0.42 0.37,0.81 1.01,1.14 1.3,0.69 3.74,1.15 6.54,1.15 2.8,0 5.24,-0.46 6.54,-1.15 0.65,-0.33 1.01,-0.72 1.01,-1.14l0 -4.53c0,-1.26 -3.38,-2.29 -7.55,-2.29z"/>
         </g>
        </g>
        <g>
         <g>
          <path class="fil17" d="M285.4 241.68c-2.79,0 -5.31,-0.44 -6.74,-1.19 -1.02,-0.54 -1.24,-1.13 -1.24,-1.53 0,-1.78 4.02,-2.72 7.98,-2.72 3.96,0 7.98,0.94 7.98,2.72 0,0.4 -0.21,0.99 -1.24,1.53 -1.43,0.74 -3.94,1.19 -6.74,1.19zm0 -4.57l0 0c-4.34,0 -7.11,1.1 -7.11,1.86 0,0.22 0.29,0.51 0.78,0.76 1.29,0.68 3.72,1.09 6.33,1.09 2.62,0 5.05,-0.42 6.34,-1.09 0.49,-0.25 0.78,-0.54 0.78,-0.76 0,-0.76 -2.77,-1.86 -7.11,-1.86z"/>
          <path class="fil17" d="M285.4 246.25c-2.79,0 -5.31,-0.44 -6.74,-1.19 -0.82,-0.43 -1.24,-0.94 -1.24,-1.52l0 -2.28 0.86 0c0,0.22 0.28,0.5 0.78,0.76 1.29,0.67 3.72,1.09 6.33,1.09 2.62,0 5.05,-0.42 6.34,-1.09 0.49,-0.26 0.78,-0.54 0.78,-0.76l0.86 0 0 2.28c0,0.58 -0.42,1.09 -1.24,1.52 -1.43,0.75 -3.94,1.19 -6.74,1.19zm-7.11 -3.7l0 0 0 0.98c0,0.22 0.28,0.5 0.78,0.76 1.29,0.68 3.72,1.09 6.33,1.09 2.62,0 5.05,-0.42 6.34,-1.09 0.49,-0.26 0.78,-0.54 0.78,-0.76l0 -0.98c-0.11,0.08 -0.24,0.15 -0.38,0.22 -1.43,0.75 -3.94,1.19 -6.74,1.19 -2.79,0 -5.31,-0.44 -6.74,-1.19 -0.14,-0.07 -0.26,-0.15 -0.38,-0.22z"/>
          <path class="fil17" d="M285.4 243.96c-2.79,0 -5.31,-0.44 -6.74,-1.19 -0.82,-0.43 -1.24,-0.94 -1.24,-1.52l0 -2.29 0.86 0c0,0.22 0.29,0.51 0.78,0.76 1.29,0.68 3.72,1.09 6.33,1.09 2.62,0 5.05,-0.42 6.34,-1.09 0.49,-0.25 0.78,-0.54 0.78,-0.76l0.86 0 0 2.29c0,0.58 -0.42,1.09 -1.24,1.52 -1.43,0.75 -3.94,1.19 -6.74,1.19zm-7.11 -3.7l0 0 0 0.98c0,0.22 0.28,0.5 0.78,0.76 1.29,0.67 3.72,1.09 6.33,1.09 2.62,0 5.05,-0.42 6.34,-1.09 0.49,-0.26 0.78,-0.54 0.78,-0.76l0 -0.98c-0.11,0.07 -0.24,0.15 -0.38,0.22 -1.43,0.74 -3.94,1.19 -6.74,1.19 -2.79,0 -5.31,-0.44 -6.74,-1.19 -0.14,-0.07 -0.26,-0.15 -0.38,-0.22z"/>
         </g>
        </g>
        <g>
         <path class="fil12" d="M285.95 238.79c-0,0 -0.01,-0 -0.01,-0 -0.06,-0.01 -0.15,-0.03 -0.25,-0.06 -0.66,-0.14 -0.98,-0.25 -0.98,-0.34 0,-0.06 0.06,-0.1 0.17,-0.13 0.11,-0.03 0.27,-0.05 0.46,-0.05 0.26,0 0.46,0.02 0.58,0.07 0.13,0.05 0.19,0.12 0.19,0.23l0 0.04 1.36 0 0 -0.04c0,-0.22 -0.17,-0.39 -0.5,-0.5 -0.22,-0.07 -0.52,-0.12 -0.89,-0.15l0 -0.28 -1.33 0 0 0.28c-0.37,0.02 -0.67,0.06 -0.9,0.13 -0.37,0.1 -0.55,0.24 -0.55,0.43 0,0.14 0.11,0.26 0.33,0.36 0.21,0.1 0.73,0.24 1.53,0.41 0.04,0.01 0.1,0.02 0.17,0.04 0.52,0.1 0.78,0.2 0.78,0.28 0,0.07 -0.06,0.11 -0.19,0.15 -0.13,0.04 -0.3,0.06 -0.51,0.06 -0.28,0 -0.47,-0.02 -0.59,-0.08 -0.11,-0.05 -0.17,-0.15 -0.17,-0.28l0 -0.04 -1.39 0c0,0.01 -0,0.02 -0.01,0.04 0,0.02 -0,0.03 -0,0.04 0,0.23 0.17,0.41 0.52,0.52 0.24,0.07 0.56,0.12 0.97,0.15l0 0.28 1.33 0 0 -0.28c0.38,-0.02 0.69,-0.07 0.93,-0.13 0.38,-0.1 0.57,-0.25 0.57,-0.44 0,-0.24 -0.54,-0.47 -1.61,-0.69z"/>
        </g>
        <g>
         <path class="fil18" d="M286.32 246.21l0 -4.55c2.42,-0.09 4.56,-0.51 5.82,-1.17 1.02,-0.54 1.24,-1.13 1.24,-1.53 0,-0.44 0,-0.44 0,0l0 4.55c0,1.65 -3.42,2.57 -7.06,2.7z"/>
        </g>
       </g>
      </g>
      <g>
       <g>
        <path class="fil19" d="M217.45 196.46c0.32,-0.45 17.8,-29.69 17.8,-29.69 0.68,-2.36 -1.87,-4.47 -4.77,-4 -6.3,1 -16.39,2.9 -20.29,2.3 -1.17,-0.18 -1.36,-0.63 -3.31,-1.11 -2.1,-0.52 -3.78,-0.94 -5.5,-0.48 -2.27,0.6 -4.09,2.58 -4.09,2.58 -3.67,3.37 -6.49,3.89 -8.31,3.8 -5.78,-0.27 -16.75,-7.02 -22.61,-7.32 -0.69,-0.04 -1.52,0.02 -2.29,0.41 -1.91,0.99 -2.08,3.46 -1.69,4.85l14.33 28.45c0.06,0.2 0.14,0.38 0.22,0.57 -19.07,18.28 -44.95,53.32 -44.95,73.92 0,18.73 11.48,40.95 64.87,40.95 53.39,0 64.86,-22.52 64.86,-40.95 0,-19.79 -25.5,-55.98 -44.28,-74.29z"/>
       </g>
       <g>
        <path class="fil20" d="M165.49 162.57c-0.37,0.04 -0.75,0.13 -1.12,0.28 0.35,-0.06 0.73,-0.16 1.12,-0.28z"/>
        <path class="fil13" d="M217.45 196.46c0.32,-0.45 17.8,-29.69 17.8,-29.69 0.68,-2.36 -1.87,-4.47 -4.77,-4 -6.03,0.96 -16.07,2.71 -19.78,2.34 -3.5,9.24 -10.17,26.82 -10.43,27.19 20.7,20.19 48.81,60.07 48.81,81.89 0,11.35 -3.95,24.09 -17.68,33.13 24.17,-7.44 30.33,-23.09 30.33,-36.58 0,-19.79 -25.5,-55.98 -44.28,-74.29z"/>
       </g>
       <g>
        <g>
         <g>
          <g>
           <path class="fil16" d="M218.28 197.28c-0.28,-0.27 -0.56,-0.55 -0.83,-0.82 0.06,-0.07 0.42,-0.54 1.41,-2.32l-43.16 0.07 1.03 2.06c0.06,0.2 0.14,0.38 0.22,0.57 -0.15,0.15 -0.31,0.3 -0.46,0.44l41.79 0z"/>
          </g>
          <g>
           <path class="fil16" d="M224.23 203.29c-1.03,-1.07 -2.06,-2.12 -3.06,-3.14l-47.63 0c-1.04,1.02 -2.09,2.07 -3.15,3.14l53.84 0z"/>
          </g>
         </g>
        </g>
        <g>
         <path class="fil17" d="M176.78 196.38c0.05,0.15 0.11,0.3 0.17,0.45 -0.15,0.15 -0.31,0.3 -0.46,0.44l41.79 0c-0.28,-0.27 -0.56,-0.55 -0.83,-0.82 0,-0 0.03,-0.06 0.04,-0.07l-40.71 0z"/>
        </g>
        <g>
         <path class="fil17" d="M223.36 202.39l-52.07 0c-0.3,0.3 -0.6,0.59 -0.9,0.9l53.84 0c-0.3,-0.31 -0.58,-0.59 -0.87,-0.9z"/>
        </g>
       </g>
       <path class="fil12" d="M200.89 252.12c-0.04,-0.02 -0.07,-0.05 -0.08,-0.08 -0.45,-0.28 -1.07,-0.69 -1.85,-1.22 -4.81,-3.17 -7.2,-5.8 -7.2,-7.92 0,-1.27 0.42,-2.28 1.27,-3.06 0.83,-0.76 1.95,-1.15 3.37,-1.15 1.93,0 3.35,0.55 4.24,1.66 0.91,1.12 1.35,2.86 1.35,5.25l0 0.93 9.95 0 0 -1.01c0,-5.09 -1.24,-8.9 -3.71,-11.42 -1.62,-1.67 -3.79,-2.77 -6.48,-3.35l0 -6.52 -9.76 0 0 6.52c-2.69,0.53 -4.87,1.51 -6.58,2.96 -2.69,2.28 -4.02,5.58 -4.02,9.9 0,3.24 0.78,6 2.37,8.3 1.57,2.31 5.33,5.4 11.22,9.27 0.31,0.21 0.71,0.47 1.22,0.81 3.81,2.44 5.69,4.62 5.69,6.52 0,1.46 -0.46,2.62 -1.37,3.48 -0.91,0.86 -2.15,1.28 -3.69,1.28 -2.05,0 -3.48,-0.6 -4.31,-1.79 -0.83,-1.2 -1.25,-3.37 -1.25,-6.5l0 -0.85 -10.15 0c0,0.23 -0.02,0.54 -0.05,0.96 -0.02,0.43 -0.03,0.73 -0.03,0.93 0,5.37 1.27,9.32 3.8,11.84 1.72,1.71 4.09,2.82 7.07,3.37l0 6.42 9.76 0 0 -6.44c2.77,-0.54 5.06,-1.56 6.85,-3.08 2.76,-2.36 4.15,-5.71 4.15,-10.04 0,-5.41 -3.92,-10.73 -11.79,-15.96z"/>
      </g>
      <g>
       <g>
        <g>
         <g>
          <g>
           <path class="fil16" d="M123.22 268.63c-6.48,0 -11.74,1.6 -11.74,3.56l0 35.58c0,1.96 5.26,3.56 11.74,3.56 6.48,0 11.74,-1.59 11.74,-3.56l0 -35.58c0,-1.96 -5.26,-3.56 -11.74,-3.56z"/>
          </g>
         </g>
         <g>
          <g>
           <path class="fil17" d="M123.22 286.97c-6.17,0 -12.41,-1.45 -12.41,-4.23l0 -3.56 1.34 0c0,0.35 0.44,0.78 1.21,1.19 2.01,1.05 5.78,1.7 9.86,1.7 4.08,0 7.85,-0.65 9.86,-1.7 0.77,-0.41 1.21,-0.83 1.21,-1.19l1.34 0 0 3.56c0,2.78 -6.24,4.23 -12.41,4.23zm-11.07 -5.76l0 0 0 1.53c0,1.18 4.31,2.89 11.07,2.89 6.76,0 11.07,-1.71 11.07,-2.89l0 -1.53c-0.18,0.12 -0.37,0.23 -0.59,0.35 -2.22,1.16 -6.14,1.85 -10.48,1.85 -4.34,0 -8.26,-0.69 -10.48,-1.85 -0.21,-0.11 -0.41,-0.23 -0.59,-0.35z"/>
           <path class="fil17" d="M123.22 290.53c-6.17,0 -12.41,-1.45 -12.41,-4.23l0 -3.56 1.34 0c0,0.35 0.44,0.78 1.21,1.19 2,1.05 5.78,1.7 9.86,1.7 4.08,0 7.85,-0.65 9.86,-1.7 0.77,-0.4 1.21,-0.83 1.21,-1.18l1.34 0 0 3.56c0,2.78 -6.24,4.23 -12.41,4.23zm-11.07 -5.76l0 0 0 1.53c0,1.18 4.31,2.89 11.07,2.89 6.76,0 11.07,-1.71 11.07,-2.89l0 -1.53c-0.18,0.12 -0.37,0.23 -0.59,0.35 -2.22,1.16 -6.14,1.85 -10.48,1.85 -4.34,0 -8.26,-0.7 -10.48,-1.85 -0.21,-0.11 -0.41,-0.23 -0.59,-0.35z"/>
           <path class="fil17" d="M123.22 283.41c-4.34,0 -8.26,-0.69 -10.48,-1.85 -1.28,-0.67 -1.93,-1.47 -1.93,-2.37l0 -3.56 1.34 0c0,0.35 0.44,0.78 1.21,1.18 2,1.05 5.78,1.7 9.86,1.7 4.08,0 7.85,-0.65 9.86,-1.7 0.77,-0.4 1.21,-0.83 1.21,-1.18l1.34 0 0 3.56c0,0.91 -0.65,1.7 -1.93,2.37 -2.22,1.16 -6.14,1.85 -10.48,1.85zm-11.07 -5.76l0 0 0 1.53c0,0.35 0.44,0.78 1.21,1.19 2.01,1.05 5.78,1.7 9.86,1.7 4.08,0 7.85,-0.65 9.86,-1.7 0.77,-0.41 1.21,-0.83 1.21,-1.19l0 -1.53c-0.18,0.12 -0.37,0.23 -0.59,0.34 -2.22,1.16 -6.14,1.85 -10.48,1.85 -4.34,0 -8.26,-0.69 -10.48,-1.85 -0.21,-0.11 -0.41,-0.22 -0.59,-0.34z"/>
           <path class="fil17" d="M123.22 297.64c-6.17,0 -12.41,-1.45 -12.41,-4.23l0 -3.56 1.34 0c0,0.35 0.44,0.78 1.21,1.19 2,1.05 5.78,1.7 9.86,1.7 4.08,0 7.85,-0.65 9.86,-1.7 0.77,-0.41 1.21,-0.83 1.21,-1.19l1.34 0 0 3.56c0,2.78 -6.24,4.23 -12.41,4.23zm-11.07 -5.76l0 0 0 1.53c0,1.18 4.31,2.89 11.07,2.89 6.76,0 11.07,-1.71 11.07,-2.89l0 -1.53c-0.18,0.12 -0.37,0.23 -0.59,0.35 -2.22,1.16 -6.14,1.85 -10.48,1.85 -4.34,0 -8.26,-0.7 -10.48,-1.85 -0.21,-0.11 -0.41,-0.23 -0.59,-0.35z"/>
           <path class="fil17" d="M123.22 301.2c-6.17,0 -12.41,-1.45 -12.41,-4.23l0 -3.56 1.34 0c0,0.35 0.44,0.78 1.21,1.19 2,1.05 5.78,1.7 9.86,1.7 4.08,0 7.85,-0.65 9.86,-1.7 0.77,-0.41 1.21,-0.83 1.21,-1.19l1.34 0 0 3.56c0,2.78 -6.24,4.23 -12.41,4.23zm-11.07 -5.76l0 0 0 1.53c0,1.18 4.31,2.89 11.07,2.89 6.76,0 11.07,-1.71 11.07,-2.89l0 -1.53c-0.18,0.12 -0.37,0.23 -0.59,0.34 -2.22,1.16 -6.14,1.86 -10.48,1.86 -4.34,0 -8.26,-0.7 -10.48,-1.85 -0.21,-0.11 -0.41,-0.23 -0.59,-0.35z"/>
           <path class="fil17" d="M123.22 294.08c-4.34,0 -8.26,-0.7 -10.48,-1.85 -1.28,-0.67 -1.93,-1.47 -1.93,-2.37l0 -3.56 1.34 0c0,0.35 0.44,0.78 1.21,1.19 2.01,1.05 5.78,1.7 9.86,1.7 4.08,0 7.85,-0.65 9.86,-1.7 0.77,-0.4 1.21,-0.83 1.21,-1.18l1.34 0 0 3.56c0,0.91 -0.65,1.7 -1.93,2.37 -2.22,1.16 -6.14,1.85 -10.48,1.85zm-11.07 -5.76l0 0 0 1.53c0,0.35 0.44,0.78 1.21,1.19 2,1.05 5.78,1.7 9.86,1.7 4.08,0 7.85,-0.65 9.86,-1.7 0.77,-0.41 1.21,-0.83 1.21,-1.19l0 -1.53c-0.18,0.12 -0.37,0.23 -0.59,0.35 -2.22,1.16 -6.14,1.85 -10.48,1.85 -4.34,0 -8.26,-0.69 -10.48,-1.85 -0.21,-0.11 -0.41,-0.23 -0.59,-0.35z"/>
           <path class="fil17" d="M123.22 308.32c-6.17,0 -12.41,-1.46 -12.41,-4.24l0 -3.56 1.34 0c0,0.35 0.44,0.78 1.21,1.19 2,1.05 5.78,1.7 9.86,1.7 4.08,0 7.85,-0.65 9.86,-1.7 0.77,-0.41 1.21,-0.83 1.21,-1.19l1.34 0 0 3.56c0,2.78 -6.24,4.24 -12.41,4.24zm-11.07 -5.76l0 0 0 1.53c0,1.18 4.31,2.89 11.07,2.89 6.76,0 11.07,-1.71 11.07,-2.89l0 -1.53c-0.18,0.12 -0.37,0.23 -0.59,0.35 -2.22,1.16 -6.14,1.85 -10.48,1.85 -4.34,0 -8.26,-0.69 -10.48,-1.85 -0.21,-0.11 -0.41,-0.23 -0.59,-0.35z"/>
           <path class="fil17" d="M123.22 311.88c-6.17,0 -12.41,-1.46 -12.41,-4.24l0 -3.56 1.34 0c0,0.35 0.44,0.78 1.21,1.19 2.01,1.05 5.78,1.7 9.86,1.7 4.08,0 7.85,-0.65 9.86,-1.7 0.77,-0.41 1.21,-0.83 1.21,-1.19l1.34 0 0 3.56c0,2.78 -6.24,4.24 -12.41,4.24zm-11.07 -5.76l0 0 0 1.53c0,1.18 4.31,2.89 11.07,2.89 6.76,0 11.07,-1.71 11.07,-2.89l0 -1.53c-0.18,0.12 -0.37,0.23 -0.59,0.35 -2.22,1.16 -6.14,1.85 -10.48,1.85 -4.34,0 -8.26,-0.69 -10.48,-1.85 -0.21,-0.11 -0.41,-0.23 -0.59,-0.35z"/>
           <path class="fil17" d="M123.22 304.76c-4.34,0 -8.26,-0.69 -10.48,-1.85 -1.28,-0.67 -1.93,-1.47 -1.93,-2.37l0 -3.56 1.34 0c0,0.35 0.44,0.78 1.21,1.19 2.01,1.05 5.78,1.7 9.86,1.7 4.08,0 7.85,-0.65 9.86,-1.7 0.77,-0.41 1.21,-0.83 1.21,-1.19l1.34 0 0 3.56c0,0.91 -0.65,1.7 -1.93,2.37 -2.22,1.16 -6.14,1.85 -10.48,1.85zm-11.07 -5.76l0 0 0 1.53c0,0.35 0.44,0.78 1.21,1.19 2,1.05 5.78,1.7 9.86,1.7 4.08,0 7.85,-0.65 9.86,-1.7 0.77,-0.41 1.21,-0.83 1.21,-1.19l0 -1.53c-0.18,0.12 -0.37,0.23 -0.59,0.35 -2.22,1.16 -6.14,1.85 -10.48,1.85 -4.34,0 -8.26,-0.7 -10.48,-1.85 -0.21,-0.11 -0.41,-0.23 -0.59,-0.35z"/>
           <path class="fil17" d="M123.22 279.85c-4.34,0 -8.26,-0.69 -10.48,-1.85 -1.28,-0.67 -1.93,-1.47 -1.93,-2.37l0 -3.56 1.34 0c0,0.34 0.45,0.79 1.21,1.18 2.01,1.05 5.78,1.7 9.86,1.7 4.08,0 7.85,-0.65 9.86,-1.7 0.76,-0.39 1.21,-0.84 1.21,-1.18l1.34 0 0 3.56c0,0.91 -0.65,1.7 -1.93,2.37 -2.22,1.16 -6.14,1.85 -10.48,1.85zm-11.07 -5.76l0 0 0 1.53c0,0.35 0.44,0.78 1.21,1.18 2,1.05 5.78,1.7 9.86,1.7 4.08,0 7.85,-0.65 9.86,-1.7 0.77,-0.4 1.21,-0.83 1.21,-1.18l0 -1.53c-0.17,0.12 -0.37,0.23 -0.59,0.35 -2.22,1.16 -6.14,1.85 -10.48,1.85 -4.34,0 -8.26,-0.69 -10.48,-1.85 -0.22,-0.11 -0.41,-0.23 -0.59,-0.35z"/>
           <path class="fil17" d="M123.22 276.29c-4.34,0 -8.26,-0.69 -10.48,-1.85 -1.59,-0.83 -1.93,-1.75 -1.93,-2.37 0,-2.78 6.24,-4.24 12.41,-4.24 6.17,0 12.41,1.46 12.41,4.24 0,0.62 -0.33,1.54 -1.93,2.37 -2.22,1.16 -6.14,1.85 -10.48,1.85zm0 -7.12l0 0c-6.76,0 -11.07,1.71 -11.07,2.89 0,0.34 0.45,0.79 1.21,1.18 2.01,1.05 5.78,1.7 9.86,1.7 4.08,0 7.85,-0.65 9.86,-1.7 0.76,-0.39 1.21,-0.84 1.21,-1.18 0,-1.18 -4.31,-2.89 -11.07,-2.89z"/>
          </g>
         </g>
        </g>
        <g>
         <path class="fil18" d="M121.8 311.85l0 -35.58c-3.76,-0.13 -7.08,-0.79 -9.06,-1.82 -1.59,-0.84 -1.93,-1.75 -1.93,-2.38 0,-0.69 -0,-0.69 -0,0l0 3.56 0 3.56 0 3.56c0,0 0,0 0,0l0 0 0 3.56c0,0 0,0 0,0l0 0 0 3.56 0 3.56c0,0 0,0 0,0l0 0 0 3.56c0,0 0,0 0,0l0 0 0 3.56 0 3.56c0,0 0,0 0,0l0 0 0 3.56c0,2.57 5.32,4 10.98,4.21z"/>
        </g>
        <g>
         <g>
          <g>
           <path class="fil21" d="M133.6 261.84c0,5.73 -4.65,10.38 -10.38,10.38 -5.73,0 -10.37,-4.65 -10.37,-10.38 0,-5.73 4.65,-10.37 10.37,-10.37 5.73,0 10.38,4.65 10.38,10.37z"/>
          </g>
          <g>
           <g>
            <path class="fil22" d="M123.22 272.89c-6.09,0 -11.04,-4.96 -11.04,-11.05 0,-6.09 4.95,-11.04 11.04,-11.04 6.09,0 11.05,4.96 11.05,11.04 0,6.09 -4.96,11.05 -11.05,11.05zm0 -20.75l0 0c-5.35,0 -9.7,4.35 -9.7,9.7 0,5.35 4.35,9.7 9.7,9.7 5.35,0 9.7,-4.35 9.7,-9.7 0,-5.35 -4.35,-9.7 -9.7,-9.7z"/>
           </g>
          </g>
          <g>
           <path class="fil23" d="M124.08 261.18c-0.01,-0 -0.02,-0.01 -0.02,-0.02 -0.09,-0.05 -0.23,-0.12 -0.39,-0.21 -1.02,-0.55 -1.53,-1.01 -1.53,-1.37 0,-0.22 0.09,-0.39 0.27,-0.53 0.17,-0.13 0.41,-0.2 0.71,-0.2 0.41,0 0.71,0.09 0.91,0.29 0.19,0.2 0.29,0.5 0.29,0.91l0 0.16 2.11 0 0 -0.18c0,-0.88 -0.26,-1.54 -0.79,-1.98 -0.35,-0.29 -0.81,-0.48 -1.38,-0.58l0 -1.13 -2.07 0 0 1.13c-0.57,0.09 -1.04,0.26 -1.4,0.52 -0.57,0.39 -0.86,0.97 -0.86,1.72 0,0.56 0.17,1.04 0.51,1.44 0.33,0.4 1.13,0.94 2.39,1.61 0.07,0.04 0.15,0.08 0.26,0.14 0.81,0.43 1.21,0.8 1.21,1.13 0,0.26 -0.1,0.45 -0.29,0.6 -0.19,0.15 -0.45,0.22 -0.78,0.22 -0.44,0 -0.74,-0.1 -0.92,-0.31 -0.18,-0.21 -0.26,-0.58 -0.26,-1.13l0 -0.15 -2.16 0c0,0.04 0,0.09 -0.01,0.17 -0,0.07 -0.01,0.13 -0.01,0.16 0,0.93 0.27,1.62 0.81,2.06 0.36,0.3 0.87,0.49 1.5,0.59l0 1.11 2.07 0 0 -1.12c0.59,-0.09 1.07,-0.27 1.45,-0.54 0.59,-0.41 0.89,-0.99 0.89,-1.74 0,-0.94 -0.83,-1.86 -2.51,-2.77z"/>
          </g>
         </g>
         <g>
          <path class="fil18" d="M120.49 272.55l5.79 -21.32c4.61,1.33 7.99,5.58 7.99,10.61 0,6.09 -4.96,11.05 -11.05,11.05 -0.94,0 -1.86,-0.12 -2.73,-0.34z"/>
         </g>
        </g>
       </g>
       <g>
        <g>
         <g>
          <path class="fil16" d="M148.71 282.56c-6.48,0 -11.74,1.6 -11.74,3.56l0 17.78c0,0.65 0.57,1.26 1.57,1.78 2.03,1.06 5.82,1.78 10.17,1.78 4.35,0 8.15,-0.72 10.17,-1.78 1,-0.52 1.57,-1.13 1.57,-1.78l0 -17.78c0,-1.96 -5.26,-3.56 -11.74,-3.56z"/>
         </g>
        </g>
        <g>
         <g>
          <path class="fil17" d="M148.71 290.35c-4.34,0 -8.26,-0.69 -10.48,-1.85 -1.59,-0.83 -1.93,-1.75 -1.93,-2.37 0,-2.78 6.24,-4.23 12.41,-4.23 6.17,0 12.41,1.45 12.41,4.23 0,0.62 -0.33,1.54 -1.93,2.37 -2.22,1.16 -6.13,1.85 -10.48,1.85zm0 -7.11l0 0c-6.76,0 -11.07,1.71 -11.07,2.89 0,0.34 0.45,0.79 1.21,1.19 2,1.05 5.78,1.7 9.86,1.7 4.07,0 7.85,-0.65 9.86,-1.7 0.76,-0.4 1.21,-0.84 1.21,-1.19 0,-1.18 -4.31,-2.89 -11.07,-2.89z"/>
          <path class="fil17" d="M148.71 301.03c-6.17,0 -12.41,-1.46 -12.41,-4.24l0 -3.56 1.34 0c0,0.35 0.44,0.78 1.21,1.19 2,1.05 5.78,1.7 9.86,1.7 4.07,0 7.85,-0.65 9.86,-1.7 0.77,-0.41 1.21,-0.83 1.21,-1.19l1.34 0 0 3.56c0,2.78 -6.24,4.24 -12.41,4.24zm-11.07 -5.76l0 0 0 1.53c0,1.18 4.31,2.89 11.07,2.89 6.76,0 11.07,-1.71 11.07,-2.89l0 -1.53c-0.18,0.12 -0.37,0.23 -0.59,0.35 -2.22,1.16 -6.13,1.85 -10.48,1.85 -4.34,0 -8.26,-0.69 -10.48,-1.85 -0.21,-0.11 -0.41,-0.23 -0.59,-0.35z"/>
          <path class="fil17" d="M148.71 304.58c-6.17,0 -12.41,-1.45 -12.41,-4.23l0 -3.56 1.34 0c0,0.35 0.44,0.78 1.21,1.19 2.01,1.05 5.78,1.7 9.86,1.7 4.07,0 7.85,-0.65 9.86,-1.7 0.77,-0.4 1.21,-0.83 1.21,-1.19l1.34 0 0 3.56c0,2.78 -6.24,4.23 -12.41,4.23zm-11.07 -5.76l0 0 0 1.53c0,1.18 4.31,2.89 11.07,2.89 6.76,0 11.07,-1.71 11.07,-2.89l0 -1.53c-0.18,0.12 -0.37,0.23 -0.59,0.35 -2.22,1.16 -6.13,1.85 -10.48,1.85 -4.34,0 -8.26,-0.69 -10.48,-1.85 -0.21,-0.11 -0.41,-0.23 -0.59,-0.35z"/>
          <path class="fil17" d="M148.71 297.46c-4.34,0 -8.26,-0.69 -10.48,-1.85 -1.28,-0.67 -1.93,-1.47 -1.93,-2.37l0 -3.56 1.34 0c0,0.35 0.44,0.78 1.21,1.19 2,1.05 5.78,1.7 9.86,1.7 4.07,0 7.85,-0.65 9.86,-1.7 0.77,-0.41 1.21,-0.83 1.21,-1.19l1.34 0 0 3.56c0,0.91 -0.65,1.7 -1.93,2.37 -2.22,1.16 -6.13,1.85 -10.48,1.85zm-11.07 -5.76l0 0 0 1.53c0,0.35 0.44,0.78 1.21,1.19 2,1.05 5.78,1.7 9.86,1.7 4.07,0 7.85,-0.65 9.86,-1.7 0.77,-0.41 1.21,-0.83 1.21,-1.19l0 -1.53c-0.18,0.12 -0.37,0.23 -0.59,0.35 -2.22,1.16 -6.13,1.85 -10.48,1.85 -4.34,0 -8.26,-0.7 -10.48,-1.85 -0.21,-0.11 -0.41,-0.23 -0.59,-0.35z"/>
          <path class="fil17" d="M148.71 308.14c-4.34,0 -8.26,-0.69 -10.48,-1.85 -1.28,-0.67 -1.93,-1.47 -1.93,-2.37l0 -3.56 1.34 0c0,0.35 0.44,0.78 1.21,1.19 2,1.05 5.78,1.7 9.86,1.7 4.07,0 7.85,-0.65 9.86,-1.7 0.77,-0.4 1.21,-0.83 1.21,-1.19l1.34 0 0 3.56c0,0.91 -0.65,1.7 -1.93,2.37 -2.22,1.16 -6.13,1.85 -10.48,1.85zm-11.07 -5.76l0 0 0 1.53c0,0.35 0.44,0.78 1.21,1.19 2.01,1.05 5.78,1.7 9.86,1.7 4.07,0 7.85,-0.65 9.86,-1.7 0.77,-0.4 1.21,-0.83 1.21,-1.19l0 -1.53c-0.18,0.12 -0.37,0.23 -0.59,0.35 -2.22,1.16 -6.13,1.85 -10.48,1.85 -4.34,0 -8.26,-0.69 -10.48,-1.85 -0.21,-0.11 -0.41,-0.23 -0.59,-0.35z"/>
          <path class="fil17" d="M148.71 293.91c-4.34,0 -8.26,-0.7 -10.48,-1.85 -1.28,-0.67 -1.93,-1.47 -1.93,-2.37l0 -3.56 1.34 0c0,0.34 0.45,0.79 1.21,1.19 2,1.05 5.78,1.7 9.86,1.7 4.07,0 7.85,-0.65 9.86,-1.7 0.76,-0.4 1.21,-0.84 1.21,-1.19l1.34 0 0 3.56c0,0.91 -0.65,1.7 -1.93,2.37 -2.22,1.16 -6.13,1.85 -10.48,1.85zm-11.07 -5.76l0 0 0 1.53c0,0.35 0.44,0.78 1.21,1.19 2,1.05 5.78,1.7 9.86,1.7 4.07,0 7.85,-0.65 9.86,-1.7 0.77,-0.41 1.21,-0.83 1.21,-1.19l0 -1.53c-0.17,0.12 -0.37,0.23 -0.59,0.35 -2.22,1.16 -6.13,1.85 -10.48,1.85 -4.34,0 -8.26,-0.69 -10.48,-1.85 -0.22,-0.11 -0.41,-0.23 -0.59,-0.35z"/>
         </g>
        </g>
        <g>
         <path class="fil12" d="M149.57 285.86c-0.01,0 -0.02,0 -0.02,-0 -0.09,-0.02 -0.23,-0.05 -0.39,-0.08 -1.02,-0.21 -1.53,-0.39 -1.53,-0.54 0,-0.09 0.09,-0.15 0.27,-0.2 0.17,-0.06 0.41,-0.08 0.71,-0.08 0.41,0 0.71,0.04 0.91,0.11 0.19,0.07 0.28,0.19 0.28,0.35l0 0.06 2.12 0 0 -0.07c0,-0.34 -0.26,-0.6 -0.79,-0.77 -0.35,-0.11 -0.81,-0.19 -1.38,-0.22l0 -0.44 -2.07 0 0 0.44c-0.57,0.03 -1.04,0.1 -1.4,0.2 -0.57,0.15 -0.85,0.38 -0.85,0.67 0,0.22 0.17,0.41 0.51,0.56 0.33,0.16 1.13,0.37 2.39,0.63 0.07,0.02 0.15,0.03 0.26,0.06 0.81,0.17 1.21,0.31 1.21,0.44 0,0.1 -0.09,0.18 -0.29,0.24 -0.19,0.06 -0.46,0.09 -0.78,0.09 -0.44,0 -0.74,-0.04 -0.92,-0.12 -0.18,-0.08 -0.26,-0.23 -0.26,-0.44l0 -0.06 -2.16 0c0,0.02 0,0.04 -0.01,0.06 -0,0.03 -0.01,0.05 -0.01,0.06 0,0.36 0.27,0.63 0.81,0.8 0.36,0.11 0.87,0.19 1.5,0.23l0 0.43 2.07 0 0 -0.44c0.59,-0.04 1.07,-0.11 1.46,-0.21 0.59,-0.16 0.88,-0.39 0.88,-0.68 0,-0.37 -0.83,-0.73 -2.51,-1.08z"/>
        </g>
        <g>
         <path class="fil18" d="M150.14 308.14l0 -17.81c3.77,-0.13 7.09,-0.8 9.06,-1.83 1.59,-0.84 1.93,-1.75 1.93,-2.37 0,-0.7 0,-0.69 0,0l0 17.81c0,2.56 -5.32,4 -10.99,4.2z"/>
        </g>
       </g>
       <g>
        <g>
         <g>
          <path class="fil16" d="M165.05 300.12c-6.48,0 -11.74,1.59 -11.74,3.56l0 7.05c0,0.65 0.57,1.26 1.57,1.78 2.03,1.06 5.82,1.78 10.17,1.78 4.35,0 8.15,-0.72 10.17,-1.78 1,-0.52 1.57,-1.13 1.57,-1.78l0 -7.05c0,-1.96 -5.26,-3.56 -11.74,-3.56z"/>
         </g>
        </g>
        <g>
         <g>
          <path class="fil17" d="M165.05 307.9c-4.34,0 -8.26,-0.69 -10.48,-1.85 -1.59,-0.83 -1.93,-1.75 -1.93,-2.37 0,-2.78 6.24,-4.23 12.41,-4.23 6.17,0 12.41,1.45 12.41,4.23 0,0.62 -0.33,1.54 -1.93,2.37 -2.22,1.16 -6.13,1.85 -10.48,1.85zm0 -7.12l0 0c-6.76,0 -11.07,1.71 -11.07,2.89 0,0.35 0.45,0.79 1.21,1.19 2,1.05 5.78,1.7 9.86,1.7 4.07,0 7.85,-0.65 9.86,-1.7 0.76,-0.4 1.21,-0.84 1.21,-1.19 0,-1.18 -4.31,-2.89 -11.07,-2.89z"/>
          <path class="fil17" d="M165.05 315.02c-4.34,0 -8.26,-0.69 -10.48,-1.85 -1.28,-0.67 -1.93,-1.47 -1.93,-2.37l0 -3.56 1.34 0c0,0.35 0.44,0.78 1.21,1.19 2,1.05 5.78,1.7 9.86,1.7 4.07,0 7.85,-0.65 9.86,-1.7 0.77,-0.4 1.21,-0.83 1.21,-1.19l1.34 0 0 3.56c0,0.91 -0.65,1.7 -1.93,2.37 -2.22,1.16 -6.13,1.85 -10.48,1.85zm-11.07 -5.76l0 0 0 1.53c0,0.35 0.44,0.78 1.21,1.19 2,1.05 5.78,1.7 9.86,1.7 4.07,0 7.85,-0.65 9.86,-1.7 0.77,-0.4 1.21,-0.83 1.21,-1.19l0 -1.53c-0.18,0.12 -0.37,0.23 -0.59,0.35 -2.22,1.16 -6.13,1.85 -10.48,1.85 -4.34,0 -8.26,-0.69 -10.48,-1.85 -0.21,-0.11 -0.41,-0.23 -0.59,-0.35z"/>
          <path class="fil17" d="M165.05 311.46c-4.34,0 -8.26,-0.69 -10.48,-1.85 -1.28,-0.67 -1.93,-1.47 -1.93,-2.37l0 -3.56 1.34 0c0,0.35 0.45,0.79 1.21,1.19 2,1.05 5.78,1.7 9.86,1.7 4.07,0 7.85,-0.65 9.86,-1.7 0.76,-0.4 1.21,-0.84 1.21,-1.19l1.34 0 0 3.56c0,0.91 -0.65,1.7 -1.93,2.37 -2.22,1.16 -6.13,1.85 -10.48,1.85zm-11.07 -5.76l0 0 0 1.53c0,0.35 0.44,0.78 1.21,1.19 2,1.05 5.78,1.7 9.86,1.7 4.07,0 7.85,-0.65 9.86,-1.7 0.77,-0.4 1.21,-0.83 1.21,-1.19l0 -1.53c-0.17,0.12 -0.37,0.24 -0.59,0.35 -2.22,1.16 -6.13,1.85 -10.48,1.85 -4.34,0 -8.26,-0.69 -10.48,-1.85 -0.22,-0.11 -0.41,-0.23 -0.59,-0.35z"/>
         </g>
        </g>
        <g>
         <path class="fil12" d="M165.91 303.42c-0.01,0 -0.02,-0 -0.02,-0.01 -0.09,-0.02 -0.23,-0.04 -0.39,-0.08 -1.02,-0.21 -1.53,-0.39 -1.53,-0.53 0,-0.09 0.09,-0.16 0.27,-0.21 0.17,-0.05 0.41,-0.08 0.71,-0.08 0.41,0 0.71,0.04 0.91,0.11 0.19,0.07 0.28,0.19 0.28,0.35l0 0.06 2.12 0 0 -0.07c0,-0.34 -0.26,-0.6 -0.79,-0.77 -0.35,-0.11 -0.81,-0.19 -1.38,-0.22l0 -0.44 -2.07 0 0 0.44c-0.57,0.04 -1.04,0.1 -1.4,0.2 -0.57,0.15 -0.85,0.37 -0.85,0.67 0,0.22 0.17,0.41 0.5,0.56 0.33,0.16 1.13,0.37 2.39,0.63 0.07,0.02 0.15,0.04 0.26,0.06 0.81,0.17 1.21,0.31 1.21,0.44 0,0.1 -0.09,0.18 -0.29,0.24 -0.19,0.06 -0.46,0.09 -0.78,0.09 -0.44,0 -0.74,-0.04 -0.92,-0.12 -0.18,-0.08 -0.26,-0.23 -0.26,-0.44l0 -0.06 -2.16 0c0,0.02 0,0.04 -0.01,0.07 -0,0.03 -0.01,0.05 -0.01,0.06 0,0.36 0.27,0.63 0.81,0.8 0.36,0.11 0.87,0.19 1.5,0.23l0 0.43 2.07 0 0 -0.44c0.59,-0.04 1.07,-0.1 1.46,-0.21 0.59,-0.16 0.88,-0.39 0.88,-0.68 0,-0.37 -0.83,-0.72 -2.51,-1.08z"/>
        </g>
        <g>
         <path class="fil18" d="M166.47 314.96l0 -7.08c3.77,-0.13 7.09,-0.8 9.06,-1.83 1.59,-0.84 1.93,-1.75 1.93,-2.37 0,-0.69 0,-0.69 0,0l0 7.07c0,2.56 -5.32,4 -10.99,4.21z"/>
        </g>
       </g>
       <g>
        <g>
         <g>
          <g>
           <path class="fil16" d="M135.64 293.67c-6.48,0 -11.74,1.59 -11.74,3.56l0 14.2c0,0.65 0.57,1.26 1.57,1.78 2.03,1.06 5.82,1.78 10.17,1.78 4.35,0 8.14,-0.72 10.17,-1.78 1,-0.52 1.57,-1.13 1.57,-1.78l0 -14.2c0,-1.97 -5.26,-3.56 -11.74,-3.56z"/>
          </g>
         </g>
         <g>
          <g>
           <path class="fil17" d="M135.64 301.46c-4.35,0 -8.26,-0.69 -10.48,-1.85 -1.6,-0.83 -1.93,-1.75 -1.93,-2.37 0,-2.78 6.24,-4.24 12.41,-4.24 6.17,0 12.41,1.46 12.41,4.24 0,0.62 -0.33,1.54 -1.93,2.37 -2.22,1.16 -6.14,1.85 -10.48,1.85zm0 -7.12l0 0c-6.76,0 -11.07,1.71 -11.07,2.89 0,0.34 0.45,0.78 1.21,1.18 2.01,1.05 5.78,1.7 9.86,1.7 4.07,0 7.85,-0.65 9.86,-1.7 0.76,-0.4 1.21,-0.84 1.21,-1.18 0,-1.18 -4.31,-2.89 -11.07,-2.89z"/>
           <path class="fil17" d="M135.64 312.13c-6.17,0 -12.41,-1.45 -12.41,-4.23l0 -3.56 1.34 0c0,0.35 0.44,0.78 1.21,1.18 2.01,1.05 5.78,1.7 9.86,1.7 4.07,0 7.85,-0.65 9.86,-1.7 0.77,-0.4 1.21,-0.83 1.21,-1.18l1.34 0 0 3.56c0,2.78 -6.24,4.23 -12.41,4.23zm-11.07 -5.76l0 0 0 1.53c0,1.18 4.31,2.89 11.07,2.89 6.76,0 11.07,-1.71 11.07,-2.89l0 -1.53c-0.18,0.12 -0.37,0.23 -0.59,0.34 -2.22,1.16 -6.14,1.85 -10.48,1.85 -4.35,0 -8.26,-0.69 -10.48,-1.85 -0.22,-0.11 -0.41,-0.23 -0.59,-0.35z"/>
           <path class="fil17" d="M135.64 315.69c-6.17,0 -12.41,-1.45 -12.41,-4.23l0 -3.56 1.34 0c0,0.35 0.44,0.78 1.21,1.18 2.01,1.05 5.79,1.7 9.86,1.7 4.07,0 7.85,-0.65 9.86,-1.7 0.77,-0.4 1.21,-0.83 1.21,-1.18l1.34 0 0 3.56c0,2.78 -6.24,4.23 -12.41,4.23zm-11.07 -5.76l0 0 0 1.53c0,1.18 4.31,2.89 11.07,2.89 6.76,0 11.07,-1.71 11.07,-2.89l0 -1.53c-0.18,0.12 -0.37,0.23 -0.59,0.34 -2.22,1.16 -6.14,1.86 -10.48,1.86 -4.35,0 -8.26,-0.7 -10.48,-1.86 -0.22,-0.11 -0.41,-0.22 -0.59,-0.34z"/>
           <path class="fil17" d="M135.64 308.57c-4.35,0 -8.26,-0.69 -10.48,-1.85 -1.28,-0.67 -1.93,-1.47 -1.93,-2.37l0 -3.56 1.34 0c0,0.35 0.44,0.78 1.21,1.18 2.01,1.05 5.78,1.7 9.86,1.7 4.07,0 7.85,-0.65 9.86,-1.7 0.77,-0.4 1.21,-0.83 1.21,-1.18l1.34 0 0 3.56c0,0.9 -0.65,1.7 -1.93,2.37 -2.22,1.16 -6.14,1.85 -10.48,1.85zm-11.07 -5.75l0 0 0 1.53c0,0.35 0.44,0.78 1.21,1.18 2.01,1.05 5.78,1.7 9.86,1.7 4.07,0 7.85,-0.65 9.86,-1.7 0.77,-0.4 1.21,-0.83 1.21,-1.18l0 -1.53c-0.18,0.12 -0.37,0.24 -0.59,0.35 -2.22,1.16 -6.14,1.85 -10.48,1.85 -4.35,0 -8.26,-0.69 -10.48,-1.85 -0.22,-0.11 -0.41,-0.23 -0.59,-0.34z"/>
           <path class="fil17" d="M135.64 305.01c-4.35,0 -8.26,-0.69 -10.48,-1.85 -1.28,-0.67 -1.93,-1.47 -1.93,-2.37l0 -3.56 1.34 0c0,0.34 0.45,0.78 1.21,1.18 2.01,1.05 5.78,1.7 9.86,1.7 4.07,0 7.85,-0.65 9.86,-1.7 0.76,-0.4 1.21,-0.84 1.21,-1.18l1.34 0 0 3.56c0,0.9 -0.65,1.7 -1.93,2.37 -2.22,1.16 -6.14,1.85 -10.48,1.85zm-11.07 -5.76l0 0 0 1.53c0,0.35 0.44,0.78 1.21,1.18 2.01,1.05 5.78,1.7 9.86,1.7 4.07,0 7.85,-0.65 9.86,-1.7 0.77,-0.4 1.21,-0.83 1.21,-1.18l0 -1.53c-0.17,0.12 -0.37,0.23 -0.59,0.35 -2.22,1.16 -6.14,1.85 -10.48,1.85 -4.35,0 -8.26,-0.69 -10.48,-1.85 -0.22,-0.11 -0.42,-0.23 -0.59,-0.35z"/>
          </g>
         </g>
         <g>
          <path class="fil12" d="M136.49 296.71c-0.01,0 -0.01,0 -0.02,-0 -0.1,-0.02 -0.23,-0.05 -0.39,-0.08 -1.02,-0.22 -1.54,-0.39 -1.54,-0.54 0,-0.09 0.09,-0.15 0.27,-0.21 0.18,-0.05 0.41,-0.07 0.72,-0.07 0.41,0 0.71,0.04 0.9,0.11 0.19,0.07 0.29,0.19 0.29,0.35l0 0.06 2.12 0 0 -0.07c0,-0.34 -0.26,-0.6 -0.79,-0.77 -0.35,-0.11 -0.81,-0.19 -1.38,-0.23l0 -0.44 -2.07 0 0 0.44c-0.57,0.04 -1.04,0.1 -1.4,0.2 -0.57,0.15 -0.85,0.38 -0.85,0.67 0,0.22 0.17,0.41 0.5,0.56 0.33,0.15 1.13,0.36 2.39,0.63 0.07,0.01 0.15,0.03 0.26,0.06 0.81,0.17 1.21,0.31 1.21,0.44 0,0.1 -0.1,0.18 -0.29,0.24 -0.19,0.06 -0.46,0.09 -0.79,0.09 -0.43,0 -0.74,-0.04 -0.91,-0.12 -0.18,-0.08 -0.27,-0.23 -0.27,-0.44l0 -0.06 -2.16 0c0,0.02 -0,0.04 -0.01,0.06 -0,0.03 -0.01,0.05 -0.01,0.06 0,0.36 0.27,0.63 0.81,0.8 0.37,0.12 0.87,0.19 1.5,0.23l0 0.44 2.07 0 0 -0.44c0.59,-0.04 1.07,-0.11 1.46,-0.21 0.59,-0.16 0.88,-0.39 0.88,-0.68 0,-0.37 -0.83,-0.73 -2.51,-1.08z"/>
         </g>
         <g>
          <path class="fil18" d="M137.06 315.67l0 -14.23c3.77,-0.13 7.08,-0.8 9.06,-1.83 1.59,-0.84 1.93,-1.75 1.93,-2.38 0,-0.69 0,-0.69 0,0l0 14.22c0,2.56 -5.32,4 -10.98,4.21z"/>
         </g>
        </g>
       </g>
      </g>
      <g>
       <g>
        <g>
         <g>
          <g>
           <path class="fil16" d="M235.94 269.87c6.48,0 11.74,1.6 11.74,3.56l0 35.58c0,1.96 -5.26,3.56 -11.74,3.56 -6.48,0 -11.74,-1.6 -11.74,-3.56l0 -35.58c0,-1.96 5.26,-3.56 11.74,-3.56z"/>
          </g>
         </g>
         <g>
          <g>
           <path class="fil17" d="M235.94 288.2c6.17,0 12.41,-1.45 12.41,-4.23l0 -3.56 -1.34 0c0,0.35 -0.44,0.78 -1.21,1.19 -2.01,1.05 -5.78,1.7 -9.86,1.7 -4.07,0 -7.85,-0.65 -9.86,-1.7 -0.77,-0.4 -1.21,-0.83 -1.21,-1.19l-1.34 0 0 3.56c0,2.78 6.24,4.23 12.41,4.23zm11.07 -5.76l0 0 0 1.53c0,1.18 -4.31,2.89 -11.07,2.89 -6.76,0 -11.07,-1.71 -11.07,-2.89l0 -1.53c0.18,0.12 0.37,0.23 0.59,0.35 2.22,1.16 6.14,1.85 10.48,1.85 4.34,0 8.26,-0.69 10.48,-1.85 0.21,-0.11 0.41,-0.23 0.59,-0.35z"/>
           <path class="fil17" d="M235.94 291.76c6.17,0 12.41,-1.45 12.41,-4.23l0 -3.56 -1.34 0c0,0.35 -0.44,0.78 -1.21,1.19 -2.01,1.05 -5.78,1.7 -9.86,1.7 -4.08,0 -7.85,-0.65 -9.86,-1.7 -0.77,-0.41 -1.21,-0.83 -1.21,-1.19l-1.34 0 0 3.56c0,2.78 6.24,4.23 12.41,4.23zm11.07 -5.76l0 0 0 1.53c0,1.18 -4.31,2.89 -11.07,2.89 -6.76,0 -11.07,-1.71 -11.07,-2.89l0 -1.53c0.18,0.12 0.37,0.23 0.59,0.35 2.22,1.16 6.14,1.85 10.48,1.85 4.34,0 8.26,-0.69 10.48,-1.85 0.21,-0.11 0.41,-0.23 0.59,-0.35z"/>
           <path class="fil17" d="M235.94 284.64c4.34,0 8.26,-0.69 10.48,-1.85 1.28,-0.67 1.93,-1.47 1.93,-2.37l0 -3.56 -1.34 0c0,0.35 -0.44,0.78 -1.21,1.19 -2.01,1.05 -5.78,1.7 -9.86,1.7 -4.08,0 -7.85,-0.65 -9.86,-1.7 -0.77,-0.41 -1.21,-0.83 -1.21,-1.19l-1.34 0 0 3.56c0,0.91 0.65,1.7 1.93,2.37 2.22,1.16 6.14,1.85 10.48,1.85zm11.07 -5.76l0 0 0 1.53c0,0.35 -0.44,0.78 -1.21,1.19 -2.01,1.05 -5.78,1.7 -9.86,1.7 -4.07,0 -7.85,-0.65 -9.86,-1.7 -0.77,-0.4 -1.21,-0.83 -1.21,-1.19l0 -1.53c0.18,0.12 0.37,0.23 0.59,0.34 2.22,1.16 6.14,1.85 10.48,1.85 4.34,0 8.26,-0.69 10.48,-1.85 0.21,-0.11 0.41,-0.23 0.59,-0.35z"/>
           <path class="fil17" d="M235.94 298.88c6.17,0 12.41,-1.45 12.41,-4.23l0 -3.56 -1.34 0c0,0.35 -0.44,0.78 -1.21,1.19 -2.01,1.05 -5.78,1.7 -9.86,1.7 -4.08,0 -7.85,-0.65 -9.86,-1.7 -0.77,-0.41 -1.21,-0.83 -1.21,-1.19l-1.34 0 0 3.56c0,2.78 6.24,4.23 12.41,4.23zm11.07 -5.76l0 0 0 1.53c0,1.18 -4.31,2.89 -11.07,2.89 -6.76,0 -11.07,-1.71 -11.07,-2.89l0 -1.53c0.18,0.12 0.37,0.23 0.59,0.35 2.22,1.16 6.14,1.85 10.48,1.85 4.34,0 8.26,-0.69 10.48,-1.85 0.21,-0.11 0.41,-0.23 0.59,-0.35z"/>
           <path class="fil17" d="M235.94 302.44c6.17,0 12.41,-1.45 12.41,-4.23l0 -3.56 -1.34 0c0,0.35 -0.44,0.78 -1.21,1.19 -2.01,1.05 -5.78,1.7 -9.86,1.7 -4.08,0 -7.85,-0.65 -9.86,-1.7 -0.77,-0.41 -1.21,-0.83 -1.21,-1.19l-1.34 0 0 3.56c0,2.78 6.24,4.23 12.41,4.23zm11.07 -5.76l0 0 0 1.53c0,1.18 -4.31,2.89 -11.07,2.89 -6.76,0 -11.07,-1.71 -11.07,-2.89l0 -1.53c0.18,0.12 0.37,0.23 0.59,0.35 2.22,1.16 6.14,1.85 10.48,1.85 4.34,0 8.26,-0.69 10.48,-1.85 0.21,-0.11 0.41,-0.23 0.59,-0.35z"/>
           <path class="fil17" d="M235.94 295.32c4.34,0 8.26,-0.69 10.48,-1.85 1.28,-0.67 1.93,-1.47 1.93,-2.37l0 -3.56 -1.34 0c0,0.35 -0.44,0.78 -1.21,1.19 -2.01,1.05 -5.78,1.7 -9.86,1.7 -4.07,0 -7.85,-0.65 -9.86,-1.7 -0.77,-0.41 -1.21,-0.83 -1.21,-1.19l-1.34 0 0 3.56c0,0.91 0.65,1.7 1.93,2.37 2.22,1.16 6.14,1.85 10.48,1.85zm11.07 -5.76l0 0 0 1.53c0,0.35 -0.44,0.78 -1.21,1.19 -2.01,1.05 -5.78,1.7 -9.86,1.7 -4.08,0 -7.85,-0.65 -9.86,-1.7 -0.77,-0.41 -1.21,-0.83 -1.21,-1.19l0 -1.53c0.18,0.12 0.37,0.23 0.59,0.35 2.22,1.16 6.14,1.85 10.48,1.85 4.34,0 8.26,-0.69 10.48,-1.85 0.21,-0.11 0.41,-0.23 0.59,-0.35z"/>
           <path class="fil17" d="M235.94 309.55c6.17,0 12.41,-1.46 12.41,-4.24l0 -3.56 -1.34 0c0,0.35 -0.44,0.78 -1.21,1.19 -2.01,1.05 -5.78,1.7 -9.86,1.7 -4.08,0 -7.85,-0.65 -9.86,-1.7 -0.77,-0.4 -1.21,-0.83 -1.21,-1.19l-1.34 0 0 3.56c0,2.78 6.24,4.24 12.41,4.24zm11.07 -5.76l0 0 0 1.53c0,1.18 -4.31,2.89 -11.07,2.89 -6.76,0 -11.07,-1.71 -11.07,-2.89l0 -1.53c0.18,0.12 0.37,0.23 0.59,0.35 2.22,1.16 6.14,1.85 10.48,1.85 4.34,0 8.26,-0.69 10.48,-1.85 0.21,-0.11 0.41,-0.23 0.59,-0.35z"/>
           <path class="fil17" d="M235.94 313.11c6.17,0 12.41,-1.46 12.41,-4.24l0 -3.56 -1.34 0c0,0.35 -0.44,0.78 -1.21,1.19 -2.01,1.05 -5.78,1.7 -9.86,1.7 -4.07,0 -7.85,-0.65 -9.86,-1.7 -0.77,-0.4 -1.21,-0.83 -1.21,-1.19l-1.34 0 0 3.56c0,2.78 6.24,4.24 12.41,4.24zm11.07 -5.76l0 0 0 1.53c0,1.18 -4.31,2.89 -11.07,2.89 -6.76,0 -11.07,-1.71 -11.07,-2.89l0 -1.53c0.18,0.12 0.37,0.23 0.59,0.35 2.22,1.16 6.14,1.85 10.48,1.85 4.34,0 8.26,-0.69 10.48,-1.85 0.21,-0.11 0.41,-0.23 0.59,-0.35z"/>
           <path class="fil17" d="M235.94 305.99c4.34,0 8.26,-0.69 10.48,-1.85 1.28,-0.67 1.93,-1.47 1.93,-2.37l0 -3.56 -1.34 0c0,0.35 -0.44,0.78 -1.21,1.19 -2.01,1.05 -5.78,1.7 -9.86,1.7 -4.07,0 -7.85,-0.65 -9.86,-1.7 -0.77,-0.41 -1.21,-0.83 -1.21,-1.19l-1.34 0 0 3.56c0,0.91 0.65,1.7 1.93,2.37 2.22,1.16 6.14,1.85 10.48,1.85zm11.07 -5.76l0 0 0 1.53c0,0.35 -0.44,0.78 -1.21,1.19 -2.01,1.05 -5.78,1.7 -9.86,1.7 -4.08,0 -7.85,-0.65 -9.86,-1.7 -0.77,-0.4 -1.21,-0.83 -1.21,-1.19l0 -1.53c0.18,0.12 0.37,0.23 0.59,0.35 2.22,1.16 6.14,1.85 10.48,1.85 4.34,0 8.26,-0.69 10.48,-1.85 0.21,-0.11 0.41,-0.23 0.59,-0.35z"/>
           <path class="fil17" d="M235.94 281.09c4.34,0 8.26,-0.69 10.48,-1.85 1.28,-0.67 1.93,-1.47 1.93,-2.37l0 -3.56 -1.34 0c0,0.34 -0.45,0.79 -1.21,1.19 -2.01,1.05 -5.78,1.7 -9.86,1.7 -4.07,0 -7.85,-0.65 -9.86,-1.7 -0.76,-0.4 -1.21,-0.84 -1.21,-1.19l-1.34 0 0 3.56c0,0.91 0.65,1.7 1.93,2.37 2.22,1.16 6.14,1.85 10.48,1.85zm11.07 -5.76l0 0 0 1.53c0,0.35 -0.44,0.78 -1.21,1.19 -2.01,1.05 -5.78,1.7 -9.86,1.7 -4.08,0 -7.85,-0.65 -9.86,-1.7 -0.77,-0.41 -1.21,-0.83 -1.21,-1.19l0 -1.53c0.17,0.12 0.37,0.23 0.59,0.35 2.22,1.16 6.14,1.85 10.48,1.85 4.34,0 8.26,-0.69 10.48,-1.85 0.22,-0.11 0.41,-0.23 0.59,-0.35z"/>
           <path class="fil17" d="M235.94 277.53c4.34,0 8.26,-0.69 10.48,-1.85 1.59,-0.83 1.93,-1.75 1.93,-2.37 0,-2.78 -6.24,-4.23 -12.41,-4.23 -6.17,0 -12.41,1.45 -12.41,4.23 0,0.62 0.33,1.54 1.93,2.37 2.22,1.16 6.14,1.85 10.48,1.85zm0 -7.12l0 0c6.76,0 11.07,1.71 11.07,2.89 0,0.34 -0.45,0.79 -1.21,1.19 -2.01,1.05 -5.78,1.7 -9.86,1.7 -4.07,0 -7.85,-0.65 -9.86,-1.7 -0.76,-0.4 -1.21,-0.84 -1.21,-1.19 0,-1.18 4.31,-2.89 11.07,-2.89z"/>
           <g>
            <path class="fil12" d="M236.8 273.04c-0.01,0 -0.02,0 -0.02,-0 -0.1,-0.02 -0.23,-0.05 -0.4,-0.08 -1.02,-0.22 -1.53,-0.39 -1.53,-0.54 0,-0.09 0.09,-0.15 0.27,-0.21 0.18,-0.05 0.41,-0.07 0.72,-0.07 0.41,0 0.71,0.04 0.9,0.11 0.19,0.07 0.29,0.19 0.29,0.35l0 0.06 2.11 0 0 -0.07c0,-0.34 -0.26,-0.6 -0.79,-0.77 -0.34,-0.11 -0.81,-0.19 -1.38,-0.23l0 -0.44 -2.07 0 0 0.44c-0.57,0.04 -1.04,0.1 -1.4,0.2 -0.57,0.15 -0.85,0.38 -0.85,0.67 0,0.22 0.17,0.41 0.5,0.56 0.33,0.15 1.13,0.36 2.39,0.63 0.07,0.02 0.15,0.03 0.26,0.06 0.81,0.17 1.21,0.31 1.21,0.44 0,0.1 -0.09,0.18 -0.29,0.24 -0.2,0.06 -0.46,0.09 -0.79,0.09 -0.43,0 -0.74,-0.04 -0.92,-0.12 -0.17,-0.08 -0.26,-0.23 -0.26,-0.44l0 -0.06 -2.16 0c0,0.02 -0,0.04 -0.01,0.06 -0,0.03 -0.01,0.05 -0.01,0.06 0,0.36 0.27,0.63 0.81,0.8 0.37,0.11 0.87,0.19 1.5,0.22l0 0.44 2.07 0 0 -0.44c0.59,-0.04 1.07,-0.11 1.46,-0.21 0.59,-0.16 0.88,-0.39 0.88,-0.68 0,-0.37 -0.83,-0.73 -2.51,-1.08z"/>
           </g>
          </g>
         </g>
        </g>
        <g>
         <path class="fil18" d="M237.37 313.09l0 -35.58c3.77,-0.13 7.08,-0.79 9.06,-1.82 1.59,-0.84 1.93,-1.75 1.93,-2.38 0,-0.69 0,-0.69 0,0l0 3.56 0 3.56 0 3.56c0,0 0,0 0,0l0 0 0 3.56c0,0 0,0 0,0l0 0 0 3.56 0 3.56c0,0 0,0 0,0l0 0 0 3.56c0,0 0,0 0,0l0 0 0 3.56 0 3.56c0,0 0,0 0,0l0 0 0 3.56c0,2.57 -5.32,4 -10.98,4.21z"/>
        </g>
       </g>
       <g>
        <g>
         <g>
          <path class="fil16" d="M271.61 284.91c6.48,0 11.74,1.6 11.74,3.56l0 17.78c0,0.65 -0.57,1.26 -1.57,1.78 -2.03,1.06 -5.83,1.78 -10.17,1.78 -4.35,0 -8.14,-0.72 -10.17,-1.78 -1,-0.52 -1.57,-1.13 -1.57,-1.78l0 -17.78c0,-1.96 5.26,-3.56 11.74,-3.56z"/>
         </g>
        </g>
        <g>
         <g>
          <path class="fil17" d="M271.61 292.7c4.35,0 8.26,-0.69 10.48,-1.85 1.59,-0.83 1.93,-1.75 1.93,-2.37 0,-2.78 -6.24,-4.23 -12.41,-4.23 -6.17,0 -12.41,1.45 -12.41,4.23 0,0.62 0.33,1.54 1.93,2.37 2.22,1.16 6.14,1.85 10.48,1.85zm0 -7.12l0 0c6.76,0 11.07,1.71 11.07,2.89 0,0.35 -0.45,0.79 -1.21,1.19 -2.01,1.05 -5.78,1.7 -9.86,1.7 -4.07,0 -7.85,-0.65 -9.86,-1.7 -0.76,-0.4 -1.21,-0.84 -1.21,-1.19 0,-1.18 4.31,-2.89 11.07,-2.89z"/>
          <path class="fil17" d="M271.61 303.38c6.17,0 12.41,-1.46 12.41,-4.23l0 -3.56 -1.34 0c0,0.35 -0.44,0.78 -1.21,1.19 -2.01,1.05 -5.78,1.7 -9.86,1.7 -4.07,0 -7.85,-0.65 -9.86,-1.7 -0.77,-0.4 -1.21,-0.83 -1.21,-1.19l-1.34 0 0 3.56c0,2.78 6.24,4.23 12.41,4.23zm11.07 -5.76l0 0 0 1.53c0,1.18 -4.32,2.89 -11.07,2.89 -6.76,0 -11.07,-1.71 -11.07,-2.89l0 -1.53c0.18,0.12 0.37,0.23 0.59,0.35 2.22,1.16 6.14,1.85 10.48,1.85 4.35,0 8.26,-0.69 10.48,-1.85 0.21,-0.11 0.41,-0.23 0.59,-0.35z"/>
          <path class="fil17" d="M271.61 306.94c6.17,0 12.41,-1.46 12.41,-4.24l0 -3.56 -1.34 0c0,0.35 -0.44,0.78 -1.21,1.19 -2.01,1.05 -5.79,1.7 -9.86,1.7 -4.07,0 -7.85,-0.65 -9.86,-1.7 -0.77,-0.4 -1.21,-0.83 -1.21,-1.19l-1.34 0 0 3.56c0,2.78 6.24,4.24 12.41,4.24zm11.07 -5.76l0 0 0 1.53c0,1.18 -4.32,2.89 -11.07,2.89 -6.76,0 -11.07,-1.71 -11.07,-2.89l0 -1.53c0.18,0.12 0.37,0.23 0.59,0.35 2.22,1.16 6.14,1.85 10.48,1.85 4.35,0 8.26,-0.69 10.48,-1.85 0.21,-0.11 0.41,-0.23 0.59,-0.35z"/>
          <path class="fil17" d="M271.61 299.81c4.35,0 8.26,-0.69 10.48,-1.85 1.28,-0.67 1.93,-1.47 1.93,-2.37l0 -3.56 -1.34 0c0,0.35 -0.44,0.78 -1.21,1.19 -2.01,1.05 -5.78,1.7 -9.86,1.7 -4.07,0 -7.85,-0.65 -9.86,-1.7 -0.77,-0.4 -1.21,-0.83 -1.21,-1.19l-1.34 0 0 3.56c0,0.91 0.65,1.7 1.93,2.37 2.22,1.16 6.14,1.85 10.48,1.85zm11.07 -5.76l0 0 0 1.53c0,0.35 -0.44,0.78 -1.21,1.19 -2.01,1.05 -5.78,1.7 -9.86,1.7 -4.07,0 -7.85,-0.65 -9.86,-1.7 -0.77,-0.4 -1.21,-0.83 -1.21,-1.19l0 -1.53c0.18,0.12 0.37,0.23 0.59,0.35 2.22,1.16 6.14,1.85 10.48,1.85 4.35,0 8.26,-0.69 10.48,-1.85 0.21,-0.11 0.41,-0.23 0.59,-0.35z"/>
          <path class="fil17" d="M271.61 310.49c4.35,0 8.26,-0.69 10.48,-1.85 1.28,-0.67 1.93,-1.47 1.93,-2.37l0 -3.56 -1.34 0c0,0.35 -0.44,0.78 -1.21,1.19 -2.01,1.05 -5.78,1.7 -9.86,1.7 -4.07,0 -7.85,-0.65 -9.86,-1.7 -0.77,-0.4 -1.21,-0.83 -1.21,-1.19l-1.34 0 0 3.56c0,0.91 0.65,1.7 1.93,2.37 2.22,1.16 6.14,1.85 10.48,1.85zm11.07 -5.76l0 0 0 1.53c0,0.35 -0.44,0.78 -1.21,1.19 -2.01,1.05 -5.79,1.7 -9.86,1.7 -4.07,0 -7.85,-0.65 -9.86,-1.7 -0.77,-0.4 -1.21,-0.83 -1.21,-1.19l0 -1.53c0.18,0.12 0.37,0.23 0.59,0.35 2.22,1.16 6.14,1.85 10.48,1.85 4.35,0 8.26,-0.69 10.48,-1.85 0.21,-0.11 0.41,-0.23 0.59,-0.35z"/>
          <path class="fil17" d="M271.61 296.26c4.35,0 8.26,-0.69 10.48,-1.85 1.28,-0.67 1.93,-1.47 1.93,-2.37l0 -3.56 -1.34 0c0,0.35 -0.45,0.79 -1.21,1.19 -2.01,1.05 -5.78,1.7 -9.86,1.7 -4.07,0 -7.85,-0.65 -9.86,-1.7 -0.76,-0.4 -1.21,-0.84 -1.21,-1.19l-1.34 0 0 3.56c0,0.91 0.65,1.7 1.93,2.37 2.22,1.16 6.14,1.85 10.48,1.85zm11.07 -5.76l0 0 0 1.53c0,0.35 -0.44,0.78 -1.21,1.19 -2.01,1.05 -5.78,1.7 -9.86,1.7 -4.07,0 -7.85,-0.65 -9.86,-1.7 -0.77,-0.4 -1.21,-0.83 -1.21,-1.19l0 -1.53c0.17,0.12 0.37,0.23 0.59,0.35 2.22,1.16 6.14,1.85 10.48,1.85 4.35,0 8.26,-0.69 10.48,-1.85 0.22,-0.11 0.41,-0.23 0.59,-0.35z"/>
         </g>
        </g>
        <g>
         <path class="fil12" d="M272.47 288.22c-0.01,-0 -0.02,-0 -0.02,-0.01 -0.09,-0.02 -0.23,-0.05 -0.39,-0.08 -1.02,-0.21 -1.53,-0.39 -1.53,-0.54 0,-0.09 0.09,-0.15 0.27,-0.2 0.18,-0.05 0.42,-0.08 0.72,-0.08 0.41,0 0.71,0.04 0.91,0.11 0.19,0.08 0.29,0.2 0.29,0.36l0 0.06 2.11 0 0 -0.07c0,-0.34 -0.26,-0.6 -0.79,-0.77 -0.35,-0.11 -0.81,-0.19 -1.38,-0.22l0 -0.44 -2.07 0 0 0.44c-0.57,0.04 -1.04,0.1 -1.4,0.2 -0.57,0.16 -0.85,0.38 -0.85,0.67 0,0.22 0.17,0.41 0.5,0.56 0.33,0.16 1.13,0.37 2.39,0.63 0.07,0.02 0.15,0.03 0.26,0.06 0.81,0.17 1.21,0.31 1.21,0.44 0,0.1 -0.09,0.18 -0.29,0.24 -0.19,0.06 -0.46,0.09 -0.78,0.09 -0.44,0 -0.74,-0.04 -0.92,-0.12 -0.18,-0.08 -0.26,-0.22 -0.26,-0.44l0 -0.06 -2.16 0c0,0.02 0,0.04 -0.01,0.07 -0,0.03 -0.01,0.05 -0.01,0.06 0,0.36 0.27,0.63 0.81,0.8 0.37,0.11 0.87,0.19 1.5,0.23l0 0.43 2.07 0 0 -0.44c0.59,-0.04 1.07,-0.11 1.46,-0.21 0.59,-0.16 0.88,-0.39 0.88,-0.68 0,-0.37 -0.83,-0.72 -2.5,-1.08z"/>
        </g>
        <g>
         <path class="fil18" d="M270.19 310.49l0 -17.82c-3.76,-0.13 -7.08,-0.8 -9.06,-1.83 -1.59,-0.84 -1.93,-1.75 -1.93,-2.37 0,-0.69 -0,-0.69 -0,0l0 17.81c0,2.56 5.32,4 10.98,4.21z"/>
        </g>
       </g>
       <g>
        <g>
         <g>
          <g>
           <path class="fil16" d="M255.13 294.91c6.48,0 11.74,1.59 11.74,3.56l0 14.2c0,0.65 -0.57,1.25 -1.57,1.78 -2.02,1.06 -5.82,1.78 -10.17,1.78 -4.35,0 -8.15,-0.72 -10.17,-1.78 -1,-0.52 -1.57,-1.13 -1.57,-1.78l0 -14.2c0,-1.97 5.26,-3.56 11.74,-3.56z"/>
          </g>
         </g>
         <g>
          <g>
           <path class="fil17" d="M255.13 302.7c4.34,0 8.26,-0.69 10.48,-1.85 1.59,-0.83 1.93,-1.75 1.93,-2.37 0,-2.78 -6.24,-4.23 -12.41,-4.23 -6.17,0 -12.41,1.45 -12.41,4.23 0,0.62 0.33,1.54 1.93,2.37 2.22,1.16 6.13,1.85 10.48,1.85zm0 -7.12l0 0c6.76,0 11.07,1.71 11.07,2.89 0,0.34 -0.45,0.79 -1.21,1.18 -2,1.05 -5.78,1.7 -9.86,1.7 -4.07,0 -7.85,-0.65 -9.86,-1.7 -0.76,-0.39 -1.21,-0.84 -1.21,-1.18 0,-1.18 4.31,-2.89 11.07,-2.89z"/>
           <path class="fil17" d="M255.13 313.37c6.17,0 12.41,-1.45 12.41,-4.23l0 -3.56 -1.34 0c0,0.35 -0.44,0.78 -1.21,1.19 -2,1.05 -5.78,1.7 -9.86,1.7 -4.07,0 -7.85,-0.65 -9.86,-1.7 -0.77,-0.41 -1.21,-0.83 -1.21,-1.19l-1.34 0 0 3.56c0,2.78 6.24,4.23 12.41,4.23zm11.07 -5.76l0 0 0 1.53c0,1.18 -4.31,2.89 -11.07,2.89 -6.76,0 -11.07,-1.71 -11.07,-2.89l0 -1.53c0.18,0.12 0.37,0.23 0.59,0.35 2.22,1.16 6.13,1.85 10.48,1.85 4.34,0 8.26,-0.7 10.48,-1.85 0.21,-0.11 0.41,-0.23 0.59,-0.35z"/>
           <path class="fil17" d="M255.13 316.93c6.17,0 12.41,-1.45 12.41,-4.23l0 -3.56 -1.34 0c0,0.35 -0.44,0.78 -1.21,1.19 -2,1.05 -5.78,1.7 -9.86,1.7 -4.07,0 -7.85,-0.65 -9.86,-1.7 -0.77,-0.41 -1.21,-0.83 -1.21,-1.19l-1.34 0 0 3.56c0,2.78 6.24,4.23 12.41,4.23zm11.07 -5.76l0 0 0 1.53c0,1.18 -4.31,2.89 -11.07,2.89 -6.76,0 -11.07,-1.71 -11.07,-2.89l0 -1.53c0.18,0.12 0.37,0.23 0.59,0.35 2.22,1.16 6.14,1.85 10.48,1.85 4.34,0 8.26,-0.69 10.48,-1.85 0.21,-0.11 0.41,-0.23 0.59,-0.35z"/>
           <path class="fil17" d="M255.13 309.81c4.34,0 8.26,-0.7 10.48,-1.85 1.28,-0.67 1.93,-1.47 1.93,-2.37l0 -3.56 -1.34 0c0,0.35 -0.44,0.78 -1.21,1.18 -2,1.05 -5.78,1.7 -9.86,1.7 -4.07,0 -7.85,-0.65 -9.86,-1.7 -0.77,-0.4 -1.21,-0.83 -1.21,-1.18l-1.34 0 0 3.56c0,0.91 0.65,1.7 1.93,2.37 2.22,1.16 6.13,1.85 10.48,1.85zm11.07 -5.76l0 0 0 1.53c0,0.35 -0.44,0.78 -1.21,1.19 -2,1.05 -5.78,1.7 -9.86,1.7 -4.07,0 -7.85,-0.65 -9.86,-1.7 -0.77,-0.41 -1.21,-0.83 -1.21,-1.19l0 -1.53c0.18,0.12 0.37,0.23 0.59,0.34 2.22,1.16 6.13,1.85 10.48,1.85 4.34,0 8.26,-0.69 10.48,-1.85 0.21,-0.11 0.41,-0.22 0.59,-0.34z"/>
           <path class="fil17" d="M255.13 306.25c4.34,0 8.26,-0.69 10.48,-1.85 1.28,-0.67 1.93,-1.46 1.93,-2.37l0 -3.56 -1.34 0c0,0.34 -0.45,0.79 -1.21,1.18 -2,1.05 -5.78,1.7 -9.86,1.7 -4.07,0 -7.85,-0.65 -9.86,-1.7 -0.76,-0.39 -1.21,-0.84 -1.21,-1.18l-1.34 0 0 3.56c0,0.91 0.65,1.7 1.93,2.37 2.22,1.16 6.13,1.85 10.48,1.85zm11.07 -5.76l0 0 0 1.53c0,0.35 -0.44,0.78 -1.21,1.18 -2,1.05 -5.78,1.7 -9.86,1.7 -4.07,0 -7.85,-0.65 -9.86,-1.7 -0.77,-0.4 -1.21,-0.83 -1.21,-1.18l0 -1.53c0.17,0.12 0.37,0.23 0.59,0.35 2.22,1.16 6.13,1.85 10.48,1.85 4.34,0 8.26,-0.69 10.48,-1.85 0.22,-0.11 0.41,-0.23 0.59,-0.35z"/>
          </g>
         </g>
         <g>
          <path class="fil18" d="M253.7 316.9l0 -14.23c-3.77,-0.13 -7.09,-0.8 -9.06,-1.83 -1.59,-0.84 -1.93,-1.75 -1.93,-2.37 0,-0.7 -0,-0.7 -0,0l0 14.22c0,2.57 5.32,4 10.99,4.21z"/>
         </g>
        </g>
        <g>
         <g>
          <g>
           <path class="fil21" d="M244.75 288.8c0,5.73 4.64,10.37 10.37,10.37 5.73,0 10.37,-4.65 10.37,-10.37 0,-5.73 -4.65,-10.37 -10.37,-10.37 -5.73,0 -10.37,4.64 -10.37,10.37z"/>
          </g>
          <g>
           <g>
            <path class="fil22" d="M255.13 299.84c6.09,0 11.04,-4.95 11.04,-11.04 0,-6.09 -4.95,-11.05 -11.04,-11.05 -6.09,0 -11.05,4.96 -11.05,11.05 0,6.09 4.96,11.04 11.05,11.04zm0 -20.75l0 0c5.35,0 9.7,4.35 9.7,9.7 0,5.35 -4.35,9.7 -9.7,9.7 -5.35,0 -9.7,-4.35 -9.7,-9.7 0,-5.35 4.35,-9.7 9.7,-9.7z"/>
           </g>
          </g>
          <g>
           <path class="fil23" d="M255.98 288.13c-0.01,-0 -0.01,-0.01 -0.02,-0.01 -0.1,-0.05 -0.23,-0.12 -0.39,-0.21 -1.02,-0.55 -1.53,-1.01 -1.53,-1.38 0,-0.22 0.09,-0.39 0.27,-0.53 0.18,-0.13 0.42,-0.2 0.72,-0.2 0.41,0 0.71,0.09 0.9,0.29 0.19,0.19 0.29,0.5 0.29,0.91l0 0.16 2.12 0 0 -0.17c0,-0.89 -0.26,-1.55 -0.79,-1.98 -0.34,-0.29 -0.8,-0.48 -1.38,-0.58l0 -1.13 -2.07 0 0 1.13c-0.57,0.09 -1.04,0.26 -1.4,0.51 -0.57,0.4 -0.85,0.97 -0.85,1.72 0,0.56 0.17,1.04 0.5,1.44 0.33,0.4 1.13,0.94 2.39,1.61 0.07,0.04 0.15,0.08 0.26,0.14 0.81,0.42 1.21,0.8 1.21,1.13 0,0.26 -0.1,0.46 -0.29,0.61 -0.19,0.15 -0.46,0.22 -0.79,0.22 -0.43,0 -0.74,-0.11 -0.91,-0.31 -0.18,-0.21 -0.27,-0.59 -0.27,-1.13l0 -0.15 -2.16 0c0,0.04 -0,0.09 -0.01,0.17 -0,0.07 -0.01,0.13 -0.01,0.16 0,0.93 0.27,1.62 0.81,2.06 0.37,0.3 0.87,0.49 1.5,0.59l0 1.11 2.07 0 0 -1.12c0.59,-0.09 1.07,-0.27 1.46,-0.54 0.59,-0.41 0.88,-0.99 0.88,-1.74 0,-0.94 -0.83,-1.87 -2.51,-2.78z"/>
          </g>
         </g>
         <g>
          <path class="fil18" d="M257.86 299.5l-5.79 -21.32c-4.61,1.33 -7.99,5.59 -7.99,10.62 0,6.09 4.96,11.04 11.05,11.04 0.94,0 1.86,-0.12 2.73,-0.34z"/>
         </g>
        </g>
       </g>
      </g>
     </g>
    </g>
   </g>
  </g>
 </g>
</svg>
