<?xml version="1.0" encoding="UTF-8"?>
<!DOCTYPE svg PUBLIC "-//W3C//DTD SVG 1.1//EN" "http://www.w3.org/Graphics/SVG/1.1/DTD/svg11.dtd">
<!-- Creator: CorelDRAW 2019 (64-Bit) -->
<svg xmlns="http://www.w3.org/2000/svg" xml:space="preserve" width="0.386665in" height="0.386669in" version="1.1" style="shape-rendering:geometricPrecision; text-rendering:geometricPrecision; image-rendering:optimizeQuality; fill-rule:evenodd; clip-rule:evenodd"
viewBox="0 0 386.67 386.67"
 xmlns:xlink="http://www.w3.org/1999/xlink">
 <defs>
  <style type="text/css">
   <![CDATA[
    .fil52 {fill:#0069A8;fill-rule:nonzero}
    .fil14 {fill:#00E9FF;fill-rule:nonzero}
    .fil35 {fill:#032B5B;fill-rule:nonzero}
    .fil55 {fill:#181838;fill-rule:nonzero}
    .fil44 {fill:#1F1D38;fill-rule:nonzero}
    .fil47 {fill:#1F1F3B;fill-rule:nonzero}
    .fil48 {fill:#3B3B4D;fill-rule:nonzero}
    .fil0 {fill:#4777BC;fill-rule:nonzero}
    .fil15 {fill:#7416FF;fill-rule:nonzero}
    .fil16 {fill:#95E200;fill-rule:nonzero}
    .fil57 {fill:#98D3F5;fill-rule:nonzero}
    .fil53 {fill:#E69E9C;fill-rule:nonzero}
    .fil40 {fill:#EFAEA5;fill-rule:nonzero}
    .fil12 {fill:red;fill-rule:nonzero}
    .fil11 {fill:#FFE28A;fill-rule:nonzero}
    .fil43 {fill:#FFEBAD;fill-rule:nonzero}
    .fil13 {fill:#FFFB00;fill-rule:nonzero}
    .fil42 {fill:white;fill-rule:nonzero}
    .fil33 {fill:white;fill-rule:nonzero}
    .fil45 {fill:#1F1F3B;fill-rule:nonzero;fill-opacity:0.090196}
    .fil56 {fill:#FFEBAD;fill-rule:nonzero;fill-opacity:0.121569}
    .fil46 {fill:#1F1F3B;fill-rule:nonzero;fill-opacity:0.141176}
    .fil34 {fill:#31313F;fill-rule:nonzero;fill-opacity:0.168627}
    .fil41 {fill:#1F1F3B;fill-rule:nonzero;fill-opacity:0.180392}
    .fil39 {fill:#1F1F38;fill-rule:nonzero;fill-opacity:0.211765}
    .fil54 {fill:#1F1F3B;fill-rule:nonzero;fill-opacity:0.239216}
    .fil58 {fill:#4777BC;fill-rule:nonzero;fill-opacity:0.258824}
    .fil51 {fill:#1F1F3B;fill-rule:nonzero;fill-opacity:0.349020}
    .fil49 {fill:#1F1F3B;fill-rule:nonzero;fill-opacity:0.458824}
    .fil36 {fill:#6CBBE9;fill-rule:nonzero;fill-opacity:0.760784}
    .fil50 {fill:#1F1F3B;fill-rule:nonzero;fill-opacity:0.788235}
    .fil38 {fill:#3B3B4B;fill-rule:nonzero;fill-opacity:0.878431}
    .fil37 {fill:white;fill-rule:nonzero;fill-opacity:0.949020}
    .fil2 {fill:url(#id0);fill-rule:nonzero}
    .fil24 {fill:url(#id1);fill-rule:nonzero}
    .fil20 {fill:url(#id2);fill-rule:nonzero}
    .fil6 {fill:url(#id3);fill-rule:nonzero}
    .fil21 {fill:url(#id4);fill-rule:nonzero}
    .fil26 {fill:url(#id5);fill-rule:nonzero}
    .fil22 {fill:url(#id6);fill-rule:nonzero}
    .fil27 {fill:url(#id7);fill-rule:nonzero}
    .fil25 {fill:url(#id8);fill-rule:nonzero}
    .fil7 {fill:url(#id9);fill-rule:nonzero}
    .fil29 {fill:url(#id10);fill-rule:nonzero}
    .fil30 {fill:url(#id11);fill-rule:nonzero}
    .fil3 {fill:url(#id12);fill-rule:nonzero}
    .fil23 {fill:url(#id13);fill-rule:nonzero}
    .fil32 {fill:url(#id14);fill-rule:nonzero}
    .fil19 {fill:url(#id15);fill-rule:nonzero}
    .fil8 {fill:url(#id16);fill-rule:nonzero}
    .fil1 {fill:url(#id17);fill-rule:nonzero}
    .fil18 {fill:url(#id18);fill-rule:nonzero}
    .fil31 {fill:url(#id19);fill-rule:nonzero}
    .fil28 {fill:url(#id20);fill-rule:nonzero}
    .fil10 {fill:url(#id21);fill-rule:nonzero}
    .fil9 {fill:url(#id22);fill-rule:nonzero}
    .fil4 {fill:url(#id23);fill-rule:nonzero}
    .fil17 {fill:url(#id24);fill-rule:nonzero}
    .fil5 {fill:url(#id25);fill-rule:nonzero}
   ]]>
  </style>
  <linearGradient id="id0" gradientUnits="userSpaceOnUse" x1="126.17" y1="251.44" x2="126.17" y2="224.89">
   <stop offset="0" style="stop-opacity:1; stop-color:white"/>
   <stop offset="1" style="stop-opacity:1; stop-color:white"/>
  </linearGradient>
  <linearGradient id="id1" gradientUnits="userSpaceOnUse" xlink:href="#id0" x1="336.35" y1="247.23" x2="336.35" y2="217.26">
  </linearGradient>
  <linearGradient id="id2" gradientUnits="userSpaceOnUse" xlink:href="#id0" x1="301.97" y1="230.34" x2="301.97" y2="197.84">
  </linearGradient>
  <linearGradient id="id3" gradientUnits="userSpaceOnUse" xlink:href="#id0" x1="180.08" y1="245.55" x2="180.08" y2="208.02">
  </linearGradient>
  <linearGradient id="id4" gradientUnits="userSpaceOnUse" xlink:href="#id0" x1="329.9" y1="232.24" x2="329.9" y2="205.23">
  </linearGradient>
  <linearGradient id="id5" gradientUnits="userSpaceOnUse" xlink:href="#id0" x1="42.98" y1="231.32" x2="42.98" y2="203.88">
  </linearGradient>
  <linearGradient id="id6" gradientUnits="userSpaceOnUse" xlink:href="#id0" x1="287.65" y1="247.23" x2="287.65" y2="220.63">
  </linearGradient>
  <linearGradient id="id7" gradientUnits="userSpaceOnUse" xlink:href="#id0" x1="56.28" y1="215.27" x2="56.28" y2="189.52">
  </linearGradient>
  <linearGradient id="id8" gradientUnits="userSpaceOnUse" x1="82.35" y1="237.6" x2="82.35" y2="174.95">
   <stop offset="0" style="stop-opacity:1; stop-color:#B8E4FB"/>
   <stop offset="1" style="stop-opacity:1; stop-color:white"/>
  </linearGradient>
  <linearGradient id="id9" gradientUnits="userSpaceOnUse" xlink:href="#id0" x1="142.13" y1="247.88" x2="142.13" y2="221.33">
  </linearGradient>
  <linearGradient id="id10" gradientUnits="userSpaceOnUse" xlink:href="#id0" x1="107.93" y1="215.91" x2="107.93" y2="188.89">
  </linearGradient>
  <linearGradient id="id11" gradientUnits="userSpaceOnUse" xlink:href="#id0" x1="65.69" y1="230.9" x2="65.69" y2="204.3">
  </linearGradient>
  <linearGradient id="id12" gradientUnits="userSpaceOnUse" xlink:href="#id0" x1="159.23" y1="247.64" x2="159.23" y2="205.93">
  </linearGradient>
  <linearGradient id="id13" gradientUnits="userSpaceOnUse" xlink:href="#id0" x1="312.19" y1="246.38" x2="312.19" y2="216.83">
  </linearGradient>
  <linearGradient id="id14" gradientUnits="userSpaceOnUse" xlink:href="#id0" x1="114.38" y1="230.9" x2="114.38" y2="200.92">
  </linearGradient>
  <linearGradient id="id15" gradientUnits="userSpaceOnUse" xlink:href="#id0" x1="278.25" y1="231.61" x2="278.25" y2="205.86">
  </linearGradient>
  <linearGradient id="id16" gradientUnits="userSpaceOnUse" xlink:href="#id0" x1="203.78" y1="249.07" x2="203.78" y2="220.15">
  </linearGradient>
  <linearGradient id="id17" gradientUnits="userSpaceOnUse" xlink:href="#id8" x1="180.08" y1="253.93" x2="180.08" y2="188.49">
  </linearGradient>
  <linearGradient id="id18" gradientUnits="userSpaceOnUse" xlink:href="#id0" x1="264.96" y1="247.65" x2="264.96" y2="220.21">
  </linearGradient>
  <linearGradient id="id19" gradientUnits="userSpaceOnUse" xlink:href="#id0" x1="90.22" y1="230.05" x2="90.22" y2="200.5">
  </linearGradient>
  <linearGradient id="id20" gradientUnits="userSpaceOnUse" xlink:href="#id0" x1="80" y1="214.01" x2="80" y2="181.51">
  </linearGradient>
  <linearGradient id="id21" gradientUnits="userSpaceOnUse" xlink:href="#id0" x1="235.47" y1="248.59" x2="235.47" y2="227.73">
  </linearGradient>
  <linearGradient id="id22" gradientUnits="userSpaceOnUse" xlink:href="#id0" x1="216.64" y1="243.85" x2="216.64" y2="209.72">
  </linearGradient>
  <linearGradient id="id23" gradientUnits="userSpaceOnUse" xlink:href="#id0" x1="181.51" y1="221.81" x2="181.51" y2="191.47">
  </linearGradient>
  <linearGradient id="id24" gradientUnits="userSpaceOnUse" xlink:href="#id8" x1="304.32" y1="253.93" x2="304.32" y2="191.28">
  </linearGradient>
  <linearGradient id="id25" gradientUnits="userSpaceOnUse" xlink:href="#id0" x1="204.24" y1="234.6" x2="204.24" y2="209.01">
  </linearGradient>
 </defs>
 <g id="Layer_x0020_1">
  <metadata id="CorelCorpID_0Corel-Layer"/>
  <g id="_2030637731648">
   <path class="fil0" d="M321.39 386.67l-256.1 0c-36.06,0 -65.28,-29.23 -65.28,-65.28l0 -256.09c0,-36.06 29.22,-65.28 65.28,-65.28l256.1 0c36.05,0 65.28,29.23 65.28,65.28l0 256.09c0,36.06 -29.23,65.28 -65.28,65.28z"/>
   <g>
    <g>
     <path class="fil1" d="M228.18 253.92l-98.76 0c0,0 -22.68,0.82 -22.68,-18.09 0,-18.91 24.96,-15.89 24.96,-15.89 0,0 2.06,-22.89 24.78,-17.83 17.82,-24.74 43.73,-10.79 48.89,2.69 0,0 31.85,-12.43 32.59,20.86 17.77,-3.01 26.73,28.26 -9.78,28.26z"/>
     <path class="fil2" d="M139.03 238.16c0,-7.33 -5.76,-13.27 -12.86,-13.27 -7.1,0 -12.86,5.94 -12.86,13.27 0,7.33 5.76,13.28 12.86,13.28 7.1,0 12.86,-5.94 12.86,-13.28z"/>
     <path class="fil3" d="M179.43 226.79c0,-11.52 -9.05,-20.85 -20.2,-20.85 -11.16,0 -20.2,9.33 -20.2,20.85 0,11.52 9.05,20.85 20.2,20.85 11.16,0 20.2,-9.34 20.2,-20.85z"/>
     <path class="fil4" d="M196.2 206.64c0,-8.38 -6.58,-15.17 -14.7,-15.17 -8.11,0 -14.7,6.79 -14.7,15.17 0,8.38 6.58,15.17 14.7,15.17 8.12,0 14.7,-6.79 14.7,-15.17z"/>
     <path class="fil5" d="M216.64 221.81c0,-7.07 -5.55,-12.8 -12.4,-12.8 -6.85,0 -12.4,5.73 -12.4,12.8 0,7.07 5.55,12.8 12.4,12.8 6.85,0 12.4,-5.73 12.4,-12.8z"/>
     <path class="fil6" d="M198.27 226.79c0,-10.37 -8.14,-18.77 -18.19,-18.77 -10.04,0 -18.19,8.41 -18.19,18.77 0,10.37 8.14,18.77 18.19,18.77 10.05,0 18.19,-8.4 18.19,-18.77z"/>
     <path class="fil7" d="M154.99 234.61c0,-7.33 -5.76,-13.28 -12.86,-13.28 -7.1,0 -12.86,5.94 -12.86,13.28 0,7.33 5.76,13.27 12.86,13.27 7.1,0 12.86,-5.94 12.86,-13.27z"/>
     <path class="fil8" d="M217.79 234.61c0,-7.99 -6.27,-14.46 -14.01,-14.46 -7.74,0 -14.01,6.47 -14.01,14.46 0,7.98 6.27,14.46 14.01,14.46 7.74,0 14.01,-6.47 14.01,-14.46z"/>
     <path class="fil9" d="M233.18 226.79c0,-9.43 -7.4,-17.07 -16.54,-17.07 -9.13,0 -16.53,7.64 -16.53,17.07 0,9.43 7.4,17.06 16.53,17.06 9.13,0 16.54,-7.64 16.54,-17.06z"/>
     <path class="fil10" d="M245.58 238.16c0,-5.76 -4.53,-10.43 -10.11,-10.43 -5.58,0 -10.1,4.67 -10.1,10.43 0,5.76 4.52,10.43 10.1,10.43 5.58,0 10.11,-4.67 10.11,-10.43z"/>
    </g>
    <g>
     <path class="fil11" d="M332.22 199.19c0,5.77 -1.77,11.13 -4.8,15.56 -2.96,-0.17 -6.04,0.77 -8.6,3.08 1.11,-11.76 -8.13,-21.77 -19.78,-21.77 -4.51,0 -8.67,1.5 -12,4.04 -0.23,-5.84 -2.48,-11.15 -6.06,-15.28 4.85,-7.96 13.61,-13.27 23.61,-13.27 15.26,0 27.64,12.38 27.64,27.64z"/>
     <g>
      <path class="fil11" d="M304.58 165.7c-0.83,0 -1.5,-0.67 -1.5,-1.49l0 -12.39c0,-0.83 0.67,-1.5 1.5,-1.5 0.83,0 1.5,0.67 1.5,1.5l0 12.39c0,0.82 -0.67,1.49 -1.5,1.49z"/>
      <path class="fil11" d="M289.81 167.43l-1.97 -4.75c-0.32,-0.76 0.04,-1.64 0.81,-1.95 0.76,-0.32 1.64,0.04 1.95,0.81l1.97 4.75c0.32,0.76 -0.04,1.64 -0.81,1.95 -0.76,0.32 -1.64,-0.05 -1.95,-0.81z"/>
      <path class="fil11" d="M341.08 215.93l-4.75 -1.96c-0.76,-0.31 -1.13,-1.19 -0.81,-1.95 0.31,-0.76 1.19,-1.13 1.95,-0.81l4.75 1.96c0.76,0.32 1.13,1.19 0.81,1.95 -0.31,0.76 -1.19,1.13 -1.95,0.81z"/>
      <path class="fil11" d="M335.52 186.38c-0.32,-0.76 0.04,-1.64 0.81,-1.95l4.75 -1.97c0.76,-0.31 1.64,0.05 1.95,0.81 0.32,0.76 -0.04,1.64 -0.81,1.95l-4.75 1.97c-0.76,0.32 -1.64,-0.05 -1.95,-0.81z"/>
      <path class="fil11" d="M317.4 168.24c-0.76,-0.31 -1.13,-1.19 -0.81,-1.95l1.97 -4.75c0.31,-0.76 1.19,-1.13 1.95,-0.81 0.76,0.31 1.12,1.19 0.81,1.95l-1.97 4.75c-0.31,0.76 -1.19,1.13 -1.95,0.81z"/>
      <path class="fil11" d="M278.78 175.51l-8.76 -8.76c-0.59,-0.58 -0.59,-1.53 0,-2.11 0.58,-0.58 1.53,-0.58 2.11,0l8.76 8.76c0.58,0.58 0.58,1.53 0,2.11 -0.58,0.58 -1.53,0.58 -2.11,0z"/>
      <path class="fil11" d="M351.95 200.69l-12.39 0c-0.83,0 -1.5,-0.67 -1.5,-1.49 0,-0.83 0.67,-1.5 1.5,-1.5l12.39 0c0.82,0 1.49,0.67 1.49,1.5 0,0.82 -0.67,1.49 -1.49,1.49z"/>
      <path class="fil11" d="M328.26 175.51c-0.59,-0.59 -0.59,-1.53 0,-2.11l8.76 -8.76c0.58,-0.58 1.53,-0.58 2.11,0 0.58,0.59 0.58,1.53 0,2.11l-8.76 8.76c-0.58,0.58 -1.53,0.58 -2.11,0z"/>
     </g>
    </g>
    <g>
     <path class="fil12" d="M105.41 202.71c0,1.97 -1.6,3.57 -3.57,3.57 -1.97,0 -3.57,-1.6 -3.57,-3.57l7.14 0zm97.17 -104.32l0 7.14 -5 0.13 -4.93 0.37 -4.86 0.62 -4.78 0.86 -4.7 1.09 -4.61 1.31 -4.51 1.53 -4.41 1.74 -4.3 1.95 -4.19 2.15 -4.07 2.35 -3.94 2.53 -3.81 2.71 -3.67 2.89 -3.53 3.06 -3.38 3.22 -3.22 3.38 -3.06 3.53 -2.89 3.67 -2.72 3.81 -2.53 3.94 -2.34 4.07 -2.15 4.19 -1.95 4.3 -1.74 4.41 -1.53 4.51 -1.31 4.6 -1.09 4.7 -0.86 4.78 -0.62 4.86 -0.37 4.93 -0.13 5 -7.14 0 0.13 -5.36 0.41 -5.29 0.67 -5.21 0.92 -5.13 1.17 -5.04 1.41 -4.95 1.65 -4.84 1.87 -4.74 2.09 -4.62 2.31 -4.5 2.52 -4.37 2.72 -4.23 2.91 -4.09 3.1 -3.94 3.28 -3.79 3.46 -3.62 3.62 -3.46 3.79 -3.28 3.94 -3.1 4.09 -2.91 4.24 -2.72 4.37 -2.51 4.5 -2.31 4.62 -2.09 4.74 -1.87 4.84 -1.65 4.95 -1.41 5.04 -1.17 5.13 -0.92 5.22 -0.67 5.29 -0.41 5.36 -0.13zm0 0c1.97,0 3.57,1.6 3.57,3.57 0,1.97 -1.6,3.57 -3.57,3.57l0 -7.14z"/>
    </g>
    <g>
     <path class="fil13" d="M111.71 202.71c0,1.97 -1.6,3.57 -3.57,3.57 -1.97,0 -3.57,-1.6 -3.57,-3.57l7.14 0zm90.87 -98.02l0 7.14 -4.67 0.12 -4.61 0.35 -4.54 0.58 -4.47 0.8 -4.39 1.02 -4.31 1.22 -4.22 1.43 -4.12 1.63 -4.03 1.82 -3.92 2.01 -3.81 2.19 -3.69 2.37 -3.57 2.54 -3.43 2.7 -3.3 2.86 -3.16 3.01 -3.01 3.16 -2.86 3.3 -2.7 3.44 -2.54 3.56 -2.37 3.69 -2.19 3.8 -2.01 3.92 -1.82 4.02 -1.63 4.12 -1.43 4.22 -1.22 4.31 -1.02 4.39 -0.8 4.47 -0.58 4.55 -0.35 4.61 -0.12 4.67 -7.14 0 0.13 -5.04 0.38 -4.97 0.63 -4.9 0.86 -4.82 1.1 -4.74 1.32 -4.65 1.55 -4.56 1.76 -4.45 1.96 -4.34 2.17 -4.23 2.36 -4.1 2.56 -3.98 2.73 -3.84 2.91 -3.7 3.08 -3.56 3.24 -3.41 3.41 -3.24 3.56 -3.08 3.7 -2.91 3.84 -2.73 3.98 -2.56 4.11 -2.36 4.22 -2.17 4.34 -1.96 4.45 -1.76 4.56 -1.55 4.65 -1.32 4.74 -1.1 4.82 -0.86 4.9 -0.63 4.97 -0.38 5.04 -0.13zm0 0c1.97,0 3.57,1.6 3.57,3.57 0,1.97 -1.6,3.57 -3.57,3.57l0 -7.14z"/>
    </g>
    <g>
     <path class="fil14" d="M124.3 202.71c0,1.97 -1.6,3.57 -3.57,3.57 -1.97,0 -3.57,-1.6 -3.57,-3.57l7.14 0zm78.28 -85.43l0 7.14 -4.02 0.1 -3.97 0.3 -3.91 0.5 -3.85 0.69 -3.78 0.88 -3.71 1.06 -3.63 1.23 -3.56 1.4 -3.46 1.57 -3.37 1.73 -3.28 1.89 -3.17 2.04 -3.07 2.19 -2.96 2.32 -2.84 2.46 -2.72 2.59 -2.59 2.72 -2.46 2.84 -2.33 2.96 -2.19 3.07 -2.04 3.18 -1.89 3.28 -1.73 3.37 -1.57 3.46 -1.4 3.55 -1.23 3.64 -1.06 3.71 -0.88 3.78 -0.69 3.85 -0.5 3.91 -0.3 3.97 -0.1 4.02 -7.14 0 0.11 -4.39 0.33 -4.33 0.54 -4.27 0.75 -4.2 0.96 -4.13 1.15 -4.06 1.35 -3.97 1.53 -3.87 1.71 -3.79 1.89 -3.68 2.06 -3.58 2.23 -3.47 2.38 -3.35 2.54 -3.23 2.69 -3.1 2.83 -2.97 2.97 -2.83 3.1 -2.69 3.22 -2.54 3.35 -2.39 3.46 -2.22 3.58 -2.06 3.68 -1.89 3.79 -1.71 3.88 -1.53 3.96 -1.35 4.06 -1.15 4.13 -0.96 4.2 -0.75 4.27 -0.54 4.33 -0.33 4.39 -0.11zm0 0c1.97,0 3.57,1.6 3.57,3.57 0,1.97 -1.6,3.57 -3.57,3.57l0 -7.14z"/>
    </g>
    <g>
     <path class="fil15" d="M130.6 202.71c0,1.97 -1.6,3.57 -3.57,3.57 -1.97,0 -3.57,-1.6 -3.57,-3.57l7.14 0zm71.98 -79.13l0 7.14 -3.71 0.09 -3.66 0.28 -3.6 0.46 -3.54 0.63 -3.48 0.8 -3.42 0.97 -3.34 1.13 -3.27 1.28 -3.19 1.44 -3.1 1.59 -3.01 1.73 -2.92 1.87 -2.82 2.01 -2.72 2.13 -2.61 2.27 -2.5 2.38 -2.39 2.5 -2.26 2.61 -2.13 2.72 -2.01 2.82 -1.87 2.92 -1.73 3.02 -1.59 3.1 -1.44 3.19 -1.29 3.27 -1.13 3.35 -0.97 3.41 -0.8 3.48 -0.63 3.54 -0.46 3.6 -0.28 3.66 -0.09 3.71 -7.14 0 0.1 -4.07 0.31 -4.01 0.5 -3.96 0.7 -3.9 0.88 -3.83 1.07 -3.75 1.24 -3.68 1.42 -3.6 1.58 -3.51 1.75 -3.41 1.91 -3.31 2.06 -3.21 2.21 -3.1 2.35 -2.99 2.48 -2.87 2.62 -2.75 2.74 -2.62 2.87 -2.49 2.99 -2.35 3.1 -2.2 3.21 -2.06 3.31 -1.91 3.42 -1.75 3.5 -1.58 3.59 -1.42 3.68 -1.24 3.76 -1.07 3.83 -0.88 3.9 -0.7 3.96 -0.5 4.01 -0.31 4.07 -0.1zm0 0c1.97,0 3.57,1.6 3.57,3.57 0,1.97 -1.6,3.57 -3.57,3.57l0 -7.14z"/>
    </g>
    <g>
     <path class="fil12" d="M306.91 202.71c0,1.97 -1.6,3.57 -3.57,3.57 -1.97,0 -3.57,-1.6 -3.57,-3.57l7.14 0zm-104.32 -97.17l0 -7.14 5.36 0.13 5.29 0.41 5.22 0.67 5.13 0.92 5.04 1.17 4.95 1.41 4.84 1.65 4.74 1.87 4.62 2.09 4.5 2.31 4.37 2.51 4.24 2.72 4.09 2.91 3.94 3.1 3.79 3.28 3.62 3.46 3.46 3.62 3.28 3.79 3.1 3.94 2.91 4.09 2.72 4.23 2.52 4.37 2.31 4.5 2.09 4.62 1.87 4.74 1.65 4.84 1.41 4.95 1.17 5.04 0.92 5.13 0.67 5.21 0.41 5.29 0.13 5.36 -7.14 0 -0.13 -5 -0.37 -4.93 -0.62 -4.86 -0.86 -4.78 -1.09 -4.7 -1.31 -4.6 -1.53 -4.51 -1.74 -4.41 -1.95 -4.3 -2.15 -4.19 -2.34 -4.07 -2.53 -3.94 -2.72 -3.81 -2.89 -3.67 -3.06 -3.53 -3.22 -3.38 -3.38 -3.22 -3.53 -3.06 -3.67 -2.89 -3.81 -2.71 -3.94 -2.53 -4.07 -2.35 -4.19 -2.15 -4.3 -1.95 -4.41 -1.74 -4.51 -1.53 -4.61 -1.31 -4.7 -1.09 -4.78 -0.86 -4.86 -0.62 -4.93 -0.37 -5 -0.13zm0 0c-1.97,0 -3.57,-1.6 -3.57,-3.57 0,-1.97 1.6,-3.57 3.57,-3.57l0 7.14z"/>
    </g>
    <g>
     <path class="fil13" d="M300.61 202.71c0,1.97 -1.6,3.57 -3.57,3.57 -1.97,0 -3.57,-1.6 -3.57,-3.57l7.14 0zm-98.02 -90.88l0 -7.14 5.04 0.13 4.97 0.38 4.9 0.63 4.83 0.86 4.74 1.1 4.65 1.32 4.56 1.55 4.45 1.76 4.34 1.96 4.22 2.17 4.11 2.36 3.98 2.56 3.84 2.73 3.7 2.91 3.56 3.08 3.41 3.24 3.25 3.41 3.08 3.56 2.91 3.7 2.74 3.84 2.55 3.98 2.36 4.1 2.17 4.23 1.96 4.34 1.76 4.45 1.55 4.56 1.32 4.65 1.1 4.74 0.86 4.82 0.63 4.9 0.38 4.97 0.13 5.04 -7.14 0 -0.12 -4.67 -0.35 -4.61 -0.58 -4.55 -0.8 -4.47 -1.02 -4.39 -1.22 -4.31 -1.43 -4.22 -1.63 -4.12 -1.82 -4.02 -2.01 -3.92 -2.19 -3.8 -2.36 -3.69 -2.54 -3.56 -2.7 -3.44 -2.86 -3.3 -3.01 -3.16 -3.16 -3.01 -3.3 -2.86 -3.44 -2.7 -3.57 -2.54 -3.69 -2.37 -3.81 -2.19 -3.92 -2.01 -4.02 -1.82 -4.12 -1.63 -4.22 -1.43 -4.31 -1.22 -4.39 -1.02 -4.47 -0.8 -4.54 -0.58 -4.61 -0.35 -4.67 -0.12zm0 0c-1.97,0 -3.57,-1.6 -3.57,-3.57 0,-1.97 1.6,-3.57 3.57,-3.57l0 7.14z"/>
    </g>
    <g>
     <path class="fil16" d="M294.31 202.71c0,1.97 -1.6,3.57 -3.57,3.57 -1.97,0 -3.57,-1.6 -3.57,-3.57l7.14 0zm-91.72 -84.58l0 -7.14 4.71 0.12 4.65 0.36 4.58 0.58 4.52 0.81 4.43 1.02 4.35 1.24 4.26 1.45 4.17 1.64 4.06 1.84 3.96 2.03 3.84 2.21 3.72 2.39 3.59 2.56 3.46 2.73 3.33 2.88 3.19 3.04 3.04 3.19 2.88 3.33 2.72 3.46 2.56 3.59 2.39 3.72 2.21 3.84 2.03 3.95 1.84 4.07 1.64 4.16 1.45 4.26 1.24 4.35 1.02 4.43 0.81 4.52 0.58 4.58 0.36 4.65 0.12 4.71 -7.14 0 -0.11 -4.35 -0.33 -4.29 -0.54 -4.23 -0.75 -4.16 -0.94 -4.09 -1.14 -4.01 -1.33 -3.93 -1.52 -3.84 -1.7 -3.74 -1.87 -3.65 -2.04 -3.54 -2.2 -3.43 -2.36 -3.32 -2.51 -3.2 -2.66 -3.07 -2.8 -2.94 -2.94 -2.8 -3.07 -2.66 -3.2 -2.52 -3.32 -2.36 -3.43 -2.2 -3.54 -2.04 -3.65 -1.88 -3.74 -1.69 -3.83 -1.52 -3.93 -1.33 -4.01 -1.14 -4.09 -0.94 -4.16 -0.75 -4.23 -0.54 -4.29 -0.33 -4.35 -0.11zm0 0c-1.97,0 -3.57,-1.6 -3.57,-3.57 0,-1.97 1.6,-3.57 3.57,-3.57l0 7.14z"/>
    </g>
    <g>
     <path class="fil14" d="M288.02 202.71c0,1.97 -1.6,3.57 -3.57,3.57 -1.97,0 -3.57,-1.6 -3.57,-3.57l7.14 0zm-85.43 -78.28l0 -7.14 4.39 0.11 4.33 0.33 4.27 0.54 4.2 0.75 4.13 0.96 4.06 1.15 3.96 1.35 3.88 1.53 3.79 1.71 3.68 1.89 3.58 2.06 3.46 2.22 3.35 2.39 3.22 2.54 3.1 2.69 2.97 2.83 2.83 2.97 2.69 3.1 2.54 3.23 2.38 3.35 2.23 3.47 2.06 3.58 1.89 3.68 1.71 3.79 1.53 3.87 1.35 3.97 1.15 4.06 0.96 4.13 0.75 4.2 0.54 4.27 0.33 4.33 0.11 4.39 -7.14 0 -0.1 -4.02 -0.3 -3.97 -0.5 -3.91 -0.69 -3.85 -0.88 -3.78 -1.06 -3.71 -1.23 -3.64 -1.4 -3.55 -1.57 -3.46 -1.73 -3.37 -1.89 -3.28 -2.04 -3.18 -2.19 -3.07 -2.33 -2.96 -2.46 -2.84 -2.59 -2.72 -2.72 -2.59 -2.84 -2.46 -2.96 -2.32 -3.07 -2.19 -3.17 -2.04 -3.28 -1.89 -3.37 -1.73 -3.46 -1.57 -3.56 -1.4 -3.63 -1.23 -3.71 -1.06 -3.78 -0.88 -3.85 -0.69 -3.91 -0.5 -3.97 -0.3 -4.02 -0.1zm0 0c-1.97,0 -3.57,-1.6 -3.57,-3.57 0,-1.97 1.6,-3.57 3.57,-3.57l0 7.14z"/>
    </g>
    <g>
     <path class="fil15" d="M281.72 202.71c0,1.97 -1.6,3.57 -3.57,3.57 -1.97,0 -3.57,-1.6 -3.57,-3.57l7.14 0zm-79.13 -71.99l0 -7.14 4.07 0.1 4.01 0.31 3.96 0.5 3.9 0.7 3.83 0.88 3.76 1.07 3.68 1.24 3.59 1.42 3.5 1.58 3.42 1.75 3.31 1.91 3.21 2.06 3.1 2.2 2.99 2.35 2.87 2.49 2.74 2.62 2.62 2.75 2.48 2.87 2.35 2.99 2.21 3.1 2.06 3.21 1.91 3.31 1.75 3.41 1.58 3.51 1.42 3.6 1.24 3.68 1.07 3.75 0.88 3.83 0.7 3.9 0.5 3.96 0.31 4.01 0.1 4.07 -7.14 0 -0.09 -3.71 -0.28 -3.66 -0.46 -3.6 -0.63 -3.54 -0.8 -3.48 -0.97 -3.41 -1.13 -3.35 -1.29 -3.27 -1.44 -3.19 -1.59 -3.1 -1.73 -3.02 -1.87 -2.92 -2.01 -2.82 -2.13 -2.72 -2.26 -2.61 -2.39 -2.5 -2.5 -2.38 -2.61 -2.27 -2.72 -2.13 -2.82 -2.01 -2.92 -1.87 -3.01 -1.73 -3.1 -1.59 -3.19 -1.44 -3.27 -1.28 -3.34 -1.13 -3.42 -0.97 -3.48 -0.8 -3.54 -0.63 -3.6 -0.46 -3.66 -0.28 -3.71 -0.09zm0 0c-1.97,0 -3.57,-1.6 -3.57,-3.57 0,-1.97 1.6,-3.57 3.57,-3.57l0 7.14z"/>
    </g>
    <g>
     <path class="fil16" d="M118.01 202.71c0,1.97 -1.6,3.57 -3.57,3.57 -1.97,0 -3.57,-1.6 -3.57,-3.57l7.14 0zm84.58 -91.73l0 7.14 -4.35 0.11 -4.29 0.33 -4.23 0.54 -4.16 0.75 -4.09 0.94 -4.01 1.14 -3.93 1.33 -3.83 1.52 -3.74 1.69 -3.65 1.88 -3.54 2.04 -3.43 2.2 -3.32 2.36 -3.2 2.52 -3.07 2.66 -2.94 2.8 -2.8 2.94 -2.66 3.07 -2.51 3.2 -2.36 3.32 -2.2 3.43 -2.04 3.54 -1.87 3.65 -1.7 3.74 -1.52 3.84 -1.33 3.93 -1.14 4.01 -0.94 4.09 -0.75 4.16 -0.54 4.23 -0.33 4.29 -0.11 4.35 -7.14 0 0.12 -4.71 0.36 -4.65 0.58 -4.58 0.81 -4.52 1.02 -4.43 1.24 -4.35 1.45 -4.26 1.64 -4.16 1.84 -4.07 2.03 -3.95 2.21 -3.84 2.39 -3.72 2.56 -3.59 2.72 -3.46 2.88 -3.33 3.04 -3.19 3.19 -3.04 3.33 -2.88 3.46 -2.73 3.59 -2.56 3.72 -2.39 3.84 -2.21 3.96 -2.03 4.06 -1.84 4.17 -1.64 4.26 -1.45 4.35 -1.24 4.43 -1.02 4.52 -0.81 4.58 -0.58 4.65 -0.36 4.71 -0.12zm0 0c1.97,0 3.57,1.6 3.57,3.57 0,1.97 -1.6,3.57 -3.57,3.57l0 -7.14z"/>
    </g>
    <g>
     <g>
      <path class="fil17" d="M345.22 253.93c10.27,0 18.6,-8.6 18.6,-19.2 0,-7.16 -3.81,-13.39 -9.43,-16.69 0,-0.22 0.03,-0.43 0.03,-0.65 0,-10.57 -8.3,-19.14 -18.55,-19.14 -5.34,0 -10.14,2.34 -13.52,6.07 -4.38,-7.79 -12.54,-13.03 -21.89,-13.03 -8.17,0 -15.43,4 -20.06,10.21 -1.39,-0.41 -2.86,-0.64 -4.39,-0.64 -8.85,0 -16.02,7.4 -16.02,16.53 0,0.07 0.01,0.14 0.01,0.2 -8.58,1.27 -15.18,8.86 -15.18,18.07 0,10.09 7.92,18.27 17.7,18.27l82.69 0z"/>
      <path class="fil18" d="M278.25 233.93c0,-7.57 -5.95,-13.72 -13.29,-13.72 -7.34,0 -13.29,6.14 -13.29,13.72 0,7.58 5.95,13.72 13.29,13.72 7.34,0 13.29,-6.14 13.29,-13.72z"/>
      <path class="fil19" d="M290.72 218.73c0,-7.11 -5.59,-12.88 -12.48,-12.88 -6.89,0 -12.47,5.76 -12.47,12.88 0,7.11 5.59,12.87 12.47,12.87 6.89,0 12.48,-5.76 12.48,-12.87z"/>
      <path class="fil20" d="M317.72 214.09c0,-8.98 -7.05,-16.25 -15.75,-16.25 -8.69,0 -15.74,7.28 -15.74,16.25 0,8.98 7.05,16.25 15.74,16.25 8.7,0 15.75,-7.28 15.75,-16.25z"/>
      <path class="fil21" d="M342.99 218.73c0,-7.46 -5.86,-13.51 -13.09,-13.51 -7.22,0 -13.09,6.05 -13.09,13.51 0,7.46 5.86,13.5 13.09,13.5 7.23,0 13.09,-6.04 13.09,-13.5z"/>
      <path class="fil22" d="M300.54 233.93c0,-7.34 -5.77,-13.3 -12.89,-13.3 -7.11,0 -12.88,5.95 -12.88,13.3 0,7.35 5.76,13.3 12.88,13.3 7.12,0 12.89,-5.95 12.89,-13.3z"/>
      <path class="fil23" d="M326.51 231.6c0,-8.16 -6.41,-14.77 -14.32,-14.77 -7.9,0 -14.32,6.61 -14.32,14.77 0,8.17 6.41,14.78 14.32,14.78 7.91,0 14.32,-6.61 14.32,-14.78z"/>
      <path class="fil24" d="M350.87 232.24c0,-8.28 -6.5,-14.98 -14.52,-14.98 -8.02,0 -14.52,6.71 -14.52,14.98 0,8.28 6.5,14.99 14.52,14.99 8.02,0 14.52,-6.71 14.52,-14.99z"/>
     </g>
     <g>
      <path class="fil25" d="M123.24 237.6c10.28,0 18.6,-8.6 18.6,-19.2 0,-7.16 -3.8,-13.39 -9.43,-16.7 0.01,-0.21 0.03,-0.43 0.03,-0.65 0,-10.57 -8.3,-19.14 -18.54,-19.14 -5.34,0 -10.14,2.34 -13.52,6.07 -4.38,-7.79 -12.54,-13.03 -21.89,-13.03 -8.17,0 -15.44,4.01 -20.06,10.22 -1.4,-0.41 -2.87,-0.65 -4.39,-0.65 -8.85,0 -16.02,7.4 -16.02,16.53 0,0.07 0.01,0.14 0.01,0.21 -8.58,1.26 -15.19,8.86 -15.19,18.06 0,10.09 7.93,18.28 17.7,18.28l82.69 0z"/>
      <path class="fil26" d="M56.28 217.6c0,-7.58 -5.95,-13.72 -13.29,-13.72 -7.34,0 -13.29,6.14 -13.29,13.72 0,7.58 5.95,13.72 13.29,13.72 7.34,0 13.29,-6.14 13.29,-13.72z"/>
      <path class="fil27" d="M68.75 202.4c0,-7.11 -5.59,-12.87 -12.48,-12.87 -6.89,0 -12.48,5.76 -12.48,12.87 0,7.11 5.59,12.87 12.48,12.87 6.89,0 12.48,-5.76 12.48,-12.87z"/>
      <path class="fil28" d="M95.75 197.76c0,-8.98 -7.05,-16.25 -15.75,-16.25 -8.7,0 -15.75,7.28 -15.75,16.25 0,8.98 7.05,16.25 15.75,16.25 8.7,0 15.75,-7.28 15.75,-16.25z"/>
      <path class="fil29" d="M121.02 202.4c0,-7.46 -5.86,-13.51 -13.09,-13.51 -7.23,0 -13.09,6.05 -13.09,13.51 0,7.46 5.86,13.51 13.09,13.51 7.23,0 13.09,-6.05 13.09,-13.51z"/>
      <path class="fil30" d="M78.56 217.6c0,-7.34 -5.76,-13.3 -12.88,-13.3 -7.11,0 -12.88,5.95 -12.88,13.3 0,7.34 5.77,13.3 12.88,13.3 7.12,0 12.88,-5.96 12.88,-13.3z"/>
      <path class="fil31" d="M104.54 215.27c0,-8.16 -6.41,-14.77 -14.32,-14.77 -7.91,0 -14.32,6.61 -14.32,14.77 0,8.16 6.41,14.78 14.32,14.78 7.91,0 14.32,-6.61 14.32,-14.78z"/>
      <path class="fil32" d="M128.9 215.91c0,-8.28 -6.5,-14.98 -14.52,-14.98 -8.02,0 -14.52,6.71 -14.52,14.98 0,8.28 6.5,14.99 14.52,14.99 8.02,0 14.52,-6.71 14.52,-14.99z"/>
     </g>
    </g>
    <g>
     <path class="fil33" d="M261.85 280.43c-0.41,-0.25 -0.54,-0.79 -0.29,-1.2l5.91 -9.69c0.25,-0.41 0.79,-0.54 1.2,-0.29 0.41,0.25 0.54,0.79 0.29,1.2l-5.91 9.69c-0.25,0.41 -0.79,0.54 -1.2,0.29z"/>
     <path class="fil33" d="M284.05 263.68c-0.41,-0.25 -0.54,-0.79 -0.29,-1.2l2.73 -4.48c0.25,-0.41 0.79,-0.54 1.2,-0.29 0.41,0.25 0.54,0.79 0.29,1.2l-2.73 4.48c-0.25,0.41 -0.79,0.54 -1.2,0.29z"/>
     <path class="fil33" d="M327.58 262.75c-0.41,-0.25 -0.54,-0.79 -0.29,-1.2l3.39 -5.56c0.25,-0.41 0.79,-0.54 1.2,-0.29 0.41,0.25 0.54,0.79 0.29,1.2l-3.39 5.56c-0.25,0.41 -0.79,0.54 -1.2,0.29z"/>
     <path class="fil33" d="M305.82 280.43c-0.41,-0.25 -0.54,-0.79 -0.29,-1.2l4.65 -7.63c0.25,-0.41 0.79,-0.54 1.2,-0.29 0.41,0.25 0.54,0.79 0.29,1.2l-4.65 7.64c-0.25,0.41 -0.79,0.54 -1.2,0.29z"/>
     <g>
      <path class="fil33" d="M291 268.68c-0.41,-0.25 -0.54,-0.79 -0.29,-1.2l5.04 -8.27c0.25,-0.41 0.79,-0.54 1.2,-0.29 0.41,0.25 0.54,0.79 0.29,1.2l-5.04 8.27c-0.25,0.41 -0.79,0.54 -1.2,0.29z"/>
     </g>
     <g>
      <path class="fil33" d="M303.34 266.45c-0.41,-0.25 -0.54,-0.79 -0.29,-1.2l4.88 -8c0.25,-0.41 0.79,-0.54 1.2,-0.29 0.41,0.25 0.54,0.79 0.29,1.2l-4.88 8c-0.25,0.41 -0.79,0.55 -1.2,0.29z"/>
     </g>
     <path class="fil33" d="M271.03 260.7c0,1.25 -1.02,2.27 -2.27,2.27 -1.25,0 -2.27,-1.02 -2.27,-2.27 0,-1.25 1.02,-2.27 2.27,-2.27 1.25,0 2.27,1.02 2.27,2.27z"/>
     <path class="fil33" d="M281.24 267.17c0,1.25 -1.02,2.27 -2.27,2.27 -1.26,0 -2.27,-1.02 -2.27,-2.27 0,-1.25 1.01,-2.27 2.27,-2.27 1.25,0 2.27,1.02 2.27,2.27z"/>
     <path class="fil33" d="M296.25 277.41c0,1.25 -1.02,2.27 -2.27,2.27 -1.25,0 -2.27,-1.02 -2.27,-2.27 0,-1.25 1.02,-2.27 2.27,-2.27 1.25,0 2.27,1.02 2.27,2.27z"/>
     <path class="fil33" d="M317.17 264.9c0,1.25 -1.02,2.27 -2.27,2.27 -1.25,0 -2.27,-1.02 -2.27,-2.27 0,-1.25 1.02,-2.27 2.27,-2.27 1.25,0 2.27,1.02 2.27,2.27z"/>
     <path class="fil33" d="M327.48 270.23c0,1 -0.81,1.81 -1.81,1.81 -1,0 -1.81,-0.81 -1.81,-1.81 0,-1 0.81,-1.81 1.81,-1.81 1,0 1.81,0.81 1.81,1.81z"/>
     <path class="fil33" d="M283.52 277.87c0,1 -0.81,1.81 -1.81,1.81 -1,0 -1.81,-0.81 -1.81,-1.81 0,-1 0.81,-1.81 1.81,-1.81 1,0 1.81,0.81 1.81,1.81z"/>
     <path class="fil33" d="M262.18 269.89c0,1 -0.81,1.81 -1.81,1.81 -1,0 -1.81,-0.81 -1.81,-1.81 0,-1 0.81,-1.81 1.81,-1.81 1,0 1.81,0.81 1.81,1.81z"/>
    </g>
    <g>
     <path class="fil33" d="M26.41 268.31c-0.41,-0.25 -0.54,-0.79 -0.29,-1.2l5.91 -9.69c0.25,-0.41 0.79,-0.54 1.2,-0.29 0.41,0.25 0.54,0.79 0.29,1.2l-5.91 9.69c-0.25,0.41 -0.79,0.54 -1.2,0.29z"/>
     <path class="fil33" d="M48.62 251.57c-0.41,-0.25 -0.54,-0.79 -0.29,-1.2l2.73 -4.48c0.25,-0.41 0.79,-0.54 1.2,-0.29 0.41,0.25 0.54,0.79 0.29,1.2l-2.73 4.48c-0.25,0.41 -0.79,0.54 -1.2,0.29z"/>
     <path class="fil33" d="M92.15 250.63c-0.41,-0.25 -0.54,-0.79 -0.29,-1.2l3.39 -5.56c0.25,-0.41 0.79,-0.54 1.2,-0.29 0.41,0.25 0.54,0.79 0.29,1.2l-3.39 5.56c-0.25,0.41 -0.79,0.54 -1.2,0.29z"/>
     <path class="fil33" d="M70.38 268.31c-0.41,-0.25 -0.54,-0.79 -0.29,-1.2l4.65 -7.63c0.25,-0.41 0.79,-0.54 1.2,-0.29 0.41,0.25 0.54,0.79 0.29,1.2l-4.65 7.63c-0.25,0.41 -0.79,0.54 -1.2,0.29z"/>
     <g>
      <path class="fil33" d="M55.57 256.57c-0.41,-0.25 -0.54,-0.79 -0.29,-1.2l5.04 -8.27c0.25,-0.41 0.79,-0.54 1.2,-0.29 0.41,0.25 0.54,0.79 0.29,1.2l-5.04 8.27c-0.25,0.41 -0.79,0.54 -1.2,0.29z"/>
     </g>
     <g>
      <path class="fil33" d="M67.91 254.33c-0.41,-0.25 -0.54,-0.79 -0.29,-1.2l4.88 -8.01c0.25,-0.41 0.79,-0.54 1.2,-0.29 0.41,0.25 0.54,0.79 0.29,1.2l-4.88 8c-0.25,0.41 -0.79,0.54 -1.2,0.29z"/>
     </g>
     <path class="fil33" d="M35.59 248.58c0,1.25 -1.02,2.27 -2.27,2.27 -1.25,0 -2.27,-1.02 -2.27,-2.27 0,-1.25 1.02,-2.27 2.27,-2.27 1.25,0 2.27,1.02 2.27,2.27z"/>
     <path class="fil33" d="M45.81 255.05c0,1.25 -1.02,2.27 -2.27,2.27 -1.25,0 -2.27,-1.02 -2.27,-2.27 0,-1.25 1.02,-2.27 2.27,-2.27 1.26,0 2.27,1.02 2.27,2.27z"/>
     <path class="fil33" d="M60.81 265.3c0,1.25 -1.02,2.27 -2.27,2.27 -1.25,0 -2.27,-1.02 -2.27,-2.27 0,-1.25 1.02,-2.27 2.27,-2.27 1.25,0 2.27,1.02 2.27,2.27z"/>
     <path class="fil33" d="M81.74 252.79c0,1.25 -1.02,2.27 -2.27,2.27 -1.25,0 -2.27,-1.02 -2.27,-2.27 0,-1.25 1.02,-2.27 2.27,-2.27 1.25,0 2.27,1.02 2.27,2.27z"/>
     <path class="fil33" d="M92.04 258.12c0,1 -0.81,1.81 -1.81,1.81 -1,0 -1.81,-0.81 -1.81,-1.81 0,-1 0.81,-1.81 1.81,-1.81 1,0 1.81,0.81 1.81,1.81z"/>
     <path class="fil33" d="M48.09 265.75c0,1 -0.81,1.81 -1.81,1.81 -1,0 -1.81,-0.81 -1.81,-1.81 0,-1 0.81,-1.81 1.81,-1.81 1,0 1.81,0.81 1.81,1.81z"/>
     <path class="fil33" d="M26.75 257.77c0,1 -0.81,1.81 -1.81,1.81 -1,0 -1.81,-0.81 -1.81,-1.81 0,-1 0.81,-1.81 1.81,-1.81 1,0 1.81,0.81 1.81,1.81z"/>
    </g>
    <g>
     <path class="fil33" d="M140.64 284.58c-0.41,-0.25 -0.54,-0.79 -0.29,-1.2l5.91 -9.69c0.25,-0.41 0.79,-0.54 1.2,-0.29 0.41,0.25 0.54,0.79 0.29,1.2l-5.91 9.69c-0.25,0.41 -0.79,0.54 -1.2,0.29z"/>
     <path class="fil33" d="M162.84 267.83c-0.41,-0.25 -0.54,-0.79 -0.29,-1.2l2.73 -4.48c0.25,-0.41 0.79,-0.54 1.2,-0.29 0.41,0.25 0.54,0.79 0.29,1.2l-2.73 4.48c-0.25,0.41 -0.79,0.54 -1.2,0.29z"/>
     <path class="fil33" d="M206.37 266.9c-0.41,-0.25 -0.54,-0.79 -0.29,-1.2l3.39 -5.56c0.25,-0.41 0.79,-0.54 1.2,-0.29 0.41,0.25 0.54,0.79 0.29,1.2l-3.39 5.56c-0.25,0.41 -0.79,0.54 -1.2,0.29z"/>
     <path class="fil33" d="M184.6 284.58c-0.41,-0.25 -0.54,-0.79 -0.29,-1.2l4.65 -7.63c0.25,-0.41 0.79,-0.54 1.2,-0.29 0.41,0.25 0.54,0.79 0.29,1.2l-4.65 7.64c-0.25,0.41 -0.79,0.54 -1.2,0.29z"/>
     <g>
      <path class="fil33" d="M169.79 272.84c-0.41,-0.25 -0.54,-0.79 -0.29,-1.2l5.04 -8.27c0.25,-0.41 0.79,-0.54 1.2,-0.29 0.41,0.25 0.54,0.79 0.29,1.2l-5.04 8.27c-0.25,0.41 -0.79,0.54 -1.2,0.29z"/>
     </g>
     <g>
      <path class="fil33" d="M182.13 270.6c-0.41,-0.25 -0.54,-0.79 -0.29,-1.2l4.88 -8.01c0.25,-0.41 0.79,-0.54 1.2,-0.29 0.41,0.25 0.54,0.79 0.29,1.2l-4.88 8c-0.25,0.41 -0.79,0.54 -1.2,0.29z"/>
     </g>
     <path class="fil33" d="M149.82 264.85c0,1.25 -1.02,2.27 -2.27,2.27 -1.25,0 -2.27,-1.02 -2.27,-2.27 0,-1.25 1.02,-2.27 2.27,-2.27 1.25,0 2.27,1.02 2.27,2.27z"/>
     <path class="fil33" d="M160.03 271.32c0,1.25 -1.02,2.27 -2.27,2.27 -1.25,0 -2.27,-1.02 -2.27,-2.27 0,-1.25 1.02,-2.27 2.27,-2.27 1.25,0 2.27,1.02 2.27,2.27z"/>
     <path class="fil33" d="M175.04 281.57c0,1.25 -1.02,2.27 -2.27,2.27 -1.26,0 -2.27,-1.02 -2.27,-2.27 0,-1.25 1.01,-2.27 2.27,-2.27 1.25,0 2.27,1.02 2.27,2.27z"/>
     <path class="fil33" d="M195.96 269.05c0,1.25 -1.02,2.27 -2.27,2.27 -1.26,0 -2.27,-1.02 -2.27,-2.27 0,-1.25 1.01,-2.27 2.27,-2.27 1.25,0 2.27,1.02 2.27,2.27z"/>
     <path class="fil33" d="M206.27 274.38c0,1 -0.81,1.81 -1.81,1.81 -1,0 -1.81,-0.81 -1.81,-1.81 0,-1 0.81,-1.81 1.81,-1.81 1,0 1.81,0.81 1.81,1.81z"/>
     <path class="fil33" d="M162.31 282.02c0,1 -0.81,1.81 -1.81,1.81 -1,0 -1.81,-0.81 -1.81,-1.81 0,-1 0.81,-1.81 1.81,-1.81 1,0 1.81,0.81 1.81,1.81z"/>
     <path class="fil33" d="M140.97 274.04c0,1 -0.81,1.81 -1.81,1.81 -1,0 -1.81,-0.81 -1.81,-1.81 0,-1 0.81,-1.81 1.81,-1.81 1,0 1.81,0.81 1.81,1.81z"/>
    </g>
   </g>
  </g>
  <path class="fil0" d="M321.39 386.67l-256.1 0c-36.06,0 -65.28,-29.23 -65.28,-65.29l0 -256.1c0,-36.06 29.23,-65.29 65.28,-65.29l256.1 0c36.06,0 65.28,29.23 65.28,65.29l0 256.1c0,36.06 -29.23,65.29 -65.28,65.29z"/>
  <g>
   <path class="fil34" d="M353.46 299.58c0,5.93 -75.56,12.82 -162.61,12.82 -87.06,0 -157.63,-4.81 -157.63,-10.74 0,-5.93 70.57,-10.74 157.63,-10.74 87.06,0 162.61,2.73 162.61,8.67z"/>
   <path class="fil35" d="M280.35 125.05c-0.03,0.01 -0.06,0.02 -0.09,0.04 -11.89,5.06 -19.13,7.35 -23.45,9.55 -2.34,1.2 -3.5,3.86 -4.06,7.31 -0.8,4.89 -0.41,11.33 -0.5,17.38 -0.12,7.69 -2.24,116.3 -2.81,137.52 0,0 -19.35,12.1 -66.09,11.52 -15.58,-0.19 -65.21,-4.32 -69.45,-14.07 -4.26,-9.81 3.97,-119.43 3.38,-130.69 -0.31,-5.87 0.33,-14.75 -0.84,-19.45 -0.05,-0.2 -0.1,-0.41 -0.16,-0.61 -0.91,-3.26 -2.5,-6.38 -4.39,-8.58 -1.41,-1.66 -2.99,-2.8 -4.56,-3.09 -14.37,-2.73 -23.27,-2.79 -30.97,-2.72 -4.3,0.04 -8.23,0.11 -12.53,-0.21 -5.12,-0.39 -10.77,-1.34 -18.2,-3.62 -39.41,-12.07 114.41,-51.33 141.06,-51.05 26.65,0.28 72.36,13.26 114.59,28.43 42.2,15.15 17.29,6.12 -20.94,22.35z"/>
   <g>
    <g>
     <path class="fil36" d="M232.01 188.26c-5.13,3.83 -100.05,1.35 -103.6,-1.52 -3.56,-2.87 -1.13,-44.33 0.33,-46.68 5.59,-8.93 97.1,-7.22 102.89,0.21 1.6,2.05 5.5,44.15 0.37,47.98z"/>
    </g>
    <g>
     <path class="fil37" d="M141.16 151.05c-3.22,3.18 -3.09,23.47 -0.51,25.1 2.59,1.63 77.56,4.83 80.12,0.74 4.15,-6.62 2.54,-19.91 0.98,-24.61 -0.95,-2.87 -75.8,-5.96 -80.6,-1.23z"/>
    </g>
    <g>
     <path class="fil38" d="M152.77 212.81l-12.19 0.45c-1.64,-0.01 -3.06,-2.19 -3.05,-4.2l0.04 -5.38c0.02,-2.01 1.52,-4.3 3.16,-4.29l12.13 -0.09c1.64,0.01 2.96,1.65 2.94,3.66l-0.04 6.23c-0.02,2.01 -1.36,3.63 -3,3.62z"/>
    </g>
    <g>
     <path class="fil38" d="M175.98 212.54l-12.19 0.46c-1.64,-0.01 -3.06,-2.2 -3.05,-4.21l0.04 -5.37c0.02,-2.01 1.52,-4.3 3.16,-4.29l12.13 -0.1c1.64,0.02 2.96,1.65 2.94,3.67l-0.04 6.23c-0.02,2.01 -1.36,3.63 -3,3.62z"/>
    </g>
    <g>
     <path class="fil38" d="M197.98 212.7l-12.19 0.46c-1.64,-0.01 -3.06,-2.2 -3.05,-4.2l0.04 -5.38c0.02,-2.01 1.52,-4.3 3.16,-4.29l12.13 -0.09c1.65,0.01 2.96,1.65 2.95,3.66l-0.04 6.23c-0.02,2.01 -1.36,3.63 -3,3.62z"/>
    </g>
    <g>
     <path class="fil38" d="M220.93 213.22l-12.19 0.45c-1.64,-0.01 -3.06,-2.19 -3.05,-4.2l0.04 -5.38c0.02,-2.01 1.52,-4.3 3.16,-4.29l12.13 -0.09c1.64,0.01 2.96,1.65 2.94,3.66l-0.04 6.23c-0.02,2.01 -1.36,3.63 -3,3.62z"/>
    </g>
    <g>
     <path class="fil37" d="M152.04 211.82l-11.88 0.44c-1.6,-0.01 -2.98,-2.11 -2.97,-4.04l0.04 -5.16c0.01,-1.93 1.48,-4.13 3.07,-4.11l11.83 -0.09c1.6,0.01 2.89,1.58 2.87,3.51l-0.04 5.98c-0.01,1.93 -1.32,3.48 -2.93,3.47z"/>
    </g>
    <g>
     <path class="fil37" d="M175.18 211.99l-11.88 0.43c-1.6,-0.01 -2.98,-2.11 -2.97,-4.04l0.04 -5.16c0.01,-1.93 1.48,-4.13 3.08,-4.12l11.83 -0.09c1.6,0.01 2.89,1.59 2.87,3.52l-0.04 5.98c-0.01,1.93 -1.32,3.48 -2.92,3.47z"/>
    </g>
    <g>
     <path class="fil37" d="M197.4 212.15l-11.88 0.44c-1.6,-0.01 -2.98,-2.11 -2.97,-4.04l0.04 -5.16c0.01,-1.93 1.48,-4.13 3.07,-4.11l11.83 -0.09c1.6,0.01 2.89,1.58 2.87,3.51l-0.04 5.98c-0.01,1.93 -1.32,3.48 -2.93,3.47z"/>
    </g>
    <g>
     <path class="fil37" d="M220.15 212.31l-11.88 0.44c-1.6,-0.01 -2.98,-2.11 -2.97,-4.04l0.04 -5.16c0.02,-1.93 1.48,-4.13 3.08,-4.12l11.83 -0.09c1.6,0.01 2.89,1.59 2.87,3.52l-0.04 5.98c-0.02,1.93 -1.33,3.48 -2.93,3.47z"/>
    </g>
    <g>
     <path class="fil38" d="M152.64 231.89l-12.19 0.46c-1.64,-0.01 -3.06,-2.2 -3.05,-4.2l0.04 -5.38c0.02,-2.01 1.52,-4.3 3.16,-4.29l12.13 -0.09c1.64,0.01 2.96,1.65 2.95,3.66l-0.05 6.23c-0.02,2.01 -1.36,3.63 -3,3.62z"/>
    </g>
    <g>
     <path class="fil38" d="M175.84 231.63l-12.19 0.45c-1.64,-0.01 -3.06,-2.19 -3.05,-4.2l0.04 -5.38c0.02,-2.01 1.52,-4.3 3.16,-4.29l12.13 -0.1c1.64,0.01 2.96,1.65 2.94,3.66l-0.04 6.23c-0.02,2.01 -1.36,3.63 -3,3.62z"/>
    </g>
    <g>
     <path class="fil38" d="M197.84 231.79l-12.19 0.46c-1.64,-0.01 -3.06,-2.2 -3.05,-4.21l0.04 -5.37c0.02,-2.01 1.52,-4.3 3.16,-4.29l12.13 -0.09c1.64,0.01 2.96,1.65 2.94,3.66l-0.04 6.23c-0.02,2.01 -1.36,3.63 -3,3.62z"/>
    </g>
    <g>
     <path class="fil38" d="M220.79 232.3l-12.19 0.46c-1.64,-0.01 -3.06,-2.2 -3.05,-4.2l0.04 -5.38c0.02,-2.01 1.52,-4.3 3.16,-4.29l12.13 -0.09c1.64,0.01 2.96,1.65 2.94,3.66l-0.04 6.23c-0.02,2.01 -1.36,3.63 -3,3.62z"/>
    </g>
    <g>
     <path class="fil37" d="M151.91 230.91l-11.88 0.43c-1.6,-0.01 -2.98,-2.11 -2.97,-4.04l0.04 -5.16c0.01,-1.93 1.48,-4.13 3.07,-4.12l11.83 -0.09c1.6,0.01 2.89,1.59 2.87,3.52l-0.04 5.98c-0.01,1.93 -1.32,3.48 -2.93,3.47z"/>
    </g>
    <g>
     <path class="fil37" d="M175.04 231.07l-11.88 0.44c-1.6,-0.01 -2.98,-2.11 -2.97,-4.04l0.04 -5.16c0.01,-1.93 1.48,-4.13 3.08,-4.11l11.83 -0.09c1.6,0.01 2.89,1.58 2.87,3.51l-0.04 5.98c-0.02,1.93 -1.33,3.48 -2.93,3.47z"/>
    </g>
    <g>
     <path class="fil37" d="M197.26 231.23l-11.88 0.44c-1.6,-0.01 -2.98,-2.11 -2.97,-4.04l0.04 -5.16c0.01,-1.93 1.48,-4.13 3.07,-4.12l11.83 -0.09c1.6,0.01 2.89,1.59 2.87,3.52l-0.04 5.98c-0.01,1.93 -1.32,3.48 -2.93,3.47z"/>
    </g>
    <g>
     <path class="fil37" d="M220.01 231.4l-11.88 0.43c-1.6,-0.01 -2.98,-2.11 -2.97,-4.04l0.04 -5.16c0.02,-1.93 1.48,-4.13 3.08,-4.12l11.83 -0.09c1.6,0.01 2.89,1.59 2.88,3.52l-0.04 5.98c-0.02,1.93 -1.33,3.48 -2.93,3.47z"/>
    </g>
    <g>
     <path class="fil38" d="M152.49 252.42l-12.18 0.45c-1.65,-0.01 -3.06,-2.19 -3.05,-4.2l0.04 -5.38c0.01,-2.01 1.51,-4.3 3.16,-4.29l12.13 -0.09c1.64,0.01 2.96,1.65 2.95,3.66l-0.05 6.23c-0.01,2.01 -1.35,3.63 -3,3.62z"/>
    </g>
    <g>
     <path class="fil38" d="M175.69 252.15l-12.19 0.46c-1.64,-0.01 -3.06,-2.2 -3.04,-4.21l0.04 -5.37c0.01,-2.01 1.51,-4.3 3.16,-4.29l12.13 -0.09c1.64,0.01 2.96,1.65 2.95,3.66l-0.05 6.23c-0.01,2.01 -1.35,3.63 -3,3.62z"/>
    </g>
    <g>
     <path class="fil38" d="M197.69 252.31l-12.19 0.46c-1.64,-0.01 -3.06,-2.2 -3.04,-4.2l0.04 -5.38c0.02,-2.01 1.52,-4.3 3.16,-4.29l12.13 -0.09c1.64,0.01 2.96,1.65 2.95,3.66l-0.05 6.23c-0.02,2.01 -1.36,3.63 -3,3.62z"/>
    </g>
    <g>
     <path class="fil38" d="M220.64 252.83l-12.19 0.45c-1.64,-0.01 -3.06,-2.19 -3.04,-4.2l0.04 -5.38c0.02,-2.01 1.52,-4.3 3.16,-4.29l12.13 -0.09c1.64,0.01 2.96,1.65 2.95,3.66l-0.05 6.23c-0.01,2.01 -1.36,3.63 -3,3.62z"/>
    </g>
    <g>
     <path class="fil37" d="M151.76 251.43l-11.88 0.44c-1.6,-0.01 -2.98,-2.11 -2.97,-4.04l0.04 -5.16c0.01,-1.93 1.48,-4.13 3.08,-4.11l11.83 -0.09c1.6,0.01 2.89,1.58 2.87,3.51l-0.04 5.98c-0.02,1.93 -1.33,3.48 -2.93,3.47z"/>
    </g>
    <g>
     <path class="fil37" d="M174.89 251.6l-11.88 0.43c-1.6,-0.01 -2.98,-2.11 -2.97,-4.04l0.04 -5.16c0.02,-1.93 1.48,-4.13 3.08,-4.12l11.83 -0.09c1.6,0.01 2.89,1.59 2.87,3.52l-0.04 5.98c-0.02,1.93 -1.32,3.48 -2.93,3.47z"/>
    </g>
    <g>
     <path class="fil37" d="M197.11 251.75l-11.88 0.44c-1.6,-0.01 -2.98,-2.11 -2.97,-4.04l0.04 -5.16c0.02,-1.93 1.48,-4.13 3.08,-4.11l11.83 -0.09c1.6,0.01 2.89,1.58 2.88,3.51l-0.04 5.98c-0.02,1.93 -1.33,3.48 -2.93,3.47z"/>
    </g>
    <g>
     <path class="fil37" d="M219.86 251.92l-11.88 0.44c-1.6,-0.01 -2.98,-2.11 -2.97,-4.04l0.04 -5.16c0.02,-1.93 1.48,-4.13 3.08,-4.12l11.83 -0.09c1.6,0.01 2.89,1.59 2.87,3.52l-0.04 5.98c-0.02,1.93 -1.32,3.48 -2.93,3.47z"/>
    </g>
    <g>
     <path class="fil38" d="M152.36 270.61l-12.19 0.46c-1.64,-0.01 -3.06,-2.2 -3.04,-4.21l0.04 -5.38c0.02,-2.01 1.52,-4.3 3.16,-4.29l12.13 -0.1c1.64,0.01 2.96,1.65 2.95,3.67l-0.05 6.23c-0.02,2.01 -1.36,3.63 -3,3.62z"/>
    </g>
    <g>
     <path class="fil38" d="M175.56 270.34l-12.19 0.46c-1.64,-0.01 -3.06,-2.2 -3.04,-4.2l0.04 -5.38c0.02,-2.01 1.52,-4.3 3.16,-4.29l12.13 -0.09c1.64,0.01 2.96,1.65 2.95,3.66l-0.05 6.23c-0.02,2.01 -1.36,3.63 -3,3.62z"/>
    </g>
    <g>
     <path class="fil38" d="M197.56 270.5l-12.19 0.45c-1.64,-0.01 -3.06,-2.19 -3.05,-4.2l0.04 -5.38c0.02,-2.01 1.52,-4.3 3.16,-4.29l12.13 -0.1c1.64,0.01 2.96,1.65 2.94,3.66l-0.04 6.23c-0.02,2.01 -1.36,3.63 -3,3.62z"/>
    </g>
    <g>
     <path class="fil37" d="M151.63 269.62l-11.88 0.43c-1.6,-0.01 -2.98,-2.11 -2.97,-4.04l0.04 -5.16c0.01,-1.93 1.48,-4.13 3.07,-4.12l11.83 -0.09c1.6,0.01 2.89,1.59 2.87,3.52l-0.04 5.98c-0.01,1.93 -1.32,3.48 -2.93,3.47z"/>
    </g>
    <g>
     <path class="fil37" d="M174.76 269.79l-11.88 0.44c-1.6,-0.01 -2.98,-2.11 -2.97,-4.04l0.04 -5.16c0.02,-1.93 1.48,-4.13 3.08,-4.12l11.83 -0.09c1.6,0.01 2.89,1.59 2.88,3.52l-0.04 5.98c-0.02,1.93 -1.33,3.48 -2.93,3.47z"/>
    </g>
    <g>
     <path class="fil37" d="M196.98 269.95l-11.88 0.43c-1.6,-0.01 -2.98,-2.11 -2.97,-4.04l0.04 -5.16c0.01,-1.93 1.48,-4.13 3.07,-4.12l11.83 -0.09c1.6,0.01 2.89,1.59 2.87,3.52l-0.04 5.98c-0.01,1.93 -1.32,3.48 -2.93,3.47z"/>
    </g>
    <g>
     <path class="fil38" d="M152.21 291.02l-12.19 0.46c-1.64,-0.01 -3.06,-2.2 -3.05,-4.21l0.04 -5.37c0.02,-2.01 1.52,-4.3 3.16,-4.29l12.13 -0.1c1.65,0.01 2.96,1.65 2.95,3.67l-0.04 6.23c-0.02,2.01 -1.36,3.63 -3,3.62z"/>
    </g>
    <g>
     <path class="fil38" d="M175.42 290.75l-12.19 0.45c-1.64,-0.01 -3.06,-2.19 -3.05,-4.2l0.04 -5.38c0.02,-2.01 1.52,-4.3 3.16,-4.29l12.13 -0.09c1.65,0.01 2.96,1.65 2.95,3.66l-0.04 6.23c-0.02,2.01 -1.36,3.63 -3,3.62z"/>
    </g>
    <g>
     <path class="fil38" d="M197.41 290.91l-12.19 0.45c-1.64,-0.01 -3.06,-2.19 -3.04,-4.2l0.04 -5.38c0.01,-2.01 1.51,-4.3 3.16,-4.29l12.13 -0.1c1.64,0.01 2.96,1.65 2.95,3.66l-0.05 6.24c-0.01,2.01 -1.35,3.63 -3,3.62z"/>
    </g>
    <g>
     <path class="fil37" d="M151.48 290.03l-11.88 0.43c-1.6,-0.01 -2.98,-2.11 -2.97,-4.04l0.04 -5.16c0.02,-1.93 1.48,-4.13 3.08,-4.12l11.83 -0.09c1.6,0.01 2.89,1.59 2.87,3.52l-0.04 5.98c-0.02,1.93 -1.32,3.48 -2.93,3.47z"/>
    </g>
    <g>
     <path class="fil37" d="M174.61 290.2l-11.88 0.44c-1.6,-0.01 -2.98,-2.11 -2.97,-4.04l0.04 -5.16c0.01,-1.93 1.48,-4.13 3.07,-4.12l11.83 -0.09c1.6,0.01 2.89,1.59 2.87,3.52l-0.04 5.98c-0.01,1.93 -1.32,3.48 -2.93,3.47z"/>
    </g>
    <g>
     <path class="fil37" d="M196.83 290.36l-11.88 0.43c-1.6,-0.01 -2.98,-2.11 -2.97,-4.04l0.04 -5.16c0.02,-1.93 1.48,-4.13 3.08,-4.12l11.83 -0.09c1.6,0.01 2.89,1.59 2.87,3.52l-0.04 5.98c-0.02,1.93 -1.32,3.48 -2.93,3.47z"/>
    </g>
    <g>
     <path class="fil38" d="M218.93 291.73l-9.42 -0.07c-1.61,-0.01 -2.9,-1.32 -2.89,-2.93l0.2 -27.19c0.01,-1.61 1.32,-2.9 2.93,-2.89l9.42 0.07c1.61,0.01 2.91,1.32 2.89,2.93l-0.2 27.19c-0.01,1.61 -1.33,2.9 -2.93,2.89z"/>
    </g>
    <g>
     <path class="fil37" d="M217.99 290.62l-10.32 -0.07c-1.63,-0.01 -2.94,-1.34 -2.93,-2.98l0.19 -26c0.01,-1.63 1.34,-2.94 2.98,-2.93l10.32 0.07c1.63,0.01 2.94,1.35 2.93,2.98l-0.19 26c-0.01,1.63 -1.35,2.94 -2.98,2.93z"/>
    </g>
    <g>
     <path class="fil38" d="M146.64 203.34c-0.52,-0 -0.92,0.19 -1.2,0.56 -0.28,0.38 -0.43,0.91 -0.43,1.61 -0.01,0.7 0.15,1.24 0.45,1.62 0.31,0.38 0.72,0.57 1.24,0.57 0.28,0 0.52,-0.04 0.71,-0.13 0.19,-0.09 0.38,-0.19 0.56,-0.3 0.11,0.11 0.2,0.25 0.27,0.41 0.06,0.16 0.09,0.34 0.09,0.55 0,0.33 -0.16,0.61 -0.47,0.84 -0.31,0.23 -0.78,0.34 -1.41,0.33 -0.45,-0 -0.88,-0.08 -1.28,-0.24 -0.4,-0.15 -0.74,-0.39 -1.04,-0.71 -0.3,-0.32 -0.53,-0.72 -0.7,-1.22 -0.17,-0.49 -0.25,-1.07 -0.25,-1.75 0,-0.63 0.09,-1.18 0.26,-1.66 0.17,-0.48 0.4,-0.88 0.69,-1.21 0.29,-0.33 0.63,-0.57 1.02,-0.74 0.39,-0.17 0.8,-0.25 1.24,-0.24 0.62,0 1.11,0.13 1.44,0.37 0.34,0.24 0.51,0.56 0.51,0.93 0,0.21 -0.05,0.39 -0.14,0.54 -0.09,0.15 -0.19,0.27 -0.31,0.36 -0.17,-0.14 -0.36,-0.26 -0.56,-0.35 -0.2,-0.1 -0.43,-0.15 -0.7,-0.15z"/>
    </g>
    <g>
     <path class="fil38" d="M168.57 203.95c-0,0.69 -0.18,1.23 -0.54,1.62 -0.35,0.39 -0.81,0.58 -1.36,0.57 -0.56,-0 -1.01,-0.2 -1.36,-0.59 -0.34,-0.39 -0.51,-0.93 -0.51,-1.63 0.01,-0.69 0.19,-1.22 0.53,-1.61 0.35,-0.39 0.81,-0.58 1.37,-0.57 0.55,0 1,0.2 1.35,0.59 0.35,0.39 0.52,0.93 0.51,1.61zm-2.35 -0.02l0 0c0,0.28 0.04,0.48 0.13,0.62 0.09,0.13 0.2,0.2 0.33,0.2 0.13,0 0.24,-0.06 0.33,-0.2 0.09,-0.13 0.14,-0.34 0.14,-0.62 0,-0.27 -0.04,-0.47 -0.13,-0.6 -0.09,-0.13 -0.2,-0.2 -0.33,-0.2 -0.13,0 -0.24,0.06 -0.33,0.19 -0.09,0.13 -0.13,0.33 -0.14,0.59zm4.55 -2.17l0 0c0.26,0.05 0.5,0.13 0.7,0.26 0.2,0.13 0.31,0.3 0.33,0.51 0,0.15 -0.03,0.3 -0.09,0.46 -0.06,0.16 -0.15,0.32 -0.25,0.48l-4.09 6.93c-0.25,-0.05 -0.46,-0.13 -0.62,-0.26 -0.17,-0.13 -0.26,-0.3 -0.27,-0.51 0,-0.15 0.01,-0.3 0.03,-0.44 0.02,-0.15 0.08,-0.31 0.19,-0.49l4.08 -6.94zm2.66 6.49l0 0c-0,0.7 -0.19,1.24 -0.54,1.62 -0.35,0.39 -0.8,0.58 -1.36,0.57 -0.56,-0 -1.01,-0.2 -1.35,-0.59 -0.34,-0.39 -0.51,-0.93 -0.51,-1.63 0,-0.69 0.18,-1.22 0.53,-1.61 0.35,-0.39 0.8,-0.57 1.37,-0.57 0.55,0 1,0.2 1.35,0.59 0.35,0.39 0.52,0.93 0.52,1.61zm-2.35 -0.02l0 0c-0,0.28 0.04,0.48 0.13,0.62 0.09,0.13 0.2,0.2 0.33,0.2 0.13,0 0.24,-0.07 0.33,-0.2 0.09,-0.13 0.14,-0.34 0.14,-0.61 0,-0.27 -0.04,-0.47 -0.13,-0.6 -0.09,-0.13 -0.2,-0.2 -0.33,-0.2 -0.13,0 -0.24,0.06 -0.33,0.19 -0.09,0.13 -0.14,0.33 -0.14,0.59z"/>
    </g>
    <g>
     <path class="fil38" d="M211.84 247.06c-0.05,-0.09 -0.09,-0.22 -0.14,-0.39 -0.05,-0.16 -0.07,-0.33 -0.07,-0.52 0,-0.34 0.07,-0.59 0.2,-0.73 0.13,-0.15 0.3,-0.22 0.5,-0.22l5.02 0.04c0.04,0.09 0.08,0.22 0.14,0.39 0.05,0.16 0.08,0.33 0.07,0.52 0,0.34 -0.07,0.59 -0.2,0.73 -0.13,0.15 -0.31,0.22 -0.52,0.22l-5.02 -0.04z"/>
    </g>
    <g>
     <path class="fil38" d="M211.75 222.29c0.06,-0.35 0.19,-0.64 0.37,-0.86 0.19,-0.22 0.41,-0.33 0.69,-0.33 0.26,0 0.45,0.08 0.59,0.23 0.14,0.15 0.29,0.36 0.46,0.63l0.74 1.17 1.26 -2c0.43,0 0.76,0.09 1.01,0.28 0.25,0.18 0.37,0.43 0.37,0.73 0,0.12 -0.02,0.23 -0.04,0.33 -0.03,0.1 -0.07,0.2 -0.13,0.3 -0.06,0.1 -0.13,0.22 -0.21,0.35 -0.09,0.13 -0.19,0.28 -0.31,0.45l-0.78 1.02 1.51 2.41c-0.04,0.35 -0.16,0.63 -0.36,0.83 -0.2,0.2 -0.43,0.3 -0.7,0.3 -0.3,-0.01 -0.53,-0.11 -0.7,-0.31 -0.17,-0.2 -0.34,-0.43 -0.5,-0.71l-0.62 -1.07 -1.2 2.03c-0.04,0 -0.08,0 -0.13,0 -0.05,0 -0.09,0.01 -0.11,0.01 -0.4,-0 -0.7,-0.1 -0.91,-0.3 -0.2,-0.19 -0.31,-0.44 -0.3,-0.72 0,-0.22 0.05,-0.42 0.14,-0.59 0.09,-0.17 0.25,-0.41 0.47,-0.7l0.94 -1.28 -1.55 -2.19z"/>
    </g>
    <g>
     <path class="fil38" d="M188.19 283.29c-0.05,-0.1 -0.1,-0.24 -0.13,-0.41 -0.04,-0.17 -0.05,-0.33 -0.05,-0.5 0,-0.33 0.07,-0.57 0.19,-0.73 0.13,-0.15 0.3,-0.22 0.5,-0.22l4.09 0.03c0.04,0.11 0.08,0.25 0.12,0.41 0.04,0.16 0.06,0.33 0.06,0.51 -0,0.32 -0.07,0.56 -0.19,0.71 -0.13,0.15 -0.29,0.23 -0.49,0.22l-4.1 -0.03zm-0.02 2.76l0 0c-0.06,-0.1 -0.1,-0.24 -0.13,-0.4 -0.04,-0.17 -0.05,-0.33 -0.05,-0.5 0,-0.33 0.07,-0.57 0.19,-0.73 0.13,-0.15 0.3,-0.23 0.5,-0.22l4.09 0.03c0.04,0.11 0.08,0.25 0.12,0.41 0.04,0.16 0.06,0.33 0.06,0.5 -0,0.33 -0.07,0.56 -0.19,0.72 -0.13,0.15 -0.29,0.22 -0.49,0.22l-4.1 -0.03z"/>
    </g>
    <g>
     <path class="fil38" d="M168.92 284.8c0,-0.39 0.11,-0.71 0.31,-0.97 0.2,-0.26 0.48,-0.39 0.83,-0.39 0.35,0 0.63,0.13 0.83,0.4 0.2,0.26 0.3,0.58 0.3,0.97 -0,0.39 -0.11,0.71 -0.31,0.97 -0.2,0.26 -0.48,0.39 -0.83,0.39 -0.35,-0 -0.62,-0.14 -0.82,-0.4 -0.2,-0.26 -0.3,-0.58 -0.3,-0.97z"/>
    </g>
    <g>
     <path class="fil38" d="M148.3 283.73c-0,0.65 -0.08,1.22 -0.22,1.72 -0.15,0.5 -0.35,0.93 -0.6,1.26 -0.25,0.34 -0.56,0.59 -0.91,0.77 -0.35,0.17 -0.73,0.26 -1.14,0.26 -0.42,-0 -0.8,-0.09 -1.15,-0.27 -0.35,-0.18 -0.65,-0.44 -0.89,-0.78 -0.25,-0.34 -0.44,-0.76 -0.57,-1.27 -0.13,-0.5 -0.2,-1.08 -0.19,-1.72 0,-0.65 0.07,-1.22 0.22,-1.72 0.14,-0.5 0.34,-0.92 0.59,-1.25 0.25,-0.34 0.56,-0.59 0.91,-0.77 0.35,-0.17 0.73,-0.26 1.15,-0.26 0.41,0 0.79,0.09 1.13,0.27 0.35,0.18 0.65,0.44 0.89,0.78 0.25,0.34 0.44,0.76 0.58,1.26 0.14,0.5 0.2,1.07 0.2,1.72zm-1.81 -0.01l0 0c0,-0.74 -0.08,-1.31 -0.26,-1.71 -0.18,-0.41 -0.43,-0.61 -0.76,-0.61 -0.33,-0 -0.59,0.2 -0.76,0.6 -0.18,0.4 -0.27,0.97 -0.27,1.71 -0,0.74 0.07,1.31 0.25,1.72 0.17,0.41 0.42,0.61 0.75,0.61 0.33,0 0.59,-0.2 0.77,-0.61 0.19,-0.41 0.28,-0.98 0.28,-1.71z"/>
    </g>
    <g>
     <path class="fil38" d="M145.29 261.79l-1.11 0.4c-0.11,-0.09 -0.22,-0.21 -0.33,-0.37 -0.11,-0.16 -0.16,-0.38 -0.16,-0.66 0,-0.53 0.28,-0.89 0.81,-1.1l1.24 -0.49 0.41 0c0.31,0 0.57,0.11 0.75,0.33 0.18,0.22 0.27,0.52 0.27,0.89l-0.05 6.84c-0.08,0.02 -0.2,0.04 -0.36,0.07 -0.16,0.03 -0.32,0.04 -0.48,0.04 -0.16,-0 -0.31,-0.02 -0.43,-0.04 -0.13,-0.03 -0.24,-0.08 -0.33,-0.16 -0.09,-0.08 -0.15,-0.19 -0.2,-0.32 -0.05,-0.13 -0.07,-0.31 -0.07,-0.53l0.04 -4.91z"/>
    </g>
    <g>
     <path class="fil38" d="M168.34 259.71c0.4,0 0.76,0.07 1.07,0.19 0.31,0.12 0.57,0.29 0.79,0.5 0.22,0.21 0.38,0.46 0.49,0.75 0.11,0.28 0.17,0.59 0.16,0.92 -0,0.88 -0.43,1.72 -1.28,2.51l-1.39 1.31 2.54 0.02c0.04,0.09 0.08,0.21 0.12,0.35 0.04,0.15 0.06,0.3 0.06,0.47 -0,0.3 -0.06,0.52 -0.17,0.65 -0.11,0.13 -0.26,0.19 -0.45,0.19l-3.67 -0.02c-0.15,-0.13 -0.28,-0.29 -0.36,-0.49 -0.09,-0.2 -0.13,-0.43 -0.13,-0.7 0,-0.29 0.06,-0.53 0.15,-0.72 0.1,-0.2 0.21,-0.35 0.33,-0.47l1.47 -1.47c0.18,-0.19 0.33,-0.35 0.46,-0.5 0.12,-0.15 0.22,-0.28 0.3,-0.39 0.07,-0.12 0.13,-0.22 0.16,-0.33 0.03,-0.1 0.05,-0.2 0.05,-0.29 0,-0.24 -0.08,-0.42 -0.26,-0.56 -0.17,-0.13 -0.38,-0.2 -0.64,-0.2 -0.28,-0 -0.54,0.05 -0.76,0.15 -0.22,0.1 -0.41,0.21 -0.56,0.33 -0.12,-0.1 -0.22,-0.23 -0.29,-0.38 -0.08,-0.15 -0.11,-0.33 -0.11,-0.53 0,-0.44 0.18,-0.76 0.52,-0.97 0.35,-0.21 0.81,-0.31 1.4,-0.31z"/>
    </g>
    <g>
     <path class="fil38" d="M190.86 259.88c0.81,0 1.43,0.21 1.85,0.61 0.42,0.4 0.63,0.94 0.62,1.61 0,0.41 -0.09,0.74 -0.28,1.02 -0.18,0.28 -0.4,0.49 -0.65,0.63 0.15,0.07 0.28,0.15 0.41,0.26 0.13,0.1 0.24,0.23 0.34,0.38 0.1,0.15 0.17,0.33 0.23,0.53 0.06,0.2 0.08,0.44 0.08,0.7 -0,0.36 -0.07,0.69 -0.2,0.97 -0.13,0.28 -0.32,0.52 -0.55,0.72 -0.24,0.2 -0.51,0.35 -0.83,0.45 -0.32,0.1 -0.67,0.15 -1.05,0.15 -0.74,-0 -1.29,-0.13 -1.66,-0.37 -0.37,-0.25 -0.56,-0.56 -0.56,-0.94 0,-0.22 0.05,-0.42 0.14,-0.58 0.09,-0.17 0.2,-0.29 0.34,-0.38 0.14,0.12 0.33,0.24 0.56,0.37 0.23,0.13 0.54,0.2 0.92,0.2 0.36,0 0.63,-0.07 0.8,-0.22 0.17,-0.15 0.26,-0.34 0.26,-0.59 0,-0.24 -0.06,-0.43 -0.2,-0.56 -0.14,-0.13 -0.37,-0.19 -0.71,-0.19l-0.99 -0.01c-0.05,-0.09 -0.09,-0.21 -0.13,-0.34 -0.04,-0.13 -0.05,-0.29 -0.05,-0.48 0,-0.19 0.02,-0.36 0.05,-0.5 0.04,-0.14 0.08,-0.26 0.14,-0.35l0.99 0.01c0.51,0 0.76,-0.22 0.77,-0.69 0,-0.22 -0.08,-0.4 -0.24,-0.53 -0.16,-0.13 -0.41,-0.2 -0.73,-0.21 -0.29,0 -0.54,0.04 -0.76,0.11 -0.22,0.08 -0.4,0.18 -0.54,0.3 -0.12,-0.1 -0.22,-0.23 -0.3,-0.37 -0.07,-0.15 -0.11,-0.32 -0.11,-0.52 0,-0.42 0.19,-0.72 0.56,-0.92 0.37,-0.19 0.86,-0.29 1.47,-0.28z"/>
    </g>
    <g>
     <path class="fil38" d="M145.59 241.63c0.13,-0.05 0.29,-0.09 0.46,-0.12 0.17,-0.03 0.33,-0.05 0.47,-0.05 0.16,0 0.32,0.02 0.47,0.06 0.15,0.04 0.29,0.1 0.41,0.19 0.12,0.09 0.21,0.21 0.28,0.36 0.07,0.15 0.1,0.34 0.1,0.57l-0.02 3.35 0.94 0c0.04,0.09 0.08,0.22 0.12,0.37 0.04,0.15 0.06,0.31 0.06,0.48 -0,0.32 -0.07,0.54 -0.19,0.68 -0.12,0.13 -0.28,0.2 -0.46,0.2l-0.5 -0 -0.01 1.48c-0.08,0.02 -0.2,0.04 -0.35,0.07 -0.15,0.03 -0.3,0.04 -0.44,0.04 -0.15,-0 -0.29,-0.01 -0.41,-0.03 -0.12,-0.02 -0.22,-0.06 -0.3,-0.12 -0.08,-0.07 -0.14,-0.16 -0.18,-0.27 -0.04,-0.12 -0.06,-0.28 -0.06,-0.48l0.01 -0.7 -2.66 -0.02c-0.16,-0.1 -0.3,-0.25 -0.41,-0.45 -0.11,-0.2 -0.17,-0.44 -0.17,-0.72 0,-0.16 0.02,-0.33 0.06,-0.53 0.04,-0.19 0.1,-0.36 0.19,-0.5l2.6 -3.84zm0.52 1.98l0 0 -0.03 0 -1.42 2.35 1.44 0.01 0.02 -2.37z"/>
    </g>
    <g>
     <path class="fil38" d="M168.51 249.56c-0.32,-0 -0.62,-0.04 -0.88,-0.09 -0.26,-0.06 -0.49,-0.15 -0.68,-0.27 -0.19,-0.12 -0.34,-0.26 -0.44,-0.44 -0.1,-0.17 -0.15,-0.37 -0.15,-0.6 0,-0.23 0.06,-0.43 0.17,-0.59 0.11,-0.16 0.24,-0.28 0.39,-0.37 0.2,0.18 0.41,0.33 0.63,0.46 0.22,0.13 0.51,0.2 0.85,0.2 0.33,0 0.57,-0.08 0.71,-0.26 0.14,-0.17 0.21,-0.39 0.22,-0.64 0,-0.24 -0.06,-0.44 -0.18,-0.61 -0.12,-0.16 -0.33,-0.24 -0.64,-0.24 -0.19,0 -0.35,0.02 -0.48,0.07 -0.13,0.05 -0.28,0.12 -0.44,0.21 -0.35,-0.02 -0.62,-0.13 -0.81,-0.34 -0.2,-0.21 -0.3,-0.52 -0.3,-0.95 0,-0.02 0,-0.06 0,-0.09 0,-0.04 0,-0.11 0.01,-0.23l0.14 -1.91c0.02,-0.36 0.12,-0.65 0.29,-0.85 0.17,-0.21 0.41,-0.31 0.71,-0.31l3.05 0.02c0.04,0.09 0.08,0.21 0.13,0.37 0.04,0.15 0.06,0.31 0.06,0.48 -0,0.32 -0.06,0.55 -0.19,0.68 -0.12,0.13 -0.27,0.2 -0.46,0.2l-2.03 -0.02 -0.08 1.18c0.13,-0.04 0.27,-0.07 0.41,-0.11 0.14,-0.03 0.31,-0.05 0.52,-0.04 0.37,0 0.69,0.07 0.95,0.2 0.27,0.13 0.49,0.31 0.66,0.54 0.17,0.23 0.3,0.49 0.38,0.8 0.08,0.3 0.11,0.63 0.11,0.97 -0,0.34 -0.06,0.67 -0.16,0.99 -0.1,0.32 -0.26,0.59 -0.47,0.83 -0.22,0.24 -0.48,0.43 -0.81,0.57 -0.33,0.14 -0.72,0.21 -1.19,0.2z"/>
    </g>
    <g>
     <path class="fil38" d="M193.03 242.82c-0,0.18 -0.04,0.35 -0.11,0.51 -0.07,0.16 -0.15,0.28 -0.24,0.37 -0.19,-0.1 -0.39,-0.18 -0.59,-0.24 -0.21,-0.06 -0.4,-0.08 -0.58,-0.09 -0.42,0 -0.75,0.13 -0.98,0.39 -0.23,0.26 -0.39,0.64 -0.47,1.14 0.14,-0.12 0.33,-0.22 0.56,-0.32 0.24,-0.09 0.47,-0.14 0.72,-0.14 0.65,0 1.17,0.23 1.55,0.68 0.38,0.44 0.57,1.09 0.56,1.91 0,0.36 -0.06,0.7 -0.17,1.03 -0.11,0.33 -0.27,0.61 -0.48,0.86 -0.21,0.25 -0.48,0.44 -0.79,0.59 -0.31,0.15 -0.68,0.22 -1.1,0.21 -0.83,-0.01 -1.48,-0.34 -1.95,-1.01 -0.47,-0.67 -0.7,-1.61 -0.7,-2.83 0.01,-0.7 0.08,-1.31 0.23,-1.83 0.15,-0.53 0.35,-0.97 0.62,-1.32 0.27,-0.35 0.59,-0.61 0.95,-0.78 0.37,-0.17 0.78,-0.26 1.22,-0.26 0.57,0 1,0.1 1.3,0.28 0.3,0.19 0.44,0.47 0.44,0.85zm-2.1 3.26l0 0c-0.13,0 -0.28,0.03 -0.43,0.1 -0.15,0.07 -0.28,0.16 -0.37,0.28l-0 0.31c0,0.46 0.07,0.78 0.23,0.97 0.16,0.19 0.35,0.29 0.57,0.29 0.23,0 0.41,-0.09 0.52,-0.27 0.12,-0.18 0.18,-0.42 0.18,-0.72 0,-0.29 -0.06,-0.52 -0.18,-0.7 -0.12,-0.17 -0.3,-0.26 -0.53,-0.26z"/>
    </g>
    <g>
     <path class="fil38" d="M190.28 226.94c0.45,0 0.81,-0.13 1.09,-0.41 0.27,-0.28 0.41,-0.65 0.41,-1.14 -0.08,0.07 -0.22,0.16 -0.43,0.26 -0.21,0.1 -0.48,0.15 -0.8,0.15 -0.32,0 -0.62,-0.06 -0.88,-0.17 -0.26,-0.11 -0.49,-0.27 -0.68,-0.49 -0.19,-0.22 -0.34,-0.48 -0.44,-0.79 -0.1,-0.31 -0.15,-0.67 -0.15,-1.08 0,-0.36 0.06,-0.7 0.17,-1.02 0.11,-0.32 0.27,-0.61 0.48,-0.85 0.22,-0.25 0.48,-0.44 0.8,-0.59 0.31,-0.15 0.68,-0.22 1.09,-0.21 0.83,0.01 1.48,0.34 1.96,1.01 0.47,0.67 0.7,1.61 0.69,2.83 -0,0.7 -0.08,1.31 -0.24,1.83 -0.15,0.53 -0.36,0.97 -0.63,1.32 -0.26,0.35 -0.58,0.61 -0.95,0.78 -0.37,0.17 -0.78,0.26 -1.22,0.26 -0.56,-0 -1,-0.1 -1.32,-0.29 -0.31,-0.19 -0.47,-0.47 -0.47,-0.85 0,-0.17 0.04,-0.34 0.11,-0.51 0.07,-0.16 0.15,-0.28 0.24,-0.37 0.19,0.1 0.39,0.18 0.59,0.24 0.21,0.06 0.4,0.08 0.58,0.09zm0.7 -2.75l0 0c0.13,0 0.27,-0.03 0.41,-0.1 0.14,-0.07 0.26,-0.16 0.35,-0.27l0 -0.15c-0,-0.48 -0.07,-0.83 -0.2,-1.04 -0.13,-0.22 -0.33,-0.33 -0.59,-0.33 -0.23,-0 -0.42,0.08 -0.55,0.25 -0.13,0.17 -0.2,0.4 -0.2,0.7 -0,0.28 0.07,0.52 0.22,0.69 0.15,0.17 0.34,0.26 0.57,0.26z"/>
    </g>
    <g>
     <path class="fil38" d="M166.59 222.67c0,-0.34 0.07,-0.64 0.19,-0.92 0.12,-0.28 0.29,-0.52 0.5,-0.72 0.21,-0.2 0.47,-0.35 0.77,-0.46 0.3,-0.11 0.62,-0.16 0.97,-0.16 0.35,0 0.68,0.06 0.97,0.16 0.3,0.1 0.55,0.25 0.76,0.43 0.21,0.19 0.37,0.41 0.49,0.68 0.12,0.27 0.17,0.57 0.17,0.91 -0,0.37 -0.07,0.69 -0.2,0.96 -0.13,0.28 -0.3,0.51 -0.53,0.69 0.27,0.22 0.48,0.48 0.65,0.78 0.17,0.3 0.25,0.7 0.24,1.2 0,0.34 -0.06,0.64 -0.19,0.92 -0.12,0.28 -0.3,0.52 -0.52,0.72 -0.23,0.2 -0.5,0.35 -0.82,0.46 -0.31,0.11 -0.67,0.16 -1.07,0.16 -0.4,-0 -0.75,-0.06 -1.07,-0.17 -0.32,-0.11 -0.59,-0.27 -0.81,-0.47 -0.22,-0.2 -0.39,-0.44 -0.51,-0.72 -0.12,-0.28 -0.18,-0.59 -0.18,-0.92 0,-0.45 0.09,-0.83 0.26,-1.13 0.17,-0.3 0.36,-0.54 0.59,-0.7 -0.19,-0.19 -0.35,-0.41 -0.48,-0.67 -0.13,-0.26 -0.2,-0.6 -0.2,-1.04zm1.64 3.35l0 0c0,0.26 0.07,0.47 0.21,0.62 0.14,0.15 0.33,0.23 0.56,0.23 0.22,0 0.41,-0.07 0.56,-0.23 0.15,-0.15 0.22,-0.36 0.22,-0.61 0,-0.24 -0.06,-0.44 -0.18,-0.61 -0.12,-0.17 -0.29,-0.3 -0.5,-0.39 -0.31,0.08 -0.53,0.2 -0.66,0.38 -0.13,0.17 -0.2,0.37 -0.2,0.61zm1.42 -3.26l0 0c0,-0.22 -0.06,-0.41 -0.17,-0.54 -0.11,-0.14 -0.27,-0.2 -0.48,-0.2 -0.2,-0 -0.36,0.06 -0.48,0.2 -0.11,0.13 -0.17,0.31 -0.17,0.53 0,0.22 0.06,0.39 0.17,0.53 0.12,0.14 0.25,0.24 0.41,0.33 0.25,-0.07 0.43,-0.17 0.54,-0.32 0.11,-0.15 0.17,-0.32 0.17,-0.52z"/>
    </g>
    <g>
     <path class="fil38" d="M147.24 220.46c0.12,0.09 0.23,0.22 0.32,0.39 0.09,0.17 0.14,0.37 0.14,0.61 -0,0.13 -0.02,0.27 -0.04,0.41 -0.02,0.14 -0.06,0.28 -0.11,0.41l-2.24 5.91c-0.1,0.01 -0.19,0.01 -0.28,0.01 -0.09,0 -0.17,0 -0.25,0 -0.31,-0 -0.57,-0.07 -0.77,-0.22 -0.2,-0.15 -0.3,-0.39 -0.29,-0.74 0,-0.18 0.04,-0.37 0.11,-0.57 0.07,-0.2 0.17,-0.45 0.29,-0.74l1.57 -3.75 -2.59 -0.02c-0.04,-0.09 -0.08,-0.21 -0.12,-0.37 -0.04,-0.15 -0.06,-0.31 -0.06,-0.48 0,-0.32 0.06,-0.55 0.18,-0.68 0.12,-0.13 0.28,-0.2 0.46,-0.2l3.68 0.03z"/>
    </g>
    <g>
     <path class="fil38" d="M214.43 279.05c-0.07,0.04 -0.21,0.08 -0.41,0.11 -0.2,0.02 -0.39,0.04 -0.57,0.04 -0.37,-0 -0.66,-0.08 -0.85,-0.23 -0.19,-0.15 -0.29,-0.46 -0.28,-0.94l0.01 -1.8 -2.08 -0.02c-0.06,-0.12 -0.11,-0.28 -0.15,-0.48 -0.04,-0.2 -0.06,-0.39 -0.06,-0.59 0,-0.39 0.08,-0.68 0.23,-0.86 0.15,-0.18 0.35,-0.27 0.59,-0.26l1.48 0.01 0.02 -2.75c0.09,-0.03 0.23,-0.06 0.42,-0.1 0.19,-0.04 0.37,-0.06 0.56,-0.05 0.37,0 0.65,0.08 0.85,0.23 0.2,0.16 0.29,0.48 0.29,0.97l-0.01 1.72 2.04 0.02c0.04,0.13 0.09,0.29 0.14,0.48 0.05,0.19 0.07,0.39 0.07,0.6 -0,0.38 -0.08,0.66 -0.23,0.84 -0.15,0.18 -0.34,0.27 -0.58,0.26l-1.46 -0.01 -0.02 2.81z"/>
    </g>
    <g>
     <path class="fil38" d="M219.34 205.6c0.08,0.25 0.11,0.5 0.09,0.74 -0.02,0.24 -0.13,0.42 -0.32,0.54 -0.14,0.07 -0.3,0.12 -0.48,0.15 -0.18,0.02 -0.37,0.03 -0.57,0.02l-8.44 -0.09c-0.07,-0.24 -0.09,-0.46 -0.05,-0.67 0.04,-0.21 0.15,-0.37 0.35,-0.49 0.14,-0.07 0.28,-0.13 0.43,-0.19 0.15,-0.06 0.33,-0.08 0.55,-0.09l8.45 0.08zm-4.83 5.57l0 0c-0.65,0.35 -1.24,0.46 -1.78,0.35 -0.53,-0.11 -0.93,-0.41 -1.19,-0.9 -0.26,-0.49 -0.29,-0.98 -0.09,-1.48 0.2,-0.5 0.63,-0.91 1.29,-1.26 0.65,-0.34 1.23,-0.45 1.76,-0.34 0.53,0.11 0.93,0.41 1.19,0.91 0.26,0.48 0.29,0.97 0.09,1.47 -0.2,0.5 -0.63,0.92 -1.27,1.26zm-1.1 -2.05l0 0c-0.26,0.13 -0.44,0.28 -0.52,0.42 -0.08,0.15 -0.09,0.28 -0.04,0.39 0.06,0.12 0.18,0.18 0.35,0.19 0.17,0.01 0.39,-0.05 0.65,-0.19 0.25,-0.13 0.42,-0.27 0.5,-0.41 0.08,-0.14 0.09,-0.27 0.03,-0.39 -0.06,-0.12 -0.18,-0.18 -0.34,-0.2 -0.17,-0.01 -0.37,0.05 -0.63,0.18zm2.82 -4.34l0 0c-0.65,0.34 -1.25,0.46 -1.78,0.34 -0.53,-0.11 -0.93,-0.41 -1.19,-0.9 -0.26,-0.49 -0.29,-0.98 -0.09,-1.48 0.2,-0.5 0.63,-0.91 1.29,-1.26 0.64,-0.34 1.23,-0.46 1.76,-0.34 0.53,0.11 0.92,0.41 1.19,0.9 0.26,0.48 0.29,0.97 0.09,1.47 -0.2,0.5 -0.63,0.92 -1.27,1.26zm-1.1 -2.06l0 0c-0.26,0.14 -0.44,0.28 -0.52,0.42 -0.09,0.15 -0.1,0.28 -0.04,0.39 0.06,0.11 0.18,0.18 0.35,0.19 0.17,0.01 0.38,-0.05 0.65,-0.19 0.25,-0.13 0.42,-0.27 0.5,-0.41 0.08,-0.14 0.09,-0.27 0.03,-0.39 -0.06,-0.11 -0.18,-0.18 -0.34,-0.2 -0.17,-0.01 -0.37,0.05 -0.63,0.18z"/>
    </g>
    <g>
     <path class="fil38" d="M189.34 208.87c-0.06,0.04 -0.16,0.06 -0.31,0.08 -0.15,0.02 -0.3,0.03 -0.44,0.03 -0.29,-0 -0.51,-0.06 -0.66,-0.18 -0.15,-0.11 -0.22,-0.35 -0.22,-0.72l0.01 -1.38 -1.6 -0.01c-0.05,-0.09 -0.09,-0.21 -0.12,-0.37 -0.03,-0.15 -0.05,-0.3 -0.04,-0.45 0,-0.3 0.06,-0.52 0.17,-0.66 0.11,-0.14 0.26,-0.21 0.46,-0.2l1.14 0.01 0.02 -2.11c0.07,-0.02 0.18,-0.05 0.32,-0.08 0.15,-0.03 0.29,-0.04 0.43,-0.04 0.28,0 0.5,0.06 0.65,0.18 0.15,0.12 0.22,0.37 0.22,0.74l-0.01 1.32 1.56 0.01c0.04,0.1 0.07,0.22 0.11,0.37 0.04,0.15 0.06,0.3 0.06,0.46 -0,0.29 -0.06,0.51 -0.18,0.65 -0.11,0.14 -0.26,0.2 -0.44,0.2l-1.12 -0.01 -0.02 2.16z"/>
     <path class="fil38" d="M192.86 210.86c-0.1,0.02 -0.19,0.03 -0.29,0.03 -0.09,0 -0.17,0 -0.25,0 -0.3,-0 -0.52,-0.08 -0.68,-0.23 -0.16,-0.15 -0.24,-0.39 -0.23,-0.73 0,-0.22 0.03,-0.45 0.09,-0.69 0.06,-0.23 0.11,-0.43 0.15,-0.61l1.92 -7.98c0.11,-0.02 0.2,-0.02 0.3,-0.03 0.09,-0 0.18,-0 0.26,-0 0.28,0 0.5,0.07 0.67,0.22 0.17,0.15 0.24,0.38 0.24,0.7 -0,0.24 -0.03,0.47 -0.09,0.69 -0.06,0.22 -0.11,0.44 -0.17,0.65l-1.92 7.97z"/>
     <path class="fil38" d="M195.55 207.21c-0.05,-0.09 -0.09,-0.21 -0.13,-0.37 -0.04,-0.15 -0.06,-0.31 -0.06,-0.48 0,-0.31 0.07,-0.54 0.19,-0.67 0.12,-0.14 0.28,-0.2 0.47,-0.2l2.26 0.02c0.04,0.09 0.08,0.21 0.13,0.36 0.04,0.15 0.07,0.31 0.06,0.48 0,0.31 -0.06,0.54 -0.19,0.67 -0.12,0.14 -0.28,0.2 -0.46,0.2l-2.26 -0.02z"/>
    </g>
   </g>
   <path class="fil39" d="M76.36 129.15c-4.3,0.04 -8.23,0.11 -12.53,-0.21 0.85,-1.06 5.94,-0.72 12.53,0.21z"/>
   <path class="fil39" d="M280.35 125.05c-0.03,0.01 -0.06,0.02 -0.09,0.04 -11.89,5.06 -19.13,7.35 -23.45,9.55 -2.34,1.2 -3.5,3.86 -4.06,7.31 -27.39,8.78 -56.5,16.91 -65.88,16.98 -9.78,0.08 -41.46,-7.7 -70.58,-15.38 -0.91,-3.26 -2.5,-6.38 -4.39,-8.58 0.49,-0.03 0.63,-0.15 0.33,-0.39l0.41 -0.96 68.82 9.72 75.5 -12.45 0.99 0.13c-2.93,1.2 9.58,-2.79 22.39,-5.96z"/>
   <g>
    <path class="fil35" d="M322.78 112.47c0,0 5.27,4.52 -10.22,8.89 -7.37,2.08 -103.58,31.8 -127.84,31.46 -24.26,-0.33 -136.08,-24.2 -144.19,-30.1 -1.5,-1.09 -3.96,-5.57 4.97,-7.58 8.93,-2.02 277.29,-2.67 277.29,-2.67z"/>
    <path class="fil35" d="M322.63 112.47c-29.43,9.53 -121.77,35.26 -138.58,35.13 -18.4,-0.15 -145.89,-25.65 -144.48,-29.07 1.41,-3.43 6.57,-4.87 7.4,-5.43 4.71,-3.13 139.42,-29.51 139.42,-29.51l136.24 28.88z"/>
   </g>
   <g>
    <g>
     <path class="fil40" d="M300.21 182.71c0,0 2.01,3.69 2.75,3.48 0.74,-0.2 2.37,-1.2 3.46,-2.55 0.33,-0.42 0.84,-0.66 1.42,-0.81 0.89,-0.22 1.94,-0.22 2.8,-0.27 1.01,-0.07 1.76,-0.21 1.65,-0.91 -0.15,-0.98 -1.82,-1.76 2.09,-4.34 0.74,-0.49 -0.87,-1.66 -2.44,-1.96 -0.13,-0.02 -0.25,-0.04 -0.38,-0.06 -0.86,-0.09 -1.8,0.33 -2.63,0.9 -0.98,0.68 -1.81,1.58 -2.19,2.13 -0.78,1.16 -1.83,1.4 -3.33,2.2 -1.55,0.83 -2.13,1.42 -3.19,2.19z"/>
     <path class="fil41" d="M307.83 182.83c0.89,-0.22 1.94,-0.22 2.8,-0.27l1.3 -7.21c-0.13,-0.02 -0.25,-0.04 -0.38,-0.06 -0.86,-0.09 -1.8,0.33 -2.63,0.9 -0.37,2.57 -0.81,5.12 -1.08,6.64z"/>
     <path class="fil42" d="M303.84 284.37l-9.22 -1.28 -1.85 13.29c-0.31,2.23 1.25,4.3 3.48,4.61l1.14 0.16c2.23,0.31 4.29,-1.25 4.6,-3.48l1.85 -13.29z"/>
     <path class="fil43" d="M293.73 289.49l0.91 0.13 2.26 0.31 3.97 0.55 0.19 0.03 1.89 0.26 19.33 -139.2 -0.04 -0.26 -1.6 -9.76c-0.28,-1.67 -2.55,-1.99 -3.27,-0.45l-4.31 9.19 -0.06 0.42 -19.28 138.78z"/>
     <path class="fil40" d="M322.28 151.58l-1.69 -13.33c-0.15,-1.21 -1.81,-1.44 -2.28,-0.31l-5.25 12.36 -0.02 0.17c1.45,0.68 1.3,1.56 2.06,1.59 0.96,0.04 1.64,-2 2.68,-1.86 1.04,0.14 0.41,1.17 1.44,1.32 1.04,0.14 1.12,-0.5 1.76,-0.41 0.63,0.09 -0.14,0.29 1.3,0.48z"/>
     <path class="fil44" d="M320.96 141.14l-0.6 -4.76c-0.09,-0.69 -1.04,-0.83 -1.31,-0.18l-1.87 4.41c-0.02,0.06 -0,0.13 0.06,0.17 0.98,0.63 1.37,-0.28 2.09,-0.1 0.34,0.08 0.91,0.33 1.45,0.6 0.09,0.05 0.2,-0.03 0.19,-0.13z"/>
     <path class="fil45" d="M300.87 290.48l0.19 0.03 1.89 0.26 19.33 -139.2 -1.3 -0.47c-3.5,15 -10.52,71.51 -12.98,89.28 -1.94,14.07 -5.26,34.43 -7.13,50.11z"/>
    </g>
    <g>
     <path class="fil40" d="M262.52 182.06c0.55,1.81 0.54,6.71 1.52,8.54l4.67 -0.96c0,0 4.52,-0.99 3.36,-1.6 -1.54,-0.81 -0.9,-0.37 -1.65,-1.03 -0.46,-0.41 -1.04,-1.28 -1.61,-2.26 -0.77,-1.33 -1.52,-2.83 -1.87,-3.57 -0.14,-0.29 -0.22,-0.46 -0.22,-0.46l-0.07 -0.36 -3.32 -3.11c0,0 -1.41,2.83 -0.81,4.82z"/>
     <path class="fil46" d="M268.81 184.76c-0.77,-1.33 -1.52,-2.83 -1.87,-3.57l-1.18 0.01c0,0 -1.4,0.41 -1.57,1.06 -0.26,0.98 2.69,4.35 4.62,2.5z"/>
    </g>
    <path class="fil42" d="M259.37 281.25c1.72,-0.77 5.78,-3.27 5.78,-3.27l-2.46 -4.64 -6.05 3.81 -0.24 4.15 2.98 -0.04z"/>
    <path class="fil47" d="M260.92 280.85c0.51,0.22 -0.01,1.66 -0.59,2.23 -1.33,1.3 1.39,6.5 1.77,7.48 0.2,0.51 -1.67,2.59 -3,0.26 -1.15,-2.02 -4.85,-8.46 -6.09,-10.67 -0.26,-0.46 -0.2,-1.03 0.17,-1.39 1.28,-1.26 4.8,-3.35 5.2,-2.77 0.29,0.93 0.6,4.03 2.55,4.86z"/>
    <path class="fil42" d="M274.99 295.98c-0.09,-1.89 -0.95,-6.57 -0.95,-6.57l-5.22 0.61 1.35 7.02 3.77 1.72 1.04 -2.79z"/>
    <path class="fil47" d="M275.11 293.91c0.56,0.01 0.48,0.54 0.72,1.32 0.53,1.79 7.24,2.67 8.29,2.8 0.54,0.07 1.5,2.69 -1.18,2.77 -2.32,0.07 -9.74,0.33 -12.28,0.39 -0.53,0.01 -1.01,-0.31 -1.15,-0.8 -0.52,-1.73 -0.82,-6.09 -0.11,-6.17 0.96,0.18 3.14,-0.36 5.72,-0.31z"/>
    <path class="fil48" d="M257.88 235.79c0.2,0.83 0.43,1.73 0.7,2.71 1.04,3.68 3.98,16.18 5.02,24.25 1.03,8.03 4.7,26.62 5.15,29.48 2.63,0.68 4.09,0.11 7.49,-1.18 0,0 -1.81,-15.53 -3.25,-29.15 -1.17,-11.06 -0.83,-9.98 -1,-24.27l0 0c0.03,0.06 0.74,1.34 1.8,3.32 2.25,4.22 5.94,10 6.65,15.82 0.34,2.8 -20.79,15.53 -21.56,16.12 -0.76,0.59 3.56,7.04 4.33,7.04 0.76,0 27.36,-16.4 27.92,-20.96 0.51,-4.16 -10.97,-34.87 -13.33,-42.67 0,0 -22.35,-1.24 -21.86,6.16 0.07,1.01 0.18,1.9 0.32,2.74 0.2,1.13 0.3,2.19 0.42,3.35 0.19,1.89 0.43,4.06 1.19,7.24z"/>
    <path class="fil49" d="M269.45 233.92c0,0 0,0 0,0.01 0.04,-0.03 0.05,-0.05 0.06,-0.05 -0.01,0 -0.06,0.04 -0.06,0.04z"/>
    <path class="fil50" d="M271.99 237.63l0 0c0.03,0.06 1.4,2.55 2.45,4.53l-2.18 -8.31c0,0 0.11,0.5 -0.28,3.77z"/>
    <path class="fil51" d="M257.4 233.62c0.17,-0.07 8.22,-3.14 8.7,-7.44 0,0 -7.15,1.76 -9.42,2.37 0.19,1.89 0.48,4.01 0.72,5.07z"/>
    <path class="fil42" d="M263.07 185.29c1.79,-0.8 2.46,2.23 4.37,2.08 1.01,-0.08 0.72,-0.48 1.12,-1 0.25,-0.32 0.47,-0.68 1,-0.29 10.81,7.97 4.87,33.32 6.32,34.79 1.19,1.2 -6.23,5.42 -11.37,5 -7.05,-0.56 -7.79,-7.91 -7.81,-9.34 -0.02,-1.42 0.62,-25.76 0.62,-25.76 0,0 3.15,-2.34 5.76,-5.48z"/>
    <path class="fil52" d="M273.79 223.32c0.33,1.81 0.78,3.11 1.57,3.63 1.41,0.93 3.17,0.87 4.9,-1.58 0.1,-0.14 0.19,-0.28 0.27,-0.44 2.19,-4.17 -1.44,-14.15 -2.12,-16.62 -0.28,-1 -0.74,-2.32 -1.19,-3.7 -0.55,-1.72 -0.98,-6.67 -0.48,-7.66 1.87,-3.69 9.43,-0.74 16.03,-1.81 3.39,-0.55 13.75,-9.8 14.65,-10.7 1.27,-1.27 -3.41,-5.62 -4.09,-5.07 -1.22,1 -10.33,8.4 -11.97,9.02 -2.71,1.02 -13.48,-3.01 -21.8,-2.3 0,0 0,0.3 0.11,0.97 0.08,0.56 0.23,1.36 0.5,2.46 0.15,0.64 0.35,1.38 0.6,2.22 1.57,5.33 -0.92,9.7 0.75,16.19 0.72,2.8 1.12,5.67 1.42,8.32 0.3,2.7 0.51,5.17 0.85,7.08z"/>
    <path class="fil53" d="M262.37 230.72c0.23,0.3 0.79,0.22 0.55,0.48 -0.24,0.27 -3.41,2.29 -3.41,2.29 0,0 -0.27,0.41 -0.76,-0.11 -0.49,-0.52 -0.58,-1.1 -0.58,-1.1l4.21 -1.56z"/>
    <path class="fil52" d="M253.89 201.26c0.13,1.17 0.24,2.11 0.35,2.91 0.22,1.62 0.42,2.61 0.65,3.71 0.09,0.43 0.19,0.89 0.29,1.4 0,0 0,0 0,0 0.1,0.49 0.2,1.04 0.32,1.67 0,0 0,0 0,0.01 0.02,0.11 0.04,0.22 0.06,0.34 0.2,1.11 0.15,2.91 0.01,4.94 -0.02,0.33 -0.04,0.66 -0.07,1l0 0c-0.39,5.36 -1.13,11.89 0.62,12.63 3.26,1.37 7.22,0.8 9.4,-2.33 1.81,-2.59 -0.84,-5.17 -0.07,-10.68 0.43,-3.06 0.98,-8.51 0.71,-12.19 -0.59,-7.83 -2.57,-17.23 -3.09,-19.38 0,0 -4.7,0.86 -7.94,5.46 -1.37,1.93 -1.63,6.94 -1.24,10.51z"/>
    <path class="fil52" d="M261.48 195c-7.74,18.5 -9.39,16.37 -9.22,19.17 0.18,2.8 10.41,16.59 10.41,16.59 0,0 -4.5,3.4 -5.09,2.75 -0.59,-0.65 -12.19,-14.85 -12.02,-19.09 0.24,-6.01 8.53,-21.97 9.61,-23.69 1.08,-1.72 6.67,-3.27 7.03,-0.56 0.37,2.71 -0.72,4.82 -0.72,4.82z"/>
    <path class="fil54" d="M255.06 208.52c0.11,0.57 0.24,1.23 0.38,2.02 0.02,0.13 0.04,0.26 0.06,0.41 0,0 0,0 0,0.01 0.02,0.11 0.04,0.22 0.06,0.34 0.2,1.11 0.15,2.91 0.01,4.94 3.14,-4.17 2.07,-12.62 2.07,-12.62l-2.58 4.89z"/>
    <path class="fil54" d="M255.3 219.99c0.46,1.18 6.83,10.05 6.83,10.05l-6.7 -11.8 -0.13 1.75z"/>
    <g>
     <path class="fil40" d="M268.83 174.51c0.58,1.57 3.19,4.15 2.09,4.45 -1.09,0.3 1.23,3.31 0.08,3.66 -2.8,0.86 -6.53,-0.02 -7.27,-1.27 -0.74,-1.25 -1.59,-5.07 -1.59,-5.07l6.69 -1.78z"/>
     <path class="fil55" d="M266.35 176.84c0.92,-0.14 1,0.06 1.54,-0.41 0.54,-0.47 -0.77,-1.03 0.34,-1.53 1.11,-0.51 2.36,-0.93 2.12,-2.28 -0.35,-1.95 -1.98,-1.19 -2.97,-0.69 -0.64,0.33 -1.21,-1.09 -2.55,-0.65 -1.05,0.34 -0.75,0.92 -1.68,1.26 -0.56,0.21 -1.93,-0.42 -2.63,0.5 -1.3,1.72 0.51,2.89 -0.49,4.61 -1.17,2.01 3.49,4.35 3.8,3.83 0.37,-0.61 -0.82,-2.04 -0.42,-2.56 0.61,-0.78 0.89,-0.17 1.7,0.26 0.86,0.46 2.15,0.15 0.98,-0.87 -1.16,-1.02 -0.57,-1.37 0.26,-1.49z"/>
    </g>
    <polygon class="fil47" points="274.37,274.76 266.58,280.47 266.18,278.28 274.23,273.19 "/>
    <polygon class="fil47" points="273.19,263.53 264.57,269.29 264.46,268.51 272.99,261.98 "/>
   </g>
   <g>
    <g>
     <g>
      <g>
       <path class="fil43" d="M75.49 130.21c2.99,-5.53 105.75,-13.68 106.56,-13.7 0.81,-0.03 6.78,-6.71 3.53,-7.13 -3.25,-0.43 -113.88,12.74 -113.78,17.74 0.09,5 1.11,4.84 1.11,4.84l2.59 -1.74z"/>
       <g>
        <path class="fil43" d="M172 114.67c0.13,3.79 5.65,4.7 10.67,4.52 5.01,-0.17 9.65,-1.97 9.52,-5.76 -0.13,-3.79 -4.98,-8.15 -10,-7.97 -5.02,0.17 -10.32,5.41 -10.19,9.2z"/>
        <path class="fil56" d="M172 114.67c0.13,3.79 5.65,4.7 10.67,4.52 5.01,-0.17 9.65,-1.97 9.52,-5.76 -0.13,-3.79 -4.98,-8.15 -10,-7.97 -5.02,0.17 -10.32,5.41 -10.19,9.2z"/>
       </g>
      </g>
      <path class="fil43" d="M72.49 126.69c-0.34,0.28 -0.69,-0.02 -0.7,0.42 -1.94,41.4 -4.05,99.62 0.41,100.83 3.65,0.99 1.76,-81.67 3.89,-98.97 0.27,-2.16 -1.93,-3.68 -3.59,-2.28z"/>
     </g>
     <path class="fil43" d="M76.8 243.49c0.41,0.39 0.65,0.91 0.7,1.47 1.08,12.25 12.65,26.58 8.27,26.24 -4.48,-0.35 -7.51,-6.83 -9.97,-2.79 -2.46,4.04 -10.02,12.13 -9.73,6.2 0.28,-5.93 -2.97,2.7 -9.26,4.47 -6.29,1.77 -21.4,-1.17 -13.46,-3.72 7.94,-2.55 23.06,-19.88 21.64,-32.49 -1.24,-10.97 9.09,-1.91 11.8,0.63z"/>
    </g>
    <g>
     <path class="fil57" d="M63.5 243.59c1.69,1.75 14.36,0.93 16.13,-0.12 0.98,-0.57 0.83,-6.96 0.45,-12.6 -0.25,-4.09 -0.59,-7.78 -0.65,-8.54 -0.01,-0.1 -0.01,-0.19 -0.01,-0.29 0.04,-0.95 0.03,-2.26 -0.04,-3.81 -0.34,-8.02 -2.23,-22.2 -8.04,-21.97 -5.24,0.23 -7.13,14.79 -7.73,22.01 -0.2,2.43 -0.27,4.04 -0.27,4.04 0,0 -0.33,4.09 -0.51,8.69 -0.2,5.46 -0.24,11.63 0.67,12.59z"/>
     <path class="fil58" d="M62.9 229.35c-0.05,0.98 0.55,1.89 1.48,2.22 2.3,0.81 5.07,1.63 7.13,1.77 1.97,0.12 4.73,-0.79 7.11,-1.81 0.88,-0.38 1.43,-1.26 1.36,-2.22 -0.23,-3.44 -0.5,-6.33 -0.56,-6.99 -0.01,-0.1 -0.01,-0.19 -0.01,-0.29 0.02,-0.36 0.02,-0.78 0.02,-1.23 0,-1.33 -1.17,-2.36 -2.49,-2.22 -3.74,0.41 -7.85,0.22 -11.09,-0.08 -1.25,-0.12 -2.35,0.83 -2.43,2.08 -0.07,1.08 -0.1,1.72 -0.1,1.72 0,0 -0.25,3.16 -0.44,7.05z"/>
    </g>
   </g>
  </g>
 </g>
</svg>
