<?xml version="1.0" encoding="UTF-8"?>
<!DOCTYPE svg PUBLIC "-//W3C//DTD SVG 1.1//EN" "http://www.w3.org/Graphics/SVG/1.1/DTD/svg11.dtd">
<!-- Creator: CorelDRAW 2019 (64-Bit) -->
<svg xmlns="http://www.w3.org/2000/svg" xml:space="preserve" width="0.386665in" height="0.386669in" version="1.1" style="shape-rendering:geometricPrecision; text-rendering:geometricPrecision; image-rendering:optimizeQuality; fill-rule:evenodd; clip-rule:evenodd"
viewBox="0 0 386.67 386.67"
 xmlns:xlink="http://www.w3.org/1999/xlink">
 <defs>
  <style type="text/css">
   <![CDATA[
    .fil0 {fill:#4777BC;fill-rule:nonzero}
    .fil4 {fill:#5ED4FF;fill-rule:nonzero}
    .fil3 {fill:#75BF50;fill-rule:nonzero}
    .fil7 {fill:#FAC832;fill-rule:nonzero}
    .fil1 {fill:#FF6082;fill-rule:nonzero}
    .fil2 {fill:#FFE646;fill-rule:nonzero}
    .fil6 {fill:white;fill-rule:nonzero}
    .fil18 {fill:url(#id0);fill-rule:nonzero}
    .fil24 {fill:url(#id1);fill-rule:nonzero}
    .fil19 {fill:url(#id2);fill-rule:nonzero}
    .fil25 {fill:url(#id3);fill-rule:nonzero}
    .fil23 {fill:url(#id4);fill-rule:nonzero}
    .fil12 {fill:url(#id5);fill-rule:nonzero}
    .fil9 {fill:url(#id6);fill-rule:nonzero}
    .fil17 {fill:url(#id7);fill-rule:nonzero}
    .fil8 {fill:url(#id8);fill-rule:nonzero}
    .fil20 {fill:url(#id9);fill-rule:nonzero}
    .fil22 {fill:url(#id10);fill-rule:nonzero}
    .fil10 {fill:url(#id11);fill-rule:nonzero}
    .fil21 {fill:url(#id12);fill-rule:nonzero}
    .fil11 {fill:url(#id13);fill-rule:nonzero}
    .fil14 {fill:url(#id14);fill-rule:nonzero}
    .fil13 {fill:url(#id15);fill-rule:nonzero}
    .fil15 {fill:url(#id16);fill-rule:nonzero}
    .fil16 {fill:url(#id17);fill-rule:nonzero}
    .fil5 {fill:url(#id18);fill-rule:nonzero}
   ]]>
  </style>
  <linearGradient id="id0" gradientUnits="userSpaceOnUse" x1="249.02" y1="263.73" x2="249.02" y2="168.22">
   <stop offset="0" style="stop-opacity:1; stop-color:#B8E4FB"/>
   <stop offset="1" style="stop-opacity:1; stop-color:white"/>
  </linearGradient>
  <linearGradient id="id1" gradientUnits="userSpaceOnUse" x1="261.02" y1="252.22" x2="261.02" y2="207.17">
   <stop offset="0" style="stop-opacity:1; stop-color:white"/>
   <stop offset="1" style="stop-opacity:1; stop-color:white"/>
  </linearGradient>
  <linearGradient id="id2" gradientUnits="userSpaceOnUse" xlink:href="#id1" x1="189.01" y1="254.15" x2="189.01" y2="212.32">
  </linearGradient>
  <linearGradient id="id3" gradientUnits="userSpaceOnUse" xlink:href="#id1" x1="297.85" y1="253.5" x2="297.85" y2="207.81">
  </linearGradient>
  <linearGradient id="id4" gradientUnits="userSpaceOnUse" xlink:href="#id1" x1="223.61" y1="253.5" x2="223.61" y2="212.96">
  </linearGradient>
  <linearGradient id="id5" gradientUnits="userSpaceOnUse" xlink:href="#id1" x1="193.69" y1="196.66" x2="193.69" y2="154.35">
  </linearGradient>
  <linearGradient id="id6" gradientUnits="userSpaceOnUse" xlink:href="#id1" x1="64.65" y1="224.47" x2="64.65" y2="180.6">
  </linearGradient>
  <linearGradient id="id7" gradientUnits="userSpaceOnUse" xlink:href="#id1" x1="245.31" y1="219.77" x2="245.31" y2="185.3">
  </linearGradient>
  <linearGradient id="id8" gradientUnits="userSpaceOnUse" xlink:href="#id0" x1="153.77" y1="228.59" x2="153.77" y2="120.45">
  </linearGradient>
  <linearGradient id="id9" gradientUnits="userSpaceOnUse" xlink:href="#id1" x1="209.27" y1="229.69" x2="209.27" y2="190.44">
  </linearGradient>
  <linearGradient id="id10" gradientUnits="userSpaceOnUse" xlink:href="#id1" x1="288.02" y1="230.66" x2="288.02" y2="189.47">
  </linearGradient>
  <linearGradient id="id11" gradientUnits="userSpaceOnUse" xlink:href="#id1" x1="119.3" y1="218.2" x2="119.3" y2="149.26">
  </linearGradient>
  <linearGradient id="id12" gradientUnits="userSpaceOnUse" xlink:href="#id1" x1="245.43" y1="227.76" x2="245.43" y2="178.21">
  </linearGradient>
  <linearGradient id="id13" gradientUnits="userSpaceOnUse" xlink:href="#id1" x1="156.12" y1="175.5" x2="156.12" y2="125.36">
  </linearGradient>
  <linearGradient id="id14" gradientUnits="userSpaceOnUse" xlink:href="#id1" x1="91.03" y1="218.59" x2="91.03" y2="174.72">
  </linearGradient>
  <linearGradient id="id15" gradientUnits="userSpaceOnUse" xlink:href="#id1" x1="153.77" y1="214.75" x2="153.77" y2="152.71">
  </linearGradient>
  <linearGradient id="id16" gradientUnits="userSpaceOnUse" xlink:href="#id1" x1="192.93" y1="220.55" x2="192.93" y2="172.76">
  </linearGradient>
  <linearGradient id="id17" gradientUnits="userSpaceOnUse" xlink:href="#id1" x1="214.18" y1="211.93" x2="214.18" y2="155.52">
  </linearGradient>
  <linearGradient id="id18" gradientUnits="userSpaceOnUse" x1="78.99" y1="121.17" x2="114.21" y2="180.81">
   <stop offset="0" style="stop-opacity:1; stop-color:white"/>
   <stop offset="0.74902" style="stop-opacity:1; stop-color:gray"/>
   <stop offset="1" style="stop-opacity:1; stop-color:black"/>
  </linearGradient>
 </defs>
 <g id="Layer_x0020_1">
  <metadata id="CorelCorpID_0Corel-Layer"/>
  <path class="fil0" d="M321.39 386.67l-256.1 0c-36.06,0 -65.28,-29.23 -65.28,-65.29l0 -256.1c0,-36.06 29.23,-65.29 65.28,-65.29l256.1 0c36.06,0 65.28,29.23 65.28,65.29l0 256.1c0,36.06 -29.23,65.29 -65.28,65.29z"/>
  <g id="_2030725812688">
   <g>
    <path class="fil1" d="M172.03 136.14c-4.8,-8.13 -11.26,-15.39 -18.86,-21.09 -7.6,-5.72 -16.32,-9.89 -25.49,-12.25 -9.17,-2.36 -18.82,-2.92 -28.24,-1.58 -9.42,1.32 -18.58,4.56 -26.7,9.36 -8.13,4.8 -15.39,11.25 -21.09,18.86 -5.72,7.6 -9.89,16.32 -12.25,25.49 -2.37,9.17 -2.92,18.82 -1.58,28.24 1.32,9.42 4.56,18.58 9.36,26.7l-7.31 4.32c-2.67,-4.53 -4.93,-9.35 -6.69,-14.37 -1.76,-5.01 -3.03,-10.2 -3.77,-15.46 -1.49,-10.53 -0.87,-21.3 1.76,-31.54 2.64,-10.24 7.3,-19.97 13.69,-28.47 3.19,-4.25 6.81,-8.19 10.77,-11.72 3.96,-3.54 8.27,-6.68 12.8,-9.35 4.53,-2.67 9.35,-4.93 14.37,-6.69 5.01,-1.76 10.2,-3.03 15.46,-3.77 10.53,-1.49 21.3,-0.87 31.54,1.76 10.24,2.64 19.98,7.3 28.47,13.69 4.25,3.19 8.19,6.81 11.72,10.77 3.54,3.96 6.67,8.26 9.35,12.79l-7.31 4.32z"/>
    <path class="fil2" d="M164.71 140.46c-4.24,-7.19 -9.94,-13.59 -16.65,-18.62 -6.71,-5.04 -14.41,-8.73 -22.51,-10.82 -8.1,-2.09 -16.62,-2.57 -24.93,-1.39 -8.31,1.17 -16.39,4.02 -23.57,8.26 -7.19,4.24 -13.59,9.94 -18.62,16.65 -5.05,6.71 -8.73,14.4 -10.82,22.51 -2.09,8.1 -2.57,16.62 -1.4,24.93 1.17,8.31 4.02,16.39 8.27,23.57l-7.31 4.32c-4.8,-8.13 -8.04,-17.29 -9.36,-26.7 -1.33,-9.42 -0.78,-19.06 1.58,-28.24 2.36,-9.17 6.53,-17.89 12.25,-25.49 5.7,-7.61 12.96,-14.07 21.09,-18.86 8.12,-4.8 17.29,-8.04 26.7,-9.36 9.42,-1.33 19.06,-0.78 28.24,1.58 9.17,2.36 17.89,6.54 25.49,12.25 7.61,5.7 14.07,12.96 18.86,21.09l-7.31 4.32z"/>
    <path class="fil3" d="M157.4 144.77c-3.69,-6.25 -8.62,-11.79 -14.44,-16.15 -5.81,-4.37 -12.49,-7.57 -19.52,-9.39 -7.04,-1.81 -14.43,-2.23 -21.63,-1.21 -7.2,1.01 -14.19,3.48 -20.45,7.17 -6.25,3.69 -11.79,8.62 -16.15,14.44 -4.37,5.82 -7.57,12.49 -9.39,19.52 -1.81,7.04 -2.23,14.43 -1.21,21.63 1.01,7.2 3.48,14.19 7.17,20.45l-7.31 4.32c-4.24,-7.19 -7.1,-15.26 -8.27,-23.57 -1.18,-8.31 -0.69,-16.83 1.4,-24.93 2.09,-8.11 5.77,-15.8 10.82,-22.51 5.03,-6.71 11.43,-12.41 18.62,-16.65 7.19,-4.24 15.26,-7.1 23.57,-8.26 8.31,-1.18 16.83,-0.69 24.93,1.39 8.1,2.09 15.8,5.78 22.51,10.82 6.71,5.03 12.41,11.43 16.65,18.62l-7.31 4.32z"/>
    <path class="fil4" d="M150.09 149.09c-3.14,-5.31 -7.31,-9.99 -12.23,-13.68 -4.92,-3.7 -10.57,-6.41 -16.54,-7.95 -5.97,-1.54 -12.23,-1.89 -18.33,-1.03 -6.09,0.86 -12,2.94 -17.31,6.07 -5.31,3.14 -9.99,7.3 -13.68,12.23 -3.7,4.92 -6.41,10.57 -7.95,16.54 -1.54,5.97 -1.89,12.23 -1.03,18.32 0.86,6.09 2.94,12 6.07,17.32l-7.31 4.32c-3.69,-6.25 -6.16,-13.24 -7.17,-20.45 -1.02,-7.2 -0.6,-14.59 1.21,-21.63 1.81,-7.03 5.01,-13.71 9.39,-19.52 4.36,-5.82 9.9,-10.75 16.15,-14.44 6.25,-3.69 13.24,-6.16 20.45,-7.17 7.2,-1.02 14.59,-0.6 21.63,1.21 7.04,1.81 13.71,5.02 19.52,9.39 5.82,4.36 10.75,9.9 14.44,16.15l-7.31 4.32z"/>
    <path class="fil5" d="M169.98 119.03c-3.54,-3.96 -7.47,-7.58 -11.72,-10.77 -8.5,-6.39 -18.23,-11.05 -28.47,-13.69 -10.24,-2.64 -21.01,-3.26 -31.54,-1.76 -5.26,0.74 -10.45,2.01 -15.46,3.77 -5.01,1.76 -9.83,4.02 -14.37,6.69 -4.53,2.68 -8.83,5.82 -12.8,9.35 -3.96,3.54 -7.58,7.47 -10.77,11.72 -6.39,8.5 -11.05,18.23 -13.69,28.47 -2.64,10.24 -3.26,21.02 -1.76,31.54 0.74,5.26 2.01,10.45 3.77,15.46 1.76,5.01 4.02,9.83 6.69,14.37l7.31 -4.32 7.31 -4.32 7.31 -4.32 7.31 -4.32c-3.13,-5.31 -5.22,-11.22 -6.07,-17.32 -0.87,-6.09 -0.51,-12.35 1.03,-18.32 1.54,-5.96 4.25,-11.62 7.95,-16.54 3.69,-4.93 8.37,-9.09 13.68,-12.23 5.31,-3.13 11.22,-5.22 17.31,-6.07 6.09,-0.87 12.36,-0.51 18.33,1.03 5.96,1.54 11.62,4.25 16.54,7.95 4.92,3.69 9.09,8.37 12.23,13.68l7.31 -4.32 7.31 -4.32 7.31 -4.32 7.31 -4.32c-2.68,-4.53 -5.81,-8.83 -9.35,-12.79z"/>
   </g>
   <g>
    <g>
     <path class="fil6" d="M192.69 308.91c-0.54,-0.33 -0.7,-1.02 -0.38,-1.56l7.63 -12.52c0.32,-0.53 1.02,-0.7 1.55,-0.38 0.54,0.33 0.7,1.02 0.38,1.56l-7.63 12.52c-0.32,0.53 -1.02,0.7 -1.55,0.38z"/>
     <path class="fil6" d="M221.37 287.28c-0.53,-0.32 -0.7,-1.02 -0.37,-1.55l3.52 -5.78c0.32,-0.53 1.02,-0.7 1.55,-0.38 0.54,0.33 0.7,1.02 0.38,1.56l-3.52 5.78c-0.33,0.54 -1.02,0.7 -1.56,0.38z"/>
     <path class="fil6" d="M277.6 286.08c-0.54,-0.33 -0.7,-1.02 -0.38,-1.56l4.37 -7.18c0.33,-0.53 1.02,-0.7 1.56,-0.38 0.53,0.33 0.7,1.02 0.37,1.56l-4.37 7.18c-0.32,0.53 -1.02,0.7 -1.55,0.38z"/>
     <path class="fil6" d="M249.48 308.91c-0.53,-0.33 -0.7,-1.02 -0.37,-1.56l6.01 -9.86c0.32,-0.54 1.02,-0.7 1.55,-0.38 0.54,0.33 0.7,1.02 0.38,1.56l-6.01 9.86c-0.32,0.53 -1.02,0.7 -1.56,0.38z"/>
     <g>
      <path class="fil6" d="M230.34 293.74c-0.53,-0.32 -0.7,-1.02 -0.37,-1.55l6.51 -10.69c0.32,-0.54 1.02,-0.7 1.55,-0.38 0.54,0.33 0.7,1.02 0.38,1.56l-6.51 10.68c-0.33,0.54 -1.02,0.7 -1.56,0.38z"/>
     </g>
     <g>
      <path class="fil6" d="M246.29 290.85c-0.53,-0.32 -0.7,-1.02 -0.38,-1.55l6.31 -10.34c0.32,-0.53 1.02,-0.7 1.55,-0.37 0.53,0.32 0.7,1.02 0.38,1.55l-6.31 10.34c-0.32,0.53 -1.02,0.7 -1.55,0.37z"/>
     </g>
     <path class="fil6" d="M204.55 283.42c0,1.62 -1.31,2.93 -2.93,2.93 -1.62,0 -2.93,-1.31 -2.93,-2.93 0,-1.62 1.31,-2.93 2.93,-2.93 1.62,0 2.93,1.31 2.93,2.93z"/>
     <path class="fil6" d="M217.73 291.78c0,1.62 -1.31,2.93 -2.93,2.93 -1.62,0 -2.93,-1.31 -2.93,-2.93 0,-1.62 1.31,-2.93 2.93,-2.93 1.62,0 2.93,1.31 2.93,2.93z"/>
     <path class="fil6" d="M237.12 305.01c0,1.62 -1.31,2.93 -2.93,2.93 -1.62,0 -2.93,-1.31 -2.93,-2.93 0,-1.62 1.31,-2.93 2.93,-2.93 1.62,0 2.93,1.31 2.93,2.93z"/>
     <path class="fil6" d="M264.15 288.85c0,1.62 -1.31,2.93 -2.93,2.93 -1.62,0 -2.93,-1.31 -2.93,-2.93 0,-1.62 1.31,-2.93 2.93,-2.93 1.62,0 2.93,1.31 2.93,2.93z"/>
     <path class="fil6" d="M277.46 295.74c0,1.3 -1.05,2.34 -2.34,2.34 -1.3,0 -2.34,-1.05 -2.34,-2.34 0,-1.3 1.05,-2.34 2.34,-2.34 1.3,0 2.34,1.05 2.34,2.34z"/>
     <path class="fil6" d="M220.68 305.6c0,1.3 -1.05,2.35 -2.34,2.35 -1.3,0 -2.34,-1.05 -2.34,-2.35 0,-1.3 1.05,-2.34 2.34,-2.34 1.3,0 2.34,1.05 2.34,2.34z"/>
     <path class="fil6" d="M193.12 295.3c0,1.3 -1.05,2.35 -2.34,2.35 -1.3,0 -2.35,-1.05 -2.35,-2.35 0,-1.29 1.05,-2.34 2.35,-2.34 1.29,0 2.34,1.05 2.34,2.34z"/>
    </g>
    <g>
     <path class="fil6" d="M54.08 273.35c-0.53,-0.32 -0.7,-1.02 -0.38,-1.55l7.63 -12.52c0.33,-0.54 1.02,-0.7 1.56,-0.38 0.53,0.33 0.7,1.02 0.37,1.56l-7.63 12.52c-0.33,0.53 -1.02,0.7 -1.56,0.37z"/>
     <path class="fil6" d="M82.76 251.72c-0.54,-0.33 -0.7,-1.02 -0.38,-1.56l3.52 -5.78c0.33,-0.54 1.02,-0.7 1.56,-0.38 0.53,0.33 0.7,1.02 0.37,1.56l-3.52 5.78c-0.32,0.54 -1.02,0.7 -1.55,0.38z"/>
     <path class="fil6" d="M138.99 250.51c-0.53,-0.32 -0.7,-1.02 -0.38,-1.55l4.38 -7.18c0.32,-0.54 1.02,-0.7 1.55,-0.38 0.54,0.33 0.7,1.02 0.38,1.56l-4.37 7.18c-0.33,0.53 -1.02,0.7 -1.56,0.37z"/>
     <path class="fil6" d="M110.88 273.35c-0.53,-0.32 -0.7,-1.02 -0.38,-1.55l6.01 -9.86c0.33,-0.54 1.02,-0.7 1.56,-0.38 0.53,0.33 0.7,1.02 0.38,1.55l-6.02 9.87c-0.32,0.53 -1.02,0.7 -1.55,0.37z"/>
     <g>
      <path class="fil6" d="M91.74 258.18c-0.54,-0.33 -0.7,-1.02 -0.38,-1.56l6.51 -10.68c0.33,-0.54 1.02,-0.7 1.56,-0.38 0.53,0.33 0.7,1.02 0.37,1.56l-6.51 10.68c-0.32,0.53 -1.02,0.7 -1.55,0.38z"/>
     </g>
     <g>
      <path class="fil6" d="M107.68 255.29c-0.53,-0.32 -0.7,-1.02 -0.37,-1.55l6.3 -10.34c0.32,-0.53 1.02,-0.7 1.55,-0.38 0.54,0.33 0.7,1.02 0.38,1.56l-6.3 10.34c-0.32,0.53 -1.02,0.7 -1.56,0.37z"/>
     </g>
     <path class="fil6" d="M65.94 247.86c0,1.62 -1.31,2.93 -2.93,2.93 -1.62,0 -2.93,-1.31 -2.93,-2.93 0,-1.61 1.31,-2.93 2.93,-2.93 1.62,0 2.93,1.31 2.93,2.93z"/>
     <path class="fil6" d="M79.13 256.22c0,1.62 -1.31,2.93 -2.93,2.93 -1.62,0 -2.93,-1.31 -2.93,-2.93 0,-1.62 1.31,-2.93 2.93,-2.93 1.62,0 2.93,1.31 2.93,2.93z"/>
     <path class="fil6" d="M98.51 269.45c0,1.62 -1.31,2.93 -2.93,2.93 -1.62,0 -2.93,-1.31 -2.93,-2.93 0,-1.62 1.31,-2.93 2.93,-2.93 1.62,0 2.93,1.31 2.93,2.93z"/>
     <path class="fil6" d="M125.54 253.29c0,1.62 -1.31,2.93 -2.93,2.93 -1.62,0 -2.93,-1.31 -2.93,-2.93 0,-1.62 1.31,-2.93 2.93,-2.93 1.62,0 2.93,1.31 2.93,2.93z"/>
     <path class="fil6" d="M138.86 260.18c0,1.3 -1.05,2.34 -2.34,2.34 -1.3,0 -2.35,-1.05 -2.35,-2.34 0,-1.3 1.05,-2.34 2.35,-2.34 1.29,0 2.34,1.05 2.34,2.34z"/>
     <path class="fil6" d="M82.08 270.04c0,1.3 -1.05,2.34 -2.34,2.34 -1.3,0 -2.35,-1.05 -2.35,-2.34 0,-1.3 1.05,-2.34 2.35,-2.34 1.29,0 2.34,1.05 2.34,2.34z"/>
     <path class="fil6" d="M54.51 259.73c0,1.3 -1.05,2.34 -2.34,2.34 -1.3,0 -2.34,-1.05 -2.34,-2.34 0,-1.3 1.05,-2.34 2.34,-2.34 1.3,0 2.34,1.05 2.34,2.34z"/>
    </g>
    <g>
     <path class="fil7" d="M320.09 165.47c0,19.02 -10.66,35.57 -26.33,43.98 -3.69,0 -7.02,1.05 -9.85,3 2.57,-15.04 -9.09,-28.94 -24.49,-28.94 -4.11,0 -7.98,0.99 -11.4,2.76 -0.37,-15.73 -11.59,-28.78 -26.47,-31.95 5.05,-22.2 24.91,-38.75 48.64,-38.75 27.56,0 49.9,22.34 49.9,49.9z"/>
     <g>
      <path class="fil7" d="M270.19 104.68c-1.31,0 -2.36,-1.06 -2.36,-2.36l0 -22.37c0,-1.3 1.06,-2.36 2.36,-2.36 1.3,0 2.36,1.06 2.36,2.36l0 22.37c0,1.3 -1.06,2.36 -2.36,2.36z"/>
      <path class="fil7" d="M243.84 108.01l-3.56 -8.57c-0.5,-1.2 0.07,-2.59 1.28,-3.08 1.2,-0.5 2.59,0.07 3.09,1.28l3.56 8.57c0.5,1.2 -0.07,2.59 -1.28,3.09 -1.2,0.5 -2.59,-0.07 -3.09,-1.28z"/>
      <path class="fil7" d="M210.94 143.48l-8.57 -3.56c-1.2,-0.5 -1.78,-1.88 -1.28,-3.09 0.5,-1.2 1.88,-1.78 3.09,-1.28l8.57 3.56c1.2,0.5 1.78,1.88 1.28,3.09 -0.5,1.2 -1.88,1.78 -3.09,1.28z"/>
      <path class="fil7" d="M336.21 195.37l-8.57 -3.54c-1.2,-0.5 -1.78,-1.88 -1.28,-3.08 0.5,-1.2 1.88,-1.78 3.08,-1.28l8.57 3.54c1.2,0.5 1.78,1.88 1.28,3.08 -0.5,1.21 -1.89,1.78 -3.09,1.28z"/>
      <path class="fil7" d="M326.36 142.21c-0.5,-1.2 0.07,-2.59 1.28,-3.09l8.57 -3.56c1.2,-0.5 2.58,0.07 3.08,1.28 0.5,1.2 -0.07,2.59 -1.28,3.09l-8.57 3.56c-1.2,0.5 -2.59,-0.07 -3.09,-1.28z"/>
      <path class="fil7" d="M293.46 109.29c-1.2,-0.5 -1.78,-1.88 -1.28,-3.09l3.56 -8.57c0.5,-1.2 1.88,-1.78 3.09,-1.28 1.2,0.5 1.78,1.88 1.28,3.08l-3.56 8.57c-0.5,1.2 -1.88,1.78 -3.09,1.28z"/>
      <path class="fil7" d="M223.86 122.49l-15.81 -15.82c-0.92,-0.92 -0.92,-2.42 0,-3.34 0.92,-0.93 2.42,-0.93 3.34,0l15.82 15.81c0.92,0.93 0.92,2.42 0,3.34 -0.93,0.92 -2.42,0.92 -3.34,0z"/>
      <path class="fil7" d="M328.99 227.6l-15.82 -15.8c-0.44,-0.44 -0.69,-1.04 -0.69,-1.67 0,-2.2 2.73,-3.2 4.15,-1.55l15.69 15.68c0.93,0.92 0.93,2.42 0,3.34 -0.92,0.93 -2.42,0.93 -3.34,0z"/>
      <path class="fil7" d="M355.7 167.83l-22.36 0c-1.31,0 -2.36,-1.06 -2.36,-2.36 0,-1.31 1.06,-2.36 2.36,-2.36l22.36 0c1.3,0 2.36,1.06 2.36,2.36 0,1.3 -1.06,2.36 -2.36,2.36z"/>
      <path class="fil7" d="M313.18 122.49c-0.93,-0.93 -0.93,-2.42 0,-3.34l15.82 -15.81c0.92,-0.93 2.42,-0.93 3.34,0 0.92,0.92 0.92,2.42 0,3.34l-15.82 15.82c-0.92,0.92 -2.42,0.92 -3.34,0z"/>
     </g>
    </g>
    <g>
     <g>
      <path class="fil8" d="M233.26 228.59l-163.23 0c0,0 -37.48,1.36 -37.48,-29.9 0,-31.25 41.25,-26.26 41.25,-26.26 0,0 3.41,-37.83 40.94,-29.47 29.46,-40.88 72.28,-17.83 80.8,4.44 0,0 52.64,-20.54 53.87,34.47 29.37,-4.97 44.18,46.71 -16.16,46.71z"/>
      <path class="fil9" d="M85.91 202.53c0,-12.11 -9.52,-21.94 -21.26,-21.94 -11.74,0 -21.25,9.83 -21.25,21.94 0,12.12 9.52,21.94 21.25,21.94 11.74,0 21.26,-9.82 21.26,-21.94z"/>
      <path class="fil10" d="M152.69 183.73c0,-19.04 -14.95,-34.47 -33.39,-34.47 -18.44,0 -33.39,15.43 -33.39,34.47 0,19.04 14.95,34.46 33.39,34.46 18.45,0 33.39,-15.43 33.39,-34.46z"/>
      <path class="fil11" d="M180.4 150.43c0,-13.85 -10.87,-25.07 -24.29,-25.07 -13.42,0 -24.29,11.22 -24.29,25.07 0,13.84 10.87,25.07 24.29,25.07 13.41,0 24.29,-11.23 24.29,-25.07z"/>
      <path class="fil12" d="M214.18 175.51c0,-11.69 -9.18,-21.15 -20.5,-21.15 -11.32,0 -20.49,9.47 -20.49,21.15 0,11.68 9.17,21.15 20.49,21.15 11.32,0 20.5,-9.48 20.5,-21.15z"/>
      <path class="fil13" d="M183.82 183.73c0,-17.13 -13.46,-31.02 -30.06,-31.02 -16.6,0 -30.06,13.89 -30.06,31.02 0,17.13 13.46,31.02 30.06,31.02 16.6,0 30.06,-13.89 30.06,-31.02z"/>
      <path class="fil14" d="M112.28 196.66c0,-12.12 -9.51,-21.94 -21.25,-21.94 -11.74,0 -21.25,9.82 -21.25,21.94 0,12.11 9.52,21.93 21.25,21.93 11.74,0 21.25,-9.82 21.25,-21.93z"/>
      <path class="fil15" d="M216.08 196.66c0,-13.2 -10.37,-23.9 -23.15,-23.9 -12.79,0 -23.15,10.7 -23.15,23.9 0,13.2 10.37,23.89 23.15,23.89 12.78,0 23.15,-10.7 23.15,-23.89z"/>
      <path class="fil16" d="M241.51 183.73c0,-15.58 -12.24,-28.21 -27.33,-28.21 -15.09,0 -27.33,12.63 -27.33,28.21 0,15.57 12.24,28.21 27.33,28.21 15.09,0 27.33,-12.63 27.33,-28.21z"/>
      <path class="fil17" d="M262 202.53c0,-9.52 -7.48,-17.24 -16.7,-17.24 -9.22,0 -16.7,7.72 -16.7,17.24 0,9.52 7.48,17.24 16.7,17.24 9.22,0 16.7,-7.71 16.7,-17.24z"/>
     </g>
     <g>
      <path class="fil18" d="M311.36 263.72c15.66,0 28.36,-13.1 28.36,-29.27 0,-10.91 -5.8,-20.42 -14.38,-25.45 0.01,-0.33 0.05,-0.66 0.05,-0.99 0,-16.12 -12.66,-29.18 -28.27,-29.18 -8.14,0 -15.45,3.57 -20.61,9.25 -6.67,-11.87 -19.11,-19.86 -33.36,-19.86 -12.46,0 -23.53,6.11 -30.58,15.57 -2.13,-0.63 -4.36,-0.98 -6.69,-0.98 -13.49,0 -24.42,11.28 -24.42,25.2 0,0.11 0.02,0.21 0.02,0.31 -13.08,1.93 -23.15,13.51 -23.15,27.54 0,15.38 12.08,27.85 26.98,27.85l126.05 0z"/>
      <path class="fil19" d="M209.27 233.23c0,-11.55 -9.07,-20.91 -20.26,-20.91 -11.19,0 -20.26,9.36 -20.26,20.91 0,11.55 9.07,20.92 20.26,20.92 11.19,0 20.26,-9.37 20.26,-20.92z"/>
      <path class="fil20" d="M228.29 210.07c0,-10.84 -8.52,-19.63 -19.02,-19.63 -10.5,0 -19.02,8.79 -19.02,19.63 0,10.84 8.52,19.63 19.02,19.63 10.5,0 19.02,-8.78 19.02,-19.63z"/>
      <path class="fil21" d="M269.44 202.99c0,-13.68 -10.75,-24.78 -24.01,-24.78 -13.26,0 -24,11.09 -24,24.78 0,13.69 10.75,24.78 24,24.78 13.26,0 24.01,-11.09 24.01,-24.78z"/>
      <path class="fil22" d="M307.97 210.07c0,-11.37 -8.93,-20.59 -19.95,-20.59 -11.02,0 -19.95,9.22 -19.95,20.59 0,11.37 8.93,20.59 19.95,20.59 11.02,0 19.95,-9.22 19.95,-20.59z"/>
      <path class="fil23" d="M243.25 233.23c0,-11.19 -8.79,-20.27 -19.64,-20.27 -10.84,0 -19.63,9.07 -19.63,20.27 0,11.2 8.79,20.28 19.63,20.28 10.85,0 19.64,-9.08 19.64,-20.28z"/>
      <path class="fil24" d="M282.84 229.69c0,-12.44 -9.77,-22.52 -21.82,-22.52 -12.05,0 -21.82,10.08 -21.82,22.52 0,12.45 9.77,22.52 21.82,22.52 12.05,0 21.82,-10.08 21.82,-22.52z"/>
      <path class="fil25" d="M319.99 230.66c0,-12.61 -9.91,-22.84 -22.13,-22.84 -12.22,0 -22.13,10.23 -22.13,22.84 0,12.62 9.91,22.85 22.13,22.85 12.22,0 22.13,-10.23 22.13,-22.85z"/>
     </g>
    </g>
   </g>
  </g>
 </g>
</svg>
